<svg width="1212" height="345" viewBox="0 0 1212 345" fill="none" xmlns="http://www.w3.org/2000/svg">
<g clip-path="url(#clip0_575_960)">
<path d="M390.21 165.56L386.21 159.88L386.3 161.9L386.06 333V333.68H410.04V194.14L409.7 193.46L390.22 165.55L390.21 165.56ZM405.78 329.44H390.32L390.22 172.95L405.78 195.26V329.44Z" fill="white"/>
<path d="M517.86 267.79L428.38 142.77L427.99 142.21L405.87 142.35L531.78 318.52L535.73 324.02V157.97H551.69V329.16H523.64L389.26 142.83L388.78 142.19L372.75 142.23H372.07H372.03V343.9V344.58L423.63 344.63L423.31 219.66L513.27 344.16H513.84L568.96 344.63V142.56H517.84V267.77L517.86 267.79ZM522.12 273.96V146.85H564.72V340.38H515.86L420.69 209.25L419.65 207.86L419.38 207.49V340.39H376.28V146.51H386.62L521.27 333.21L521.69 333.44H522.14H555.95V154.41L555.85 153.73H535L531.47 153.69L531.49 310.84L414.12 146.51H425.93L522.17 280.43L522.11 275.52L522.13 273.97L522.12 273.96Z" fill="white"/>
<path d="M1100.18 142.25V327.03L1081.58 327.05V142.24L993.42 142.27V183.32L1044.45 183.28L1044.49 167.93H1012.66L1012.68 157.34H1062.58V342.15L1118.35 342.17H1119.04V157.27H1169.16V167.76H1137.74L1137.06 167.82V183.32H1188.5L1188.53 142.24H1100.16L1100.18 142.25ZM1184.27 179.08H1141.34V172.03H1172.76L1173.45 171.96V153.03H1114.81V337.92H1066.86L1066.8 153.11H1008.44V156.67L1008.41 172.21H1040.21V179.07H997.7V146.54L1077.35 146.51V331.33L1104.47 331.28V327.02H1104.46V146.5H1184.32L1184.3 179.07L1184.27 179.08Z" fill="white"/>
<path d="M914.52 238.15L977.8 146.65L980.82 142.37L925.08 142.43L924.71 142.49L885.8 198.77L843.96 142.62L843.64 142.25H843.06L780.6 142.42L846.97 223.5L849.12 226.25L860.7 214.25L858.97 212.16L815.74 157.1H833.54L885.64 226.46L885.92 226.04V226.06L934.22 156.44L950.51 156.39L894.35 237.31L894.15 237.61L894.08 237.72L894.37 238.15L953.07 326.63L936.16 326.6L867.64 224.92L866.51 226.68L783.5 338.87L781.12 342.08L837.77 342.25H838.09H838.31L838.39 342.14L838.64 341.79L876.82 288.61L877.22 288.23L869.68 275.93L868.05 273.24L829.06 326.65H812.72L866.91 252.28L927.05 341.94L927.25 342.25L985.3 342.1L982.97 338.94L914.51 238.12L914.52 238.15ZM929.57 338.02L868.56 246.89L867.21 244.84L806.81 327.83L804.5 330.8L830.63 330.93H831.06H831.23L831.58 330.46L867.74 280.93L872.32 287.82L836.05 338.02L789.43 338.05L867.59 232.25L933.73 330.58L933.94 330.89L960.72 330.52L899.24 237.77L956.38 155.35L958.55 152.36L932.42 152.33H931.96L885.64 219.32L835.73 153.11L835.52 152.86L807.01 152.98L809.62 156.2L854.98 213.98L849.48 219.79L789.45 146.51H841.56L885.75 206.39L886.36 205.46L926.98 146.69L972.62 146.66L909.6 237.45L909.23 237.94L977.28 338L929.57 338.03V338.02Z" fill="white"/>
<path d="M623.75 173.17H750.55L750.58 154.59L750.54 153.9H604.58V333.77L749.97 333.79L753.54 333.82L753.58 314.52H623.75V173.17ZM749.28 318.78V329.53H608.84V158.16H746.31V168.91H619.48L619.53 318.78H749.28Z" fill="white"/>
<path d="M640.66 303.57V259.97H759.66V217.83H640.66V184.12L764 184.07V143.19L763.94 142.25H589.68V344.15L589.71 344.83H767.21L767.19 303.57H640.66ZM762.96 340.57H593.95V146.51H759.74V179.87H636.41V222.01V222.09H636.59H755.42V255.71H636.41V307.8H636.57V307.83H762.97V340.57H762.96Z" fill="white"/>
<path d="M636.48 248.12L745.29 248.13H745.98V230.39V229.38H637.09H636.43L636.41 247.12V248.11H636.49L636.48 248.12ZM640.66 233.65H741.72V243.87H640.66V233.65Z" fill="white"/>
<path d="M482.19 48.1695H468.6C462.13 33.2495 448.04 23.6295 429.47 23.6295C403.77 23.6295 384.04 42.1995 384.04 72.2095C384.04 102.22 403.77 120.95 429.47 120.95C453.84 120.95 471.75 104.54 473.57 78.1795H424.83V68.7295H485.85V77.1895C484.03 107.86 461.14 131.4 429.48 131.4C397.82 131.4 372.11 107.03 372.11 72.2095C372.11 37.3895 396.98 13.0195 429.48 13.0195C454.35 13.0195 473.92 26.1195 482.21 48.1695" fill="white"/>
<path d="M513.54 7.5498H501.93V130.24H513.54V7.5498Z" fill="white"/>
<path d="M574.05 131.57C548.52 131.57 529.12 113.66 529.12 84.9797C529.12 56.2997 549.02 38.3896 574.39 38.3896C599.76 38.3896 619.66 56.1297 619.66 84.9797C619.66 113.83 599.6 131.57 574.06 131.57M574.06 121.46C591.14 121.46 607.72 109.86 607.72 84.9797C607.72 60.0997 591.47 48.5096 574.23 48.5096C556.99 48.5096 540.9 60.1097 540.9 84.9797C540.9 109.85 556.82 121.46 574.06 121.46Z" fill="white"/>
<path d="M682.83 38.3898C707.7 38.3898 725.94 56.4598 725.94 84.8198C725.94 113.18 707.54 131.57 682.83 131.57C664.76 131.57 652.32 122.12 646.85 110.35V130.24H635.41V7.5498H646.85V59.7798C652.49 47.8398 665.09 38.3898 682.83 38.3898ZM680.51 48.4998C662.11 48.4998 646.85 62.4298 646.85 84.9798C646.85 107.53 662.1 121.45 680.51 121.45C698.92 121.45 714.17 107.69 714.17 84.8098C714.17 61.9298 699.58 48.4998 680.51 48.4998Z" fill="white"/>
<path d="M783.32 38.3896C801.56 38.3896 814 48.1697 819.13 59.6096V39.7096H830.74V130.24H819.13V110.18C813.83 121.79 801.22 131.57 783.15 131.57C758.45 131.57 740.04 113.17 740.04 84.8196C740.04 56.4696 758.44 38.3896 783.31 38.3896M785.47 48.4996C766.4 48.4996 751.81 61.7596 751.81 84.8096C751.81 107.86 766.4 121.45 785.47 121.45C804.54 121.45 819.13 107.52 819.13 84.9797C819.13 62.4397 804.04 48.4996 785.47 48.4996Z" fill="white"/>
<path d="M859.77 7.5498H848.16V130.24H859.77V7.5498Z" fill="white"/>
<path d="M906.52 14.5098V111.83H944.65V130.24H883.31V14.5098H906.52Z" fill="white"/>
<path d="M956.43 13.8498C956.43 6.21977 962.4 0.259766 970.69 0.259766C978.98 0.259766 984.95 6.22977 984.95 13.8498C984.95 21.4698 978.82 27.4498 970.69 27.4498C962.56 27.4498 956.43 21.4798 956.43 13.8498ZM958.92 38.3898H982.13V130.24H958.92V38.3898Z" fill="white"/>
<path d="M1066.54 79.5098C1066.54 64.7498 1058.42 56.7998 1046.14 56.7998C1033.86 56.7998 1025.42 64.7598 1025.42 79.5098V130.25H1002.21V38.3898H1025.42V49.8298C1031.39 42.0398 1041.34 37.0698 1053.11 37.0698C1074.5 37.0698 1089.75 50.9998 1089.75 76.3598V130.25H1066.54V79.5098Z" fill="white"/>
<path d="M1106.65 7.5498H1129.86V77.3498L1160.7 38.3898H1190.87L1150.42 84.4798L1191.2 130.24H1161.03L1129.86 91.1098V130.24H1106.65V7.5498Z" fill="white"/>
<path d="M1200.96 38.3896V39.7096H1198.44V46.3396H1196.88V39.7096H1194.36V38.3896H1200.95H1200.96ZM1209.46 46.3396L1209.17 41.6596C1209.14 41.0496 1209.14 40.2896 1209.11 39.4396H1209.02C1208.82 40.1396 1208.59 41.0797 1208.36 41.8097L1206.94 46.2197H1205.32L1203.9 41.6896C1203.76 41.0796 1203.52 40.1396 1203.35 39.4396H1203.26C1203.26 40.1696 1203.23 40.9296 1203.2 41.6596L1202.91 46.3396H1201.41L1201.99 38.3896H1204.33L1205.69 42.2796C1205.86 42.8896 1206.01 43.4796 1206.21 44.2996H1206.24C1206.44 43.5696 1206.62 42.8997 1206.79 42.3097L1208.15 38.3896H1210.4L1211.01 46.3396H1209.45H1209.46Z" fill="white"/>
<path d="M202.88 160.59L153.22 219.78H262.79V341L321.98 270.44V160.59H202.88Z" fill="white"/>
<path d="M69.36 321.18L111.9 270.65C101.04 262.19 92.2 251.48 85.36 238.54C76.23 221.31 71.68 201.06 71.68 177.81C71.68 154.56 76.16 135.3 85.12 118.06C94.07 100.76 106.52 87.5 122.47 78.21C138.39 68.92 156.68 64.24 177.24 64.24C195.85 64.24 212.12 68.09 226.02 75.74C237.46 81.99 246.83 90.63 254.24 101.58L300.93 46.12C294.37 39.74 287.21 33.9 279.31 28.68C250.43 9.55 216.41 0 177.24 0C144.06 0 113.92 7.53 86.86 22.68C59.83 37.77 38.56 58.85 23.12 85.89C7.72 112.96 0 143.61 0 177.76C0 211.91 7.72 242.54 23.12 269.44C35.07 290.2 50.51 307.44 69.36 321.17" fill="white"/>
</g>
<defs>
<clipPath id="clip0_575_960">
<rect width="1211.02" height="344.82" fill="white"/>
</clipPath>
</defs>
</svg>
