<?xml version="1.0" encoding="utf-8"?>
<!-- Generator: Adobe Illustrator 28.0.0, SVG Export Plug-In . SVG Version: 6.00 Build 0)  -->
<svg version="1.1" id="Layer_1" xmlns="http://www.w3.org/2000/svg" xmlns:xlink="http://www.w3.org/1999/xlink" x="0px" y="0px"
	 viewBox="0 0 432 44.4" style="enable-background:new 0 0 432 44.4;" xml:space="preserve">
<style type="text/css">
	.st0{fill:#FFFFFF;}
</style>
<path class="st0" d="M359.9,21.9c0-12.7,9.2-21.9,22-21.9c6.4,0,11.2,1.9,16,6.2l-3.8,5c-3.1-2.8-6.8-4.6-12-4.6
	c-8.7,0-14.7,6.4-14.7,15.3c0,8.7,5.8,15.4,14.4,15.4c5.4,0,9.5-2.3,12.3-6l4.6,4.7c-4.1,5.1-9.9,7.9-17.1,7.9
	C368.6,44,359.9,34.2,359.9,21.9"/>
<polygon class="st0" points="258,37 258,43.5 230.7,43.5 230.7,1 257.4,1 257.4,7.5 238.1,7.5 238.1,18.8 255,18.8 255,25.1 
	238.1,25.1 238.1,37 "/>
<polygon class="st0" points="299.9,1 326.4,1 326.4,7.8 307.2,7.8 307.2,20 324.4,20 324.4,26.6 307.2,26.6 307.2,43.4 299.9,43.4 
	"/>
<polygon class="st0" points="358.4,36.9 358.4,43.4 331.1,43.4 331.1,1 357.8,1 357.8,7.5 338.5,7.5 338.5,18.7 355.4,18.7 
	355.4,25 338.5,25 338.5,36.9 "/>
<polygon class="st0" points="432,7.7 420,7.7 420,43.4 412.7,43.4 412.7,7.7 400.6,7.7 400.6,1 432,1 "/>
<path class="st0" d="M284.6,26.6c6-1.7,9.8-6.4,9.8-12.3c0-7.5-6-13.2-14.4-13.2h-16.6v42.4h7.4v-36h8.7c4.6,0,7.6,3,7.6,7
	c0,4.2-2.9,6.9-7.7,6.9h-1.9l0,0c0,0,0,0,0,0h-3.1l-0.1,6.1h2.9l10,16.1h8.4v-0.2L284.6,26.6z"/>
<path class="st0" d="M172,44.4c-0.1,0-0.3-0.1-0.4-0.1c-2.9-0.2-5.7-0.9-8.4-2.1c-1.7-0.8-3.3-1.8-4.8-3c-0.1,0-0.1-0.1-0.2-0.2
	c0.8-1.3,1.7-2.6,2.5-3.9c0.1,0.1,0.2,0.1,0.2,0.2c2.3,2.1,4.9,3.4,7.9,4c1.2,0.3,2.4,0.4,3.7,0.5c1.7,0.1,3.3-0.1,4.9-0.7
	c1.4-0.5,2.6-1.2,3.5-2.3c1.2-1.4,1.7-3,1.6-4.8c-0.1-1.7-0.8-3.2-2-4.3c-1-1-2.3-1.7-3.6-2.3c-1.6-0.8-3.3-1.3-4.9-1.9
	c-2-0.7-4-1.5-5.8-2.6c-1.4-0.8-2.7-1.7-3.8-2.8c-1.4-1.5-2.4-3.2-2.8-5.3c-0.6-3.4,0.3-6.4,2.7-9c1.4-1.5,3.2-2.4,5.2-3.1
	c1.3-0.4,2.6-0.7,3.9-0.8c0.1,0,0.2,0,0.3-0.1h2.1c0.1,0,0.3,0.1,0.4,0.1c1.1,0.1,2.1,0.2,3.1,0.4c3.1,0.6,5.8,2,8.3,3.9
	c0.1,0.1,0.1,0.1,0.2,0.2c-0.3,0.7-2.1,3.6-2.3,3.8c-0.1-0.1-0.2-0.2-0.3-0.2c-1-0.7-2.1-1.4-3.2-1.9c-3.1-1.4-6.3-1.9-9.7-1.3
	c-1.3,0.2-2.5,0.7-3.5,1.4c-1,0.7-1.8,1.5-2.2,2.7c-0.6,1.9-0.4,3.7,0.8,5.4c0.6,0.8,1.4,1.5,2.2,2c1,0.7,2.1,1.2,3.3,1.6
	c1.3,0.5,2.6,1,4,1.5c2.1,0.8,4.1,1.6,6.1,2.8c1.3,0.8,2.6,1.7,3.6,2.8c1.7,1.8,2.6,3.9,2.7,6.4c0,0.1,0,0.2,0.1,0.3v1.1
	c0,0.1-0.1,0.2-0.1,0.3c0,0.2,0,0.5,0,0.7c-0.4,2.9-1.7,5.3-3.9,7.2c-2.3,1.9-5,2.9-7.9,3.2c-0.4,0.1-0.9,0.1-1.3,0.2H172z"/>
<path class="st0" d="M0,1c0.2,0,30.4,0,30.5,0v4.3H17.6c0,12.8-0.1,25.4-0.1,38.2h-4.6C12.9,30.7,13,18,13,5.2c-0.2,0-12.8,0-13,0
	C0,3.8,0,2.4,0,1"/>
<path class="st0" d="M122.3,43.3h-4.6V0.5c0.2,0,0.5,0,0.7,0c0.4,0,0.7,0,1.1,0c0.2,0,0.4,0.1,0.6,0.3c1.6,1.9,3.2,3.7,4.8,5.6
	c5.8,6.9,11.7,13.7,17.5,20.6c1.9,2.3,3.9,4.5,5.9,6.8c0.1,0.1,0.2,0.2,0.3,0.3V1h4.6v42.7c-0.1,0-0.2,0-0.3,0c-0.5,0-1.1,0-1.6,0
	c-0.3,0-0.4-0.1-0.6-0.3c-2.5-3-5-6-7.6-8.9c-6.1-7.2-12.3-14.4-18.4-21.6c-0.7-0.9-1.5-1.7-2.2-2.6c-0.1-0.1-0.1-0.1-0.2-0.2
	c0,5.6,0,11.1,0,16.6C122.3,32.2,122.3,37.8,122.3,43.3"/>
<path class="st0" d="M56.1,25.7c4.1,5.9,8.1,11.8,12.1,17.7c-0.2,0-0.3,0-0.4,0c-1.6,0-3.2,0-4.8,0c-0.3,0-0.4-0.1-0.6-0.3
	c-2.8-4.1-5.6-8.3-8.4-12.4c-1-1.5-2-3-3-4.5c-0.1-0.2-0.3-0.3-0.5-0.3c-1.8,0-3.5,0-5.3,0c-0.1,0-0.3,0-0.4,0v-4.2
	c0.3,0,0.5,0,0.8,0c2.6,0,5.2,0,7.8-0.1c1.7,0,3.3-0.3,4.8-1.1c2.4-1.3,3.7-3.2,4.1-5.9c0.2-1.8,0-3.5-0.9-5.1
	C60.3,7.3,58.4,6,56,5.3C55.2,5.1,54.3,5,53.5,5c-3.7,0-7.4,0-11,0h-0.5c0,0.1,0,0.2,0,0.3c0,0.1,0,0.3,0,0.4c0,12.4,0,24.7,0,37.1
	v0.5h-4.6V0.8c0.1,0,0.3,0,0.4,0c5.3,0,10.6,0,15.8,0c3.2,0,6.2,0.9,8.8,2.9c2.5,1.9,4.1,4.4,4.6,7.5c0.7,3.9-0.2,7.4-2.9,10.4
	c-1.4,1.6-3.2,2.6-5.2,3.3c-0.7,0.3-1.5,0.4-2.2,0.6C56.4,25.6,56.3,25.6,56.1,25.7"/>
<path class="st0" d="M91.4,0.6c0.5,0,1,0,1.6,0c0.1,0,0.2,0.1,0.2,0.1c0.1,0.1,0.1,0.2,0.1,0.2c6.2,13.5,12.5,27,18.7,40.5
	c0.3,0.6,0.5,1.2,0.8,1.7c0,0.1,0.1,0.2,0.1,0.3H108c-0.1-0.1-0.1-0.2-0.2-0.4c-1.4-2.9-2.7-5.9-4.1-8.8c-0.1-0.3-0.3-0.4-0.6-0.4
	c-6.1,0-12.2,0-18.4,0c-0.2,0-0.3,0-0.5,0c0.6-1.4,1.1-2.8,1.7-4.2c0.2,0,0.4,0,0.6,0c2.9,0,5.7,0,8.6,0c1.6,0,3.2,0,4.7,0
	c0.6,0,1.1,0,1.7,0c-3.1-6.9-6.4-13.7-9.3-20.6c-0.1,0-0.1,0.2-0.2,0.3c-0.5,1.3-1,2.6-1.6,3.8c-1.4,3.1-2.8,6.1-4.2,9.2
	C83,29.2,79.9,36.1,76.7,43c-0.1,0.2-0.1,0.3-0.2,0.5h-4.8C71.7,43.2,90.6,2,91.4,0.6"/>
<path class="st0" d="M195,22.1v21.4h7.4V28h8.8c9.4,0,14.3-6.4,14.3-13.3c0-7-5.1-13.7-14.2-13.7H195l0.1,6.7l15.5,0
	c4.7,0,7.5,3.2,7.5,7.2c0,3.6-1.9,7.1-7.3,7.1l-7.9,0c0,0-4.4,7-4.4,7l0-7L195,22.1z"/>
</svg>
