<?xml version="1.0" encoding="UTF-8"?>
<svg id="Layer_1" xmlns="http://www.w3.org/2000/svg" version="1.1" viewBox="0 0 51 50.8">
  <!-- Generator: Adobe Illustrator 29.8.4, SVG Export Plug-In . SVG Version: 2.1.1 Build 6)  -->
  <defs>
    <style>
      .st0 {
        fill: #003b71;
      }

      .st1 {
        fill: #139cd8;
      }
    </style>
  </defs>
  <path class="st0" d="M16.1,38.7c0-4.2,1.6-9.2,4.7-13.8-1.7.2-3.3.2-4.5.2-8.7-.2-14.3-2.7-16.3-6.9v32.8h23.7c-4.7-2-7.6-6.6-7.6-12.3"/>
  <path class="st1" d="M0,0v9.6C1.4,6.4,5.3,3.7,10.2,3.7s7.8,1.2,12.9,2.6c7.6,2.2,13.1,3.4,16.6,3.4s7.4-1,11.3-3.4V0H0Z"/>
  <path class="st0" d="M19.7,10.2c-6.4-1.6-10.8-3-13.3-3s-1.8.2-2.5.5c-2,1.1-3.1,3.2-2.9,5.8,0,5.3,5.9,9.3,15.8,9.3s3-.2,4.8-.3c1.9-2.9,3.1-5,5.1-6l2.1-1.1,4-2.1.2.2c-1.4,1.6-3.3,4.4-5.9,8.1,2.9-.4,9.6-2.2,9.8-2.2.7-.2,1.3.6.4,1.1,0,.1-.3.2-.5.3-.8.2-6.1,1.9-10.9,2.5-3.7,6.5-5.6,12.2-5.6,17.1s3.4,10,8.6,10.1c3.5,0,7-1.8,9.7-5.3,2.4-2.8,3.6-6.1,3.6-9.2s-1.4-4.3-3.6-4.3-1.8.2-2.7.6c-2.9,1.3-5.9,4.5-7.8,9.2,0,0-.2.5-.7.4h-.5c-.4-.2-.4-.6-.4-.6,1.6-5,5.1-8.6,8.5-10.1,1.2-.6,2.4-.9,3.5-.9,3.7,0,6.1,2.8,6.1,6.7s-2.3,8.3-6.6,11.7c-1.2,1-1.6,1.2-3.9,2.2h17V8.1c-5,3.1-10.6,4.7-17.1,4.7s-9.9-1.4-14.3-2.6"/>
</svg>