<?xml version="1.0" encoding="UTF-8"?><svg id="Layer_2" xmlns="http://www.w3.org/2000/svg" viewBox="0 0 97.29 78.13"><defs><style>.cls-1{fill:#6cace3;}</style></defs><g id="work"><g id="_12"><path class="cls-1" d="M96.39,78.13H.9c-.5,0-.9-.4-.9-.9V.9C0,.4,.4,0,.9,0H96.39c.5,0,.9,.4,.9,.9V77.23c0,.5-.4,.9-.9,.9ZM1.8,76.33H95.49V1.8H1.8V76.33Z"/><path class="cls-1" d="M86.27,12.35H.9c-.5,0-.9-.4-.9-.9s.4-.9,.9-.9H86.27c.5,0,.9,.4,.9,.9s-.4,.9-.9,.9Z"/><path class="cls-1" d="M6.89,7.23c-.12,0-.23-.02-.34-.06-.05-.03-.11-.05-.16-.09-.05-.03-.09-.06-.14-.11-.16-.17-.26-.41-.26-.64s.1-.47,.26-.64c.04-.04,.09-.07,.14-.11,.05-.04,.11-.06,.16-.08,.33-.13,.73-.05,.98,.19,.16,.17,.26,.4,.26,.64s-.1,.47-.26,.64c-.17,.17-.41,.26-.64,.26Z"/><path class="cls-1" d="M13.78,7.23c-.23,0-.47-.09-.64-.26-.16-.16-.26-.4-.26-.64,0-.12,.03-.23,.07-.34,.04-.11,.11-.21,.19-.3l.13-.11c.05-.03,.11-.06,.16-.08,.05-.03,.11-.05,.16-.05,.12-.02,.24-.02,.35,0,.06,0,.12,.03,.17,.05,.05,.02,.11,.05,.15,.08,.05,.04,.1,.07,.14,.11,.08,.09,.14,.19,.19,.3,.04,.11,.07,.22,.07,.34,0,.24-.1,.48-.26,.64-.17,.17-.41,.26-.64,.26Z"/><path class="cls-1" d="M20.66,7.23c-.06,0-.12,0-.18-.02-.05,0-.11-.03-.16-.04-.05-.03-.11-.05-.15-.09-.05-.03-.1-.06-.14-.11-.08-.08-.14-.18-.19-.29-.04-.12-.07-.23-.07-.35,0-.23,.1-.47,.26-.64,.04-.04,.09-.07,.14-.11,.04-.04,.1-.06,.15-.08,.05-.03,.11-.05,.16-.05,.12-.02,.24-.02,.36,0,.05,0,.11,.03,.16,.05,.05,.02,.11,.04,.15,.08,.05,.04,.1,.07,.14,.11,.16,.17,.26,.4,.26,.64,0,.12-.03,.23-.07,.35-.04,.11-.11,.21-.19,.29-.04,.04-.09,.08-.14,.11-.04,.04-.1,.06-.15,.09-.05,.02-.11,.04-.16,.04-.06,.02-.12,.02-.18,.02Z"/><path class="cls-1" d="M86.27,40.06c-.5,0-.9-.4-.9-.9V21.52H11.92v16.74H79.5c.5,0,.9,.4,.9,.9s-.4,.9-.9,.9H11.02c-.5,0-.9-.4-.9-.9V20.62c0-.5,.4-.9,.9-.9H86.27c.5,0,.9,.4,.9,.9v18.54c0,.5-.4,.9-.9,.9Z"/><path class="cls-1" d="M29.81,56.68H11.02c-.5,0-.9-.4-.9-.9v-8.58c0-.5,.4-.9,.9-.9H29.81c.5,0,.9,.4,.9,.9v8.58c0,.5-.4,.9-.9,.9Zm-17.9-1.8H28.91v-6.78H11.92v6.78Z"/><path class="cls-1" d="M58.04,56.68h-18.8c-.5,0-.9-.4-.9-.9v-8.58c0-.5,.4-.9,.9-.9h18.8c.5,0,.9,.4,.9,.9v8.58c0,.5-.4,.9-.9,.9Zm-17.9-1.8h17v-6.78h-17v6.78Z"/><path class="cls-1" d="M86.27,56.68h-18.8c-.5,0-.9-.4-.9-.9v-8.58c0-.5,.4-.9,.9-.9h18.8c.5,0,.9,.4,.9,.9v8.58c0,.5-.4,.9-.9,.9Zm-17.9-1.8h17v-6.78h-17v6.78Z"/><path class="cls-1" d="M29.81,62.88H11.02c-.5,0-.9-.4-.9-.9s.4-.9,.9-.9H29.81c.5,0,.9,.4,.9,.9s-.4,.9-.9,.9Z"/><path class="cls-1" d="M20.66,69.08H11.02c-.5,0-.9-.4-.9-.9s.4-.9,.9-.9h9.64c.5,0,.9,.4,.9,.9s-.4,.9-.9,.9Z"/><path class="cls-1" d="M58.04,62.88h-18.8c-.5,0-.9-.4-.9-.9s.4-.9,.9-.9h18.8c.5,0,.9,.4,.9,.9s-.4,.9-.9,.9Z"/><path class="cls-1" d="M48.89,69.08h-9.64c-.5,0-.9-.4-.9-.9s.4-.9,.9-.9h9.64c.5,0,.9,.4,.9,.9s-.4,.9-.9,.9Z"/><path class="cls-1" d="M86.27,62.88h-18.8c-.5,0-.9-.4-.9-.9s.4-.9,.9-.9h18.8c.5,0,.9,.4,.9,.9s-.4,.9-.9,.9Z"/><path class="cls-1" d="M77.12,69.08h-9.64c-.5,0-.9-.4-.9-.9s.4-.9,.9-.9h9.64c.5,0,.9,.4,.9,.9s-.4,.9-.9,.9Z"/></g></g></svg>