<?xml version="1.0" encoding="UTF-8"?><svg id="Layer_2" xmlns="http://www.w3.org/2000/svg" viewBox="0 0 76.66 83.92"><defs><style>.cls-1{fill:#6cace3;}</style></defs><g id="work"><g id="_13"><path class="cls-1" d="M56.05,83.92H20.85c-.26,0-.51-.11-.68-.31-.17-.2-.25-.46-.21-.72l1.53-9.85c.07-.44,.45-.76,.89-.76H54.51c.44,0,.82,.32,.89,.76l1.53,9.85c.04,.26-.04,.52-.21,.72-.17,.2-.42,.31-.68,.31Zm-34.15-1.8H55l-1.25-8.05H23.15l-1.25,8.05Z"/><path class="cls-1" d="M51.18,66.98c-.12,0-.25-.03-.37-.08-.45-.2-.66-.74-.45-1.19l6.43-14.36-13.4-35.09h-4.94c-.5,0-.9-.4-.9-.9s.4-.9,.9-.9h5.56c.37,0,.71,.23,.84,.58l13.76,36.02c.09,.22,.08,.47-.02,.69l-6.58,14.7c-.15,.33-.48,.53-.82,.53Z"/><path class="cls-1" d="M24.77,74.07h0c-.5,0-.9-.41-.9-.9l.04-8.24-5.88-13.18c-.1-.22-.1-.47-.02-.69L31.76,15.04c.18-.46,.7-.7,1.16-.52,.46,.18,.7,.7,.52,1.16l-13.62,35.67,5.81,13.01c.05,.12,.08,.24,.08,.37l-.04,8.43c0,.5-.4,.9-.9,.9Z"/><path class="cls-1" d="M38.45,47.43c-.5,0-.9-.4-.9-.9V15.37c0-.5,.4-.9,.9-.9s.9,.4,.9,.9v31.16c0,.5-.4,.9-.9,.9Z"/><path class="cls-1" d="M38.29,57.76c-3.13,0-5.68-2.55-5.68-5.68s2.55-5.68,5.68-5.68,5.68,2.55,5.68,5.68-2.55,5.68-5.68,5.68Zm0-9.56c-2.14,0-3.88,1.74-3.88,3.88s1.74,3.88,3.88,3.88,3.88-1.74,3.88-3.88-1.74-3.88-3.88-3.88Z"/><path class="cls-1" d="M41.72,8.67h-6.87c-.5,0-.9-.4-.9-.9V.9c0-.5,.4-.9,.9-.9h6.87c.5,0,.9,.4,.9,.9V7.77c0,.5-.4,.9-.9,.9Zm-5.97-1.8h5.07V1.8h-5.07V6.87Z"/><path class="cls-1" d="M75.67,8.67h-6.87c-.5,0-.9-.4-.9-.9V.9c0-.5,.4-.9,.9-.9h6.87c.5,0,.9,.4,.9,.9V7.77c0,.5-.4,.9-.9,.9Zm-5.97-1.8h5.07V1.8h-5.07V6.87Z"/><path class="cls-1" d="M75.76,40.39h-6.87c-.5,0-.9-.4-.9-.9v-6.87c0-.5,.4-.9,.9-.9h6.87c.5,0,.9,.4,.9,.9v6.87c0,.5-.4,.9-.9,.9Zm-5.97-1.8h5.07v-5.07h-5.07v5.07Z"/><path class="cls-1" d="M7.77,40.39H.9c-.5,0-.9-.4-.9-.9v-6.87c0-.5,.4-.9,.9-.9H7.77c.5,0,.9,.4,.9,.9v6.87c0,.5-.4,.9-.9,.9Zm-5.97-1.8H6.87v-5.07H1.8v5.07Z"/><path class="cls-1" d="M7.77,8.67H.9c-.5,0-.9-.4-.9-.9V.9C0,.4,.4,0,.9,0H7.77c.5,0,.9,.4,.9,.9V7.77c0,.5-.4,.9-.9,.9ZM1.8,6.87H6.87V1.8H1.8V6.87Z"/><path class="cls-1" d="M4.61,33.53s-.08,0-.11,0c-.49-.06-.84-.51-.78-1.01C4.89,23.25,12.89,5.26,34.79,3.58c.51-.04,.93,.33,.97,.83,.04,.5-.33,.93-.83,.97C14.19,6.97,6.61,23.98,5.5,32.75c-.06,.45-.44,.79-.89,.79Z"/><path class="cls-1" d="M71.52,28.05c-.45,0-.83-.33-.89-.79-1.53-12.23-16.63-21.17-23.91-21.17-.5,0-.9-.4-.9-.9s.4-.9,.9-.9c8.03,0,24.02,9.38,25.69,22.75,.06,.49-.29,.94-.78,1-.04,0-.08,0-.11,0Z"/><path class="cls-1" d="M63.92,5.37h0l-17.2-.14c-.5,0-.9-.41-.89-.91,0-.49,.41-.89,.9-.89h0l17.2,.14c.5,0,.9,.41,.89,.91,0,.49-.41,.89-.9,.89Z"/><path class="cls-1" d="M34.86,5.37H15.31c-.5,0-.9-.4-.9-.9s.4-.9,.9-.9h19.55c.5,0,.9,.4,.9,.9s-.4,.9-.9,.9Z"/></g></g></svg>