<?xml version="1.0" encoding="UTF-8"?><svg id="Layer_2" xmlns="http://www.w3.org/2000/svg" viewBox="0 0 70.68 70.68"><defs><style>.cls-1{fill:#6cace3;}</style></defs><g id="work"><g><path class="cls-1" d="M51.95,42.65c-.55,0-1,.45-1,1v4.15c0,1.74-1.41,3.15-3.15,3.15H22.88c-1.74,0-3.15-1.41-3.15-3.15v-4.15c0-.55-.45-1-1-1s-1,.45-1,1v4.15c0,2.84,2.31,5.15,5.15,5.15h24.91c2.84,0,5.15-2.31,5.15-5.15v-4.15c0-.55-.45-1-1-1Z"/><path class="cls-1" d="M34.59,44.44c.1,.1,.21,.17,.33,.22,.12,.05,.24,.07,.37,.07,.14,0,.28-.03,.4-.08,.11-.05,.21-.11,.3-.2,0,0,0,0,0,0,0,0,0,0,0,0h0s0,0,0,0h0s0,0,0,0l8.39-8.39c.39-.39,.39-1.02,0-1.41-.39-.39-1.02-.39-1.41,0l-6.68,6.68V18.73c0-.55-.45-1-1-1s-1,.45-1,1v22.58l-6.68-6.68c-.39-.39-1.02-.39-1.41,0s-.39,1.02,0,1.41l8.39,8.39Z"/><path class="cls-1" d="M35.34,0C15.85,0,0,15.85,0,35.34s15.85,35.34,35.34,35.34,35.34-15.85,35.34-35.34S54.83,0,35.34,0Zm0,68.68c-18.38,0-33.34-14.96-33.34-33.34S16.96,2,35.34,2s33.34,14.96,33.34,33.34-14.96,33.34-33.34,33.34Z"/></g></g></svg>