<?xml version="1.0" encoding="UTF-8"?><svg id="Layer_2" xmlns="http://www.w3.org/2000/svg" viewBox="0 0 88 76.07"><defs><style>.cls-1{fill:#6cace3;}</style></defs><g id="work"><g><path class="cls-1" d="M66.58,70.3c-8.63,0-15.65-7.02-15.65-15.65,0-2.95,.83-5.83,2.4-8.32,.14-.23,.39-.37,.67-.37,.15,0,.29,.04,.42,.12,.18,.11,.3,.29,.35,.49s.01,.42-.1,.59c-1.41,2.24-2.16,4.83-2.16,7.48,0,7.76,6.31,14.07,14.07,14.07s14.07-6.31,14.07-14.07-6.31-14.07-14.07-14.07c-3.17,0-6.17,1.04-8.67,2.99-.14,.11-.31,.17-.49,.17-.24,0-.47-.11-.62-.3-.27-.34-.21-.84,.13-1.11,2.78-2.18,6.11-3.33,9.64-3.33,8.63,0,15.65,7.02,15.65,15.65s-7.02,15.65-15.65,15.65Z"/><path class="cls-1" d="M66.58,57.38c-.43,0-.79-.35-.79-.79v-10.21c0-.44,.35-.79,.79-.79s.79,.35,.79,.79v9.42h9.42c.43,0,.79,.35,.79,.79s-.35,.79-.79,.79h-10.21Z"/><path class="cls-1" d="M66.58,76.07c-5.28,0-10.36-1.95-14.29-5.48l-.15-.13H5.64c-3.11,0-5.64-2.53-5.64-5.64V19.88c0-.44,.35-.79,.79-.79s.79,.35,.79,.79v3.85H76.95V14.03c0-2.24-1.82-4.07-4.07-4.07h-3.31v3.72c0,2.58-2.1,4.67-4.67,4.67s-4.67-2.09-4.67-4.67v-3.72h-7.76v3.72c0,2.58-2.1,4.67-4.67,4.67s-4.67-2.09-4.67-4.67v-3.72h-7.76v3.72c0,2.58-2.1,4.67-4.67,4.67s-4.67-2.09-4.67-4.67v-3.72h-7.76v3.72c0,2.58-2.1,4.67-4.67,4.67s-4.67-2.09-4.67-4.67v-3.72h-3.31c-2.24,0-4.06,1.82-4.06,4.07v.64c0,.44-.35,.79-.79,.79s-.79-.35-.79-.79v-.64c0-3.11,2.53-5.64,5.64-5.64h3.31v-3.72c0-2.58,2.1-4.67,4.67-4.67s4.67,2.09,4.67,4.67v3.72h7.76v-3.72c0-2.58,2.1-4.67,4.67-4.67s4.67,2.09,4.67,4.67v3.72h7.76v-3.72c0-2.58,2.1-4.67,4.67-4.67s4.67,2.09,4.67,4.67v3.72h7.76v-3.72c0-2.58,2.1-4.67,4.67-4.67s4.67,2.09,4.67,4.67v3.72h3.31c3.11,0,5.64,2.53,5.64,5.64v22.85l.22,.15c5.79,4.01,9.25,10.6,9.25,17.61,0,4.94-1.72,9.76-4.85,13.57-.15,.18-.37,.29-.61,.29-.18,0-.36-.06-.5-.18-.34-.27-.38-.77-.11-1.11,2.89-3.53,4.49-7.99,4.49-12.57,0-8.7-5.58-16.31-13.89-18.93-2.01-.62-3.97-.91-5.96-.91-10.94,0-19.84,8.9-19.84,19.84s8.9,19.84,19.84,19.84c4.24,0,8.29-1.32,11.71-3.83,.14-.1,.3-.15,.46-.15,.26,0,.49,.12,.64,.32,.12,.17,.18,.38,.14,.59s-.14,.39-.31,.51c-3.69,2.7-8.06,4.13-12.64,4.13Zm-34.22-7.19h18.18l-.67-.84c-2.8-3.47-4.41-7.67-4.66-12.15l-.03-.49h-12.81v13.47Zm-15.39,0h13.81v-13.47h-13.81v13.47Zm-15.39-4.06c0,2.24,1.82,4.06,4.06,4.06H15.39v-13.47H1.58v9.41Zm30.78-10.98h12.82l.03-.48c.11-1.75,.42-3.47,.94-5.12l.02-.08v-7.8h-13.81v13.47Zm-15.39,0h13.81v-13.47h-13.81v13.47Zm-15.39,0H15.39v-13.47H1.58v13.47Zm46.17-9.51l.94-1.43c.39-.59,.81-1.16,1.24-1.7l.68-.84h-2.86v3.96Zm0-5.54h4.47l.15-.13c2.52-2.24,5.57-3.88,8.82-4.73l.38-.1v-8.52h-13.81v13.47Zm-15.39,0h13.81v-13.47h-13.81v13.47Zm-15.39,0h13.81v-13.47h-13.81v13.47Zm-15.39,0H15.39v-13.47H1.58v13.47Zm65.01-5.55c1.97,0,3.93,.27,5.81,.8,1.37,.39,2.63,.88,3.81,1.48l.75,.38v-10.58h-13.81v8.19l.58-.08c.95-.13,1.91-.19,2.86-.19Zm-1.67-31.66c-1.71,0-3.09,1.39-3.09,3.09V13.68c0,1.71,1.39,3.09,3.09,3.09s3.09-1.39,3.09-3.09V4.67c0-1.71-1.39-3.09-3.09-3.09Zm-17.1,0c-1.71,0-3.09,1.39-3.09,3.09V13.68c0,1.71,1.39,3.09,3.09,3.09s3.09-1.39,3.09-3.09V4.67c0-1.71-1.39-3.09-3.09-3.09Zm-17.1,0c-1.71,0-3.09,1.39-3.09,3.09V13.68c0,1.71,1.39,3.09,3.09,3.09s3.09-1.39,3.09-3.09V4.67c0-1.71-1.39-3.09-3.09-3.09ZM13.62,1.58c-1.71,0-3.09,1.39-3.09,3.09V13.68c0,1.71,1.39,3.09,3.09,3.09s3.09-1.39,3.09-3.09V4.67c0-1.71-1.39-3.09-3.09-3.09Z"/></g></g></svg>