<?xml version="1.0" encoding="UTF-8"?><svg id="Layer_2" xmlns="http://www.w3.org/2000/svg" viewBox="0 0 97.26 82.78"><defs><style>.cls-1{fill:#6cace3;}</style></defs><g id="work"><g><path class="cls-1" d="M89.75,39.61l-3.62-1.47,3.33-2.25c.26-.17,.39-.48,.34-.79-.61-3.99-1.8-7.86-3.53-11.51-.12-.29-.42-.47-.74-.45l-4.21,.14,2.27-3.64c.17-.26,.17-.59,0-.85-2.18-3.34-4.84-6.35-7.88-8.92-.24-.2-.57-.24-.85-.11l-4,1.94,.61-4.43c.05-.31-.09-.62-.35-.79-3.33-2.13-6.94-3.77-10.74-4.88-.29-.07-.59,.02-.79,.24l-2.98,3.54-1.28-4.43c-.1-.28-.35-.49-.65-.53-3.9-.56-7.85-.56-11.75,0-.31,.04-.56,.26-.65,.56l-1.28,4.4-2.95-3.52c-.2-.24-.53-.33-.83-.24-3.79,1.1-7.41,2.75-10.74,4.88-.26,.17-.4,.48-.35,.79l.62,4.47-3.99-1.95c-.28-.14-.62-.09-.86,.11-3.04,2.59-5.69,5.59-7.88,8.93-.17,.26-.17,.59,0,.85l2.29,3.62-4.22-.14c-.31,0-.6,.17-.73,.45-1.74,3.64-2.93,7.52-3.53,11.51-.05,.3,.08,.61,.33,.79l3.33,2.25-3.62,1.47c-.29,.12-.48,.4-.49,.71v1.12c0,3.73,.51,7.43,1.5,11.03,.08,.29,.32,.51,.62,.57l3.66,.61-2.51,2.61c-.24,.22-.32,.56-.2,.86,1.57,3.83,3.71,7.41,6.35,10.61,.19,.23,.5,.34,.79,.27l3.33-.79-1.14,3.15c-.11,.29-.03,.62,.19,.83,3.01,2.9,6.45,5.32,10.18,7.19,.27,.14,.6,.11,.84-.08l2.55-1.99,.23,3.21c.02,.31,.22,.58,.51,.69,3.94,1.47,8.09,2.34,12.3,2.56,.3,.01,.59-.15,.73-.42l1.49-2.79,1.49,2.79c.14,.26,.4,.42,.69,.42h.05c4.2-.23,8.35-1.09,12.3-2.56,.29-.11,.48-.38,.5-.69l.23-3.21,2.56,1.99c.24,.18,.56,.22,.83,.08,3.74-1.89,7.17-4.33,10.18-7.25,.22-.22,.3-.54,.2-.83l-1.15-3.15,3.33,.79c.29,.09,.6,0,.8-.22,2.63-3.2,4.77-6.77,6.34-10.6,.12-.29,.06-.62-.16-.85l-2.52-2.61,3.65-.65c.3-.05,.54-.27,.62-.57,.99-3.59,1.49-7.3,1.5-11.03v-1.12c0-.31-.2-.59-.5-.71Zm-1.09,1.82c0,3.42-.44,6.83-1.32,10.15l-4.61,.79c-.29,.05-.52,.25-.61,.53-.09,.28-.02,.58,.18,.79l3.15,3.3c-1.43,3.36-3.31,6.51-5.59,9.36l-4.24-1.04c-.42-.11-.85,.14-.96,.57-.04,.15-.03,.32,.02,.47l1.49,4.06c-2.69,2.55-5.71,4.72-9,6.44l-3.32-2.59c-.22-.17-.53-.21-.79-.1-.27,.12-.45,.38-.46,.67l-.3,4.17c-3.49,1.26-7.14,2.02-10.85,2.26l-1.95-3.65c-.2-.38-.68-.53-1.06-.33-.14,.07-.26,.19-.33,.33l-1.95,3.65c-3.71-.24-7.36-1-10.85-2.26l-.3-4.17c-.03-.43-.41-.76-.84-.73-.16,.01-.3,.07-.43,.16l-3.34,2.59c-3.28-1.71-6.3-3.86-8.98-6.4l1.47-4.06c.15-.41-.06-.86-.47-1.01-.15-.05-.3-.06-.46-.02l-4.28,1.06c-2.28-2.85-4.16-6-5.59-9.36l3.15-3.3c.2-.21,.27-.51,.18-.79-.09-.27-.32-.48-.61-.53l-4.62-.79c-.86-3.35-1.29-6.8-1.28-10.26v-.52l4.51-1.84c.4-.17,.59-.63,.43-1.03-.06-.14-.16-.26-.28-.35l-4.13-2.76c.58-3.5,1.62-6.9,3.1-10.11l5.17,.17c.29,.02,.57-.13,.71-.39,.14-.24,.14-.54,0-.79l-2.79-4.47c1.94-2.9,4.25-5.53,6.88-7.84l4.85,2.36c.26,.12,.56,.09,.79-.07,.23-.17,.35-.45,.32-.74l-.79-5.43c2.94-1.83,6.1-3.27,9.41-4.28l3.62,4.21c.19,.23,.5,.34,.79,.27,.28-.06,.51-.27,.59-.55l1.58-5.36c3.42-.45,6.88-.45,10.3,0l1.58,5.36c.12,.42,.56,.66,.98,.54,.15-.04,.29-.13,.39-.25l3.5-4.24c3.32,1.01,6.5,2.44,9.45,4.28l-.79,5.43c-.04,.29,.08,.57,.32,.74,.23,.16,.53,.19,.79,.07l4.86-2.36c2.63,2.31,4.94,4.96,6.88,7.88l-2.78,4.47c-.14,.24-.14,.54,0,.79,.13,.26,.41,.42,.71,.39l5.17-.17c1.48,3.22,2.52,6.62,3.1,10.11l-4.14,2.8c-.24,.16-.37,.44-.34,.73,.03,.29,.21,.53,.48,.65l4.52,1.84c0,.17,0,.35,0,.52Z"/><polygon class="cls-1" points="76.72 41.06 77.06 41.06 77.51 41.06 76.72 41.06"/><path class="cls-1" d="M77.06,41.06h-1.13v.32c0,.43,.35,.79,.79,.79s.79-.35,.79-.79v-.32h-.45Z"/><path class="cls-1" d="M77.28,37.68s0,0,0,0c-.09-.68-.2-1.38-.35-2.07-.09-.43-.51-.72-.95-.63s-.72,.51-.63,.95c.13,.65,.24,1.32,.32,1.96,.06,.4,.41,.69,.81,.68h.1c.43-.05,.74-.45,.69-.88Z"/><path class="cls-1" d="M75.39,30.6c-3.98-9.9-13.14-16.75-23.76-17.78l2.95-1.58c.38-.22,.52-.7,.3-1.09s-.7-.52-1.09-.3l-5.41,2.93c-.06,.03-.12,.08-.17,.13-.05,.06-.09,.13-.13,.2v.05c-.03,.07-.05,.14-.06,.21v.05c0,.09,.02,.18,.06,.27,.04,.08,.08,.15,.14,.21l.04,.04,4.73,3.94c.14,.12,.32,.18,.5,.18,.43,0,.79-.35,.79-.79,0-.24-.1-.46-.29-.61l-2.93-2.43c10.19,.84,19.03,7.36,22.84,16.84,.21,.38,.69,.52,1.07,.32,.29-.16,.45-.47,.4-.8Z"/><path class="cls-1" d="M22.54,48.1s0,0,0,0c-.56-2.2-.86-4.45-.87-6.72,0-.43-.35-.79-.79-.79s-.79,.35-.79,.79c0,2.39,.3,4.77,.89,7.09,.09,.36,.42,.6,.79,.59,.07,0,.13,0,.2,0,.42-.11,.68-.54,.57-.96Z"/><path class="cls-1" d="M94.57,57.2c-.4-.16-.86,.04-1.02,.44,0,.01-.01,.03-.02,.04-1.82,5.03-4.49,9.72-7.88,13.86-2.08,2.51-4.41,4.81-6.96,6.85-.34,.27-.39,.77-.12,1.11,0,0,0,0,0,0,.15,.19,.37,.3,.61,.3,.18,0,.35-.06,.49-.17,2.62-2.11,5.02-4.49,7.16-7.09,3.51-4.28,6.27-9.12,8.17-14.32,.16-.4-.04-.86-.44-1.02Z"/><path class="cls-1" d="M96.6,48.88c-.43-.07-.83,.22-.91,.65-.21,1.24-.48,2.47-.79,3.66-.11,.42,.14,.85,.56,.96,0,0,0,0,0,0,.07,0,.13,0,.2,0,.37,.01,.7-.23,.79-.59,.32-1.24,.59-2.51,.79-3.79,.06-.42-.22-.82-.65-.89Z"/><path class="cls-1" d="M13.33,8.48c-.32-.29-.82-.27-1.11,.05,0,0,0,0,0,0-.98,1.1-1.94,2.27-2.82,3.45-.26,.35-.19,.84,.16,1.1,.14,.1,.3,.15,.47,.15,.25,0,.48-.12,.63-.32,.86-1.14,1.77-2.26,2.73-3.33,.29-.32,.27-.82-.06-1.11Z"/><path class="cls-1" d="M5.82,19.2c-.38-.21-.86-.06-1.07,.32,0,.01-.01,.03-.02,.04C2.24,24.62,.64,30.06,0,35.66c-.05,.43,.26,.82,.69,.87,0,0,0,0,0,0h.09c.37-.02,.68-.3,.74-.67,.62-5.43,2.18-10.7,4.61-15.6,.21-.38,.06-.86-.32-1.07Z"/><path class="cls-1" d="M49.1,68.6l-4.95-3.36c-.36-.24-.85-.15-1.09,.21-.24,.36-.15,.85,.21,1.09l2.69,1.83c-9.22-.94-17.32-6.55-21.43-14.86-.2-.38-.67-.52-1.06-.32-.39,.19-.55,.67-.35,1.06,4.46,8.97,13.3,14.95,23.28,15.75l-3.15,2.12c-.36,.24-.46,.73-.21,1.09,.15,.22,.39,.35,.66,.35,.16,0,.31-.05,.44-.13l5.11-3.43c.13-.09,.22-.21,.28-.35,0-.02,0-.04,0-.06,.03-.07,.04-.15,.04-.23,0-.02,0-.05,0-.07,0-.05,0-.09,0-.14-.06-.25-.23-.46-.47-.55Z"/><path class="cls-1" d="M56.08,36.67l-.7,5.91h5.13v5.29h-5.79l-.78,6.12h-5.58l.78-6.12h-5.05l-.78,6.12h-5.58l.78-6.12h-5.17v-5.29h5.83l.7-5.91h-5.17v-5.29h5.83l.78-6.12h5.58l-.78,6.12h5.05l.78-6.12h5.58l-.78,6.12h5.17v5.29h-5.83Zm-5.58,0h-5.05l-.7,5.91h5.05l.7-5.91Z"/></g></g></svg>