<?xml version="1.0" encoding="UTF-8"?><svg id="Layer_2" xmlns="http://www.w3.org/2000/svg" viewBox="0 0 76 95.87"><defs><style>.cls-1{fill:#6cace3;}</style></defs><g id="work"><g><path class="cls-1" d="M9.06,95.87c-4.97-.01-9.04-4.07-9.06-9.05V9.04C.02,4.07,4.09,.01,9.07,0H53.11c.2,0,.4,.09,.54,.24l22.12,22.79c.15,.15,.23,.34,.23,.53v63.27c-.03,4.97-4.09,9.03-9.07,9.04H9.06Zm0-94.4c-4.16,.01-7.56,3.41-7.59,7.56V86.83c.03,4.16,3.43,7.55,7.59,7.57h57.87c4.16-.01,7.56-3.41,7.59-7.56V24.25h-17.28c-1.31,0-2.53-.5-3.44-1.42-.91-.9-1.43-2.15-1.43-3.43V1.47H9.06ZM53.85,19.4c0,.89,.36,1.77,1,2.4,.64,.63,1.48,.98,2.38,.98h16.25L53.85,2.58V19.4Z"/><path class="cls-1" d="M13.53,80.55c-.41,0-.74-.33-.74-.74s.33-.74,.74-.74H61.19c.41,0,.74,.33,.74,.74s-.33,.74-.74,.74H13.53Z"/><path class="cls-1" d="M13.53,69.38c-.41,0-.74-.33-.74-.74s.33-.74,.74-.74h28.53c.41,0,.74,.33,.74,.74s-.33,.74-.74,.74H13.53Z"/><path class="cls-1" d="M14.89,56.13c-.39,0-.81-.27-.81-.68V28c0-.41,.33-.74,.74-.74s.74,.33,.74,.74v26.65h4.32v-18.15c0-.21,.06-.38,.18-.5,.12-.12,.28-.19,.45-.19h6.32c.22,0,.39,.07,.53,.2,.13,.13,.21,.31,.21,.5v18.14h2.87v-13.09c0-.42,.36-.77,.8-.78h6.27c.44,0,.81,.37,.82,.82v13.05s2.87,0,2.87,0v-22.63c0-.22,.07-.4,.2-.54,.14-.14,.32-.22,.51-.22h6.28c.18,0,.36,.08,.49,.22,.13,.14,.21,.33,.2,.52v22.65h3.95c.41,0,.74,.33,.74,.74s-.33,.74-.74,.74H14.89Zm27.78-1.47h4.74v-21.92h-4.74v21.92Zm-10.76,0h4.94v-12.4h-4.94v12.4Zm-10.56,0h4.74v-17.36h-4.74v17.36Z"/></g></g></svg>