<?xml version="1.0" encoding="UTF-8"?><svg id="Layer_2" xmlns="http://www.w3.org/2000/svg" viewBox="0 0 99.05 80"><defs><style>.cls-1{fill:#6cace3;}</style></defs><g id="work"><g><path class="cls-1" d="M68.49,28.65c-.36-.94-.96-1.78-1.74-2.42,.58-2.05,.88-4.17,.87-6.29C67.63,8.76,59.54,0,49.22,0S30.81,8.74,30.81,19.94c0,2.13,.29,4.25,.88,6.29-1.39,1.12-2.2,2.81-2.21,4.59-.02,2.47,1.5,4.69,3.81,5.56,2.79,7.9,8.98,12.98,15.89,12.98s13.07-5.09,15.89-12.98c3.08-1.19,4.61-4.65,3.41-7.73Zm-4.31,6.33c-.25,.07-.46,.26-.54,.52-2.5,7.45-8.18,12.28-14.49,12.28s-11.98-4.82-14.49-12.28c-.08-.25-.28-.44-.53-.52-1.84-.54-3.09-2.25-3.07-4.16,0-1.45,.71-2.82,1.91-3.63,.29-.2,.42-.56,.32-.9-.65-2.06-.97-4.2-.97-6.36,0-10.33,7.39-18.35,16.82-18.35s16.82,8.06,16.82,18.35c0,2.16-.32,4.3-.97,6.36-.11,.34,.02,.7,.32,.9,1.21,.81,1.92,2.18,1.91,3.63,.03,1.92-1.22,3.62-3.06,4.16Z"/><path class="cls-1" d="M63.96,19.33s0,0,0,0c-.74-2.72-3.13-4.66-5.94-4.84-.32,.01-.63,.05-.94,.12l1.47-2.29c.14-.25,.14-.55,0-.79-.13-.25-.4-.41-.68-.42-.26,0-2.61,.05-6.4,3.46-7.07,6.36-14.76,1.59-15.1,1.37-.38-.22-.87-.08-1.08,.3-.2,.35-.1,.8,.23,1.04l.05-.03c.09,.06,9.01,5.67,17-1.52,1.04-.97,2.22-1.8,3.49-2.46l-1.37,2.15c-.19,.27-.19,.63,0,.9,.2,.26,.53,.38,.85,.29,.81-.24,1.63-.42,2.46-.54,2.07,.18,3.82,1.62,4.39,3.62,.09,.36,.42,.61,.79,.6,.06,0,.12,0,.18,0,.43-.1,.69-.52,.6-.95Z"/><path class="cls-1" d="M45.29,26.91c-.77-.55-1.7-.83-2.64-.79-.94-.03-1.86,.25-2.63,.79-.34,.27-.4,.77-.14,1.11,.27,.34,.77,.4,1.11,.14,1.03-.58,2.29-.58,3.31,0,.34,.27,.84,.21,1.11-.14,.27-.34,.21-.84-.14-1.11Z"/><path class="cls-1" d="M58.34,26.91c-.77-.55-1.69-.83-2.63-.79-.94-.03-1.87,.25-2.64,.79-.34,.27-.4,.77-.14,1.11,.27,.35,.77,.41,1.12,.14,0,0,0,0,0,0,1.02-.58,2.28-.58,3.31,0,.14,.11,.31,.17,.48,.17,.44,0,.79-.36,.79-.8,0-.24-.11-.47-.3-.62Z"/><path class="cls-1" d="M93.57,35.26c-.19-.43-.46-.81-.8-1.14,.28-1.07,.42-2.16,.42-3.27,0-6.22-4.51-11.12-10.27-11.12s-10.27,4.88-10.27,11.12c0,1.1,.14,2.2,.42,3.27-1.43,1.37-1.48,3.64-.11,5.07,.32,.34,.71,.61,1.14,.8,1.59,4.31,5.01,7.07,8.82,7.07s7.25-2.77,8.82-7.07c1.81-.8,2.63-2.92,1.83-4.73Zm-1.62,2.57c-.25,.37-.62,.64-1.04,.78-.25,.07-.46,.26-.54,.51-1.3,3.86-4.22,6.36-7.45,6.36s-6.15-2.5-7.45-6.36c-.09-.25-.29-.44-.54-.51-1.05-.33-1.62-1.45-1.29-2.49,.13-.42,.41-.79,.78-1.04,.29-.2,.42-.56,.32-.9-.33-1.07-.5-2.19-.5-3.31,0-5.33,3.81-9.54,8.68-9.54s8.68,4.18,8.68,9.54c0,1.12-.17,2.24-.5,3.31-.11,.34,.02,.7,.32,.9,.91,.62,1.14,1.85,.53,2.76Z"/><path class="cls-1" d="M98.56,52.61l.02,.02-6.91-2.9-1.79-3.07s-.05-.05-.08-.07c-.04-.04-.08-.07-.12-.1-.05-.03-.09-.05-.14-.07l-.14-.05h-.3s-.1,.03-.14,.05c-.04,0-.07,0-.11,0l-5.68,4.27-5.8-4.26s-.07,0-.1,0c-.05-.02-.1-.04-.15-.05h-.3c-.08-.02-.16-.04-.24-.04-.05,.02-.1,.04-.14,.07-.04,.03-.08,.06-.11,.1-.03,.02-.06,.04-.09,.07v.05l-1.78,3.05-9.71,3.97-3.18-5.46v-.04s-.05-.05-.09-.07c-.03-.04-.07-.08-.11-.1l-.24-.06s-.09-.04-.14-.05h-.31s-.1,.03-.14,.05c-.04,0-.08,.02-.11,.04l-11.04,8.27-10.96-8.23h-.04s-.07-.03-.11-.04c-.05-.02-.09-.04-.14-.05h-.3c-.07,0-.13,0-.2,0l-.14,.07s-.08,.06-.11,.1c-.03,.02-.06,.04-.09,.07v.04l-3.15,5.38-9.44-3.88-1.79-3.05s-.05-.05-.09-.07c-.03-.04-.07-.08-.11-.1-.05-.06-.11-.11-.17-.15l-.14-.05h-.3c-.05,.01-.1,.03-.15,.05-.03,0-.07,0-.1,0h-.04l-5.68,4.27-5.68-4.27h-.08s-.07,0-.1,0c-.05-.02-.1-.04-.15-.05h-.3s-.09,.03-.14,.05c-.05,.02-.1,.04-.14,.07-.04,.03-.08,.06-.11,.1-.03,.02-.06,.05-.09,.08v.05l-1.89,3.1-6.91,2.9c-.42,.14-.64,.59-.5,1.01s.59,.64,1.01,.5c.04-.01,.07-.03,.11-.05l6.48-2.72,4.38,4.77c.15,.16,.36,.25,.58,.25,.23,0,.44-.1,.59-.27l2.89-3.25,2.89,3.25c.15,.17,.36,.27,.59,.27,.22,0,.44-.09,.59-.25l4.39-4.77,8,3.28-14.87,6.12-.12,.06c-2.93,1.81-4.71,5.01-4.71,8.45v9.89c0,.44,.36,.79,.79,.79s.79-.36,.79-.79v-9.9c0-1.76,.56-3.47,1.59-4.89,.63-.86,1.42-1.59,2.32-2.16l15.54-6.36,8.48,9.19c.15,.16,.36,.25,.58,.25,.23,0,.44-.1,.59-.27l5.88-6.62,5.88,6.62c.15,.17,.36,.27,.59,.27,.22,0,.43-.09,.58-.25l8.48-9.19,15.89,6.67c3.39,1.72,3.9,5.17,3.9,7.07v9.58c0,.44,.36,.79,.79,.79s.79-.36,.79-.79v-9.61c0-3.91-1.69-6.92-4.82-8.51l-15.1-6.36,8.2-3.37,4.39,4.77c.15,.16,.36,.26,.59,.25,.23,0,.44-.1,.59-.27l2.89-3.25,2.89,3.25c.15,.17,.36,.27,.59,.27,.22,0,.43-.09,.58-.25l4.38-4.77,6.47,2.72c.1,.04,.2,.06,.31,.06,.44,0,.79-.36,.79-.8,0-.32-.19-.6-.48-.73Zm-85.98,1.82l-3.69-4.02,1.26-2.17,4.77,3.57-2.34,2.62Zm6.99,0l-2.33-2.62,4.77-3.57,1.26,2.17-3.7,4.02Zm23.34,8.92l-7.72-8.4,3-5.13,10.04,7.53-5.32,5.99Zm13.01,0l-5.32-5.99,10.04-7.53,3,5.13-7.72,8.4Zm23.67-8.92l-3.73-4.02,1.26-2.17,4.77,3.57-2.3,2.62Zm6.99,0l-2.33-2.62,4.77-3.57,1.26,2.17-3.7,4.02Z"/><path class="cls-1" d="M26.85,35.26c-.19-.43-.46-.81-.8-1.14,.3-1.07,.45-2.18,.46-3.3,0-6.22-4.51-11.12-10.27-11.12s-10.27,4.88-10.27,11.12c0,1.1,.14,2.2,.42,3.27-1.45,1.35-1.52,3.62-.17,5.06,.33,.35,.73,.64,1.17,.83,1.59,4.31,5.01,7.07,8.82,7.07s7.25-2.77,8.83-7.07c1.81-.8,2.63-2.92,1.82-4.73Zm-1.58,2.54c-.25,.37-.62,.64-1.04,.78-.25,.07-.46,.26-.54,.51-1.3,3.86-4.22,6.36-7.45,6.36s-6.15-2.5-7.45-6.36c-.09-.25-.29-.44-.54-.51-1.05-.33-1.62-1.45-1.29-2.49,.13-.42,.41-.79,.78-1.04l-.04,.03c.29-.2,.42-.56,.32-.9-.33-1.07-.5-2.19-.5-3.31,0-5.33,3.81-9.54,8.68-9.54s8.72,4.17,8.72,9.5c0,1.12-.17,2.24-.5,3.31-.11,.34,.02,.7,.32,.9,.91,.62,1.14,1.85,.53,2.76Z"/></g></g></svg>