<?xml version="1.0" encoding="UTF-8"?><svg id="Layer_2" xmlns="http://www.w3.org/2000/svg" viewBox="0 0 68.33 71.88"><defs><style>.cls-1{fill:#6cace3;}</style></defs><g id="work"><g><path class="cls-1" d="M59.36,57.24c10.24-11.22,11.87-27.85,3.98-40.83-.12-.31-.49-.46-.8-.34s-.46,.49-.34,.8c.02,.05,.05,.11,.09,.15,9.51,15.52,4.62,35.81-10.9,45.32-15.52,9.51-35.81,4.62-45.32-10.9C-3.43,35.91,1.46,15.63,16.98,6.12,27.42-.28,40.55-.36,51.06,5.92c.31,.14,.67,0,.81-.31,.12-.26,.03-.58-.2-.75C35.45-4.8,14.47,.53,4.81,16.74-2.89,29.68-1.22,46.12,8.91,57.26l-6.32,13.75c-.14,.31-.02,.67,.29,.81,.08,.03,.17,.06,.26,.06h5.02c.2,0,.4-.09,.51-.26l6.29-9.12c11.57,7.85,26.76,7.85,38.34,0l6.31,9.12c.11,.17,.31,.26,.51,.26h5.02c.21,0,.4-.11,.52-.28,.12-.18,.14-.41,.05-.61l-6.34-13.75ZM7.84,70.65h-3.72l5.73-12.43c1.29,1.3,2.66,2.5,4.13,3.57l-6.14,8.86Zm52.62,0l-6.12-8.88c1.47-1.09,2.86-2.28,4.13-3.58l5.71,12.46h-3.72Z"/><path class="cls-1" d="M68.15,6.38c-.08-.06-.2-.12-.34-.15l-4.9-.81-.81-4.9c-.03-.23-.2-.41-.43-.49-.21-.06-.44-.02-.61,.15l-6.81,6.77c-.11,.11-.18,.28-.18,.43v5.99l-2.65,2.66c-10.01-9.46-25.8-9.02-35.26,1-9.46,10.01-9.02,25.8,1,35.26,10.01,9.46,26.33,9.77,35.57-.84,8.73-10.03,8.77-24.96-.43-34.55l2.66-2.66h5.99c.17,0,.32-.06,.43-.18l6.78-6.78c.24-.23,.24-.63,0-.87Zm-10.14,27.8c.03,13.21-10.67,24.63-23.87,23.98-13.11-.64-23.64-10.66-23.67-23.87-.03-13.21,10.35-23.93,23.56-23.96,6.14-.02,12.06,2.34,16.52,6.57l-6.02,6.03c-6.22-5.74-15.91-5.34-21.63,.87-5.73,6.22-5.34,15.91,.87,21.63,6.22,5.73,15.91,5.34,21.63-.87,5.4-5.86,5.4-14.9,0-20.76l6.05-6.05c4.21,4.44,6.55,10.32,6.55,16.43Zm-24.31,.43c.24,.24,.63,.24,.87,0l3.84-3.87c1.9,2.39,1.49,5.85-.89,7.75-2.39,1.9-5.85,1.49-7.75-.89-1.9-2.37-1.49-5.85,.89-7.75,2.02-1.59,4.87-1.59,6.87,.03l-3.87,3.87c-.23,.24-.23,.63,.03,.86Zm-4.76-4.7c-2.36,2.88-1.98,7.12,.9,9.48,2.88,2.36,7.12,1.98,9.48-.9,2.07-2.51,2.05-6.12-.03-8.62l5.25-5.21c5.25,5.74,4.87,14.64-.86,19.9-5.73,5.27-14.64,4.87-19.9-.86-5.27-5.73-4.87-14.64,.86-19.9,5.39-4.93,13.66-4.93,19.03,0l-5.25,5.21c-2.86-2.37-7.12-1.98-9.48,.9ZM60.65,13.01h-4.47l2.59-2.59c.24-.24,.24-.63,0-.86-.24-.24-.63-.24-.87,0l-2.57,2.59V7.64l3.06-3.06,.35,2.17c.05,.29,.31,.51,.61,.51h.09c.34-.05,.57-.37,.51-.7l-.51-3.03,1.64-1.64,.69,4.18c.05,.26,.24,.46,.51,.51l4.18,.69-5.8,5.76Z"/><path class="cls-1" d="M23.34,7.05c-.11-.32-.46-.49-.78-.38,0,0-.03,.02-.06,.03-.37,.15-.73,.32-1.1,.49-.31,.14-.43,.51-.29,.81,.11,.21,.32,.35,.55,.35,.09,0,.18-.02,.26-.06,.34-.15,.69-.32,1.04-.46,.32-.11,.49-.46,.38-.78Z"/><path class="cls-1" d="M19.92,8.58c-.15-.28-.54-.35-.83-.18-2.8,1.62-5.31,3.69-7.44,6.12-.21,.26-.2,.64,.06,.86,.11,.09,.24,.15,.4,.15,.18,0,.35-.08,.46-.21,2.04-2.34,4.46-4.33,7.13-5.89,.29-.17,.4-.55,.21-.84Z"/></g></g></svg>