<?xml version="1.0" encoding="UTF-8"?><svg id="Layer_2" xmlns="http://www.w3.org/2000/svg" viewBox="0 0 72.73 85"><defs><style>.cls-1{fill:#6cace3;}</style></defs><g id="work"><path class="cls-1" d="M72.12,85c-.34,0-.62-.28-.62-.61v-8.93c0-1.26-.85-2.39-2.06-2.74l-4.46-1.27c-.12-.04-.25-.09-.37-.15l-.3-.16-3.07,3.07-.04,10.17c0,.34-.28,.61-.62,.61s-.61-.28-.61-.61v-10.07l-3.12-3.19-.3,.15c-.33,.16-.66,.26-.91,.33l-1.02,.29,.53,.56c.95,.98,1.47,2.27,1.47,3.63v8.3c0,.34-.28,.61-.61,.61s-.61-.28-.61-.61v-8.3c0-1.68-1.06-3.19-2.63-3.76l-5.52-2.01-.15,.05c-.68,.22-1.39,.42-2.11,.59l-.47,.12-2.21,3.25c-.3,.44-.77,.73-1.3,.78-.06,0-.12,0-.18,0-.47,0-.91-.18-1.25-.52l-2.57-2.57v12.36c0,.34-.28,.61-.62,.61s-.61-.28-.61-.61v-12.36l-2.57,2.57c-.33,.33-.78,.52-1.25,.52-.05,0-.11,0-.16,0-.54-.05-1.01-.34-1.31-.78l-3.05-4.57-2.09,.63-5.31,1.93c-1.58,.57-2.63,2.08-2.63,3.76v8.3c0,.34-.28,.61-.61,.61s-.62-.28-.62-.61v-8.3c0-.97,.28-1.93,.8-2.77l.27-.43-1.92-.96-1.49,1.42c-.76,.72-1.76,1.12-2.81,1.12s-2.05-.4-2.81-1.12l-1.49-1.42-3.9,1.95c-.97,.49-1.57,1.46-1.57,2.55v7.97c0,.34-.28,.61-.61,.61s-.61-.28-.61-.61v-7.97c0-1.55,.86-2.95,2.25-3.65l3.78-1.89-.91-.4c-2.96-1.29-3.9-3.11-3.91-3.13-.08-.17-.08-.38,0-.55,.82-1.65,.92-4.55,1-6.88v-.15c.03-.78,.05-1.4,.09-1.96,.13-1.77,.7-3.45,1.66-4.85l.33-.46-.13-.26C1.59,47.18,.29,41.72,.29,36.01c0-4.38,.78-8.66,2.33-12.73,.09-.23,.31-.38,.55-.38,.07,0,.14,.01,.2,.04,.3,.12,.46,.46,.34,.76-1.32,3.49-2.07,7.15-2.22,10.87l-.04,.86H18l.02-.81c.13-7.09,1.31-13.87,3.4-19.6l.26-.7-.67-.32c-2.36-1.13-4.6-2.52-6.66-4.13l-.54-.42-.51,.45c-2.87,2.52-5.3,5.48-7.21,8.79-.1,.18-.3,.29-.51,.29-.1,0-.2-.03-.29-.08-.14-.08-.23-.2-.27-.35-.04-.15-.02-.31,.06-.45,3.11-5.39,7.58-9.92,12.94-13.1C23.53,1.73,29.85,0,36.29,0c19.85,0,36.01,16.15,36.01,36.01,0,4.74-.91,9.34-2.71,13.69-.09,.22-.19,.45-.28,.66l-.04,4.97c0,.98-.23,1.97-.68,2.85l-.46,.93v2.19c-.01,2.05-.83,3.98-2.3,5.41-.3,.29-.62,.56-.97,.8l-.14,.09-.06,1.77c0,.41,.27,.77,.66,.88l4.46,1.27c1.74,.5,2.96,2.11,2.96,3.92v8.93c0,.34-.28,.61-.61,.61Zm-30.32-17.34l-2.82,1.85,.25,2.97,1.2,1.25c.13,.13,.28,.16,.38,.16,.14-.01,.32-.05,.44-.23l3.57-5.35-1.56-1.64-.35,.16-.83,.56-.14-.02h-.14v.29Zm-13.87,.65l3.56,5.34c.07,.12,.22,.21,.38,.23h0c.19,0,.31-.04,.41-.13l3.12-3.12-5.88-4.02-1.61,1.69Zm-19.78,1.8c0,.29-.07,.58-.21,.83l-.17,.31,1.26,1.2c.53,.51,1.23,.78,1.96,.78s1.43-.28,1.96-.78l1.26-1.2-.17-.31c-.14-.26-.21-.54-.21-.84v-1.78l-.6,.19c-.73,.23-1.49,.34-2.24,.34s-1.52-.12-2.25-.34l-.6-.19v1.78Zm49.58-.71c0,.19-.02,.36-.06,.54l-.04,.17,2.94,3.03,2.92-2.92v-.31c-.05-.17-.07-.34-.07-.52v-1.06l-.6,.19c-.72,.22-1.48,.34-2.24,.34h-.24c-.67-.02-1.35-.14-2-.36l-.61-.2v1.1Zm-36.4-10.22c-.34,.17-.68,.33-1.01,.51l-.54,.29v.28c.09,2.48,.24,5.04,1,6.55,.03,.06,.05,.12,.06,.19,0,.18-.01,.27-.06,.37-.04,.08-.28,.51-.84,1.09-.87,.86-1.88,1.52-3.06,2.04l-.91,.4,2.18,1.09,.23-.16c.38-.27,.79-.48,1.22-.64l6.97-2.53-.03-.35c-.01-.17,.05-.34,.17-.47l.49-.52-.27-.32c-1.33-1.56-2.57-3.47-3.67-5.67-.26-.53-.54-1.11-.81-1.73l-.34-.78-.77,.37Zm33.66,7.6c-1.49,.91-3.07,1.72-4.68,2.41l-1.23,.51,3.83,1.39,2.36-.65c.83-.24,1.23-.42,1.23-1.04v-1.72s-.19-.21-.19-.21c-.26-.19-.52-.4-.76-.63l-.26-.24-.3,.18Zm-37.04-2.55c-.09,.22-.2,.45-.32,.68l-.07,.13c-.3,.53-.67,1.03-1.09,1.48l-.11,.11c-.33,.34-.7,.64-1.09,.91l-.14,.1-.06,2.03v.2l.62-.22c1.07-.38,1.99-.88,2.74-1.47,.36-.28,.67-.58,.93-.9l.17-.21-.1-.25c-.14-.38-.27-.8-.37-1.26-.08-.37-.16-.77-.22-1.22l-.24-1.71-.65,1.6Zm-14.81,.1c-.14,1-.33,1.81-.59,2.48l-.1,.25,.17,.21c.45,.56,1.54,1.6,3.66,2.37l.62,.22v-2.12l-.2-.21c-1.2-.83-2.13-1.97-2.68-3.31l-.66-1.57-.23,1.69Zm26.92,1.09l4.91,3.43,1.57,.84,6.07-4.15,.06-2.79v-.24l-.68,.36c-1.46,.77-3.04,1.22-4.69,1.34l-.43,.03h-.49c-.27,0-.55,0-.82-.02-.18-.01-.37-.03-.56-.05-1.49-.17-2.92-.62-4.25-1.34l-.69-.37v2.96Zm20.16-6.03c-.29,.67-.59,1.31-.9,1.93-1.04,2.08-2.2,3.91-3.46,5.43l-.4,.48,.58,.61c.12,.12,.18,.3,.17,.47l-.03,.35,1.09,.4,.33-.08c2.27-.78,4.46-1.8,6.51-3.03l.42-.25-.34-.52c-.76-1.24-1.16-2.67-1.16-4.13v-1.2l-.25-.13c-.49-.26-.98-.5-1.46-.73l-.77-.36-.34,.78Zm8.04-8.99c-2.84,0-5.15,2.31-5.15,5.15,0,.68,.15,1.3,.42,1.85l.67,1.33c.03,.06,.05,.13,.06,.21v2.09c0,.12,0,.23,.02,.35,0,.05,0,.12,0,.19,.08,1.02,.4,2.02,.92,2.89,.03,.05,.06,.11,.1,.16l1.47,1.65c1.08,.86,2.31,1.31,3.6,1.35h.2c1.65,0,3.2-.63,4.39-1.78,1.24-1.2,1.92-2.81,1.92-4.53v-2.31c0-.1,.02-.19,.07-.28l.54-1.09c.36-.71,.54-1.51,.54-2.31v-4.95h-9.77ZM4.08,60.7c.34,0,.62,.28,.62,.61,0,3.48,2.83,6.31,6.31,6.31,1.54,0,3.02-.56,4.17-1.57,.57-.51,1.05-1.1,1.41-1.78,.33-.62,.55-1.29,.66-1.98v-.04s0-.13,0-.13c-.36-.8-.79-1.44-1.3-1.99-1.99-2.14-4.89-2.67-6.45-2.79l-.46-.03-1.84,1.83c-.12,.12-.27,.19-.44,.19-.16,0-.31-.06-.43-.17-.12-.12-.18-.27-.19-.43,0-.17,.06-.32,.17-.44l1.95-2.02c.14-.13,.28-.18,.42-.19h.02c.56,0,2.13,.05,3.93,.63,1.85,.6,3.35,1.56,4.45,2.86,.28,.34,.46,.59,.63,.85l.9,1.37-.06-2.07-.03-.84c-.01-.35-.03-.68-.05-.99-.15-2.05-.97-3.94-2.31-5.32-1.37-1.41-3.2-2.18-5.15-2.18s-3.67,.73-5.02,2.05l-1.41,1.89c-.09,.15-.13,.24-.18,.33-.48,1-.77,2.08-.85,3.23-.04,.59-.06,1.26-.09,1.98l-.04,.93,.57-.1h.1Zm21.13-3.14c-.41,.14-.82,.29-1.22,.45l-.81,.31,.35,.79c.26,.58,.52,1.15,.78,1.67,1.02,2.04,2.15,3.82,3.36,5.27l.33,.4,.81-.85,.04-4-.16-.2c-1.19-1.01-2.17-2.23-2.92-3.61l-.19-.35-.37,.13Zm21.89,.25c-.63,1.18-1.44,2.23-2.4,3.14-.2,.18-.4,.36-.6,.53l-.12,.09-.05,3.94,.64,.73,.11,.11,.48-.57c1.12-1.39,2.18-3.08,3.14-5.01,.29-.58,.58-1.2,.86-1.83l.34-.8-.81-.31-.73-.26-.63-.2-.22,.43Zm-11.15,5.17c.18,.01,.36,.02,.54,.02,.22,0,.41,0,.6-.02,2.14-.13,4.17-.89,5.88-2.18,.31-.24,.6-.48,.88-.75,.78-.73,1.44-1.55,1.96-2.45,.37-.63,.69-1.31,.92-2.02,.38-1.12,.57-2.3,.57-3.5v-3.07c0-.09,.02-.18,.06-.27,.72-1.5,1.09-3.1,1.09-4.74v-10.92h-15.54c-1.73,0-3.4,.51-4.83,1.49l-2.21,2.18c-1.04,1.49-1.57,3.19-1.57,4.95v2.31c0,1.64,.37,3.23,1.09,4.74,.04,.08,.06,.17,.06,.27v2.68c0,1.31,.21,2.59,.64,3.81,.27,.76,.56,1.4,.92,2.02,1.76,2.99,4.62,4.94,7.88,5.39,.1,.02,.81,.09,.81,.09v-.03c.08,0,.15,.01,.23,.02Zm-24.94-13.82c4.6,0,8.34,3.72,8.69,8.65l.02,.87,1.1-.56,.86-.41-.26-.7c-2.09-5.73-3.26-12.51-3.4-19.6l-.02-.81H1.45l.04,.86c.19,4.74,1.33,9.3,3.37,13.55l.26,.54,.46-.39c1.54-1.31,3.42-2,5.42-2Zm39.99,8.35l1.47,.67-.33-1.01c-.02-.06-.04-.11-.05-.17l-.36-1.51-.74,2.01Zm-31.8-20.08c.14,6.89,1.27,13.46,3.27,19.01l.29,.79,.78-.3c.37-.15,.75-.28,1.13-.42l.45-.16-.17-.45c-.48-1.41-.71-2.8-.71-4.22v-2.51c-.78-1.72-1.15-3.42-1.15-5.17v-2.31c0-1.56,.36-3.05,1.06-4.43l.34-.67h-5.31l.02,.84Zm30.5,6.57c0,1.74-.37,3.44-1.11,5.05l-.04,3.02c0,1.28-.2,2.55-.61,3.77l-.14,.44,.66,.23c.25,.09,1.47,.54,1.47,.54l.28-.79c1.96-5.51,3.07-12.03,3.21-18.84l.02-.84h-3.73v7.41Zm4.89-6.61c-.09,4.57-.6,8.99-1.53,13.14l-.34,1.52,1.12-1.09c1.2-1.17,2.78-1.81,4.45-1.81h10.28l.12-.29c1.45-3.63,2.27-7.47,2.43-11.42l.04-.86h-16.54l-.02,.81Zm3.93-27.35c-2.11,1.62-4.4,3.01-6.83,4.13l-.68,.32,.26,.71c2.04,5.69,3.19,12.39,3.33,19.4l.02,.81h16.54l-.04-.86c-.19-4.75-1.33-9.32-3.38-13.59-1.99-4.14-4.73-7.8-8.16-10.88l-.51-.46-.54,.41Zm-9.37,5.19c-3.68,1.37-7.54,2.13-11.45,2.25l-.8,.03v14.33h12.19c.34,0,.61,.28,.61,.62v2.95h3.73l-.02-.84c-.13-6.81-1.24-13.33-3.21-18.84l-.28-.79-.79,.29Zm-26.68,.32c-2,5.55-3.13,12.12-3.27,19.01l-.02,.84h6.11l.2-.16c1.88-2.16,4.59-3.41,7.44-3.41h2.79v-14.34l-.79-.03c-3.9-.18-7.74-.99-11.39-2.4l-.79-.31-.29,.8Zm14.43,.79l.85-.03c3.74-.13,7.42-.86,10.94-2.16l.82-.3-.35-.8c-.28-.66-.57-1.27-.85-1.84-2.87-5.75-6.48-9.18-10.43-9.92l-.97-.18v15.22Zm-2.15-15.04c-3.95,.73-7.56,4.16-10.44,9.92-.27,.54-.53,1.1-.78,1.67l-.35,.79,.81,.31c3.48,1.35,7.13,2.12,10.87,2.31l.86,.04V1.14l-.97,.18Zm9.7,2.4c1.82,1.77,3.46,4.13,4.9,6.99,.31,.61,.61,1.25,.9,1.92l.34,.78,.77-.36c2.09-.98,4.09-2.17,5.92-3.53l.88-.66-.87-.66c-3.62-2.74-7.67-4.72-12.04-5.88l-3.03-.8,2.25,2.19Zm-17.1-1.36c-4.24,1.14-8.19,3.04-11.74,5.67l-.89,.66,.88,.67c1.79,1.35,3.72,2.53,5.74,3.5l.77,.37,.34-.78c.27-.63,.55-1.21,.81-1.73,1.43-2.86,3.07-5.2,4.88-6.97l2.24-2.2-3.04,.81Z"/></g></svg>