<?xml version="1.0" encoding="UTF-8"?><svg id="Layer_2" xmlns="http://www.w3.org/2000/svg" viewBox="0 0 93.62 97.29"><defs><style>.cls-1{fill:#6cace3;}</style></defs><g id="work"><g><path class="cls-1" d="M18.2,77.69c6.6,0,11.97-5.37,11.97-11.98v-14.82c0-6.6-5.37-11.98-11.97-11.98s-11.97,5.37-11.97,11.98v14.82c0,6.6,5.37,11.98,11.97,11.98Zm-6.45-14.51c.46,0,.83-.37,.83-.83v-2.73h2.49v4.89c0,.46,.37,.83,.83,.83s.83-.37,.83-.83v-4.89h2.49v7.84c0,.46,.37,.83,.83,.83s.83-.37,.83-.83v-7.84h2.49v2.14c0,.46,.37,.83,.83,.83s.83-.37,.83-.83v-2.14h3.52v6.09c0,5.69-4.63,10.32-10.32,10.32s-10.32-4.63-10.32-10.32v-6.09h3.05v2.73c0,.46,.37,.83,.83,.83Zm16.77-5.21h-3.52v-1.8c0-.46-.37-.83-.83-.83s-.83,.37-.83,.83v1.8h-2.49v-7.49c0-.46-.37-.83-.83-.83s-.83,.37-.83,.83v7.49h-2.49v-4.55c0-.46-.37-.83-.83-.83s-.83,.37-.83,.83v4.55h-2.49v-2.39c0-.46-.37-.83-.83-.83s-.83,.37-.83,.83v2.39h-3.05v-7.07c0-5.69,4.63-10.32,10.32-10.32s10.32,4.63,10.32,10.32v7.07Z"/><path class="cls-1" d="M35.57,60.1c-.46,0-.83,.37-.83,.83v5.23c0,9.12-7.42,16.55-16.55,16.55S1.65,75.28,1.65,66.16v-5.23c0-.46-.37-.83-.83-.83s-.83,.37-.83,.83v5.23c0,9.7,7.56,17.66,17.23,18.17v9.79H5.71c-.46,0-.83,.37-.83,.83s.37,.83,.83,.83H30.53c.46,0,.83-.37,.83-.83s-.37-.83-.83-.83h-11.64v-9.78c4.69-.17,9.08-2.13,12.37-5.51,3.32-3.42,5.15-7.92,5.15-12.67v-5.23c0-.46-.37-.83-.83-.83Z"/><path class="cls-1" d="M15.42,29.97c.44,0,.78-.56,.78-1.27v-3.66c0-.71-.34-1.27-.78-1.27s-.78,.56-.78,1.27v3.66c0,.71,.34,1.27,.78,1.27Z"/><path class="cls-1" d="M18.6,31.79c.44,0,.78-.56,.78-1.27v-7.31c0-.71-.34-1.27-.78-1.27s-.78,.56-.78,1.27v7.31c0,.71,.34,1.27,.78,1.27Z"/><path class="cls-1" d="M31.3,31.79c.44,0,.78-.56,.78-1.27v-7.31c0-.71-.34-1.27-.78-1.27s-.78,.56-.78,1.27v7.31c0,.71,.34,1.27,.78,1.27Z"/><path class="cls-1" d="M22.83,35.45c.44,0,.78-.56,.78-1.27v-14.62c0-.71-.34-1.27-.78-1.27s-.78,.56-.78,1.27v14.62c0,.71,.34,1.27,.78,1.27Z"/><path class="cls-1" d="M27.07,35.45c.44,0,.78-.56,.78-1.27v-14.62c0-.71-.34-1.27-.78-1.27s-.78,.56-.78,1.27v14.62c0,.71,.34,1.27,.78,1.27Z"/><path class="cls-1" d="M35.54,39.11c.44,0,.78-.56,.78-1.27V15.9c0-.71-.34-1.27-.78-1.27s-.78,.56-.78,1.27v21.94c0,.71,.34,1.27,.78,1.27Z"/><path class="cls-1" d="M39.77,10.97c-.44,0-.78,.56-.78,1.27v29.25c0,.71,.34,1.27,.78,1.27s.78-.56,.78-1.27V12.24c0-.71-.34-1.27-.78-1.27Z"/><path class="cls-1" d="M44.01,0c-.44,0-.78,.56-.78,1.27V52.46c0,.71,.34,1.27,.78,1.27s.78-.56,.78-1.27V1.27c0-.71-.34-1.27-.78-1.27Z"/><path class="cls-1" d="M76.82,29.97c.44,0,.78-.56,.78-1.27v-3.66c0-.71-.34-1.27-.78-1.27s-.78,.56-.78,1.27v3.66c0,.71,.34,1.27,.78,1.27Z"/><path class="cls-1" d="M73.65,31.79c.44,0,.78-.56,.78-1.27v-7.31c0-.71-.34-1.27-.78-1.27s-.78,.56-.78,1.27v7.31c0,.71,.34,1.27,.78,1.27Z"/><path class="cls-1" d="M60.94,31.79c.44,0,.78-.56,.78-1.27v-7.31c0-.71-.34-1.27-.78-1.27s-.78,.56-.78,1.27v7.31c0,.71,.34,1.27,.78,1.27Z"/><path class="cls-1" d="M69.41,35.45c.44,0,.78-.56,.78-1.27v-14.62c0-.71-.34-1.27-.78-1.27s-.78,.56-.78,1.27v14.62c0,.71,.34,1.27,.78,1.27Z"/><path class="cls-1" d="M65.18,35.45c.44,0,.78-.56,.78-1.27v-14.62c0-.71-.34-1.27-.78-1.27s-.78,.56-.78,1.27v14.62c0,.71,.34,1.27,.78,1.27Z"/><path class="cls-1" d="M56.71,39.11c.44,0,.78-.56,.78-1.27V15.9c0-.71-.34-1.27-.78-1.27s-.78,.56-.78,1.27v21.94c0,.71,.34,1.27,.78,1.27Z"/><path class="cls-1" d="M52.47,10.97c-.44,0-.78,.56-.78,1.27v29.25c0,.71,.34,1.27,.78,1.27s.78-.56,.78-1.27V12.24c0-.71-.34-1.27-.78-1.27Z"/><path class="cls-1" d="M48.24,0c-.44,0-.78,.56-.78,1.27V52.46c0,.71,.34,1.27,.78,1.27s.78-.56,.78-1.27V1.27c0-.71-.34-1.27-.78-1.27Z"/><path class="cls-1" d="M93.59,54.24l-7.81-7.81s-.05-.03-.08-.03h-30.57c-.06,0-.11,.05-.11,.11v50.68c0,.06,.05,.11,.11,.11h38.38c.06,0,.11-.05,.11-.11V54.31s-.01-.06-.03-.08Zm-7.35-.85v-3.18c0-.16,.09-.29,.24-.35,.05-.02,.1-.03,.15-.03,.1,0,.2,.04,.27,.11l3.18,3.18c.11,.11,.14,.28,.08,.42-.06,.14-.2,.24-.35,.24h-3.18c-.21,0-.38-.17-.38-.38Zm-1.58,2.08h6.89c.21,0,.38,.17,.38,.38v39.37c0,.21-.17,.38-.38,.38H57.1c-.21,0-.38-.17-.38-.38V48.47c0-.21,.17-.38,.38-.38h27.06c.21,0,.38,.17,.38,.38v6.89c0,.06,.05,.11,.11,.11Z"/><path class="cls-1" d="M69.4,82.77c-.75,0-1.37,.61-1.37,1.37s.61,1.37,1.37,1.37,1.37-.61,1.37-1.37-.61-1.37-1.37-1.37Z"/><path class="cls-1" d="M74.32,82.77c-.75,0-1.37,.61-1.37,1.37s.61,1.37,1.37,1.37,1.37-.61,1.37-1.37-.61-1.37-1.37-1.37Z"/><path class="cls-1" d="M79.24,82.77c-.75,0-1.37,.61-1.37,1.37s.61,1.37,1.37,1.37,1.37-.61,1.37-1.37-.61-1.37-1.37-1.37Z"/></g></g></svg>