<?xml version="1.0" encoding="UTF-8"?><svg id="Layer_2" xmlns="http://www.w3.org/2000/svg" viewBox="0 0 95.68 82.48"><defs><style>.cls-1{fill:#6cace3;}</style></defs><g id="work"><g><path class="cls-1" d="M33.48,30.73l6.28,6.28-12.43-12.43c-.37,.36-.77,.67-1.2,.92l5.76,5.76,.53-.53c.29-.29,.77-.29,1.06,0Z"/><path class="cls-1" d="M60.33,29.62c.37-.37,.79-.69,1.23-.95L42.25,9.36c-.25,.43-.54,.84-.91,1.21l19.02,19.02-14.01,14.01-6.6-6.6c.14,.14,.22,.33,.22,.53s-.08,.39-.22,.53l-.53,.53,6.21,6.21c.26-.44,.58-.86,.95-1.23l13.95-13.95Z"/><path class="cls-1" d="M39.98,37.54c0-.2-.08-.39-.22-.53l-6.28-6.28c-.29-.29-.77-.29-1.06,0l-.53,.53-10.68,10.68c.09,0,.18-.01,.26-.01,.57,0,1.13,.07,1.67,.2l9.81-9.81,5.22,5.22-1.47,1.47s-.02,.02-.02,.02l-8.32,8.31c.13,.54,.2,1.1,.2,1.66,0,.09,0,.18-.01,.27l9.19-9.19s.02-.02,.02-.02l1.47-1.47,.53-.53c.14-.14,.22-.33,.22-.53Z"/><path class="cls-1" d="M28.36,47.34c-.3-1.26-.94-2.41-1.87-3.35s-2.09-1.57-3.35-1.87c-.54-.13-1.1-.2-1.67-.2-.09,0-.18,0-.26,.01-1.79,.07-3.47,.79-4.75,2.06-.29,.29-.29,.77,0,1.06s.77,.29,1.06,0c1.06-1.06,2.46-1.64,3.95-1.64s2.9,.58,3.95,1.64c1.06,1.06,1.64,2.46,1.64,3.95s-.58,2.9-1.64,3.95l-15.71,15.71-7.9-7.9,11.35-11.35c.29-.29,.29-.77,0-1.06s-.77-.29-1.06,0L.22,60.24c-.14,.14-.22,.33-.22,.53s.08,.39,.22,.53l8.96,8.96c.15,.15,.34,.22,.53,.22s.38-.07,.53-.22l16.24-16.24c1.28-1.28,2-2.95,2.06-4.75,0-.09,.01-.18,.01-.27,0-.57-.07-1.12-.2-1.66Z"/><path class="cls-1" d="M27.36,24.55l8.35-8.35,14.09,14.09c.15,.15,.34,.22,.53,.22s.38-.07,.53-.22c.29-.29,.29-.77,0-1.06l-1.91-1.91-12.71-12.71c-.29-.29-.77-.29-1.06,0l-8.88,8.88c-.89,.89-2.07,1.38-3.33,1.38s-2.44-.49-3.33-1.38c-.89-.89-1.38-2.07-1.38-3.33s.49-2.44,1.38-3.33L33.59,2.88c.89-.89,2.07-1.38,3.33-1.38s2.44,.49,3.33,1.38c.89,.89,1.38,2.07,1.38,3.33s-.49,2.44-1.38,3.33l-1.01,1.01c-.29,.29-.29,.77,0,1.06,.24,.24,.61,.27,.89,.11,.06-.03,.12-.06,.17-.11l1.01-1.01s.02-.02,.02-.03c.37-.37,.66-.78,.91-1.21,1.41-2.38,1.11-5.5-.94-7.54-1.17-1.17-2.73-1.82-4.39-1.82s-3.22,.65-4.39,1.82l-13.95,13.95c-1.17,1.17-1.82,2.73-1.82,4.39s.65,3.22,1.82,4.39,2.73,1.82,4.39,1.82c1.13,0,2.21-.31,3.16-.87,.43-.26,.83-.56,1.2-.92,0,0,.02-.02,.03-.03Z"/><path class="cls-1" d="M54.1,51.3c-.89,.89-2.07,1.38-3.33,1.38s-2.44-.49-3.33-1.38c-.89-.89-1.38-2.07-1.38-3.33s.49-2.44,1.38-3.33l13.95-13.95c.63-.63,1.42-1.05,2.27-1.25,.04-.52,.1-1.05,.2-1.57-.82,.12-1.59,.39-2.3,.81-.44,.26-.86,.58-1.23,.95l-13.95,13.95c-.37,.37-.69,.79-.95,1.23-.56,.95-.87,2.03-.87,3.16,0,1.66,.65,3.22,1.82,4.39s2.73,1.82,4.39,1.82,3.22-.65,4.39-1.82l11.88-11.88c-.31-.4-.6-.81-.88-1.24l-12.06,12.06Z"/><path class="cls-1" d="M72.79,66.81c0-3.06-2.49-5.55-5.55-5.55h-15.08c-2.42,0-4.55,1.55-5.28,3.86-.13,.39,.09,.82,.49,.94,.06,.02,.13,.02,.19,.02,.33,.01,.64-.18,.75-.51,.54-1.68,2.09-2.81,3.85-2.81h15.08c2.23,0,4.05,1.82,4.05,4.05v2.75h1.5v-2.75Z"/><path class="cls-1" d="M75.34,69.56h-31.28c-2.42,0-4.39,1.97-4.39,4.39v7.78c0,.41,.34,.75,.75,.75h38.56c.41,0,.75-.34,.75-.75v-7.78c0-2.42-1.97-4.39-4.39-4.39Zm2.89,11.42H41.18v-7.03c0-1.59,1.3-2.89,2.89-2.89h31.28c1.59,0,2.89,1.3,2.89,2.89v7.03Z"/><path class="cls-1" d="M82.87,14.9c-1.07-.22-2.16-.33-3.25-.33-7.57,0-14.16,5.39-15.69,12.81-.03,.16-.05,.33-.08,.49-.09,.52-.16,1.04-.2,1.57-.11,1.47-.03,2.94,.27,4.4l.1,.47,.36,1.3,.29,.75c.39,1.03,.9,1.99,1.48,2.89,.28,.43,.57,.85,.88,1.24,3,3.8,7.64,6.15,12.61,6.15,1.96,0,3.89-.36,5.74-1.07,4.23-1.63,7.59-4.99,9.22-9.22l.29-.75,.36-1.3,.1-.47c1.78-8.66-3.82-17.16-12.48-18.94Zm7.2,26.12c-2.78,2.79-6.49,4.32-10.43,4.32-8.13,0-14.74-6.61-14.74-14.74,0-8.12,6.62-14.73,14.74-14.74h0c8.13,0,14.74,6.61,14.74,14.74,0,3.94-1.53,7.64-4.32,10.42Z"/><path class="cls-1" d="M81.28,23.37c1.15,.6,1.87,1.78,1.87,3.08,0,.36,.29,.65,.65,.65s.65-.29,.65-.65c0-2.21-1.5-4.11-3.64-4.64l-.51-.13v-2.29c0-.36-.29-.65-.65-.65s-.65,.29-.65,.65v2.3l-.51,.13c-2.56,.64-4.12,3.24-3.48,5.8,.43,1.71,1.76,3.05,3.48,3.48l.51,.13v7.11l-.99-.52c-1.14-.6-1.85-1.78-1.86-3.07,0-.36-.29-.65-.65-.65s-.65,.29-.65,.65c0,2.2,1.5,4.11,3.63,4.64l.51,.13v2.3c0,.36,.29,.65,.65,.65s.65-.29,.65-.65v-2.3l.51-.13c2.56-.64,4.12-3.24,3.49-5.79-.43-1.72-1.76-3.06-3.49-3.49l-.51-.13v-7.11l.99,.51Zm-2.28,6.67l-.99-.53c-1.13-.61-1.84-1.78-1.84-3.07,0-1.28,.71-2.45,1.84-3.06l.99-.53v7.19Zm2.29,1.62c1.14,.6,1.85,1.78,1.86,3.07,0,1.29-.72,2.47-1.86,3.07l-.99,.52v-7.19l.99,.52Z"/></g></g></svg>