<?xml version="1.0" encoding="UTF-8"?><svg id="Layer_2" xmlns="http://www.w3.org/2000/svg" viewBox="0 0 80.22 75"><defs><style>.cls-1{fill:#6cace3;}</style></defs><g id="work"><g><path class="cls-1" d="M17.77,42.16c-.39,0-.71,.32-.71,.71v11.16c0,.39,.32,.71,.71,.71s.71-.32,.71-.71v-11.16c0-.39-.32-.71-.71-.71Z"/><path class="cls-1" d="M13.58,40.79h8.37c.39,0,.71-.32,.71-.71v-4.18c0-.39-.32-.71-.71-.71h-3.47V8c0-.39-.32-.71-.71-.71s-.71,.32-.71,.71v27.18h-3.47c-.39,0-.71,.32-.71,.71v4.18c0,.39,.32,.71,.71,.71Zm.71-4.18h6.94v2.76h-6.94v-2.76Z"/><path class="cls-1" d="M32.66,24.03c-.39,0-.71,.32-.71,.71v29.29c0,.39,.32,.71,.71,.71s.71-.32,.71-.71V24.74c0-.39-.32-.71-.71-.71Z"/><path class="cls-1" d="M28.48,22.66h8.37c.39,0,.71-.32,.71-.71v-4.18c0-.39-.32-.71-.71-.71h-3.47V8c0-.39-.32-.71-.71-.71s-.71,.32-.71,.71v9.05h-3.47c-.39,0-.71,.32-.71,.71v4.18c0,.39,.32,.71,.71,.71Zm.71-4.18h6.94v2.76h-6.94v-2.76Z"/><path class="cls-1" d="M47.56,36.58c-.39,0-.71,.32-.71,.71v16.74c0,.39,.32,.71,.71,.71s.71-.32,.71-.71v-16.74c0-.39-.32-.71-.71-.71Z"/><path class="cls-1" d="M43.38,35.21h8.37c.39,0,.71-.32,.71-.71v-4.18c0-.39-.32-.71-.71-.71h-3.47V8c0-.39-.32-.71-.71-.71s-.71,.32-.71,.71V29.61h-3.47c-.39,0-.71,.32-.71,.71v4.18c0,.39,.32,.71,.71,.71Zm.71-4.18h6.94v2.76h-6.94v-2.76Z"/><path class="cls-1" d="M62.46,28.21c-.39,0-.71,.32-.71,.71v25.11c0,.39,.32,.71,.71,.71s.71-.32,.71-.71V28.92c0-.39-.32-.71-.71-.71Z"/><path class="cls-1" d="M58.27,26.85h8.37c.39,0,.71-.32,.71-.71v-4.18c0-.39-.32-.71-.71-.71h-3.47V8c0-.39-.32-.71-.71-.71s-.71,.32-.71,.71v13.24h-3.47c-.39,0-.71,.32-.71,.71v4.18c0,.39,.32,.71,.71,.71Zm.71-4.18h6.94v2.76h-6.94v-2.76Z"/><path class="cls-1" d="M79.51,0H.71C.32,0,0,.32,0,.71V74.29c0,.39,.32,.71,.71,.71H79.51c.39,0,.71-.32,.71-.71V.71c0-.39-.32-.71-.71-.71Zm-.71,1.42V60.61H1.42V1.42H78.8ZM1.42,73.58v-5.06H23.37c.39,0,.71-.32,.71-.71s-.32-.71-.71-.71H1.42v-5.06H78.8v5.06h-21.95c-.39,0-.71,.32-.71,.71s.32,.71,.71,.71h21.95v5.06H1.42Z"/><path class="cls-1" d="M29.81,65.14c-1.47,0-2.66,1.19-2.66,2.66s1.19,2.66,2.66,2.66,2.66-1.19,2.66-2.66-1.19-2.66-2.66-2.66Zm0,3.9c-.68,0-1.24-.55-1.24-1.24s.55-1.24,1.24-1.24,1.24,.55,1.24,1.24-.55,1.24-1.24,1.24Z"/><path class="cls-1" d="M40.11,65.14c-1.47,0-2.66,1.19-2.66,2.66s1.19,2.66,2.66,2.66,2.66-1.19,2.66-2.66-1.19-2.66-2.66-2.66Zm0,3.9c-.68,0-1.24-.55-1.24-1.24s.55-1.24,1.24-1.24,1.24,.55,1.24,1.24-.55,1.24-1.24,1.24Z"/><path class="cls-1" d="M50.42,65.14c-1.47,0-2.66,1.19-2.66,2.66s1.19,2.66,2.66,2.66,2.66-1.19,2.66-2.66-1.19-2.66-2.66-2.66Zm0,3.9c-.68,0-1.24-.55-1.24-1.24s.55-1.24,1.24-1.24,1.24,.55,1.24,1.24-.55,1.24-1.24,1.24Z"/></g></g></svg>