<?xml version="1.0" encoding="UTF-8"?><svg id="Layer_2" xmlns="http://www.w3.org/2000/svg" viewBox="0 0 82 66.27"><defs><style>.cls-1{fill:#6cace3;}</style></defs><g id="work"><g><path class="cls-1" d="M75.89,9.39h-21.76v-3.51c0-3.24-2.64-5.87-5.88-5.88h-14.52c-3.24,0-5.87,2.63-5.88,5.88v3.55H6.11c-3.37,0-6.11,2.73-6.11,6.11V56.69c.01,3.36,2.74,6.09,6.11,6.09h4.24c.33,2.02,2.08,3.49,4.12,3.49h4.15c2.04,0,3.79-1.48,4.12-3.49H59.26c.33,2.02,2.08,3.5,4.12,3.49h4.15c2.04,0,3.79-1.48,4.12-3.49h4.24c3.37,0,6.11-2.73,6.11-6.11V15.49c0-3.37-2.73-6.11-6.11-6.11Zm-14.42,1.39h3.65l-.03,24.25h-1.12v-.96c0-.37-.3-.68-.68-.68s-.68,.3-.68,.68v.96h-1.15V10.78h0ZM29.21,5.88c0-2.5,2.03-4.52,4.53-4.52h14.52c2.49,0,4.52,2.02,4.53,4.52v3.55h-2.78v-3.55c0-.96-.78-1.74-1.74-1.74h-14.52c-.96,0-1.74,.78-1.74,1.74v3.55h-2.78v-3.55h0Zm19.43,0v3.55h-15.29v-3.55c0-.21,.17-.38,.39-.39h14.52c.21,0,.38,.17,.39,.39Zm-31.78,4.9h3.65l-.05,24.25h-1.09v-.96c0-.37-.3-.68-.68-.68s-.68,.3-.68,.68v.96h-1.15V10.78ZM1.4,15.49c.02-2.59,2.11-4.69,4.7-4.71h4.07v2.33c0,4.09-3.32,7.41-7.42,7.41H1.4v-5.02ZM10.12,61.42H6.05c-2.62,0-4.75-2.13-4.75-4.75l.05-4.99h1.36c4.09,0,7.4,3.32,7.41,7.41v2.33Zm-7.36-11.1H1.4l-.05-28.45h1.36c4.84,.02,8.79-3.89,8.81-8.73,0-.01,0-.02,0-.03v-2.33h3.98v24.27c-1.19,.12-2.1,1.11-2.1,2.31v5.9c0,1.2,.91,2.2,2.1,2.31v15.85h-3.98v-2.33c0-4.84-3.93-8.76-8.77-8.77Zm15.85,14.59h-4.15c-1.29-.01-2.4-.89-2.71-2.14h9.57c-.31,1.25-1.43,2.13-2.71,2.14Zm-1.77-3.49v-15.83h3.65v15.83h-3.65Zm4.78-17.18h-5.9c-.54,0-.98-.44-.98-.98v-5.9c0-.54,.44-.97,.98-.97,0,0,.01,0,.02,0h2.25v3.11c0,.37,.3,.68,.68,.68s.68-.3,.68-.68v-3.11h2.27c.54,0,.97,.43,.97,.97v5.9c0,.54-.43,.97-.96,.98h0Zm38.51,17.18H21.87v-15.85c1.19-.12,2.09-1.11,2.1-2.31v-5.9c0-1.19-.91-2.19-2.1-2.31V10.78H60.12v24.27c-1.19,.12-2.09,1.12-2.1,2.31v5.9c0,1.19,.91,2.19,2.1,2.31v15.85Zm.23-17.18c-.54,0-.97-.43-.97-.97h0v-5.91c0-.54,.43-.97,.97-.97h2.27v3.11c0,.37,.3,.68,.68,.68s.68-.3,.68-.68v-3.11h2.27c.54,0,.97,.43,.98,.97v5.9c0,.54-.44,.98-.98,.98h-5.9Zm4.78,1.36v15.83h-3.65v-15.83h3.65Zm2.4,19.32h-4.15c-1.29-.01-2.4-.89-2.71-2.14h9.62c-.32,1.26-1.46,2.15-2.76,2.14Zm13.05-8.22c-.01,2.59-2.1,4.7-4.69,4.73h-4.08v-2.33c0-4.09,3.32-7.4,7.41-7.41h1.36v5.01Zm-1.32-6.37c-4.84,0-8.76,3.93-8.77,8.77v2.33h-3.98v-15.85c1.19-.11,2.1-1.11,2.1-2.31v-5.9c0-1.19-.92-2.19-2.1-2.31V10.78h3.98v2.33c0,4.83,3.91,8.75,8.74,8.77h1.36l.02,28.45h-1.36Zm1.38-29.8h-1.36c-4.09,0-7.4-3.32-7.41-7.41v-2.33h4.07c2.58,.04,4.66,2.13,4.67,4.71h.02v5.02Z"/><path class="cls-1" d="M54.19,25.71s0-.03,0-.04l-.86-5.51c-.03-.18-.13-.34-.27-.44-.15-.11-.33-.15-.51-.12l-12.98,2.04c-.37,.04-.64,.37-.61,.74,0,.02,0,.04,0,.06l.87,5.51c.04,.18,.14,.34,.3,.43,.12,.09,.26,.13,.4,.14h.1l12.99-2.04c.37-.06,.63-.4,.57-.77Zm-13.07,1.35l-.68-4.17,11.65-1.83,.68,4.17-11.65,1.83Z"/><path class="cls-1" d="M53.09,40.7l-1.36-8.41c-.06-.34-.37-.59-.71-.56l-9.65,1.52c-.37,.06-.62,.4-.56,.77l1.36,8.4c.03,.18,.12,.34,.27,.45,.12,.08,.26,.13,.4,.13h.1l9.59-1.53c.18-.03,.34-.13,.44-.27,.11-.14,.15-.33,.12-.5Zm-9.72,.84l-1.11-7.05,8.3-1.32,1.11,7.06-8.3,1.3Z"/><path class="cls-1" d="M38.21,38.64l-1.85-11.78c-.06-.37-.41-.62-.78-.56,0,0,0,0-.01,0l-7.2,1.14c-.18,.03-.33,.12-.44,.26-.11,.15-.15,.33-.12,.51l1.85,11.77c.05,.33,.34,.58,.67,.58h.1l7.21-1.14c.18-.03,.34-.13,.44-.27,.11-.14,.15-.32,.12-.5Zm-7.31,.43l-1.64-10.4,5.87-.96,1.64,10.43-5.87,.92Z"/><path class="cls-1" d="M50.63,57.85h-13.79c-.37,0-.68,.3-.68,.68s.3,.68,.68,.68h13.79c.37,0,.68-.3,.68-.68s-.3-.68-.68-.68Z"/><path class="cls-1" d="M32.77,57.85h-1.58c-.37,0-.68,.3-.68,.68s.3,.68,.68,.68h1.58c.37,0,.68-.3,.68-.68,0-.37-.3-.68-.68-.68Z"/><path class="cls-1" d="M4.16,25.28c-.37,0-.68,.3-.68,.68v4.75c0,.37,.3,.68,.68,.68s.68-.3,.68-.68v-4.75c0-.37-.3-.68-.68-.68Z"/><path class="cls-1" d="M4.16,33.05c-.37,0-.68,.3-.68,.68v2.04c0,.37,.3,.68,.68,.68s.68-.3,.68-.68v-2.04c0-.37-.3-.68-.68-.68Z"/></g></g></svg>