<?xml version="1.0" encoding="UTF-8"?><svg id="Layer_2" xmlns="http://www.w3.org/2000/svg" viewBox="0 0 113.72 63.15"><defs><style>.cls-1{fill:#6cace3;}</style></defs><g id="work"><g><path class="cls-1" d="M94.61,63.15c-.43,0-.77-.35-.77-.78s.35-.78,.77-.78c4.69,0,9.1-1.82,12.41-5.14,3.32-3.31,5.14-7.72,5.14-12.41,0-8.09-5.48-15.09-13.32-17.02-.24-.06-.44-.23-.53-.46-2.95-7.39-10-12.16-17.97-12.16-2.96,0-5.93,.69-8.57,2-.2,.1-.44,.11-.65,.02-.21-.09-.37-.26-.44-.48-1.24-3.82-3.53-7.18-6.64-9.72-1.82-1.49-3.86-2.65-6.06-3.45-2.28-.83-4.67-1.25-7.12-1.25-4.56,0-8.89,1.45-12.52,4.18-1.75,1.32-3.27,2.89-4.52,4.68-1.02,1.45-1.84,3.02-2.46,4.67-.12,.32-.43,.54-.78,.5-4.56-.33-9.02,1.32-12.25,4.56-2.65,2.64-4.27,6.15-4.56,9.86-.03,.33-.25,.6-.57,.69-3.12,.84-5.88,2.6-7.97,5.08-2.38,2.83-3.69,6.42-3.69,10.11,0,4.2,1.64,8.15,4.61,11.12,2.97,2.97,6.92,4.6,11.12,4.6,.43,0,.77,.35,.77,.78s-.35,.78-.77,.78c-4.61,0-8.95-1.8-12.21-5.06-3.27-3.26-5.06-7.6-5.06-12.22,0-4.06,1.44-8.01,4.06-11.11,2.18-2.59,5.01-4.46,8.23-5.43,.43-3.88,2.18-7.52,4.96-10.3,3.42-3.42,8.06-5.25,12.89-5.04,.64-1.58,1.45-3.08,2.44-4.48,1.35-1.92,2.98-3.61,4.86-5.03,3.9-2.94,8.55-4.49,13.45-4.49,2.63,0,5.2,.45,7.65,1.34,2.36,.86,4.55,2.11,6.51,3.71,3.11,2.54,5.46,5.85,6.85,9.61,2.65-1.17,5.56-1.79,8.46-1.79,8.47,0,15.98,5,19.25,12.77,8.33,2.24,14.11,9.75,14.11,18.42,0,5.1-1.99,9.9-5.6,13.5-3.61,3.61-8.4,5.59-13.51,5.59Z"/><g><path class="cls-1" d="M14.98,46.58c-.43,0-.77-.35-.77-.78v-6.65c0-.43,.35-.78,.77-.78s.77,.35,.77,.78v6.65c0,.43-.35,.78-.77,.78Z"/><path class="cls-1" d="M20.22,49.77c-.43,0-.77-.35-.77-.78v-14.04c0-.43,.35-.78,.77-.78s.77,.35,.77,.78v14.04c0,.43-.35,.78-.77,.78Z"/><path class="cls-1" d="M25.45,53.88c-.43,0-.77-.35-.77-.78V29.88c0-.43,.35-.78,.77-.78s.77,.35,.77,.78v23.23c0,.43-.35,.78-.77,.78Z"/><path class="cls-1" d="M30.69,58.46c-.43,0-.77-.35-.77-.78v-21.94c0-.43,.35-.78,.77-.78s.77,.35,.77,.78v21.94c0,.43-.35,.78-.77,.78Z"/><path class="cls-1" d="M41.15,60.72c-.43,0-.77-.35-.77-.78V27.54c0-.43,.35-.78,.77-.78s.77,.35,.77,.78V59.94c0,.43-.35,.78-.77,.78Z"/><path class="cls-1" d="M46.39,61.76c-.43,0-.77-.35-.77-.78V19.53c0-.43,.35-.78,.77-.78s.77,.35,.77,.78V60.98c0,.43-.35,.78-.77,.78Z"/><path class="cls-1" d="M51.62,56.71c-.43,0-.77-.35-.77-.78V20.96c0-.43,.35-.78,.77-.78s.77,.35,.77,.78V55.93c0,.43-.35,.78-.77,.78Z"/><path class="cls-1" d="M56.86,61.76c-.43,0-.77-.35-.77-.78V24.5c0-.43,.35-.78,.77-.78s.77,.35,.77,.78V60.98c0,.43-.35,.78-.77,.78Z"/><path class="cls-1" d="M62.09,56.42c-.43,0-.77-.35-.77-.78V15.84c0-.43,.35-.78,.77-.78s.77,.35,.77,.78V55.64c0,.43-.35,.78-.77,.78Z"/><path class="cls-1" d="M67.33,62.75c-.43,0-.77-.35-.77-.78V25.34c0-.43,.35-.78,.77-.78s.77,.35,.77,.78V61.98c0,.43-.35,.78-.77,.78Z"/><path class="cls-1" d="M72.56,59.62c-.43,0-.77-.35-.77-.78V20.96c0-.43,.35-.78,.77-.78s.77,.35,.77,.78V58.84c0,.43-.35,.78-.77,.78Z"/><path class="cls-1" d="M77.8,56.23c-.43,0-.77-.35-.77-.78V28.27c0-.43,.35-.78,.77-.78s.77,.35,.77,.78v27.19c0,.43-.35,.78-.77,.78Z"/><path class="cls-1" d="M83.03,58.46c-.43,0-.77-.35-.77-.78V26.18c0-.43,.35-.78,.77-.78s.77,.35,.77,.78v31.5c0,.43-.35,.78-.77,.78Z"/><path class="cls-1" d="M88.26,52.02c-.43,0-.77-.35-.77-.78v-16.97c0-.43,.35-.78,.77-.78s.77,.35,.77,.78v16.97c0,.43-.35,.78-.77,.78Z"/><path class="cls-1" d="M93.5,49.77c-.43,0-.77-.35-.77-.78v-11.79c0-.43,.35-.78,.77-.78s.77,.35,.77,.78v11.79c0,.43-.35,.78-.77,.78Z"/><path class="cls-1" d="M98.73,47.75c-.43,0-.77-.35-.77-.78v-6.72c0-.43,.35-.78,.77-.78s.77,.35,.77,.78v6.72c0,.43-.35,.78-.77,.78Z"/><path class="cls-1" d="M35.92,56.23c-.43,0-.77-.35-.77-.78V31.12c0-.43,.35-.78,.77-.78s.77,.35,.77,.78v24.33c0,.43-.35,.78-.77,.78Z"/></g></g></g></svg>