<?xml version="1.0" encoding="UTF-8"?><svg id="Layer_2" xmlns="http://www.w3.org/2000/svg" viewBox="0 0 93.19 77.14"><defs><style>.cls-1{fill:#6cace3;}</style></defs><g id="work"><g><path class="cls-1" d="M14.26,17.68c1.18-1.67,2.51-3.31,3.99-4.88,1.28-1.23,2.46-2.42,3.84-3.29,1.27,.83,2.71,1.53,3.93,2.31-1.53,1.93-3.1,3.84-4.23,5.92,.35,.15,.99,.1,1.48,0,1.23-1.82,2.56-3.65,4.14-5.27,2.12,.79,4.19,1.62,6.36,2.22l.2,.2-1.23,2.86c.55,.1,.89,.05,1.43,0,.45-.84,.79-1.77,1.28-2.61,2.86,.65,5.87,.99,8.92,1.09,.39,.34,.1,1.09,.24,1.53h1.33c.15-.49-.05-1.04,.15-1.48,2.85-.15,5.86-.44,8.61-1.13l.26,.05,1.32,2.56c.45,0,1.04,.1,1.38-.1l-1.22-2.86,.1-.1c2.26-.6,4.38-1.48,6.54-2.37,1.54,1.62,2.96,3.55,4.23,5.42,.55,0,1.09,.05,1.49-.1-.6-1.09-1.33-2.17-2.12-3.1-.63-.94-1.33-1.78-2.17-2.67v-.24l3.45-2.01,.49-.2c3.01,2.31,5.66,5.12,7.78,8.22,.59,0,1.09,.2,1.57-.05C71.18,7.53,60.3,1.08,48.53,.14l-.05,.1-.1-.1c-1.33-.15-2.95-.2-4.38-.05-.55-.05-1.18,0-1.83,.05-11.81,.94-22.69,7.1-29.49,17.59,.49-.05,1.07,.15,1.57-.05Zm20.44-4.33l-.2,.05c-2.03-.55-3.99-1.18-5.87-2.03l.1-.29c2.71-2.61,5.56-4.78,8.72-6.45,.73,.29,1.48,.54,2.21,.88l-.15,.4c-1.87,2.37-3.34,4.93-4.82,7.44Zm9.8,1.33c-1.38,.2-2.61-.05-3.99-.15-1.33-.21-3-.35-4.33-.79,1.43-2.71,3.1-5.32,5.12-7.74l3.15,.44c.15,2.56,.05,5.53,.05,8.24Zm1.53,.05c-.1-2.61-.05-5.53,0-8.24,.99-.15,2.06-.29,3.05-.44,1.93,2.46,3.79,4.98,5.08,7.69-2.66,.63-5.37,.99-8.13,.99Zm15.7-3.45c-1.92,.84-3.88,1.62-6,2.07-1.53-2.61-3.2-5.22-5.08-7.74,.7-.4,1.53-.7,2.27-1.09,3.2,1.62,6.31,3.94,8.92,6.6l-.11,.15Zm-6.3-8.43c4.14,1.09,8.03,2.96,11.57,5.53l-.1,.2-3.39,1.92h-.24c-2.61-2.66-5.67-4.98-8.77-6.8,.1-.34,.6-.59,.94-.84Zm-1.98-.49v.1c-4.28,3.16-11.22,3.45-15.75,.54-.24-.2-.74-.29-.79-.63,5.22-1.23,11.38-1.33,16.55,0Zm-30.03,6.11c3.1-2.32,6.54-4.04,10.19-5.22,.15-.15,.24-.31,.44-.31v.11c.4,.1,.7-.35,1.04-.06,.29,.26,.63,.45,.89,.7-3.06,1.93-6.06,4.19-8.82,6.95-1.33-.5-2.56-1.23-3.73-2.07v-.1Z"/><path class="cls-1" d="M76.45,59.33c-2.06,3-4.67,5.92-7.53,8.19-.1,.15-.4,.1-.5-.05-1.23-.79-2.56-1.44-3.73-2.22,1.57-1.93,3.1-3.84,4.28-5.97h-1.53c-1.23,1.82-2.51,3.75-4.14,5.37-2.17-.88-4.14-1.67-6.36-2.27l-.24-.2c.34-.98,.98-1.92,1.18-2.9h-1.33l-1.33,2.66c-2.9-.63-6.11-.99-9.07-1.18-.15-.44,.05-1.09-.15-1.48h-1.28c-.1,.6,.15,1.04-.15,1.53-3.05,.15-6,.5-8.87,1.09l-1.32-2.61c-.5,0-1.04-.1-1.38,.05l1.22,2.9-.15,.15c-2.21,.65-4.38,1.44-6.49,2.32l-.21-.1c-1.38-1.53-2.71-3.2-3.78-4.88-.26-.83-1.23-.34-1.78-.44,1.18,2.17,2.76,4.09,4.34,6.06-1.33,.78-2.66,1.67-4.04,2.32-2.97-2.27-5.72-5.22-7.78-8.33-.6-.1-.99-.05-1.57,0,3.54,5.62,9.05,10.54,14.83,13.46,0,0,0-.05,.05-.05s.15,.1,.05,.15c3.88,1.92,8.02,3.29,12.41,3.89,15.12,2.03,29.54-4.54,37.91-17.45-.44-.05-1.07-.05-1.57,0Zm-20.53,4.44l.15-.11c2.12,.5,4.14,1.18,6.02,2.12-1.57,1.83-3.6,3.4-5.47,4.73-1.13,.68-2.27,1.43-3.45,2.03l-2.11-.94,.15-.34c1.77-2.42,3.34-4.88,4.72-7.49Zm-9.7-1.49c2.81,.05,5.61,.35,8.22,.99l.05,.15c-1.38,2.66-3.1,5.22-4.97,7.64-.84,.1-1.63-.24-2.46-.29l-.84-.1c-.1-2.9-.15-5.47,0-8.38Zm-9.5,.89c2.56-.49,5.22-.89,7.98-.89l.05,8.33c-1.04,.24-2.17,.24-3.15,.49-2.03-2.4-3.7-5.03-5.12-7.74l.24-.2Zm-7.93,2.66c1.93-.94,3.94-1.62,6.01-2.17l.2,.06c1.43,2.71,3.2,5.27,4.98,7.83-.7,.39-1.54,.63-2.22,1.04-3.25-1.64-6.36-3.89-8.97-6.61v-.15Zm6.36,8.43c-4.14-1.09-7.98-2.95-11.52-5.52v-.16c1.18-.73,2.35-1.53,3.64-2.06,2.81,2.81,5.71,4.93,8.87,6.94-.24,.29-.65,.6-.99,.79Zm18.27,.63c-5.21,1.13-11.03,1.18-16.24-.1-.11-.24,.24-.29,.39-.44,4.58-3,11.71-3,16.2,.24,.15,.29-.26,.2-.35,.29Zm4.73-1.38l-2.32,.74c-.39-.2-.73-.5-1.09-.79l.1-.15c3.16-1.87,6.02-4.14,8.72-6.85,1.33,.54,2.61,1.28,3.79,2.11-2.76,2.22-5.97,3.7-9.21,4.93Z"/><path class="cls-1" d="M81.94,35.45v-.1s0-.09,0-.09c-.03-.25-.05-.51-.07-.77-.1-1.22-.2-2.6-1.01-3.83l-.02-.04-.03-.04c-1.63-2.19-4.15-2.47-6.17-2.47h-.12c-1.15,.1-4.65,.38-5.87,3.52l-.02,.05-.02,.06c-.93,3.12-.78,6.55-.63,9.87l.03,.73v.09s.01,.05,.01,.05c.21,1.86,.47,4.18,2.55,5.64l.06,.04,.06,.04c1.29,.73,2.88,1.14,4.48,1.14,1.18,0,2.31-.22,3.27-.65,1.88-.72,2.87-2.51,3.17-3.95v-.02s0-.03,0-.03c.37-2.18,.35-4.53,.32-6.8,0-.86-.02-1.67,0-2.45Zm-1.79,8.99c-.24,1.18-1.04,2.42-2.27,2.87-.82,.37-1.76,.54-2.71,.54-1.33,0-2.67-.34-3.73-.94-1.54-1.09-1.73-2.9-1.93-4.62-.15-3.4-.39-7,.54-10.1,.74-1.93,2.77-2.42,4.59-2.56,1.92,0,3.79,.29,4.97,1.87,.74,1.13,.7,2.61,.84,3.94-.05,2.81,.2,6.16-.29,9.02Z"/><path class="cls-1" d="M91.76,30.4c-.88-2.37-2.71-4.48-4.92-6.02-3.4-2.2-7.74-3.31-12.06-3.31-3.81,0-7.6,.87-10.7,2.63-3.59,1.87-5.95,5.56-6.7,9.36-1.33,6.26-.98,13.7,3.75,18.39,3.78,3.38,8.75,4.95,13.8,4.95,2.31,0,4.64-.33,6.88-.96,.34-.07,1.42-.34,2.16-.74l.21-.1c2.21-.93,4.33-2.46,5.91-4.53,3.65-5.43,3.89-13.56,1.67-19.67Zm-2.89,18.79c-1.32,1.72-3.19,3.15-5.27,4.02h-.03s-.03,.03-.03,.03l-.21,.1-.04,.02-.04,.02c-.49,.27-1.32,.5-1.76,.6h-.05s-.05,.02-.05,.02c-2.12,.6-4.3,.91-6.47,.91-4.94,0-9.48-1.61-12.77-4.55-5.15-5.14-4.03-13.59-3.3-17.01,.71-3.6,2.97-6.78,5.92-8.32h.02s.02-.03,.02-.03c2.76-1.57,6.3-2.43,9.96-2.43,4.18,0,8.16,1.08,11.22,3.05,2.07,1.45,3.62,3.33,4.34,5.28,2.23,6.13,1.62,13.64-1.48,18.28Z"/><path class="cls-1" d="M44.54,47.89c-1.28,.36-2.6,.54-3.9,.54-3.39,0-6.69-1.23-9.11-3.79-.39-.49-.63-1.07-1.02-1.57l-6.65,.05c-.1,3.99-.15,8.58,0,12.52l7.38-.05,.1-2.37c.84,.4,1.68,.89,2.51,1.33,2.69,1.14,5.79,1.82,8.86,1.82,2.78,0,5.53-.55,7.93-1.82,3.7-2.06,5.66-6.06,5.12-10.35-.54-4.18-4.48-7.98-8.47-9.02l-11.92-3.5-.88-.44c-.4-.34-.65-.79-.55-1.33,.57-.99,1.58-1.2,2.65-1.2,.7,0,1.44,.09,2.08,.11,3.44,.49,6.99,1.67,9,4.88,1.09,0,2.26,.01,3.45,.01s2.41-.01,3.59-.06c.1-4.04-.05-7.59-.1-11.69-.88-.02-1.85-.03-2.83-.03-1.47,0-2.98,.03-4.31,.09-.1,.59,.1,1.43-.15,2.01l-2.27-1.23c-2.53-1.08-5.52-1.71-8.5-1.71-3.41,0-6.8,.83-9.43,2.75-3.2,2.37-4.19,6.6-3.34,10.35,.63,3.55,3.99,6.16,7.19,7.39,4.38,1.57,8.97,2.71,13.4,4.23,.44,.21,1.04,.65,.93,1.18,0,.45-.44,.7-.78,.89Zm.49-3.43l-.07-.04-.08-.03c-2.09-.72-4.24-1.36-6.32-1.98-2.34-.7-4.76-1.42-7.02-2.23-2.54-.98-5.7-3.21-6.25-6.26v-.03s-.01-.03-.01-.03c-.79-3.52,.3-6.98,2.76-8.81,2.78-2.03,6.18-2.46,8.54-2.46,2.68,0,5.46,.55,7.84,1.56l2.21,1.2,1.46,.79,.64-1.53c.16-.39,.22-.78,.24-1.15,.87-.02,1.83-.04,2.84-.04,.46,0,.91,0,1.35,0,.01,.72,.03,1.42,.04,2.12,.04,2.24,.09,4.38,.06,6.64-.63,.01-1.32,.02-2.12,.02-.61,0-1.21,0-1.8,0-.29,0-.58,0-.86,0-1.97-2.64-5.11-4.23-9.58-4.87h-.08s-.08-.01-.08-.01c-.25,0-.52-.03-.8-.05-.43-.03-.87-.06-1.33-.06-.7,0-2.83,0-3.95,1.95l-.13,.22-.05,.25c-.19,1.02,.2,2.02,1.05,2.74l.14,.12,.16,.08,.88,.44,.12,.06,.13,.04,11.97,3.51c3.63,.94,6.93,4.42,7.36,7.75,.46,3.7-1.21,7.09-4.33,8.83-2.05,1.08-4.55,1.64-7.23,1.64s-5.64-.59-8.21-1.67c-.25-.13-.5-.27-.75-.4-.57-.31-1.16-.64-1.76-.92l-2.05-.98-.09,2.27-.04,.94-4.49,.03c-.07-2.68-.06-5.87,.01-9.52l4.38-.03s.01,.02,.02,.03c.18,.3,.38,.64,.64,.97l.04,.05,.04,.05c2.6,2.75,6.22,4.26,10.2,4.26,1.44,0,2.88-.2,4.3-.59l.2-.06,.16-.09c.4-.23,1.44-.82,1.52-2.03,.14-1.08-.53-2.1-1.78-2.69Z"/><path class="cls-1" d="M21.79,47.5c-.54-.03-1.11-.04-1.68-.04-.28,0-.56,0-.85,0-.86,0-1.7-.01-2.49-.11l.05-17.3,.1-.15,4.87-.05c.05-2.81,.1-5.82-.05-8.38l-18.56-.05-3.05,.05c-.05,2.61-.05,5.67,0,8.33,1.67,.05,3.25,0,4.87,.15v16.75l-.05,.7-4.87,.1c-.11,2.76-.11,5.42,0,8.13H21.79v-8.13Zm-1.5,6.63H1.53c-.04-1.71-.04-3.42,0-5.15l3.45-.07,1.37-.03,.1-1.37,.05-.7v-.05s0-.05,0-.05V28.59l-1.37-.12c-1.15-.1-2.27-.11-3.36-.13-.06,0-.11,0-.17,0-.02-1.77-.02-3.63,0-5.38l1.58-.03,17.11,.05c.05,1.74,.04,3.61,.01,5.4l-3.41,.03h-.79s-.44,.67-.44,.67l-.1,.15-.25,.38v.45s-.05,17.3-.05,17.3v1.33s1.32,.16,1.32,.16c.9,.11,1.85,.12,2.68,.12h.43s.42,0,.42,0c.06,0,.12,0,.18,0v5.16Z"/></g></g></svg>