<?xml version="1.0" encoding="UTF-8"?><svg id="Layer_2" xmlns="http://www.w3.org/2000/svg" viewBox="0 0 87.87 68.26"><defs><style>.cls-1{fill:#6cace3;}</style></defs><g id="work"><g><path class="cls-1" d="M62.73,23.06c0-1.72-1.39-3.11-3.11-3.11s-3.11,1.39-3.11,3.11,1.39,3.11,3.11,3.11,3.11-1.39,3.11-3.11h0Zm-4.84,0c0-.96,.77-1.73,1.73-1.73s1.73,.77,1.73,1.73-.77,1.73-1.73,1.73-1.73-.77-1.73-1.73Z"/><path class="cls-1" d="M82.51,0h-14.19c-.38,0-.69,.31-.69,.69s.31,.69,.69,.69h14.19c2.2,0,3.97,1.78,3.98,3.98V62.9c0,2.2-1.78,3.98-3.98,3.98H5.36c-2.2,0-3.98-1.78-3.98-3.98V5.36c0-2.2,1.78-3.97,3.98-3.98H62.61c.38,0,.69-.31,.69-.69s-.31-.69-.69-.69H5.36C2.4,0,0,2.4,0,5.36V62.9c0,2.96,2.4,5.36,5.36,5.36H82.51c2.96,0,5.36-2.4,5.36-5.36V5.36C87.86,2.4,85.47,0,82.51,0Z"/><path class="cls-1" d="M81.12,8.97H6.75c-.38,0-.69,.31-.69,.69s.31,.69,.69,.69H81.12c.38,0,.69-.31,.69-.69s-.31-.69-.69-.69Z"/><path class="cls-1" d="M7.26,5.98c.06-.07,.11-.14,.15-.23,.04-.08,.05-.17,.06-.26,0-.38-.31-.69-.69-.7-.19,0-.36,.07-.5,.2-.13,.13-.2,.31-.2,.49,0,.38,.31,.69,.69,.7,.19,0,.36-.07,.5-.2Z"/><path class="cls-1" d="M10.84,5.98c.06-.07,.11-.14,.15-.23,.04-.08,.05-.17,.06-.26,0-.38-.31-.69-.69-.7-.19,0-.36,.07-.5,.2-.13,.13-.2,.31-.2,.49,0,.38,.31,.69,.69,.7,.19,0,.36-.07,.5-.2Z"/><path class="cls-1" d="M14.43,5.98c.13-.13,.21-.31,.21-.49,0-.18-.08-.36-.21-.49-.27-.27-.71-.27-.98,0-.27,.27-.27,.71,0,.98,.27,.27,.71,.27,.98,0Z"/><path class="cls-1" d="M68.88,35.34c0-.38-.31-.69-.69-.69H7.44V16.14H80.35v18.51h-6.51c-.38,0-.69,.31-.69,.69s.31,.69,.69,.69h7.2c.38,0,.69-.31,.69-.69V15.45c0-.38-.31-.69-.69-.69H6.75c-.38,0-.69,.31-.69,.69v19.89c0,.38,.31,.69,.69,.69h61.44c.38,0,.69-.31,.69-.69h0Z"/><path class="cls-1" d="M42.72,32.39c.27,.27,.71,.27,.98,0,.27-.27,.27-.71,0-.98l-6.92-6.92c-.13-.13-.3-.2-.48-.2-.18,0-.36,.07-.49,.2l-7.04,6.98c-.27,.27-.27,.71,0,.98,.13,.13,.31,.21,.5,.2h9.84c.38,0,.69-.31,.69-.69s-.31-.69-.69-.69h-8.17l5.34-5.34,6.46,6.46Z"/><path class="cls-1" d="M50.4,31.73c0,.38,.31,.69,.69,.69h7.42c.38,0,.69-.31,.69-.69,0-.18-.07-.35-.2-.48l-11.07-11.07c-.27-.27-.71-.27-.98,0l-4.84,4.84c-.27,.27-.27,.71,0,.98,0,0,0,0,0,0,.27,.27,.71,.27,.98,0l4.3-4.39,9.45,9.43h-5.76c-.38,0-.69,.31-.69,.69h0Z"/><path class="cls-1" d="M16.6,46.14h22.43c.38,0,.69-.31,.69-.69s-.31-.69-.69-.69H16.6c-.38,0-.69,.31-.69,.69s.31,.69,.69,.69Z"/><path class="cls-1" d="M16.6,48.83h22.43c.38,0,.69-.31,.69-.69s-.31-.69-.69-.69H16.6c-.38,0-.69,.31-.69,.69s.31,.69,.69,.69Z"/><path class="cls-1" d="M12.5,44.34c0-.38-.31-.69-.69-.69H6.75c-.38,0-.69,.31-.69,.69v5.06c0,.38,.31,.69,.69,.69h5.05c.38,0,.69-.31,.69-.69v-5.06Zm-1.38,4.37h-3.67v-3.67h3.67v3.67Z"/><path class="cls-1" d="M39.09,55.85H16.6c-.38,0-.69,.31-.69,.69s.31,.69,.69,.69h22.49c.38,0,.69-.31,.69-.69s-.31-.69-.69-.69Z"/><path class="cls-1" d="M39.09,58.55H16.6c-.38,0-.69,.31-.69,.69s.31,.69,.69,.69h22.49c.38,0,.69-.31,.69-.69s-.31-.69-.69-.69Z"/><path class="cls-1" d="M11.8,54.75H6.75c-.38,0-.69,.31-.69,.69v5.06c0,.38,.31,.69,.69,.69h5.05c.38,0,.69-.31,.69-.69v-5.06c0-.38-.31-.69-.69-.69Zm-.69,5.06h-3.67v-3.67h3.67v3.67Z"/><path class="cls-1" d="M81.09,44.76h-22.44c-.38,0-.69,.31-.69,.69s.31,.69,.69,.69h22.44c.38,0,.69-.31,.69-.69s-.31-.69-.69-.69Z"/><path class="cls-1" d="M81.09,47.45h-22.44c-.38,0-.69,.31-.69,.69s.31,.69,.69,.69h22.44c.38,0,.69-.31,.69-.69s-.31-.69-.69-.69Z"/><path class="cls-1" d="M54.55,44.34c0-.38-.31-.69-.69-.69h-5.09c-.38,0-.69,.31-.69,.69v5.06c0,.38,.31,.69,.69,.69h5.06c.38,0,.69-.31,.69-.69l.03-5.06Zm-1.38,4.37h-3.7v-3.67h3.67l.03,3.67Z"/><path class="cls-1" d="M81.12,55.85h-22.47c-.38,0-.69,.31-.69,.69s.31,.69,.69,.69h22.47c.38,0,.69-.31,.69-.69s-.31-.69-.69-.69Z"/><path class="cls-1" d="M81.12,58.55h-22.47c-.38,0-.69,.31-.69,.69s.31,.69,.69,.69h22.47c.38,0,.69-.31,.69-.69s-.31-.69-.69-.69Z"/><path class="cls-1" d="M53.86,54.75h-5.09c-.38,0-.69,.31-.69,.69v5.06c0,.38,.31,.69,.69,.69h5.06c.38,0,.69-.31,.69-.69v-5.06c0-.37-.29-.68-.66-.69Zm-.69,5.06h-3.7v-3.67h3.67l.03,3.67Z"/></g></g></svg>