<?xml version="1.0" encoding="UTF-8"?><svg id="Layer_2" xmlns="http://www.w3.org/2000/svg" viewBox="0 0 91.52 87"><defs><style>.cls-1{fill:#6cace3;}</style></defs><g id="work"><g><path class="cls-1" d="M65.66,16.65h-5.85c-.42,0-.77,.34-.77,.77v5.81c0,.42,.34,.77,.77,.77h5.85c.42,0,.77-.34,.77-.77v-5.81c0-.42-.34-.77-.77-.77Zm-.77,5.81h-4.32v-4.28h4.32v4.28Z"/><path class="cls-1" d="M80.12,17.41h-9.57c-.42,0-.77,.34-.77,.77s.34,.77,.77,.77h9.57c.42,0,.77-.34,.77-.77s-.34-.77-.77-.77Z"/><path class="cls-1" d="M80.12,21.69h-9.57c-.42,0-.77,.34-.77,.77s.34,.77,.77,.77h9.57c.42,0,.77-.34,.77-.77s-.34-.77-.77-.77Z"/><path class="cls-1" d="M65.66,31.72h-5.85c-.42,0-.77,.34-.77,.77v5.81c0,.42,.34,.77,.77,.77h5.85c.42,0,.77-.34,.77-.77v-5.81c0-.42-.34-.77-.77-.77Zm-.77,5.81h-4.32v-4.28h4.32v4.28Z"/><path class="cls-1" d="M80.12,32.49h-9.57c-.42,0-.77,.34-.77,.77s.34,.77,.77,.77h9.57c.42,0,.77-.34,.77-.77s-.34-.77-.77-.77Z"/><path class="cls-1" d="M80.12,36.76h-9.57c-.42,0-.77,.34-.77,.77s.34,.77,.77,.77h9.57c.42,0,.77-.34,.77-.77s-.34-.77-.77-.77Z"/><path class="cls-1" d="M65.66,46.79h-5.85c-.42,0-.77,.34-.77,.77v5.81c0,.42,.34,.77,.77,.77h5.85c.42,0,.77-.34,.77-.77v-5.81c0-.42-.34-.77-.77-.77Zm-.77,5.81h-4.32v-4.28h4.32v4.28Z"/><path class="cls-1" d="M80.12,47.56h-9.57c-.42,0-.77,.34-.77,.77s.34,.77,.77,.77h9.57c.42,0,.77-.34,.77-.77s-.34-.77-.77-.77Z"/><path class="cls-1" d="M80.12,51.84h-9.57c-.42,0-.77,.34-.77,.77s.34,.77,.77,.77h9.57c.42,0,.77-.34,.77-.77s-.34-.77-.77-.77Z"/><path class="cls-1" d="M47.37,36.48H30.78V19.89c0-.42-.34-.77-.77-.77-10.01,0-18.13,8.11-18.13,18.12,0,10.01,8.11,18.13,18.12,18.13s18.13-8.11,18.13-18.12v-.02c0-.42-.34-.77-.77-.77Zm-18.12,17.34c-8.85-.42-15.82-7.71-15.83-16.57h0c.01-8.87,6.98-16.16,15.84-16.57V53.82Zm11.08-15.81l-9.55,9.55v-4.71l4.83-4.84h4.72Zm-9.55,0h2.66l-2.66,2.67v-2.67Zm3.32,15.3l12.02-12.05c-1.49,5.92-6.11,10.54-12.02,12.05Zm12.44-14.62l-15.09,15.08h-.66v-4.05l11.71-11.71h4.1c0,.23-.06,.45-.06,.68Z"/><path class="cls-1" d="M33.8,15.33c-.42,0-.77,.34-.77,.77v17.36c0,.42,.34,.77,.77,.77h17.36c.42,0,.77-.34,.77-.77,0-10.01-8.12-18.12-18.13-18.13Zm.77,17.36v-15.81c8.55,.42,15.38,7.27,15.78,15.81h-15.78Z"/><path class="cls-1" d="M89.12,62.85h-.77V7.93h.77c1.33-.07,2.34-1.21,2.26-2.54-.07-1.22-1.04-2.2-2.26-2.26H2.4C1.07,3.21,.06,4.34,.13,5.67c.07,1.22,1.04,2.2,2.26,2.26h1.77V62.85h-1.77c-1.32,0-2.4,1.07-2.4,2.4s1.07,2.4,2.4,2.4H30.05l-7.26,18.32c-.09,.24-.06,.5,.08,.71,.14,.21,.38,.33,.63,.33h5.41c.31,0,.6-.19,.71-.48l3.37-8.53h9.79v8.24c0,.42,.34,.77,.77,.77h5.42c.42,0,.77-.34,.77-.77v-8.24h9.8l3.38,8.53c.12,.29,.4,.48,.71,.48h5.42c.25,0,.49-.12,.64-.33,.14-.21,.17-.48,.08-.71l-7.28-18.32h26.64c1.32,0,2.4-1.07,2.4-2.4,0-1.32-1.07-2.4-2.4-2.4ZM2.4,6.4c-.48,0-.86-.39-.86-.87,0-.48,.39-.86,.86-.86H89.12c.48,.05,.83,.47,.79,.95-.04,.42-.37,.75-.79,.79H2.4Zm84.44,1.53V62.85H5.69V7.93H86.83ZM31.8,76.93l-3.38,8.54h-3.77l7.04-17.83h3.78l-3.67,9.28Zm10.98-.47h-9.15l3.49-8.82h5.66v8.82h0Zm5.39,9.01h-3.85v-17.83h3.89l-.04,17.83Zm1.53-9.01v-8.82h5.67l3.48,8.82h-9.15Zm18.14,9.01h-3.71l-3.38-8.54-3.69-9.28h3.77l7.01,17.83Zm22.11-20.22c0,.48-.39,.86-.86,.86H2.4c-.48,0-.86-.39-.86-.86s.39-.86,.86-.86H89.12c.48,0,.86,.39,.86,.86h-.04Z"/><path class="cls-1" d="M48.97,0h-5.42c-.42,0-.77,.34-.77,.77s.34,.77,.77,.77h5.42c.42,0,.77-.34,.77-.77s-.34-.77-.77-.77Z"/></g></g></svg>