<?xml version="1.0" encoding="UTF-8"?><svg id="Layer_2" xmlns="http://www.w3.org/2000/svg" viewBox="0 0 56.89 75.38"><defs><style>.cls-1{fill:#6cace3;}</style></defs><g id="work"><g><path class="cls-1" d="M56.89,28.37c0-4.82-2.84-9.16-7.25-11.08,.84-1.36,1.28-2.93,1.28-4.54,0-4.78-3.89-8.67-8.67-8.67-1.44,0-2.82,.36-4.04,1C35.58,2.13,32.63,.39,29.65,.06c-3.53-.39-7.51,1.12-9.9,3.78-2.02,2.25-2.77,5.17-2.09,8.21l.68,2.07h-2.88c-.45,0-.82,.37-.82,.83s.37,.83,.82,.83h17.12l-2.6,3.78s-.05,.1-.07,.16c0,.01-.01,.03-.02,.04-.03,.07-.04,.15-.04,.22,0,.03-.02,.05-.02,.08v20.95c0,.16,.05,.32,.13,.45l9.02,13.81c-1.69,.66-8.9,3.15-13.92-.09-2.78-1.79-6.31-1.68-8.17-1.45-.22,.03-.41,.14-.55,.31-.14,.17-.2,.39-.17,.61,.06,.45,.46,.78,.92,.72,2.79-.34,5.36,.09,7.07,1.2,1.95,1.26,4.34,1.9,7.1,1.9,4.19,0,7.94-1.49,8.64-1.79l7.13,10.92c1,1.53,1.23,2.96,.66,4.02-.73,1.35-2.7,2.13-5.4,2.13H7.36c-2.7,0-4.67-.78-5.4-2.13-.58-1.06-.34-2.49,.66-4.02,2.86-4.38,17.07-26.13,17.07-26.13,.09-.13,.13-.29,.13-.45V19.81c0-.46-.37-.83-.82-.83s-.82,.37-.82,.83v20.93c-1.45,2.22-14.24,21.8-16.94,25.93-1.35,2.06-1.61,4.09-.73,5.71,1.03,1.9,3.53,2.99,6.85,2.99H42.31c3.32,0,5.82-1.09,6.85-2.99,.88-1.62,.62-3.65-.73-5.71l-16.93-25.93V20.27l3.34-4.86c.17-.25,.19-.58,.05-.85-.14-.27-.42-.44-.73-.44h-14.07l-.83-2.5c-.7-3.15,.55-5.37,1.72-6.67,2.04-2.27,5.45-3.57,8.49-3.24,3.12,.35,5.66,2.45,7.35,4.3-.76,.61-1.43,1.34-1.96,2.21-.24,.39-.12,.9,.27,1.13,.39,.24,.9,.12,1.14-.27,1.29-2.09,3.53-3.34,5.98-3.34,3.87,0,7.02,3.15,7.02,7.02,0,1.58-.51,3.07-1.48,4.31-.05,.07-.09,.14-.12,.22l-.05,.12c-.08,.21-.07,.44,.03,.64s.27,.36,.48,.43c4.25,1.43,7.11,5.4,7.11,9.89,0,4.97-4.18,9.7-9.18,10.48-.2-.55-.45-1.07-.78-1.57-1.13-1.76-2.88-2.97-4.93-3.41-.22-.05-.44,0-.62,.11-.18,.12-.31,.3-.36,.52-.1,.44,.19,.88,.63,.98,1.61,.35,3,1.3,3.89,2.69,.9,1.39,1.2,3.04,.85,4.65-.41,1.9-1.66,3.47-3.42,4.29-.2,.09-.35,.26-.43,.47-.07,.21-.06,.43,.03,.63,.14,.29,.43,.47,.75,.47,.12,0,.24-.03,.35-.08,2.23-1.05,3.81-3.03,4.33-5.44,.2-.91,.22-1.82,.1-2.72,5.79-.97,10.43-6.29,10.43-12.09Z"/><path class="cls-1" d="M43.23,29.02c.02,.22,.13,.42,.3,.56,.15,.12,.33,.19,.52,.19,.25,0,.48-.11,.64-.3,2.06-2.49,1.71-6.19-.78-8.25-1.58-1.31-3.68-1.69-5.62-1.03-.21,.07-.38,.22-.47,.42-.1,.2-.11,.42-.04,.63,.07,.21,.22,.38,.42,.48,.2,.1,.42,.11,.63,.04,1.4-.48,2.91-.2,4.04,.74,1.79,1.48,2.04,4.14,.56,5.92-.14,.17-.21,.38-.19,.6Z"/><path class="cls-1" d="M29.23,49.61c0-.9-.73-1.64-1.64-1.64s-1.64,.73-1.64,1.64,.73,1.64,1.64,1.64,1.64-.73,1.64-1.64Z"/><path class="cls-1" d="M35.75,66.5c0-.9-.73-1.64-1.64-1.64s-1.64,.73-1.64,1.64,.73,1.64,1.64,1.64,1.64-.73,1.64-1.64Z"/><path class="cls-1" d="M21.93,63.9c0-.9-.73-1.64-1.64-1.64s-1.64,.73-1.64,1.64,.73,1.64,1.64,1.64,1.64-.73,1.64-1.64Z"/><path class="cls-1" d="M11.62,67.43c0,.9,.73,1.64,1.64,1.64s1.64-.73,1.64-1.64-.73-1.64-1.64-1.64-1.64,.73-1.64,1.64Z"/></g></g></svg>