<?xml version="1.0" encoding="UTF-8"?><svg id="Layer_2" xmlns="http://www.w3.org/2000/svg" viewBox="0 0 78.81 87.25"><defs><style>.cls-1{fill:#6cace3;}</style></defs><g id="work"><g><path class="cls-1" d="M32.25,39.86l.99-6.31-4.62-4.39c-.41-.39-.19-1.11,.37-1.2l6.33-1.06,2.7-5.74c.24-.51,.99-.53,1.26-.03l2.99,5.68,6.33,.85c.57,.08,.81,.79,.4,1.2l-4.54,4.53,1.21,6.23c.11,.56-.49,1.02-1,.76l-5.69-2.84-5.69,3.05c-.49,.27-1.11-.2-1.03-.73h0Zm-1.63-10.75l3.87,3.68c.17,.16,.25,.39,.21,.62l-.83,5.27,4.76-2.55c.2-.11,.44-.11,.65,0l4.74,2.36-1.01-5.2c-.04-.23,.03-.47,.19-.63l3.8-3.79-5.28-.71c-.23-.03-.42-.17-.53-.37l-2.5-4.75-2.25,4.79c-.1,.21-.29,.36-.52,.39l-5.3,.89Zm5.18-1.59h0Z"/><path class="cls-1" d="M39.4,49.89c-10.42,0-18.89-8.45-18.89-18.85S28.99,12.2,39.4,12.2s18.89,8.45,18.89,18.85-8.47,18.85-18.89,18.85Zm0-36.28c-9.64,0-17.48,7.82-17.48,17.44s7.84,17.44,17.48,17.44,17.48-7.82,17.48-17.44-7.84-17.44-17.48-17.44Z"/><path class="cls-1" d="M78.69,76.94l-18.05-26.31c.21-.63,.69-1.09,1.17-1.69,.43-.49,.92-.74,1.5-.74,1.2,.01,2.3-.51,2.94-1.54,.72-1.15,.58-2.39,0-3.55-.28-.51-.33-1.11-.1-1.67,.15-.38,.3-.76,.46-1.23,.16-.52,.59-.97,1.22-1.22,1.13-.54,1.99-1.29,2.21-2.59,.19-1.12-.27-2.67-1.37-3.2-.43-.4-.65-.9-.6-1.37,.04-.47,0-.95,0-1.42,0-.61,.21-1.13,.57-1.43,1.1-.49,1.53-2.1,1.37-3.18-.21-1.36-1.08-2.07-2.23-2.65-.57-.23-1.01-.68-1.19-1.26-.16-.4-.29-.8-.45-1.2-.21-.53-.17-1.13,.13-1.67,.59-1.19,.7-2.47-.07-3.62-.65-.98-1.74-1.46-2.89-1.45-.57,0-1.07-.25-1.53-.77-.29-.29-.5-.65-.79-.94-.4-.46-.55-.99-.44-1.58,.22-1.23-.14-2.5-1.1-3.32-.9-.76-2.37-1.13-3.46-.53-.49,.19-1.09,.13-1.63-.17-.38-.23-.77-.46-1.18-.63-.48-.28-.84-.74-.96-1.24,0-1.13-.96-2.2-1.93-2.64-1.18-.53-2.62-.33-3.59,.54-.44,.38-1.02,.53-1.51,.38-.45-.13-.95-.16-1.42-.24-.55-.11-1.04-.43-1.38-.9-.33-1.2-1.81-1.9-2.96-1.9-1.22,0-2.42,.69-2.94,1.8-.27,.48-.76,.81-1.38,.92l-1.37,.23c-.53,.1-1.15-.05-1.62-.4-1.04-.79-2.36-1.08-3.59-.53-.99,.44-1.92,1.53-1.9,2.67-.12,.51-.5,.99-1.01,1.27-.37,.22-.8,.38-1.16,.62-.48,.32-1.06,.38-1.55,.18-1.1-.61-2.59-.3-3.52,.49-.96,.82-1.33,2.13-1.09,3.35,.11,.54-.06,1.14-.41,1.54-.31,.31-.59,.66-.86,1.01-.43,.49-.93,.73-1.5,.73-1.2-.01-2.3,.51-2.94,1.54-.72,1.15-.58,2.39,0,3.55,.28,.51,.33,1.11,.1,1.66-.15,.38-.31,.76-.47,1.24-.16,.52-.59,.97-1.22,1.22-1.13,.54-1.99,1.29-2.21,2.59-.19,1.12,.27,2.67,1.37,3.2,.42,.4,.65,.9,.6,1.37-.04,.47,0,.95,0,1.42,0,.63-.23,1.17-.62,1.46-1.39,1.04-1.78,3.06-.84,4.52,.5,.77,1.18,1.02,1.93,1.43,.92,.5,1.09,1.47,1.45,2.37,.21,.53,.17,1.13-.13,1.67-.8,1.62-.57,3.57,1.07,4.59,.71,.43,1.39,.38,2.16,.51,.99,.15,1.4,1.05,2.05,1.69,.17,.19,.28,.4,.36,.61L.12,76.86c-.37,.54,.18,1.27,.8,1.07l12.87-4.26,3.05,12.97c.14,.59,.95,.73,1.28,.22l17.37-27.36c.38,.17,.72,.44,.97,.8,.53,1.11,1.72,1.79,2.94,1.79s2.42-.69,2.94-1.8c.15-.27,.37-.48,.64-.64l17.7,27.29c.33,.51,1.14,.37,1.28-.22l3.05-12.97,12.87,4.26c.62,.21,1.17-.53,.8-1.07h0Zm-60.85,7.75l-2.85-12.09c-.09-.39-.52-.64-.91-.51l-11.62,3.84,15.81-23.04c.14,.73,.5,1.41,1.1,1.92,.89,.76,2.38,1.14,3.46,.53,.49-.19,1.09-.13,1.63,.18,.38,.23,.77,.46,1.18,.63,.48,.28,.84,.74,.96,1.24,0,1.13,.96,2.2,1.93,2.64,1.19,.54,2.6,.32,3.59-.54,.59-.52,1.19-.43,1.9-.3l-16.19,25.5Zm23.27-25.06c-.31,.7-1.06,1.09-1.8,1.05-.83-.04-1.21-.5-1.64-1.13-.55-.83-1.38-1.38-2.35-1.58l-1.31-.22c-.91-.26-1.94-.02-2.72,.62-.74,.36-1.22,.76-2.09,.41-.73-.3-1.05-.88-1.19-1.6-.19-.94-.82-1.79-1.7-2.28-.37-.21-.76-.38-1.13-.6-.93-.52-1.98-.62-2.91-.24-.66,.35-1.54,.09-2.05-.4-.63-.6-.53-1.2-.54-1.99,.16-.99-.11-1.94-.81-2.73-.29-.29-.5-.65-.8-.94-.7-.8-1.58-1.22-2.56-1.22-1.69,.02-2.43-1.58-1.71-3,.49-.89,.56-1.93,.19-2.85-.15-.38-.27-.77-.43-1.14-.28-.93-1.02-1.71-1.94-2.08-.67-.35-1.26-.72-1.4-1.52-.14-.79,.27-1.43,.8-1.97,.73-.57,1.14-1.49,1.14-2.55v-1.32c.08-.93-.35-1.89-1.14-2.59-.62-.55-1.04-1.13-.8-2.03,.2-.74,.73-1.03,1.35-1.36,.97-.39,1.71-1.17,1.99-2.08,.14-.43,.29-.79,.44-1.16,.37-.93,.3-1.97-.17-2.83-.73-1.42-.01-3.05,1.7-3.03,.98,0,1.86-.42,2.58-1.24,.26-.33,.51-.66,.81-.95,.66-.75,.94-1.75,.78-2.7,.02-.74-.11-1.34,.46-1.94,.54-.56,1.47-.8,2.18-.42,.96,.38,1.99,.29,2.84-.25,.4-.17,.79-.4,1.14-.61,.88-.49,1.51-1.34,1.7-2.28,.14-.72,.36-1.29,1.09-1.6,.9-.4,1.44,.03,2.21,.42,.78,.56,1.78,.79,2.66,.62l1.36-.23c1.05-.19,1.89-.77,2.38-1.65,.31-.69,1.06-1.09,1.8-1.05,.9,.05,1.21,.55,1.65,1.2,.55,.83,1.38,1.38,2.35,1.58l1.31,.22c.91,.26,1.94,.02,2.72-.62,.74-.36,1.22-.76,2.09-.41,.73,.3,1.05,.88,1.19,1.6,.19,.94,.82,1.79,1.7,2.28,.37,.21,.76,.38,1.13,.6,.93,.52,1.98,.61,2.91,.24,.66-.35,1.53-.1,2.05,.4,.63,.6,.53,1.2,.54,1.99-.16,.99,.11,1.94,.81,2.73,.29,.29,.5,.65,.79,.94,.7,.79,1.58,1.21,2.56,1.21,1.69-.02,2.43,1.58,1.71,3-.49,.89-.56,1.93-.19,2.85,.15,.38,.27,.77,.43,1.14,.28,.93,1.02,1.71,1.94,2.08,.66,.34,1.2,.63,1.39,1.41,.18,.78-.12,1.5-.74,1.96-.75,.56-1.18,1.51-1.18,2.59v1.32c-.08,.93,.35,1.89,1.14,2.59,.6,.52,1.01,1.09,.82,1.95-.18,.79-.71,1.09-1.37,1.44-.97,.39-1.71,1.17-1.98,2.08-.14,.43-.28,.78-.44,1.16-.37,.93-.3,1.97,.17,2.83,.73,1.42,.01,3.05-1.7,3.03-.98,0-1.86,.42-2.58,1.24-.26,.32-.51,.66-.81,.95-.66,.75-.94,1.75-.78,2.7-.02,.74,.11,1.34-.46,1.94-.54,.56-1.47,.8-2.18,.42-.95-.38-1.99-.29-2.84,.25-.4,.17-.79,.4-1.14,.61-.88,.49-1.51,1.34-1.7,2.28-.14,.72-.36,1.29-1.09,1.6-.9,.39-1.44-.03-2.21-.42-.78-.56-1.78-.79-2.66-.61l-1.36,.23c-1.05,.19-1.89,.77-2.38,1.65h0Zm23.62,12.54c-.19-.06-.39-.04-.56,.05-.17,.1-.3,.26-.34,.45l-2.85,12.11-16.56-25.54c.82-.14,1.59-.26,2.32,.28,1.04,.79,2.36,1.08,3.59,.53,.99-.44,1.92-1.53,1.9-2.67,.12-.51,.5-.99,1.01-1.27,.37-.22,.8-.38,1.16-.62,.48-.32,1.06-.37,1.55-.18,1.83,1.02,4.28-.4,4.59-2.38l15.83,23.07-11.62-3.84Z"/></g></g></svg>