<?xml version="1.0" encoding="UTF-8"?><svg id="Layer_2" xmlns="http://www.w3.org/2000/svg" viewBox="0 0 78.89 83.19"><defs><style>.cls-1{fill:#6cace3;}</style></defs><g id="work"><path class="cls-1" d="M11.5,83.19c-1.99,0-3.62-1.62-3.62-3.62v-7.6H3.97c-2.19,0-3.97-1.78-3.97-3.97s1.78-3.97,3.97-3.97h3.92v-9.68h-3.34c-.45,0-.81-.36-.81-.81s.36-.81,.81-.81H13.43c1.29,0,2.34-1.05,2.34-2.34s-1.05-2.34-2.34-2.34H3.97c-1.29,0-2.34,1.05-2.34,2.34,0,.45-.36,.81-.81,.81s-.81-.36-.81-.81c0-2.19,1.78-3.97,3.97-3.97h3.92v-9.68H3.97c-2.19,0-3.97-1.78-3.97-3.97s1.78-3.97,3.97-3.97h3.92v-9.68H3.97c-2.19,0-3.97-1.78-3.97-3.97s1.78-3.97,3.97-3.97h3.92V3.62c0-1.99,1.62-3.62,3.62-3.62h63.78c1.99,0,3.62,1.62,3.62,3.62V79.57c0,1.99-1.62,3.62-3.62,3.62H11.5Zm56.88-3.62c0,.49-.1,.96-.29,1.41l-.25,.58h7.43c1.1,0,1.99-.89,1.99-1.99v-4.06l-.58,.25c-.45,.19-.92,.29-1.41,.29h-6.9v3.52Zm-58.87,0c0,1.1,.89,1.99,1.99,1.99h53.26c1.1,0,1.99-.89,1.99-1.99V3.62c0-1.1-.89-1.99-1.99-1.99H11.5c-1.1,0-1.99,.89-1.99,1.99v7.6h3.92c2.19,0,3.97,1.78,3.97,3.97s-1.78,3.97-3.97,3.97h-3.92v9.68h3.92c2.19,0,3.97,1.78,3.97,3.97s-1.78,3.97-3.97,3.97h-3.92v9.68h3.92c2.19,0,3.97,1.78,3.97,3.97s-1.78,3.97-3.97,3.97h-3.92v9.68h3.92c2.19,0,3.97,1.78,3.97,3.97s-1.78,3.97-3.97,3.97h-3.92v7.6Zm58.87-5.14h6.9c1.1,0,1.99-.89,1.99-1.99V31.37h-8.89v20.72h4.44c.45,0,.81,.36,.81,.81s-.36,.81-.81,.81h-4.44v20.72ZM3.97,65.66c-1.29,0-2.34,1.05-2.34,2.34s1.05,2.34,2.34,2.34H13.43c1.29,0,2.34-1.05,2.34-2.34s-1.05-2.34-2.34-2.34H3.97Zm0-35.22c-1.29,0-2.34,1.05-2.34,2.34s1.05,2.34,2.34,2.34H13.43c1.29,0,2.34-1.05,2.34-2.34s-1.05-2.34-2.34-2.34H3.97Zm64.41-.7h8.89V11.02c0-1.1-.89-1.99-1.99-1.99h-6.9V29.75ZM3.97,12.84c-1.29,0-2.34,1.05-2.34,2.34s1.05,2.34,2.34,2.34H13.43c1.29,0,2.34-1.05,2.34-2.34s-1.05-2.34-2.34-2.34H3.97ZM68.09,2.21c.19,.45,.29,.92,.29,1.41v3.79h6.9c.49,0,.96,.1,1.41,.29l.58,.25V3.62c0-1.1-.89-1.99-1.99-1.99h-7.43l.25,.58Z"/></g></svg>