<?xml version="1.0" encoding="UTF-8"?><svg id="Layer_2" xmlns="http://www.w3.org/2000/svg" viewBox="0 0 85.66 87"><defs><style>.cls-1{fill:#6cace3;}</style></defs><g id="work"><g><path class="cls-1" d="M60.52,19.04h-17.7c-.39,0-.71,.32-.71,.71s.32,.71,.71,.71h17.7c.39,0,.71-.32,.71-.71s-.32-.71-.71-.71Z"/><path class="cls-1" d="M60.52,23.94h-17.7c-.39,0-.71,.32-.71,.71s.32,.71,.71,.71h17.7c.39,0,.71-.32,.71-.71s-.32-.71-.71-.71Z"/><path class="cls-1" d="M37.26,20.17c-.08-.26-.31-.44-.57-.48l-3.73-.55-1.66-3.35c-.17-.35-.59-.5-.95-.33-.14,.07-.26,.19-.33,.33l-1.66,3.38-3.73,.55c-.27,.04-.49,.22-.57,.48-.08,.25,0,.52,.18,.71l2.7,2.65-.64,3.72c-.04,.39,.24,.74,.63,.78,.14,.02,.28-.01,.4-.07l3.33-1.75,3.33,1.75c.1,.06,.22,.08,.33,.08,.15,0,.3-.05,.42-.13,.22-.16,.33-.44,.28-.71l-.64-3.72,2.7-2.63c.19-.19,.25-.46,.18-.71Zm-4.13,2.62c-.17,.16-.24,.39-.21,.62l.46,2.67-2.39-1.26c-.21-.1-.46-.1-.67,0l-2.36,1.27,.46-2.67c.04-.23-.04-.46-.21-.62l-1.94-1.89,2.64-.39c.23-.03,.43-.18,.54-.39l1.2-2.43,1.2,2.41c.1,.21,.31,.36,.54,.39l2.68,.39-1.94,1.89Z"/><path class="cls-1" d="M60.52,35.81h-17.7c-.39,0-.71,.32-.71,.71s.32,.71,.71,.71h17.7c.39,0,.71-.32,.71-.71s-.32-.71-.71-.71Z"/><path class="cls-1" d="M60.52,40.72h-17.7c-.39,0-.71,.32-.71,.71s.32,.71,.71,.71h17.7c.39,0,.71-.32,.71-.71s-.32-.71-.71-.71Z"/><path class="cls-1" d="M37.1,36.7c-.11-.11-.25-.18-.4-.2l-3.73-.55-1.68-3.38c-.17-.35-.59-.5-.95-.33-.14,.07-.26,.19-.33,.33l-1.66,3.38-3.73,.55c-.39,.06-.65,.42-.6,.8,.02,.15,.09,.29,.2,.4l2.7,2.63-.64,3.72c-.04,.39,.24,.74,.63,.78,.14,.02,.28-.01,.4-.07l3.33-1.76,3.33,1.76c.1,.08,.22,.13,.35,.14,.15,0,.3-.05,.42-.13,.22-.16,.33-.44,.28-.71l-.64-3.72,2.7-2.63c.28-.28,.28-.72,0-1Zm-3.98,2.87c-.17,.16-.25,.4-.21,.63l.46,2.67-2.39-1.26c-.21-.11-.46-.11-.67,0l-2.36,1.26,.46-2.67c.04-.23-.04-.47-.21-.63l-1.94-1.89,2.64-.38c.23-.03,.43-.18,.54-.39l1.2-2.43,1.2,2.43c.1,.21,.31,.36,.54,.39l2.68,.38-1.94,1.89Z"/><path class="cls-1" d="M80.62,12.75h-12.88v-1.92c0-.07-.01-.13-.04-.2v-.06c-.03-.08-.08-.15-.14-.21L57.33,.16c-.06-.06-.12-.1-.2-.13h-.06c-.06-.02-.13-.03-.19-.04H18.65c-.39,0-.71,.32-.71,.71V12.75H5.03c-2.78,0-5.03,2.25-5.03,5.03v52.38c0,2.78,2.25,5.03,5.03,5.03H31.4l-2.22,10.38h-8.03c-.39,0-.71,.32-.71,.71s.32,.71,.71,.71h43.37c.39,0,.71-.32,.71-.71s-.32-.71-.71-.71h-8.03l-2.22-10.38h26.37c2.78,0,5.03-2.25,5.03-5.03V17.78c0-2.78-2.25-5.03-5.03-5.03ZM57.53,2.37l7.79,7.79h-7.79V2.37Zm-1.42-1V10.87c0,.39,.32,.71,.71,.71h9.5V53.11H19.33l-.03-51.74H56.11Zm-1.08,84.21H30.62l2.22-10.38h19.96l2.22,10.38Zm29.21-15.42c0,2-1.62,3.62-3.62,3.62H5.03c-2,0-3.62-1.62-3.62-3.62v-8.11H84.24v8.11Zm0-9.53H1.42V17.78c0-2,1.62-3.62,3.62-3.62h12.88V53.1h-5.95c-.39,0-.71,.32-.71,.71s.32,.71,.71,.71h61.71c.39,0,.71-.32,.71-.71s-.32-.71-.71-.71h-5.95V14.16h12.88c2,0,3.62,1.62,3.62,3.62V60.64Z"/><path class="cls-1" d="M42.83,65.54c-1.43,0-2.58,1.16-2.58,2.58s1.16,2.58,2.58,2.58,2.58-1.16,2.58-2.58-1.16-2.58-2.58-2.58Zm0,3.75c-.65,0-1.17-.52-1.17-1.17s.52-1.17,1.17-1.17,1.17,.52,1.17,1.17-.52,1.17-1.17,1.17Z"/></g></g></svg>