<?xml version="1.0" encoding="UTF-8"?><svg id="Layer_2" xmlns="http://www.w3.org/2000/svg" viewBox="0 0 80.17 70.59"><defs><style>.cls-1{fill:#6cace3;}</style></defs><g id="work"><g><path class="cls-1" d="M71.75,46.29c-.06-.18,0-.38,.13-.51,5.34-5.1,8.29-11.55,8.29-18.18C80.17,12.38,65.18,0,46.76,0S13.27,12.38,13.27,27.6s15.03,27.6,33.5,27.6c3.46,0,7.01-.46,10.57-1.38,.04-.01,.08-.02,.12-.02,.06,0,.12,.01,.18,.03l11.76,4.51c1.31,.52,2.63,.27,3.69-.65,1.04-.91,1.45-2.36,1.05-3.7l-2.38-7.72Zm-.07,9.81c-.3,.26-.61,.39-.94,.39-.19,0-.38-.04-.58-.13l-12.23-4.69c-.21-.08-.46-.09-.66-.03-3.54,.96-7.07,1.44-10.5,1.44-17.29,0-31.37-11.43-31.37-25.47S29.47,2.13,46.76,2.13s31.28,11.43,31.28,25.47c0,6.42-2.87,12.39-8.31,17.27-.31,.27-.43,.71-.31,1.11l2.67,8.65c.16,.53,0,1.11-.41,1.47Z"/><path class="cls-1" d="M50.95,60.67c-8.24,4.56-18.71,5.63-28.02,2.86-.23-.07-.47-.06-.69,.03l-12.17,4.79c-.57,.22-1.12,.08-1.6-.39-.53-.46-.51-1.04-.4-1.43l2.68-8.67c.12-.4,0-.84-.32-1.12-5.35-4.7-8.3-10.83-8.3-17.26,0-5.17,1.92-10.15,5.55-14.42,.38-.45,.32-1.12-.12-1.51-.2-.17-.44-.25-.69-.25-.3,0-.6,.13-.82,.37C2.09,28.34,0,33.81,0,39.49c0,6.71,2.94,13.17,8.28,18.19,.14,.13,.19,.33,.13,.51l-2.39,7.76c-.37,1.35,.01,2.72,.99,3.58,1.04,1.04,2.51,1.34,3.84,.81l11.66-4.59c.1-.04,.22-.05,.32-.02,9.69,2.73,20.59,1.54,29.15-3.19,.25-.14,.43-.37,.51-.64,.08-.27,.05-.56-.09-.81-.28-.51-.94-.7-1.45-.42Z"/><path class="cls-1" d="M46.76,23.5c-2.26,0-4.11,1.84-4.11,4.11s1.88,4.01,4.11,4.01,4.01-1.84,4.01-4.01-1.84-4.11-4.01-4.11Zm0,5.99c-1.05,0-1.98-.88-1.98-1.88,0-1.07,.9-1.98,1.98-1.98,1,0,1.88,.92,1.88,1.98,0,.97-.92,1.88-1.88,1.88Z"/><path class="cls-1" d="M31.56,23.5c-2.18,0-4.01,1.88-4.01,4.11s1.84,4.01,4.01,4.01,4.11-1.84,4.11-4.01-1.84-4.11-4.11-4.11Zm0,5.99c-.97,0-1.88-.92-1.88-1.88,0-1.05,.88-1.98,1.88-1.98,1.07,0,1.98,.9,1.98,1.98,0,1-.92,1.88-1.98,1.88Z"/><path class="cls-1" d="M61.88,23.5c-2.21,0-4.01,1.84-4.01,4.11s1.8,4.01,4.01,4.01,4.01-1.8,4.01-4.01-1.8-4.11-4.01-4.11Zm0,5.99c-1.13,0-1.88-.97-1.88-1.88,0-1.11,.83-1.98,1.88-1.98s1.88,.89,1.88,1.98c0,.91-.76,1.88-1.88,1.88Z"/></g></g></svg>