<?xml version="1.0" encoding="UTF-8"?><svg id="Layer_2" xmlns="http://www.w3.org/2000/svg" viewBox="0 0 65.38 87"><defs><style>.cls-1{fill:#6cace3;}</style></defs><g id="work"><g><path class="cls-1" d="M46.64,3.73c-.4,0-.72,.32-.72,.72v2.06H19.46v-2.06c0-.4-.32-.72-.72-.72s-.72,.32-.72,.72v2.78c0,.4,.32,.72,.72,.72h27.91c.4,0,.72-.32,.72-.72v-2.78c0-.4-.32-.72-.72-.72Z"/><path class="cls-1" d="M64.66,3.04h-12.84V.72c0-.4-.32-.72-.72-.72H14.28c-.4,0-.72,.32-.72,.72V3.04H.72c-.4,0-.72,.32-.72,.72V86.28c0,.4,.32,.72,.72,.72h63.94c.4,0,.72-.32,.72-.72V3.76c0-.4-.32-.72-.72-.72ZM15,1.44H50.38V10.23H15V1.44Zm-.74,10.23s.01,0,.02,0H51.1c.4,0,.72-.32,.72-.72v-2.94h6.83V78.91H6.73V8.01h6.81v2.94c0,.4,.32,.72,.72,.72ZM63.94,85.56H1.44V4.49H13.56v2.08H6.01c-.4,0-.72,.32-.72,.72V79.63c0,.4,.32,.72,.72,.72H59.37c.4,0,.72-.32,.72-.72V7.29c0-.4-.32-.72-.72-.72h-7.55v-2.08h12.12V85.56h0Z"/><path class="cls-1" d="M53.45,45.75h-3.76v-9.33c0-.4-.32-.72-.72-.72h-8.48s-.1,0-.14,0l-6.94-5.25v-5.31h5.21c.4,0,.72-.32,.72-.72v-5.22c0-.4-.32-.72-.72-.72h-11.86c-.4,0-.72,.32-.72,.72v5.22c0,.4,.32,.72,.72,.72h5.21v5.31l-6.94,5.29c-.06,0-.13,0-.19,0h-8.43c-.4,0-.72,.32-.72,.72v9.3h-3.72c-1.01,0-1.83,.82-1.83,1.83v6.24c0,1.01,.82,1.83,1.83,1.83h3.76c-.02,.05-.03,.11-.04,.17v10.04c0,.4,.32,.72,.72,.72h3.71v2.55c0,.93,.76,1.69,1.69,1.69h6.94c.93,0,1.69-.76,1.69-1.69v-2.55h4.53v2.55c0,.93,.76,1.69,1.69,1.69h6.94c.93,0,1.69-.76,1.69-1.69v-2.55h3.7c.4,0,.72-.32,.72-.72v-10.04c0-.05,0-.11,0-.17h3.76c1.01,0,1.83-.82,1.83-1.83v-6.24c0-1.01-.82-1.83-1.83-1.83Zm-12.96-8.64h7.76v8.61h-4.46c-1.01,0-1.83,.82-1.83,1.83v2.44h-2.62v-2.41c0-1.01-.82-1.83-1.83-1.83h-4.1v-3.36l6.94-5.28s.1,0,.14,0Zm-2.6,10.44v6.24c0,.22-.17,.39-.39,.39h-9.63c-.22,0-.39-.17-.39-.39v-6.21c0-.22,.17-.39,.39-.39l9.63-.03c.22,0,.39,.17,.39,.39Zm-10.41-23.86v-3.78h10.41v3.78h-10.41Zm5.21,8.01l6.19,4.71-6.19,4.71-6.19-4.71,6.19-4.71Zm-15.57,5.43h7.71c.06,0,.13,0,.19,0l6.94,5.25v3.36h-4.1c-1.01,0-1.83,.82-1.83,1.83v2.41h-2.62v-2.41c0-1.01-.82-1.83-1.83-1.83h-4.47v-8.61h0Zm-5.16,17.07c-.22,0-.39-.17-.39-.39h0v-6.24c0-.22,.17-.39,.39-.39h9.63c.22,0,.39,.17,.39,.39v6.24c0,.22-.17,.39-.39,.39H11.96Zm17.03,14.92c0,.14-.11,.25-.25,.25h-6.94c-.14,0-.25-.11-.25-.25v-6.53c0-.14,.11-.25,.25-.25h6.94c.14,0,.25,.11,.25,.25v6.53Zm14.85,0c0,.14-.11,.25-.25,.25h-6.94c-.14,0-.25-.11-.25-.25v-6.53c0-.14,.11-.25,.25-.25h6.94c.14,0,.25,.11,.25,.25v6.53Zm4.42-13.31v9.32h-2.98v-2.54c0-.93-.76-1.69-1.69-1.69h-6.94c-.93,0-1.69,.76-1.69,1.69v2.54h-4.53v-2.54c0-.93-.76-1.69-1.69-1.69h-6.94c-.93,0-1.69,.76-1.69,1.69v2.54h-2.99v-9.32c0-.05,0-.11,0-.17h4.5c1.01,0,1.83-.82,1.83-1.83v-2.39h2.62v2.4c0,1.01,.82,1.83,1.83,1.83h9.61c1.01,0,1.83-.82,1.83-1.83v-2.4h2.62v2.4c0,1.01,.82,1.83,1.83,1.83h4.5s-.03,.1-.04,.15Zm5.17-1.64h-9.63c-.22,0-.39-.17-.39-.39v-6.21c0-.22,.17-.39,.39-.39h9.63c.22,0,.39,.17,.39,.39v6.21c0,.22-.17,.39-.39,.39Z"/></g></g></svg>