<?xml version="1.0" encoding="UTF-8"?><svg id="Layer_2" xmlns="http://www.w3.org/2000/svg" viewBox="0 0 76.45 86"><defs><style>.cls-1{fill:#6cace3;}</style></defs><g id="work"><g><path class="cls-1" d="M38.22,58.17c-8.37,0-15.17-6.81-15.17-15.17s6.81-15.17,15.17-15.17,15.17,6.81,15.17,15.17-6.81,15.17-15.17,15.17Zm-3.28-7.31c-1.03,0-2,.4-2.73,1.13-.61,.61-.99,1.39-1.1,2.25l-.06,.45,.39,.22c2.06,1.17,4.4,1.79,6.77,1.79s4.71-.62,6.77-1.79l.39-.22-.06-.45c-.11-.86-.49-1.64-1.1-2.25-.74-.73-1.71-1.13-2.73-1.13h-6.55Zm6.55-1.46c1.41,0,2.75,.55,3.76,1.56,.52,.52,.93,1.14,1.2,1.82l.36,.93,.73-.68c2.79-2.59,4.38-6.25,4.38-10.04,0-7.56-6.15-13.71-13.71-13.71s-13.71,6.15-13.71,13.71c0,3.79,1.6,7.45,4.38,10.04l.73,.68,.36-.93c.27-.68,.67-1.3,1.2-1.82,1-1,2.34-1.56,3.76-1.56h6.55Z"/><path class="cls-1" d="M38.22,45.95c-3.04,0-5.51-2.47-5.51-5.51s2.47-5.51,5.51-5.51,5.51,2.47,5.51,5.51-2.47,5.51-5.51,5.51Zm0-9.57c-2.24,0-4.05,1.82-4.05,4.05s1.82,4.05,4.05,4.05,4.05-1.82,4.05-4.05c0-1.08-.42-2.1-1.19-2.87-.77-.77-1.78-1.19-2.86-1.19Z"/><path class="cls-1" d="M72.79,37.86c-.08-.53-.17-1.07-.27-1.6l1.42-.31c.11,.57,.21,1.15,.3,1.72l-1.45,.18Z"/><path class="cls-1" d="M73.15,43.81c0-.27,0-.54,0-.81,0-.27,0-.54,0-.81l1.46-.06c0,.29,.01,.58,.01,.87s0,.58,0,.87l-1.46-.06Z"/><path class="cls-1" d="M72.52,49.73c.1-.53,.19-1.06,.27-1.6l1.45,.18c-.08,.58-.18,1.15-.29,1.72l-1.42-.31Z"/><path class="cls-1" d="M51.06,10.5c-.51-.2-1.01-.39-1.52-.56l.45-1.39c.55,.19,1.09,.39,1.64,.6l-.56,1.34Z"/><path class="cls-1" d="M55.69,12.74c-.24-.14-.47-.27-.71-.4l.67-1.29c.25,.14,.51,.28,.76,.43,.25,.15,.5,.29,.75,.45l-.78,1.23c-.23-.14-.46-.28-.69-.41Z"/><path class="cls-1" d="M61.2,16.67c-.41-.35-.82-.7-1.25-1.03l.88-1.16c.46,.36,.91,.73,1.34,1.11l-.98,1.08Z"/><path class="cls-1" d="M24.82,9.16c.54-.21,1.09-.42,1.64-.6l.45,1.39c-.51,.17-1.01,.36-1.52,.56l-.56-1.34Z"/><path class="cls-1" d="M19.27,11.93c.25-.15,.5-.3,.75-.45,.25-.15,.51-.29,.76-.43l.67,1.29c-.24,.13-.47,.26-.7,.4s-.47,.27-.7,.41l-.78-1.23Z"/><path class="cls-1" d="M14.27,15.59c.44-.38,.89-.75,1.34-1.11l.88,1.16c-.42,.34-.84,.68-1.25,1.03l-.98-1.08Z"/><path class="cls-1" d="M2.51,50.04c-.11-.57-.21-1.14-.29-1.72l1.45-.19c.08,.54,.17,1.07,.27,1.6l-1.42,.31Z"/><path class="cls-1" d="M1.83,43c0-.29,0-.58,0-.87l1.46,.06c0,.27,0,.54,0,.81,0,.27,0,.54,0,.81l-1.46,.06c0-.29-.01-.58-.01-.87Z"/><path class="cls-1" d="M2.21,37.68c.08-.58,.18-1.15,.29-1.72l1.42,.31c-.1,.53-.19,1.06-.27,1.6l-1.45-.18Z"/><path class="cls-1" d="M26.47,77.45c-.55-.19-1.1-.39-1.64-.6l.56-1.34c.51,.2,1.02,.39,1.52,.56l-.45,1.39Z"/><path class="cls-1" d="M20.03,74.52c-.25-.15-.5-.29-.75-.44l.78-1.23c.23,.14,.46,.28,.69,.41,.24,.14,.47,.27,.71,.4l-.67,1.29c-.25-.14-.51-.28-.76-.43Z"/><path class="cls-1" d="M15.62,71.53c-.46-.36-.91-.73-1.34-1.11l.98-1.08c.4,.35,.82,.7,1.25,1.03l-.88,1.16Z"/><path class="cls-1" d="M59.96,70.36c.43-.34,.84-.68,1.25-1.03l.98,1.08c-.44,.38-.89,.76-1.34,1.11l-.88-1.16Z"/><path class="cls-1" d="M54.99,73.65c.24-.13,.47-.26,.7-.4,.24-.14,.47-.28,.7-.42l.78,1.23c-.25,.15-.5,.3-.75,.45-.25,.15-.51,.29-.76,.43l-.67-1.29Z"/><path class="cls-1" d="M49.54,76.06c.51-.17,1.01-.36,1.52-.56l.56,1.34c-.54,.21-1.09,.42-1.64,.6l-.45-1.39Z"/><rect class="cls-1" x="37.49" y="18.25" width="1.46" height="6.15"/><path class="cls-1" d="M38.22,14.67c-4.04,0-7.33-3.29-7.33-7.33s3.29-7.33,7.33-7.33,7.33,3.29,7.33,7.33-3.29,7.33-7.33,7.33Zm0-13.21c-3.24,0-5.88,2.64-5.88,5.88s2.64,5.88,5.88,5.88,5.88-2.64,5.88-5.88-2.64-5.88-5.88-5.88Z"/><rect class="cls-1" x="18.72" y="29.09" width="1.46" height="6.15" transform="translate(-18.13 32.93) rotate(-60)"/><path class="cls-1" d="M7.33,32.5c-1.28,0-2.54-.34-3.66-.98-1.7-.98-2.91-2.56-3.42-4.45-.51-1.89-.25-3.87,.73-5.57,1.31-2.26,3.74-3.67,6.36-3.67,1.28,0,2.55,.34,3.66,.98,3.5,2.02,4.7,6.52,2.68,10.02-1.31,2.26-3.74,3.67-6.36,3.67Zm.01-13.21c-2.1,0-4.05,1.13-5.09,2.94-.78,1.36-.99,2.94-.59,4.46,.41,1.52,1.38,2.78,2.74,3.57,.89,.52,1.91,.79,2.93,.79,2.1,0,4.05-1.13,5.1-2.94,1.62-2.81,.65-6.41-2.15-8.03-.9-.52-1.91-.79-2.93-.79Z"/><rect class="cls-1" x="16.38" y="53.11" width="6.15" height="1.46" transform="translate(-24.32 16.95) rotate(-30.01)"/><path class="cls-1" d="M7.34,68.17c-2.62,0-5.05-1.41-6.36-3.67-2.02-3.5-.82-8,2.68-10.02,1.11-.64,2.38-.98,3.66-.98,2.61,0,5.05,1.41,6.36,3.67,2.02,3.5,.82,8-2.68,10.02-1.12,.64-2.38,.98-3.66,.98Zm-.01-13.21c-1.02,0-2.04,.27-2.93,.79-2.81,1.62-3.77,5.22-2.15,8.03,1.05,1.81,3,2.94,5.09,2.94,1.03,0,2.04-.27,2.93-.79,2.81-1.62,3.77-5.22,2.15-8.03-1.05-1.81-3-2.94-5.09-2.94Z"/><rect class="cls-1" x="37.49" y="61.6" width="1.46" height="6.15"/><path class="cls-1" d="M38.22,86c-4.04,0-7.33-3.29-7.33-7.33s3.29-7.33,7.33-7.33c4.04,0,7.33,3.29,7.33,7.33,0,1.96-.76,3.8-2.15,5.19-1.38,1.38-3.23,2.15-5.18,2.15h0Zm0-13.21c-3.24,0-5.88,2.64-5.88,5.88s2.64,5.88,5.88,5.88c1.57,0,3.04-.61,4.16-1.72,1.11-1.11,1.72-2.59,1.72-4.16,0-3.24-2.64-5.88-5.88-5.88h0Z"/><rect class="cls-1" x="56.27" y="50.76" width="1.46" height="6.15" transform="translate(-18.12 76.28) rotate(-60)"/><path class="cls-1" d="M69.11,68.17c-1.28,0-2.55-.34-3.66-.98-3.5-2.02-4.7-6.51-2.69-10.02,1.31-2.26,3.74-3.67,6.36-3.67,1.28,0,2.54,.34,3.66,.98,1.7,.98,2.91,2.56,3.42,4.45,.51,1.89,.25,3.87-.73,5.57-1.31,2.26-3.74,3.67-6.36,3.67Zm.01-13.21c-2.1,0-4.05,1.13-5.1,2.94-1.62,2.81-.65,6.41,2.15,8.03,.89,.52,1.91,.79,2.93,.79,2.1,0,4.05-1.13,5.09-2.94,.79-1.36,.99-2.94,.59-4.46-.41-1.52-1.38-2.78-2.74-3.57-.89-.52-1.91-.79-2.93-.79Z"/><rect class="cls-1" x="53.92" y="31.43" width="6.15" height="1.46" transform="translate(-8.45 32.81) rotate(-30)"/><path class="cls-1" d="M69.12,32.5c-2.61,0-5.05-1.41-6.36-3.67-2.02-3.5-.82-8,2.69-10.02,1.11-.64,2.38-.99,3.66-.99,2.61,0,5.05,1.41,6.36,3.67,.98,1.7,1.24,3.67,.73,5.56-.51,1.89-1.72,3.47-3.42,4.45-1.12,.64-2.38,.98-3.66,.98Zm-.01-13.21c-1.02,0-2.04,.27-2.93,.79-2.81,1.62-3.77,5.22-2.15,8.03,1.05,1.81,3,2.94,5.09,2.94,1.02,0,2.04-.27,2.93-.79,1.36-.79,2.33-2.05,2.74-3.57,.41-1.52,.2-3.1-.59-4.46-1.05-1.81-3-2.94-5.09-2.94Z"/></g></g></svg>