<?xml version="1.0" encoding="UTF-8"?><svg id="Layer_2" xmlns="http://www.w3.org/2000/svg" viewBox="0 0 77.57 82"><defs><style>.cls-1{fill:#6cace3;}</style></defs><g id="work"><g><path class="cls-1" d="M69.3,48.41c-.26-.22-.64-.22-.89,0l-1.22,1.22v-15.66c0-.38-.31-.69-.69-.69h-10.7c-.38,0-.69,.31-.69,.69s.31,.69,.69,.69h10.01v15.17l-1.42-1.42c-.27-.27-.7-.27-.97,0,0,0,0,0,0,0-.27,.27-.27,.7,0,.97l2.5,2.5c.13,.13,.3,.2,.48,.2h.1c.29,0,.54-.19,.64-.46l2.24-2.24c.25-.29,.21-.72-.07-.97Z"/><path class="cls-1" d="M21.84,33.29H11.15c-.38,0-.69,.31-.69,.69v15.75l-1.32-1.32c-.27-.27-.7-.27-.97,0-.27,.27-.27,.7,0,.97l2.49,2.49c.06,.07,.14,.12,.22,.15,.09,.03,.18,.05,.27,.05,.09,0,.18-.02,.26-.05,.08-.03,.16-.08,.22-.15l2.5-2.49c.27-.27,.27-.7,0-.97-.27-.27-.7-.27-.97,0,0,0,0,0,0,0l-1.32,1.32v-15.07h10.01c.38,0,.69-.31,.69-.69,0-.38-.31-.69-.69-.69Z"/><path class="cls-1" d="M49.47,0H28.07c-.38,0-.69,.31-.69,.69V10.11c0,.38,.31,.69,.69,.69h10.06c-.03,.08-.05,.17-.05,.25v7.83l-1.32-1.32c-.25-.29-.68-.32-.97-.07s-.32,.68-.07,.97c.02,.03,.05,.05,.07,.07l2.49,2.5c.07,.06,.14,.11,.23,.14,.17,.07,.36,.07,.52,0,.08-.03,.16-.08,.23-.14l2.49-2.5c.25-.29,.21-.72-.07-.97-.26-.22-.64-.22-.89,0l-1.32,1.32v-7.83c0-.09-.02-.17-.05-.25h10.06c.38,0,.68-.3,.69-.68V.69c0-.38-.31-.69-.69-.69Zm-.69,9.43H28.76V1.37h20.03V9.43Z"/><path class="cls-1" d="M52.5,33.45l-13.31-10.16c-.25-.19-.59-.19-.84,0l-13.31,10.16c-.17,.13-.27,.33-.27,.55,0,.21,.1,.41,.27,.54l13.04,9.89v5.29l-1.32-1.32c-.25-.29-.68-.32-.97-.07-.29,.25-.32,.68-.07,.97,.02,.03,.05,.05,.07,.07l2.49,2.49c.06,.07,.14,.12,.23,.15,.17,.07,.36,.07,.52,0,.09-.03,.16-.08,.23-.15l2.49-2.49c.25-.29,.21-.72-.07-.97-.26-.22-.64-.22-.89,0l-1.32,1.32v-5.29l13.04-9.92c.17-.13,.27-.33,.27-.54,0-.21-.1-.4-.27-.52Zm-13.73,9.79l-12.17-9.27,12.17-9.27,12.17,9.27-12.17,9.27Z"/><path class="cls-1" d="M74.87,54.73h-17.4c-1.49,0-2.7,1.21-2.7,2.7v4.94h-4.61v-4.94c0-1.49-1.21-2.69-2.7-2.7H30.08c-1.49,0-2.69,1.21-2.7,2.7v4.94h-4.61v-4.94c0-1.49-1.21-2.7-2.7-2.7H2.7c-1.49,0-2.7,1.21-2.7,2.7v11.25c0,1.49,1.21,2.69,2.7,2.7h8v8.28l-1.32-1.32c-.27-.27-.71-.27-.97,0s-.27,.71,0,.97l2.5,2.49c.06,.06,.14,.12,.22,.15,.08,.03,.17,.05,.26,.05,.09,0,.18-.02,.27-.05,.08-.04,.16-.09,.22-.15l2.49-2.49c.27-.27,.27-.71,0-.98s-.71-.27-.98,0l-1.32,1.32v-8.28h8.02c1.49,0,2.69-1.21,2.7-2.7v-4.94h4.61v4.94c0,1.49,1.21,2.69,2.7,2.7h17.38c1.49,0,2.69-1.21,2.7-2.7v-4.94h4.61v4.94c0,1.49,1.21,2.69,2.7,2.7h8v8.28l-1.3-1.32c-.27-.27-.7-.27-.97,0s-.27,.7,0,.97l2.49,2.49c.06,.06,.14,.12,.22,.15,.09,.03,.18,.05,.27,.05,.09,0,.18-.02,.26-.05,.08-.04,.16-.09,.22-.15l2.5-2.49c.27-.27,.27-.71,0-.97s-.71-.27-.97,0l-1.32,1.32v-8.28h8c1.49,0,2.69-1.21,2.7-2.7v-11.25c0-1.49-1.21-2.7-2.7-2.7Zm-53.47,13.95c0,.73-.59,1.32-1.32,1.32H2.7c-.73,0-1.32-.59-1.32-1.32v-11.25c0-.73,.59-1.32,1.32-1.32H20.07c.73,0,1.32,.59,1.32,1.32v11.25Zm27.39,0c0,.73-.59,1.32-1.32,1.32H30.08c-.73,0-1.32-.59-1.32-1.32v-11.25c0-.73,.59-1.32,1.32-1.32h17.38c.73,0,1.32,.59,1.32,1.32v11.25h0Zm27.38,0c0,.73-.59,1.32-1.32,1.32h-17.37c-.73,0-1.32-.59-1.32-1.32v-11.25c0-.73,.59-1.32,1.32-1.32h17.37c.73,0,1.32,.59,1.32,1.32v11.25h0Z"/><path class="cls-1" d="M35.29,4.71h-.51c-.38,0-.69,.31-.69,.69s.31,.69,.69,.69h.51c.38,0,.69-.31,.69-.69s-.31-.69-.69-.69Z"/><path class="cls-1" d="M39.03,4.71h-.51c-.38,0-.69,.31-.69,.69s.31,.69,.69,.69h.51c.38,0,.69-.31,.69-.69s-.31-.69-.69-.69Z"/><path class="cls-1" d="M42.77,4.71h-.51c-.38,0-.69,.31-.69,.69s.31,.69,.69,.69h.51c.38,0,.69-.31,.69-.69s-.31-.69-.69-.69Z"/></g></g></svg>