<?xml version="1.0" encoding="UTF-8"?><svg id="Layer_2" xmlns="http://www.w3.org/2000/svg" viewBox="0 0 89 84.39"><defs><style>.cls-1{fill:#6cace3;}</style></defs><g id="work"><g><path class="cls-1" d="M58.15,53.06h-4.6v5.92h-8.53v-5.92H28.67v-5.7l13.88-19.32h9.06l-12.6,18.08h6.28v-5.26h8.27v5.26h4.6v6.94Z"/><path class="cls-1" d="M65.86,84.39c-1.05,0-2.01-.19-2.84-.57-1.89-.86-3.07-2.63-3.74-3.96l-.34-.69-.7,.32c-2.94,1.32-5.01,1.77-5.09,1.79-.03,0-.07,0-.1,0-.26,0-.49-.19-.53-.43-.05-.28,.14-.57,.41-.62,0,0,1.79-.39,4.37-1.5l1-.43-.7-.83c-.84-.98-2.24-2.97-2.24-5.26,0-3.36,2.99-6.06,3.02-6.09,.1-.09,.23-.14,.36-.14s.26,.05,.36,.14c.12,.11,3.02,2.75,3.02,6.09,0,.85-.19,1.73-.57,2.63l-1.03,2.42,2.2-1.43c1.05-.68,2.07-1.42,3.04-2.21,.9-.73,1.78-1.52,2.63-2.36l.64-.63-.7-.56c-1.05-.85-2.41-2.25-2.88-4.09-.83-3.23,1.33-6.52,1.42-6.65,.1-.15,.26-.24,.44-.24,.09,0,.17,.02,.25,.06,.15,.08,3.61,1.91,4.44,5.15,.02,.08,.04,.17,.06,.25l.41,1.97,1.05-1.71c1.06-1.71,1.99-3.56,2.77-5.48l.33-.82-.84-.25c-1.24-.37-3.5-1.27-4.75-3.2-1.81-2.79-.82-6.6-.78-6.76,.06-.23,.27-.39,.51-.39,.12,.01,4.12,.67,5.94,3.47,.13,.2,.24,.39,.34,.6l1.04,2.1,.46-2.3c.42-2.09,.72-4.31,.88-6.6l.05-.72-.71-.13c-1.24-.22-3.53-.85-4.98-2.58-2.15-2.57-1.62-6.45-1.59-6.61,.04-.26,.27-.46,.53-.46,.16,0,4.09,.15,6.25,2.73,.16,.18,.29,.38,.42,.57l.68,1.05,.67-1.06c.14-.22,.29-.43,.46-.64,2.11-2.55,6.04-2.76,6.21-2.77,.28,0,.51,.19,.55,.45,0,.04,.58,4.05-1.55,6.62-1.51,1.82-3.93,2.45-5.24,2.66l-.63,.1-.04,.63c-.19,2.76-.57,5.43-1.14,7.95l-.37,1.66,1.52-.77c.6-.3,1.2-.51,1.8-.61,.32-.06,.66-.08,1-.08,2.92,0,5.41,1.96,5.51,2.04,.21,.17,.27,.47,.12,.7-.09,.14-2.24,3.45-5.5,4-.32,.06-.66,.08-1,.08-1.55,0-2.99-.57-3.93-1.06l-.78-.4-.33,.82c-.52,1.32-1.1,2.58-1.71,3.75-.83,1.57-1.77,3.1-2.81,4.53l-1.11,1.53,1.87-.26c.38-.05,.76-.08,1.11-.08,.64,0,1.25,.09,1.82,.26,3.19,.96,4.89,4.5,4.96,4.65,.11,.25,.03,.54-.21,.68-.24,.14-2.41,1.4-4.88,1.4-.64,0-1.26-.09-1.82-.26-1.99-.6-3.41-2.2-4.25-3.44l-.54-.8-.68,.68c-.89,.88-1.83,1.73-2.8,2.52-.57,.46-1.18,.92-1.8,1.36l-1.41,1.01,1.68,.42c.37,.09,.72,.21,1.04,.36,3.04,1.39,4.24,5.12,4.29,5.28,.08,.26-.05,.54-.3,.65-.07,.03-1.85,.8-3.96,.8Zm-2.88-6.23c-.67,0-1.38,.09-2.12,.27l-1,.24,.47,.91c.58,1.11,1.58,2.57,3.12,3.27,.7,.32,1.51,.48,2.4,.48,.67,0,1.39-.09,2.12-.27l1-.24-.47-.91c-.57-1.11-1.58-2.57-3.13-3.27-.7-.32-1.5-.48-2.4-.48Zm-4.89-10.16c-.77,.98-1.68,2.51-1.68,4.2s.92,3.21,1.68,4.2l.63,.81,.63-.81c.77-.98,1.68-2.5,1.68-4.2s-.92-3.22-1.68-4.2l-.63-.81-.63,.81Zm16.61,1.89c-.93,0-1.93,.21-2.98,.62l-.96,.37,.59,.84c.72,1.02,1.92,2.33,3.54,2.82,.47,.14,.99,.22,1.53,.22,.93,0,1.93-.21,2.98-.61l.95-.37-.59-.84c-.72-1.02-1.92-2.33-3.54-2.82-.47-.14-.98-.21-1.52-.21Zm-7.66-8.68c-.5,1.14-1.01,2.85-.58,4.49,.42,1.64,1.69,2.89,2.67,3.65l.81,.62,.41-.94c.5-1.14,1.01-2.85,.58-4.49-.42-1.63-1.68-2.89-2.67-3.65l-.81-.63-.41,.94Zm16.25-6.97c-.29,0-.57,.02-.84,.07-1.66,.28-3.02,1.44-3.86,2.36l-.69,.76,.9,.49c.86,.47,2.19,1.02,3.58,1.02,.28,0,.57-.02,.84-.07,1.66-.28,3.02-1.44,3.86-2.36l.69-.76-.9-.49c-.86-.47-2.19-1.02-3.58-1.02Zm-12.27-4.22c-.11,1.24-.04,3.02,.88,4.44,.92,1.42,2.52,2.2,3.7,2.61l.97,.33,.09-1.02c.11-1.24,.05-3.02-.88-4.44-.92-1.42-2.52-2.2-3.7-2.61l-.97-.33-.09,1.02Zm2.15-13.27c.04,1.24,.32,3,1.41,4.3,1.09,1.3,2.77,1.88,3.99,2.14l1,.21-.03-1.02c-.04-1.25-.32-3-1.41-4.3-1.08-1.29-2.77-1.88-3.99-2.14l-1-.21,.04,1.02Zm12.79-.92c-1.22,.27-2.89,.86-3.97,2.17-1.07,1.3-1.34,3.06-1.38,4.31l-.03,1.03,1-.22c1.22-.27,2.89-.86,3.97-2.17,1.07-1.3,1.34-3.06,1.38-4.31l.03-1.03-1,.22Z"/><path class="cls-1" d="M23.13,84.39c-2.1,0-3.88-.76-3.96-.8-.25-.11-.38-.39-.29-.65,.05-.16,1.25-3.89,4.29-5.28,.32-.15,.66-.26,1.04-.36l1.68-.42-1.41-1c-.62-.44-1.22-.9-1.8-1.36-.97-.78-1.91-1.63-2.8-2.51l-.69-.68-.54,.8c-.84,1.24-2.25,2.84-4.25,3.44-.57,.17-1.18,.26-1.82,.26-2.48,0-4.65-1.25-4.88-1.4-.23-.14-.32-.43-.2-.68,.07-.15,1.76-3.69,4.96-4.65,.57-.17,1.18-.26,1.82-.26,.36,0,.73,.03,1.11,.08l1.87,.26-1.11-1.53c-1.04-1.43-1.98-2.96-2.81-4.53-.62-1.18-1.19-2.44-1.71-3.75l-.33-.82-.78,.4c-.94,.48-2.38,1.06-3.93,1.06-.34,0-.68-.03-1-.08-3.3-.56-5.48-3.97-5.5-4-.15-.23-.09-.53,.12-.7,.1-.08,2.59-2.04,5.51-2.04,.34,0,.68,.03,1,.08,.6,.1,1.2,.31,1.8,.61l1.52,.77-.37-1.66c-.57-2.52-.95-5.19-1.14-7.95l-.04-.63-.63-.1c-1.31-.21-3.74-.84-5.24-2.66-2.13-2.58-1.57-6.46-1.55-6.62,.04-.26,.26-.46,.53-.46,.03,0,4.1,.19,6.24,2.77,.17,.21,.32,.42,.45,.64l.66,1.06,.68-1.05c.13-.2,.27-.39,.42-.58,2.14-2.55,6.06-2.72,6.23-2.72,.28,0,.51,.19,.55,.46,.02,.16,.56,4.05-1.59,6.61-1.44,1.72-3.74,2.35-4.98,2.58l-.71,.13,.05,.72c.16,2.29,.46,4.52,.88,6.6l.46,2.31,1.04-2.11c.1-.2,.21-.4,.33-.59,1.79-2.77,5.69-3.44,5.85-3.46h.02c.31,0,.52,.16,.58,.39,.04,.16,1.05,3.94-.78,6.76-1.25,1.93-3.51,2.83-4.75,3.2l-.84,.25,.33,.82c.78,1.92,1.71,3.77,2.77,5.48l1.05,1.7,.41-1.96,.06-.25c.83-3.24,4.3-5.07,4.44-5.15,.08-.04,.16-.06,.25-.06,.18,0,.35,.09,.44,.24,.09,.14,2.25,3.42,1.42,6.65-.47,1.85-1.83,3.25-2.88,4.09l-.7,.56,.64,.63c.87,.86,1.79,1.69,2.73,2.44,.94,.76,1.93,1.47,2.94,2.13l2.21,1.44-1.03-2.42c-.38-.9-.58-1.78-.58-2.63,0-3.36,2.99-6.06,3.02-6.09,.1-.09,.23-.14,.36-.14s.26,.05,.36,.14c.12,.11,3.02,2.75,3.02,6.09,0,2.29-1.4,4.28-2.24,5.26l-.7,.83,1,.43c2.5,1.08,4.18,1.46,4.37,1.5,.28,.06,.47,.34,.42,.62-.05,.25-.28,.43-.53,.43-.04,0-.07,0-.1-.01-.22-.05-2.22-.5-5.09-1.78l-.7-.31-.34,.69c-.66,1.33-1.85,3.11-3.74,3.96-.83,.38-1.79,.57-2.84,.57Zm2.88-6.23c-.9,0-1.7,.16-2.4,.48-1.54,.7-2.55,2.17-3.12,3.27l-.47,.91,1,.24c.74,.18,1.45,.27,2.12,.27,.9,0,1.7-.16,2.4-.48,1.53-.7,2.54-2.17,3.12-3.27l.48-.91-1-.24c-.74-.18-1.45-.26-2.12-.26Zm3.62-10.16c-.77,.98-1.68,2.51-1.68,4.2s.92,3.21,1.68,4.2l.63,.81,.63-.81c.77-.98,1.68-2.5,1.68-4.2s-.92-3.22-1.68-4.2l-.63-.81-.63,.81Zm-15.34,1.89c-.54,0-1.06,.07-1.53,.22-1.61,.49-2.81,1.8-3.54,2.82l-.59,.84,.96,.37c1.05,.41,2.05,.61,2.98,.61,.54,0,1.06-.07,1.53-.22,1.62-.49,2.82-1.8,3.54-2.82l.59-.84-.95-.37c-1.05-.41-2.05-.62-2.98-.62Zm6.43-8.99c-.99,.76-2.25,2.01-2.67,3.65-.42,1.64,.09,3.35,.59,4.49l.41,.94,.81-.62c.99-.76,2.25-2.01,2.67-3.65,.42-1.63-.09-3.34-.59-4.49l-.41-.94-.81,.63Zm-15.02-6.66c-1.4,0-2.72,.56-3.59,1.02l-.9,.49,.69,.76c.84,.92,2.19,2.08,3.86,2.36,.26,.04,.54,.07,.83,.07,1.39,0,2.72-.56,3.59-1.02l.9-.49-.69-.76c-.84-.92-2.19-2.08-3.86-2.36-.27-.05-.55-.07-.84-.07Zm11.21-4.91c-1.18,.41-2.78,1.19-3.7,2.61-.92,1.42-.98,3.2-.87,4.44l.09,1.02,.97-.33c1.18-.41,2.77-1.19,3.7-2.61,.92-1.42,.99-3.2,.88-4.44l-.09-1.02-.97,.33Zm-2.05-13.39c-1.22,.26-2.9,.84-3.99,2.14-1.09,1.3-1.37,3.06-1.41,4.3l-.04,1.02,1-.21c1.22-.26,2.9-.84,3.99-2.14,1.09-1.3,1.37-3.06,1.41-4.3l.03-1.02-1,.21Zm-12.8,.69c.03,1.25,.3,3,1.38,4.31,1.08,1.31,2.75,1.9,3.97,2.17l1,.22-.03-1.02c-.03-1.25-.3-3.01-1.38-4.31-1.08-1.31-2.76-1.9-3.97-2.17l-1-.22,.03,1.03Z"/><path class="cls-1" d="M39.62,16.08c-.12,0-.24-.04-.33-.11-.17-.13-.24-.38-.18-.58l1.74-5.37-4.56-3.32c-.18-.13-.26-.39-.19-.61,.07-.21,.28-.36,.5-.36h5.64l1.74-5.37c.07-.22,.28-.37,.51-.37s.44,.15,.51,.37l1.74,5.37h5.64c.22,0,.43,.15,.5,.36,.07,.21,0,.47-.19,.61l-4.56,3.32,1.74,5.37c.06,.2,0,.43-.17,.57-.09,.08-.21,.12-.34,.12-.11,0-.22-.03-.31-.1l-4.56-3.32-4.56,3.32c-.09,.07-.2,.1-.31,.1Zm4.88-4.61c.11,0,.22,.04,.32,.1l3.55,2.58-1.36-4.17c-.07-.22,0-.46,.19-.6l3.55-2.58h-4.39c-.23,0-.44-.15-.51-.37l-1.36-4.17-1.36,4.17c-.07,.22-.28,.37-.51,.37h-4.38l3.55,2.58c.19,.14,.27,.38,.19,.6l-1.35,4.17,3.55-2.58c.09-.07,.2-.1,.31-.1Z"/><path class="cls-1" d="M70.03,26.03c-.22,0-.43-.18-.49-.39l-1.52-5.43-5.64-.24c-.22,0-.42-.17-.49-.38-.07-.22,.02-.47,.21-.6l4.7-3.12-1.51-5.43c-.06-.21,.03-.45,.2-.58,.09-.06,.2-.1,.31-.1,.12,0,.24,.04,.33,.11l4.42,3.51,4.7-3.12c.09-.06,.19-.09,.29-.09,.13,0,.26,.04,.35,.13,.17,.14,.23,.39,.15,.59l-1.97,5.29,4.42,3.51c.18,.14,.25,.41,.17,.62-.08,.2-.29,.34-.5,.34l-5.66-.24-1.97,5.29c-.07,.2-.28,.35-.5,.35h-.03Zm-2.08-10.08c.06,.22-.03,.46-.22,.59l-3.65,2.43,4.38,.19c.23,0,.43,.17,.49,.39l1.18,4.22,1.53-4.11c.08-.21,.28-.35,.5-.35l4.41,.19-3.44-2.72c-.18-.14-.25-.39-.17-.61l1.53-4.11-3.65,2.42c-.09,.06-.19,.09-.3,.09-.12,0-.24-.04-.33-.12l-3.44-2.72,1.18,4.22Z"/><path class="cls-1" d="M18.95,26.03c-.22,0-.43-.15-.5-.35l-1.97-5.29-5.64,.24c-.23,0-.44-.14-.52-.34-.08-.21-.01-.48,.17-.62l4.42-3.51-1.97-5.29c-.08-.21-.01-.45,.15-.59,.1-.08,.22-.13,.35-.13,.11,0,.21,.03,.29,.09l4.7,3.12,4.42-3.51c.09-.07,.21-.11,.33-.11,.12,0,.22,.03,.31,.1,.17,.13,.26,.37,.2,.58l-1.51,5.43,4.7,3.12c.19,.12,.28,.38,.22,.6-.06,.21-.27,.37-.49,.38l-5.64,.24-1.52,5.43c-.06,.21-.27,.38-.49,.39h-.02Zm-2.1-6.72c.22,0,.42,.14,.5,.35l1.53,4.11,1.18-4.22c.06-.22,.26-.38,.49-.39l4.38-.19-3.65-2.42c-.19-.13-.28-.36-.22-.59l1.18-4.23-3.44,2.73c-.09,.07-.21,.11-.33,.11-.11,0-.21-.03-.29-.09l-3.66-2.42,1.53,4.11c.08,.22,.01,.46-.17,.61l-3.44,2.72,4.41-.19Z"/></g></g></svg>