<?xml version="1.0" encoding="UTF-8"?><svg id="Layer_2" xmlns="http://www.w3.org/2000/svg" viewBox="0 0 78.36 78.47"><defs><style>.cls-1{fill:#6cace3;}</style></defs><g id="work"><g><path class="cls-1" d="M.65,78.47c-.36,0-.65-.29-.65-.65v-5.73c0-.36,.29-.65,.65-.65H3.97v-9.77c0-.36,.29-.65,.65-.65h2.19v-20.27h-2.19c-.36,0-.65-.29-.65-.65v-5.08H.65c-.22,0-.44-.12-.55-.31-.09-.15-.12-.32-.07-.49,.04-.17,.15-.31,.29-.4l23.26-14.09-.1-.47c-.44-2.14-.44-4.32,0-6.46C25,5.39,31.6,0,39.17,0c1.08,0,2.18,.11,3.25,.33,8.66,1.78,14.26,10.28,12.48,18.94l-.1,.47,23.26,14.09c.19,.12,.31,.33,.31,.55,0,.36-.29,.65-.65,.65h-3.32v5.08c0,.36-.29,.65-.65,.65h-2.19v20.27h2.19c.36,0,.65,.29,.65,.65v9.77h3.32c.17,0,.34,.07,.46,.19,.12,.12,.19,.29,.19,.46v5.73c0,.36-.29,.65-.65,.65H.65Zm.65-1.3H77.07v-4.43H1.3v4.43Zm62.52-5.73h9.28v-9.12h-9.28v9.12Zm-7.68,0h6.39v-9.77c0-.36,.29-.65,.65-.65h2.18v-20.27h-9.22v30.69Zm-4.91,0h3.62v-30.69h-3.62v30.69Zm-22.79,0h21.5v-30.69H28.44v30.69Zm-4.91,0h3.62v-30.69h-3.62v30.69Zm-10.51-10.42h2.19c.36,0,.65,.29,.65,.65v9.77h6.39v-30.69H13.01v20.27Zm-7.75,10.42H14.54v-9.12H5.26v9.12Zm61.39-10.42h3.62v-20.27h-3.62v20.27Zm-58.56,0h3.62v-20.27h-3.62v20.27Zm-2.83-21.57H73.1v-4.43H5.26v4.43Zm-2.29-5.73H75.4l-20.96-12.69-.29,.75c-1.63,4.23-4.98,7.59-9.22,9.22-1.85,.71-3.78,1.07-5.74,1.07-6.59,0-12.6-4.13-14.97-10.29l-.29-.75L2.97,33.72ZM39.18,1.29c-8.12,0-14.73,6.62-14.74,14.74,0,8.13,6.61,14.74,14.74,14.74,3.94,0,7.64-1.53,10.43-4.32,2.78-2.78,4.32-6.49,4.32-10.42,0-8.13-6.61-14.74-14.74-14.74h0Z"/><path class="cls-1" d="M39.18,27.89c-.36,0-.65-.29-.65-.65v-2.3l-.51-.13c-2.13-.53-3.63-2.44-3.63-4.64,0-.36,.29-.65,.65-.65s.65,.29,.65,.65c0,1.29,.72,2.47,1.86,3.07l.99,.52v-7.11l-.51-.13c-1.71-.43-3.05-1.76-3.48-3.48-.64-2.56,.92-5.16,3.48-5.8l.51-.13v-2.3c0-.36,.29-.65,.65-.65s.65,.29,.65,.65v2.29l.51,.13c2.14,.53,3.64,2.44,3.64,4.64,0,.36-.29,.65-.65,.65s-.65-.29-.65-.65c0-1.3-.72-2.48-1.87-3.08l-.99-.51v7.11l.51,.13c1.72,.43,3.06,1.77,3.49,3.49,.64,2.56-.93,5.16-3.49,5.79l-.51,.13v2.3c0,.36-.29,.65-.65,.65Zm.65-4.12l.99-.52c1.14-.6,1.85-1.78,1.86-3.07,0-1.29-.72-2.47-1.86-3.07l-.99-.52v7.19Zm-2.29-14.94c-1.13,.61-1.84,1.78-1.84,3.06,0,1.29,.71,2.46,1.84,3.07l.99,.53v-7.19l-.99,.53Z"/></g></g></svg>