<?xml version="1.0" encoding="UTF-8"?><svg id="Layer_2" xmlns="http://www.w3.org/2000/svg" viewBox="0 0 95.89 95.89"><defs><style>.cls-1{fill:#6cace3;}</style></defs><g id="work"><g><path class="cls-1" d="M20.48,95.89v-5.4c0-1.37-1.11-2.48-2.48-2.48H0v-13.32c0-3.1,2-5.79,4.97-6.68l10.79-3.24v-3.54l-.39-.27c-2.72-1.9-4.34-5-4.34-8.3v-4.73c0-5.58,4.54-10.13,10.13-10.13,2.81,0,5.42,1.14,7.37,3.2l1.32,1.41,.23-1.92c.38-3.18,1.64-6.19,3.64-8.7l.83-1.04-8.33-2.5-.38,.49c-.89,1.15-2.42,2.53-4.68,2.53s-3.79-1.38-4.68-2.53l-.38-.49-10.74,3.22c-2.4,.72-4.01,2.88-4.01,5.39v11.74H0v-11.74c0-3.1,2-5.79,4.97-6.68l10.79-3.24v-3.53l-.39-.27c-2.72-1.9-4.34-5-4.34-8.3v-4.73C11.03,4.54,15.57,0,21.16,0s10.13,4.54,10.13,10.13v4.73c0,3.29-1.62,6.4-4.34,8.3l-.39,.27v3.54l9.13,2.74,.37-.32c3.15-2.69,7.15-4.17,11.26-4.17s8.37,1.57,11.57,4.43l.38,.34,10.07-3.02v-3.53l-.39-.27c-2.72-1.9-4.34-5-4.34-8.3v-4.73c0-5.58,4.54-10.13,10.13-10.13s10.13,4.54,10.13,10.13v4.73c0,3.29-1.62,6.4-4.34,8.3l-.39,.27v3.54l10.79,3.24c2.97,.89,4.97,3.58,4.97,6.68v11.74h-1.35v-11.74c0-2.51-1.61-4.67-4.01-5.39l-10.74-3.22-.38,.49c-.89,1.15-2.42,2.53-4.68,2.53s-3.79-1.37-4.68-2.53l-.38-.49-9.45,2.84,1.85,1.04c2.39,1.34,3.87,3.87,3.87,6.61v3.71l1.55-1.58c1.93-1.97,4.5-3.05,7.23-3.05,5.58,0,10.13,4.54,10.13,10.13v4.73c0,3.29-1.62,6.4-4.34,8.3l-.39,.27v3.54l10.79,3.24c2.97,.89,4.97,3.58,4.97,6.68v13.32h-18.01c-1.37,0-2.48,1.11-2.48,2.48v5.4H20.48Zm43.89-1.35h9.68v-4.05c0-2.11,1.72-3.82,3.82-3.82h7.21v-11.03h1.35v11.03h8.11v-11.97c0-2.51-1.61-4.67-4.01-5.39l-10.74-3.22-.38,.49c-.89,1.15-2.42,2.53-4.68,2.53s-3.79-1.38-4.68-2.53l-.38-.49-9.83,2.95,7.71,1.78c4.62,1.07,7.85,5.13,7.85,9.87v1.03h-1.35v-1.03c0-4.11-2.8-7.63-6.81-8.56l-9.17-2.12-1.79,8.95-3.16-1.9-1.35,4.05,1.49,13.44h9.75v-12.61h1.35v12.61Zm-20.4,0h7.95l-1.43-12.83h-5.1l-1.43,12.83Zm-11.11,0h9.75l1.49-13.44-1.35-4.05-3.16,1.9-1.79-8.95-9.17,2.12c-4.01,.93-6.81,4.44-6.81,8.56v1.03h-1.35v-1.03c0-4.74,3.23-8.8,7.85-9.87l7.71-1.78-9.83-2.95-.38,.49c-.89,1.15-2.42,2.53-4.68,2.53s-3.79-1.38-4.68-2.53l-.38-.49-10.74,3.22c-2.4,.72-4.01,2.89-4.01,5.39v11.97H9.45v-11.03h1.35v11.03h7.21c2.11,0,3.82,1.72,3.82,3.82v4.05h9.68v-12.61h1.35v12.61Zm11.08-18.2l1.34,4.02h5.33l1.34-4.02-4.01-2.4-4.01,2.4Zm-4.82-6.64l1.42,7.11,6.2-3.72-5.25-3.94-2.37,.55Zm10.03,3.39l6.2,3.72,1.42-7.11-2.37-.54-5.25,3.94Zm-6.84-5l5.63,4.22,5.63-4.22v-3.51l-1.24,.51c-1.41,.57-2.88,.86-4.39,.86s-2.98-.29-4.39-.86l-1.24-.51v3.51Zm21.52-12.04c-1.14,1.12-2.66,1.81-4.27,1.96l-.55,.05-.21,.52c-.75,1.87-1.98,3.53-3.55,4.8l-.34,.27v4.25l2.49,.57,.28-.13c.32-.14,.6-.25,.86-.33l10.79-3.24v-3.54l-.39-.27c-1.64-1.15-2.9-2.74-3.64-4.61l-.5-1.27-.97,.95Zm-33.26,.31c-.73,1.86-1.99,3.46-3.64,4.61l-.38,.27v3.54l10.79,3.24c.27,.08,.55,.19,.86,.33l.28,.12,2.48-.57v-4.25l-.34-.27c-1.58-1.27-2.8-2.93-3.55-4.8l-.21-.52-.55-.05c-1.61-.14-3.13-.84-4.27-1.96l-.97-.95-.5,1.27Zm40.1,8.75l.14,.22c.47,.73,1.8,2.42,3.91,2.42s3.44-1.69,3.91-2.42l.14-.22v-3.09l-1.16,.35c-.94,.28-1.92,.43-2.89,.43s-1.95-.14-2.89-.43l-1.16-.35v3.09Zm-53.57,0l.15,.22c.47,.73,1.8,2.42,3.91,2.42s3.44-1.69,3.91-2.42l.14-.22v-3.08l-1.16,.35c-.94,.28-1.92,.43-2.89,.43s-1.95-.14-2.89-.43l-1.16-.35v3.08Zm20.48-10.86c0,5.71,4.65,10.36,10.36,10.36s10.36-4.65,10.36-10.36v-8.78h-2.89l-1.42-2.83-.82,.45c-2.84,1.56-6.07,2.38-9.33,2.38h-6.25v8.78Zm28.36-1.58c0,4.84,3.94,8.78,8.78,8.78s8.78-3.94,8.78-8.78v-2.48h-8.13c-1.19,0-2.33-.34-3.31-.98l-.5-.33-.5,.33c-.98,.64-2.12,.98-3.31,.98h-1.83v2.48Zm-53.57,0c0,4.84,3.94,8.78,8.78,8.78s8.78-3.94,8.78-8.78v-2.48h-1.83c-1.19,0-2.33-.34-3.31-.98l-.5-.33-.5,.33c-.98,.64-2.12,.98-3.31,.98H12.38v2.48Zm47.27,1.58c0,.4-.02,.8-.06,1.21l-.14,1.4,1.33-.45c.93-.32,1.75-.84,2.37-1.52,1.08-1.19,1.59-2.73,1.44-4.35-.2-2.06-1.65-3.9-3.71-4.68l-1.22-.46v8.85Zm-24.63-8.38c-2.05,.78-3.51,2.61-3.71,4.67-.15,1.61,.36,3.15,1.44,4.34,.62,.68,1.44,1.21,2.37,1.52l1.33,.45-.14-1.4c-.04-.41-.06-.82-.06-1.21v-8.84l-1.22,.46Zm37.04,1.6c.87,.88,2.09,1.38,3.33,1.38h8.13v-.9c0-4.84-3.94-8.78-8.78-8.78s-8.78,3.94-8.78,8.78v.9h1.83c1.24,0,2.45-.5,3.33-1.38l.48-.48,.48,.48Zm-47.27,0c.87,.88,2.09,1.38,3.33,1.38h1.83v-.9c0-4.84-3.94-8.78-8.78-8.78s-8.78,3.94-8.78,8.78v.9h8.13c1.24,0,2.45-.5,3.33-1.38l.48-.48,.48,.48Zm31.45-3.35h2.46c1.59,0,3.13,.53,4.45,1.53l1.45,1.1v-8c0-2.69-1.71-5.07-4.27-5.92l-.15-.05-1.52-1.52c-3.03-3.03-7.06-4.7-11.34-4.7-8.84,0-16.04,7.19-16.04,16.04v4.15l1.45-1.1c1.32-1,2.86-1.53,4.45-1.53h6.65c3.58,0,7.05-1.05,10.03-3.04l.63-.42,1.73,3.46Zm14.44-16.83l.14,.22c.47,.73,1.8,2.42,3.91,2.42s3.44-1.69,3.91-2.42l.14-.22v-3.08l-1.16,.35c-.95,.28-1.92,.43-2.89,.43s-1.95-.14-2.89-.43l-1.16-.35v3.09Zm-53.57,0l.15,.22c.47,.73,1.8,2.42,3.91,2.42s3.44-1.69,3.91-2.42l.14-.22v-3.08l-1.16,.35c-.95,.28-1.92,.43-2.89,.43s-1.94-.14-2.89-.43l-1.16-.35v3.08Zm48.85-12.44c0,4.84,3.94,8.78,8.78,8.78s8.78-3.94,8.78-8.78v-2.48h-1.83c-1.19,0-2.33-.34-3.31-.98l-.5-.33-.5,.33c-.98,.64-2.12,.98-3.31,.98h-8.13v2.48Zm-53.57,0c0,4.84,3.94,8.78,8.78,8.78s8.78-3.94,8.78-8.78v-2.48h-8.13c-1.19,0-2.33-.34-3.31-.98l-.5-.33-.5,.33c-.98,.64-2.12,.98-3.31,.98h-1.83v2.48Zm65.98-5.2c.87,.88,2.09,1.38,3.33,1.38h1.83v-.9c0-4.84-3.94-8.78-8.78-8.78s-8.78,3.94-8.78,8.78v.9h8.13c1.24,0,2.45-.5,3.33-1.38l.48-.48,.48,.48Zm-59.88,0c.88,.88,2.09,1.38,3.33,1.38h8.13v-.9c0-4.84-3.94-8.78-8.78-8.78s-8.78,3.94-8.78,8.78v.9h1.83c1.24,0,2.45-.5,3.33-1.38l.48-.48,.48,.48Z"/><rect class="cls-1" x="36.24" width="1.35" height="1.35"/><rect class="cls-1" x="36.24" y="6.3" width="1.35" height="15.53"/><rect class="cls-1" x="58.3" width="1.35" height="1.35"/><rect class="cls-1" x="58.3" y="6.3" width="1.35" height="15.53"/><rect class="cls-1" x="42.54" y="6.3" width="1.35" height="9.22"/><rect class="cls-1" x="42.54" y="20.48" width="1.35" height="1.35"/><rect class="cls-1" x="52" y="6.3" width="1.35" height="9.22"/><rect class="cls-1" x="52" y="20.48" width="1.35" height="1.35"/></g></g></svg>