<?xml version="1.0" encoding="UTF-8"?><svg id="Layer_2" xmlns="http://www.w3.org/2000/svg" viewBox="0 0 79.66 82"><defs><style>.cls-1{fill:#6cace3;}</style></defs><g id="work"><g><path class="cls-1" d="M76.9,66.09l-4.02-.74-8.95-1.67-8.95-1.67-5.51-1.03,4.08-1.05,8.85-2.28,12.8-3.3c1.81-.46,2.9-2.31,2.44-4.12,0,0,0-.01,0-.02l-2.34-9.08c-.47-1.81-2.31-2.89-4.12-2.43,0,0,0,0-.01,0l-21.69,5.6-5.57,1.43,9.88-8.17,7.06-5.79,3.15-2.6c1.44-1.17,1.65-3.29,.47-4.73,0,0,0-.01-.01-.02l-5.96-7.25c-1.18-1.44-3.31-1.65-4.75-.46,0,0,0,0,0,0l-21.88,18,1.65-3.44,9.64-20.19c.81-1.68,.11-3.7-1.57-4.52,0,0,0,0-.02,0l-8.46-4.04c-1.68-.8-3.69-.09-4.5,1.59l-12.48,26.1V3.37c0-1.86-1.51-3.36-3.37-3.37H3.37C1.51,0,0,1.51,0,3.37v63.56c0,1.86,1.51,3.37,3.37,3.37H11.47l62.48,11.63c.2,.04,.41,.06,.62,.06,1.62,0,3.01-1.16,3.31-2.75l1.72-9.22c.34-1.83-.87-3.59-2.7-3.93Zm-62.16,.84c0,.21-.04,.43-.11,.63l-.13,.28v.06c-.09,.17-.2,.32-.33,.45-.37,.37-.88,.58-1.41,.59H3.36c-1.1,0-2-.89-2-2h0v-14.77H14.74v14.77Zm.01-16.15H1.36V10.08H14.75V50.78Zm0-42.07H1.38V3.37c0-1.1,.89-2,2-2H12.76c1.1,0,2,.89,2,2v5.34Zm56.68,31.34c1.07-.27,2.16,.37,2.43,1.44,0,0,0,0,0,0l2.34,9.08c.28,1.06-.36,2.15-1.42,2.43,0,0,0,0,0,0l-3.27,.85-3.34-12.95,3.27-.85Zm-4.62,1.21l3.31,12.93-7.5,1.96-3.33-12.95,7.52-1.95Zm-8.86,2.29l3.34,12.95-7.52,1.92-3.34-12.95,7.52-1.91Zm-8.85,2.28l3.33,12.95-6.33,1.63c-.14,0-.27,.03-.39,.1-.09,0-.17,.03-.25,.06l-.55,.14-3.34-12.98,7.52-1.91Zm-27.14,9.57l3.69-7.73,5.51,6.71-5.99,4.93-3.22-3.91Zm2.16,4.81l-7.33,6.03,4.52-9.48,2.82,3.44Zm2.19-13.91l3.24-6.78,.45-.94,8.23,10.01-6,4.92-5.93-7.2Zm6.28,8.68l2.14,8.33-7.52,1.94-1.24-4.82,6.62-5.45Zm1.17-.96l6.61-5.44,3.21,12.45-7.52,1.95-2.3-8.95ZM54.61,17.78c.85-.7,2.1-.58,2.8,.27,0,0,0,0,0,0l5.96,7.25c.7,.85,.58,2.11-.28,2.81l-2.62,2.16-8.5-10.33,2.62-2.16Zm-3.68,3.02l8.5,10.33-6,4.94-8.5-10.33,6-4.94Zm-7.06,5.81l8.5,10.33-6,4.95-8.5-10.33,6-4.95Zm-7.06,5.81l8.53,10.35-6,4.93-8.5-10.33,5.97-4.95ZM29.82,4.7c.5-.99,1.7-1.38,2.68-.89,0,0,0,0,.01,0l8.46,4.05c.97,.48,1.37,1.65,.92,2.62l-1.46,3.06-12.05-5.76,1.44-3.09Zm-2.03,4.3l12.04,5.84-3.32,6.97-12.07-5.77,3.35-7.04Zm-3.94,8.26l12.07,5.76-3.35,7.03-12.07-5.76,3.35-7.03Zm-3.95,8.26l12.07,5.77-3.35,7-12.07-5.77,3.35-7Zm-3.77,8.33l11.9,5.69-3.12,6.52-.23,.45-8.55-4.06v-8.61h0Zm0,10.12l7.95,3.81-3.35,7-4.61-2.2v-8.61Zm0,10.12l4.02,1.91-4.02,8.42v-10.33Zm8.46,17.28l-9.01-1.67,9.79-2.52-.79,4.19Zm-7.64-3.46l7.88-6.5,1.07,4.19-8.95,2.31Zm8.99,3.7l.91-4.82h.07l8.22-2.12-1.57,8.36-7.63-1.42Zm9.02,1.67l1.65-9.01,8.01-2.07,.28-.07-2.31,12.57-7.63-1.43Zm8.95,1.67l2.44-13.15,7.64,1.42-2.45,13.15-7.63-1.43Zm9.01,1.67l2.44-13.15,7.62,1.42-2.45,13.15-7.61-1.43Zm8.95,1.67l2.46-13.15,7.64,1.43-2.45,13.15-7.64-1.43Zm16.39-8.53s0,0,0,0h0l-1.71,9.23c-.21,1.08-1.24,1.79-2.33,1.6l-3.34-.63,2.44-13.15,3.34,.63c1.08,.2,1.8,1.24,1.6,2.32Z"/><path class="cls-1" d="M11.18,62.69c-.64,0-1.25,.24-1.71,.69-.95,.94-.95,2.47-.01,3.42,.45,.46,1.07,.71,1.72,.71,1.33,0,2.41-1.07,2.42-2.4,0-1.33-1.08-2.41-2.42-2.42Zm.91,2.54c-.06,.48-.43,.86-.91,.91-.57,.07-1.09-.34-1.15-.91-.07-.57,.34-1.09,.91-1.15,.08,0,.16,0,.24,0,.57,.07,.98,.58,.91,1.15Z"/><path class="cls-1" d="M9.15,56.32H4.06c-.38,0-.69,.31-.69,.69s.31,.69,.69,.69h5.09c.38,0,.69-.31,.69-.69s-.31-.69-.69-.69Z"/><path class="cls-1" d="M6.32,59.31h-2.27c-.38,0-.69,.31-.69,.69s.31,.69,.69,.69h2.27c.38,0,.69-.31,.69-.69s-.31-.69-.69-.69Z"/></g></g></svg>