<?xml version="1.0" encoding="UTF-8"?><svg id="Layer_2" xmlns="http://www.w3.org/2000/svg" viewBox="0 0 59.94 84.81"><defs><style>.cls-1{fill:#6cace3;}</style></defs><g id="work"><g><path class="cls-1" d="M55.08,84.81H4.87c-2.68,0-4.87-2.18-4.87-4.87V4.87C0,2.18,2.18,0,4.87,0H55.08c2.68,0,4.87,2.18,4.87,4.87V79.94c0,2.68-2.18,4.87-4.87,4.87ZM4.87,1.25c-1.99,0-3.62,1.62-3.62,3.62V79.94c0,1.99,1.62,3.62,3.62,3.62H55.08c1.99,0,3.62-1.62,3.62-3.62V4.87c0-1.99-1.62-3.62-3.62-3.62H4.87Z"/><path class="cls-1" d="M54.19,73.57H5.75c-.35,0-.62-.28-.62-.62V7.69c0-.34,.28-.62,.62-.62H54.19c.35,0,.62,.28,.62,.62V72.95c0,.34-.28,.62-.62,.62Zm-47.82-1.25H53.57V8.32H6.37V72.32Z"/><path class="cls-1" d="M29.97,81.31c-1.59,0-2.88-1.29-2.88-2.88s1.29-2.88,2.88-2.88,2.88,1.29,2.88,2.88-1.29,2.88-2.88,2.88Zm0-4.51c-.9,0-1.63,.73-1.63,1.63s.73,1.63,1.63,1.63,1.63-.73,1.63-1.63-.73-1.63-1.63-1.63Z"/><path class="cls-1" d="M34.34,4.5h-8.74c-.35,0-.62-.28-.62-.62s.28-.62,.62-.62h8.74c.35,0,.62,.28,.62,.62s-.28,.62-.62,.62Z"/><g><g><path class="cls-1" d="M33.47,23.12c-.17,0-.32-.1-.37-.26l-.56-1.48h-5.1l-.56,1.48c-.06,.16-.21,.26-.37,.26-.05,0-.09,0-.14-.02-.1-.04-.18-.11-.22-.21-.04-.1-.05-.2-.01-.3l2.31-6.15c.24-.64,.86-1.07,1.55-1.07s1.31,.43,1.55,1.07l2.31,6.15c.04,.1,.03,.21-.01,.3-.04,.1-.12,.17-.22,.21-.05,.02-.09,.03-.14,.03m-3.48-6.96c-.36,0-.68,.22-.8,.55l-1.45,3.87h4.5l-1.45-3.87c-.12-.33-.45-.55-.8-.55"/><path class="cls-1" d="M33.47,23.22c-.21,0-.4-.13-.47-.33l-.53-1.41h-4.96l-.53,1.41c-.09,.25-.4,.39-.65,.3-.13-.05-.23-.14-.28-.26-.06-.12-.06-.26-.01-.38l2.3-6.15c.26-.68,.92-1.14,1.64-1.14s1.39,.46,1.65,1.14l2.31,6.15c.05,.13,.04,.26-.01,.39-.05,.12-.15,.21-.28,.26-.06,.02-.12,.03-.18,.03Zm-6.1-1.95h5.25l.58,1.55c.06,.15,.22,.23,.38,.17,.07-.03,.13-.08,.16-.15,.03-.07,.04-.15,0-.22l-2.31-6.15c-.22-.6-.81-1-1.45-1s-1.22,.4-1.45,1l-2.31,6.15c-.03,.07-.03,.15,0,.22,.03,.07,.09,.13,.16,.16,.14,.05,.32-.03,.38-.17l.58-1.55Zm5.02-.59h-4.8l1.5-4.01c.14-.37,.5-.62,.9-.62s.76,.25,.9,.62l1.5,4.01Zm-4.5-.21h4.2l-1.4-3.73c-.11-.29-.39-.49-.7-.49s-.6,.2-.7,.49l-1.4,3.73Z"/></g><g><path class="cls-1" d="M12.51,68.76c-.7,0-1.27-.57-1.27-1.27v-24.36c0-.7,.57-1.27,1.27-1.27H47.4c.7,0,1.27,.57,1.27,1.27v24.36c0,.7-.57,1.27-1.27,1.27H12.51Zm0-26.1c-.26,0-.47,.21-.47,.47v24.36c0,.26,.21,.47,.47,.47H47.4c.26,0,.47-.21,.47-.47v-24.36c0-.26-.21-.47-.47-.47H12.51Z"/><path class="cls-1" d="M47.4,68.86H12.51c-.76,0-1.37-.62-1.37-1.37v-24.36c0-.76,.62-1.38,1.37-1.38H47.4c.76,0,1.37,.62,1.37,1.38v24.36c0,.76-.62,1.37-1.37,1.37ZM12.51,41.97c-.64,0-1.16,.52-1.16,1.17v24.36c0,.64,.52,1.16,1.16,1.16H47.4c.64,0,1.16-.52,1.16-1.16v-24.36c0-.64-.52-1.17-1.16-1.17H12.51Zm34.88,26.1H12.51c-.32,0-.58-.26-.58-.57v-24.36c0-.32,.26-.58,.58-.58H47.4c.32,0,.58,.26,.58,.58v24.36c0,.32-.26,.57-.58,.57ZM12.51,42.77c-.2,0-.37,.16-.37,.37v24.36c0,.2,.16,.37,.37,.37H47.4c.2,0,.37-.16,.37-.37v-24.36c0-.2-.16-.37-.37-.37H12.51Z"/></g><g><path class="cls-1" d="M12.55,38.78c-.7,0-1.27-.57-1.27-1.27V13.15c0-.7,.57-1.27,1.27-1.27H47.43c.7,0,1.27,.57,1.27,1.27v24.36c0,.7-.57,1.27-1.27,1.27H12.55Zm0-26.1c-.26,0-.47,.21-.47,.47v24.36c0,.26,.21,.47,.47,.47H47.43c.26,0,.47-.21,.47-.47V13.15c0-.26-.21-.47-.47-.47H12.55Z"/><path class="cls-1" d="M47.43,38.88H12.55c-.76,0-1.37-.62-1.37-1.37V13.15c0-.76,.62-1.37,1.37-1.37H47.43c.76,0,1.37,.62,1.37,1.37v24.36c0,.76-.62,1.37-1.37,1.37ZM12.55,11.98c-.64,0-1.16,.52-1.16,1.17v24.36c0,.64,.52,1.16,1.16,1.16H47.43c.64,0,1.16-.52,1.16-1.16V13.15c0-.64-.52-1.17-1.16-1.17H12.55Zm34.88,26.1H12.55c-.32,0-.58-.26-.58-.57V13.15c0-.32,.26-.58,.58-.58H47.43c.32,0,.58,.26,.58,.58v24.36c0,.32-.26,.57-.58,.57ZM12.55,12.78c-.2,0-.37,.16-.37,.37v24.36c0,.2,.16,.37,.37,.37H47.43c.2,0,.37-.16,.37-.37V13.15c0-.2-.16-.37-.37-.37H12.55Z"/></g><g><g><path class="cls-1" d="M15.16,27.47c-.22,0-.4-.18-.4-.4s.18-.4,.4-.4h2.61c.22,0,.4,.18,.4,.4s-.18,.4-.4,.4h-2.61Z"/><path class="cls-1" d="M17.77,27.57h-2.61c-.28,0-.5-.23-.5-.5s.23-.5,.5-.5h2.61c.28,0,.5,.23,.5,.5s-.23,.5-.5,.5Zm-2.61-.8c-.16,0-.29,.13-.29,.29s.13,.29,.29,.29h2.61c.16,0,.29-.13,.29-.29s-.13-.29-.29-.29h-2.61Z"/></g><g><path class="cls-1" d="M15.16,30.95c-.22,0-.4-.18-.4-.4s.18-.4,.4-.4h6.09c.22,0,.4,.18,.4,.4s-.18,.4-.4,.4h-6.09Z"/><path class="cls-1" d="M21.25,31.05h-6.09c-.28,0-.5-.23-.5-.5s.23-.5,.5-.5h6.09c.28,0,.5,.23,.5,.5s-.23,.5-.5,.5Zm-6.09-.8c-.16,0-.29,.13-.29,.29s.13,.29,.29,.29h6.09c.16,0,.3-.13,.3-.29s-.13-.29-.3-.29h-6.09Z"/></g><g><path class="cls-1" d="M21.25,27.47c-.22,0-.4-.18-.4-.4s.18-.4,.4-.4h6.96c.22,0,.4,.18,.4,.4s-.18,.4-.4,.4h-6.96Z"/><path class="cls-1" d="M28.21,27.57h-6.96c-.28,0-.5-.23-.5-.5s.23-.5,.5-.5h6.96c.28,0,.5,.23,.5,.5s-.23,.5-.5,.5Zm-6.96-.8c-.16,0-.29,.13-.29,.29s.13,.29,.29,.29h6.96c.16,0,.3-.13,.3-.29s-.13-.29-.3-.29h-6.96Z"/></g><g><path class="cls-1" d="M15.16,34.43c-.22,0-.4-.18-.4-.4s.18-.4,.4-.4h2.61c.22,0,.4,.18,.4,.4s-.18,.4-.4,.4h-2.61Z"/><path class="cls-1" d="M17.77,34.53h-2.61c-.28,0-.5-.23-.5-.5s.23-.5,.5-.5h2.61c.28,0,.5,.23,.5,.5s-.23,.5-.5,.5Zm-2.61-.8c-.16,0-.29,.13-.29,.29s.13,.29,.29,.29h2.61c.16,0,.29-.13,.29-.29s-.13-.29-.29-.29h-2.61Z"/></g><g><path class="cls-1" d="M21.25,34.43c-.22,0-.4-.18-.4-.4s.18-.4,.4-.4h6.96c.22,0,.4,.18,.4,.4s-.18,.4-.4,.4h-6.96Z"/><path class="cls-1" d="M28.21,34.53h-6.96c-.28,0-.5-.23-.5-.5s.23-.5,.5-.5h6.96c.28,0,.5,.23,.5,.5s-.23,.5-.5,.5Zm-6.96-.8c-.16,0-.29,.13-.29,.29s.13,.29,.29,.29h6.96c.16,0,.3-.13,.3-.29s-.13-.29-.3-.29h-6.96Z"/></g><g><path class="cls-1" d="M24.73,30.95c-.22,0-.4-.18-.4-.4s.18-.4,.4-.4h3.48c.22,0,.4,.18,.4,.4s-.18,.4-.4,.4h-3.48Z"/><path class="cls-1" d="M28.21,31.05h-3.48c-.28,0-.5-.23-.5-.5s.23-.5,.5-.5h3.48c.28,0,.5,.23,.5,.5s-.23,.5-.5,.5Zm-3.48-.8c-.16,0-.29,.13-.29,.29s.13,.29,.29,.29h3.48c.16,0,.29-.13,.29-.29s-.13-.29-.29-.29h-3.48Z"/></g><g><path class="cls-1" d="M31.77,27.47c-.22,0-.4-.18-.4-.4s.18-.4,.4-.4h2.61c.22,0,.4,.18,.4,.4s-.18,.4-.4,.4h-2.61Z"/><path class="cls-1" d="M34.38,27.57h-2.61c-.28,0-.5-.23-.5-.5s.23-.5,.5-.5h2.61c.28,0,.5,.23,.5,.5s-.23,.5-.5,.5Zm-2.61-.8c-.16,0-.29,.13-.29,.29s.13,.29,.29,.29h2.61c.16,0,.29-.13,.29-.29s-.13-.29-.29-.29h-2.61Z"/></g><g><path class="cls-1" d="M31.77,30.95c-.22,0-.4-.18-.4-.4s.18-.4,.4-.4h6.09c.22,0,.4,.18,.4,.4s-.18,.4-.4,.4h-6.09Z"/><path class="cls-1" d="M37.86,31.05h-6.09c-.28,0-.5-.23-.5-.5s.23-.5,.5-.5h6.09c.28,0,.5,.23,.5,.5s-.23,.5-.5,.5Zm-6.09-.8c-.16,0-.29,.13-.29,.29s.13,.29,.29,.29h6.09c.16,0,.3-.13,.3-.29s-.13-.29-.3-.29h-6.09Z"/></g><g><path class="cls-1" d="M37.86,27.47c-.22,0-.4-.18-.4-.4s.18-.4,.4-.4h6.96c.22,0,.4,.18,.4,.4s-.18,.4-.4,.4h-6.96Z"/><path class="cls-1" d="M44.82,27.57h-6.96c-.28,0-.5-.23-.5-.5s.23-.5,.5-.5h6.96c.28,0,.5,.23,.5,.5s-.23,.5-.5,.5Zm-6.96-.8c-.16,0-.29,.13-.29,.29s.13,.29,.29,.29h6.96c.16,0,.3-.13,.3-.29s-.13-.29-.3-.29h-6.96Z"/></g><g><path class="cls-1" d="M31.77,34.43c-.22,0-.4-.18-.4-.4s.18-.4,.4-.4h2.61c.22,0,.4,.18,.4,.4s-.18,.4-.4,.4h-2.61Z"/><path class="cls-1" d="M34.38,34.53h-2.61c-.28,0-.5-.23-.5-.5s.23-.5,.5-.5h2.61c.28,0,.5,.23,.5,.5s-.23,.5-.5,.5Zm-2.61-.8c-.16,0-.29,.13-.29,.29s.13,.29,.29,.29h2.61c.16,0,.29-.13,.29-.29s-.13-.29-.29-.29h-2.61Z"/></g><g><path class="cls-1" d="M37.86,34.43c-.22,0-.4-.18-.4-.4s.18-.4,.4-.4h6.96c.22,0,.4,.18,.4,.4s-.18,.4-.4,.4h-6.96Z"/><path class="cls-1" d="M44.82,34.53h-6.96c-.28,0-.5-.23-.5-.5s.23-.5,.5-.5h6.96c.28,0,.5,.23,.5,.5s-.23,.5-.5,.5Zm-6.96-.8c-.16,0-.29,.13-.29,.29s.13,.29,.29,.29h6.96c.16,0,.3-.13,.3-.29s-.13-.29-.3-.29h-6.96Z"/></g><g><path class="cls-1" d="M41.34,30.95c-.22,0-.4-.18-.4-.4s.18-.4,.4-.4h3.48c.22,0,.4,.18,.4,.4s-.18,.4-.4,.4h-3.48Z"/><path class="cls-1" d="M44.82,31.05h-3.48c-.28,0-.5-.23-.5-.5s.23-.5,.5-.5h3.48c.28,0,.5,.23,.5,.5s-.23,.5-.5,.5Zm-3.48-.8c-.16,0-.29,.13-.29,.29s.13,.29,.29,.29h3.48c.16,0,.29-.13,.29-.29s-.13-.29-.29-.29h-3.48Z"/></g></g><g><g><path class="cls-1" d="M25.57,64.41c-.22,0-.4-.18-.4-.4s.18-.4,.4-.4h2.61c.22,0,.4,.18,.4,.4s-.18,.4-.4,.4h-2.61Z"/><path class="cls-1" d="M28.18,64.51h-2.61c-.28,0-.5-.23-.5-.5s.23-.5,.5-.5h2.61c.28,0,.5,.23,.5,.5s-.23,.5-.5,.5Zm-2.61-.8c-.16,0-.29,.13-.29,.29s.13,.29,.29,.29h2.61c.16,0,.29-.13,.29-.29s-.13-.29-.29-.29h-2.61Z"/></g><g><path class="cls-1" d="M22.09,60.93c-.22,0-.4-.18-.4-.4s.18-.4,.4-.4h6.09c.22,0,.4,.18,.4,.4s-.18,.4-.4,.4h-6.09Z"/><path class="cls-1" d="M28.18,61.03h-6.09c-.28,0-.5-.23-.5-.5s.23-.5,.5-.5h6.09c.28,0,.5,.23,.5,.5s-.23,.5-.5,.5Zm-6.09-.8c-.16,0-.29,.13-.29,.29s.13,.29,.29,.29h6.09c.16,0,.29-.13,.29-.29s-.13-.29-.29-.29h-6.09Z"/></g><g><path class="cls-1" d="M15.13,64.41c-.22,0-.4-.18-.4-.4s.18-.4,.4-.4h6.96c.22,0,.4,.18,.4,.4s-.18,.4-.4,.4h-6.96Z"/><path class="cls-1" d="M22.09,64.51h-6.96c-.28,0-.5-.23-.5-.5s.23-.5,.5-.5h6.96c.28,0,.5,.23,.5,.5s-.23,.5-.5,.5Zm-6.96-.8c-.16,0-.29,.13-.29,.29s.13,.29,.29,.29h6.96c.16,0,.3-.13,.3-.29s-.13-.29-.3-.29h-6.96Z"/></g><g><path class="cls-1" d="M25.57,57.45c-.22,0-.4-.18-.4-.4s.18-.4,.4-.4h2.61c.22,0,.4,.18,.4,.4s-.18,.4-.4,.4h-2.61Z"/><path class="cls-1" d="M28.18,57.55h-2.61c-.28,0-.5-.23-.5-.5s.23-.5,.5-.5h2.61c.28,0,.5,.23,.5,.5s-.23,.5-.5,.5Zm-2.61-.8c-.16,0-.29,.13-.29,.29s.13,.3,.29,.3h2.61c.16,0,.29-.13,.29-.3s-.13-.29-.29-.29h-2.61Z"/></g><g><path class="cls-1" d="M15.13,57.45c-.22,0-.4-.18-.4-.4s.18-.4,.4-.4h6.96c.22,0,.4,.18,.4,.4s-.18,.4-.4,.4h-6.96Z"/><path class="cls-1" d="M22.09,57.55h-6.96c-.28,0-.5-.23-.5-.5s.23-.5,.5-.5h6.96c.28,0,.5,.23,.5,.5s-.23,.5-.5,.5Zm-6.96-.8c-.16,0-.29,.13-.29,.29s.13,.3,.29,.3h6.96c.16,0,.3-.13,.3-.3s-.13-.29-.3-.29h-6.96Z"/></g><g><path class="cls-1" d="M15.13,60.93c-.22,0-.4-.18-.4-.4s.18-.4,.4-.4h3.48c.22,0,.4,.18,.4,.4s-.18,.4-.4,.4h-3.48Z"/><path class="cls-1" d="M18.61,61.03h-3.48c-.28,0-.5-.23-.5-.5s.23-.5,.5-.5h3.48c.28,0,.5,.23,.5,.5s-.23,.5-.5,.5Zm-3.48-.8c-.16,0-.29,.13-.29,.29s.13,.29,.29,.29h3.48c.16,0,.29-.13,.29-.29s-.13-.29-.29-.29h-3.48Z"/></g><g><path class="cls-1" d="M42.17,64.41c-.22,0-.4-.18-.4-.4s.18-.4,.4-.4h2.61c.22,0,.4,.18,.4,.4s-.18,.4-.4,.4h-2.61Z"/><path class="cls-1" d="M44.78,64.51h-2.61c-.28,0-.5-.23-.5-.5s.23-.5,.5-.5h2.61c.28,0,.5,.23,.5,.5s-.23,.5-.5,.5Zm-2.61-.8c-.16,0-.29,.13-.29,.29s.13,.29,.29,.29h2.61c.16,0,.29-.13,.29-.29s-.13-.29-.29-.29h-2.61Z"/></g><g><path class="cls-1" d="M38.69,60.93c-.22,0-.4-.18-.4-.4s.18-.4,.4-.4h6.09c.22,0,.4,.18,.4,.4s-.18,.4-.4,.4h-6.09Z"/><path class="cls-1" d="M44.78,61.03h-6.09c-.28,0-.5-.23-.5-.5s.23-.5,.5-.5h6.09c.28,0,.5,.23,.5,.5s-.23,.5-.5,.5Zm-6.09-.8c-.16,0-.29,.13-.29,.29s.13,.29,.29,.29h6.09c.16,0,.29-.13,.29-.29s-.13-.29-.29-.29h-6.09Z"/></g><g><path class="cls-1" d="M31.73,64.41c-.22,0-.4-.18-.4-.4s.18-.4,.4-.4h6.96c.22,0,.4,.18,.4,.4s-.18,.4-.4,.4h-6.96Z"/><path class="cls-1" d="M38.69,64.51h-6.96c-.28,0-.5-.23-.5-.5s.23-.5,.5-.5h6.96c.28,0,.5,.23,.5,.5s-.23,.5-.5,.5Zm-6.96-.8c-.16,0-.29,.13-.29,.29s.13,.29,.29,.29h6.96c.16,0,.3-.13,.3-.29s-.13-.29-.3-.29h-6.96Z"/></g><g><path class="cls-1" d="M42.17,57.45c-.22,0-.4-.18-.4-.4s.18-.4,.4-.4h2.61c.22,0,.4,.18,.4,.4s-.18,.4-.4,.4h-2.61Z"/><path class="cls-1" d="M44.78,57.55h-2.61c-.28,0-.5-.23-.5-.5s.23-.5,.5-.5h2.61c.28,0,.5,.23,.5,.5s-.23,.5-.5,.5Zm-2.61-.8c-.16,0-.29,.13-.29,.29s.13,.3,.29,.3h2.61c.16,0,.29-.13,.29-.3s-.13-.29-.29-.29h-2.61Z"/></g><g><path class="cls-1" d="M31.73,57.45c-.22,0-.4-.18-.4-.4s.18-.4,.4-.4h6.96c.22,0,.4,.18,.4,.4s-.18,.4-.4,.4h-6.96Z"/><path class="cls-1" d="M38.69,57.55h-6.96c-.28,0-.5-.23-.5-.5s.23-.5,.5-.5h6.96c.28,0,.5,.23,.5,.5s-.23,.5-.5,.5Zm-6.96-.8c-.16,0-.29,.13-.29,.29s.13,.3,.29,.3h6.96c.16,0,.3-.13,.3-.3s-.13-.29-.3-.29h-6.96Z"/></g><g><path class="cls-1" d="M31.73,60.93c-.22,0-.4-.18-.4-.4s.18-.4,.4-.4h3.48c.22,0,.4,.18,.4,.4s-.18,.4-.4,.4h-3.48Z"/><path class="cls-1" d="M35.21,61.03h-3.48c-.28,0-.5-.23-.5-.5s.23-.5,.5-.5h3.48c.28,0,.5,.23,.5,.5s-.23,.5-.5,.5Zm-3.48-.8c-.16,0-.29,.13-.29,.29s.13,.29,.29,.29h3.48c.16,0,.29-.13,.29-.29s-.13-.29-.29-.29h-3.48Z"/></g></g><g><path class="cls-1" d="M32.56,53.1s-.1-.01-.15-.03c-.82-.33-1.55-.77-2.18-1.33l-.27-.24-.28,.24c-.62,.55-1.36,.99-2.19,1.33-.05,.02-.1,.03-.15,.03-.16,0-.31-.1-.37-.25-.04-.1-.04-.21,0-.31,.04-.1,.12-.17,.22-.21,.73-.29,1.38-.69,1.94-1.17l.29-.25-.22-.31c-.27-.38-.51-.78-.7-1.21-.09-.2,0-.44,.2-.53,.05-.02,.11-.04,.17-.04,.16,0,.3,.09,.36,.23,.11,.24,.24,.48,.38,.71l.35,.57,.35-.57c.53-.86,.77-1.7,.88-2.26l.1-.5h-4.81c-.22,0-.4-.18-.4-.4s.18-.4,.4-.4h3.08v-.42c0-.27,.18-.45,.4-.45s.4,.18,.4,.4v.42l.42,.05h2.66c.22,0,.4,.18,.4,.4s-.18,.4-.4,.4h-1.36l-.05,.35c-.13,.83-.45,2.07-1.3,3.25l-.22,.31,.29,.25c.55,.48,1.2,.87,1.93,1.16,.1,.04,.18,.12,.22,.21,.04,.1,.04,.21,0,.31-.06,.15-.21,.25-.37,.25"/><path class="cls-1" d="M32.56,53.2c-.06,0-.13-.01-.19-.04-.83-.33-1.57-.78-2.21-1.34l-.21-.18-.21,.18c-.63,.56-1.38,1.01-2.22,1.34-.26,.1-.55-.03-.66-.28-.05-.13-.05-.26,0-.39,.05-.12,.15-.22,.28-.27,.72-.29,1.36-.68,1.9-1.16l.21-.19-.17-.23c-.28-.38-.52-.79-.71-1.23-.11-.25,0-.55,.25-.67,.06-.03,.13-.05,.21-.05,.2,0,.38,.12,.46,.3,.11,.24,.24,.47,.38,.7l.26,.43,.27-.43c.52-.84,.76-1.68,.87-2.23l.07-.37h-4.68c-.28,0-.5-.23-.5-.5s.23-.5,.5-.5h2.98v-.31c0-.32,.22-.56,.5-.56s.5,.23,.5,.5v.33l.33,.04h2.65c.28,0,.5,.22,.5,.5s-.23,.5-.5,.5h-1.27l-.04,.26c-.13,.84-.46,2.1-1.32,3.29l-.17,.23,.22,.19c.54,.47,1.18,.86,1.9,1.14,.13,.05,.22,.15,.28,.27,.05,.12,.05,.26,0,.39-.08,.19-.26,.32-.47,.32Zm-2.6-1.84l.34,.3c.62,.54,1.34,.98,2.15,1.31,.15,.06,.33-.02,.38-.16,.03-.07,.03-.15,0-.23-.03-.07-.09-.13-.16-.16-.74-.29-1.4-.69-1.96-1.18l-.36-.31,.28-.38c.84-1.16,1.16-2.38,1.29-3.2l.07-.44h1.45c.16,0,.29-.13,.29-.3s-.13-.29-.29-.29h-2.66l-.52-.07v-.51c0-.16-.13-.29-.29-.29-.17,0-.29,.14-.29,.35v.52h-3.19c-.16,0-.3,.13-.3,.29s.13,.3,.3,.3h4.94l-.12,.62c-.11,.57-.36,1.43-.9,2.3l-.44,.72-.44-.72c-.14-.23-.27-.48-.39-.72-.07-.14-.25-.22-.39-.15-.15,.07-.21,.24-.15,.39,.19,.42,.43,.82,.69,1.19l.28,.38-.36,.31c-.56,.5-1.23,.9-1.96,1.19-.07,.03-.13,.08-.16,.16-.03,.07-.03,.15,0,.23,.06,.15,.23,.22,.38,.16,.82-.33,1.55-.77,2.16-1.31l.34-.3Z"/></g></g></g></g></svg>