<?xml version="1.0" encoding="UTF-8"?><svg id="Layer_2" xmlns="http://www.w3.org/2000/svg" viewBox="0 0 88.88 61.44"><defs><style>.cls-1{fill:#6cace3;}</style></defs><g id="work"><g><path class="cls-1" d="M59.82,37.39c-.54,0-1.1-.04-1.64-.11-3.29-.43-6.21-2.11-8.23-4.74-2.02-2.62-2.89-5.88-2.46-9.17,.43-3.29,2.11-6.21,4.74-8.23,2.18-1.68,4.79-2.57,7.55-2.57,3.9,0,7.49,1.77,9.86,4.84,2.02,2.62,2.89,5.88,2.46,9.17-.43,3.29-2.11,6.21-4.74,8.23-2.19,1.68-4.79,2.57-7.53,2.57Zm-.04-23.15c-2.39,0-4.65,.77-6.54,2.22-4.7,3.61-5.58,10.37-1.97,15.07,2.05,2.67,5.16,4.19,8.53,4.19,2.39,0,4.65-.77,6.54-2.22,2.27-1.75,3.73-4.28,4.1-7.13,.37-2.85-.38-5.67-2.13-7.94-2.05-2.67-5.16-4.19-8.53-4.19Z"/><path class="cls-1" d="M64.85,21.87c-.23,0-.43-.11-.59-.33-.92-1.19-2.24-1.96-3.74-2.15-.25-.03-.5-.05-.75-.05-1.25,0-2.43,.4-3.42,1.17-.16,.12-.32,.18-.48,.18h0c-.34,0-.69-.28-.81-.65-.08-.23-.1-.57,.27-.85,1.28-.99,2.82-1.51,4.44-1.51,2.29,0,4.41,1.04,5.8,2.85,.25,.32,.19,.62,.1,.8-.15,.31-.5,.54-.83,.54Z"/><path class="cls-1" d="M84.13,61.44c-.89,0-2.18-.3-3.26-1.7l-7.3-9.52-.35,.15c-.41,.18-.85,.27-1.3,.27-1.04,0-1.99-.47-2.62-1.29-1.1-1.43-.84-3.49,.58-4.61l.38-.3-2.83-3.69-.35,.16c-2.29,1.05-4.73,1.59-7.25,1.59-.77,0-1.55-.05-2.31-.15-4.64-.61-8.77-2.99-11.62-6.7-2.75-3.57-4-8.02-3.52-12.51l.06-.53H11.27C5.06,22.61,0,17.55,0,11.34v-.07c0-3.01,1.17-5.83,3.3-7.96C5.44,1.17,8.26,0,11.27,0h3.33c.58,0,.79,.45,.79,.83s-.21,.83-.79,.83h-3.33C5.97,1.67,1.66,5.97,1.66,11.27v.07c0,5.3,4.31,9.6,9.61,9.6h31.47l.09-.36c.98-3.81,3.15-7.1,6.27-9.49,3.08-2.37,6.77-3.62,10.66-3.62,5.5,0,10.57,2.49,13.91,6.84,1.45,1.88,2.48,4,3.07,6.28l.09,.36h.73c5.3,0,9.61-4.31,9.61-9.6v-.07c0-5.3-4.31-9.6-9.61-9.6H22.85c-.58,0-.79-.45-.79-.83s.21-.83,.79-.83h54.73c6.21,0,11.27,5.06,11.27,11.27v.07c0,6.15-5.01,11.21-11.16,11.27h-.53s.06,.53,.06,.53c.04,.4,.07,.75,.08,1.07,.01,.24-.05,.43-.19,.57-.15,.16-.4,.25-.65,.25h0c-.13,0-.79-.04-.82-.75-.14-3.27-1.27-6.37-3.27-8.97-3.02-3.93-7.61-6.19-12.59-6.19-3.52,0-6.85,1.13-9.64,3.28-3.35,2.58-5.5,6.31-6.05,10.51-.55,4.2,.57,8.37,3.14,11.72,2.58,3.36,6.31,5.51,10.51,6.06,.69,.09,1.4,.14,2.09,.14,3.5,0,6.83-1.14,9.63-3.29,2.09-1.6,3.75-3.71,4.82-6.1,.17-.39,.47-.47,.68-.47,.32,0,.64,.17,.81,.43,.14,.21,.15,.46,.03,.72-.64,1.42-1.47,2.77-2.48,3.99l-.24,.3,2.84,3.69,.38-.29c.58-.43,1.26-.66,1.98-.66,1.04,0,1.99,.47,2.62,1.29,.54,.7,.77,1.57,.66,2.44-.08,.59-.31,1.14-.68,1.61l-.23,.3,7.3,9.53c1.06,1.37,1.25,2.93,.53,4.37-.8,1.62-2.58,2.75-4.33,2.75Zm-9.23-12.24l7.29,9.52c.52,.67,1.3,1.06,2.16,1.06,1.2,0,2.51-.77,2.79-2.24,.01-.05,.02-.11,.02-.15,.02-.12,.03-.21,.02-.29,.02-.64-.18-1.26-.58-1.77l-7.29-9.52-4.41,3.39Zm3.37-8.39c-.36,0-.71,.12-1,.34l-6.35,4.88c-.72,.55-.85,1.58-.3,2.3,.31,.41,.79,.64,1.3,.64,.36,0,.71-.12,1-.34l6.35-4.88c.72-.55,.85-1.58,.3-2.29-.31-.41-.79-.64-1.3-.64Zm-6.75-2.83c-.35,.32-.71,.62-1.05,.88-.35,.27-.73,.54-1.12,.79l-.44,.29,2.57,3.35,3-2.31-2.57-3.35-.39,.35Z"/><path class="cls-1" d="M12.5,12.33c-.46,0-.83-.37-.83-.83s.37-.83,.83-.83h24.38c.58,0,.79,.45,.79,.83s-.21,.83-.79,.83H12.5Z"/></g></g></svg>