<?xml version="1.0" encoding="UTF-8"?><svg id="Layer_2" xmlns="http://www.w3.org/2000/svg" viewBox="0 0 108.09 70.66"><defs><style>.cls-1{fill:#6cace3;}</style></defs><g id="work"><g><path class="cls-1" d="M47.23,60c-.46,0-.83,.37-.83,.83s.37,.83,.83,.83h13.63c.46,0,.83-.37,.83-.83s-.37-.83-.83-.83h-13.63Z"/><path class="cls-1" d="M107.27,60.02h-39.55c-.36,0-.68,.23-.79,.58l-.72,2.32c-.13,.43,.11,.9,.54,1.03,.44,.14,.9-.11,1.03-.54l.54-1.74h38.12v.55c0,1.89-.66,3.46-2.01,4.79-1.33,1.34-2.9,2-4.79,2H8.44c-1.89,0-3.46-.66-4.81-2-1.33-1.33-1.98-2.9-1.99-4.79v-.55H39.69l.54,1.74c.13,.43,.59,.68,1.03,.54,.43-.13,.68-.6,.54-1.03l-.72-2.32c-.11-.35-.42-.58-.79-.58H.83c-.46,0-.83,.37-.83,.83v1.38c0,2.32,.83,4.32,2.47,5.95,1.65,1.65,3.65,2.48,5.97,2.49H99.65c2.32,0,4.32-.84,5.95-2.48,1.65-1.64,2.49-3.64,2.49-5.96v-1.38c0-.46-.37-.83-.83-.83Z"/><path class="cls-1" d="M11.99,55.39c.46,0,.83-.37,.83-.83V5.33c0-1.03,.35-1.89,1.07-2.62,.72-.72,1.57-1.06,2.61-1.06H91.61c1.02,0,1.86,.35,2.57,1.06,.73,.73,1.09,1.59,1.09,2.62V54.56c0,.46,.37,.83,.83,.83s.83-.37,.83-.83V5.33c0-1.47-.53-2.74-1.58-3.79-1.03-1.02-2.28-1.54-3.74-1.54H16.48c-1.46,0-2.72,.52-3.76,1.55-1.03,1.04-1.56,2.32-1.56,3.78V54.56c0,.46,.37,.83,.83,.83Z"/><path class="cls-1" d="M67.33,28.69c.06-.31-.07-.63-.33-.82l-21.46-15.44c-.26-.19-.61-.21-.89-.05-.28,.16-.44,.48-.41,.8l2.63,26.31c.03,.32,.25,.59,.55,.69,.3,.11,.64,.03,.86-.2l4.85-4.89,2.72,4.72c.15,.25,.42,.41,.72,.41,.14,0,.29-.04,.41-.11l5.51-3.17c.39-.23,.53-.73,.3-1.12l-2.71-4.72,6.65-1.76c.31-.08,.54-.34,.6-.65Zm-9.26,1.57c-.1,.24-.08,.5,.05,.73l2.84,4.94-4.08,2.35-2.85-4.94c-.13-.22-.36-.37-.61-.41-.04,0-.07,0-.11,0-.22,0-.43,.09-.59,.24l-4.38,4.41-2.28-22.75,18.55,13.35-6,1.59c-.25,.06-.45,.24-.55,.48Z"/><path class="cls-1" d="M90.81,50.61c0-.46-.37-.83-.83-.83H18.12c-.46,0-.83,.37-.83,.83s.37,.83,.83,.83H89.98c.46,0,.83-.37,.83-.83Z"/></g></g></svg>