<?xml version="1.0" encoding="UTF-8"?><svg id="Layer_2" xmlns="http://www.w3.org/2000/svg" viewBox="0 0 102.8 85.24"><defs><style>.cls-1{fill:#6cace3;}</style></defs><g id="work"><g><path class="cls-1" d="M25.05,67.67C11.24,67.67,0,56.43,0,42.62S11.24,17.57,25.05,17.57h1.68l.31-.86C30.59,6.87,40.61,0,51.4,0c12.93,0,23.9,10.09,24.97,22.96l.1,1.19h4.57c12,0,21.76,9.76,21.76,21.76v1.99h-1.79v-1.99c0-11.01-8.96-19.96-19.97-19.96h-6.39v-.9c0-12.83-10.43-23.26-23.26-23.26-10.61,0-20.33,7.12-23.13,16.92l-.18,.65h-3.05C12.23,19.36,1.79,29.79,1.79,42.62s10.43,23.26,23.26,23.26h5.29v1.79h-5.29Z"/><polygon class="cls-1" points="74.66 54.49 74.66 52.7 85.64 52.7 85.64 41.72 87.43 41.72 87.43 54.49 74.66 54.49"/><polygon class="cls-1" points="41.72 83.04 41.72 70.27 54.49 70.27 54.49 72.06 43.51 72.06 43.51 83.04 41.72 83.04"/><path class="cls-1" d="M41.76,61.08c.68-12,10.65-21.56,22.82-21.56,5.89,0,11.58,2.43,16.02,6.84l5.67,5.67-1.26,1.26-5.67-5.67c-4.09-4.09-9.32-6.34-14.73-6.34-11.19,.03-20.38,8.79-21.05,19.79h-1.79Z"/><path class="cls-1" d="M64.58,85.24c-5.89,0-11.58-2.43-16.02-6.84l-5.67-5.67,1.26-1.26,5.67,5.67c4.09,4.09,9.32,6.34,14.73,6.34,11.18,0,20.35-8.75,21.02-19.76h1.8c-.3,5.58-2.63,10.8-6.63,14.81-4.32,4.33-10.06,6.72-16.16,6.72Z"/></g></g></svg>