<?xml version="1.0" encoding="UTF-8"?><svg id="Layer_2" xmlns="http://www.w3.org/2000/svg" viewBox="0 0 80.75 80.75"><defs><style>.cls-1{fill:#6cace3;}</style></defs><g id="work"><g><path class="cls-1" d="M55.41,75.91h0c.75,0,1.36,.61,1.36,1.36h0c0,.76-.61,1.37-1.36,1.37h0c-.75,0-1.36-.61-1.36-1.36h0c0-.76,.61-1.37,1.36-1.37Z"/><path class="cls-1" d="M60.87,75.91h0c.75,0,1.36,.61,1.36,1.36h0c0,.76-.61,1.37-1.36,1.37h0c-.75,0-1.36-.61-1.36-1.36h0c0-.76,.61-1.37,1.36-1.37Z"/><path class="cls-1" d="M66.34,75.91h0c.75,0,1.36,.61,1.36,1.36h0c0,.76-.61,1.37-1.36,1.37h0c-.75,0-1.36-.61-1.36-1.36h0c0-.76,.61-1.37,1.36-1.37Z"/><path class="cls-1" d="M77.28,64.98h0c.75,0,1.36,.61,1.36,1.36h0c0,.76-.61,1.37-1.36,1.37h0c-.75,0-1.36-.61-1.36-1.36h0c0-.76,.61-1.37,1.36-1.37Z"/><path class="cls-1" d="M77.28,59.51h0c.75,0,1.36,.61,1.36,1.36h0c0,.76-.61,1.37-1.36,1.37h0c-.75,0-1.36-.61-1.36-1.36h0c0-.76,.61-1.37,1.36-1.37Z"/><path class="cls-1" d="M77.28,54.04h0c.75,0,1.36,.61,1.36,1.36h0c0,.76-.61,1.37-1.36,1.37h0c-.75,0-1.36-.61-1.36-1.36h0c0-.76,.61-1.37,1.36-1.37Z"/><path class="cls-1" d="M77.28,48.58h0c.75,0,1.36,.61,1.36,1.36h0c0,.76-.61,1.37-1.36,1.37h0c-.75,0-1.36-.61-1.36-1.36h0c0-.76,.61-1.37,1.36-1.37Z"/><path class="cls-1" d="M77.28,75.91h0c.75,0,1.36,.61,1.36,1.36h0c0,.76-.61,1.37-1.36,1.37h0c-.75,0-1.36-.61-1.36-1.36h0c0-.76,.61-1.37,1.36-1.37Z"/><path class="cls-1" d="M77.28,70.44h0c.75,0,1.36,.61,1.36,1.36h0c0,.76-.61,1.37-1.36,1.37h0c-.75,0-1.36-.61-1.36-1.36h0c0-.76,.61-1.37,1.36-1.37Z"/><path class="cls-1" d="M3.47,23.97h0c.75,0,1.36,.61,1.36,1.36h0c0,.76-.61,1.37-1.36,1.37h0c-.75,0-1.36-.61-1.36-1.36h0c0-.76,.61-1.37,1.36-1.37Z"/><path class="cls-1" d="M3.47,29.44h0c.75,0,1.36,.61,1.36,1.36h0c0,.76-.61,1.37-1.36,1.37h0c-.75,0-1.36-.61-1.36-1.36h0c0-.76,.61-1.37,1.36-1.37Z"/><path class="cls-1" d="M3.47,34.91h0c.75,0,1.36,.61,1.36,1.36h0c0,.76-.61,1.37-1.36,1.37h0c-.75,0-1.36-.61-1.36-1.36h0c0-.76,.61-1.37,1.36-1.37Z"/><path class="cls-1" d="M3.47,18.51h0c.75,0,1.36,.61,1.36,1.36h0c0,.76-.61,1.37-1.36,1.37h0c-.75,0-1.36-.61-1.36-1.36h0c0-.76,.61-1.37,1.36-1.37Z"/><path class="cls-1" d="M25.34,2.11h0c.75,0,1.36,.61,1.36,1.36h0c0,.76-.61,1.37-1.36,1.37h0c-.75,0-1.36-.61-1.36-1.36h0c0-.76,.61-1.37,1.36-1.37Z"/><path class="cls-1" d="M30.81,2.11h0c.75,0,1.36,.61,1.36,1.36h0c0,.76-.61,1.37-1.36,1.37h0c-.75,0-1.36-.61-1.36-1.36h0c0-.76,.61-1.37,1.36-1.37Z"/><path class="cls-1" d="M36.27,2.11h0c.75,0,1.36,.61,1.36,1.36h0c0,.76-.61,1.37-1.36,1.37h0c-.75,0-1.36-.61-1.36-1.36h0c0-.76,.61-1.37,1.36-1.37Z"/><path class="cls-1" d="M71.81,75.91h0c.75,0,1.36,.61,1.36,1.36h0c0,.76-.61,1.37-1.36,1.37h0c-.75,0-1.36-.61-1.36-1.36h0c0-.76,.61-1.37,1.36-1.37Z"/><path class="cls-1" d="M77.28,43.11h0c.75,0,1.36,.61,1.36,1.36h0c0,.76-.61,1.37-1.36,1.37h0c-.75,0-1.36-.61-1.36-1.36h0c0-.76,.61-1.37,1.36-1.37Z"/><path class="cls-1" d="M77.28,37.64h0c.75,0,1.36,.61,1.36,1.36h0c0,.76-.61,1.37-1.36,1.37h0c-.75,0-1.36-.61-1.36-1.36h0c0-.76,.61-1.37,1.36-1.37Z"/><path class="cls-1" d="M3.47,13.04h0c.75,0,1.36,.61,1.36,1.36h0c0,.76-.61,1.37-1.36,1.37h0c-.75,0-1.36-.61-1.36-1.36h0c0-.76,.61-1.37,1.36-1.37Z"/><path class="cls-1" d="M3.47,7.57h0c.75,0,1.36,.61,1.36,1.36h0c0,.76-.61,1.37-1.36,1.37h0c-.75,0-1.36-.61-1.36-1.36h0c0-.76,.61-1.37,1.36-1.37Z"/><path class="cls-1" d="M19.87,2.11h0c.75,0,1.36,.61,1.36,1.36h0c0,.76-.61,1.37-1.36,1.37h0c-.75,0-1.36-.61-1.36-1.36h0c0-.76,.61-1.37,1.36-1.37Z"/><path class="cls-1" d="M14.41,2.11h0c.75,0,1.36,.61,1.36,1.36h0c0,.76-.61,1.37-1.36,1.37h0c-.75,0-1.36-.61-1.36-1.36h0c0-.76,.61-1.37,1.36-1.37Z"/><path class="cls-1" d="M8.94,2.11h0c.75,0,1.36,.61,1.36,1.36h0c0,.76-.61,1.37-1.36,1.37h0c-.75,0-1.36-.61-1.36-1.36h0c0-.76,.61-1.37,1.36-1.37Z"/><path class="cls-1" d="M3.47,2.11h0c.75,0,1.36,.61,1.36,1.36h0c0,.76-.61,1.37-1.36,1.37h0c-.75,0-1.36-.61-1.36-1.36h0c0-.76,.61-1.37,1.36-1.37Z"/><path class="cls-1" d="M41.74,2.11h0c.75,0,1.36,.61,1.36,1.36h0c0,.76-.61,1.37-1.36,1.37h0c-.75,0-1.36-.61-1.36-1.36h0c0-.76,.61-1.37,1.36-1.37Z"/><path class="cls-1" d="M44.48,34.28c-.26,0-.5-.14-.64-.36-.13-.22-.14-.5-.01-.73L61.59,.39c.13-.25,.42-.33,.65-.33s.52,.09,.65,.33l17.77,32.8c.12,.23,.12,.51-.01,.73-.13,.22-.38,.36-.63,.36H44.48Zm1.24-1.48h33.05L62.24,2.29l-16.53,30.51Z"/><rect class="cls-1" x="61.5" y="12.3" width="1.48" height="9.68"/><rect class="cls-1" x="61.5" y="25.97" width="1.48" height="1.48"/><path class="cls-1" d="M21.24,71.18c-6.44,0-11.67-5.24-11.67-11.67s5.24-11.67,11.67-11.67,11.67,5.24,11.67,11.67-5.24,11.67-11.67,11.67Zm0-21.87c-5.62,0-10.19,4.57-10.19,10.19s4.57,10.19,10.19,10.19,10.19-4.57,10.19-10.19-4.57-10.19-10.19-10.19Z"/><path class="cls-1" d="M17.82,80.75c-.32,0-.6-.2-.7-.51l-1.37-4.14-2.35-.98-3.69,1.75c-.1,.05-.21,.07-.32,.07h0c-.15,0-.3-.05-.43-.14-1.95-1.38-3.63-3.07-5.02-5.02-.15-.22-.18-.5-.06-.75l1.75-3.69-.98-2.35-4.14-1.37c-.3-.1-.51-.38-.51-.7v-6.85c0-.32,.2-.6,.5-.7l4.14-1.37,.98-2.35-1.75-3.69c-.12-.24-.09-.53,.06-.75,1.39-1.95,3.07-3.64,5.02-5.02,.13-.09,.27-.14,.43-.14,.11,0,.22,.02,.32,.07l3.69,1.75,2.35-.98,1.37-4.14c.1-.3,.38-.51,.7-.51h6.85c.32,0,.6,.2,.7,.5l1.36,4.1,.29,.1c.61,.21,1.23,.47,1.84,.77l.27,.13,3.65-1.73c.1-.05,.21-.07,.32-.07,.15,0,.3,.05,.43,.14,1.95,1.38,3.64,3.07,5.02,5.02,.15,.22,.18,.5,.06,.75l-1.73,3.65,.13,.27c.29,.6,.55,1.22,.77,1.84l.1,.29,4.1,1.36c.3,.1,.51,.38,.51,.7v6.85c0,.32-.2,.6-.51,.7l-4.1,1.36-.1,.29c-.21,.61-.47,1.23-.77,1.84l-.13,.27,1.73,3.65c.12,.24,.09,.53-.06,.75-1.38,1.95-3.07,3.64-5.02,5.02-.13,.09-.27,.14-.43,.14-.11,0-.22-.02-.32-.07l-3.66-1.73-.27,.13c-.59,.29-1.21,.55-1.84,.77l-.29,.1-1.36,4.1c-.1,.3-.38,.51-.7,.51h-6.85Zm-4.45-7.17c.1,0,.19,.02,.29,.06l2.97,1.23c.2,.08,.35,.25,.42,.45l1.31,3.95h5.78l1.31-3.95c.08-.23,.26-.4,.49-.47,.97-.3,1.93-.69,2.84-1.18,.11-.06,.23-.09,.35-.09,.11,0,.22,.02,.32,.07l3.59,1.71,.3-.24c1.32-1.02,2.5-2.21,3.53-3.53l.24-.3-1.71-3.59c-.1-.21-.09-.46,.02-.66,.49-.91,.88-1.87,1.18-2.84,.07-.23,.25-.41,.47-.48l3.95-1.31v-5.78l-3.95-1.31c-.23-.07-.4-.26-.48-.49-.3-.97-.69-1.92-1.18-2.84-.11-.21-.12-.45-.02-.66l1.71-3.6-.24-.3c-1.03-1.32-2.21-2.51-3.53-3.53l-.3-.24-3.59,1.71c-.1,.05-.21,.07-.32,.07-.12,0-.24-.03-.35-.09-.91-.49-1.87-.88-2.84-1.18-.23-.07-.41-.25-.48-.47l-1.31-3.95h-5.78l-1.31,3.96c-.07,.2-.22,.37-.42,.45l-2.97,1.23c-.09,.04-.19,.06-.28,.06-.11,0-.22-.02-.32-.07l-3.59-1.71-.3,.24c-1.32,1.02-2.51,2.21-3.53,3.53l-.24,.3,1.71,3.59c.09,.19,.1,.41,.01,.6l-1.23,2.97c-.08,.2-.25,.35-.45,.42l-3.95,1.31v5.78l3.95,1.31c.2,.07,.37,.22,.45,.42l1.23,2.97c.08,.19,.08,.41-.01,.6l-1.71,3.6,.24,.3c1.03,1.32,2.21,2.51,3.53,3.52l.3,.24,3.6-1.71c.1-.05,.21-.07,.31-.07Z"/><path class="cls-1" d="M22.54,65.71c-.32-.03-.57-.26-.65-.56l-2.25-8.99-1.84,3.68c-.13,.25-.38,.41-.66,.41h-2.11v-1.48h1.65l2.53-5.06c.12-.25,.39-.41,.67-.41,.03,0,.05,0,.08,0,.3,.03,.56,.26,.63,.56l2.25,8.99,1.84-3.68c.13-.25,.38-.41,.66-.41h2.11v1.48h-1.65l-2.53,5.06c-.13,.25-.38,.41-.66,.41-.02,0-.04,0-.07,0Z"/><path class="cls-1" d="M47.21,80.75c-1.92,0-3.47-1.56-3.47-3.47s1.56-3.47,3.47-3.47,3.47,1.56,3.47,3.47-1.56,3.47-3.47,3.47Zm0-5.47c-1.1,0-1.99,.89-1.99,1.99s.89,1.99,1.99,1.99,1.99-.89,1.99-1.99-.89-1.99-1.99-1.99Z"/><path class="cls-1" d="M49.94,6.95c-1.92,0-3.47-1.56-3.47-3.47s1.56-3.47,3.47-3.47,3.47,1.56,3.47,3.47-1.56,3.47-3.47,3.47Zm0-5.47c-1.1,0-1.99,.89-1.99,1.99s.89,1.99,1.99,1.99,1.99-.89,1.99-1.99-.89-1.99-1.99-1.99Z"/></g></g></svg>