<?xml version="1.0" encoding="UTF-8"?><svg id="Layer_2" xmlns="http://www.w3.org/2000/svg" viewBox="0 0 86 83.59"><defs><style>.cls-1{fill:#6cace3;}</style></defs><g id="work"><g><path class="cls-1" d="M86,82.87v-.42c-.4-7.21-1.31-23.94-10.3-26.3-3.79-.99-8.65-2.66-12.91-4.23-2.29-3.18-5.61-5.47-9.39-6.49v-4.09c1.49-2.5,2.44-5.28,2.79-8.17,.08,.03,.17,.05,.26,.05,2.35,.04,4.26-2.36,4.26-5.29,0-4.49-2.16-5.16-3.41-5.16-.32,0-.65,.04-.96,.12v-2.35l1.08-9.63c.25-2.03-.42-4.07-1.84-5.55C50.35,0,43.68,0,39.26,0s-5.76,1.92-6.21,2.94c-2.12,0-4.15,.87-5.6,2.42-2.85,2.85-.03,13.62,.4,15.24v2.09c-.12-.04-.25-.07-.38-.09h-.12c-2.17,0-3.47,1.96-3.47,5.25,0,2.85,1.85,5.17,4.15,5.24,.43,3.35,1.69,6.54,3.64,9.29,0,.02,0,.04,0,.06v4.03c-3.46,.92-6.56,2.88-8.86,5.63-4.03,1.48-8.7,3.06-12.52,4.05C1.25,58.53,.41,73.78,0,81.12v.24c-.02,.38,.26,.7,.64,.72,0,0,0,0,0,0h.04c.38,0,.68-.3,.68-.68v-.24c.35-6.46,1.19-21.6,9.32-23.72,3.28-.86,7.2-2.15,10.82-3.41-1.57,2.8-2.39,5.96-2.38,9.17-3.86,.36-6.52,4.98-6.52,11.5,0,.38,.3,.68,.68,.68h3.49c.38,0,.68-.3,.68-.68s-.3-.68-.68-.68h-2.8c.18-5.54,2.49-9.5,5.63-9.5s5.78,4.09,5.98,9.5h-2.5c-.38,0-.68,.3-.68,.68s.3,.68,.68,.68h3.19c.38,0,.68-.3,.68-.68,0-6.13-2.72-10.82-6.49-11.46,.09-4.45,1.36-7.66,3.11-9.95,3.57-1.3,6.61-2.49,8.08-3.07v.75c0,.62,.06,1.24,.17,1.85v.04l2.57,28.61c.03,.35,.33,.62,.68,.62h.06c.37-.03,.65-.36,.62-.74l-2.18-24.28c3.45,4.93,10.25,6.13,15.18,2.67,1.07-.75,2-1.69,2.74-2.77l-1.93,24.39c-.03,.37,.25,.7,.63,.73h.05c.36,0,.65-.27,.68-.63l2.26-28.61c.11-.6,.17-1.21,.18-1.82,0-.01,0-.03,0-.04v-1.23c1.53,.62,4.77,1.91,8.56,3.31,1.69,2.74,2.56,5.91,2.53,9.13-2.13,.38-3.56,2.41-3.18,4.55,.38,2.13,2.41,3.56,4.55,3.18,2.13-.38,3.56-2.41,3.18-4.55-.29-1.62-1.56-2.9-3.18-3.18,0-2.91-.66-5.78-1.94-8.39,3.88,1.4,8.08,2.82,11.45,3.7,8.05,2.1,8.94,18.13,9.31,24.99v.42c0,.38,.3,.68,.68,.68h.04c.38-.02,.66-.34,.64-.72,0,0,0,0,0,0ZM31.66,48.77c-.92,.35-3.14,1.24-6.01,2.31,1.75-1.49,3.8-2.58,6.01-3.19v.88h0ZM28.41,6.34c1.16-1.26,2.77-1.99,4.48-2.04,.17,0,.35,0,.52,.03,.18,.03,.37,0,.52-.12,.15-.11,.25-.27,.28-.45,0,0,.44-2.4,5.06-2.4,4.18,0,10.51,0,15.34,4.96,1.13,1.19,1.67,2.82,1.46,4.45l-.8,7.1c-1.93-3.11-7.26-7.96-21.74-7.96-.26,0-.49,.15-.61,.37l-4.17,8.31c-1.06-4.54-1.89-10.72-.33-12.26Zm23.6,42.42v2.1c-.01,5.24-4.26,9.49-9.5,9.51-5.15,.08-9.4-4.03-9.48-9.18,0-.07,0-.14,0-.21v-6.94c2.5,2.72,5.69,4.39,9.07,4.39,3.86,0,7.35-1.95,9.92-5.12v5.45Zm-9.88-1.72c-7.37,0-12.88-8.86-12.88-16.71-.01-.38-.33-.67-.71-.65h0c-.38,.01-.68,.32-.68,.69,0,.46,0,.93,.05,1.36-1.48-.16-2.66-1.84-2.66-3.87,0-1.16,.2-3.83,2.04-3.89,.19,.04,.38,.1,.56,.18v3.3c0,.38,.3,.68,.68,.68s.68-.3,.68-.68v-6.81l4.77-9.39c10.02,.07,15.21,2.6,17.81,4.71,2.6,2.12,3.15,4.28,3.22,4.58v6.91c0,.38,.3,.68,.68,.68s.68-.3,.68-.68v-2.99s.01-.08,.04-.1c.27-.16,.58-.24,.89-.22,1.73,0,2.09,2.04,2.09,3.8,0,2.19-1.32,3.96-2.95,3.96-.05,0-.09,0-.14,0,0-.52,.05-1.05,.05-1.58,0-.38-.3-.68-.68-.68s-.68,.3-.68,.68c0,9.21-5.78,16.71-12.88,16.71Zm11.25,1.26h.03v-1.46c2.66,.74,5.06,2.19,6.97,4.18-3.35-1.26-6.01-2.32-7-2.72Zm11.79,15.17c1.41,.01,2.54,1.16,2.55,2.57h.03c0,1.42-1.15,2.58-2.57,2.58-1.42,0-2.58-1.15-2.58-2.57,0-1.42,1.15-2.58,2.57-2.58h0Z"/><path class="cls-1" d="M70.32,77.86h-9.6c-.38,0-.68,.3-.68,.68s.3,.68,.68,.68h9.6c.38,0,.68-.3,.68-.68,0-.38-.3-.68-.68-.68Z"/></g></g></svg>