<?xml version="1.0" encoding="UTF-8"?><svg id="Layer_2" xmlns="http://www.w3.org/2000/svg" viewBox="0 0 82 82"><defs><style>.cls-1{fill:#6cace3;}</style></defs><g id="work"><g><path class="cls-1" d="M18.81,82v-1.41h5.37v-6.65H6.08c-3.35,0-6.08-2.73-6.08-6.08V24.88c0-3.35,2.73-6.08,6.08-6.08h6.08v1.41H6.08c-2.57,0-4.67,2.1-4.67,4.67V61.79H80.59V24.88c0-2.58-2.09-4.67-4.67-4.67h-6.08v-1.41h6.08c3.35,0,6.08,2.73,6.08,6.08v42.98c0,3.35-2.73,6.08-6.08,6.08h-18.1v6.65h5.37v1.41H18.81Zm6.78-1.41h30.83v-6.65H25.58v6.65ZM1.41,67.86c0,2.58,2.09,4.67,4.67,4.67H75.92c2.57,0,4.67-2.1,4.67-4.67v-4.67H1.41v4.67Z"/><rect class="cls-1" x="64.47" y="67.16" width="1.41" height="1.41"/><rect class="cls-1" x="69.85" y="67.16" width="1.41" height="1.41"/><rect class="cls-1" x="75.22" y="67.16" width="1.41" height="1.41"/><rect class="cls-1" x="59.1" y="56.42" width="17.52" height="1.41"/><rect class="cls-1" x="59.1" y="51.04" width="17.52" height="1.41"/><rect class="cls-1" x="61.79" y="45.67" width="14.84" height="1.41"/><rect class="cls-1" x="67.16" y="40.3" width="9.47" height="1.41"/><path class="cls-1" d="M5.37,57.82V24.18h10.75v-3.87l4.87-1.25,.11-.34c.38-1.23,.87-2.42,1.47-3.55l.17-.32-2.56-4.33,6.47-6.47,4.32,2.56,.32-.16c1.12-.59,2.32-1.09,3.55-1.47l.34-.11,1.25-4.87h9.15l1.25,4.88,.34,.11c1.24,.38,2.43,.88,3.55,1.47l.32,.17,4.32-2.56,6.47,6.47-2.56,4.33,.17,.32c.59,1.12,1.09,2.32,1.47,3.55l.11,.34,4.87,1.25v9.15l-4.87,1.25-.11,.34c-.38,1.23-.87,2.43-1.47,3.55l-.17,.32,2.56,4.33-6.47,6.47-4.32-2.56-.32,.16c-1.13,.59-2.32,1.09-3.55,1.47l-.34,.11-1.25,4.87h-9.15l-1.25-4.87-.34-.11c-.95-.29-1.91-.68-2.96-1.19l-.92-.45v14.68H5.37Zm1.41-1.41H29.55v-12.43l-2.91,1.72-6.47-6.47,2.56-4.33-.17-.32c-.59-1.12-1.09-2.32-1.47-3.55l-.11-.34-4.87-1.25v-3.87H6.78v30.83Zm30.74-8.06h6.97l1.18-4.61,.4-.11c1.63-.44,3.18-1.08,4.62-1.91l.36-.21,4.09,2.42,4.93-4.93-2.43-4.09,.21-.36c.83-1.44,1.47-3,1.91-4.63l.11-.4,4.61-1.18v-6.97l-4.61-1.18-.11-.4c-.44-1.63-1.08-3.19-1.91-4.63l-.21-.36,2.42-4.09-4.93-4.93-4.09,2.42-.36-.21c-1.44-.83-3-1.47-4.63-1.91l-.4-.11-1.18-4.61h-6.97l-1.18,4.61-.4,.11c-1.63,.44-3.19,1.08-4.63,1.91l-.36,.2-4.09-2.42-4.93,4.93,2.43,4.09-.2,.36c-.83,1.44-1.47,3-1.91,4.63l-.11,.4-4.61,1.18v6.97l4.61,1.18,.11,.4c.44,1.63,1.08,3.19,1.91,4.63l.21,.36-2.43,4.09,4.93,4.93,4.09-2.42,.36,.21c1.44,.83,3,1.47,4.63,1.91l.4,.11,1.18,4.61Z"/><path class="cls-1" d="M41,40.36c-8.54,0-15.48-6.94-15.48-15.48s6.94-15.48,15.48-15.48,15.48,6.94,15.48,15.48-6.94,15.48-15.48,15.48Zm0-29.55c-7.76,0-14.07,6.31-14.07,14.07s6.31,14.07,14.07,14.07,14.07-6.31,14.07-14.07-6.31-14.07-14.07-14.07Z"/><path class="cls-1" d="M41,34.99c-5.57,0-10.11-4.53-10.11-10.11s4.53-10.11,10.11-10.11,10.11,4.53,10.11,10.11-4.53,10.11-10.11,10.11Zm0-18.8c-4.8,0-8.7,3.9-8.7,8.7s3.9,8.7,8.7,8.7,8.7-3.9,8.7-8.7-3.9-8.7-8.7-8.7Z"/><rect class="cls-1" x="37.61" y="24.18" width="1.41" height="1.41"/><rect class="cls-1" x="42.98" y="24.18" width="1.41" height="1.41"/><rect class="cls-1" x="10.75" y="29.55" width="1.41" height="1.41"/><rect class="cls-1" x="10.75" y="34.92" width="4.09" height="1.41"/><rect class="cls-1" x="10.75" y="40.3" width="4.09" height="1.41"/><rect class="cls-1" x="10.75" y="45.67" width="9.47" height="1.41"/><rect class="cls-1" x="10.75" y="51.04" width="14.84" height="1.41"/></g></g></svg>