<?xml version="1.0" encoding="UTF-8"?><svg id="Layer_2" xmlns="http://www.w3.org/2000/svg" viewBox="0 0 98.34 82"><defs><style>.cls-1{fill:#6cace3;}</style></defs><g id="work"><g><path class="cls-1" d="M77,22.38s0,0,0,0c-.72-2.63-3.03-4.5-5.75-4.67-.26,.01-.51,.04-.76,.09l1.32-2.06c.15-.25,.15-.57,0-.82-.14-.26-.41-.43-.71-.44-.24,0-2.47,0-6.15,3.29-6.72,6.04-14.02,1.5-14.32,1.3-.37-.22-.86-.11-1.1,.25-.24,.38-.13,.89,.25,1.13,.08,.06,8.65,5.43,16.3-1.45,.94-.87,1.98-1.62,3.11-2.24l-1.16,1.85c-.25,.38-.14,.89,.24,1.14,.2,.13,.45,.17,.68,.1,.76-.23,1.54-.41,2.33-.52,1.94,.19,3.57,1.54,4.11,3.41,.09,.38,.43,.64,.82,.63,.06,0,.13,0,.19,0,.44-.1,.71-.55,.61-.99Z"/><path class="cls-1" d="M59.13,29.56c-.74-.52-1.64-.79-2.55-.76-.91-.03-1.81,.23-2.56,.76-.38,.25-.48,.76-.23,1.14,.25,.38,.76,.48,1.14,.23,.03-.02,.07-.05,.1-.08,.46-.29,1-.43,1.54-.4,.54-.03,1.08,.11,1.54,.4,.36,.28,.87,.22,1.15-.13,0,0,0,0,0,0,.28-.36,.21-.87-.15-1.15Z"/><path class="cls-1" d="M71.69,29.64s-.06-.05-.1-.08c-.75-.52-1.64-.79-2.56-.76-.91-.03-1.8,.23-2.55,.76-.36,.28-.42,.79-.15,1.15,.28,.36,.8,.42,1.15,.14,0,0,0,0,0,0,.46-.29,.99-.43,1.54-.4,.54-.03,1.08,.11,1.54,.4,.34,.31,.86,.28,1.16-.05s.28-.86-.05-1.16Z"/><path class="cls-1" d="M41.73,20.89h-14.43c-.45,0-.82,.37-.82,.82s.37,.82,.82,.82h14.43c.45,0,.82-.37,.82-.82s-.37-.82-.82-.82Z"/><path class="cls-1" d="M41.73,26.27h-14.43c-.45,0-.82,.37-.82,.82s.37,.82,.82,.82h14.43c.45,0,.82-.37,.82-.82s-.37-.82-.82-.82Z"/><path class="cls-1" d="M93.7,62.15l-15.81-6.57-3.29-5.61v-.05s-.06-.05-.09-.07c-.03-.04-.07-.08-.12-.11-.05-.03-.1-.05-.15-.07l-.14-.05h-.33c-.05,.01-.11,.03-.16,.05h-.11l-10.5,7.89-10.43-7.83h-.11s-.1-.05-.16-.06h-.31l-.15,.06s-.1,.04-.14,.07c-.04,.03-.09,.07-.12,.11-.03,.02-.06,.05-.08,.07v.05l-3.29,5.59-5.75,2.36c-.15-.18-.38-.29-.62-.29h-14.56c-.45,0-.82,.37-.82,.82s.37,.82,.82,.82h11.78l-6.39,2.57-.12,.07c-.49,.31-.95,.65-1.38,1.04h-3.89c-.45,0-.82,.37-.82,.82s.37,.82,.82,.82h2.47c-1.12,1.59-1.71,3.49-1.71,5.43v5.17H1.6V12.83H11.95c.45,0,.82-.37,.82-.82V1.65H52.94V6.42c0,.18,.07,.35,.18,.49-5.12,3.72-8.1,9.72-7.97,16.05,0,2.03,.27,4.04,.82,5.99-2.43,2.05-2.74,5.68-.7,8.11,.63,.74,1.43,1.32,2.34,1.67,2.66,7.54,8.58,12.39,15.17,12.39s12.52-4.85,15.19-12.39c2.97-1.14,4.45-4.47,3.31-7.43-.35-.91-.92-1.71-1.67-2.34,.55-1.95,.83-3.97,.82-5.99,0-10.68-7.74-19.08-17.64-19.08-2.88,0-5.71,.72-8.22,2.12V.83c0-.45-.37-.82-.82-.82H11.9c-.07-.01-.14-.01-.21,0h-.08c-.09,.04-.16,.1-.23,.16L.2,11.41c-.06,.07-.12,.15-.16,.24v.07c-.02,.07-.04,.15-.04,.22V76.04c0,.44,.34,.82,.78,.84H28.05v4.27c0,.45,.37,.82,.82,.82s.82-.37,.82-.82v-11.09c0-2.72,1.39-5.24,3.69-6.69l14.79-6.07,8.06,8.79c.16,.17,.38,.26,.61,.26,.23,0,.45-.1,.61-.28l1.68-1.9v16.98c0,.45,.37,.82,.82,.82s.82-.37,.82-.82v-18.79l2.24-2.52,2.24,2.52v18.82c0,.45,.37,.82,.82,.82s.82-.37,.82-.82v-16.99l1.64,1.89c.15,.18,.37,.28,.61,.28,.23,0,.44-.1,.6-.26l8.14-8.77,15.12,6.34c3.21,1.64,3.68,4.93,3.68,6.7v10.79c0,.45,.37,.82,.82,.82s.82-.37,.82-.82v-10.79c0-3.76-1.64-6.66-4.63-8.22ZM62.82,5.52c8.97,0,15.96,7.66,15.96,17.44,.02,2.05-.28,4.1-.89,6.06-.11,.35,.03,.73,.33,.93,1.13,.77,1.8,2.05,1.8,3.41,.02,1.8-1.15,3.4-2.88,3.92-.26,.07-.47,.27-.56,.53-2.37,7.09-7.77,11.67-13.77,11.67s-11.38-4.58-13.76-11.67c-.09-.26-.3-.45-.56-.53-1.73-.52-2.91-2.12-2.88-3.92,0-1.37,.67-2.64,1.8-3.41,.3-.2,.44-.58,.33-.93-.61-1.96-.92-4-.92-6.06,0-9.78,7.03-17.44,15.99-17.44ZM11.13,2.82V11.19H2.76L11.13,2.82Zm45.7,61.49l-7.28-7.94,2.79-4.78,9.47,7.1-4.98,5.62Zm12.38,0l-4.98-5.62,9.47-7.1,2.79,4.78-7.28,7.94Z"/><path class="cls-1" d="M21.19,22.2c-.1-.3-.36-.51-.67-.56l-4.05-.59-1.82-3.67c-.2-.41-.69-.58-1.1-.38-.17,.08-.3,.21-.38,.38l-1.82,3.67-4.05,.59c-.31,.04-.57,.26-.67,.56-.09,.29,0,.61,.21,.82l2.94,2.86-.7,4.04c-.06,.31,.07,.64,.33,.82,.24,.16,.56,.19,.82,.06l3.63-1.91,3.63,1.91c.12,.07,.25,.1,.38,.1,.17,0,.34-.05,.48-.16,.26-.19,.39-.51,.33-.82l-.7-4.04,2.94-2.86c.23-.21,.33-.52,.25-.82Zm-4.6,2.83c-.2,.19-.28,.46-.24,.73l.48,2.83-2.54-1.34c-.12-.06-.25-.09-.38-.09-.13,0-.27,.03-.39,.09l-2.5,1.34,.48-2.83c.05-.27-.04-.54-.24-.73l-2.05-2,2.84-.41c.27-.04,.5-.21,.62-.45l1.27-2.54,1.27,2.57c.12,.25,.35,.41,.62,.45l2.84,.41-2.09,1.96Z"/><path class="cls-1" d="M41.73,39.25h-14.43c-.45,0-.82,.37-.82,.82s.37,.82,.82,.82h14.43c.45,0,.82-.37,.82-.82s-.37-.82-.82-.82Z"/><path class="cls-1" d="M41.73,44.62h-14.43c-.45,0-.82,.37-.82,.82s.37,.82,.82,.82h14.43c.45,0,.82-.37,.82-.82s-.37-.82-.82-.82Z"/><path class="cls-1" d="M21.19,40.56c-.1-.3-.36-.51-.67-.56l-4.05-.59-1.78-3.67c-.2-.41-.69-.58-1.1-.38-.17,.08-.3,.21-.38,.38l-1.82,3.67-4.05,.59c-.45,.06-.76,.48-.7,.93,.02,.18,.11,.35,.24,.48l2.94,2.88-.7,4.04c-.06,.31,.07,.64,.33,.82,.24,.16,.56,.19,.82,.06l3.63-1.91,3.67,1.91c.12,.07,.25,.1,.38,.1,.17,0,.34-.05,.48-.16,.26-.19,.39-.51,.33-.82l-.7-4.05,2.94-2.86c.22-.23,.29-.57,.17-.86Zm-4.6,2.84c-.19,.19-.28,.46-.24,.72l.48,2.83-2.54-1.33c-.12-.07-.25-.1-.38-.1-.13,0-.27,.03-.39,.1l-2.53,1.33,.48-2.83c.04-.27-.05-.54-.24-.72l-2.05-2.01,2.84-.41c.27-.04,.5-.21,.62-.45l1.27-2.57,1.27,2.57c.12,.25,.35,.41,.62,.45l2.84,.41-2.05,2.01Z"/><path class="cls-1" d="M21.19,58.92c-.1-.3-.36-.51-.67-.56l-4.05-.58-1.82-3.68c-.2-.41-.69-.58-1.1-.38-.17,.08-.3,.21-.38,.38l-1.82,3.68-4.05,.58c-.45,.06-.76,.48-.7,.93,.02,.18,.11,.35,.24,.48l2.94,2.86-.7,4.04c-.06,.31,.07,.64,.33,.82,.24,.17,.56,.19,.82,.07l3.71-1.91,3.63,1.91c.12,.06,.25,.09,.38,.09,.17,0,.34-.05,.48-.16,.26-.19,.39-.51,.33-.82l-.7-4.04,2.94-2.86c.22-.23,.28-.56,.17-.85Zm-4.6,2.84c-.19,.19-.28,.46-.24,.72l.48,2.83-2.51-1.3c-.12-.07-.25-.1-.38-.1-.13,0-.27,.03-.39,.1l-2.53,1.33,.48-2.83c.04-.27-.05-.54-.24-.72l-2.05-2.01,2.84-.41c.27-.04,.5-.21,.62-.45l1.27-2.57,1.27,2.57c.12,.25,.35,.41,.62,.45l2.84,.41-2.09,1.97Z"/></g></g></svg>