<?xml version="1.0" encoding="UTF-8"?><svg id="Layer_2" xmlns="http://www.w3.org/2000/svg" viewBox="0 0 80.68 83.51"><defs><style>.cls-1{fill:#6cace3;}</style></defs><g id="work"><g><path class="cls-1" d="M4.41,83.51c-2.43,0-4.41-1.98-4.41-4.41V12.15c0-2.43,1.98-4.41,4.41-4.41h7.21l.07-.49c.18-1.3,1.31-2.28,2.63-2.28h11.92V2.65c0-1.46,1.19-2.65,2.66-2.65h1.58c1.46,0,2.66,1.19,2.66,2.65v2.31h11.92c1.31,0,2.44,.98,2.63,2.28l.07,.49h7.21c2.43,0,4.41,1.98,4.41,4.41v10.16c0,.37-.3,.67-.67,.67s-.67-.3-.67-.67V12.14c0-1.69-1.38-3.07-3.07-3.07h-7.2l-.07,.49c-.18,1.3-1.31,2.28-2.63,2.28h-6.08v3.41h13.54c1.04,0,1.89,.85,1.89,1.89V50.92l3.24-5.6-.17-.29c-.65-1.09-.13-1.95,.33-2.7l.23-.38v-13.86c0-.37,.3-.67,.67-.67s.67,.3,.67,.67v11.53l8.68-15.04c.83-1.43,2.23-2.4,3.86-2.68l.26-.04,.15-.23,1.3-2.25c.58-1.01,1.68-1.64,2.85-1.64,.57,0,1.14,.15,1.64,.44,1.57,.91,2.11,2.92,1.2,4.49l-1.43,2.48,.09,.25c.45,1.19,.47,2.5,.07,3.69l-.13,.4,.34,.24c2.21,1.61,3.05,4.11,1.99,5.95l-7.49,12.97c-.12,.21-.34,.34-.58,.34-.12,0-.23-.03-.34-.09-.15-.09-.27-.23-.31-.41-.05-.17-.02-.35,.07-.51l7.49-12.97c.65-1.12,.12-2.73-1.28-3.93l-.52-.45-10.27,17.8c-.37,.64-1.06,1.04-1.8,1.04h-.33l-.2,.28-5.3,9.18v20.15c0,2.43-1.98,4.41-4.41,4.41H4.41ZM4.41,9.07c-1.69,0-3.07,1.38-3.07,3.07V79.09c0,1.69,1.38,3.07,3.07,3.07H54.95c1.69,0,3.07-1.38,3.07-3.07v-17.82l-3.56,6.16-.06,.24v8.98c0,1.04-.85,1.89-1.89,1.89h-19.94c-.37,0-.67-.3-.67-.67s.3-.67,.67-.67h20.48v-9.24l-5.69,5.82c-.25,.25-.54,.38-.86,.38-.39,0-.77-.2-1.01-.51-.16-.21-.33-.57-.19-1.06l2.14-7.64-.11-.2c-.28-.51-.28-1.11,0-1.61l5.71-9.9V16.6h-14.09v1.51c0,1.4-1.14,2.54-2.54,2.54h-13.49c-1.4,0-2.54-1.14-2.54-2.54v-1.51H6.3v60.61H26.79c.37,0,.67,.3,.67,.67s-.3,.67-.67,.67H6.85c-1.04,0-1.89-.85-1.89-1.89V17.15c0-1.04,.85-1.89,1.89-1.89h13.54v-3.41h-6.08c-1.32,0-2.45-.98-2.63-2.28l-.07-.49H4.41Zm42.91,61.31l.95,.55,3.36-3.44-3.01-1.74-1.3,4.62Zm1.04-6.32l4.87,2.81,10.38-17.98-4.87-2.81-10.38,17.98Zm23.75-40.83c-1.22,.2-2.29,.94-2.91,2.02l-10.59,18.35c-.2,.35-.1,.76,.27,1l5.92,3.42c.15,.08,.28,.11,.41,.11,.26,0,.49-.14,.62-.36l10.59-18.35c.62-1.08,.73-2.37,.29-3.54-.06-.17-.2-.33-.37-.43l-3.66-2.11c-.13-.07-.29-.12-.44-.12h-.13Zm4.34-4.14c-.69,0-1.34,.37-1.69,.97l-1.27,2.21,3.37,1.94,1.27-2.21c.26-.45,.33-.97,.19-1.47-.13-.5-.46-.92-.91-1.18-.29-.17-.63-.26-.97-.26m-54.72-.97c0,.66,.54,1.2,1.2,1.2h13.49c.66,0,1.2-.54,1.2-1.2v-1.51h-15.88v1.51Zm0-2.85h15.88v-3.41h-15.88v3.41ZM14.32,6.3c-.71,0-1.31,.6-1.31,1.31v1.57c0,.71,.6,1.31,1.31,1.31h30.73c.71,0,1.31-.6,1.31-1.31v-1.57c0-.71-.6-1.31-1.31-1.31H14.32ZM28.89,1.34c-.71,0-1.31,.6-1.31,1.31v2.31h4.2V2.65c0-.71-.6-1.31-1.31-1.31h-1.58Z"/><path class="cls-1" d="M46.17,39.61c-.2,0-.4-.05-.59-.15l-2.61-1.38-2.61,1.38c-.19,.1-.39,.15-.59,.15-.37,0-.74-.18-.99-.47-.24-.29-.34-.65-.27-1.03l.5-2.91-1.38-1.34c-.78-.75-.78-.76-.84-.84l-.45-.56-.45,.56c-.07,.09-.07,.09-.85,.84l-1.38,1.34,.5,2.91c.08,.48-.11,.96-.51,1.25-.22,.16-.48,.25-.75,.25-.2,0-.41-.05-.6-.15l-2.61-1.38-2.61,1.38c-.19,.1-.39,.15-.59,.15-.37,0-.74-.18-.99-.47-.24-.29-.34-.65-.28-1.03l.5-2.91-1.41-1.37c-.75-.73-.75-.73-.81-.81l-.45-.57-.45,.56s-.07,.09-.11,.13l-2.11,2.06,.5,2.91c.08,.48-.11,.96-.51,1.25-.22,.16-.48,.25-.75,.25-.2,0-.41-.05-.6-.15l-2.61-1.38-2.61,1.38c-.19,.1-.39,.15-.59,.15-.37,0-.74-.18-.99-.47-.24-.29-.34-.66-.28-1.03l.5-2.91-2.11-2.06c-.36-.35-.48-.84-.32-1.31,.15-.47,.54-.8,1.03-.87l2.92-.43,1.31-2.65c.22-.45,.65-.71,1.15-.71s.93,.27,1.15,.71l1.31,2.65,2.92,.43c.33,.05,.62,.22,.82,.48l.45,.57,.45-.57c.2-.26,.5-.43,.82-.48l2.92-.43,1.31-2.65c.22-.45,.65-.71,1.15-.71s.93,.27,1.15,.71l1.31,2.65,2.92,.43c.33,.05,.62,.22,.82,.48l.45,.57,.45-.57c.2-.26,.49-.43,.82-.48l2.92-.43,1.31-2.65c.22-.45,.65-.71,1.15-.71s.92,.27,1.15,.71l1.3,2.65,2.92,.43c.49,.07,.88,.4,1.03,.87,.15,.47,.03,.96-.32,1.31l-2.11,2.06,.5,2.91c.07,.38-.03,.74-.28,1.03-.25,.29-.61,.47-.99,.47m-3.21-2.88c.21,0,.41,.05,.59,.15l2.53,1.33-.48-2.81c-.07-.42,.07-.84,.37-1.13l2.04-1.99-2.82-.41c-.42-.06-.78-.32-.96-.7l-1.26-2.56-1.26,2.56c-.19,.38-.55,.64-.96,.7l-2.83,.41,2.04,1.99c.3,.29,.44,.72,.37,1.13l-.48,2.81,2.52-1.33c.18-.1,.39-.15,.6-.15m-26.56,0c.21,0,.41,.05,.59,.15l2.53,1.33-.48-2.81c-.07-.42,.07-.84,.37-1.13l2.04-1.99-2.82-.41c-.42-.06-.78-.32-.96-.7l-1.26-2.56-1.26,2.56c-.19,.38-.55,.64-.96,.7l-2.83,.41,2.04,1.99c.3,.29,.44,.72,.37,1.13l-.48,2.81,2.53-1.33c.18-.1,.39-.15,.6-.15m12.02-5.57c-.19,.38-.55,.64-.96,.7l-2.82,.41,2.04,1.99c.3,.29,.44,.72,.37,1.13l-.48,2.81,2.53-1.33c.18-.1,.39-.15,.59-.15s.41,.05,.6,.15l2.53,1.33-.48-2.81c-.07-.42,.07-.84,.37-1.13l2.05-1.99-2.83-.41c-.42-.06-.78-.32-.96-.7l-1.26-2.56-1.26,2.56Z"/><path class="cls-1" d="M33.11,51.01c-.37,0-.74-.18-.99-.47-.24-.29-.34-.65-.27-1.03l.5-2.91-1.41-1.38c-.74-.72-.75-.73-.81-.8l-.45-.57-.45,.57s-.07,.09-.11,.13l-2.11,2.06,.5,2.91c.07,.38-.03,.74-.28,1.03-.25,.29-.61,.47-.98,.47-.21,0-.41-.05-.6-.15l-2.61-1.37-2.61,1.37c-.19,.1-.39,.15-.6,.15-.37,0-.74-.18-.99-.47-.24-.29-.34-.65-.28-1.03l.5-2.91-2.11-2.06c-.35-.34-.47-.84-.32-1.31,.15-.47,.55-.8,1.03-.87l2.92-.43,1.31-2.65c.22-.44,.66-.71,1.15-.71s.93,.27,1.15,.71l1.31,2.65,2.92,.43c.33,.05,.62,.22,.82,.48l.45,.57,.45-.57c.2-.26,.49-.43,.82-.48l2.92-.43,1.31-2.65c.22-.44,.66-.71,1.15-.71s.93,.27,1.15,.71l1.31,2.65,2.92,.43c.49,.07,.88,.4,1.03,.87,.15,.47,.03,.96-.32,1.31l-2.11,2.06,.5,2.91c.07,.38-.03,.74-.27,1.03-.25,.29-.61,.47-.99,.47-.2,0-.4-.05-.59-.15l-2.61-1.37-2.61,1.37c-.19,.1-.39,.15-.6,.15m1.95-8.45c-.19,.38-.55,.64-.96,.7l-2.83,.41,2.04,1.99c.3,.29,.44,.72,.37,1.13l-.48,2.81,2.52-1.33c.18-.1,.39-.15,.6-.15s.41,.05,.59,.15l2.53,1.33-.48-2.81c-.07-.42,.07-.84,.37-1.13l2.04-1.99-2.82-.41c-.42-.06-.78-.32-.96-.7l-1.26-2.56-1.26,2.56Zm-13.28,0c-.19,.38-.55,.64-.96,.7l-2.82,.41,2.04,1.99c.3,.29,.44,.72,.37,1.13l-.48,2.81,2.53-1.33c.18-.1,.39-.15,.59-.15s.41,.05,.6,.15l2.53,1.33-.48-2.81c-.07-.42,.07-.84,.37-1.13l2.04-1.99-2.82-.41c-.42-.06-.78-.32-.96-.7l-1.26-2.56-1.26,2.56Z"/><path class="cls-1" d="M16.58,58.69c-.37,0-.67-.3-.67-.67s.3-.67,.67-.67h26.21c.37,0,.67,.3,.67,.67s-.3,.67-.67,.67H16.58Z"/><path class="cls-1" d="M16.58,63.78c-.37,0-.67-.3-.67-.67s.3-.67,.67-.67h26.21c.37,0,.67,.3,.67,.67s-.3,.67-.67,.67H16.58Z"/><path class="cls-1" d="M23.13,68.86c-.37,0-.67-.3-.67-.67s.3-.67,.67-.67h13.1c.37,0,.67,.3,.67,.67s-.3,.67-.67,.67h-13.1Z"/></g></g></svg>