<?xml version="1.0" encoding="UTF-8"?><svg id="Layer_2" xmlns="http://www.w3.org/2000/svg" viewBox="0 0 74.3 85"><defs><style>.cls-1{fill:#6cace3;}</style></defs><g id="work"><g><path class="cls-1" d="M40.29,35.21v-12.45h-6.28v12.45h-2.01v-12.45h-3.14c-2.84,0-5.16-2.31-5.16-5.16s2.31-5.16,5.16-5.16,5.16,2.31,5.16,5.16v3.14h6.28v-3.14c0-2.84,2.31-5.16,5.16-5.16s5.16,2.31,5.16,5.16-2.31,5.16-5.16,5.16h-3.14v12.45h-2.01Zm5.16-20.75c-1.73,0-3.14,1.41-3.14,3.14v3.14h3.14c1.73,0,3.14-1.41,3.14-3.14s-1.41-3.14-3.14-3.14Zm-16.6,0c-1.73,0-3.14,1.41-3.14,3.14s1.41,3.14,3.14,3.14h3.14v-3.14c0-1.73-1.41-3.14-3.14-3.14Z"/><path class="cls-1" d="M25.08,46.27v-5.53h-2.77v-2.01h2.77v-1.96l-.15-.11c-5.1-3.83-8.15-9.92-8.15-16.28C16.78,9.14,25.92,0,37.15,0s20.37,9.14,20.37,20.37c0,6.36-3.05,12.45-8.15,16.28l-.15,.11v1.96h2.77v2.01h-2.77v5.53H25.08Zm2.01-2.01h20.12v-3.52H27.09v3.52Zm0-5.53h20.12v-3l.43-.3c4.93-3.44,7.87-9.06,7.87-15.05,0-10.12-8.23-18.36-18.36-18.36S18.79,10.25,18.79,20.37c0,5.99,2.94,11.61,7.87,15.05l.43,.3v3Z"/><path class="cls-1" d="M0,85l2.98-17.85c.91-5.43,4.72-9.89,9.94-11.64l12.16-4.05v-1.66h2.01v2.27l2.25,9.02,5.95-7.14h3.71l5.95,7.14,2.26-9.02v-2.27h2.01v1.66l12.16,4.05c5.23,1.74,9.04,6.2,9.94,11.64l2.98,17.85H0Zm13.56-27.58c-4.52,1.51-7.81,5.36-8.59,10.06l-2.58,15.51H12.73l1.26-12.55,2,.2-1.24,12.35h15.99l2.59-18.12-2.01-3.02-2.97,3.56-2.98-11.93-11.81,3.94Zm48.02,25.57h10.35l-2.58-15.51c-.78-4.7-4.08-8.55-8.59-10.06l-11.81-3.94-2.98,11.93-2.97-3.56-2.01,3.01,2.59,18.12h16l-1.24-12.35,2-.2,1.26,12.55Zm-28.8,0h8.74l-2.66-18.6,2.77-4.15-3.57-4.28h-1.82l-3.57,4.29,2.77,4.15-2.66,18.59Z"/></g></g></svg>