<?xml version="1.0" encoding="UTF-8"?><svg id="Layer_2" xmlns="http://www.w3.org/2000/svg" viewBox="0 0 78.47 78.47"><defs><style>.cls-1{fill:#6cace3;}</style></defs><g id="work"><g><path class="cls-1" d="M11.3,78.47c-6.23,0-11.3-5.07-11.3-11.3,0-5.76,4.32-10.59,10.04-11.22l.6-.07v-3.01L.26,45.08c-.16-.12-.26-.32-.26-.52V15.29c0-.36,.29-.66,.66-.66H21.94c.36,0,.66,.29,.66,.66v29.27c0,.21-.1,.4-.26,.52l-10.38,7.79v3.01l.6,.07c5.72,.63,10.04,5.46,10.04,11.22,0,6.23-5.07,11.3-11.3,11.3Zm0-21.28c-5.51,0-9.99,4.48-9.99,9.99s4.48,9.99,9.99,9.99,9.99-4.48,9.99-9.99-4.48-9.99-9.99-9.99Zm-4.67-8.97l4.67,3.5,4.67-3.5V15.95H6.63V48.22Zm10.64-.98l4.01-3.01V15.95h-4.01v31.29Zm-15.96-3.01l4.01,3.01V15.95H1.31v28.28Z"/><path class="cls-1" d="M39.23,70.49c-.23,0-.44-.12-.56-.32l-3.8-6.33h-7.61c-.25,0-.48-.14-.59-.37-.11-.23-.08-.5,.08-.69l4.99-6.24-4.99-6.24c-.16-.2-.19-.47-.08-.7,.11-.23,.34-.37,.59-.37h7.61l3.71-6.18v-4.79l-11.68-7.79c-.18-.12-.29-.33-.29-.55V.66c0-.36,.29-.66,.66-.66h23.94c.36,0,.66,.29,.66,.66V29.92c0,.22-.11,.42-.29,.55l-11.68,7.79v4.79l3.71,6.18h7.61c.25,0,.48,.14,.59,.37,.11,.23,.08,.5-.08,.69l-4.99,6.24,4.99,6.24c.16,.2,.19,.47,.08,.7-.11,.23-.34,.37-.59,.37h-7.61l-3.8,6.33c-.12,.2-.33,.32-.56,.32Zm-6.14-14.37c.19,.24,.19,.58,0,.82l-4.47,5.59h6.62c.23,0,.44,.12,.56,.32l3.43,5.72,3.43-5.72c.12-.2,.33-.32,.56-.32h6.62l-4.47-5.59c-.19-.24-.19-.58,0-.82l4.47-5.59h-6.62c-.23,0-.44-.12-.56-.32l-3.43-5.71-3.43,5.72c-.12,.2-.33,.32-.56,.32h-6.62l4.47,5.59Zm.14-23l6,4,6-4V1.31h-11.99v31.8Zm13.3-.87l4.01-2.67V1.31h-4.01v30.93Zm-18.62-2.67l4.01,2.67V1.31h-4.01V29.57Z"/><path class="cls-1" d="M11.3,73.15c-3.3,0-5.98-2.68-5.98-5.98s2.68-5.98,5.98-5.98,5.98,2.68,5.98,5.98-2.68,5.98-5.98,5.98Zm0-10.64c-2.57,0-4.67,2.09-4.67,4.66s2.09,4.66,4.67,4.66,4.67-2.09,4.67-4.66-2.09-4.66-4.67-4.66Z"/><path class="cls-1" d="M39.23,61.19c-2.57,0-4.67-2.09-4.67-4.67s2.09-4.67,4.67-4.67,4.67,2.09,4.67,4.67-2.09,4.67-4.67,4.67Zm0-8.31c-2.01,0-3.64,1.63-3.64,3.64s1.63,3.64,3.64,3.64,3.64-1.63,3.64-3.64-1.63-3.64-3.64-3.64Z"/><path class="cls-1" d="M67.17,78.47c-6.23,0-11.3-5.07-11.3-11.3,0-5.76,4.32-10.59,10.04-11.22l.6-.07v-3.01l-10.38-7.79c-.16-.12-.26-.32-.26-.52V15.29c0-.36,.29-.66,.66-.66h21.28c.36,0,.66,.29,.66,.66v29.27c0,.21-.1,.4-.26,.52l-10.38,7.79v3.01l.6,.07c5.73,.63,10.04,5.46,10.04,11.22,0,6.23-5.07,11.3-11.3,11.3Zm0-21.28c-5.51,0-9.99,4.48-9.99,9.99s4.48,9.99,9.99,9.99,9.99-4.48,9.99-9.99-4.48-9.99-9.99-9.99Zm-4.67-8.97l4.67,3.5,4.67-3.5V15.95h-9.33V48.22Zm10.64-.98l4.01-3.01V15.95h-4.01v31.29Zm-15.96-3.01l4.01,3.01V15.95h-4.01v28.28Z"/><path class="cls-1" d="M67.17,73.15c-3.3,0-5.98-2.68-5.98-5.98s2.68-5.98,5.98-5.98,5.98,2.68,5.98,5.98-2.68,5.98-5.98,5.98Zm0-10.64c-2.57,0-4.67,2.09-4.67,4.66s2.09,4.66,4.67,4.66,4.67-2.09,4.67-4.66-2.09-4.66-4.67-4.66Z"/><rect class="cls-1" x="43.9" y="74.49" width="1.31" height="1.31"/><rect class="cls-1" x="38.58" y="74.49" width="1.31" height="1.31"/><rect class="cls-1" x="33.26" y="74.49" width="1.31" height="1.31"/><rect class="cls-1" x="38.58" y="5.32" width="1.31" height="1.31"/><rect class="cls-1" x="38.58" y="10.64" width="1.31" height="1.31"/><rect class="cls-1" x="38.58" y="15.96" width="1.31" height="1.31"/><rect class="cls-1" x="38.58" y="21.28" width="1.31" height="1.31"/><rect class="cls-1" x="38.58" y="26.61" width="1.31" height="1.31"/><rect class="cls-1" x="38.58" y="31.93" width="1.31" height="1.31"/><rect class="cls-1" x="71.83" y="9.31" width="1.31" height="1.31"/><rect class="cls-1" x="66.51" y="9.31" width="1.31" height="1.31"/><rect class="cls-1" x="61.19" y="9.31" width="1.31" height="1.31"/><rect class="cls-1" x="15.96" y="9.31" width="1.31" height="1.31"/><rect class="cls-1" x="10.64" y="9.31" width="1.31" height="1.31"/><rect class="cls-1" x="5.32" y="9.31" width="1.31" height="1.31"/></g></g></svg>