<?xml version="1.0" encoding="UTF-8"?><svg id="Layer_2" xmlns="http://www.w3.org/2000/svg" viewBox="0 0 83.2 85"><defs><style>.cls-1{fill:#6cace3;}</style></defs><g id="work"><g><path class="cls-1" d="M50.48,36.74h-7.41c-.41,0-.74,.33-.74,.74s.33,.74,.74,.74h7.41c.41,0,.74-.33,.74-.74s-.33-.74-.74-.74Z"/><path class="cls-1" d="M50.48,40.2h-7.41c-.41,0-.74,.33-.74,.74s.33,.74,.74,.74h7.41c.41,0,.74-.33,.74-.74s-.33-.74-.74-.74Z"/><path class="cls-1" d="M37.88,35.45h-6.04c-.41,0-.74,.33-.74,.74v6.04c0,.41,.33,.74,.74,.74h6.04c.41,0,.74-.33,.74-.74v-6.04c0-.41-.33-.74-.74-.74Zm-.74,6.04h-4.56v-4.56h4.56v4.56Z"/><path class="cls-1" d="M50.48,48.71h-7.41c-.41,0-.74,.33-.74,.74s.33,.74,.74,.74h7.41c.41,0,.74-.33,.74-.74s-.33-.74-.74-.74Z"/><path class="cls-1" d="M50.48,52.15h-7.41c-.41,0-.74,.33-.74,.74s.33,.74,.74,.74h7.41c.41,0,.74-.33,.74-.74s-.33-.74-.74-.74Z"/><path class="cls-1" d="M37.88,47.41h-6.04c-.41,0-.74,.33-.74,.74v6.04c0,.41,.33,.74,.74,.74h6.04c.41,0,.74-.33,.74-.74v-6.04c0-.41-.33-.74-.74-.74Zm-.74,6.04h-4.56v-4.56h4.56v4.56Z"/><path class="cls-1" d="M50.48,60.67h-7.41c-.41,0-.74,.33-.74,.74s.33,.74,.74,.74h7.41c.41,0,.74-.33,.74-.74s-.33-.74-.74-.74Z"/><path class="cls-1" d="M46.77,64.13h-3.7c-.41,0-.74,.33-.74,.74s.33,.74,.74,.74h3.7c.41,0,.74-.33,.74-.74s-.33-.74-.74-.74Z"/><path class="cls-1" d="M37.88,59.38h-6.04c-.41,0-.74,.33-.74,.74v6.05c0,.41,.33,.74,.74,.74h6.04c.41,0,.74-.33,.74-.74v-6.05c0-.41-.33-.74-.74-.74Zm-.74,6.05h-4.56v-4.57h4.56v4.57Z"/><path class="cls-1" d="M44.42,78.96c0-1.56-1.27-2.83-2.84-2.83s-2.84,1.27-2.84,2.84,1.27,2.84,2.84,2.84,2.84-1.27,2.84-2.84h0Zm-2.84,1.33c-.75,0-1.36-.61-1.36-1.36s.61-1.36,1.36-1.36,1.36,.61,1.36,1.36-.61,1.36-1.36,1.36Z"/><path class="cls-1" d="M53.95,27.7H29.22c-.41,0-.74,.33-.74,.74s.33,.74,.74,.74h24.73c.41,0,.74-.33,.74-.74s-.33-.74-.74-.74Z"/><path class="cls-1" d="M53.95,73.51H29.22c-.41,0-.74,.33-.74,.74s.33,.74,.74,.74h24.73c.41,0,.74-.33,.74-.74s-.33-.74-.74-.74Z"/><path class="cls-1" d="M42.88,23.79h-2.58c-.41,0-.74,.33-.74,.74s.33,.74,.74,.74h2.58c.41,0,.74-.33,.74-.74s-.33-.74-.74-.74Z"/><path class="cls-1" d="M24.19,10.89c-.3-.28-.77-.26-1.05,.04,0,0,0,0,0,0-2,2.2-3.38,4.89-3.99,7.79-.09,.4,.16,.8,.55,.89,0,0,0,0,0,0h.16c.36,0,.67-.24,.74-.59,.56-2.65,1.82-5.1,3.64-7.1,.28-.3,.26-.77-.04-1.04Z"/><path class="cls-1" d="M30.88,6.89c-.14-.39-.56-.59-.95-.45-.8,.28-1.57,.62-2.31,1.02-.36,.19-.49,.64-.3,1,.13,.24,.38,.39,.65,.39,.12,0,.24-.03,.35-.09,.68-.36,1.38-.67,2.11-.93,.39-.14,.59-.56,.45-.95Z"/><path class="cls-1" d="M74.09,35.14c-.41,0-.74,.33-.74,.74,0,.5-.03,.99-.09,1.48-.07,.4,.2,.79,.61,.85,.01,0,.02,0,.03,0h.09c.37,0,.69-.27,.74-.64,.07-.56,.11-1.13,.1-1.7,0-.41-.33-.74-.74-.74Z"/><path class="cls-1" d="M73.43,40s0,0,0,0c-.38-.15-.81,.03-.96,.41,0,0,0,0,0,0-.91,2.28-2.48,4.23-4.52,5.6-.34,.23-.42,.7-.18,1.03,.14,.2,.36,.31,.6,.32,.15,0,.29-.04,.41-.13,2.28-1.54,4.05-3.72,5.07-6.27,.15-.38-.03-.81-.41-.96Z"/><path class="cls-1" d="M66.66,20.29c-1.28-7.28-8.22-12.14-15.49-10.86-.3,.05-.6,.12-.9,.19C44.57,.2,32.32-2.82,22.9,2.88c-5.98,3.62-9.63,10.1-9.62,17.09v.67c-7.13,1.93-12.09,8.38-12.13,15.77,0,9,7.29,16.31,16.3,16.33h7.17v28.15c0,2.27,1.84,4.1,4.1,4.1h25.72c2.27,0,4.1-1.84,4.1-4.1v-28.15h5.52c9,.3,16.53-6.75,16.83-15.75,.28-8.4-5.88-15.64-14.22-16.7Zm-9.61,60.61c0,1.45-1.18,2.62-2.62,2.62H28.74c-1.45,0-2.62-1.18-2.62-2.62V24.46c0-1.45,1.18-2.62,2.62-2.62h25.69c1.45,0,2.62,1.18,2.62,2.62v56.44Zm22.36-43.2c-.68,7.89-7.44,13.85-15.36,13.53h-5.53V24.46c0-2.26-1.84-4.1-4.1-4.1H28.74c-2.26,0-4.1,1.84-4.1,4.1v26.8h-7.17c-8.18,.15-14.94-6.36-15.09-14.54-.13-7.14,4.85-13.35,11.84-14.79,.34-.08,.59-.39,.58-.74-.03-.4-.04-.8-.04-1.2-.02-10.19,8.22-18.47,18.41-18.49,6.66-.01,12.82,3.57,16.1,9.37,.17,.3,.52,.44,.85,.35,1.08-.32,2.19-.48,3.32-.49,5.97,0,11.02,4.4,11.85,10.3,.04,.33,.31,.59,.64,.64,8.15,.7,14.19,7.88,13.49,16.03Z"/><path class="cls-1" d="M19.85,60.03H6.51c-3.6,0-6.51,2.92-6.51,6.51s2.92,6.51,6.51,6.51h3.16l-1.88,1.88c-.29,.29-.29,.76,0,1.05,0,0,0,0,0,0,.14,.14,.33,.22,.53,.21,.19,0,.38-.08,.52-.21l3.12-3.15c.07-.07,.13-.15,.16-.24,.07-.18,.07-.38,0-.56-.04-.09-.09-.18-.16-.24l-3.15-3.15c-.29-.29-.76-.29-1.04,0-.29,.29-.29,.76,0,1.05,0,0,0,0,0,0l1.88,1.88h-3.13c-2.78,0-5.03-2.25-5.03-5.03s2.25-5.03,5.03-5.03h13.33c.41,0,.74-.33,.74-.74s-.33-.74-.74-.74Z"/><path class="cls-1" d="M76.69,67.62h-3.19l1.88-1.88c.29-.29,.29-.76,0-1.04-.29-.29-.76-.29-1.04,0l-3.12,3.14c-.21,.21-.28,.53-.16,.81,.03,.09,.09,.18,.16,.24l3.15,3.15c.14,.14,.32,.21,.52,.21,.2,0,.39-.08,.53-.21,.29-.29,.29-.76,0-1.04l-1.88-1.89h3.16c2.78,0,5.03,2.25,5.03,5.03s-2.25,5.03-5.03,5.03h-13.33c-.41,0-.74,.33-.74,.74s.33,.74,.74,.74h13.33c3.6,0,6.51-2.92,6.51-6.51s-2.92-6.51-6.51-6.51Z"/></g></g></svg>