<?xml version="1.0" encoding="UTF-8"?><svg id="Layer_2" xmlns="http://www.w3.org/2000/svg" viewBox="0 0 86.31 86.31"><defs><style>.cls-1{fill:#6cace3;}</style></defs><g id="work"><path class="cls-1" d="M43.16,86.31c-6.09,0-11.04-4.95-11.04-11.04,0-.8,.1-1.62,.28-2.45l.11-.48-11.97-5.99-.31,.46c-2.06,3.08-5.49,4.91-9.18,4.91-6.09,0-11.04-4.95-11.04-11.05s4.95-11.04,11.04-11.04c1.65,0,3.26,.37,4.78,1.11l.5,.24,5.5-8.5-5.86-9.86-.51,.23c-1.4,.62-2.89,.93-4.42,.93-6.09,0-11.04-4.95-11.04-11.04S4.95,11.68,11.04,11.68c4.15,0,7.91,2.3,9.82,6.01l.26,.49,11.4-4.15-.12-.54c-.19-.82-.28-1.64-.28-2.44,0-6.09,4.95-11.05,11.04-11.05s11.04,4.95,11.04,11.05c0,2.46-.81,4.8-2.33,6.76l-.34,.44,16.54,16.54,.44-.34c1.96-1.52,4.3-2.33,6.76-2.33,6.09,0,11.04,4.95,11.04,11.04s-4.95,11.04-11.04,11.04c-2.37,0-4.64-.75-6.56-2.18l-.45-.33-16.24,16.98,.29,.42c1.24,1.83,1.9,3.97,1.9,6.18,0,6.09-4.95,11.04-11.04,11.04Zm0-20.43c-5.18,0-9.39,4.21-9.39,9.39s4.21,9.39,9.39,9.39,9.39-4.21,9.39-9.39-4.21-9.39-9.39-9.39Zm-25.44-14.01l.43,.36c2.51,2.11,3.94,5.19,3.94,8.44,0,1.23-.21,2.46-.64,3.66l-.19,.53,11.8,5.91,.29-.56c.62-1.2,1.45-2.27,2.48-3.18l.39-.35-13.45-22.62-5.06,7.81Zm-6.68-.59c-5.18,0-9.39,4.21-9.39,9.39s4.21,9.39,9.39,9.39,9.39-4.21,9.39-9.39-4.21-9.39-9.39-9.39Zm42.77-9.66c-1.15,4.3-4.88,7.55-9.28,8.11l-.55,.07v14.46l.55,.07c2.2,.28,4.25,1.21,5.93,2.69l.46,.4,16.13-16.87-.35-.43c-1.62-1.99-2.48-4.4-2.48-6.96v-.55l-.54-.19-9.72-1.34-.14,.54Zm-30.04,.89l13.8,23.22,.53-.27c1.15-.59,2.38-.98,3.67-1.14l.55-.07v-14.46l-.55-.07c-5.51-.69-9.66-5.4-9.66-10.95,0-1.23,.21-2.46,.64-3.66l.19-.53-3.04-1.52-6.11,9.44Zm51.49-8.74c-5.18,0-9.39,4.21-9.39,9.39s4.21,9.39,9.39,9.39,9.39-4.21,9.39-9.39-4.21-9.39-9.39-9.39Zm-32.11-4.38c-5.18,0-9.39,4.21-9.39,9.39s4.21,9.39,9.39,9.39,9.39-4.21,9.39-9.39-4.21-9.39-9.39-9.39Zm-22.94-.53c-.64,.96-1.45,1.83-2.39,2.56l-.44,.34,5.45,9.16,5.57-8.6-7.87-3.93-.31,.46Zm22.94-1.12c6.09,0,11.04,4.95,11.04,11.05v.13s.01,.53,.01,.53l10.25,1.41,.14-.54c.38-1.43,1.04-2.75,1.95-3.92l.34-.44-16.54-16.54-.44,.34c-1.96,1.52-4.3,2.33-6.76,2.33-1.65,0-3.26-.37-4.78-1.11l-.5-.24-7.08,10.93,2.87,1.43,.31-.46c2.06-3.08,5.49-4.91,9.18-4.91ZM11.04,13.33c-5.18,0-9.39,4.21-9.39,9.39s4.21,9.39,9.39,9.39,9.39-4.21,9.39-9.39-4.21-9.39-9.39-9.39Zm10.64,6.4l.12,.54c.19,.82,.28,1.64,.28,2.44,0,1.23-.21,2.46-.64,3.66l-.19,.53,8.04,4.02,7.17-11.08-.43-.36c-1.12-.95-2.04-2.1-2.72-3.41l-.26-.49-11.4,4.15ZM43.16,1.65c-5.18,0-9.39,4.21-9.39,9.39s4.21,9.39,9.39,9.39,9.39-4.21,9.39-9.39S48.34,1.65,43.16,1.65Z"/></g></svg>