<?xml version="1.0" encoding="UTF-8"?><svg id="Layer_2" xmlns="http://www.w3.org/2000/svg" viewBox="0 0 127.49 73.9"><defs><style>.cls-1{fill:none;}.cls-2{fill:#6cace3;}</style></defs><g id="work"><g><path class="cls-1" d="M65.81,50.5v4.19h-6.94c2.67,6.57,6.71,11.69,11.25,14.26v-30.65h-14.62c.16,4.26,.8,8.36,1.92,12.2h8.39Z"/><path class="cls-1" d="M43.87,54.69c4.49,6.86,11.36,11.9,19.2,14.11-3.67-3.57-6.66-8.4-8.72-14.11h-10.47Z"/><path class="cls-1" d="M124.78,38.4c1.21,0,2.2-.99,2.2-2.2s-.99-2.2-2.2-2.2-2.2,.99-2.2,2.2,.99,2.2,2.2,2.2Z"/><path class="cls-1" d="M118.6,54.74c1.21,0,2.2-.99,2.2-2.2s-.99-2.2-2.2-2.2-2.2,.99-2.2,2.2,.99,2.2,2.2,2.2Z"/><path class="cls-1" d="M65.81,17.71v4.19h-8.39c-1.12,3.84-1.77,7.94-1.92,12.2h14.62V3.45c-4.54,2.57-8.58,7.69-11.25,14.26h6.94Z"/><path class="cls-1" d="M85.56,54.69h-11.25v14.26c4.54-2.57,8.58-7.69,11.25-14.26Z"/><path class="cls-1" d="M100.57,54.69h-10.47c-2.07,5.71-5.06,10.54-8.72,14.11,7.83-2.21,14.71-7.25,19.2-14.11Z"/><path class="cls-1" d="M118.7,22.01c1.22,0,2.21-.99,2.21-2.2s-.99-2.2-2.21-2.2-2.2,.99-2.2,2.2,.99,2.2,2.2,2.2Z"/><rect class="cls-1" x="4.33" y="10.86" width="26.28" height="17.89"/><path class="cls-1" d="M53.04,50.5c-1.01-3.86-1.6-7.96-1.74-12.2h-12.88c.26,4.26,1.3,8.36,3.1,12.2h11.51Z"/><rect class="cls-1" x="4.33" y="43.59" width="26.28" height="17.89"/><path class="cls-1" d="M100.57,17.71c-4.49-6.86-11.36-11.9-19.2-14.11,3.67,3.57,6.66,8.4,8.72,14.11h10.47Z"/><path class="cls-1" d="M106.01,34.1c-.26-4.26-1.3-8.36-3.1-12.2h-11.51c1.01,3.86,1.59,7.96,1.74,12.2h12.88Z"/><path class="cls-1" d="M102.91,50.5c1.8-3.84,2.84-7.94,3.1-12.2h-12.88c-.14,4.25-.73,8.34-1.74,12.2h11.51Z"/><path class="cls-1" d="M78.62,38.29v-4.19h10.32c-.16-4.26-.81-8.36-1.93-12.2h-12.7v28.59h12.7c1.12-3.84,1.77-7.94,1.93-12.2h-10.32Z"/><path class="cls-1" d="M41.53,21.9c-1.8,3.84-2.84,7.94-3.1,12.2h12.88c.14-4.24,.73-8.34,1.74-12.2h-11.51Z"/><path class="cls-1" d="M43.87,17.71h10.47c2.07-5.71,5.06-10.54,8.72-14.11-7.83,2.21-14.71,7.25-19.2,14.11Z"/><path class="cls-1" d="M74.31,3.45v14.26h11.25c-2.67-6.57-6.71-11.69-11.25-14.26Z"/></g><path class="cls-2" d="M37.04,54.28l.16,.29c6.5,11.92,18.93,19.33,32.43,19.33,13.52,0,25.95-7.41,32.45-19.33l.16-.29h8.57l.11,.4c.63,2.29,2.73,3.89,5.1,3.89,2.92,0,5.29-2.38,5.29-5.29s-2.38-5.29-5.29-5.29c-2.37,0-4.47,1.6-5.1,3.89l-.11,.4h-7.56l.33-.77c1.78-4.13,2.78-8.52,2.96-13.05l.02-.53h10.42l.11,.4c.63,2.29,2.73,3.89,5.1,3.89,2.92,0,5.29-2.38,5.29-5.29s-2.38-5.29-5.29-5.29c-2.37,0-4.47,1.6-5.1,3.9l-.11,.4h-10.42l-.02-.53c-.19-4.55-1.19-8.96-2.99-13.11l-.33-.77h7.7l.11,.4c.63,2.29,2.73,3.89,5.1,3.89,2.92,0,5.29-2.37,5.29-5.29s-2.38-5.29-5.29-5.29c-2.37,0-4.47,1.6-5.1,3.89l-.11,.4h-8.71l-.16-.29C95.54,7.39,83.12,0,69.64,0s-25.9,7.39-32.41,19.28l-.16,.29h-7.3V9.86H0V31.25H29.78v-9.7h6.28l-.33,.77c-2.02,4.65-3.04,9.57-3.04,14.63s1.01,9.94,3.01,14.57l.33,.77h-6.25v-9.7H0v21.39H29.78v-9.7h7.26Zm78.97-4.3c1.82,0,3.3,1.48,3.3,3.3s-1.48,3.3-3.3,3.3-3.3-1.48-3.3-3.3,1.48-3.3,3.3-3.3Zm6.18-16.33c1.82,0,3.3,1.48,3.3,3.3s-1.48,3.3-3.3,3.3-3.3-1.48-3.3-3.3,1.48-3.3,3.3-3.3Zm-6.07-16.39c1.82,0,3.3,1.48,3.3,3.3s-1.48,3.3-3.3,3.3-3.3-1.48-3.3-3.3,1.48-3.3,3.3-3.3Zm-16.67,37.92c-5.01,8.17-13.23,13.99-22.56,15.97l-2.19,.46,1.73-1.43c4.35-3.6,7.87-8.95,10.17-15.48l.13-.37h13.23l-.51,.84Zm5.1-16.66c-.21,4.73-1.35,9.28-3.39,13.52l-.15,.31h-13.65l.19-.7c1.15-4.13,1.79-8.56,1.9-13.17v-.54h15.11l-.03,.57Zm-3.39-16.65c2.04,4.24,3.17,8.79,3.39,13.52l.03,.57h-15.1v-.54c-.13-4.6-.77-9.04-1.92-13.17l-.19-.7h13.65l.15,.31ZM76.9,2.75c9.32,1.98,17.54,7.8,22.56,15.97l.51,.84h-13.23l-.13-.37c-2.3-6.52-5.82-11.88-10.17-15.48l-1.72-1.43,2.19,.46Zm-6.27-.35l.79,.39c5.28,2.61,9.97,8.45,12.88,16.02l.29,.75h-13.96V2.4Zm0,19.15h14.62l.12,.39c1.27,4.21,1.98,8.73,2.11,13.45l.02,.56h-10.35v1.99h10.35l-.02,.56c-.13,4.71-.84,9.23-2.11,13.44l-.12,.39h-14.62V21.55Zm0,32.78h13.96l-.29,.75c-2.91,7.57-7.6,13.4-12.88,16.02l-.79,.39v-17.16ZM28.03,29.5H1.75V11.61H28.03V29.5Zm34.35,41.64c-9.32-1.98-17.54-7.8-22.56-15.97l-.51-.84h13.23l.13,.37c2.3,6.52,5.82,11.88,10.17,15.48l1.73,1.43-2.19-.46Zm6.27,.35l-.79-.39c-5.28-2.61-9.97-8.45-12.88-16.02l-.29-.75h7.45v-1.99h-8.11l-.12-.39c-1.27-4.22-1.98-8.74-2.1-13.44l-.02-.56h16.86v33.55Zm0-69.09V35.95h-16.86l.02-.56c.13-4.71,.83-9.23,2.1-13.45l.12-.39h8.11v-1.99h-7.45l.29-.75c2.91-7.57,7.6-13.41,12.88-16.02l.79-.39Zm-28.82,16.32c5.01-8.17,13.24-13.99,22.56-15.97l2.19-.46-1.73,1.43c-4.35,3.6-7.87,8.95-10.17,15.48l-.13,.37h-13.23l.51-.84Zm-5.1,16.66c.21-4.73,1.35-9.28,3.39-13.52l.15-.31h13.65l-.19,.7c-1.15,4.14-1.79,8.57-1.9,13.17v.54h-15.11l.03-.57Zm0,3.14l-.03-.57h15.1v.54c.13,4.6,.77,9.03,1.92,13.17l.19,.7h-13.65l-.15-.31c-2.04-4.24-3.17-8.79-3.39-13.52Zm-6.69,23.71H1.75v-17.89H28.03v17.89Z"/></g></svg>