<?xml version="1.0" encoding="UTF-8"?><svg id="Layer_2" xmlns="http://www.w3.org/2000/svg" viewBox="0 0 88.88 89"><defs><style>.cls-1{fill:#6cace3;}</style></defs><g id="work"><g><path class="cls-1" d="M16.52,79.66c-.28,0-.56-.12-.72-.31-.14-.16-.19-.37-.15-.62l.68-4.13h-3.7c-.58,0-.79-.45-.79-.83s.21-.84,.79-.84h3.98l.56-3.37h-4.54c-.58,0-.79-.45-.79-.83s.21-.84,.79-.84h4.81l.73-4.4c.1-.59,.58-.66,.78-.66,.28,0,.56,.12,.72,.31,.14,.16,.19,.37,.15,.62l-.68,4.13h3.35l.73-4.4c.1-.59,.58-.66,.78-.66,.28,0,.56,.12,.72,.31,.14,.16,.19,.37,.15,.62l-.68,4.13h3.7c.58,0,.79,.45,.79,.83s-.21,.84-.79,.84h-3.98l-.56,3.37h4.54c.25,0,.45,.08,.59,.24,.13,.15,.2,.36,.2,.59,0,.38-.21,.84-.79,.84h-4.81l-.73,4.4c-.1,.6-.58,.66-.78,.66-.28,0-.56-.12-.72-.31-.14-.16-.19-.37-.15-.62l.68-4.13h-3.35l-.73,4.4c-.1,.6-.58,.66-.78,.66Zm1.78-6.73h3.35l.56-3.37h-3.35l-.56,3.37Z"/><path class="cls-1" d="M13.67,34.48C6.17,34.48,.03,28.39,0,20.89c-.02-3.65,1.39-7.08,3.96-9.67,2.57-2.59,6-4.02,9.65-4.04h.06c7.51,0,13.64,6.1,13.67,13.59,.02,3.65-1.39,7.08-3.96,9.67-2.57,2.59-6,4.03-9.65,4.04h-.06Zm-.06-25.64c-3.2,.01-6.21,1.27-8.46,3.55-2.26,2.27-3.49,5.29-3.48,8.49,.03,6.58,5.41,11.93,12,11.93h.05c3.21-.01,6.22-1.27,8.48-3.55,2.26-2.27,3.49-5.29,3.48-8.49-.03-6.58-5.41-11.93-12-11.93h-.06Z"/><path class="cls-1" d="M13.7,27.77c-.14,0-.27-.03-.39-.09-2.35-1.23-3.87-2.26-4.9-3.34-1.23-1.27-1.83-2.67-1.83-4.29-.01-2.54,1.63-4.08,3.27-4.49,.33-.08,.67-.12,1-.12,.92,0,1.78,.31,2.49,.89l.31,.25,.31-.25c.69-.57,1.54-.87,2.46-.87,.31,0,.62,.03,.93,.1,1.7,.37,3.42,1.88,3.43,4.43,.02,3.41-2.66,5.54-6.67,7.68-.12,.06-.26,.1-.39,.1h0Zm-2.88-10.66c-.19,0-.39,.02-.58,.07-.97,.24-2.01,1.12-2,2.86,0,2.18,1.42,3.76,5.22,5.82l.23,.13,.23-.13c3.78-2.1,5.18-3.69,5.17-5.87,0-1.74-1.14-2.6-2.11-2.81-.19-.04-.38-.06-.56-.06-.9,0-1.63,.46-2,1.26-.16,.35-.5,.47-.76,.47-.32,0-.6-.16-.74-.43-.42-.81-1.23-1.31-2.1-1.31Z"/><path class="cls-1" d="M69.63,89c-5.76,0-10.45-4.68-10.45-10.44s4.69-10.44,10.45-10.44,10.45,4.68,10.45,10.44-4.69,10.44-10.45,10.44Zm0-19.21c-4.84,0-8.78,3.93-8.78,8.77s3.94,8.77,8.78,8.77,8.78-3.93,8.78-8.77-3.94-8.77-8.78-8.77Z"/><path class="cls-1" d="M69.63,83.42c-.39,0-.84-.21-.84-.79v-3.24h-3.24c-.58,0-.79-.45-.79-.83s.21-.84,.79-.84h3.24v-3.24c0-.58,.45-.79,.83-.79s.84,.21,.84,.79v3.24h3.24c.58,0,.79,.45,.79,.83s-.21,.84-.79,.84h-3.24v3.24c0,.58-.45,.79-.83,.79Z"/><path class="cls-1" d="M20.26,88.13c-9.32,0-16.91-7.57-16.91-16.88s7.58-16.88,16.91-16.88c1.31,0,2.62,.15,3.89,.45l.59,.14v-17.86c0-3.49,2.84-6.34,6.33-6.34h22.26l-.48-.74c-2.01-3.14-3.07-6.76-3.07-10.49,0-6.19,2.99-12.07,7.99-15.74,.15-.11,.31-.17,.47-.17,.34,0,.69,.28,.81,.66,.08,.24,.09,.58-.29,.86-4.57,3.36-7.31,8.74-7.31,14.4,0,9.85,8.02,17.85,17.88,17.85s17.88-8.01,17.88-17.85S79.2,1.67,69.34,1.67c-1.6,0-3.18,.21-4.7,.62-.09,.02-.17,.04-.25,.04-.45,0-.71-.4-.76-.77-.02-.16-.04-.71,.57-.88,1.67-.45,3.39-.68,5.14-.68,10.78,0,19.55,8.76,19.55,19.52s-8.77,19.52-19.55,19.52c-1.08,0-2.17-.09-3.24-.27l-.56-.09v18.08c0,3.49-2.84,6.34-6.33,6.34h-3.2l-8.14,6.65c-.15,.12-.32,.18-.5,.18-.41,0-.86-.32-.86-.83v-6h-11.42l.34,.7c1.15,2.33,1.74,4.84,1.74,7.46,0,4.06-1.46,7.98-4.12,11.05-.17,.19-.36,.29-.57,.29-.33,0-.68-.24-.83-.57-.09-.2-.14-.5,.14-.82,2.39-2.76,3.71-6.3,3.71-9.95,0-2.8-.77-5.54-2.23-7.92l-.14-.23h-2.05c-3.39,0-6.17-2.65-6.33-6.04l-.02-.35-.34-.09c-1.35-.38-2.74-.57-4.14-.57-8.4,0-15.24,6.83-15.24,15.21s6.84,15.21,15.24,15.21c2.49,0,4.86-.58,7.05-1.72,.13-.07,.26-.11,.39-.11,.4,0,.7,.36,.79,.71,.05,.22,.07,.63-.4,.88-2.4,1.25-5.1,1.91-7.82,1.91Zm10.82-55.7c-2.57,0-4.66,2.09-4.66,4.67v19.66c0,2.57,2.09,4.67,4.66,4.67h16.26c.46,0,.83,.37,.83,.83v5.08l7.01-5.72c.15-.12,.34-.19,.53-.19h3.49c2.57,0,4.66-2.09,4.66-4.67v-18.49l-.34-.11c-3.33-1.04-6.34-2.97-8.7-5.58l-.14-.16H31.08Z"/><path class="cls-1" d="M68.76,29.33c-1.12,0-2.24-.29-3.23-.83l-.34-.19-.26,.3c-.16,.19-.39,.29-.63,.29h-5.29c-.46,0-.83-.37-.83-.83v-11.88c0-.46,.37-.83,.83-.83h5.29c.19,0,.37,.06,.52,.18l.36,.28,2.77-3.13c.96-1.08,1.48-2.47,1.48-3.91,0-1.2,.97-1.94,1.88-1.94,.66,0,1.23,.36,1.62,1.02,1.15,1.94,1.3,4.48,.39,6.63l-.28,.67h5.08c1.32,0,2.39,1.07,2.39,2.39v.42c-.02,5.51-.02,8.49,0,8.86,.03,.64-.21,1.28-.67,1.75-.46,.48-1.08,.75-1.72,.75h-9.34Zm2.25-19.48c-.21,1.47-.84,2.83-1.82,3.94l-4.06,4.59v7.78l.17,.15c1.07,.9,2.23,1.36,3.46,1.36h9.39c.39-.04,.66-.32,.68-.71v-.05c-.01-.25-.02-2.01,0-8.97v-.39c0-.4-.32-.72-.72-.72h-6.34c-.27,0-.51-.14-.67-.38-.16-.25-.2-.54-.09-.79l.13-.32c.73-1.71,1.48-3.48,.82-5.56l-.94,.08Zm-11.17,17.38h3.62v-10.21h-3.62v10.21Z"/><path class="cls-1" d="M53.21,44.07c-.46,0-.83-.37-.83-.83s.37-.83,.83-.83h3.41c.58,0,.79,.45,.79,.83s-.21,.83-.79,.83h-3.41Z"/><path class="cls-1" d="M33.66,44.07c-.58,0-.79-.45-.79-.83s.21-.83,.79-.83h11.97c.58,0,.79,.45,.79,.83s-.21,.83-.79,.83h-11.97Z"/><path class="cls-1" d="M33.66,52.29c-.58,0-.79-.45-.79-.83s.21-.83,.79-.83h3.41c.58,0,.79,.45,.79,.83s-.21,.83-.79,.83h-3.41Z"/><path class="cls-1" d="M44.65,52.29c-.58,0-.79-.45-.79-.83s.21-.83,.79-.83h11.97c.58,0,.79,.45,.79,.83s-.21,.83-.79,.83h-11.97Z"/></g></g></svg>