<?xml version="1.0" encoding="UTF-8"?><svg id="Layer_2" xmlns="http://www.w3.org/2000/svg" viewBox="0 0 87.97 85"><defs><style>.cls-1{fill:#6cace3;}</style></defs><g id="work"><g><path class="cls-1" d="M58.93,6.15h-17.04c-.4,0-.72,.32-.72,.72s.32,.72,.72,.72h17.04c.4,0,.72-.32,.72-.72s-.32-.72-.72-.72Z"/><path class="cls-1" d="M45.8,10.7h-3.91c-.4,0-.72,.32-.72,.72s.32,.72,.72,.72h3.91c.4,0,.72-.32,.72-.72s-.32-.72-.72-.72Z"/><path class="cls-1" d="M32.55,31.19c-.16-.37-.39-.7-.68-.97,.24-.92,.36-1.87,.37-2.82,0-5.39-3.92-9.63-8.92-9.63s-8.92,4.23-8.92,9.63c0,.95,.12,1.9,.37,2.82-1.25,1.2-1.28,3.18-.09,4.43,.28,.29,.61,.52,.98,.69,1.38,3.73,4.35,6.13,7.66,6.13s6.28-2.4,7.65-6.13c1.58-.7,2.29-2.56,1.58-4.13Zm-1.49,2.22c-.21,.31-.52,.55-.88,.66h.04c-.23,.06-.41,.23-.49,.46-1.12,3.33-3.63,5.48-6.45,5.48s-5.3-2.15-6.41-5.48c-.08-.22-.26-.4-.49-.46-.89-.28-1.38-1.23-1.1-2.12,.11-.36,.35-.67,.66-.88,.26-.18,.38-.51,.29-.81-.29-.93-.44-1.89-.44-2.87,0-4.59,3.29-8.2,7.49-8.2s7.49,3.58,7.49,8.2c0,.97-.15,1.94-.44,2.87-.09,.3,.02,.63,.29,.81,.77,.53,.97,1.58,.45,2.35Z"/><path class="cls-1" d="M29.7,26.8s0,0,0,0c-.16-.92-.99-1.58-1.93-1.5-.09-.49-.16-.98-.19-1.48-.03-.38-.34-.67-.72-.67-.2,0-1.25,.05-2.87,1.5-1.55,1.39-3.84,1.6-5.62,.51-.33-.21-.77-.12-.99,.21-.21,.33-.12,.77,.21,.99,2.32,1.45,5.32,1.18,7.35-.65,.38-.35,.8-.66,1.25-.9,.18,1.47,.46,1.93,1.14,1.91,.85,0,.85,0,.94,.39,.08,.33,.38,.56,.72,.55h.16c.38-.09,.62-.48,.53-.86Z"/><path class="cls-1" d="M46.23,77.5c-.4,0-.72,.32-.72,.72v6.03c0,.4,.32,.72,.72,.72s.72-.32,.72-.72v-6.03c0-.4-.32-.72-.72-.72Z"/><path class="cls-1" d="M78.5,77.5c-.4,0-.72,.32-.72,.72v6.03c0,.4,.32,.72,.72,.72s.72-.32,.72-.72v-6.03c0-.4-.32-.72-.72-.72Z"/><path class="cls-1" d="M84.53,63.04h-.08l-3.02-1.1V14.66c0-2.66-2.16-4.82-4.82-4.82h-8.23V3.91c0-2.16-1.75-3.91-3.91-3.91h-28.11c-2.16,0-3.91,1.75-3.91,3.91v5.91H4.82c-2.66,0-4.82,2.16-4.82,4.82v49.75c0,2.66,2.16,4.82,4.82,4.82H29.8l-2.09,9.81h-7.59c-.4,0-.72,.32-.72,.72s.32,.72,.72,.72h16.04v3.83c0,.4,.32,.72,.72,.72s.72-.32,.72-.72v-15.37c0-1.2,.37-2.36,1.07-3.33,.42-.57,.95-1.06,1.56-1.43l9.51-3.42c.1,.05,.21,.08,.32,.08h24.01l9.87,3.58c2.26,1.17,2.6,3.5,2.6,4.79v15.07c0,.4,.32,.72,.72,.72s.72-.32,.72-.72v-15.12c-.01-2.8-1.23-4.97-3.44-6.09ZM33.87,3.91c0-1.37,1.11-2.48,2.48-2.48h28.11c1.37,0,2.48,1.11,2.48,2.48V14.49c0,1.37-1.11,2.48-2.48,2.48h-17.25c-.13,0-.27,.04-.38,.11l-7.09,4.51v-3.91c0-.4-.32-.72-.72-.72h-2.67c-1.37,0-2.48-1.11-2.48-2.48V3.91h0Zm2.29,75.11h-6.98l2.09-9.78h4.89v9.78Zm14.98-19.69l1.66-3.89h18.51l1.66,3.89h-21.83Zm10.75-10.95c1.17,0,2.33-.21,3.42-.63,.25-.09,.72-.27,1.5-2.87,.98,1.12,1.43,1.28,1.92,.9,1.15-.89,3.71-3.07,5.02-5.61,.4,.51,.62,1.15,.62,1.8,.01,1.27-.82,2.4-2.03,2.77-.23,.06-.41,.24-.49,.47-.93,3.08-2.97,5.71-5.73,7.36-.23,.13-.37,.37-.37,.63v.83h-7.84s0-.85,0-.85c0-.26-.14-.5-.37-.63-2.76-1.65-4.81-4.28-5.73-7.36-.07-.22-.25-.4-.48-.47-1.22-.37-2.04-1.49-2.03-2.77,0-.7,.26-1.37,.72-1.89,3.64,6.12,8.06,8.32,11.88,8.32Zm-11.69-14.06c0-7.11,5.11-12.69,11.63-12.69s11.63,5.57,11.63,12.69c0,1.49-.22,2.97-.67,4.39l-.03,.02c-.84,2.31-3.22,4.51-4.56,5.6-.32-.32-.81-.89-1.2-1.38-.17-.22-.45-.32-.72-.26-.26,.06-.47,.26-.54,.52-.28,1.12-.67,2.22-1.15,3.27-4.8,1.73-10.07-1.23-13.74-7.82-.43-1.41-.65-2.87-.65-4.34Zm29.79,20.97h-4.93c-.4,0-.72,.32-.72,.72s.32,.72,.72,.72h4.93v4.66l-5.42-1.96-2.15-5.02c-.11-.26-.37-.44-.66-.44h-4.61v-.39c2.79-1.78,4.88-4.46,5.92-7.6,2.22-.91,3.29-3.44,2.39-5.67-.26-.63-.65-1.19-1.16-1.63,.4-1.42,.6-2.88,.59-4.36,0-7.88-5.73-14.12-13.06-14.12s-13.06,6.2-13.06,14.12c0,1.47,.2,2.94,.59,4.36-1.81,1.58-1.99,4.33-.41,6.14,.45,.51,1.01,.91,1.63,1.16,1.04,3.14,3.13,5.83,5.92,7.6v.42h-4.18c-.29,0-.55,.17-.66,.44l-2.03,4.76-9.96,3.58s-.09,.04-.14,.06c-1.76,1.09-2.96,2.89-3.29,4.93H4.82c-1.87,0-3.39-1.52-3.39-3.39v-7.66H48.6c.4,0,.72-.32,.72-.72s-.32-.72-.72-.72h-7.65v-4.04c.1-1.79-.86-3.48-2.46-4.3l-7.57-3.17-1.55-2.64v-.04l-.12-.06s-.07-.07-.11-.09c-.04-.03-.08-.05-.12-.06l-.13-.05h-.27s-.09,.02-.14,.04l-.1,.04h-.04l-4.93,3.7-4.89-3.68h-.14s-.09-.04-.14-.05h-.27l-.13,.05s-.08,.03-.12,.06c-.04,.03-.08,.06-.11,.09l-.07,.06v.04l-1.53,2.63-7.51,2.99-.1,.06c-1.47,.9-2.36,2.5-2.36,4.23v4.18H1.43V14.64c0-1.87,1.52-3.39,3.39-3.39h27.62v3.24c0,2.16,1.75,3.91,3.91,3.91h1.96v4.5c0,.26,.14,.5,.37,.63,.11,.06,.22,.09,.34,.09,.14,0,.27-.04,.38-.11l8.02-5.1h17.03c2.16,0,3.91-1.75,3.91-3.91v-3.24h8.23c1.87,0,3.39,1.52,3.39,3.39V55.3Zm-60.11-5.91c.14,.15,.33,.23,.53,.23,.2,0,.39-.09,.53-.24l2.48-2.79,2.48,2.79c.14,.15,.33,.24,.53,.24,.2,0,.39-.08,.53-.23l3.78-4.11,7.16,3c1.07,.6,1.7,1.76,1.63,2.98v4.04H7.49v-4.18c0-.74,.23-1.47,.67-2.07,.26-.36,.59-.67,.96-.91l6.99-2.87,3.78,4.12Zm-2.64-4.99l1.06-1.83,4.06,3.04-1.97,2.22-3.15-3.44Zm7.23,1.22l4.06-3.04,1.07,1.83-3.16,3.44-1.97-2.22Z"/><path class="cls-1" d="M72.08,70.6c-.28-.28-.73-.28-1.01,0l-8.46,8.43c-.28,.28-.28,.73,0,1.01,.28,.28,.73,.28,1.01,0l8.43-8.43c.29-.27,.3-.72,.03-1.01Z"/><path class="cls-1" d="M71.14,76.75c-.28-.28-.73-.28-1.01,0,0,0,0,0,0,0l-2.79,2.79c-.28,.28-.28,.73,0,1.01,.28,.28,.73,.28,1.01,0,0,0,0,0,0,0l2.79-2.79c.28-.28,.28-.73,0-1.01Z"/></g></g></svg>