<?xml version="1.0" encoding="UTF-8"?><svg id="Layer_2" xmlns="http://www.w3.org/2000/svg" viewBox="0 0 85.28 69.02"><defs><style>.cls-1{fill:#6cace3;}</style></defs><g id="work"><g><path class="cls-1" d="M3.33,69.02c-.34,0-.62-.28-.62-.62s.28-.62,.62-.62h2.09V29.15l-.3-.19C1.92,26.89,0,23.39,0,19.6c0-.11,.03-.21,.08-.31L10.15,1.68c.59-1.04,1.7-1.68,2.89-1.68h59.21c1.19,0,2.3,.64,2.89,1.68l10.06,17.61c.05,.09,.08,.2,.08,.31,0,3.8-1.92,7.29-5.12,9.36l-.3,.19v38.63h2.09c.34,0,.62,.28,.62,.62s-.28,.62-.62,.62H3.33ZM72.46,35.25c.34,0,.62,.28,.62,.62v31.92h5.54V29.82l-.86,.3c-1.16,.4-2.37,.6-3.6,.6-4.21,0-8.01-2.34-9.93-6.11l-.58-1.14-.58,1.14c-1.91,3.77-5.72,6.11-9.93,6.11s-8.01-2.34-9.93-6.11l-.58-1.14-.58,1.14c-1.91,3.77-5.72,6.11-9.93,6.11s-8.01-2.34-9.93-6.11l-.58-1.14-.58,1.14c-1.91,3.77-5.72,6.11-9.93,6.11-1.23,0-2.44-.2-3.6-.6l-.86-.3v37.96H55.58v-31.92c0-.34,.28-.62,.62-.62h16.27Zm-15.65,32.53h15.03v-5.54h-15.03v5.54Zm0-6.78h15.03v-24.52h-15.03v24.52Zm7.55-40.05c.67,4.86,4.88,8.53,9.79,8.53s9.12-3.67,9.79-8.53l.1-.74h-4.81c-.34,0-.62-.28-.62-.62s.28-.62,.62-.62h4.36L74.06,2.29c-.37-.65-1.07-1.05-1.82-1.05H13.04c-.75,0-1.45,.4-1.82,1.05L1.68,18.98H6.04c.34,0,.62,.28,.62,.62s-.28,.62-.62,.62H1.23l.1,.74c.67,4.86,4.88,8.53,9.79,8.53s9.12-3.67,9.79-8.53l.1-.74H11.46c-.34,0-.62-.28-.62-.62s.28-.62,.62-.62h62.36c.34,0,.62,.28,.62,.62s-.28,.62-.62,.62h-9.56l.1,.74Zm-21.01,0c.67,4.86,4.88,8.53,9.79,8.53s9.12-3.67,9.79-8.53l.1-.74h-19.79l.1,.74Zm-21.01,0c.67,4.86,4.88,8.53,9.79,8.53s9.12-3.67,9.79-8.53l.1-.74H22.24l.1,.74Z"/><path class="cls-1" d="M12.82,62.24c-.34,0-.62-.28-.62-.62v-25.76c0-.34,.28-.62,.62-.62H49.42c.34,0,.62,.28,.62,.62v25.76c0,.34-.28,.62-.62,.62H12.82Zm.62-1.24H48.8v-24.52H13.44v24.52Z"/></g></g></svg>