<?xml version="1.0" encoding="UTF-8"?><svg id="Layer_2" xmlns="http://www.w3.org/2000/svg" viewBox="0 0 61.49 81.47"><defs><style>.cls-1{fill:#6cace3;}</style></defs><g id="work"><g><g><path class="cls-1" d="M36.74,22c-.33,0-.65-.13-.88-.36-.24-.24-.37-.56-.37-.89s.13-.65,.37-.88c.46-.47,1.3-.47,1.76,0,.24,.23,.37,.55,.37,.88s-.13,.65-.37,.89c-.23,.23-.55,.36-.88,.36Z"/><path class="cls-1" d="M36.74,10.02c-.17,0-.33-.04-.48-.1-.15-.06-.29-.15-.4-.27-.24-.24-.37-.55-.37-.89s.13-.65,.37-.88c.46-.46,1.3-.47,1.76,0,.24,.23,.37,.56,.37,.88,0,.34-.13,.65-.37,.89-.23,.23-.55,.37-.88,.37Z"/><path class="cls-1" d="M30.75,16.01c-.34,0-.65-.13-.89-.37-.12-.11-.21-.25-.27-.4-.06-.15-.09-.32-.09-.48,0-.33,.13-.65,.36-.88,.06-.06,.12-.11,.19-.16,.07-.04,.14-.08,.22-.11,.07-.04,.15-.06,.23-.08,.4-.08,.84,.05,1.13,.35,.23,.23,.37,.55,.37,.88,0,.16-.04,.32-.1,.48-.06,.15-.15,.28-.27,.4-.24,.24-.55,.37-.88,.37Z"/><path class="cls-1" d="M30.75,4.02c-.17,0-.33-.03-.48-.09-.15-.07-.29-.16-.41-.28-.12-.11-.21-.25-.27-.4-.06-.15-.09-.31-.09-.48,0-.08,0-.16,.02-.24s.04-.16,.07-.24c.03-.07,.07-.14,.12-.21,.04-.07,.09-.13,.15-.19,.06-.06,.12-.11,.19-.16,.07-.04,.14-.08,.22-.11,.07-.04,.15-.06,.23-.08,.41-.08,.84,.06,1.13,.35,.06,.06,.11,.12,.15,.19,.05,.07,.09,.14,.12,.21,.03,.08,.05,.16,.07,.24s.02,.16,.02,.24c0,.17-.03,.33-.09,.48-.06,.15-.15,.29-.27,.4-.24,.24-.55,.37-.88,.37Z"/><path class="cls-1" d="M42.73,4.02c-.16,0-.32-.03-.47-.09-.16-.07-.29-.16-.41-.28-.12-.11-.21-.25-.27-.4-.06-.15-.1-.31-.1-.48,0-.08,.01-.16,.03-.24,0-.08,.04-.16,.07-.24,.03-.07,.07-.14,.11-.21,.05-.07,.1-.13,.16-.19,.06-.06,.12-.11,.19-.16,.07-.04,.14-.08,.22-.11,.07-.04,.15-.06,.23-.08,.16-.03,.33-.03,.49,0,.08,.02,.16,.04,.23,.08,.08,.03,.15,.07,.22,.11,.07,.05,.13,.1,.19,.16,.06,.06,.11,.12,.15,.19,.05,.07,.09,.14,.12,.21,.03,.08,.05,.16,.07,.24s.02,.16,.02,.24c0,.17-.03,.33-.09,.48-.06,.15-.15,.29-.27,.4-.12,.12-.26,.21-.41,.28-.15,.06-.31,.09-.48,.09Z"/><path class="cls-1" d="M18.76,4.02c-.17,0-.33-.03-.48-.09-.15-.07-.29-.16-.41-.28-.11-.11-.21-.25-.27-.4-.06-.15-.09-.31-.09-.48,0-.33,.13-.65,.36-.88,.29-.29,.72-.43,1.13-.35,.08,.02,.16,.04,.24,.08,.07,.03,.14,.07,.21,.11,.07,.05,.13,.1,.19,.16,.06,.06,.11,.12,.16,.19,.04,.07,.08,.14,.11,.21,.03,.08,.06,.16,.07,.24,.02,.08,.03,.16,.03,.24,0,.17-.04,.33-.1,.48-.06,.15-.15,.29-.27,.4-.24,.24-.55,.37-.88,.37Z"/><path class="cls-1" d="M24.75,22c-.33,0-.64-.13-.88-.36-.24-.24-.37-.55-.37-.89s.13-.65,.37-.88c.46-.47,1.3-.47,1.77,0,.23,.23,.36,.55,.36,.88s-.13,.65-.36,.89c-.24,.23-.56,.36-.89,.36Z"/><path class="cls-1" d="M24.75,10.02c-.33,0-.65-.14-.88-.37-.24-.24-.37-.55-.37-.89,0-.32,.14-.65,.37-.88,.46-.46,1.3-.47,1.76,0,.24,.23,.37,.55,.37,.88s-.13,.65-.37,.89c-.11,.12-.25,.21-.4,.27-.15,.06-.31,.1-.48,.1Z"/><path class="cls-1" d="M18.76,16.01c-.34,0-.65-.13-.89-.37-.11-.12-.21-.25-.27-.4-.06-.16-.09-.32-.09-.48,0-.33,.13-.65,.36-.88,.06-.06,.12-.11,.19-.16,.07-.04,.14-.08,.22-.11,.07-.04,.15-.06,.23-.08,.16-.03,.33-.03,.49,0,.08,.02,.16,.04,.23,.08,.08,.03,.15,.07,.22,.11,.07,.05,.13,.1,.19,.16,.23,.23,.37,.55,.37,.88,0,.16-.04,.33-.1,.48-.06,.15-.15,.29-.27,.4-.12,.12-.25,.21-.4,.27-.16,.07-.32,.1-.48,.1Z"/><path class="cls-1" d="M42.74,16.01c-.17,0-.33-.03-.48-.1-.16-.06-.29-.15-.41-.27s-.21-.25-.27-.4c-.06-.16-.1-.32-.1-.48,0-.33,.14-.65,.37-.88,.47-.47,1.3-.47,1.77,0,.23,.23,.37,.55,.37,.88,0,.16-.04,.32-.1,.48-.06,.15-.15,.29-.27,.4-.12,.12-.26,.21-.41,.27-.15,.07-.31,.1-.47,.1Z"/><path class="cls-1" d="M30.75,28c-.34,0-.65-.13-.89-.37-.23-.23-.36-.55-.36-.88s.13-.65,.36-.88c.29-.3,.72-.43,1.13-.35,.08,.02,.16,.04,.23,.07,.08,.04,.15,.07,.22,.12,.07,.04,.13,.1,.19,.16,.23,.23,.36,.55,.36,.88,0,.16-.03,.32-.09,.48-.06,.15-.15,.28-.27,.4-.24,.24-.55,.37-.88,.37Z"/></g><path class="cls-1" d="M16.76,49.5c-.43,0-.77-.35-.77-.78v-5.99c0-.43,.35-.78,.77-.78s.77,.35,.77,.78v5.99c0,.43-.35,.78-.77,.78Z"/><path class="cls-1" d="M38.74,65.49h-15.99c-3.73,0-6.77-3.04-6.77-6.77v-2c0-.43,.35-.78,.77-.78s.77,.35,.77,.78v2c0,2.88,2.34,5.22,5.22,5.22h15.99c2.88,0,5.22-2.34,5.22-5.22v-2c0-.43,.35-.78,.77-.78s.77,.35,.77,.78v2c0,3.73-3.04,6.77-6.77,6.77Z"/><path class="cls-1" d="M44.73,49.5c-.43,0-.77-.35-.77-.78v-5.99c0-.43,.35-.78,.77-.78s.77,.35,.77,.78v5.99c0,.43-.35,.78-.77,.78Z"/><path class="cls-1" d="M44.73,43.51c-.43,0-.77-.35-.77-.78v-13.99c0-.43,.35-.78,.77-.78s.77,.35,.77,.78v13.99c0,.43-.35,.78-.77,.78Z"/><path class="cls-1" d="M44.73,19.53c-.43,0-.77-.35-.77-.78V6.77c0-2.88-2.34-5.22-5.22-5.22h-15.99c-2.88,0-5.22,2.34-5.22,5.22v11.99c0,.43-.35,.78-.77,.78s-.77-.35-.77-.78V6.77c0-3.73,3.04-6.77,6.77-6.77h15.99c3.73,0,6.77,3.04,6.77,6.77v11.99c0,.43-.35,.78-.77,.78Z"/><path class="cls-1" d="M16.76,43.51c-.43,0-.77-.35-.77-.78v-13.99c0-.43,.35-.78,.77-.78s.77,.35,.77,.78v13.99c0,.43-.35,.78-.77,.78Z"/><path class="cls-1" d="M58.72,61.49c-.13,0-.26-.03-.38-.1l-27.97-15.99c-.24-.14-.39-.39-.39-.67v-11.99c0-.28,.15-.54,.39-.67l27.97-15.99c.27-.16,.61-.13,.86,.06,.25,.19,.36,.51,.27,.82l-5.94,21.78,5.94,21.78c.08,.3-.03,.62-.27,.82-.14,.11-.31,.16-.47,.16Zm-27.2-17.21l25.96,14.83-5.5-20.17c-.04-.13-.04-.27,0-.41l5.5-20.17-25.96,14.83v11.09Z"/><path class="cls-1" d="M2.77,61.49c-.17,0-.34-.05-.47-.16-.25-.19-.36-.51-.27-.82l5.94-21.78L2.03,16.96c-.08-.3,.03-.62,.27-.82,.25-.19,.59-.22,.86-.06l27.97,15.99c.24,.14,.39,.39,.39,.67v11.99c0,.28-.15,.54-.39,.67L3.16,61.39c-.12,.07-.25,.1-.38,.1Zm1.24-43.13l5.5,20.17c.04,.13,.04,.27,0,.41l-5.5,20.17,25.96-14.83v-11.09L4.01,18.36Z"/><path class="cls-1" d="M60.72,39.51h-11.99c-.43,0-.77-.35-.77-.78s.35-.78,.77-.78h11.99c.43,0,.77,.35,.77,.78s-.35,.78-.77,.78Z"/><path class="cls-1" d="M12.76,39.51H.77c-.43,0-.77-.35-.77-.78s.35-.78,.77-.78H12.76c.43,0,.77,.35,.77,.78s-.35,.78-.77,.78Z"/><path class="cls-1" d="M34.74,81.47h-7.99c-.43,0-.77-.35-.77-.78,0-5.75-1.9-9.61-1.92-9.64-.19-.38-.04-.85,.35-1.04,.38-.19,.85-.04,1.04,.35,.08,.16,1.91,3.89,2.07,9.56h6.46c.16-5.67,1.99-9.4,2.07-9.56,.19-.38,.66-.54,1.04-.35,.38,.19,.54,.66,.35,1.04-.02,.04-1.92,3.92-1.92,9.64,0,.43-.35,.78-.77,.78Z"/></g></g></svg>