<?xml version="1.0" encoding="UTF-8"?><svg id="Layer_2" xmlns="http://www.w3.org/2000/svg" viewBox="0 0 89.88 84.13"><defs><style>.cls-1{fill:#6cace3;}</style></defs><g id="work"><g><path class="cls-1" d="M12.39,74.56c-.5,0-.9-.4-.9-.9V.9c0-.5,.4-.9,.9-.9s.9,.4,.9,.9V73.66c0,.5-.4,.9-.9,.9Z"/><path class="cls-1" d="M54.51,28.61c-.5,0-.9-.4-.9-.9V.9c0-.5,.4-.9,.9-.9s.9,.4,.9,.9V27.71c0,.5-.4,.9-.9,.9Z"/><path class="cls-1" d="M.9,74.56c-.5,0-.9-.4-.9-.9V.9C0,.4,.4,0,.9,0s.9,.4,.9,.9V73.66c0,.5-.4,.9-.9,.9Z"/><path class="cls-1" d="M66,28.61c-.5,0-.9-.4-.9-.9V.9c0-.5,.4-.9,.9-.9s.9,.4,.9,.9V27.71c0,.5-.4,.9-.9,.9Z"/><path class="cls-1" d="M12.39,9.46H.9c-.5,0-.9-.4-.9-.9s.4-.9,.9-.9H12.39c.5,0,.9,.4,.9,.9s-.4,.9-.9,.9Z"/><path class="cls-1" d="M12.39,20.95H.9c-.5,0-.9-.4-.9-.9s.4-.9,.9-.9H12.39c.5,0,.9,.4,.9,.9s-.4,.9-.9,.9Z"/><path class="cls-1" d="M12.39,32.44H.9c-.5,0-.9-.4-.9-.9s.4-.9,.9-.9H12.39c.5,0,.9,.4,.9,.9s-.4,.9-.9,.9Z"/><path class="cls-1" d="M12.39,43.92H.9c-.5,0-.9-.4-.9-.9s.4-.9,.9-.9H12.39c.5,0,.9,.4,.9,.9s-.4,.9-.9,.9Z"/><path class="cls-1" d="M12.39,55.41H.9c-.5,0-.9-.4-.9-.9s.4-.9,.9-.9H12.39c.5,0,.9,.4,.9,.9s-.4,.9-.9,.9Z"/><path class="cls-1" d="M12.39,66.9H.9c-.5,0-.9-.4-.9-.9s.4-.9,.9-.9H12.39c.5,0,.9,.4,.9,.9s-.4,.9-.9,.9Z"/><path class="cls-1" d="M66,9.46h-11.49c-.5,0-.9-.4-.9-.9s.4-.9,.9-.9h11.49c.5,0,.9,.4,.9,.9s-.4,.9-.9,.9Z"/><path class="cls-1" d="M66,20.95h-11.49c-.5,0-.9-.4-.9-.9s.4-.9,.9-.9h11.49c.5,0,.9,.4,.9,.9s-.4,.9-.9,.9Z"/><path class="cls-1" d="M54.51,15.2H12.39c-.5,0-.9-.4-.9-.9s.4-.9,.9-.9H54.51c.5,0,.9,.4,.9,.9s-.4,.9-.9,.9Z"/><path class="cls-1" d="M33.45,61.16H12.39c-.5,0-.9-.4-.9-.9s.4-.9,.9-.9h21.06c.5,0,.9,.4,.9,.9s-.4,.9-.9,.9Z"/><path class="cls-1" d="M69.01,84.13c-.33,0-.65-.18-.81-.5l-2.07-4.14c-1.98,.27-4,.27-6,0l-2.08,4.15c-.21,.42-.71,.61-1.15,.43l-8.24-3.41c-.44-.18-.66-.67-.51-1.12l1.47-4.4c-1.61-1.22-3.03-2.64-4.24-4.24l-4.4,1.46c-.45,.15-.94-.07-1.12-.51l-3.41-8.24c-.18-.44,0-.94,.43-1.15l4.14-2.07c-.27-1.99-.27-4,0-6l-4.15-2.08c-.42-.21-.61-.71-.43-1.15l3.41-8.24c.18-.44,.66-.66,1.12-.51l4.4,1.47c1.22-1.61,2.64-3.03,4.24-4.24l-1.46-4.4c-.15-.45,.07-.94,.51-1.12l8.24-3.41c.44-.18,.94,0,1.15,.43l2.07,4.14c1.99-.27,4-.27,6,0l2.08-4.15c.21-.42,.71-.61,1.15-.43l8.24,3.41c.44,.18,.66,.67,.51,1.12l-1.47,4.4c1.61,1.22,3.03,2.64,4.24,4.24l4.4-1.46c.45-.15,.94,.07,1.12,.51l3.41,8.24c.18,.44,0,.94-.43,1.15l-4.14,2.07c.27,1.99,.27,4,0,6l4.15,2.08c.42,.21,.61,.71,.43,1.15l-3.41,8.24c-.18,.44-.67,.66-1.12,.51l-4.4-1.46c-1.22,1.61-2.64,3.03-4.24,4.24l1.46,4.4c.15,.45-.07,.94-.51,1.12l-8.24,3.41c-.11,.05-.23,.07-.34,.07Zm-2.37-6.53c.34,0,.65,.19,.81,.5l1.99,3.98,6.69-2.77-1.41-4.22c-.12-.37,0-.79,.33-1.02,1.84-1.31,3.43-2.91,4.75-4.76,.23-.32,.64-.46,1.02-.33l4.23,1.41,2.77-6.7-3.98-1.99c-.35-.18-.55-.56-.49-.95,.38-2.24,.38-4.5,0-6.72-.07-.39,.13-.78,.49-.95l3.98-1.99-2.77-6.7-4.22,1.4c-.37,.12-.79,0-1.02-.33-1.31-1.83-2.91-3.43-4.76-4.75-.32-.23-.46-.64-.33-1.02l1.41-4.23-6.69-2.77-1.99,3.98c-.18,.35-.56,.55-.95,.48-2.24-.37-4.5-.38-6.72,0-.39,.07-.78-.13-.95-.48l-1.99-3.98-6.69,2.77,1.41,4.22c.12,.37,0,.79-.33,1.02-1.83,1.31-3.43,2.91-4.75,4.76-.23,.32-.64,.46-1.02,.33l-4.23-1.41-2.77,6.7,3.98,1.99c.35,.18,.55,.56,.49,.95-.37,2.24-.38,4.5,0,6.72,.07,.39-.13,.78-.49,.95l-3.98,1.99,2.77,6.7,4.22-1.4c.37-.13,.79,0,1.02,.33,1.31,1.83,2.91,3.43,4.76,4.75,.32,.23,.46,.64,.33,1.02l-1.41,4.23,6.69,2.77,1.99-3.98c.18-.35,.56-.55,.95-.48,2.24,.37,4.51,.38,6.72,0,.05,0,.1-.01,.15-.01Z"/><path class="cls-1" d="M63.13,66.9c-5.25,0-9.52-4.27-9.52-9.52s4.27-9.52,9.52-9.52,9.52,4.27,9.52,9.52-4.27,9.52-9.52,9.52Zm0-17.23c-4.25,0-7.72,3.46-7.72,7.72s3.46,7.72,7.72,7.72,7.72-3.46,7.72-7.72-3.46-7.72-7.72-7.72Z"/></g></g></svg>