<?xml version="1.0" encoding="UTF-8"?><svg id="Layer_2" xmlns="http://www.w3.org/2000/svg" viewBox="0 0 91.72 77.11"><defs><style>.cls-1{fill:#6cace3;}</style></defs><g id="work"><g><path class="cls-1" d="M26.87,77.11c-.31,0-.57-.25-.57-.57s.25-.57,.57-.57h5.34l1.32-10.56H4.95c-2.73,0-4.95-2.22-4.95-4.95V4.95C0,2.22,2.22,0,4.95,0H86.77c2.73,0,4.95,2.22,4.95,4.95V60.47c0,2.73-2.22,4.95-4.95,4.95h-28.58l1.32,10.56h5.34c.31,0,.57,.25,.57,.57s-.25,.57-.57,.57H26.87Zm6.49-1.13h25.01l-1.32-10.56h-6.36l-.65,2.58c-.48,1.92-2.2,3.26-4.18,3.26s-3.7-1.34-4.18-3.26l-.65-2.58h-6.36l-1.32,10.56Zm9.43-8.25c.35,1.42,1.62,2.41,3.08,2.41s2.73-.99,3.08-2.41l.58-2.3h-7.31l.58,2.3ZM4.95,1.13c-2.1,0-3.82,1.71-3.82,3.82V60.47c0,2.1,1.71,3.82,3.82,3.82H86.77c2.1,0,3.82-1.71,3.82-3.82V4.95c0-2.1-1.71-3.82-3.82-3.82H4.95Z"/><path class="cls-1" d="M6.41,59.57c-.31,0-.57-.25-.57-.57V6.41c0-.31,.25-.57,.57-.57H76.54c.31,0,.57,.25,.57,.57s-.25,.57-.57,.57H6.98V58.44h2.35c.15,0,.29,.06,.4,.17,.11,.11,.17,.25,.17,.4,0,.31-.25,.57-.57,.57h-2.92Z"/><path class="cls-1" d="M15.18,59.57c-.31,0-.57-.25-.57-.57s.25-.57,.57-.57H84.74V6.98h-2.35c-.31,0-.57-.25-.57-.57s.25-.57,.57-.57h2.92c.31,0,.57,.25,.57,.57V59.01c0,.31-.25,.57-.57,.57H15.18Z"/><path class="cls-1" d="M57.55,50.81c-1.92,0-3.49-1.56-3.49-3.49,0-.43,.08-.86,.24-1.26l.43-1.09h-14.8l.43,1.09c.16,.4,.24,.83,.24,1.26,0,1.92-1.57,3.49-3.49,3.49s-3.49-1.56-3.49-3.49c0-.61,.16-1.2,.46-1.73l.35-.61-.56-.42c-.2-.15-.37-.34-.5-.55-.37-.6-.41-1.34-.09-1.97l2.06-4.12-.31-.4c-.28-.36-.48-.76-.61-1.19l-5.09-17.82-.27-.21-3.96-2.64c-.26-.17-.33-.53-.16-.79,.11-.16,.28-.25,.47-.25,.11,0,.22,.03,.31,.1l3.94,2.62c.39,.26,.68,.65,.82,1.1l.18,.59,.62-.02,32.15,1.46c.16,0,.32,.09,.42,.22,.1,.13,.14,.3,.11,.46l-2.3,11.49c-.42,2.11-2.14,3.69-4.28,3.95l-19.21,2.26c-.14,.02-.28,.02-.42,.02-.29,0-.58-.04-.87-.11l-.63-.16-2.16,4.33,.2,.45c.19,.31,.47,.47,.79,.47h25.4c.31,0,.57,.25,.57,.57,0,.16-.07,.31-.19,.42l-.45,.41,.27,.54c.24,.49,.37,1.01,.37,1.55,0,1.92-1.57,3.49-3.49,3.49Zm0-5.84c-1.3,0-2.35,1.06-2.35,2.36s1.06,2.36,2.35,2.36,2.35-1.06,2.35-2.36-1.06-2.36-2.35-2.36Zm-20.45,0c-1.3,0-2.35,1.06-2.35,2.36s1.06,2.36,2.35,2.36,2.35-1.06,2.35-2.36-1.06-2.36-2.35-2.36Zm-1.6-8.96c.29,1.02,1.2,1.71,2.26,1.71,.09,0,.18,0,.28-.02l2.93-.34-1.4-8.46h-6.11l2.03,7.12Zm6.6,1.21l4.66-.55v-7.78h-6.03l1.37,8.33Zm5.79-.68l5.73-.67,.63-6.97h-6.36v7.65Zm6.88-.81l2.48-.29c1.65-.19,2.97-1.42,3.3-3.04l.7-3.51h-5.85l-.62,6.84Zm.72-7.97h5.98l1.24-6.2-6.63-.3-.59,6.5Zm-7.6,0h6.46l.59-6.56-7.05-.32v6.88Zm-7.35,0h6.22v-6.93l-7.42-.34,1.2,7.26Zm-7.4,0h6.25l-1.21-7.32-7.22-.33,2.18,7.65Z"/></g></g></svg>