<?xml version="1.0" encoding="UTF-8"?><svg id="Layer_2" xmlns="http://www.w3.org/2000/svg" viewBox="0 0 98.34 78.65"><defs><style>.cls-1{fill:#6cace3;}</style></defs><g id="work"><g><path class="cls-1" d="M35.89,7.73c-.33-.33-.86-.33-1.19,0-.33,.33-.33,.86,0,1.2,.33,.33,.86,.33,1.2,0,.16-.16,.25-.37,.25-.6,0-.23-.09-.44-.25-.6Z"/><path class="cls-1" d="M76,55.05c13.53-3.14,22.34-8.62,22.34-14.99,0-.47-.38-.85-.85-.85s-.85,.38-.85,.85c0,5.23-7.8,9.97-19.59,12.93,3.07-6.57,3.72-14.02,1.83-21.02,3.97-6.06,7.33-13.13,7.35-20.1,3.08-1.62,4.25-5.43,2.63-8.51-1.62-3.08-5.43-4.25-8.51-2.63-1,.53-1.84,1.32-2.43,2.28-5.07-.16-12.22,2.44-20.23,7.42-2.77-.8-5.64-1.21-8.52-1.21-12.92,.01-24.45,8.08-28.91,20.2C14.05,19.02,11.91,10.18,15.59,6.49c.33-.33,.33-.86,0-1.19-.33-.33-.86-.33-1.19,0-3.84,3.85-2.69,11.77,2.29,21.34C5.93,30.02,0,34.77,0,40.06s6.43,10.25,16.75,13.48c-.37,.85-.85,2-1.24,3.05-.4,1.06-.73,1.86-.93,2.29-.2,.42-.01,.93,.41,1.12,0,0,0,0,0,0,.11,.05,.23,.08,.36,.08,.33,0,.63-.19,.77-.49,.22-.47,.57-1.36,.96-2.38,.4-1.02,.93-2.36,1.3-3.18,1.27,.36,2.59,.7,3.96,1.02,3.63,6.43,9.43,11.34,16.37,13.86-1.51,.9-3.03,1.74-4.57,2.54-4.43,2.23-9.59,4.42-14.37,3.95,.18-.5,.27-1.03,.27-1.56,.01-2.67-2.14-4.85-4.81-4.86-2.67-.01-4.85,2.14-4.86,4.81-.01,2.67,2.14,4.85,4.81,4.86,1.43,0,2.8-.62,3.72-1.72,.09,.05,.2,.09,.3,.1,.64,.08,1.28,.12,1.92,.12,4.76,0,9.61-2.08,13.81-4.23,1.99-1.01,3.97-2.12,5.92-3.32,5.45,1.54,11.23,1.54,16.68,0,7.88,4.95,14.79,7.54,19.87,7.54,2.76,0,4.98-.76,6.54-2.32,2.8-2.8,3.04-7.8,.72-14.45-.15-.44-.64-.67-1.08-.52s-.67,.64-.52,1.08c2.07,5.92,1.95,10.43-.31,12.68-3.6,3.59-12.42,1.69-23.07-4.71,6.92-2.53,12.7-7.45,16.33-13.86Zm-57.67,18.77c0,1.72-1.4,3.12-3.13,3.12s-3.13-1.4-3.13-3.13,1.4-3.13,3.13-3.13,3.13,1.4,3.13,3.13h0Zm56.55-20.29c-5.37,1.18-10.82,1.96-16.3,2.33,4.02-3.83,7.82-7.9,11.38-12.17,2.14-2.54,4.95-5.92,7.61-9.82,.45,2.01,.68,4.06,.69,6.12,0,4.72-1.17,9.36-3.38,13.53Zm4.16-48.96c.17-.14,.27-.35,.29-.57,.81-1.42,2.32-2.3,3.96-2.31h0c2.55,0,4.62,2.06,4.62,4.61,0,2.55-2.06,4.62-4.61,4.62-2.54,0-4.61-2.04-4.62-4.58,0-.61,.12-1.21,.36-1.78Zm-1.83,.13c-.91,3.34,1.06,6.78,4.4,7.69,.55,.15,1.12,.22,1.68,.22,.42,0,.84-.04,1.25-.13-.19,5.92-2.93,12-6.31,17.38-3.04-8.68-9.79-15.55-18.42-18.75,6.87-4.1,12.95-6.34,17.39-6.42Zm-3.51,19.73h-12.81c-1.51-5.92-3.85-10.55-6.69-13.08,8.05,1.43,15.12,6.18,19.5,13.08Zm-23.68-13.44c3.75,.69,7.09,5.92,9.07,13.44h-9.07V10.99Zm0,15.13h9.49c.93,4.18,1.43,8.45,1.51,12.73h-10.99v-12.73Zm-1.69-15.13v13.44h-9.07c1.98-7.5,5.32-12.74,9.07-13.44Zm0,15.13v12.73h-10.99c.06-4.28,.56-8.55,1.49-12.73h9.5Zm-4.18-14.77c-2.84,2.54-5.18,7.14-6.69,13.08h-12.81c4.38-6.9,11.45-11.65,19.5-13.08Zm-20.54,14.77h13.45c-.89,4.19-1.36,8.45-1.42,12.73h-3.85c-.47,0-.84,.38-.84,.85,0,.47,.38,.84,.84,.84h3.85c0,2,.1,3.99,.28,5.92,.04,.44,.41,.77,.85,.77h.08c.46-.04,.81-.45,.77-.91-.17-1.89-.25-3.83-.27-5.78h10.98v9.15c0,.47,.38,.85,.85,.85s.85-.38,.85-.85v-9.14h10.99c0,1.95-.1,3.89-.27,5.78-.04,.47,.3,.88,.77,.92,.47,.04,.88-.3,.92-.77,.18-1.94,.26-3.93,.28-5.92h3.86c.47,0,.85-.38,.85-.85s-.38-.85-.85-.85h-3.87c-.05-4.28-.52-8.54-1.4-12.73h13.44c.98,1.77,1.76,3.64,2.34,5.57-2.6,3.78-5.4,7.42-8.38,10.91-3.93,4.74-8.17,9.21-12.68,13.39-2.22,.11-4.5,.18-6.76,.18s-4.44-.06-6.6-.17c-1.62-1.47-3.22-2.99-4.79-4.55-6.2-6.11-11.71-12.88-16.44-20.18,.56-1.79,1.3-3.52,2.19-5.17ZM1.69,40.06c0-4.48,5.77-8.81,15.82-11.92,.63,1.14,1.31,2.31,2.05,3.48-2.03,7.09-1.43,14.68,1.69,21.37-11.75-2.96-19.56-7.7-19.56-12.93Zm18.39-.09c0-2.15,.24-4.3,.72-6.4h.04c4.6,6.86,9.87,13.26,15.74,19.08,1.08,1.09,2.19,2.16,3.31,3.2-5.54-.37-11.05-1.15-16.47-2.34-2.2-4.17-3.35-8.81-3.34-13.53Zm20.52,27.83c-6.6-2.07-12.25-6.41-15.96-12.25,5.68,1.14,11.44,1.85,17.23,2.12,.68,.62,1.37,1.23,2.06,1.82,.69,.59,1.54,1.32,2.31,1.95,.15,.13,.34,.19,.54,.19,.27,0,.52-.12,.68-.33,.29-.36,.24-.89-.12-1.18-.75-.63-1.51-1.27-2.27-1.93-.17-.14-.33-.29-.49-.42,1.51,0,3.05,.08,4.61,.08s3.24,0,4.83-.08c-4.19,3.71-8.68,7.07-13.43,10.04Zm17.21-.03c-1.88-1.19-3.8-2.54-5.76-3.96-.38-.28-.91-.2-1.18,.18-.28,.38-.2,.91,.18,1.18,1.54,1.14,3.06,2.2,4.55,3.19-2.11,.48-4.26,.72-6.43,.72-2.13,0-4.25-.24-6.33-.7,4.89-3.18,9.52-6.77,13.82-10.72,5.74-.28,11.45-.99,17.08-2.11-3.7,5.83-9.34,10.16-15.92,12.23Z"/><path class="cls-1" d="M94.79,33.29c-.67-.59-1.38-1.14-2.11-1.65-.39-.26-.91-.15-1.17,.23-.25,.38-.16,.9,.22,1.16,.68,.46,1.32,.96,1.94,1.51,.16,.14,.36,.22,.57,.22,.47,0,.84-.38,.84-.85,0-.24-.1-.46-.28-.62Z"/><path class="cls-1" d="M88.29,29.25c-.22,0-.43,.09-.59,.24v.02c-.24,.24-.32,.61-.19,.92,.04,.1,.1,.2,.19,.27,.04,.04,.08,.08,.13,.11,.05,.03,.09,.06,.14,.08,.05,.02,.11,.04,.16,.05h.16c.23,0,.44-.09,.6-.25,.08-.08,.14-.17,.19-.27,.04-.1,.06-.21,.06-.32,0-.47-.38-.84-.85-.84Z"/><path class="cls-1" d="M14.2,64.12c-.02-.05-.04-.1-.08-.14-.03-.05-.06-.09-.1-.13-.08-.08-.17-.15-.28-.19-.32-.14-.69-.07-.93,.18-.04,.04-.07,.08-.1,.13-.03,.04-.06,.09-.08,.14-.03,.05-.04,.1-.05,.16,0,.05,0,.11,0,.16,0,.11,.02,.22,.07,.33,.04,.1,.1,.19,.18,.27,.15,.16,.36,.25,.57,.25,.22,0,.44-.09,.6-.25,.08-.08,.14-.17,.18-.27,.04-.1,.07-.22,.07-.33,0-.05,0-.11,0-.16,0-.06-.02-.11-.05-.16Z"/><path class="cls-1" d="M30.59,5.3c-.24-.24-.6-.32-.92-.19-.1,.04-.2,.1-.27,.19-.16,.16-.24,.37-.25,.59,0,.22,.09,.44,.25,.6,.16,.16,.38,.25,.6,.25,.22,0,.43-.09,.59-.25,.16-.16,.25-.37,.25-.6,0-.22-.09-.44-.25-.59Z"/><path class="cls-1" d="M23.36,2.75c-1.22,0-2.44,.09-3.65,.29l-.41,.05c-.47,.03-.82,.43-.8,.89s.43,.82,.89,.8h.11l.43-.06c1.09-.17,2.2-.26,3.31-.28,.47,.04,.87-.32,.91-.78s-.32-.87-.78-.91Z"/></g></g></svg>