<?xml version="1.0" encoding="UTF-8"?><svg id="Layer_2" xmlns="http://www.w3.org/2000/svg" viewBox="0 0 80 63.13"><defs><style>.cls-1{fill:#6cace3;}</style></defs><g id="work"><g><path class="cls-1" d="M6.17,63.13c-3.4,0-6.17-2.77-6.17-6.17V26.47c0-.45,.36-.81,.81-.81s.81,.36,.81,.81v30.49c0,2.51,2.04,4.55,4.55,4.55H73.83c2.51,0,4.55-2.04,4.55-4.55v-1.47c0-.45,.36-.81,.81-.81s.81,.36,.81,.81v1.47c0,3.4-2.77,6.17-6.17,6.17H6.17Z"/><path class="cls-1" d="M79.19,51.22c-.45,0-.81-.36-.81-.81V14.24H1.62v7.15c0,.45-.36,.81-.81,.81s-.81-.36-.81-.81V6.17C0,2.77,2.77,0,6.17,0h59.02c.45,0,.81,.36,.81,.81s-.36,.81-.81,.81H6.17C3.66,1.62,1.62,3.66,1.62,6.17v6.44H78.38V6.17c0-2.51-2.04-4.55-4.55-4.55h-3.53c-.45,0-.81-.36-.81-.81s.36-.81,.81-.81h3.53c3.4,0,6.17,2.77,6.17,6.17V50.41c0,.45-.36,.81-.81,.81Z"/><path class="cls-1" d="M9.72,10.4c-1.84,0-3.33-1.5-3.33-3.33s1.5-3.33,3.33-3.33,3.33,1.5,3.33,3.33-1.5,3.33-3.33,3.33Zm0-5.05c-.94,0-1.71,.77-1.71,1.71s.77,1.71,1.71,1.71,1.71-.77,1.71-1.71-.77-1.71-1.71-1.71Z"/><path class="cls-1" d="M18.71,10.4c-1.84,0-3.34-1.5-3.34-3.33s1.5-3.33,3.34-3.33,3.33,1.5,3.33,3.33-1.5,3.33-3.33,3.33Zm0-5.05c-.94,0-1.71,.77-1.71,1.71s.77,1.71,1.71,1.71,1.71-.77,1.71-1.71-.77-1.71-1.71-1.71Z"/><path class="cls-1" d="M27.7,10.4c-1.84,0-3.33-1.5-3.33-3.33s1.5-3.33,3.33-3.33,3.33,1.5,3.33,3.33-1.5,3.33-3.33,3.33Zm0-5.05c-.94,0-1.71,.77-1.71,1.71s.77,1.71,1.71,1.71,1.71-.77,1.71-1.71-.77-1.71-1.71-1.71Z"/><path class="cls-1" d="M16.34,40.26c-.45,0-.81-.36-.81-.81s.36-.81,.81-.81h3.92v-11.88c0-.45,.36-.81,.81-.81h6.31c.45,0,.81,.36,.81,.81v2.85h4.69v-8.22c0-.45,.36-.81,.81-.81h6.31c.45,0,.81,.36,.81,.81v2.82h4.69v-6.84c0-.45,.36-.81,.81-.81h6.31c.45,0,.81,.36,.81,.81v9.49h5.5c.45,0,.81,.36,.81,.81v10.96h3.92c.45,0,.81,.36,.81,.81s-.36,.81-.81,.81H16.34Zm37.08-1.62h4.69v-10.15h-4.69v10.15Zm-6.31,0h4.69V18.18h-4.69v20.45Zm-6.31,0h4.69v-12.8h-4.69v12.8Zm-6.31,0h4.69V22.2h-4.69v16.44Zm-6.31,0h4.69v-7.41h-4.69v7.41Zm-6.31,0h4.69v-11.06h-4.69v11.06Z"/><path class="cls-1" d="M20.31,56.52c-1.84,0-3.34-1.5-3.34-3.33s1.5-3.33,3.34-3.33c1.05,0,2.01,.48,2.65,1.32l.16,.21,15.69-5.3v-.27c0-1.84,1.5-3.34,3.33-3.34,1.72,0,3.14,1.29,3.32,2.99l.03,.27,11.22,2.53,.14-.23c.61-1,1.68-1.6,2.85-1.6,1.84,0,3.34,1.5,3.34,3.33s-1.5,3.33-3.34,3.33c-1.72,0-3.14-1.29-3.32-2.99l-.03-.27-11.22-2.54-.14,.23c-.61,1-1.68,1.6-2.85,1.6-1.05,0-2.01-.48-2.65-1.32l-.16-.21-15.69,5.3v.27c0,1.84-1.5,3.34-3.33,3.34Zm0-5.05c-.94,0-1.71,.77-1.71,1.71s.77,1.71,1.71,1.71,1.71-.77,1.71-1.71-.77-1.71-1.71-1.71Zm39.39-3.41c-.94,0-1.71,.77-1.71,1.71s.77,1.71,1.71,1.71,1.71-.77,1.71-1.71-.77-1.71-1.71-1.71Zm-19.16-1.69c.24,.69,.89,1.15,1.61,1.15,.94,0,1.71-.77,1.71-1.71s-.77-1.71-1.71-1.71c-.46,0-.89,.18-1.21,.5s-.5,.75-.5,1.21c0,.17,.02,.33,.07,.48v.03l.03,.06Z"/></g></g></svg>