<?xml version="1.0" encoding="UTF-8"?><svg id="Layer_2" xmlns="http://www.w3.org/2000/svg" viewBox="0 0 87.43 82.07"><defs><style>.cls-1{fill:#6cace3;}</style></defs><g id="work"><g><path class="cls-1" d="M59.41,26.86c-.21-.36-.67-.47-1.03-.26-.36,.21-.47,.67-.26,1.03,5.12,8.62,2.29,19.77-6.34,24.89-8.62,5.12-19.77,2.29-24.89-6.34-5.12-8.62-2.29-19.77,6.34-24.89,7.14-4.24,16.24-3.1,22.11,2.76,.29,.3,.76,.3,1.06,.01,0,0,0,0,.01-.01,.29-.29,.29-.76,0-1.06-7.63-7.64-20-7.64-27.64-.01-7.64,7.63-7.64,20-.01,27.64,7.63,7.64,20,7.64,27.64,.01,6.31-6.31,7.55-16.09,3.01-23.78Z"/><path class="cls-1" d="M34.03,57.8c-1.34-.55-2.63-1.22-3.84-2.02-.34-.23-.81-.15-1.04,.2-.23,.34-.15,.81,.2,1.04,0,0,.01,0,.02,.01,1.3,.85,2.67,1.57,4.11,2.15,.09,.04,.18,.06,.28,.06,.41,0,.75-.33,.76-.74,0-.31-.18-.59-.47-.71Z"/><path class="cls-1" d="M85.75,72.29l-15.9-15.93c-.29-.29-.76-.29-1.06,0l-1.15,1.16-4.03-4.04c-.29-.29-.77-.3-1.06,0,0,0,0,0,0,0-.29,.29-.29,.76,0,1.06l4.04,4.04-2.62,2.62-5.93-5.93c3.72-3.13,6.4-7.31,7.69-11.99h6.74c.41,0,.75-.34,.75-.75v-12.48c0-.41-.34-.75-.75-.75h-7.1c-4.19-12.61-17.81-19.44-30.42-15.26-12.61,4.19-19.44,17.81-15.26,30.42,1.5,4.53,4.32,8.51,8.09,11.43,.33,.25,.8,.2,1.05-.13,.25-.33,.2-.8-.13-1.05-9.85-7.64-11.64-21.82-4.01-31.67,7.64-9.85,21.82-11.64,31.67-4.01,9.85,7.64,11.64,21.82,4.01,31.67-4.28,5.51-10.86,8.74-17.84,8.74-1.45,0-2.9-.15-4.32-.43-.41-.08-.81,.19-.89,.61-.08,.41,.19,.81,.61,.89,1.52,.29,3.06,.44,4.61,.44,5.16,0,10.18-1.66,14.32-4.73l6.04,6.04-1.18,1.14c-.29,.29-.3,.77,0,1.06,0,0,0,0,0,0l15.93,15.93c2.24,2.24,5.87,2.24,8.11,0,2.24-2.24,2.24-5.87,0-8.11Zm-14.07-41.49v10.98h-5.6c.76-3.63,.67-7.39-.28-10.98h5.87Zm10.03,49.77c-1.12,0-2.19-.45-2.98-1.23l-4.71-4.72,1.38-1.38c.29-.29,.3-.77,0-1.06,0,0,0,0,0,0-.29-.29-.76-.29-1.06,0l-1.39,1.39-2.19-2.19,3-3c.29-.29,.29-.77,0-1.06s-.77-.29-1.06,0l-3,3-6.39-6.39,4.84-4.84,1.15-1.15,15.41,15.4c.81,.79,1.26,1.87,1.26,3h0c0,2.34-1.91,4.24-4.25,4.23Z"/><path class="cls-1" d="M84.31,74.22c-.16-.38-.6-.57-.98-.41s-.57,.6-.41,.98c.7,1.71,.1,2.6,.06,2.66-.25,.32-.19,.79,.13,1.04,.13,.11,.3,.16,.46,.16,.23,0,.44-.11,.58-.28,.05-.06,1.21-1.56,.15-4.15Z"/><path class="cls-1" d="M38.73,22.77c-.09,0-8.5,.58-10.08,9.11-.07,.41,.19,.79,.6,.87h.13c.37,0,.68-.25,.75-.61,1.31-7.34,8.35-7.85,8.65-7.87,.41-.02,.73-.38,.7-.79-.02-.4-.35-.7-.75-.7Z"/><path class="cls-1" d="M80.94,0H4.32C1.94,0,0,1.94,0,4.32V54.37c0,2.39,1.93,4.33,4.32,4.33H26.36c.41,0,.75-.34,.75-.75s-.34-.75-.75-.75H4.32c-1.56,0-2.82-1.26-2.82-2.82h0V17.46H25.35c.41,0,.75-.34,.75-.75s-.34-.75-.75-.75H1.5V4.32c0-1.56,1.26-2.82,2.82-2.82H80.94c1.56,0,2.83,1.26,2.83,2.82V15.96h-22.36c-.41,0-.75,.34-.75,.75,0,.41,.34,.75,.75,.75h22.36V54.37c0,1.56-1.27,2.83-2.83,2.83h-6.07c-.41,0-.75,.34-.75,.75s.34,.75,.75,.75h6.07c2.39,0,4.33-1.94,4.33-4.33V4.32c0-2.39-1.94-4.32-4.33-4.32Z"/><path class="cls-1" d="M25.35,5.15c-1.7,0-3.08,1.37-3.09,3.07s1.37,3.08,3.07,3.09c1.7,0,3.08-1.37,3.09-3.07h0c0-1.71-1.37-3.08-3.07-3.09Zm1.57,3.08c0,.87-.7,1.57-1.57,1.57-.87,0-1.58-.7-1.59-1.57,0-.87,.7-1.58,1.57-1.59s1.58,.7,1.59,1.57h0Z"/><path class="cls-1" d="M16.7,5.15c-1.7,0-3.08,1.38-3.08,3.08s1.38,3.08,3.08,3.08,3.08-1.38,3.08-3.08c0-1.7-1.38-3.08-3.08-3.08Zm0,4.66c-.87,0-1.58-.71-1.58-1.58s.71-1.58,1.58-1.58c.86,.01,1.56,.72,1.56,1.58h.02c0,.87-.71,1.58-1.58,1.58Z"/><path class="cls-1" d="M8.05,5.15c-1.7,0-3.08,1.38-3.08,3.08s1.38,3.08,3.08,3.08,3.08-1.38,3.08-3.08c0-1.7-1.38-3.08-3.08-3.08Zm1.57,3.08c0,.87-.71,1.58-1.58,1.58s-1.58-.71-1.58-1.58,.71-1.58,1.58-1.58h0c.87,0,1.57,.7,1.57,1.57h0Z"/><path class="cls-1" d="M78.33,5.15H32.87c-.41,0-.75,.34-.75,.75v4.65c0,.41,.34,.75,.75,.75h45.47c.41,0,.75-.34,.75-.75V5.9c0-.41-.34-.75-.75-.75Zm-.75,4.65H33.62v-3.15h43.97v3.15Z"/><path class="cls-1" d="M50.99,27.19h-10.01c-.41,0-.75,.34-.75,.75s.34,.75,.75,.75h9.26v15.21h-15.21v-9.35c0-.41-.34-.75-.75-.75s-.75,.34-.75,.75v10.1c0,.41,.34,.75,.75,.75h16.71c.41,0,.75-.34,.75-.75V27.94c0-.41-.34-.75-.75-.75Z"/><path class="cls-1" d="M17.01,41.54h-3.75v-10.49h2.88c.41,0,.75-.34,.75-.75s-.34-.75-.75-.75h-3.63c-.41,0-.75,.34-.75,.75v11.99c0,.41,.34,.75,.75,.75h4.5c.41,0,.75-.34,.75-.75s-.34-.75-.75-.75Z"/></g></g></svg>