<?xml version="1.0" encoding="UTF-8"?><svg id="Layer_2" xmlns="http://www.w3.org/2000/svg" viewBox="0 0 61.23 80.13"><defs><style>.cls-1{fill:#6cace3;}</style></defs><g id="work"><g><path class="cls-1" d="M.91,80.13c-.5,0-.91-.41-.91-.91V9.01c0-.5,.41-.91,.91-.91H38.87s-.1,0-.1,0c.08,0,.16,.02,.24,.05l.09,.03c.1,.04,.19,.1,.27,.18l13.5,13.5c.08,.08,.14,.16,.18,.26l.03,.09c.03,.07,.04,.15,.05,.23v.05s.02,.09,.02,.09v56.63c0,.5-.42,.91-.92,.91H.91Zm.91-1.83H51.3V23.43h-12.59c-.5,0-.91-.41-.91-.91V9.93H1.83V78.31ZM39.63,21.6h10.38l-10.38-10.38v10.38Z"/><path class="cls-1" d="M56.7,72.03v-1.83h2.7V1.83H9.93v2.7h-1.83V.91c0-.5,.41-.91,.91-.91H60.32c.5,0,.91,.41,.91,.91V71.12c0,.5-.41,.91-.91,.91h-3.61Z"/><rect class="cls-1" x="10.8" y="27" width="31.53" height="1.83"/><rect class="cls-1" x="10.8" y="18.9" width="9.93" height="1.83"/><rect class="cls-1" x="10.8" y="35.1" width="20.73" height="1.83"/><rect class="cls-1" x="35.1" y="35.1" width="7.23" height="1.83"/><rect class="cls-1" x="10.8" y="43.2" width="31.53" height="1.83"/><rect class="cls-1" x="10.8" y="59.4" width="31.53" height="1.83"/><rect class="cls-1" x="22.95" y="51.3" width="19.38" height="1.83"/><rect class="cls-1" x="10.8" y="51.3" width="8.58" height="1.83"/><rect class="cls-1" x="10.8" y="67.51" width="4.53" height="1.83"/><rect class="cls-1" x="18.9" y="67.51" width="23.43" height="1.83"/></g></g></svg>