<?xml version="1.0" encoding="UTF-8"?><svg id="Layer_2" xmlns="http://www.w3.org/2000/svg" viewBox="0 0 89.17 75.87"><defs><style>.cls-1{fill:#6cace3;}</style></defs><g id="work"><g><path class="cls-1" d="M72.24,38.28s-.03-.02-.04-.03c-.33-.26-.82-.21-1.09,.12l-3.1,3.94-1.47-1.85c-.29-.31-.79-.33-1.1-.03-.27,.26-.32,.68-.11,.99l2.07,2.61c.27,.34,.75,.39,1.09,.13,.05-.04,.09-.08,.13-.13l3.73-4.66c.27-.33,.23-.82-.1-1.09Z"/><path class="cls-1" d="M59.45,38.28s-.03-.02-.04-.03c-.33-.27-.82-.21-1.09,.12,0,0,0,0,0,0l-3.1,3.94-1.47-1.85c-.29-.31-.79-.33-1.1-.03-.27,.26-.32,.68-.11,.99l2.07,2.61c.27,.34,.75,.39,1.09,.13,.05-.04,.09-.08,.13-.13l3.73-4.66c.27-.33,.23-.82-.1-1.09Z"/><path class="cls-1" d="M33.93,47.56s-.02-.02-.04-.03c-.33-.26-.82-.21-1.09,.12l-3.1,3.94-1.49-1.85c-.29-.31-.79-.33-1.1-.03-.27,.26-.32,.68-.11,.99l2.06,2.61c.27,.34,.75,.39,1.09,.13,.05-.04,.09-.08,.13-.13l3.73-4.66c.28-.32,.25-.81-.08-1.09Z"/><path class="cls-1" d="M46.34,47.56s-.03-.02-.04-.03c-.33-.26-.82-.21-1.09,.12l-3.1,3.94-1.47-1.85c-.27-.34-.75-.39-1.09-.13s-.39,.75-.13,1.09l2.06,2.61c.15,.19,.37,.29,.61,.29,.24,0,.46-.11,.61-.29l3.73-4.66c.28-.33,.24-.82-.09-1.09Z"/><path class="cls-1" d="M21.15,47.56s-.03-.02-.04-.03c-.33-.27-.82-.21-1.09,.12,0,0,0,0,0,0l-3.1,3.94-1.47-1.85c-.24-.36-.72-.45-1.08-.22-.36,.24-.45,.72-.22,1.08,.02,.04,.05,.07,.08,.1l2.07,2.61c.27,.34,.75,.39,1.09,.13,.05-.04,.09-.08,.13-.13l3.73-4.66c.27-.33,.23-.82-.1-1.09Z"/><path class="cls-1" d="M85.03,51.14V4.9c0-.43-.35-.78-.78-.78h-10.56V.78c0-.43-.35-.78-.78-.78s-.78,.35-.78,.78v3.35h-13.63V.78c0-.43-.35-.78-.78-.78s-.78,.35-.78,.78v3.35h-13.63V.78c0-.43-.35-.78-.78-.78s-.78,.35-.78,.78v3.35h-13.63V.78c0-.43-.35-.78-.78-.78s-.78,.35-.78,.78v3.35H12.96V.78c0-.43-.35-.78-.78-.78s-.78,.35-.78,.78v3.35H.78c-.43,0-.78,.35-.78,.78v61.85c0,.43,.35,.78,.78,.78H68.65c.11,0,.22-.01,.33-.05,.09-.04,.18-.1,.26-.17l15.65-15.65c.06-.07,.12-.14,.16-.23v-.07c.01-.07,.01-.14,0-.21Zm-12.12-41.03c.52,0,.95,.42,.95,.94,0,.52-.42,.95-.94,.95-.52,0-.95-.42-.95-.94h0c0-.53,.42-.95,.94-.95Zm-15.18,0c.52,0,.95,.42,.95,.94,0,.52-.42,.95-.94,.95-.52,0-.95-.42-.95-.94h0c0-.53,.42-.95,.94-.95Zm-15.18,0c.52,0,.95,.42,.95,.94,0,.52-.42,.95-.94,.95-.52,0-.95-.42-.95-.94h0c0-.53,.42-.95,.94-.95Zm-15.18,0c.52,0,.95,.42,.95,.94,0,.52-.42,.95-.94,.95-.52,0-.95-.42-.95-.94h0c0-.53,.42-.95,.94-.95Zm-15.18,0c.52,0,.95,.42,.95,.94,0,.52-.42,.95-.94,.95s-.95-.42-.95-.94h0c0-.53,.42-.95,.94-.95Zm56.46,40.24c-.43,0-.78,.35-.78,.78v3.28h-4.77v-7.86h11.39v3.8h-5.84Zm5.84-13.12v7.76h-11.39v-7.76h11.39Zm-11.39-1.55v-7.76h11.39v7.76h-11.39Zm6.33,29.19v-12.97h13l-13,12.97Zm14.13-14.52h-7.51V27.14c0-.43-.35-.78-.78-.78H10.56c-.43,0-.78,.35-.78,.78v28.01c0,.43,.35,.78,.78,.78h57.31v10.04H1.55V18.27H83.55V50.35Zm-33.39-5.36v-7.76h11.39v7.76h-11.39Zm11.39,1.61v7.76h-11.39v-7.76h11.39Zm-11.39-10.93v-7.76h11.39v7.76h-11.39Zm-12.94,9.31v-7.76h11.39v7.76h-11.39Zm11.39,1.61v7.76h-11.39v-7.76h11.39Zm-11.39-10.93v-7.76h11.39v7.76h-11.39Zm-12.94,9.31v-7.76h11.39v7.76h-11.39Zm11.39,1.61v7.76h-11.39v-7.76h11.39Zm-11.39-10.93v-7.76h11.39v7.76h-11.39Zm-12.94,9.31v-7.76h11.39v7.76H11.34Zm11.39,1.61v7.76H11.34v-7.76h11.39Zm-11.39-10.93v-7.76h11.39v7.76H11.34ZM83.55,16.72H1.55V5.67H11.41v3.03c-1.31,.43-2.02,1.84-1.59,3.14,.43,1.31,1.84,2.02,3.14,1.59,1.31-.43,2.02-1.84,1.59-3.14-.25-.75-.84-1.34-1.59-1.59v-3.03h13.63v3.03c-1.31,.43-2.02,1.84-1.59,3.14,.43,1.31,1.84,2.02,3.14,1.59,1.31-.43,2.02-1.84,1.59-3.14-.25-.75-.84-1.34-1.59-1.59v-3.03h13.63v3.03c-1.31,.43-2.02,1.84-1.59,3.14,.43,1.31,1.84,2.02,3.14,1.59,1.31-.43,2.02-1.84,1.59-3.14-.25-.75-.84-1.34-1.59-1.59v-3.03h13.63v3.03c-1.31,.43-2.02,1.84-1.59,3.14,.43,1.31,1.84,2.02,3.14,1.59,1.31-.43,2.02-1.84,1.59-3.14-.25-.75-.84-1.34-1.59-1.59v-3.03h13.63v3.03c-1.31,.43-2.02,1.84-1.59,3.14,.43,1.31,1.84,2.02,3.14,1.59,1.31-.43,2.02-1.84,1.59-3.14-.25-.75-.84-1.34-1.59-1.59v-3.03h9.86v11.05h0Z"/><path class="cls-1" d="M88.4,8.56c-.43,0-.78,.35-.78,.78v60.77H6.72c-.43,0-.78,.35-.78,.78s.35,.78,.78,.78H88.4c.43,0,.78-.35,.78-.78V9.34c0-.43-.35-.78-.78-.78Z"/><path class="cls-1" d="M88.4,74.31H6.72c-.43,0-.78,.35-.78,.78s.35,.78,.78,.78H88.4c.43,0,.78-.35,.78-.78,0-.43-.35-.78-.78-.78Z"/></g></g></svg>