<?xml version="1.0" encoding="UTF-8"?><svg id="Layer_2" xmlns="http://www.w3.org/2000/svg" viewBox="0 0 74 92.25"><defs><style>.cls-1{fill:#6cace3;}</style></defs><g id="work"><g><path class="cls-1" d="M73.21,17.94c.44,0,.79-.36,.79-.79V6.67c0-3.68-3.06-6.67-6.81-6.67H6.76C2.97,0,0,2.93,0,6.67V73.52c0,3.79,3.03,6.87,6.76,6.87h15.39v11.08c0,.28,.14,.53,.37,.67,.13,.08,.27,.12,.42,.12,.12,0,.24-.03,.36-.08l7.63-3.81,7.62,3.81c.24,.12,.54,.11,.77-.03,.23-.15,.38-.4,.38-.68v-11.08l27.5-.05c3.75,0,6.81-3.06,6.81-6.82v-10.48c0-.44-.36-.79-.79-.79h-11.18V17.94h11.18ZM30.56,86.76l-6.83,3.41v-20l1.05,.58c1.89,1.06,4.04,1.62,6.21,1.62s4.22-.53,6.08-1.55l1.04-.57v19.91l-6.83-3.41c-.22-.11-.49-.11-.71,0Zm7.96-18.94c-.11,.06-.21,.15-.28,.25l-.05,.08-.07,.06c-2,1.66-4.54,2.58-7.13,2.58-2.77,0-5.43-1.03-7.49-2.89-2.34-2.12-3.69-5.14-3.69-8.29,0-6.16,5.01-11.18,11.18-11.18s11.18,5.01,11.18,11.18c0,3.04-1.27,5.99-3.49,8.1l-.07,.07-.08,.04Zm1.17,1.12l.21-.21c2.44-2.39,3.85-5.72,3.85-9.12,0-7.04-5.73-12.76-12.76-12.76s-12.76,5.73-12.76,12.76c0,3.34,1.35,6.62,3.72,8.99l.2,.21v9.99H6.76c-2.85,0-5.17-2.37-5.17-5.28V6.67C1.59,3.82,3.86,1.59,6.76,1.59H62.65l-.85,1.13c-.89,1.18-1.36,2.58-1.36,4.06V73.52c0,1.5,.48,2.92,1.38,4.11l.85,1.12-22.99,.04v-9.85Zm22.34,4.57v-9.69h10.38v9.69c0,2.83-2.39,5.23-5.23,5.23-2.84-.01-5.16-2.36-5.16-5.23ZM67.19,1.47v.11c2.88,0,5.22,2.28,5.22,5.08v9.69h-10.38V6.77c0-2.84,2.32-5.17,5.16-5.18v-.11Z"/><path class="cls-1" d="M30.98,52.89c-3.74,0-6.78,3.04-6.78,6.78s3.04,6.78,6.78,6.78,6.78-3.04,6.78-6.78-3.04-6.78-6.78-6.78Zm0,11.97c-2.86,0-5.19-2.33-5.19-5.19s2.33-5.19,5.19-5.19,5.19,2.33,5.19,5.19-2.33,5.19-5.19,5.19Z"/><path class="cls-1" d="M50.96,37.85H11.07c-.44,0-.79,.36-.79,.79s.36,.79,.79,.79H50.96c.44,0,.79-.36,.79-.79s-.36-.79-.79-.79Z"/><path class="cls-1" d="M44.98,43.84H17.05c-.44,0-.79,.36-.79,.79s.36,.79,.79,.79h27.93c.44,0,.79-.36,.79-.79s-.36-.79-.79-.79Z"/><path class="cls-1" d="M50.96,31.87h-5.99c-.44,0-.79,.36-.79,.79s.36,.79,.79,.79h5.99c.44,0,.79-.36,.79-.79s-.36-.79-.79-.79Z"/><path class="cls-1" d="M11.07,33.46h27.93c.44,0,.79-.36,.79-.79s-.36-.79-.79-.79H11.07c-.44,0-.79,.36-.79,.79s.36,.79,.79,.79Z"/><path class="cls-1" d="M17.02,25.51c.25,0,.48-.11,.63-.31l4.03-5.18,4.03,5.18c.15,.2,.38,.31,.62,.31s.48-.11,.63-.31l4.03-5.18,4.03,5.18c.15,.19,.38,.31,.63,.31s.48-.11,.63-.31l4.03-5.18,4.03,5.18c.15,.19,.38,.31,.63,.31,.12,0,.31-.03,.49-.17,.34-.27,.41-.77,.14-1.11l-4.65-5.98c-.15-.19-.38-.3-.63-.3s-.47,.11-.62,.31l-4.03,5.18-4.03-5.18c-.15-.19-.38-.3-.62-.3s-.48,.11-.63,.31l-4.03,5.18-4.03-5.18c-.15-.2-.38-.31-.62-.31s-.48,.11-.63,.31l-4.66,5.98c-.27,.34-.2,.84,.14,1.11,.18,.14,.36,.17,.49,.17Z"/></g></g></svg>