<?xml version="1.0" encoding="UTF-8"?><svg id="Layer_2" xmlns="http://www.w3.org/2000/svg" viewBox="0 0 92.2 92.2"><defs><style>.cls-1{fill:#6cace3;}</style></defs><g id="work"><g><path class="cls-1" d="M66.58,34.69v-3.07l-.54-.19c-1.21-.43-2.11-1.46-2.4-2.69h1.46c.33,.89,1.2,1.51,2.18,1.51,1.28,0,2.32-1.04,2.32-2.32s-1.04-2.33-2.32-2.33c-2.06,0-3.73-1.67-3.73-3.73,0-1.56,1-2.97,2.49-3.5l.54-.19v-3.07h1.4v3.07l.54,.19c1.21,.43,2.12,1.46,2.4,2.69h-1.46c-.33-.89-1.2-1.51-2.18-1.51-1.28,0-2.32,1.04-2.32,2.33s1.04,2.32,2.32,2.32c2.06,0,3.73,1.67,3.73,3.73,0,1.56-1,2.97-2.49,3.5l-.54,.19v3.07h-1.4Z"/><path class="cls-1" d="M67.28,40.75c-8.73,0-15.83-7.1-15.83-15.83s7.1-15.83,15.83-15.83,15.83,7.1,15.83,15.83-7.1,15.83-15.83,15.83Zm0-30.26c-7.96,0-14.43,6.47-14.43,14.43s6.47,14.43,14.43,14.43,14.43-6.47,14.43-14.43-6.47-14.43-14.43-14.43Z"/><path class="cls-1" d="M3.78,92.2c-2.08,0-3.78-1.69-3.78-3.78V46.15c0-2.08,1.69-3.78,3.78-3.78H47.95l.26-.5c.15-.36,.08-.72-.17-.97l-1.94-1.94,1.86-3.72-.17-.4c-.51-1.01-.94-2.06-1.3-3.14l-.13-.4-.43-.15-3.56-1.19v-10.09l3.93-1.31,.17-.38c.37-1.13,.8-2.18,1.31-3.17l.18-.36-.17-.4-1.68-3.38,7.13-7.13,3.53,1.76h.2s.23,.01,.23,.01l.2-.1c.98-.5,2.03-.93,3.11-1.28l.37-.12,.17-.39,1.21-3.6h10.09l1.31,3.93,.38,.17c1.13,.37,2.18,.8,3.17,1.31l.08,.04,.17,.05h.34s3.55-1.76,3.55-1.76l7.13,7.13-1.85,3.71,.16,.39c.52,1.02,.95,2.07,1.3,3.16l.12,.36,.39,.17,3.62,1.21v10.09l-3.96,1.32-.16,.41c-.35,1.09-.79,2.14-1.29,3.13l-.18,.35,.16,.4,1.69,3.39-7.13,7.13-3.53-1.76h-.39s-.18,.07-.18,.07c-1.02,.52-2.08,.95-3.16,1.31l-.39,.13-.16,.42-1.2,3.58h-4.26l-.08,.82v37.78c0,2.08-1.7,3.78-3.78,3.78H3.78Zm-2.37-5.24v1.46c0,1.31,1.06,2.37,2.37,2.37h60.44c1.31,0,2.37-1.06,2.37-2.37v-2.19l-.82-.08H1.49s-.08,.82-.08,.82Zm0-36.32v34.01s.82,.08,.82,.08H66.5s.09-.81,.09-.81v-9.8s-.82-.08-.82-.08h-12.1c-2.31,0-4.54-.98-6.1-2.69-1.59-1.73-2.34-3.98-2.13-6.33,.38-4.21,4.13-7.51,8.54-7.51h12.52l.09-.82v-6.77s-.82-.08-.82-.08H1.49s-.08,.82-.08,.82Zm52.26,8.26c-1.96,0-3.84,.84-5.14,2.32-1.3,1.47-1.91,3.44-1.67,5.4,.42,3.43,3.45,6.01,7.06,6.01h12.58l.09-.82v-12.82s-.82-.08-.82-.08h-12.1Zm9.56-10.54l.6,.06h7.43s.24-.55,.24-.55l1.06-3.18,.36-.1c1.52-.43,2.97-1.03,4.3-1.78l.32-.18,3.12,1.56h.2s.35,0,.35,0l.27-.25,5.24-5.24-.24-.57-1.48-2.97,.18-.32c.74-1.33,1.34-2.78,1.77-4.3l.1-.35,3.67-1.23,.06-.6v-7.43s-.55-.24-.55-.24l-3.18-1.06-.1-.36c-.43-1.52-1.03-2.97-1.78-4.3l-.18-.32,1.73-3.45-.38-.47-5.08-5.09-.37-.02h-.2l-.19,.08-2.97,1.48-.32-.18c-1.34-.75-2.79-1.34-4.3-1.77l-.35-.1-1.23-3.67-.6-.06h-7.43s-.24,.55-.24,.55l-1.06,3.18-.36,.1c-1.52,.43-2.97,1.03-4.3,1.77l-.32,.18-3.12-1.56h-.2s-.34,0-.34,0l-.27,.23-5.24,5.24,.21,.56,1.5,3-.18,.32c-.75,1.34-1.34,2.79-1.77,4.3l-.1,.35-3.67,1.23-.06,.6v7.43s.55,.24,.55,.24l3.18,1.06,.1,.36c.43,1.52,1.03,2.97,1.77,4.3l.18,.32-1.73,3.47,.41,.47,5.06,5.07,.35,.02h.22s.19-.09,.19-.09l2.96-1.48,.32,.18c1.34,.74,2.78,1.34,4.3,1.77l.35,.1,1.23,3.67ZM3.78,43.77c-1.31,0-2.37,1.06-2.37,2.37v2.19l.82,.08H61.77s-.85-2.55-.85-2.55l-.41-.16c-1.1-.36-2.15-.79-3.13-1.29l-.08-.04-.18-.05h-.31s-.19,.08-.19,.08l-3.38,1.69-2.3-2.3-.35-.02H3.78Z"/><path class="cls-1" d="M6.76,55.88c-.39,0-.7-.31-.7-.7s.32-.7,.7-.7,.7,.31,.7,.7-.31,.7-.7,.7Z"/><path class="cls-1" d="M6.76,61.93c-.39,0-.7-.31-.7-.7s.32-.7,.7-.7,.7,.31,.7,.7-.31,.7-.7,.7Z"/><path class="cls-1" d="M6.76,67.99c-.39,0-.7-.31-.7-.7s.32-.7,.7-.7,.7,.31,.7,.7-.31,.7-.7,.7Z"/><path class="cls-1" d="M6.76,74.04c-.39,0-.7-.32-.7-.7s.32-.7,.7-.7,.7,.31,.7,.7-.31,.7-.7,.7Z"/><path class="cls-1" d="M6.76,80.09c-.39,0-.7-.31-.7-.7s.32-.7,.7-.7,.7,.31,.7,.7-.31,.7-.7,.7Z"/><path class="cls-1" d="M53.67,69.5c-2.06,0-3.73-1.67-3.73-3.73s1.67-3.73,3.73-3.73,3.73,1.67,3.73,3.73-1.67,3.73-3.73,3.73Zm0-6.05c-1.28,0-2.33,1.04-2.33,2.32s1.04,2.32,2.33,2.32,2.32-1.04,2.32-2.32-1.04-2.32-2.32-2.32Z"/></g></g></svg>