<?xml version="1.0" encoding="UTF-8"?><svg id="Layer_2" xmlns="http://www.w3.org/2000/svg" viewBox="0 0 88.23 81.77"><defs><style>.cls-1{fill:#6cace3;}</style></defs><g id="work"><g><rect class="cls-1" x="6.46" y="78.9" width="4.1" height="1.63"/><path class="cls-1" d="M88.23,49.74V0H19.24V23.51l-13.13,10.38-.04,.04c-2.52,2.31-4.15,5.83-4.15,8.97v28.31H0v10.56H1.63v-8.93H34.64v8.93h1.63v-10.56h-1.92v-3.87c1.43-.91,5.77-4.23,5.77-10.72v-4.52h-.01c-.04-.41-.38-.74-.8-.74s-.76,.33-.8,.74h-.01v4.52c0,6.58-5.12,9.42-5.34,9.54l-.43,.23v4.82H3.55v-28.31c0-2.7,1.41-5.74,3.59-7.75l12.1-9.56v12.6c-4.17,4.09-8.56,8.39-9.9,9.7l-.2,.2h0c-.15,.15-.25,.35-.25,.58,0,.45,.37,.81,.81,.81,.22,0,.42-.09,.57-.24h0s.19-.18,.19-.18c2.39-2.34,14.5-14.18,17.77-17.46,.75-.75,1.46-.81,2.23-.18,1.85,1.52,3.05,6.3,.87,9.53-1.38,1.92-6.75,7.95-7.81,9.15l-.38,.43,.22,.48c3.26,7.28-1.46,13.19-1.66,13.44l-.08,.1h.01c-.11,.15-.19,.32-.19,.51,0,.45,.37,.81,.81,.81,.25,0,.46-.12,.61-.29h0s.08-.09,.08-.09c.22-.27,5.37-6.65,2.1-14.65,.21-.23,.54-.61,.96-1.08h62.2ZM31.51,30.16c-1.42-1.17-3.07-1.06-4.41,.29-1.19,1.19-3.57,3.54-6.22,6.14V1.63H86.6V48.11H27.46c1.91-2.19,4.32-4.98,5.22-6.23,2.51-3.72,1.45-9.55-1.17-11.72Z"/><path class="cls-1" d="M41.23,36.3c.42,0,.75-.32,.8-.72h.02V12.24h-.02c-.05-.41-.38-.72-.8-.72s-.75,.32-.8,.72h-.02v23.34h.02c.05,.41,.38,.72,.8,.72Z"/><path class="cls-1" d="M48.93,36.3c.42,0,.75-.32,.8-.72h.02V12.24h-.02c-.05-.41-.38-.72-.8-.72s-.75,.32-.8,.72h-.02v23.34h.02c.05,.41,.38,.72,.8,.72Z"/><path class="cls-1" d="M54.7,36.3c.42,0,.75-.32,.8-.72h.02V12.24h-.02c-.05-.41-.38-.72-.8-.72s-.75,.32-.8,.72h-.02v23.34h.02c.05,.41,.38,.72,.8,.72Z"/><path class="cls-1" d="M61.58,35.49s0,0,0,0v.09h.02c.05,.41,.38,.72,.8,.72s.75-.32,.8-.72h.02V12.24h-.02c-.05-.41-.38-.72-.8-.72s-.75,.32-.8,.72h-.02v.09s0,0,0,0,0,0,0,0v23.16s0,0,0,0Z"/><path class="cls-1" d="M68.17,36.3c.42,0,.75-.32,.8-.72h.02V12.24h-.02c-.05-.41-.38-.72-.8-.72s-.75,.32-.8,.72h-.02v23.34h.02c.05,.41,.38,.72,.8,.72Z"/></g></g></svg>