<?xml version="1.0" encoding="UTF-8"?><svg id="Layer_2" xmlns="http://www.w3.org/2000/svg" viewBox="0 0 73.79 91"><defs><style>.cls-1{fill:#6cace3;}</style></defs><g id="work"><g><path class="cls-1" d="M32.26,36.03c-.74-.83-1.8-1.3-2.91-1.28-1.11-.02-2.17,.45-2.92,1.27-.27,.31-.24,.78,.07,1.06,.14,.12,.32,.19,.5,.19,.22,0,.43-.1,.58-.27,.96-.97,2.52-.99,3.5-.03,.01,.01,.02,.02,.03,.03,.27,.32,.74,.36,1.06,.09,.32-.27,.36-.74,.09-1.06Z"/><path class="cls-1" d="M46.52,36.03c-1.49-1.61-3.99-1.71-5.6-.22-.08,.07-.15,.14-.22,.22-.27,.32-.23,.79,.09,1.06s.79,.23,1.06-.09c.96-.97,2.52-.99,3.5-.03,.01,.01,.02,.02,.03,.03,.14,.17,.35,.27,.58,.27,.41,0,.75-.34,.75-.75,0-.18-.06-.35-.18-.49Z"/><path class="cls-1" d="M68.3,73.37l-13.23-8.24-4.14-7.1v-.04s-.05-.05-.07-.07c-.03-.04-.07-.07-.11-.1-.04-.03-.08-.05-.13-.07-.04-.02-.09-.03-.13-.04h-.28s-.09,.03-.13,.04c-.04,0-.07,.02-.1,.04l-1.77,1.21v-2.79c4.08-3.96,6.28-9.59,7.01-14.45,.82,.52,1.77,.8,2.74,.8h.75c2.83,0,5.12-2.29,5.13-5.12v-11c0-2.83-2.3-5.12-5.13-5.12h-.21C58.1,9.17,47.92-.38,35.76,.01,24.14,.38,14.81,9.71,14.44,21.33h-.22c-2.8,.02-5.05,2.29-5.06,5.09v11.05c0,2.81,2.28,5.09,5.1,5.09l.2,5.07c0,.38,.27,.7,.64,.75l20.24,2.89h.1c.41,.03,.77-.28,.8-.7s-.28-.77-.7-.8l-19.64-2.83-.16-4.43c2.48-.38,4.31-2.51,4.32-5.02v-6.66c5.25-1.33,8.69-4.29,9.82-8.39,2.59,4.64,9.46,8.61,20.74,8.61,.75,0,1.45,0,2.19-.05v6.44c0,1.16,.39,2.28,1.12,3.18-.07,.1-.11,.21-.13,.32v.15c-.63,4.78-2.77,10.4-6.85,14.24l-.04,.04c-1.47,1.39-3.18,2.5-5.04,3.27-6.2,2.54-13.42,.25-17.99-5.72-.25-.34-.74-.41-1.08-.15-.34,.25-.41,.74-.15,1.08,.86,1.13,1.84,2.17,2.92,3.1v2.35l-2.04-1.5h-.04s-.07-.03-.1-.04c-.04-.02-.09-.03-.13-.04h-.28s-.09,.03-.13,.04c-.04,.02-.09,.04-.13,.07-.04,.03-.08,.06-.11,.1-.03,.02-.05,.04-.07,.07v.04l-4.11,7.04-12.91,7.92c-1.3,.8-2.42,1.84-3.31,3.08C.76,78.05,0,80.43,0,82.87v7.38c0,.41,.34,.75,.75,.75s.75-.34,.75-.75v-7.38c0-3.5,1.81-6.75,4.79-8.6l12.11-7.49,10.06,10.96c.14,.15,.34,.24,.55,.24,.21,0,.41-.09,.55-.25l7.13-8.03,7.13,8.04c.14,.16,.34,.25,.55,.25,.21,0,.41-.09,.55-.24l10.04-10.95,12.53,7.84c2.99,1.83,4.8,5.09,4.79,8.6v7.01c0,.41,.34,.75,.75,.75s.75-.34,.75-.75v-7.01c.02-4.02-2.07-7.76-5.49-9.87Zm-9.59-50.54c2,0,3.62,1.62,3.63,3.62v10.99c0,2-1.63,3.62-3.63,3.62h-.75c-2,0-3.62-1.62-3.63-3.62v-10.99c0-2,1.63-3.62,3.63-3.62h.75Zm-40.13,14.64c0,1.98-1.61,3.59-3.6,3.59h-.75c-1.97-.02-3.56-1.62-3.56-3.59v-11.05c0-1.98,1.61-3.59,3.6-3.59h.75c1.98,0,3.59,1.61,3.6,3.59l-.04,11.05Zm34.27-11.02v3.06c-10.42,.43-21.37-2.92-22.55-10.31v-.08s-.03-.1-.05-.14c-.02-.04-.05-.08-.08-.12l-.09-.1-.13-.07-.12-.06h-.5l-.14,.05-.11,.07s-.07,.07-.1,.1c-.03,.03-.05,.07-.07,.11-.03,.04-.05,.08-.06,.13-.01,.05-.01,.1,0,.15,0,.03,0,.06,0,.09,0,6.46-5.16,8.99-8.73,9.98v-2.89c0-1.03-.32-2.04-.91-2.89,.15-.12,.25-.29,.28-.47,1.28-9.41,9.95-16,19.36-14.71,7.65,1.04,13.67,7.06,14.71,14.71,.03,.17,.12,.33,.25,.44-.61,.86-.94,1.89-.94,2.95ZM33.48,6.91c-7.93,1.28-14.15,7.51-15.44,15.44-.63-.47-1.36-.78-2.13-.93C16.29,10.08,25.78,1.19,37.12,1.57c10.81,.36,19.49,9.04,19.85,19.85h.03c-.77,.14-1.5,.46-2.12,.93-1.65-10.17-11.23-17.09-21.4-15.44Zm-4.48,69.2l-9.4-10.24,3.75-6.39,12.25,9.2-6.6,7.43Zm-1.9-15.68v-2.34c2.79,1.98,6.12,3.06,9.54,3.1,1.98,0,3.95-.38,5.78-1.14,1.54-.64,2.98-1.5,4.27-2.54v2.62l-9.99,7.49-9.6-7.19Zm17.29,15.68l-6.6-7.43,12.27-9.2,3.75,6.39-9.42,10.24Z"/><path class="cls-1" d="M36.7,84.05c-.41,0-.75,.34-.75,.75v5.46c0,.41,.34,.75,.75,.75s.75-.34,.75-.75v-5.46c0-.41-.34-.75-.75-.75Z"/><path class="cls-1" d="M36.7,78.57c-.41,0-.75,.34-.75,.75v1.13c0,.41,.34,.75,.75,.75s.75-.34,.75-.75v-1.13c0-.41-.34-.75-.75-.75Z"/></g></g></svg>