<?xml version="1.0" encoding="UTF-8"?><svg id="Layer_2" xmlns="http://www.w3.org/2000/svg" viewBox="0 0 75.49 82"><defs><style>.cls-1{fill:#6cace3;}</style></defs><g id="work"><g><path class="cls-1" d="M60.45,73.67c-5.68,4.41-12.67,6.8-19.86,6.79-.36,0-.64,.29-.64,.64s.29,.64,.64,.64c2.6,0,5.2-.3,7.73-.89,4.7-1.1,9.11-3.2,12.93-6.17,.29-.2,.37-.6,.17-.89s-.6-.37-.89-.17c-.02,.01-.04,.03-.06,.05h0Z"/><path class="cls-1" d="M63.94,71.48c.12,.12,.28,.18,.44,.18,.18,0,.34-.07,.46-.2,1.07-1.1,2.06-2.27,2.97-3.51,.21-.29,.15-.68-.14-.9-.29-.21-.69-.15-.9,.13,0,0,0,0,0,0-.88,1.19-1.83,2.32-2.86,3.38-.25,.26-.24,.66,.02,.91,0,0,0,0,0,0Z"/><path class="cls-1" d="M18.34,19.39c-.2,.3-.11,.7,.18,.89,.28,.19,.65,.12,.86-.14,1.49-2.06,3.22-4.27,5.23-6.77,2.12-2.62,4.32-5.22,6.44-7.73,.19-.3,.09-.7-.21-.89-.25-.15-.56-.12-.78,.08-2.13,2.53-4.33,5.15-6.44,7.76-2.05,2.49-3.78,4.72-5.28,6.8Z"/><path class="cls-1" d="M15.78,23.07c-.53,.8-1.04,1.6-1.52,2.38-.64,1.01-1.22,2.02-1.76,3-.17,.31-.06,.7,.25,.88h0c.09,.06,.2,.08,.31,.08,.24,0,.45-.13,.57-.34,.53-.96,1.11-1.93,1.73-2.94,.48-.77,.98-1.55,1.5-2.34,.2-.3,.12-.7-.18-.9-.3-.2-.7-.12-.9,.18h0Z"/><path class="cls-1" d="M40.59,73.78c14.22-.03,25.75-11.55,25.77-25.77,0-10.45-7.09-20.66-14.82-30.13-.21-.29-.61-.35-.9-.14s-.35,.61-.14,.9c.01,.02,.03,.03,.04,.05,7.53,9.29,14.5,19.27,14.5,29.32,0,13.54-10.97,24.51-24.51,24.51s-24.51-10.97-24.51-24.51c0-12.15,10.24-24.3,21.1-37.15,1.14-1.35,2.28-2.71,3.41-4.07l2.85,3.36c1.1,1.29,2.19,2.58,3.27,3.87,.23,.27,.64,.31,.91,.08,.27-.23,.31-.64,.08-.91h0c-1.08-1.29-2.17-2.58-3.27-3.87s-2.18-2.67-3.29-3.99c-.12-.14-.3-.23-.49-.23-.19,0-.38,.08-.5,.23-1.29,1.55-2.59,3.1-3.9,4.65-11.01,13.04-21.4,25.35-21.4,38.02,.02,14.24,11.56,25.78,25.8,25.79Z"/><path class="cls-1" d="M7.51,54.27c-.12-.14-.31-.23-.5-.23-.19,0-.37,.08-.5,.23-.32,.39-.64,.78-.99,1.17-2.85,3.37-5.53,6.56-5.53,9.95,0,3.88,3.14,7.02,7.02,7.02s7.02-3.14,7.02-7.02c0-3.43-2.76-6.68-5.68-10.12l-.84-1.01Zm-.5,16.84c-3.15,0-5.71-2.55-5.73-5.71,0-2.9,2.55-5.91,5.23-9.1l.5-.59,.35,.41c2.76,3.22,5.37,6.31,5.37,9.28-.01,3.15-2.57,5.71-5.73,5.71Z"/><path class="cls-1" d="M6.37,68.12c0,.36,.29,.64,.64,.64h0c1.86,0,3.37-1.51,3.38-3.36,0-.36-.29-.64-.64-.64s-.64,.29-.64,.64c0,1.15-.93,2.09-2.09,2.09-.35,0-.63,.28-.64,.63Z"/><path class="cls-1" d="M68.96,12.65c-.12-.14-.3-.23-.49-.23-.19,0-.37,.08-.5,.23l-.99,1.2c-2.83,3.35-5.53,6.53-5.53,9.91,0,3.88,3.14,7.02,7.02,7.01,3.87,0,7.01-3.14,7.01-7.01,0-3.44-2.76-6.69-5.68-10.12l-.84-.99Zm-.49,16.84c-3.16,0-5.72-2.56-5.73-5.72,0-2.91,2.54-5.92,5.23-9.1,.17-.19,.34-.39,.5-.59l.35,.41c2.77,3.22,5.38,6.31,5.38,9.28,0,3.16-2.57,5.72-5.73,5.72Z"/><path class="cls-1" d="M67.83,26.5c0,.36,.29,.64,.64,.64,1.86,0,3.37-1.51,3.38-3.38,0-.36-.29-.64-.64-.64s-.64,.29-.64,.64c0,1.15-.94,2.08-2.09,2.09-.36,0-.64,.29-.64,.64Z"/><path class="cls-1" d="M59.84,.23C59.72,.08,59.54,0,59.34,0c-.19,0-.37,.09-.5,.23l-.58,.7c-1.73,2.05-3.36,3.99-3.36,6.1-.09,2.45,1.82,4.52,4.27,4.61,2.45,.09,4.52-1.82,4.61-4.27,0-.11,0-.23,0-.34,0-2.15-1.68-4.12-3.45-6.2l-.5-.59Zm-.5,9.95c-1.74,0-3.15-1.42-3.15-3.16,0-1.64,1.48-3.4,3.05-5.26l.1-.12c1.62,1.9,3.14,3.69,3.14,5.37,0,1.74-1.41,3.16-3.15,3.17Z"/><path class="cls-1" d="M17.19,70.36c-.19,0-.37,.09-.49,.23l-.59,.7c-1.73,2.05-3.36,3.98-3.36,6.09-.09,2.45,1.82,4.52,4.27,4.61,2.45,.09,4.52-1.82,4.61-4.27,0-.11,0-.23,0-.34,0-2.15-1.68-4.12-3.45-6.2l-.5-.59c-.12-.15-.3-.23-.5-.23h0Zm3.16,7.02c.08,1.74-1.27,3.22-3.01,3.3-1.74,.08-3.22-1.27-3.3-3.01,0-.1,0-.19,0-.29,0-1.64,1.48-3.4,3.05-5.26l.1-.12c1.62,1.91,3.15,3.7,3.15,5.37h0Z"/><path class="cls-1" d="M60.74,55.53c-.33-.14-.71,.02-.84,.35,0,0,0,0,0,0-1.72,4.16-4.73,7.65-8.58,9.97-.31,.18-.41,.58-.23,.88,.12,.2,.33,.32,.56,.32,.12,0,.23-.03,.33-.09,4.09-2.47,7.28-6.17,9.11-10.58,.14-.33-.01-.71-.34-.85,0,0,0,0-.01,0Z"/><path class="cls-1" d="M61.59,52.64h.12c.31,0,.58-.21,.64-.52,.26-1.38,.4-2.77,.39-4.18,0-.36-.29-.64-.64-.64s-.64,.29-.64,.64c0,1.32-.12,2.64-.37,3.94-.07,.35,.15,.69,.5,.76,0,0,0,0,0,0Z"/><path class="cls-1" d="M50.69,36.76h-1.25c-3.04,0-5.5,2.46-5.5,5.5v8.49c0,3.04,2.47,5.5,5.5,5.5h1.25c3.04,0,5.5-2.47,5.5-5.5v-8.49c0-3.04-2.47-5.49-5.5-5.5h0Zm4.21,13.98c0,2.32-1.89,4.21-4.21,4.21h-1.25c-2.33,0-4.21-1.89-4.21-4.21v-8.49c0-2.32,1.89-4.21,4.21-4.21h1.25c2.32,0,4.21,1.88,4.21,4.21v8.49Z"/><path class="cls-1" d="M37.69,56.24c.36,0,.64-.29,.64-.64h0v-18.2c0-.36-.29-.64-.64-.64s-.64,.29-.64,.64v8.45h-9.35v-8.45c0-.36-.29-.64-.64-.64s-.64,.29-.64,.64v18.2c0,.36,.29,.64,.64,.64s.64-.29,.64-.64v-8.45h9.35v8.45c0,.36,.29,.64,.64,.64h0Z"/><path class="cls-1" d="M43.96,57.96c.82-1.04,.64-2.55-.4-3.37-1.04-.82-2.55-.64-3.37,.4-.33,.41-.51,.92-.51,1.45,0,.36,.29,.64,.64,.64s.64-.29,.64-.64c.05-.61,.58-1.07,1.2-1.03,.55,.04,.98,.48,1.03,1.03,0,.26-.09,.51-.25,.7l-2.87,3.47c-.22,.28-.18,.68,.09,.91,.11,.09,.26,.14,.4,.14h3.27c.36,0,.64-.29,.64-.64s-.29-.64-.64-.64h-1.88l2-2.41Z"/></g></g></svg>