<?xml version="1.0" encoding="UTF-8"?><svg id="Layer_2" xmlns="http://www.w3.org/2000/svg" viewBox="0 0 90 78.02"><defs><style>.cls-1{fill:#6cace3;}</style></defs><g id="work"><g><path class="cls-1" d="M83.25,12.62v-.05c-.03-.08-.07-.15-.11-.22-.06-.06-.13-.12-.2-.16h-.05c-.07-.03-.14-.05-.22-.06-.07-.01-.14-.01-.21,0l-6.83,1.49c-.41,.06-.69,.43-.63,.84,.06,.41,.43,.69,.84,.63,.04,0,.07-.01,.11-.02l3.89-.85-21.02,17.55-4.95-5.67c-.24-.27-.64-.33-.94-.14l-16.27,9.91-3.56-3.87c-.23-.25-.61-.31-.91-.15l-21.25,11.72c-.35,.22-.45,.68-.22,1.03,.13,.2,.34,.33,.58,.34,.12,0,.25-.03,.36-.09l20.75-11.44,3.56,3.89c.24,.26,.63,.32,.94,.13l16.27-9.89,5.01,5.75c.27,.3,.72,.34,1.03,.08l21.73-18.3-1.35,3.9c-.14,.39,.07,.81,.45,.95,0,0,0,0,0,0,.08,.02,.16,.04,.25,.04,.32,0,.6-.2,.7-.5l2.23-6.45c0-.05,0-.11,0-.16,.01-.08,.01-.17,0-.25Z"/><path class="cls-1" d="M24.37,40.14c-.41,0-.74,.33-.74,.74v4.41h-2.77v-2.05c0-.41-.33-.74-.74-.74s-.74,.33-.74,.74v2.8c0,.41,.33,.74,.74,.74h4.25c.41,0,.74-.33,.74-.74v-5.15c0-.41-.33-.74-.74-.74Z"/><path class="cls-1" d="M32.89,38.57s-.03,0-.04,0c-.41,0-.74,.33-.74,.74v5.95h-2.73v-5.95c0-.41-.33-.74-.74-.74s-.74,.33-.74,.74v6.69c0,.41,.33,.74,.74,.74h4.25c.41,0,.74-.33,.74-.74v-6.69c0-.41-.33-.74-.74-.74Z"/><path class="cls-1" d="M49.8,33.86c-.41,0-.74,.33-.74,.74v10.7h-2.76v-7.56c0-.41-.33-.74-.74-.74s-.74,.33-.74,.74v8.3c0,.41,.33,.74,.74,.74h4.25c.41,0,.74-.33,.74-.74v-11.44c0-.41-.33-.74-.74-.74Z"/><path class="cls-1" d="M58.31,38.57s-.02,0-.03,0c-.41,0-.74,.33-.74,.74v5.95h-2.76v-9.1c0-.41-.33-.74-.74-.74s-.74,.33-.74,.74v9.87c0,.41,.33,.74,.74,.74h4.25c.41,0,.74-.33,.74-.74v-6.69c.02-.41-.3-.76-.71-.77Z"/><path class="cls-1" d="M66.76,33.86c-.41,0-.74,.33-.74,.74v10.7h-2.76v-8.34c0-.41-.33-.74-.74-.74s-.74,.33-.74,.74v9.08c0,.41,.33,.74,.74,.74h4.25c.41,0,.74-.33,.74-.74v-11.44c0-.41-.33-.74-.74-.74Z"/><path class="cls-1" d="M41.33,40.14c-.41,0-.74,.33-.74,.74v4.41h-2.77v-2.83c0-.41-.33-.74-.74-.74s-.74,.33-.74,.74v3.58c0,.41,.33,.74,.74,.74h4.25c.41,0,.74-.33,.74-.74v-5.15c0-.41-.33-.74-.74-.74Z"/><path class="cls-1" d="M66.76,8.9h-4.25c-.41,0-.74,.33-.74,.74v13.01c0,.41,.33,.74,.74,.74s.74-.33,.74-.74V10.38h2.76v8.38c0,.41,.33,.74,.74,.74s.74-.33,.74-.74V9.64c0-.41-.33-.74-.74-.74Z"/><path class="cls-1" d="M49.8,13.57h-4.25c-.41,0-.74,.33-.74,.74v11.48c0,.41,.33,.74,.74,.74s.74-.33,.74-.74V15.05h2.76v7.59c0,.41,.33,.74,.74,.74s.74-.33,.74-.74V14.31c0-.41-.33-.74-.74-.74Z"/><path class="cls-1" d="M41.33,23h-4.25c-.41,0-.74,.33-.74,.74v6.77c0,.41,.33,.74,.74,.74s.74-.33,.74-.74v-6.02h2.77v3.67c0,.41,.33,.74,.74,.74s.74-.33,.74-.74v-4.41c0-.41-.33-.74-.74-.74Z"/><path class="cls-1" d="M32.89,19.86h-4.25c-.41,0-.74,.33-.74,.74v8.33c0,.41,.33,.74,.74,.74s.74-.33,.74-.74v-7.59h2.77v5.21c0,.41,.33,.74,.74,.74s.74-.33,.74-.74v-5.95c0-.41-.33-.74-.74-.74Z"/><path class="cls-1" d="M24.37,26.93h-4.25c-.41,0-.74,.33-.74,.74v5.95c0,.41,.33,.74,.74,.74s.74-.33,.74-.74v-5.21h2.77v2.88c0,.41,.33,.74,.74,.74s.74-.33,.74-.74v-3.62c0-.41-.33-.74-.74-.74Z"/><path class="cls-1" d="M58.28,16.7h-4.25c-.41,0-.74,.33-.74,.74v4.32c0,.41,.32,.75,.73,.76,0,0,.01,0,.02,0,.41,0,.74-.33,.74-.74v-3.59h2.76v6.76c0,.41,.33,.74,.74,.74s.74-.33,.74-.74v-7.5c0-.41-.33-.74-.74-.74Z"/><path class="cls-1" d="M84.71,0H5.29C2.37,0,0,2.37,0,5.29V60.33c0,2.92,2.37,5.28,5.29,5.29h27.71l-2.34,10.92h-8.44c-.41,0-.74,.33-.74,.74s.33,.74,.74,.74h45.57c.41,0,.74-.33,.74-.74s-.33-.74-.74-.74h-8.44l-2.34-10.92h27.71c2.92,0,5.28-2.37,5.29-5.29V5.29c0-2.92-2.37-5.28-5.29-5.29Zm-26.89,76.54h-25.65l2.34-10.92h20.98l2.34,10.92Zm30.69-16.21c0,2.1-1.7,3.8-3.8,3.8H5.29c-2.1,0-3.8-1.7-3.8-3.8v-8.52H88.51v8.52Zm0-10H1.49V5.29c0-2.1,1.7-3.8,3.8-3.8H84.71c2.1,0,3.8,1.7,3.8,3.8V50.33Z"/><path class="cls-1" d="M45,55.47c-1.5,0-2.71,1.22-2.71,2.71s1.22,2.71,2.71,2.71,2.71-1.22,2.71-2.71c0-1.5-1.22-2.71-2.71-2.71Zm0,3.94c-.68,0-1.23-.55-1.23-1.23s.55-1.23,1.23-1.23,1.23,.55,1.23,1.23-.55,1.23-1.23,1.23Z"/><path class="cls-1" d="M46.61,4.14h-3.23c-.41,0-.74,.33-.74,.74s.33,.74,.74,.74h3.23c.41,0,.74-.33,.74-.74s-.33-.74-.74-.74Z"/><path class="cls-1" d="M15.99,10.34h-7.29c-.41,0-.74,.33-.74,.74s.33,.74,.74,.74h7.29c.41,0,.74-.33,.74-.74s-.33-.74-.74-.74Z"/><path class="cls-1" d="M12.38,18.7h-3.64c-.41,0-.74,.33-.74,.74s.33,.74,.74,.74h3.64c.41,0,.74-.33,.74-.74s-.33-.74-.74-.74Z"/><path class="cls-1" d="M21.35,18.7h-5.61c-.41,0-.74,.33-.74,.74s.33,.74,.74,.74h5.61c.41,0,.74-.33,.74-.74s-.33-.74-.74-.74Z"/><path class="cls-1" d="M23.43,14.52h-1.74c-.41,0-.74,.33-.74,.74s.33,.74,.74,.74h1.74c.41,0,.74-.33,.74-.74s-.33-.74-.74-.74Z"/><path class="cls-1" d="M17.71,14.52H8.73c-.41,0-.74,.33-.74,.74s.33,.74,.74,.74h8.98c.41,0,.74-.33,.74-.74s-.33-.74-.74-.74Z"/></g></g></svg>