<?xml version="1.0" encoding="UTF-8"?><svg id="Layer_2" xmlns="http://www.w3.org/2000/svg" viewBox="0 0 108.26 85.18"><defs><style>.cls-1{fill:#6cace3;}</style></defs><g id="work"><g><path class="cls-1" d="M75.47,59.2c-.27,.04-.5,.18-.66,.39-.16,.22-.23,.48-.19,.75,.14,.95,.21,1.92,.21,2.89,0,11-8.95,19.94-19.94,19.94s-19.94-8.95-19.94-19.94,8.95-19.94,19.94-19.94c2.69,0,5.31,.53,7.76,1.57,1.3,.55,2.55,1.24,3.72,2.06,.44,.31,1.09,.19,1.4-.24,.32-.45,.21-1.08-.24-1.4-1.28-.9-2.65-1.66-4.09-2.27-2.71-1.14-5.58-1.73-8.55-1.73s-5.84,.58-8.54,1.73c-2.61,1.11-4.96,2.69-6.98,4.7-2.02,2.02-3.6,4.36-4.7,6.98-1.15,2.71-1.73,5.58-1.73,8.54s.58,5.84,1.73,8.54c1.11,2.61,2.69,4.96,4.7,6.98,2.02,2.01,4.36,3.6,6.98,4.7,2.71,1.14,5.58,1.72,8.54,1.72s5.84-.58,8.55-1.72c2.62-1.11,4.96-2.69,6.98-4.7,2.02-2.01,3.6-4.36,4.7-6.98,1.14-2.71,1.73-5.58,1.73-8.54,0-1.06-.08-2.13-.23-3.17-.08-.55-.59-.92-1.14-.85Z"/><path class="cls-1" d="M78.43,42.38l-24.53,27.47-7.62-9.13c-.2-.24-.5-.38-.81-.38-.25,0-.49,.09-.68,.25-.22,.18-.35,.43-.37,.71-.03,.28,.06,.56,.24,.77l8.4,10.07c.2,.24,.49,.37,.79,.38,.32,0,.6-.12,.8-.35l25.35-28.38c.39-.43,.35-1.1-.08-1.49-.42-.37-1.12-.33-1.49,.08Z"/><path class="cls-1" d="M45.79,20.56l-2.51,10.78c-.08,.36,.06,.73,.35,.95,.3,.22,.7,.23,1.01,.04l9.48-5.72,9.48,5.72c.11,.07,.24,.11,.36,.12h.04s.05-.02,.05-.02l.08,.03h.03c.47-.04,.84-.44,.84-.92,0-.09-.01-.18-.04-.26l-2.5-10.73,8.37-7.25c.28-.24,.39-.63,.27-.98-.11-.35-.43-.6-.8-.63l-11.03-.95L54.98,.56c-.14-.34-.48-.56-.85-.56s-.7,.22-.85,.56l-4.31,10.2-11.03,.95c-.37,.03-.68,.28-.79,.63-.11,.35,0,.74,.27,.98l8.37,7.25Zm15.06-1.03c-.26,.22-.37,.57-.29,.9l2.14,9.2-8.09-4.88c-.29-.18-.66-.17-.95,0l-8.09,4.88,2.14-9.2c.06-.25,.01-.51-.13-.71-.05-.07-.1-.13-.17-.19l-7.14-6.19,9.42-.81c.25-.02,.48-.15,.64-.34,.05-.07,.1-.14,.13-.22l3.68-8.7,3.68,8.7c.13,.31,.43,.53,.77,.56l9.41,.81-7.14,6.19Z"/><path class="cls-1" d="M38,34.67c.17,0,.35-.05,.5-.16,.27-.2,.4-.54,.33-.88l-2.03-8.74,2.32-2.01c.17-.15,.27-.35,.29-.58,.02-.22-.06-.44-.2-.61-.15-.17-.35-.27-.58-.29-.22,0-.45,.06-.61,.21l-2.71,2.35c-.24,.21-.34,.52-.27,.83l1.69,7.28-6.4-3.86c-.27-.16-.6-.16-.87,0l-6.41,3.86,1.69-7.28c.07-.31-.03-.62-.27-.83l-5.65-4.9,7.45-.64c.31-.03,.58-.22,.71-.51l2.91-6.89,2.91,6.89c.09,.21,.25,.37,.46,.45,.21,.08,.44,.08,.65,0,.43-.18,.63-.68,.45-1.11l-3.69-8.73c-.13-.31-.44-.52-.78-.52s-.65,.2-.78,.52l-3.49,8.26-8.94,.77c-.34,.03-.63,.26-.73,.58-.11,.32,0,.68,.25,.9l6.78,5.87-2.03,8.74c-.08,.33,.05,.67,.33,.88,.27,.2,.65,.21,.93,.04l7.68-4.63,7.68,4.63c.14,.08,.29,.12,.44,.12Z"/><path class="cls-1" d="M85.29,24.9l6.78-5.87c.26-.22,.36-.58,.25-.9-.1-.33-.39-.55-.73-.58l-8.94-.77-3.49-8.26c-.13-.31-.44-.52-.78-.52s-.65,.2-.78,.52l-3.69,8.73c-.09,.21-.09,.44,0,.65,.08,.21,.25,.37,.45,.46,.21,.09,.44,.09,.65,0,.21-.08,.37-.25,.46-.46l2.91-6.89,2.91,6.89c.12,.29,.39,.49,.71,.51l7.45,.64-5.65,4.9c-.24,.21-.34,.52-.27,.83l1.69,7.28-6.4-3.86c-.27-.16-.6-.16-.87,0l-6.41,3.86,1.69-7.28c.07-.31-.03-.62-.27-.83l-2.71-2.34c-.15-.13-.35-.21-.55-.21-.02,0-.04,0-.06,0-.23,.02-.43,.12-.58,.29-.15,.17-.22,.39-.2,.61,.02,.23,.12,.43,.29,.58l2.32,2.01-2.03,8.74c-.08,.33,.05,.67,.33,.88,.15,.11,.32,.16,.5,.16,.15,0,.3-.04,.44-.12l7.68-4.63,7.68,4.63c.29,.17,.66,.16,.93-.04,.28-.2,.4-.54,.33-.88l-2.03-8.74Z"/><path class="cls-1" d="M16.8,28.08c-.21-.01-.4,.05-.56,.19l-2.1,1.82c-.22,.19-.31,.48-.25,.76l1.15,4.92-4.33-2.61c-.25-.15-.55-.15-.8,0l-4.33,2.61,1.14-4.92c.06-.28-.03-.57-.25-.76l-3.82-3.31,5.04-.43c.29-.03,.53-.2,.64-.47l1.97-4.66,1.97,4.66c.08,.19,.23,.34,.42,.42,.19,.08,.4,.07,.59,0,.39-.17,.58-.62,.41-1.01l-2.68-6.34c-.12-.29-.4-.47-.71-.47s-.59,.18-.71,.47l-2.5,5.91-6.39,.55c-.31,.03-.57,.24-.67,.53-.1,.3,0,.62,.23,.82l4.85,4.2-1.45,6.25c-.07,.3,.05,.62,.3,.8,.13,.1,.29,.15,.45,.15,.14,0,.28-.04,.4-.11l5.49-3.31,5.49,3.31c.26,.16,.6,.14,.85-.04,.25-.18,.37-.5,.3-.8l-1.45-6.25,1.75-1.52c.16-.14,.25-.32,.26-.53,.01-.21-.05-.4-.19-.56-.13-.16-.32-.25-.53-.26Z"/><path class="cls-1" d="M108.22,25.93c-.1-.29-.36-.5-.67-.53l-6.39-.55-2.5-5.91c-.12-.29-.4-.47-.71-.47s-.59,.18-.71,.47l-2.68,6.34c-.17,.39,.02,.85,.41,1.01,.19,.08,.4,.08,.59,0,.19-.08,.34-.22,.42-.41l1.97-4.66,1.97,4.66c.11,.26,.36,.44,.64,.47l5.04,.43-3.82,3.31c-.22,.19-.31,.48-.25,.76l1.15,4.92-4.33-2.61c-.25-.15-.55-.15-.8,0l-4.33,2.61,1.14-4.92c.07-.28-.03-.57-.25-.76l-2.1-1.82c-.31-.27-.82-.23-1.09,.08-.13,.16-.2,.35-.19,.56,.01,.21,.11,.39,.26,.53l1.75,1.52-1.45,6.25c-.07,.3,.05,.62,.3,.8,.13,.1,.29,.15,.45,.15,.14,0,.28-.04,.4-.11l5.49-3.31,5.49,3.31c.26,.16,.6,.14,.85-.04,.25-.18,.37-.5,.3-.8l-1.45-6.25,4.85-4.2c.24-.2,.32-.53,.23-.82Z"/></g></g></svg>