<?xml version="1.0" encoding="UTF-8"?><svg id="Layer_2" xmlns="http://www.w3.org/2000/svg" viewBox="0 0 72.94 83.52"><defs><style>.cls-1{fill:#6cace3;}</style></defs><g id="work"><g><path class="cls-1" d="M7.28,34.34l.46-.19L68.14,8.99l-2.72-6.54c-.41-.98-1.17-1.74-2.15-2.14-.98-.4-2.06-.4-3.04,0L22.79,15.9h0S2.45,24.37,2.45,24.37c-.98,.41-1.74,1.17-2.15,2.15s-.4,2.06,0,3.04l2.19,5.29v44.75c0,2.13,1.86,3.92,4.05,3.92h62.69c2.11,0,3.7-1.69,3.7-3.92V34.34H7.28Zm51.65,1.76h8.8l-6.09,6.09h-8.8l6.09-6.09Zm-2.49,0l-6.09,6.09h-8.78l6.09-6.09h8.78Zm-20.06,0h8.79l-6.09,6.09h-8.79l6.09-6.09Zm-2.49,0l-6.09,6.09h-8.8l6.09-6.09h8.8Zm-11.29,0l-6.09,6.09H7.71l6.09-6.09h8.79Zm-11.28,0l-6.09,6.09h-.96v-6.09h7.04ZM60.9,1.94c.54-.23,1.14-.23,1.69,0,.55,.23,.97,.65,1.2,1.19l1.88,4.66-9.42-3.91,4.65-1.94Zm-14.82,6.17l7.87-3.28,.04,.02,9.77,4.06-.22,.09-7.87,3.28-.04-.02-9.77-4.06,.22-.09Zm-10.4,4.33l7.88-3.28,.04,.02,9.77,4.06-.22,.09-8.14,3.18-9.56-3.97,.22-.09Zm-10.39,4.33l7.87-3.28,.04,.02,9.77,4.06-.22,.09-7.87,3.28-.04-.02-9.77-4.06,.22-.09Zm-10.37,4.32l7.86-3.27,.04,.02,9.77,4.06-.22,.09-7.86,3.27-.04-.02-9.77-4.06,.22-.09Zm-10.39,4.33l7.88-3.28,.04,.02,9.77,4.06-.22,.09-7.88,3.28-.04-.02-9.77-4.06,.22-.09Zm-2.6,3.48c-.23-.54-.23-1.15,0-1.69,.08-.19,.19-.37,.35-.56l.21,.02,9.34,3.88-.22,.09-7.63,3.18-2.05-4.92Zm69.25,50.71c0,1.07-.67,2.16-1.94,2.16H6.55c-1.22,0-2.29-1.01-2.29-2.16V43.95H71.18v35.65Zm0-43.5v6.09h-7.05l6.09-6.09h.96Z"/><polygon class="cls-1" points="27.36 77.31 29.12 77.31 29.12 68.15 47.63 68.15 47.63 77.31 49.4 77.31 49.4 68.15 67.06 68.15 67.06 66.39 8.71 66.39 8.71 68.15 27.36 68.15 27.36 77.31"/><rect class="cls-1" x="8.71" y="56.25" width="58.34" height="1.76"/></g></g></svg>