<?xml version="1.0" encoding="UTF-8"?><svg id="Layer_2" xmlns="http://www.w3.org/2000/svg" viewBox="0 0 96.47 89.27"><defs><style>.cls-1{fill:#6cace3;}</style></defs><g id="work"><g><path class="cls-1" d="M8.34,31.82c0,.87,.7,1.57,1.57,1.57h24.99c.87,0,1.57-.7,1.57-1.57s-.7-1.57-1.57-1.57H9.91c-.87,0-1.57,.7-1.57,1.57Z"/><path class="cls-1" d="M1.57,51.24H31.5c.87,0,1.57-.7,1.57-1.57s-.7-1.57-1.57-1.57H1.57c-.87,0-1.57,.7-1.57,1.57s.7,1.57,1.57,1.57Z"/><path class="cls-1" d="M28.27,65.95H10.69c-.87,0-1.57,.7-1.57,1.57s.7,1.57,1.57,1.57H28.27c.87,0,1.57-.7,1.57-1.57s-.7-1.57-1.57-1.57Z"/><path class="cls-1" d="M93.36,65.09c2.06-4.88,3.11-10.07,3.11-15.42s-1.05-10.53-3.11-15.42c-2-4.72-4.85-8.95-8.49-12.59-3.64-3.64-7.88-6.5-12.59-8.49-4.17-1.76-8.59-2.79-13.15-3.04l-1.11-.06V2.32h7.91c.64,0,1.16-.52,1.16-1.16s-.52-1.16-1.16-1.16h-18.13c-.64,0-1.16,.52-1.16,1.16s.52,1.16,1.16,1.16h7.91v7.78l-1.11,.06c-7.42,.42-14.53,2.89-20.55,7.15-.25,.18-.42,.44-.47,.75-.05,.31,.02,.61,.2,.87,.37,.52,1.09,.64,1.61,.27,6.31-4.45,13.74-6.81,21.49-6.81,20.56,0,37.28,16.73,37.28,37.28s-16.73,37.28-37.28,37.28c-8.61,0-16.69-2.85-23.38-8.24-.21-.17-.46-.26-.72-.26-.35,0-.68,.16-.9,.43-.4,.5-.32,1.23,.17,1.63,3.45,2.78,7.3,4.94,11.44,6.43,4.29,1.54,8.8,2.32,13.39,2.32,5.34,0,10.53-1.05,15.41-3.11,4.72-2,8.96-4.85,12.59-8.49,3.64-3.64,6.49-7.87,8.49-12.59Z"/><path class="cls-1" d="M70.12,37.97c-.65-.74-1.77-.8-2.51-.16l-8.92,7.87-.62-.18c-.46-.13-.85-.2-1.21-.2-2.41,0-4.36,1.96-4.36,4.36s1.96,4.36,4.36,4.36,4.36-1.96,4.36-4.36c0-.23-.03-.45-.07-.68l-.1-.64,8.91-7.87c.35-.31,.57-.75,.6-1.22,.03-.48-.13-.93-.44-1.29Z"/></g></g></svg>