<?xml version="1.0" encoding="UTF-8"?><svg id="Layer_2" xmlns="http://www.w3.org/2000/svg" viewBox="0 0 81.68 56.65"><defs><style>.cls-1{fill:#6cace3;}</style></defs><g id="work"><g><path class="cls-1" d="M53.11,28.27c.36,0,.64-.29,.64-.65,0-.17-.07-.33-.19-.45-.19-.18-.46-.23-.7-.13-.08,.03-.15,.08-.21,.14-.25,.25-.25,.66,0,.91,.12,.12,.29,.18,.46,.18Z"/><path class="cls-1" d="M38.62,31.75l-2.57,2.57c-.25,.25-.25,.66,0,.91,.25,.25,.66,.25,.91,0l2.57-2.57c.25-.25,.25-.66,0-.91,0,0,0,0,0,0-.25-.25-.66-.24-.91,0h0Z"/><path class="cls-1" d="M68.55,33.95c.17,0,.33-.07,.45-.19l1.38-1.39c.25-.25,.25-.66,0-.91-.25-.25-.66-.25-.91,0,0,0,0,0,0,0l-1.38,1.39c-.25,.25-.25,.66,0,.91,.12,.12,.29,.19,.46,.19Z"/><path class="cls-1" d="M58.37,44.55c.16,0,.32-.05,.44-.15l8.72-8.72c.25-.25,.25-.66,0-.91,0,0,0,0,0,0-.25-.25-.66-.25-.91,0l-8.7,8.69c-.25,.25-.24,.66,0,.91,.12,.12,.28,.18,.44,.18h0Z"/><path class="cls-1" d="M45,35.46l-1.52,1.52c-.25,.25-.24,.66,0,.91,.12,.12,.28,.18,.45,.18,.17,0,.34-.07,.46-.19l1.51-1.51c.25-.25,.25-.66,0-.91,0,0,0,0,0,0-.25-.25-.66-.25-.91,0h0Z"/><path class="cls-1" d="M63.57,43.27c.12,.12,.29,.19,.46,.19,.17,0,.33-.07,.45-.19l4.25-4.25c.25-.25,.25-.66,0-.91,0,0,0,0,0,0-.25-.25-.66-.25-.91,0l-4.25,4.25c-.25,.25-.25,.66,0,.91,0,0,0,0,0,0h0Z"/><path class="cls-1" d="M26.76,32.6c-.03-.08-.08-.15-.13-.21-.06-.06-.13-.11-.21-.14-.24-.1-.52-.04-.7,.14-.06,.06-.1,.13-.13,.21-.04,.08-.05,.16-.05,.24,0,.09,.02,.17,.05,.25,.14,.33,.51,.48,.84,.35,.08-.03,.15-.08,.21-.14,.06-.06,.1-.13,.13-.21,.03-.08,.05-.16,.05-.25,0-.08-.02-.17-.05-.24Z"/><path class="cls-1" d="M0,28.84v5.33c0,1.8,1.46,3.26,3.26,3.27H21.62c-.17,4.87-3.81,9.14-9.15,10.7-.45,.12-.75,.56-.69,1.03,.07,.48,.49,.83,.98,.82h14.56c.36,0,.64-.29,.64-.64s-.29-.64-.64-.64H14.7c1.09-.47,2.12-1.07,3.07-1.79h6.33c.36,0,.64-.29,.64-.64s-.29-.64-.64-.64h-4.85c2.22-2.16,3.53-5.09,3.66-8.19h7.19v14.08h-5.52c-.25,0-.48,.14-.58,.37-.1,.23-.06,.49,.11,.68,.13,.17,3.36,4.09,6.36,4.09h45.32c2.87,0,5.64-3.96,5.79-4.13,.2-.29,.13-.69-.16-.89-.11-.07-.23-.11-.37-.11h-4.87V27.96c0-1.48-1.2-2.69-2.69-2.69h-21.14V3.26c0-1.8-1.46-3.26-3.27-3.26H3.26C1.46,0,0,1.46,0,3.26V28.8H0v.03H0Zm3.26,7.31c-1.09,0-1.97-.89-1.97-1.98v-4.71H30.1v6.69H3.26Zm72.5,19.22H30.44c-1.47,0-3.21-1.41-4.4-2.57h20.08v.49c0,.36,.29,.64,.64,.64h12.7c.36,0,.64-.29,.64-.64v-.49h19.56c-.99,1.14-2.55,2.57-3.9,2.57Zm-41.31-7.71l7.68-7.71c.25-.25,.25-.66,0-.91-.25-.25-.66-.25-.91,0l-6.78,6.83v-15.94h37.32v21.59h-12.32c-.36,0-.64,.29-.64,.64v.49h-11.41v-.49c0-.36-.29-.64-.64-.64h-12.31v-3.86Zm40.39-19.73v23.56h-1.78V29.28c0-.36-.29-.64-.64-.64H33.81c-.36,0-.64,.29-.64,.64v22.23h-1.78V27.96c0-.77,.63-1.4,1.4-1.4h40.65c.77,0,1.4,.63,1.4,1.4v-.03ZM3.26,1.29H49.08c1.09,0,1.97,.88,1.98,1.97V25.27h-18.27c-1.48,0-2.69,1.2-2.69,2.69h0v.22H4.81v-2.57c0-.36-.29-.64-.64-.64s-.64,.29-.64,.64v2.57H1.29V3.26c0-1.09,.89-1.96,1.97-1.97h0Z"/><path class="cls-1" d="M24.74,4.11h2.82c.36,0,.64-.29,.64-.64s-.29-.64-.64-.64h-2.82c-.36,0-.64,.29-.64,.64s.29,.64,.64,.64Z"/><path class="cls-1" d="M4.17,21.95c.36,0,.64-.29,.64-.64V9.49c0-.36-.29-.64-.64-.64s-.64,.29-.64,.64v11.81c0,.36,.29,.64,.64,.64Z"/><path class="cls-1" d="M38.82,14.93c.17,0,.34-.07,.46-.19l7.59-7.59c.25-.25,.25-.66,0-.91-.25-.25-.66-.25-.91,0h0l-7.59,7.59c-.25,.25-.25,.66,0,.91,0,0,0,0,0,0,.12,.12,.29,.19,.46,.19h0Z"/><path class="cls-1" d="M33.95,19.43c.17,0,.34-.07,.46-.19l2.28-2.28c.25-.25,.25-.66,0-.91-.25-.25-.66-.25-.91,0,0,0,0,0,0,0l-2.28,2.28c-.25,.25-.25,.66,0,.91,.12,.12,.28,.19,.45,.19Z"/><path class="cls-1" d="M38.79,19.85c.17,0,.34-.07,.46-.19l4.58-4.58c.23-.27,.19-.68-.08-.91-.24-.2-.6-.2-.84,0l-4.57,4.56c-.25,.25-.25,.66,0,.91,.12,.12,.28,.19,.45,.19h0Z"/></g></g></svg>