<?xml version="1.0" encoding="UTF-8"?><svg id="Layer_2" xmlns="http://www.w3.org/2000/svg" viewBox="0 0 87 87"><defs><style>.cls-1{fill:#6cace3;}</style></defs><g id="work"><g><path class="cls-1" d="M22.54,43.03c-7.41,0-13.44-6.03-13.44-13.44,0-3.09,1.08-6.11,3.03-8.5,2.57-3.08,6.33-4.85,10.32-4.85,4.53,0,8.68,2.2,11.11,5.88,2.03,3.08,2.33,6.05,2.33,7.55,0,3.98-1.76,7.74-4.83,10.3-2.39,1.97-5.42,3.05-8.53,3.05Zm.73-12.91v11.34l.53-.06c5.97-.68,10.46-5.72,10.46-11.73,0-1.8-.4-3.52-1.17-5.13l-.23-.48-9.59,6.06Zm-7.65-10.07c-3.11,2.22-4.97,5.81-4.97,9.62,0,6.01,4.5,11.05,10.46,11.73l.53,.06v-11.58l-5.59-10.14-.43,.31Zm6.84-2.19c-1.55,0-3.06,.3-4.49,.89l-.49,.2,5.27,9.56,9.23-5.83-.33-.41c-2.26-2.8-5.61-4.41-9.19-4.41Z"/><path class="cls-1" d="M43.16,87c-2.34,0-4.25-1.91-4.25-4.25,0-1.89,1.27-3.57,3.09-4.09l.34-.1v-6.94H11.95c-2.37,0-4.31-1.93-4.31-4.31v-1.88h-.67c-3.91,0-6.97-2.98-6.97-6.79V13.78c0-3.84,3.13-6.97,6.97-6.97h5.27c.57,0,.77,.44,.77,.82s-.2,.82-.77,.82H6.97c-2.95,0-5.34,2.4-5.34,5.34V58.65c0,2.89,2.35,5.16,5.34,5.16H80.03c3,0,5.34-2.27,5.34-5.16V13.78c0-2.95-2.4-5.34-5.34-5.34H19.28c-.57,0-.77-.44-.77-.82s.2-.82,.77-.82h15.49V.82c0-.45,.37-.82,.82-.82h15.82c.45,0,.82,.37,.82,.82V6.81h27.8c3.84,0,6.97,3.13,6.97,6.97V58.65c0,3.81-3.06,6.79-6.97,6.79h-.67v1.88c0,2.37-1.93,4.31-4.31,4.31h-5.1c-.57,0-.77-.44-.77-.82s.2-.82,.77-.82h5.1c1.48,0,2.68-1.2,2.68-2.68v-1.88H9.27v1.88c0,1.48,1.2,2.68,2.68,2.68H63.25c.57,0,.77,.44,.77,.82s-.2,.82-.77,.82h-19.28v6.94l.34,.1c1.82,.52,3.09,2.2,3.09,4.09,0,2.34-1.91,4.25-4.25,4.25Zm0-6.87c-1.44,0-2.62,1.18-2.62,2.62s1.18,2.62,2.62,2.62,2.62-1.18,2.62-2.62-1.18-2.62-2.62-2.62ZM36.4,6.81h14.19V1.63h-14.19V6.81Z"/><path class="cls-1" d="M9.84,49.22c-.73,0-.76-.66-.76-.79,0-.31,.16-.84,.76-.84h25.24c.45,0,.82,.37,.82,.82s-.37,.82-.82,.82H9.84Z"/><path class="cls-1" d="M9.84,55.33c-.73,0-.76-.66-.76-.79,0-.31,.16-.84,.76-.84H27.04c.73,0,.76,.66,.76,.79,0,.31-.16,.84-.76,.84H9.84Z"/><path class="cls-1" d="M46.07,55.33c-.45,0-.82-.37-.82-.82v-21.66c0-.45,.37-.82,.82-.82h6.72c.45,0,.82,.37,.82,.82v21.66c0,.45-.37,.82-.82,.82h-6.72Zm.82-1.63h5.09v-20.03h-5.09v20.03Z"/><path class="cls-1" d="M72.51,55.33c-.45,0-.82-.37-.82-.82V27.54c0-.45,.37-.82,.82-.82h6.72c.45,0,.82,.37,.82,.82v26.97c0,.45-.37,.82-.82,.82h-6.72Zm.82-1.63h5.09V28.36h-5.09v25.34Z"/><path class="cls-1" d="M59.29,55.33c-.45,0-.82-.37-.82-.82v-15.63c0-.45,.37-.82,.82-.82h6.72c.45,0,.82,.37,.82,.82v15.63c0,.45-.37,.82-.82,.82h-6.72Zm.82-1.63h5.09v-14h-5.09v14Z"/><path class="cls-1" d="M62.65,34.18c-1.68,0-3.05-1.37-3.05-3.05,0-.17,.02-.35,.05-.55l.05-.29-8.37-6.05-.27,.17c-.49,.32-1.06,.48-1.64,.48-1.68,0-3.05-1.37-3.05-3.05s1.37-3.05,3.05-3.05,3.05,1.37,3.05,3.05c0,.24-.03,.5-.1,.76l-.08,.31,8.26,5.97,.28-.21c.53-.4,1.16-.6,1.81-.6,.49,0,.96,.11,1.39,.34l.32,.16,8.99-9.45-.16-.3c-.24-.44-.36-.94-.36-1.44,0-1.68,1.37-3.05,3.05-3.05s3.05,1.37,3.05,3.05-1.37,3.05-3.05,3.05c-.33,0-.66-.06-.98-.16l-.29-.1-9.19,9.66,.1,.27c.12,.33,.18,.68,.18,1.02,0,1.68-1.37,3.05-3.05,3.05Zm0-4.47c-.78,0-1.42,.64-1.42,1.42s.64,1.42,1.42,1.42,1.42-.64,1.42-1.42-.65-1.42-1.42-1.42Zm-13.22-9.28c-.78,0-1.42,.64-1.42,1.42s.64,1.42,1.42,1.42,1.42-.64,1.42-1.42-.64-1.42-1.42-1.42Zm26.44-4.47c-.78,0-1.42,.64-1.42,1.42s.66,1.42,1.42,1.42,1.42-.64,1.42-1.42-.64-1.42-1.42-1.42Z"/></g></g></svg>