<?xml version="1.0" encoding="UTF-8"?><svg id="Layer_2" xmlns="http://www.w3.org/2000/svg" viewBox="0 0 83 67.11"><defs><style>.cls-1{fill:#6cace3;}</style></defs><g id="work"><g><path class="cls-1" d="M83,.44s0-.07,0-.1c-.01-.03-.03-.05-.05-.08-.02-.05-.06-.09-.09-.13l-.09-.05s-.08-.06-.12-.08c-.05,0-.1,0-.14,0-.03,0-.06,0-.09,0H.39s-.09,.05-.13,.08C.26,.08,.2,.08,.18,.13c-.03,.04-.07,.08-.09,.12-.02,.03-.04,.06-.05,.09,0,.03,0,.07,0,.1-.01,.05-.02,.1-.03,.15V60.84c0,.05,.02,.1,.03,.15,0,.03,0,.07,0,.1,.02,.03,.03,.05,.05,.08,.02,.05,.05,.09,.09,.12H.18l.1,.07s.06,.04,.1,.06c.08,.03,.16,.05,.24,.05H57.85v4.99c0,.24,.14,.47,.35,.58,.21,.1,.46,.09,.65-.05l3.93-2.72,3.81,2.69c.19,.13,.44,.15,.65,.05,.22-.11,.35-.34,.35-.58v-4.92h14.77c.08,0,.17-.01,.24-.05,.03-.02,.07-.04,.1-.06l.1-.07h0s.07-.08,.09-.12c.02-.02,.04-.05,.05-.08,0-.03,0-.07,0-.1,0-.05,0-.1,0-.15V.59s.02-.1,.03-.15h0Zm-6.4,53.15V7.85l5.12-5.57V59.18l-5.12-5.6Zm-19.29-11.32c0-3.01,2.44-5.44,5.44-5.44s5.44,2.44,5.44,5.44-2.44,5.44-5.44,5.44h0c-3,0-5.44-2.44-5.44-5.44Zm10.31,9.02c1.41-.83,2.62-1.96,3.54-3.31,.24-.27,.22-.68-.05-.92s-.68-.22-.92,.05c-.05,.05-.08,.11-.11,.17-.66,.98-1.49,1.82-2.46,2.5v-2.85c2.58-2.69,2.49-6.96-.2-9.54-2.69-2.58-6.96-2.49-9.54,.2-2.5,2.61-2.5,6.73,0,9.34v2.56c-4.01-2.65-5.11-8.04-2.46-12.04,1.62-2.45,4.36-3.91,7.29-3.9,4.82,0,8.72,3.91,8.73,8.72,0,.36,.29,.65,.65,.65s.65-.29,.65-.65c0-5.53-4.48-10.02-10.02-10.02-5.53,0-10.02,4.48-10.02,10.02,0,3.64,1.97,6.99,5.15,8.76v2.15H7.7V8.25H75.29V53.16h-7.67v-1.88ZM7.34,6.94L2.11,1.25H80.89l-5.23,5.68H7.34Zm-.94,.91V53.58l-5.12,5.57V2.25L6.4,7.85ZM2.11,60.17l5.23-5.68H57.85v5.68H2.11Zm61.05,2.75c-.23-.16-.53-.16-.75,0l-3.25,2.3v-17.23c2.18,1.38,4.95,1.38,7.13,0v17.17l-3.13-2.23Zm4.46-8.45h8.04l5.23,5.68h-13.27v-5.68Z"/><path class="cls-1" d="M27.97,20.94c.14,0,.27-.04,.38-.12,3.39-2.43,8.25-3.81,13.35-3.81s9.96,1.39,13.35,3.82c.29,.21,.7,.14,.91-.16,.21-.29,.14-.7-.15-.91-3.6-2.62-8.74-4.06-14.11-4.06s-10.51,1.49-14.11,4.06c-.29,.21-.36,.62-.15,.91,.12,.17,.32,.27,.53,.27h0Z"/><path class="cls-1" d="M34.76,21.05c-.36,0-.65,.29-.65,.65s.29,.65,.65,.65h13.89c.36,0,.65-.29,.65-.65s-.29-.65-.65-.65h-13.89Z"/><path class="cls-1" d="M58.59,27.42h-8.64c-.36,0-.65,.29-.65,.65s.29,.65,.65,.65h8.64c.36,0,.65-.29,.65-.65s-.29-.65-.65-.65Z"/><path class="cls-1" d="M23.05,28.73h22.75c.36,0,.65-.29,.65-.65s-.29-.65-.65-.65H23.05c-.36,0-.65,.29-.65,.65s.29,.65,.65,.65h0Z"/><path class="cls-1" d="M23.05,33.54h11.37c.36,0,.65-.29,.65-.65s-.29-.65-.65-.65h-11.37c-.36,0-.65,.29-.65,.65s.29,.65,.65,.65Z"/><path class="cls-1" d="M38.65,32.23c-.36,0-.65,.29-.65,.65s.29,.65,.65,.65h4.36c.36,0,.65-.29,.65-.65s-.29-.65-.65-.65h-4.36Z"/><path class="cls-1" d="M52.2,32.23h-4.76c-.36,0-.65,.29-.65,.65s.29,.65,.65,.65h4.76c.36,0,.65-.29,.65-.65s-.29-.65-.65-.65Z"/><path class="cls-1" d="M66.22,42.26c0-.36-.29-.65-.65-.65s-.65,.29-.65,.65c0,1.32-1.07,2.39-2.39,2.39-.36,0-.65,.29-.65,.65s.29,.65,.65,.65c2.04,0,3.7-1.66,3.7-3.7Z"/><path class="cls-1" d="M63.78,50.26c-.36,0-.65,.29-.65,.65v2.18c0,.36,.29,.65,.65,.65s.65-.29,.65-.65v-2.18c0-.36-.29-.65-.65-.65Z"/><path class="cls-1" d="M63.78,55.31c-.36,0-.65,.29-.65,.65v4.52c0,.36,.29,.65,.65,.65s.65-.29,.65-.65v-4.52c0-.36-.29-.65-.65-.65h0Z"/><path class="cls-1" d="M23.05,38.72h6.22c.36,0,.65-.29,.65-.65s-.29-.65-.65-.65h-6.22c-.36,0-.65,.29-.65,.65s.29,.65,.65,.65h0Z"/><path class="cls-1" d="M49.42,37.41h-14.99c-.36,0-.65,.29-.65,.65s.29,.65,.65,.65h14.99c.36,0,.65-.29,.65-.65s-.29-.65-.65-.65Z"/><path class="cls-1" d="M47.33,42.79H23.08c-.36,0-.65,.29-.65,.65s.29,.65,.65,.65h24.25c.36,0,.65-.29,.65-.65s-.29-.65-.65-.65Z"/><path class="cls-1" d="M23.05,56.68H10.79c-.36,0-.65,.29-.65,.65s.29,.65,.65,.65h12.26c.36,0,.65-.29,.65-.65s-.29-.65-.65-.65Z"/><path class="cls-1" d="M30.62,56.68h-3.27c-.36,0-.65,.29-.65,.65s.29,.65,.65,.65h3.27c.36,0,.65-.29,.65-.65s-.29-.65-.65-.65Z"/><path class="cls-1" d="M63.78,3.45h-13.83c-.36,0-.65,.29-.65,.65s.29,.65,.65,.65h13.83c.36,0,.65-.29,.65-.65s-.29-.65-.65-.65Z"/><path class="cls-1" d="M71.91,3.45h-4.5c-.36,0-.65,.29-.65,.65s.29,.65,.65,.65h4.5c.36,0,.65-.29,.65-.65s-.29-.65-.65-.65Z"/><path class="cls-1" d="M79.17,15.7c-.36,0-.65,.29-.65,.65v29.24c0,.36,.29,.65,.65,.65s.65-.29,.65-.65V16.35c0-.36-.29-.65-.65-.65Z"/><path class="cls-1" d="M3.83,20.94c.36,0,.65-.29,.65-.65v-3.92c0-.36-.29-.65-.65-.65s-.65,.29-.65,.65v3.92c0,.36,.29,.65,.65,.65Z"/><path class="cls-1" d="M3.83,38.72c.36,0,.65-.29,.65-.65v-13.03c0-.36-.29-.65-.65-.65s-.65,.29-.65,.65v13.08c.03,.34,.31,.6,.65,.6Z"/><path class="cls-1" d="M3.83,50.72c.36,0,.65-.29,.65-.65v-7.19c0-.36-.29-.65-.65-.65s-.65,.29-.65,.65v7.19c0,.36,.29,.65,.65,.65Z"/><path class="cls-1" d="M15.24,10.57c-.25-.26-.67-.26-.92,0,0,0,0,0,0,0l-3.92,3.92c-.25,.26-.25,.67,0,.92,.26,.25,.67,.25,.92,0l3.92-3.92c.26-.25,.26-.67,0-.92Z"/><path class="cls-1" d="M15.87,15.15c-.19-.19-.47-.24-.71-.14-.08,.04-.15,.08-.21,.14-.06,.06-.11,.13-.14,.22-.14,.33,.02,.71,.35,.85,.08,.03,.17,.05,.26,.05,.36-.01,.64-.32,.63-.68,0-.08-.02-.15-.05-.23-.03-.08-.07-.15-.12-.22Z"/><path class="cls-1" d="M68.84,10.57c-.26-.25-.67-.25-.92,0-.26,.25-.26,.67,0,.92,0,0,0,0,0,0l3.92,3.92c.12,.12,.29,.19,.46,.2,.36,0,.66-.29,.66-.65,0-.18-.07-.34-.19-.47l-3.92-3.93Z"/><path class="cls-1" d="M68.22,15.15c-.26-.25-.67-.25-.92,0-.06,.06-.11,.13-.14,.22-.14,.33,.02,.72,.36,.85,.08,.03,.16,.05,.25,.05,.36,0,.65-.29,.65-.65,0-.09-.01-.17-.05-.25-.03-.08-.08-.15-.14-.22h0Z"/></g></g></svg>