<?xml version="1.0" encoding="UTF-8"?><svg id="Layer_2" xmlns="http://www.w3.org/2000/svg" viewBox="0 0 79.81 79.81"><defs><style>.cls-1{fill:#6cace3;}</style></defs><g id="work"><g><path class="cls-1" d="M8.77,79.81c-4.83,0-8.77-3.94-8.77-8.77V8.77C0,3.94,3.94,0,8.77,0H60.2c1.85,0,3.36,1.51,3.36,3.36V15.2l5.18-4.03c.12-.09,.25-.14,.4-.14,.17,0,.34,.07,.46,.19l5.74,5.74c.23,.23,.26,.6,.05,.86l-3.48,4.46,.21,.4c.54,1.04,1,2.13,1.34,3.25l.13,.43,5.62,.7c.33,.04,.57,.32,.57,.65v8.12c0,.33-.25,.61-.57,.65l-5.62,.7-.13,.43c-.35,1.12-.8,2.21-1.34,3.25l-.21,.4,3.48,4.46c.2,.26,.18,.63-.05,.86l-5.74,5.74c-.12,.12-.29,.19-.46,.19h0c-.15,0-.28-.05-.4-.14l-5.18-4.03v30.79c0,.36-.29,.65-.65,.65H8.77Zm0-16.24c-4.12,0-7.47,3.35-7.47,7.47s3.35,7.47,7.47,7.47H62.26v-6.81H9.47v-1.31H62.26v-6.81H8.77ZM7.28,1.46C3.82,2.17,1.31,5.25,1.31,8.77v57.36l1.2-1.23c1.34-1.37,3.12-2.27,5.01-2.54l.6-.09V1.28l-.84,.17Zm2.15,60.8H62.26v-12.37l-.93,.33-.28,.11c-.14,.05-.27,.1-.41,.15l-.43,.13-.7,5.61c-.04,.33-.32,.57-.65,.57h-8.12c-.33,0-.61-.25-.65-.57l-.7-5.62-.43-.13c-1.12-.35-2.21-.8-3.25-1.34l-.4-.21-4.46,3.47c-.12,.09-.25,.14-.4,.14-.17,0-.34-.07-.46-.19l-.96-.96H14.19c-.36,0-.65-.29-.65-.65V12.83c0-.36,.29-.65,.65-.65h24.83l.96-.95c.13-.12,.29-.19,.46-.19,.15,0,.29,.05,.4,.14l4.46,3.47,.4-.21c1.04-.54,2.13-1,3.25-1.34l.43-.13,.7-5.62c.04-.33,.32-.57,.65-.57h8.12c.33,0,.61,.25,.65,.57l.7,5.62,.43,.13c.14,.04,.27,.09,.41,.15l.28,.11,.93,.33V3.36c0-1.13-.92-2.05-2.05-2.05H9.43V62.26Zm35.82-14.77c.12,0,.23,.03,.33,.09,1.43,.83,2.96,1.47,4.56,1.89,.26,.07,.45,.29,.48,.55l.69,5.49h6.96l.69-5.49c.03-.26,.22-.48,.48-.55,1.6-.42,3.13-1.05,4.56-1.89,.1-.06,.21-.09,.33-.09,.15,0,.29,.05,.4,.14l4.36,3.39,4.93-4.93-3.39-4.36c-.17-.21-.18-.5-.05-.73,.83-1.43,1.47-2.96,1.89-4.56,.07-.26,.28-.45,.55-.48l5.48-.69v-6.97s-5.48-.68-5.48-.68c-.27-.03-.48-.22-.55-.48-.42-1.6-1.05-3.13-1.89-4.56-.14-.23-.12-.52,.05-.73l3.39-4.36-4.94-4.93-4.36,3.39c-.12,.09-.25,.14-.4,.14-.12,0-.23-.03-.33-.09-1.43-.83-2.96-1.47-4.56-1.89-.26-.07-.45-.28-.48-.55l-.69-5.48h-6.97l-.69,5.49c-.03,.27-.22,.48-.48,.55-1.6,.42-3.13,1.05-4.56,1.89-.1,.06-.21,.09-.33,.09-.14,0-.29-.05-.4-.14l-4.36-3.39-4.94,4.93,3.39,4.36c.17,.21,.18,.5,.05,.73-.83,1.43-1.47,2.96-1.89,4.56-.07,.26-.28,.45-.55,.48l-5.48,.68v6.97l5.49,.69c.27,.03,.48,.22,.55,.48,.42,1.6,1.05,3.13,1.89,4.56,.14,.23,.12,.52-.05,.73l-3.39,4.36,4.93,4.93,4.36-3.39c.11-.09,.26-.14,.4-.14Zm-30.41,2.59h22.87l-3.48-3.48c-.23-.23-.26-.6-.05-.86l3.47-4.46-.21-.4c-.54-1.04-1-2.13-1.34-3.25l-.13-.43-5.62-.7c-.33-.04-.57-.32-.57-.65v-8.12c0-.33,.25-.61,.57-.65l5.62-.7,.13-.43c.04-.14,.1-.28,.15-.42l.44-1.21H14.84v25.76Zm0-27.07h23.37l-4.03-5.18c-.2-.26-.18-.63,.05-.86l3.48-3.48H14.84v9.52Z"/><path class="cls-1" d="M40.79,32.24c-.25-.25-.25-.67,0-.92l7.62-7.62,.92,.92-7.16,7.16,7.16,7.16-.92,.92-7.63-7.63Z"/><path class="cls-1" d="M60.24,38.95l7.16-7.16-7.16-7.16,.92-.92,7.63,7.62c.25,.25,.25,.67,0,.92l-7.63,7.63-.92-.92Z"/><rect class="cls-1" x="44.31" y="31.13" width="20.91" height="1.3" transform="translate(10.67 77.23) rotate(-75.99)"/><rect class="cls-1" x="54.14" y="12.18" width="1.31" height="1.31"/><rect class="cls-1" x="40.73" y="17.73" width="1.31" height="1.31" transform="translate(-.88 34.65) rotate(-45)"/><rect class="cls-1" x="35.19" y="31.13" width="1.31" height="1.31"/><rect class="cls-1" x="40.73" y="44.53" width="1.31" height="1.31" transform="translate(-19.82 42.46) rotate(-44.97)"/><rect class="cls-1" x="54.14" y="50.08" width="1.31" height="1.31"/><rect class="cls-1" x="67.52" y="44.53" width="1.31" height="1.31" transform="translate(-11.98 61.44) rotate(-45)"/><rect class="cls-1" x="73.08" y="31.13" width="1.31" height="1.31"/><rect class="cls-1" x="67.53" y="17.74" width="1.31" height="1.31" transform="translate(6.95 53.56) rotate(-44.97)"/><rect class="cls-1" x="18.95" y="17.59" width="1.31" height="1.31"/><rect class="cls-1" x="24.36" y="17.59" width="1.31" height="1.31"/><rect class="cls-1" x="29.78" y="17.59" width="1.31" height="1.31"/></g></g></svg>