<?xml version="1.0" encoding="UTF-8"?><svg id="Layer_2" xmlns="http://www.w3.org/2000/svg" viewBox="0 0 83.64 83.64"><defs><style>.cls-1{fill:#6cace3;}</style></defs><g id="work"><g><path class="cls-1" d="M19.19,37.03v-10.29c0-1.14,.93-2.06,2.06-2.06h4.8v1.38h-5.48v10.97h-1.38Z"/><rect class="cls-1" x="19.19" y="41.13" width="1.38" height="1.38"/><rect class="cls-1" x="19.19" y="46.61" width="1.38" height="1.38"/><rect class="cls-1" x="60.32" y="49.35" width="1.38" height="1.38"/><rect class="cls-1" x="60.32" y="54.84" width="1.38" height="1.38"/><rect class="cls-1" x="60.32" y="43.87" width="1.38" height="1.38"/><rect class="cls-1" x="5.48" y="46.61" width="1.38" height="1.38"/><rect class="cls-1" x="5.48" y="57.58" width="1.38" height="1.38"/><rect class="cls-1" x="5.48" y="52.1" width="1.38" height="1.38"/><path class="cls-1" d="M6.17,83.64c-3.4,0-6.17-2.77-6.17-6.17V44.56c0-3.4,2.77-6.17,6.17-6.17h7.53v-13.02c0-3.4,2.77-6.17,6.17-6.17h10.28V6.17c0-3.4,2.77-6.17,6.17-6.17h41.13c3.4,0,6.17,2.77,6.17,6.17V39.08c0,3.4-2.77,6.17-6.17,6.17h-10.28v13.02c0,3.4-2.77,6.17-6.18,6.17h-7.53v13.02c0,3.4-2.77,6.17-6.17,6.17H6.17Zm0-43.87c-2.64,0-4.79,2.15-4.79,4.79v32.9c0,2.64,2.15,4.79,4.79,4.79H47.3c2.64,0,4.79-2.15,4.79-4.79v-13.02H19.88c-3.4,0-6.17-2.77-6.17-6.17v-18.5H6.17Zm13.71-19.19c-2.64,0-4.79,2.15-4.79,4.79V58.27c0,2.64,2.15,4.79,4.79,4.79H61.01c2.64,0,4.79-2.15,4.79-4.79V25.37c0-2.64-2.15-4.79-4.79-4.79H19.88Zm36.34-1.38h4.79c3.4,0,6.18,2.77,6.18,6.17v18.5h10.28c2.64,0,4.79-2.15,4.79-4.79V6.17c0-2.64-2.15-4.79-4.79-4.79H36.34c-2.64,0-4.79,2.15-4.79,4.79v13.02h23.29V5.48h23.32V30.85c0,1.89-1.54,3.43-3.43,3.43s-3.43-1.54-3.43-3.43,1.54-3.43,3.43-3.43c.37,0,.74,.07,1.14,.21l.91,.33V12.35h-20.55v6.84Zm18.5,9.61c-1.13,0-2.05,.92-2.05,2.05s.92,2.05,2.05,2.05,2.05-.92,2.05-2.05-.92-2.05-2.05-2.05ZM56.22,10.97h20.55V6.87h-20.55v4.1Z"/><path class="cls-1" d="M30.16,29.73l24.17,12.09-24.17,12.09V29.73Zm1.38,21.94l19.7-9.85-19.7-9.85v19.7Z"/><path class="cls-1" d="M12.34,78.16v-2.74H5.48v-1.38h6.85v-2.74h6.87v2.74h28.79v1.38H19.2v2.74h-6.87Zm1.38-1.38h4.1v-4.1h-4.1v4.1Z"/><rect class="cls-1" x="35.65" y="5.48" width="15.09" height="1.38"/><rect class="cls-1" x="35.65" y="10.97" width="15.09" height="1.38"/></g></g></svg>