<?xml version="1.0" encoding="UTF-8"?><svg id="Layer_2" xmlns="http://www.w3.org/2000/svg" viewBox="0 0 62.73 73.22"><defs><style>.cls-1{fill:#6cace3;}</style></defs><g id="work"><g><path class="cls-1" d="M61.85,31.94c.48,0,.88-.39,.88-.88v-5.33c0-.48-.39-.88-.88-.88h-11.78v-6.15C50.08,8.39,41.68,0,31.36,0S12.65,8.39,12.65,18.71v6.15H.88c-.48,0-.88,.39-.88,.88v46.61c0,.48,.39,.88,.88,.88H61.85c.48,0,.88-.39,.88-.88V40.05c0-.48-.39-.88-.88-.88s-.88,.39-.88,.88v31.41H1.75V26.61H60.98v4.46c0,.48,.39,.88,.88,.88ZM23.18,18.71c0-4.51,3.67-8.18,8.18-8.18s8.18,3.67,8.18,8.18c0,.48,.39,.88,.88,.88s.88-.39,.88-.88c0-5.48-4.46-9.93-9.93-9.93s-9.93,4.46-9.93,9.93v6.15h-7.03v-6.15C14.4,9.36,22.01,1.75,31.36,1.75s16.96,7.61,16.96,16.96v6.15H23.18v-6.15Z"/><path class="cls-1" d="M34.62,52.04c-.27,.15-.44,.45-.44,.76v1.27c0,.48,.39,.88,.88,.88s.87-.39,.87-.88v-.78c2.37-1.55,3.78-4.15,3.78-6.97,0-4.6-3.74-8.34-8.34-8.34s-8.34,3.74-8.34,8.34c0,2.82,1.41,5.42,3.78,6.97v5.93c0,.48,.39,.88,.88,.88h7.38c.48,0,.88-.39,.88-.88s-.39-.88-.88-.88h-6.5v-5.55c0-.31-.17-.61-.44-.76-2.06-1.17-3.33-3.37-3.33-5.72,0-3.63,2.96-6.59,6.59-6.59s6.59,2.96,6.59,6.59c0,2.36-1.28,4.55-3.33,5.72Z"/></g></g></svg>