<?xml version="1.0" encoding="UTF-8"?><svg id="Layer_2" xmlns="http://www.w3.org/2000/svg" viewBox="0 0 77 77.2"><defs><style>.cls-1{fill:#6cace3;}</style></defs><g id="work"><g><path class="cls-1" d="M58.35,77.2c-.3,0-.6-.17-.73-.47l-13.93-30.76h-10.43l-13.93,30.76c-.18,.4-.66,.58-1.06,.4-.4-.18-.58-.66-.4-1.06l14.14-31.23c.13-.29,.41-.47,.73-.47h11.47c.31,0,.6,.18,.73,.47l14.14,31.23c.18,.4,0,.88-.4,1.06-.11,.05-.22,.07-.33,.07Z"/><path class="cls-1" d="M50.79,61.41H26.15c-.44,0-.8-.36-.8-.8s.36-.8,.8-.8h24.64c.44,0,.8,.36,.8,.8s-.36,.8-.8,.8Z"/><path class="cls-1" d="M1.99,35.91c-.31,0-.61-.18-.74-.49-.17-.41,.02-.88,.42-1.05l14.39-6.1c.41-.17,.88,.02,1.05,.42,.17,.41-.02,.88-.42,1.05l-14.39,6.1c-.1,.04-.21,.06-.31,.06Z"/><path class="cls-1" d="M5.21,43.5c-.31,0-.61-.18-.74-.49-.17-.41,.02-.88,.43-1.05l18.92-8.01c.41-.17,.88,.02,1.05,.42,.17,.41-.02,.88-.43,1.05L5.52,43.44c-.1,.04-.21,.06-.31,.06Z"/><path class="cls-1" d="M25.3,38.25c-.1,0-.2-.02-.3-.06-.2-.08-.35-.23-.44-.43l-5.55-13.12c-.08-.2-.08-.42,0-.61,.08-.2,.23-.35,.43-.44l29.45-12.42c.41-.17,.88,.02,1.05,.43,.17,.41-.02,.88-.43,1.05l-28.71,12.11,4.93,11.64,7.26-3.07c.41-.18,.88,.02,1.05,.42,.17,.41-.02,.88-.42,1.05l-7.99,3.38c-.1,.04-.21,.06-.31,.06Z"/><path class="cls-1" d="M47.75,28.74c-.31,0-.61-.18-.74-.49-.17-.41,.02-.88,.43-1.05l11.54-4.88c.41-.17,.88,.02,1.05,.42s-.02,.88-.43,1.05l-11.54,4.88c-.1,.04-.21,.06-.31,.06Z"/><path class="cls-1" d="M60.45,26.22c-.1,0-.2-.02-.3-.06-.2-.08-.35-.23-.44-.43l-7.6-17.95c-.17-.41,.02-.88,.42-1.05L68.29,.06c.2-.08,.42-.08,.61,0,.2,.08,.35,.23,.44,.43l7.6,17.95c.17,.41-.02,.88-.42,1.05l-15.75,6.67c-.1,.04-.21,.06-.31,.06Zm-6.55-18.33l6.98,16.48,14.28-6.04L68.18,1.85l-14.28,6.04Z"/><path class="cls-1" d="M38.47,39.02c-3.29,0-5.97-2.68-5.97-5.97s2.68-5.97,5.97-5.97,5.97,2.68,5.97,5.97-2.68,5.97-5.97,5.97Zm0-10.34c-2.41,0-4.37,1.96-4.37,4.37s1.96,4.37,4.37,4.37,4.37-1.96,4.37-4.37-1.96-4.37-4.37-4.37Z"/><path class="cls-1" d="M6.32,46.14c-.31,0-.61-.18-.74-.49L.06,32.74c-.17-.41,.02-.88,.42-1.05,.41-.17,.88,.01,1.05,.42l5.51,12.91c.17,.41-.02,.88-.42,1.05-.1,.04-.21,.06-.31,.06Z"/><path class="cls-1" d="M38.47,77.14c-.44,0-.8-.36-.8-.8V38.32c0-.44,.36-.8,.8-.8s.8,.36,.8,.8v38.01c0,.44-.36,.8-.8,.8Z"/></g></g></svg>