<?xml version="1.0" encoding="UTF-8"?><svg id="Layer_2" xmlns="http://www.w3.org/2000/svg" viewBox="0 0 82 82"><defs><style>.cls-1{fill:#6cace3;}</style></defs><g id="work"><g><path class="cls-1" d="M41,54.38c-7.38,0-13.38-6-13.38-13.38s6-13.38,13.38-13.38,13.38,6,13.38,13.38-6,13.38-13.38,13.38Zm0-24.86c-6.33,0-11.48,5.15-11.48,11.48s5.15,11.48,11.48,11.48,11.48-5.15,11.48-11.48-5.15-11.48-11.48-11.48Z"/><path class="cls-1" d="M36.86,65.43c-.52,0-.95-.43-.95-.95v-3.84l-.32-.09c-1.6-.44-3.14-1.08-4.58-1.9l-.28-.16-2.72,2.72c-.18,.18-.42,.28-.67,.28s-.49-.1-.67-.28l-5.86-5.86c-.18-.18-.28-.42-.28-.67s.1-.49,.28-.67l2.72-2.72-.16-.28c-.82-1.45-1.46-2.99-1.9-4.58l-.09-.32h-3.84c-.52,0-.95-.43-.95-.95v-8.29c0-.53,.43-.95,.95-.95h3.85l.09-.31c.44-1.59,1.08-3.13,1.9-4.58l.16-.28-2.73-2.72c-.18-.18-.28-.42-.28-.67s.1-.49,.28-.67l5.86-5.86c.18-.18,.42-.28,.67-.28s.49,.1,.67,.28l2.72,2.72,.28-.16c1.45-.82,2.99-1.46,4.58-1.9l.31-.09v-3.84c0-.53,.43-.95,.95-.95h8.29c.52,0,.95,.43,.95,.95v3.84l.32,.09c1.6,.44,3.14,1.08,4.58,1.9l.28,.16,2.72-2.72c.18-.18,.42-.28,.67-.28s.49,.1,.67,.28l5.86,5.86c.18,.18,.28,.42,.28,.67s-.1,.49-.28,.67l-2.72,2.72,.16,.28c.82,1.45,1.46,2.99,1.9,4.58l.09,.32h3.84c.52,0,.95,.43,.95,.95v8.29c0,.53-.43,.95-.95,.95h-3.84l-.09,.31c-.44,1.59-1.08,3.13-1.9,4.58l-.16,.28,2.73,2.72c.18,.18,.28,.42,.28,.67s-.1,.49-.28,.67l-5.86,5.86c-.18,.18-.42,.28-.67,.28s-.49-.1-.67-.28l-2.72-2.72-.28,.16c-1.45,.82-2.99,1.46-4.58,1.9l-.31,.09v3.84c0,.53-.43,.95-.95,.95h-8.29Zm-6.27-9.11c.18,0,.36,.05,.51,.15,1.84,1.18,3.84,2.01,5.96,2.47,.44,.1,.75,.48,.75,.93v3.65h6.38v-3.65c0-.44,.31-.84,.75-.93,2.11-.46,4.12-1.29,5.96-2.48,.15-.1,.33-.15,.51-.15,.25,0,.49,.1,.67,.28l2.58,2.58,4.51-4.51-2.58-2.58c-.31-.31-.37-.81-.13-1.19,1.18-1.84,2.01-3.84,2.48-5.96,.1-.44,.48-.75,.93-.75h3.65v-6.38h-3.65c-.45,0-.83-.31-.93-.75-.46-2.12-1.3-4.13-2.47-5.96-.24-.37-.19-.87,.13-1.19l2.58-2.58-4.51-4.51-2.58,2.58c-.18,.18-.42,.28-.67,.28-.18,0-.36-.05-.51-.15-1.84-1.18-3.84-2.01-5.96-2.47-.44-.1-.75-.48-.75-.93v-3.65h-6.38v3.65c0,.44-.31,.84-.75,.93-2.12,.46-4.12,1.3-5.96,2.48-.15,.1-.33,.15-.51,.15h0c-.25,0-.49-.1-.67-.28l-2.58-2.58-4.51,4.51,2.58,2.58c.31,.31,.37,.81,.13,1.19-1.18,1.84-2.01,3.84-2.48,5.96-.1,.44-.48,.75-.93,.75h-3.65v6.38h3.65c.45,0,.83,.31,.93,.75,.46,2.12,1.3,4.13,2.47,5.96,.24,.37,.19,.87-.13,1.19l-2.58,2.58,4.51,4.51,2.58-2.58c.18-.18,.42-.28,.67-.28Z"/><path class="cls-1" d="M41,7.43c-2.05,0-3.71-1.67-3.71-3.71s1.67-3.71,3.71-3.71,3.71,1.67,3.71,3.71-1.67,3.71-3.71,3.71Zm0-5.52c-1,0-1.81,.81-1.81,1.81s.81,1.81,1.81,1.81,1.81-.81,1.81-1.81-.81-1.81-1.81-1.81Z"/><path class="cls-1" d="M41,82c-2.05,0-3.71-1.67-3.71-3.71s1.67-3.71,3.71-3.71,3.71,1.67,3.71,3.71-1.67,3.71-3.71,3.71Zm0-5.52c-1,0-1.81,.81-1.81,1.81s.81,1.81,1.81,1.81,1.81-.81,1.81-1.81-.81-1.81-1.81-1.81Z"/><path class="cls-1" d="M78.29,44.71c-2.05,0-3.71-1.67-3.71-3.71s1.67-3.71,3.71-3.71,3.71,1.67,3.71,3.71-1.67,3.71-3.71,3.71Zm0-5.52c-1,0-1.81,.81-1.81,1.81s.81,1.81,1.81,1.81,1.81-.81,1.81-1.81-.81-1.81-1.81-1.81Z"/><path class="cls-1" d="M3.71,44.71c-2.05,0-3.71-1.67-3.71-3.71s1.67-3.71,3.71-3.71,3.71,1.67,3.71,3.71-1.67,3.71-3.71,3.71Zm0-5.52c-1,0-1.81,.81-1.81,1.81s.81,1.81,1.81,1.81,1.81-.81,1.81-1.81-.81-1.81-1.81-1.81Z"/><path class="cls-1" d="M3.5,33.5C5.7,22.49,12.92,12.73,22.88,7.35l.32-.17-1.05-3.16c-.11-.32-.04-.66,.17-.91,.18-.22,.45-.34,.73-.34,.05,0,.09,0,.14,.01l9.67,1.38c.35,.05,.66,.3,.77,.64,.12,.35,.03,.72-.23,.97l-6.9,6.91c-.18,.18-.42,.28-.67,.28-.07,0-.15,0-.22-.03-.32-.08-.58-.31-.68-.63l-1.1-3.3-.45,.25C14.13,14.4,7.43,23.57,5.37,33.85l-1.87-.35ZM26.23,10.24l4.47-4.47-6.26-.89,1.79,5.36Z"/><path class="cls-1" d="M58.95,79.24s-.08,0-.12,0l-9.68-1.38c-.35-.05-.66-.3-.77-.64-.12-.35-.03-.72,.23-.97l6.91-6.91c.18-.18,.42-.28,.67-.28,.07,0,.15,0,.22,.03,.33,.08,.58,.31,.69,.63l1.1,3.3,.45-.25c9.23-5.14,15.93-14.31,17.99-24.59l1.87,.35c-2.2,11.02-9.42,20.77-19.38,26.15l-.32,.17,1.05,3.16c.11,.32,.04,.66-.17,.91-.18,.22-.45,.34-.73,.34Zm-7.65-3.01l6.26,.89-1.79-5.36-4.47,4.47Z"/><path class="cls-1" d="M76.91,33.67c-.25,0-.5-.1-.67-.28l-6.91-6.91c-.24-.23-.33-.57-.25-.89,.08-.32,.31-.58,.63-.68l3.3-1.1-.25-.45c-5.13-9.22-14.3-15.92-24.6-17.99l.35-1.87c11.04,2.21,20.79,9.43,26.15,19.39l.17,.32,3.16-1.05c.09-.03,.2-.05,.3-.05,.22,0,.44,.08,.61,.22,.25,.21,.38,.54,.33,.87l-1.38,9.67c-.05,.36-.3,.65-.64,.77-.1,.03-.2,.05-.3,.05Zm-5.14-7.44l4.47,4.47,.89-6.26-5.36,1.79Z"/><path class="cls-1" d="M33.5,78.51c-11.03-2.19-20.78-9.41-26.15-19.39l-.17-.32-3.16,1.05c-.1,.03-.2,.05-.3,.05-.22,0-.44-.08-.61-.22-.25-.21-.38-.54-.34-.87l1.38-9.67c.05-.36,.3-.65,.64-.77,.1-.03,.2-.05,.3-.05,.25,0,.49,.1,.67,.28l6.91,6.91c.24,.23,.33,.57,.25,.89-.08,.32-.31,.58-.63,.68l-3.3,1.1,.25,.45c5.13,9.24,14.3,15.94,24.6,17.99l-.35,1.87ZM4.87,57.56l5.36-1.79-4.47-4.47-.89,6.26Z"/></g></g></svg>