<?xml version="1.0" encoding="UTF-8"?><svg id="Layer_2" xmlns="http://www.w3.org/2000/svg" viewBox="0 0 83.07 88.53"><defs><style>.cls-1{fill:#6cace3;}</style></defs><g id="work"><g><path class="cls-1" d="M82.35,51.39c-.39,0-.71-.32-.71-.71V7.11c0-3.13-2.55-5.68-5.68-5.68H7.11C3.98,1.43,1.43,3.98,1.43,7.11v13.46c0,.39-.32,.71-.71,.71s-.71-.32-.71-.71V7.11C0,3.19,3.19,0,7.11,0H75.96c3.92,0,7.11,3.19,7.11,7.11V50.68c0,.39-.32,.71-.71,.71Z"/><path class="cls-1" d="M7.11,88.53c-3.92,0-7.11-3.19-7.11-7.11V25.83c0-.39,.32-.71,.71-.71s.71,.32,.71,.71v55.59c0,3.13,2.55,5.68,5.68,5.68H75.96c3.13,0,5.68-2.55,5.68-5.68v-25.48c0-.39,.32-.71,.71-.71s.71,.32,.71,.71v25.48c0,3.92-3.19,7.11-7.11,7.11H7.11Z"/><path class="cls-1" d="M11.5,42.86c-1.81,0-3.27-1.47-3.27-3.27v-13.8c0-1.81,1.47-3.27,3.27-3.27h5.91c1.81,0,3.27,1.47,3.27,3.27v13.8c0,1.81-1.47,3.27-3.27,3.27h-5.91Zm0-18.92c-1.02,0-1.85,.83-1.85,1.85v13.8c0,1.02,.83,1.85,1.85,1.85h5.91c1.02,0,1.85-.83,1.85-1.85v-13.8c0-1.02-.83-1.85-1.85-1.85h-5.91Z"/><path class="cls-1" d="M29.3,42.86c-1.81,0-3.27-1.47-3.27-3.27V19.88c0-1.81,1.47-3.27,3.27-3.27h5.91c1.81,0,3.27,1.47,3.27,3.27v19.7c0,1.81-1.47,3.27-3.27,3.27h-5.91Zm0-24.82c-1.02,0-1.85,.83-1.85,1.85v19.7c0,1.02,.83,1.85,1.85,1.85h5.91c1.02,0,1.85-.83,1.85-1.85V19.88c0-1.02-.83-1.85-1.85-1.85h-5.91Z"/><path class="cls-1" d="M47.1,42.86c-1.81,0-3.27-1.47-3.27-3.27V16.41c0-1.81,1.47-3.27,3.27-3.27h5.91c1.81,0,3.27,1.47,3.27,3.27v23.17c0,1.81-1.47,3.27-3.27,3.27h-5.91Zm0-28.3c-1.02,0-1.85,.83-1.85,1.85v23.17c0,1.02,.83,1.85,1.85,1.85h5.91c1.02,0,1.85-.83,1.85-1.85V16.41c0-1.02-.83-1.85-1.85-1.85h-5.91Z"/><path class="cls-1" d="M64.9,42.86c-1.81,0-3.27-1.47-3.27-3.27v-15.54c0-1.81,1.47-3.27,3.27-3.27h5.91c1.81,0,3.27,1.47,3.27,3.27v15.54c0,1.81-1.47,3.27-3.27,3.27h-5.91Zm0-20.66c-1.02,0-1.85,.83-1.85,1.85v15.54c0,1.02,.83,1.85,1.85,1.85h5.91c1.02,0,1.85-.83,1.85-1.85v-15.54c0-1.02-.83-1.85-1.85-1.85h-5.91Z"/><path class="cls-1" d="M58.96,77.84c-4,0-7.77-1.55-10.62-4.37l-.1-.1c-2.85-2.89-4.41-6.67-4.41-10.67,0-8.34,6.79-15.13,15.13-15.13s15.13,6.79,15.13,15.13c0,4-1.55,7.77-4.37,10.62l-.14,.14c-2.85,2.82-6.63,4.37-10.62,4.37Zm-9.18-4.94l.51,.42c2.44,2,5.52,3.1,8.67,3.1s6.23-1.1,8.66-3.1l.51-.42-9.18-9.18-9.18,9.18Zm7.8-23.82c-7.03,.7-12.33,6.57-12.33,13.63,0,3.15,1.1,6.22,3.1,8.66l.42,.51,9.47-9.47v-13.4l-.66,.07Zm11.56,22.81l.42-.51c1.71-2.09,2.76-4.61,3.03-7.29l.07-.66h-11.98l8.46,8.46Zm-9.47-9.89h12.99l-.07-.66c-.65-6.46-5.8-11.61-12.26-12.26l-.66-.07v12.99Z"/><path class="cls-1" d="M8.94,55.78c-.39,0-.71-.32-.71-.71s.32-.71,.71-.71h23.32c.39,0,.71,.32,.71,.71s-.32,.71-.71,.71H8.94Z"/><path class="cls-1" d="M8.94,63.43c-.39,0-.71-.32-.71-.71s.32-.71,.71-.71h23.32c.39,0,.71,.32,.71,.71s-.32,.71-.71,.71H8.94Z"/><path class="cls-1" d="M8.94,71.07c-.39,0-.71-.32-.71-.71s.32-.71,.71-.71h23.32c.39,0,.71,.32,.71,.71s-.32,.71-.71,.71H8.94Z"/></g></g></svg>