<?xml version="1.0" encoding="UTF-8"?><svg id="Layer_2" xmlns="http://www.w3.org/2000/svg" viewBox="0 0 72.82 84.06"><defs><style>.cls-1{fill:#6cace3;}</style></defs><g id="work"><path class="cls-1" d="M60.31,84.06c-3.23,0-6.53-.45-9.8-1.33-4.59-1.24-7.81-2.96-8.98-3.64l-.24-.14-.27,.04c-1.52,.25-3.08,.38-4.61,.38s-3.09-.13-4.61-.38l-.27-.04-.24,.14c-1.17,.68-4.4,2.4-8.98,3.64-3.27,.88-6.58,1.33-9.85,1.33-4.13,0-8.13-.72-11.9-2.15-.27-.1-.46-.32-.53-.6-.07-.28,0-.57,.2-.78,4.03-4.46,4.17-15.43,3.71-26.61v-.31s-.24-.21-.24-.21c-1.58-1.49-2.45-3.49-2.45-5.65,0-1.88,.68-3.69,1.93-5.11l.2-.23v-.31c-.54-10.78-.92-18.56,2.65-25.52,.2-.38,.4-.76,.62-1.13,2.43-4.17,7.05-6.95,12.05-7.25l.33-.02,.21-.26C23.18,3.12,28.95,.24,35.06,.02c.46-.02,.91-.02,1.37-.02,6.63,0,13.16,1.74,18.88,5.04,5.24,3.02,9.11,6.9,11.49,11.54,3.57,6.95,3.19,14.74,2.66,25.52v.31s.19,.23,.19,.23c1.24,1.42,1.93,3.23,1.93,5.11,0,2.16-.87,4.17-2.45,5.65l-.23,.21v.31c-.47,11.18-.33,22.14,3.7,26.6,.19,.21,.26,.5,.2,.78-.07,.28-.27,.5-.53,.6-3.77,1.43-7.8,2.15-11.96,2.15Zm5.79-28.9c-.39,.12-.79,.21-1.21,.27l-.55,.08-.1,.55c-1.78,10.04-8.88,18.36-18.53,21.74l-1.86,.65,1.8,.78c1.76,.76,3.58,1.39,5.41,1.88,3.14,.84,6.27,1.27,9.3,1.27s6.24-.46,9.21-1.35l.93-.28-.49-.84c-2.5-4.26-3.35-11.21-2.93-23.97l.04-1.08-1.03,.32Zm-60.38,.76c.42,12.76-.43,19.7-2.93,23.97l-.49,.84,.93,.28c2.95,.89,6.04,1.34,9.19,1.34,6.16,0,11.41-1.7,14.72-3.13l1.81-.78-1.86-.65c-9.64-3.37-16.74-11.7-18.52-21.73l-.1-.55-.55-.08c-.41-.06-.82-.15-1.21-.27l-1.03-.32,.04,1.08ZM23.13,31.01c-2.64,4.91-6.77,7.76-12.63,8.73l-.64,.11v11.26c0,14.64,11.91,26.55,26.55,26.55s26.55-11.91,26.55-26.55v-7.21s-1.29,.01-1.55,.01c-9.44,0-18.12-1.88-25.82-5.59-5.33-2.57-9.07-5.5-11.27-7.5l-.73-.66-.47,.87Zm-15.99,10.98c-2.5,.81-4.19,3.12-4.19,5.75s1.71,4.98,4.24,5.77l1.06,.33-.07-1.11c-.03-.54-.05-1.09-.05-1.64v-9.43l-1,.33Zm57.54,9.11c0,.55-.02,1.1-.05,1.64l-.06,1.11,1.06-.33c2.54-.79,4.24-3.11,4.24-5.77s-1.68-4.94-4.19-5.75l-1-.33v9.43ZM23.31,27.77c.23,0,.46,.1,.62,.26,3.18,3.32,15.29,14.15,37.54,14.15,0,0,1.5-.01,1.5-.01v-4.45c0-.47,.38-.86,.86-.86s.86,.38,.86,.86v2.28l.62,.12c.52,.1,1.02,.25,1.49,.45l1.01,.42,.05-1.09c.45-10.03,.5-16.55-2.58-22.54-2.23-4.34-5.87-7.99-10.82-10.84-5.46-3.15-11.7-4.81-18.03-4.81-.43,0-.87,0-1.3,.02-5.88,.21-11.35,3.06-14.99,7.81-.16,.21-.4,.33-.66,.33h-.08c-4.7,.08-9.01,2.54-11.27,6.43-.2,.34-.39,.7-.58,1.05-3.08,6-3.03,12.52-2.58,22.55l.05,1.09,1.01-.42c.48-.2,.98-.35,1.49-.45l.62-.12v-.93c0-.44,.33-.81,.76-.85,6.8-.74,11.13-3.9,13.61-9.92,.11-.27,.35-.46,.63-.52,.06-.01,.11-.02,.16-.02Z"/></g></svg>