<?xml version="1.0" encoding="UTF-8"?><svg id="Layer_2" xmlns="http://www.w3.org/2000/svg" viewBox="0 0 65.68 85"><defs><style>.cls-1{fill:#6cace3;}</style></defs><g id="work"><g><path class="cls-1" d="M9.84,85c-2.43,0-4.4-1.97-4.4-4.4v-14.48h-.86c-2.52,0-4.58-2.05-4.58-4.58s2.05-4.58,4.58-4.58h.86v-3.32h-.86c-2.52,0-4.58-2.05-4.58-4.58s2.05-4.58,4.58-4.58h.86v-3.32h-.86c-2.52,0-4.58-2.05-4.58-4.58s2.05-4.58,4.58-4.58h.86v-3.32h-.86c-2.52,0-4.58-2.05-4.58-4.58s2.05-4.58,4.58-4.58h.86v-3.32h-.86c-2.52,0-4.58-2.05-4.58-4.58S2.05,7.08,4.58,7.08h.86v-2.69C5.44,1.97,7.41,0,9.84,0H55.38c2.43,0,4.4,1.97,4.4,4.4v1.5h1.49c2.43,0,4.4,1.97,4.4,4.4V74.71c0,2.43-1.97,4.4-4.4,4.4h-1.49v1.5c0,2.43-1.97,4.4-4.4,4.4H9.84Zm-2.81-11.6v7.2c0,1.55,1.26,2.82,2.81,2.82H55.38c1.55,0,2.81-1.26,2.81-2.82v-1.5s-42.47,0-42.47,0c-2.42,0-4.4-1.97-4.4-4.4v-1.5h-1.49c-.08,0-.16,0-.24,0l-.24-.02-.32-.05-.36-.08-.21-.07-.21-.08-.2-.08-.91-.41-.12,.97Zm5.89,1.31c0,1.55,1.26,2.82,2.81,2.82H61.28c1.55,0,2.82-1.26,2.82-2.82V10.29c0-1.55-1.26-2.82-2.82-2.82h-1.49v61.34c0,2.42-1.97,4.4-4.4,4.4H12.92v1.5Zm-5.89-5.89c0,1.55,1.26,2.81,2.82,2.81H55.38c1.55,0,2.81-1.26,2.81-2.81V4.4c0-1.55-1.26-2.81-2.81-2.81H9.84c-1.55,0-2.82,1.26-2.82,2.81v2.69h2.6c.44,0,.79,.36,.79,.79s-.36,.79-.79,.79h-2.6v10.89h2.6c.44,0,.79,.35,.79,.79s-.36,.79-.79,.79h-2.6v10.89h2.6c.44,0,.79,.35,.79,.79s-.36,.79-.79,.79h-2.6v10.89h2.6c.44,0,.79,.35,.79,.79s-.36,.79-.79,.79h-2.6v10.89h2.6c.44,0,.79,.35,.79,.79s-.36,.79-.79,.79h-2.6v10.26Zm-2.44-10.26c-1.65,0-2.99,1.34-2.99,3s1.34,3,2.99,3h.86v-5.99h-.86Zm0-12.47c-1.65,0-2.99,1.34-2.99,3s1.34,2.99,2.99,2.99h.86v-5.99h-.86Zm0-12.47c-1.65,0-2.99,1.34-2.99,3s1.34,3,2.99,3h.86v-5.99h-.86Zm0-12.47c-1.65,0-2.99,1.34-2.99,2.99s1.34,3,2.99,3h.86v-5.99h-.86Zm0-12.47c-1.65,0-2.99,1.34-2.99,3s1.34,2.99,2.99,2.99h.86v-5.99h-.86Z"/><g><path class="cls-1" d="M20.76,42.5l2.78-14.73h3.71l2.75,14.73h-3l-.49-3.11h-2.16l-.51,3.11h-3.07Zm3.87-5.05h1.56l-.78-5.75-.78,5.75Z"/><path class="cls-1" d="M31.56,37.06v-1.89h4.71v1.89h-4.71Z"/><path class="cls-1" d="M37.95,42.5v-1.96l3.6-10.56h-3.44v-2.2h6.64v1.84l-3.65,10.69h3.69v2.2h-6.84Z"/></g></g></g></svg>