<?xml version="1.0" encoding="UTF-8"?><svg id="Layer_2" xmlns="http://www.w3.org/2000/svg" viewBox="0 0 75.23 70.5"><defs><style>.cls-1{fill:#6cace3;}</style></defs><g id="work"><g><path class="cls-1" d="M70.78,18.95c-2.46,0-4.45,2-4.45,4.45v9.19h1.8v-9.19c0-1.46,1.19-2.65,2.65-2.65s2.65,1.19,2.65,2.65v18.94c0,.09-.05,2.06-2.11,4.12l-8.29,8.29c-2.6,2.6-2.63,5.26-2.63,5.37v1.47h-11.23v-8.58s.02-3.21,2.11-5.29l11.58-11.58h.81c1.46,0,2.65,1.19,2.65,2.65v.81l-7.83,7.83,1.27,1.27,8.35-8.35v-1.56c0-2.46-2-4.45-4.45-4.45h-1.56l-12.11,12.11c-2.6,2.6-2.63,6.4-2.63,6.56v8.58h-.28c-1.15,0-2.08,.94-2.08,2.08v6.82h1.8v-7.11h15.97v7.11h1.8v-6.82c0-1.15-.93-2.08-2.08-2.08h-.28v-1.45c0-.09,.05-2.06,2.11-4.12l8.29-8.29c2.6-2.6,2.63-5.26,2.63-5.37V23.4c0-2.46-2-4.45-4.45-4.45Z"/><path class="cls-1" d="M28.14,61.59h-.28v-8.58c0-.16-.03-3.96-2.63-6.56l-12.11-12.11h-1.56c-2.46,0-4.45,2-4.45,4.45v1.56l8.35,8.35,1.27-1.27-7.83-7.83v-.81c0-1.46,1.19-2.65,2.65-2.65h.81l11.58,11.58c2.08,2.08,2.11,5.26,2.11,5.29v8.58H14.83v-1.47c0-.11-.03-2.77-2.63-5.37L3.9,46.46c-2.05-2.05-2.1-4.02-2.11-4.1V23.4c0-1.46,1.19-2.65,2.65-2.65s2.65,1.19,2.65,2.65v9.19h1.8v-9.19c0-2.46-2-4.45-4.45-4.45S0,20.95,0,23.4v18.95c0,.11,.03,2.77,2.63,5.37l8.29,8.29c2.05,2.05,2.1,4.02,2.11,4.1v1.47h-.28c-1.15,0-2.08,.94-2.08,2.08v6.82h1.8v-7.11h15.97v7.11h1.8v-6.82c0-1.15-.94-2.08-2.08-2.08Z"/><rect class="cls-1" x="36.72" y="14.21" width="1.8" height="1.8"/><rect class="cls-1" x="36.72" y="18.95" width="1.8" height="1.8"/><path class="cls-1" d="M61.02,11.56c0-6.37-5.19-11.56-11.56-11.56-4.61,0-9.49,2.93-11.59,6.96l-.25,.48-.25-.48C35.26,2.93,30.38,0,25.77,0c-6.37,0-11.56,5.19-11.56,11.56,0,18.09,22.02,31.03,22.95,31.57l.45,.26,.45-.26c.94-.54,22.95-13.49,22.95-31.57Zm-23.25,29.65l-.15,.1-.15-.1c-3.58-2.24-21.45-14.22-21.45-29.65,0-5.38,4.38-9.76,9.76-9.76s10.76,3.61,10.94,9.48h1.81c.18-5.86,5.76-9.48,10.94-9.48s9.76,4.38,9.76,9.76c0,15.42-17.87,27.4-21.45,29.65Z"/><path class="cls-1" d="M54.48,11.27h1.8c-.16-3.06-2.88-6.37-6.53-6.53v1.8c2.42,.16,4.57,2.31,4.73,4.73Z"/><path class="cls-1" d="M18.96,11.27h1.8c.16-2.42,2.31-4.57,4.73-4.73v-1.8c-3.65,.16-6.37,3.47-6.53,6.53Z"/></g></g></svg>