<?xml version="1.0" encoding="UTF-8"?><svg id="Layer_2" xmlns="http://www.w3.org/2000/svg" viewBox="0 0 80.75 80.75"><defs><style>.cls-1{fill:#6cace3;}</style></defs><g id="work"><g><path class="cls-1" d="M53.55,80.75c-3.17,0-6.1-1.47-7.65-3.84l-.17-.27-.31,.06c-.36,.06-.72,.1-1.09,.1-2.89,0-5.41-2.06-5.99-4.89l-.08-.38H6.11c-3.37,0-6.11-2.74-6.11-6.11V14.5H1.67v50.92c0,2.45,1.99,4.43,4.43,4.43H38.28l.08-.38c.42-2.01,1.81-3.67,3.73-4.44l.38-.15-.09-.4c-.13-.57-.2-1.14-.2-1.69,0-3.64,2.6-6.72,6.19-7.32l.4-.07v-3.63h-3.46l-.25-.25c-.62-.62-1.23-1.34-1.86-2.19l-.14-.2h-4c-3.86,0-7.56,1.85-9.87,4.94l-.25,.33h-2.57v-8.74c0-7.18,5.6-13.3,12.74-13.95l.44-.04v-3.4c0-9.37,3.22-18.57,9.08-25.89,1.21-1.51,3.01-2.37,4.94-2.37s3.73,.86,4.94,2.37c5.86,7.32,9.08,16.51,9.08,25.89v3.4l.44,.04c7.15,.65,12.74,6.78,12.74,13.95v8.74h-2.57l-.25-.33c-2.32-3.09-6.01-4.94-9.87-4.94h-4l-.14,.2c-.63,.86-1.24,1.58-1.86,2.19l-.25,.25h-3.46v3.6h.48c4.1,0,7.43,3.33,7.43,7.43,0,.74-.12,1.5-.36,2.24l-.11,.35,.31,.2c1.75,1.14,2.8,3.05,2.8,5.12,0,3.37-2.74,6.11-6.11,6.11-.36,0-.72-.03-1.07-.1l-.32-.06-.18,.27c-1.52,2.37-4.46,3.84-7.66,3.84Zm-7.05-6.95c.3,2.95,3.35,5.27,7.05,5.27,2.96,0,5.63-1.53,6.64-3.8l.32-.72,.74,.27c.53,.2,1.08,.3,1.62,.3,2.4,0,4.35-1.99,4.35-4.44s-1.99-4.43-4.43-4.43c-1.41,0-2.71,.67-3.54,1.8l-1.45-.85c1.15-1.65,2.98-2.62,4.99-2.62,.36,0,.72,.05,1.02,.11l.43,.07,.12-.42c.16-.56,.23-1.07,.23-1.56,0-3.17-2.58-5.75-5.75-5.75h-2.16v-5.27h-6.23v5.27h-.84c-3.17,0-5.75,2.58-5.75,5.75s2.32,5.49,5.27,5.73v1.68c-2.36-.15-4.5-1.42-5.79-3.45l-.21-.33-.37,.14c-1.71,.66-2.86,2.32-2.86,4.13,0,2.45,1.99,4.43,4.43,4.43,.04,0,.09,0,.13,0l.51-.06-.04-.51c-.05-.26-.09-.5-.11-.73h1.68Zm21.06-35.61c0,3-.69,5.88-2.06,8.55l-.36,.7h2.9c3.83,0,7.55,1.6,10.19,4.4l.83,.88v-7.08c0-6.29-4.72-11.57-10.97-12.26l-.53-.06v4.87Zm-28.57-4.81c-6.25,.7-10.97,5.97-10.97,12.26v7.08l.83-.88c2.64-2.8,6.36-4.4,10.19-4.4h2.9l-.36-.7c-1.37-2.67-2.06-5.55-2.06-8.55v-4.87l-.53,.06Zm3.4,11.12c.79,2.01,1.95,3.83,3.45,5.42l.14,.15h15.12l.14-.15c1.49-1.59,2.65-3.42,3.45-5.42l.26-.66h-22.81l.26,.66Zm3.35-34.63c-2.97,5.71-4.54,12.06-4.54,18.39v9.93c0,1.17,.13,2.38,.39,3.6l.08,.38h23.74l.08-.38c.26-1.22,.39-2.43,.39-3.6v-9.93c0-6.32-1.57-12.68-4.54-18.39l-.27-.52-.46,.36c-2.02,1.61-4.53,2.5-7.07,2.5s-5.05-.89-7.07-2.5l-.46-.36-.27,.52ZM53.55,1.67c-1.42,0-2.74,.64-3.63,1.74-.93,1.17-1.86,2.51-2.84,4.11l-.21,.35,.3,.27c1.79,1.57,3.99,2.4,6.38,2.4s4.59-.83,6.38-2.4l.3-.27-.21-.34c-.97-1.6-1.9-2.94-2.84-4.11-.89-1.11-2.21-1.74-3.63-1.74Z"/><rect class="cls-1" x="50.08" y="36.9" width="1.67" height="1.67"/><rect class="cls-1" x="55.35" y="36.9" width="1.67" height="1.67"/><rect class="cls-1" x="60.62" y="36.9" width="1.67" height="1.67"/><rect class="cls-1" x="44.81" y="36.9" width="1.67" height="1.67"/><path class="cls-1" d="M53.55,6.95c-.46,0-.84-.38-.84-.84s.38-.84,.84-.84,.84,.38,.84,.84-.38,.84-.84,.84Z"/><path class="cls-1" d="M53.55,33.3c-4.82,0-8.74-3.92-8.74-8.74s3.92-8.74,8.74-8.74,8.74,3.92,8.74,8.74-3.92,8.74-8.74,8.74Zm0-15.82c-3.9,0-7.07,3.17-7.07,7.07s3.17,7.07,7.07,7.07,7.07-3.17,7.07-7.07-3.17-7.07-7.07-7.07Z"/><path class="cls-1" d="M53.55,28.03c-1.92,0-3.47-1.56-3.47-3.47s1.56-3.47,3.47-3.47,3.47,1.56,3.47,3.47-1.56,3.47-3.47,3.47Zm0-5.27c-.99,0-1.8,.81-1.8,1.8s.81,1.8,1.8,1.8,1.8-.81,1.8-1.8-.81-1.8-1.8-1.8Z"/><polygon class="cls-1" points="7.91 60.98 7.91 48.16 5.75 51.04 4.41 50.03 8.74 44.25 13.08 50.03 11.74 51.04 9.58 48.16 9.58 60.98 7.91 60.98"/><rect class="cls-1" x="7.91" y="64.58" width="1.67" height="1.67"/><rect class="cls-1" x="21.09" y="64.58" width="1.67" height="1.67"/><polygon class="cls-1" points="21.09 60.98 21.09 34.98 18.93 37.86 17.59 36.85 21.92 31.07 26.26 36.85 24.92 37.86 22.76 34.98 22.76 60.98 21.09 60.98"/><path class="cls-1" d="M8.74,39.89c-1.92,0-3.47-1.56-3.47-3.47s1.56-3.47,3.47-3.47c.5,0,1,.12,1.49,.35l.31,.15,8.41-8.41-.15-.31c-.23-.48-.35-.98-.35-1.49,0-1.92,1.56-3.47,3.47-3.47,.5,0,1,.12,1.49,.35l.31,.15,5.77-5.77-.15-.31c-.23-.48-.35-.98-.35-1.49,0-1.92,1.56-3.47,3.47-3.47s3.47,1.56,3.47,3.47-1.56,3.47-3.47,3.47c-.5,0-1-.12-1.49-.35l-.31-.15-5.77,5.77,.15,.31c.23,.48,.35,.98,.35,1.49,0,1.92-1.56,3.47-3.47,3.47-.5,0-1-.12-1.49-.35l-.31-.15-8.41,8.41,.15,.31c.23,.48,.35,.98,.35,1.49,0,1.92-1.56,3.47-3.47,3.47Zm0-5.27c-.99,0-1.8,.81-1.8,1.8s.81,1.8,1.8,1.8,1.8-.81,1.8-1.8-.81-1.8-1.8-1.8Zm13.18-13.18c-.99,0-1.8,.81-1.8,1.8s.81,1.8,1.8,1.8,1.8-.81,1.8-1.8-.81-1.8-1.8-1.8Zm10.54-10.54c-.99,0-1.8,.81-1.8,1.8s.81,1.8,1.8,1.8,1.8-.81,1.8-1.8-.81-1.8-1.8-1.8Z"/></g></g></svg>