<?xml version="1.0" encoding="UTF-8"?><svg id="Layer_2" xmlns="http://www.w3.org/2000/svg" viewBox="0 0 41.94 80.07"><defs><style>.cls-1{fill:#6cace3;}</style></defs><g id="work"><g><path class="cls-1" d="M36.9,0H5.04C2.26,0,0,2.26,0,5.04V75.03c0,2.78,2.26,5.04,5.04,5.04h31.86c2.78,0,5.04-2.26,5.04-5.04V5.04c0-2.78-2.26-5.04-5.04-5.04Zm3.3,75.03c0,1.82-1.48,3.3-3.3,3.3H5.04c-1.82,0-3.3-1.48-3.3-3.3V5.04c0-1.82,1.48-3.3,3.3-3.3h31.86c1.82,0,3.3,1.48,3.3,3.3V75.03Z"/><path class="cls-1" d="M25.15,72.62c0-1.91-1.55-3.46-3.46-3.46s-3.46,1.55-3.46,3.46,1.55,3.46,3.46,3.46,3.46-1.55,3.46-3.46Zm-3.38,1.73s-.06,.02-.09,.02c-.95,0-1.73-.77-1.73-1.73s.77-1.73,1.73-1.73,1.73,.77,1.73,1.73c-.01,.91-.74,1.66-1.64,1.71Z"/><path class="cls-1" d="M36.21,9.02H5.56c-.48,0-.87,.39-.87,.87s.39,.87,.87,.87h30.66c.48,0,.87-.39,.87-.87s-.39-.87-.87-.87Z"/><path class="cls-1" d="M36.21,65.91H5.56c-.48,0-.87,.39-.87,.87s.39,.87,.87,.87h30.66c.48,0,.87-.39,.87-.87s-.39-.87-.87-.87Z"/><path class="cls-1" d="M11.87,5.12c0,.48,.39,.87,.87,.87h2.81c.48,0,.87-.39,.87-.87s-.39-.87-.87-.87h-2.81c-.48,0-.87,.39-.87,.87Z"/><path class="cls-1" d="M18.22,5.12c0,.48,.39,.87,.87,.87h12.37c.48,0,.87-.39,.87-.87s-.39-.87-.87-.87h-12.37c-.48,0-.87,.39-.87,.87Z"/><path class="cls-1" d="M8.42,50.22c-.29,.38-.21,.92,.17,1.21,.15,.11,.34,.19,.53,.17,.27,0,.52-.13,.69-.34l22.62-29.57c.15-.18,.22-.41,.19-.64s-.14-.44-.32-.58l-.04-.03c-.16-.12-.34-.18-.52-.18-.26,0-.52,.12-.69,.34L8.42,50.22Z"/><path class="cls-1" d="M24.11,39.98c.29-.38,.22-.92-.16-1.21-.15-.12-.34-.18-.53-.18-.04,0-.07,0-.11,0-.23,.03-.43,.15-.58,.33l-7.3,9.48c-.29,.38-.21,.92,.17,1.21,.15,.12,.33,.18,.52,.18h0c.27,0,.52-.13,.69-.34l7.3-9.49Z"/><path class="cls-1" d="M25.16,37.08c.15,.12,.34,.19,.53,.19,.26,0,.51-.12,.67-.33l3.31-4.17c.29-.37,.23-.92-.14-1.21-.37-.3-.92-.24-1.22,.13,0,0,0,0,0,0l-3.3,4.17c-.3,.38-.23,.92,.14,1.22Z"/></g></g></svg>