<?xml version="1.0" encoding="UTF-8"?><svg id="Layer_2" xmlns="http://www.w3.org/2000/svg" viewBox="0 0 50.99 79.83"><defs><style>.cls-1{fill:#6cace3;}</style></defs><g id="work"><g><path class="cls-1" d="M25.5,54.33c9.22,0,16.72-7.5,16.72-16.73V16.72C42.22,7.5,34.72,0,25.5,0S8.77,7.5,8.77,16.72v20.88c0,9.22,7.5,16.73,16.72,16.73Zm0-52.31c8.1,0,14.7,6.6,14.7,14.7v10.12h-5.26v-2.69c0-.56-.45-1.01-1.01-1.01s-1.01,.45-1.01,1.01v2.69h-3.81v-10.71c0-.56-.45-1.01-1.01-1.01s-1.01,.45-1.01,1.01v10.71h-3.81v-6.56c0-.56-.45-1.01-1.01-1.01s-1.01,.45-1.01,1.01v6.56h-3.81v-3.52c0-.56-.45-1.01-1.01-1.01s-1.01,.45-1.01,1.01v3.52h-4.6v-10.12c0-8.11,6.59-14.7,14.7-14.7ZM10.8,28.87h4.6v4.01c0,.56,.45,1.01,1.01,1.01s1.01-.45,1.01-1.01v-4.01h3.81v7.05c0,.56,.45,1.01,1.01,1.01s1.01-.45,1.01-1.01v-7.05h3.81v11.2c0,.56,.45,1.01,1.01,1.01s1.01-.45,1.01-1.01v-11.2h3.81v3.18c0,.56,.45,1.01,1.01,1.01s1.01-.45,1.01-1.01v-3.18h5.26v8.74c0,8.11-6.59,14.7-14.7,14.7s-14.7-6.6-14.7-14.7v-8.74Z"/><path class="cls-1" d="M50.99,38.24v-7.37c0-.56-.45-1.01-1.01-1.01s-1.01,.45-1.01,1.01v7.37c0,12.94-10.53,23.47-23.47,23.47S2.02,51.19,2.02,38.24v-7.37c0-.56-.45-1.01-1.01-1.01s-1.01,.45-1.01,1.01v7.37c0,13.65,10.79,24.83,24.28,25.47v14.1H7.9c-.56,0-1.01,.45-1.01,1.01s.45,1.01,1.01,1.01H42.87c.56,0,1.01-.45,1.01-1.01s-.45-1.01-1.01-1.01H26.31v-14.09c13.68-.43,24.69-11.69,24.69-25.48Z"/></g></g></svg>