<?xml version="1.0" encoding="UTF-8"?><svg id="Layer_2" xmlns="http://www.w3.org/2000/svg" viewBox="0 0 74.84 74.84"><defs><style>.cls-1{fill:#6cace3;}</style></defs><g id="work"><g><path class="cls-1" d="M37.42,74.84C16.79,74.84,0,58.06,0,37.42S16.79,0,37.42,0s37.42,16.79,37.42,37.42-16.79,37.42-37.42,37.42ZM37.42,1.8C17.78,1.8,1.8,17.78,1.8,37.42s15.98,35.62,35.62,35.62,35.62-15.98,35.62-35.62S57.06,1.8,37.42,1.8Z"/><path class="cls-1" d="M47.34,54.2c-.63,0-1.26-.24-1.74-.72l-8.24-8.24-7.95,7.95c-.92,.92-2.52,.92-3.43,0l-4.32-4.32c-.95-.95-.95-2.49,0-3.43l7.95-7.95-8.24-8.24c-.46-.46-.72-1.08-.72-1.74s.26-1.27,.72-1.74l4.41-4.41c.96-.96,2.52-.96,3.48,0l8.24,8.24,7.95-7.95c.91-.92,2.52-.92,3.43,0l4.32,4.32c.95,.95,.95,2.49,0,3.43l-7.95,7.95,8.24,8.24c.96,.96,.96,2.52,0,3.48l-4.41,4.41c-.48,.48-1.11,.72-1.74,.72Zm-9.98-11.13c.23,0,.46,.09,.64,.26l8.88,8.88c.26,.26,.67,.26,.93,0l4.41-4.41c.26-.26,.26-.67,0-.93l-8.88-8.88c-.35-.35-.35-.92,0-1.27l8.58-8.58c.25-.25,.25-.64,0-.89l-4.32-4.32c-.24-.24-.65-.24-.89,0l-8.58,8.58c-.34,.34-.94,.34-1.27,0l-8.88-8.88c-.26-.26-.67-.26-.93,0l-4.41,4.41c-.12,.12-.19,.29-.19,.47s.07,.34,.19,.46l8.88,8.88c.17,.17,.26,.4,.26,.64s-.09,.47-.26,.64l-8.58,8.58c-.25,.25-.25,.64,0,.89l4.32,4.32c.24,.24,.65,.24,.89,0l8.58-8.58c.18-.18,.41-.26,.64-.26Z"/></g></g></svg>