<?xml version="1.0" encoding="UTF-8"?><svg id="Layer_2" xmlns="http://www.w3.org/2000/svg" viewBox="0 0 80.75 80.75"><defs><style>.cls-1{fill:#6cace3;}</style></defs><g id="work"><g><path class="cls-1" d="M19.96,80.75l-1.23-4.81-.26-.08c-1.22-.38-2.4-.86-3.52-1.45l-.24-.13-4.27,2.53-6.51-6.51,2.53-4.27-.13-.24c-.59-1.11-1.08-2.3-1.45-3.52l-.08-.26-4.81-1.23v-9.21l4.81-1.23,.08-.26c.38-1.22,.86-2.4,1.45-3.52l.13-.24-2.53-4.27,6.51-6.51,4.27,2.53,.24-.13c1.11-.59,2.3-1.08,3.52-1.45l.26-.08,1.23-4.81h9.21l1.23,4.81,.26,.08c1.22,.38,2.4,.86,3.52,1.45l.24,.13,4.27-2.53,6.51,6.51-2.53,4.27,.13,.24c.59,1.11,1.07,2.29,1.45,3.52l.08,.26,4.81,1.23v9.21l-4.81,1.23-.08,.26c-.38,1.22-.86,2.4-1.45,3.52l-.13,.24,2.53,4.27-6.51,6.51-4.27-2.53-.24,.13c-1.11,.59-2.3,1.08-3.52,1.45l-.26,.08-1.23,4.81h-9.21Zm1.3-1.67h6.61l1.15-4.5,.47-.13c1.6-.43,3.11-1.06,4.51-1.87l.42-.24,3.99,2.37,4.67-4.67-2.37-3.99,.24-.42c.81-1.4,1.44-2.92,1.87-4.51l.13-.47,4.5-1.15v-6.61l-4.5-1.15-.13-.47c-.43-1.6-1.06-3.11-1.87-4.51l-.24-.42,2.37-3.99-4.67-4.67-3.99,2.37-.42-.24c-1.4-.81-2.92-1.44-4.51-1.86l-.47-.13-1.15-4.5h-6.61l-1.15,4.5-.47,.13c-1.6,.43-3.11,1.06-4.51,1.86l-.42,.24-3.99-2.37-4.67,4.67,2.37,3.99-.24,.42c-.81,1.4-1.44,2.92-1.87,4.51l-.13,.47-4.5,1.15v6.61l4.5,1.15,.13,.47c.43,1.6,1.06,3.11,1.87,4.51l.24,.42-2.37,3.99,4.67,4.67,3.99-2.37,.42,.24c1.4,.81,2.92,1.44,4.51,1.87l.47,.13,1.15,4.5Z"/><path class="cls-1" d="M24.56,71.52c-8.46,0-15.33-6.88-15.33-15.33s6.88-15.33,15.33-15.33,15.33,6.88,15.33,15.33-6.88,15.33-15.33,15.33Zm0-28.99c-7.53,0-13.66,6.13-13.66,13.66s6.13,13.66,13.66,13.66,13.66-6.13,13.66-13.66-6.13-13.66-13.66-13.66Z"/><path class="cls-1" d="M24.56,63.62c-4.1,0-7.43-3.33-7.43-7.43s3.33-7.43,7.43-7.43,7.43,3.33,7.43,7.43-3.33,7.43-7.43,7.43Zm0-13.18c-3.17,0-5.75,2.58-5.75,5.75s2.58,5.75,5.75,5.75,5.75-2.58,5.75-5.75-2.58-5.75-5.75-5.75Z"/><path class="cls-1" d="M48.76,35.94h-3.12c-1.92,0-3.47-1.56-3.47-3.47V14.02c0-1.92,1.56-3.47,3.47-3.47h31.63c1.92,0,3.47,1.56,3.47,3.47v18.45c0,1.92-1.56,3.47-3.47,3.47h-16.94l-11.58,5.79v-5.79Zm1.67,3.08l9.51-4.75h17.33c.99,0,1.8-.81,1.8-1.8V14.02c0-.99-.81-1.8-1.8-1.8h-31.63c-.99,0-1.8,.81-1.8,1.8v18.45c0,.99,.81,1.8,1.8,1.8h4.79v4.75Z"/><path class="cls-1" d="M16.42,22.76H3.47c-1.92,0-3.47-1.56-3.47-3.47V3.47C0,1.56,1.56,0,3.47,0h31.63c1.92,0,3.47,1.56,3.47,3.47v15.82c0,1.92-1.56,3.47-3.47,3.47h-11.02v4.6l-7.66-4.6Zm5.98,1.64v-3.31h12.7c.99,0,1.8-.81,1.8-1.8V3.47c0-.99-.81-1.8-1.8-1.8H3.47c-.99,0-1.8,.81-1.8,1.8v15.82c0,.99,.81,1.8,1.8,1.8h13.41l5.52,3.31Z"/><polygon class="cls-1" points="50.08 30.67 50.08 28.99 52.72 28.99 52.72 23.72 54.39 23.72 54.39 28.99 57.99 28.99 57.99 21.09 59.66 21.09 59.66 28.99 63.26 28.99 63.26 15.82 64.94 15.82 64.94 28.99 68.53 28.99 68.53 18.45 70.21 18.45 70.21 28.99 73.8 28.99 73.8 15.82 75.48 15.82 75.48 30.67 50.08 30.67"/><path class="cls-1" d="M8.74,14.85c-1.92,0-3.47-1.56-3.47-3.47s1.56-3.47,3.47-3.47,3.47,1.56,3.47,3.47-1.56,3.47-3.47,3.47Zm0-5.27c-.99,0-1.8,.81-1.8,1.8s.81,1.8,1.8,1.8,1.8-.81,1.8-1.8-.81-1.8-1.8-1.8Z"/><path class="cls-1" d="M19.29,14.85c-1.92,0-3.47-1.56-3.47-3.47s1.56-3.47,3.47-3.47,3.47,1.56,3.47,3.47-1.56,3.47-3.47,3.47Zm0-5.27c-.99,0-1.8,.81-1.8,1.8s.81,1.8,1.8,1.8,1.8-.81,1.8-1.8-.81-1.8-1.8-1.8Z"/><path class="cls-1" d="M29.83,14.85c-1.92,0-3.47-1.56-3.47-3.47s1.56-3.47,3.47-3.47,3.47,1.56,3.47,3.47-1.56,3.47-3.47,3.47Zm0-5.27c-.99,0-1.8,.81-1.8,1.8s.81,1.8,1.8,1.8,1.8-.81,1.8-1.8-.81-1.8-1.8-1.8Z"/><path class="cls-1" d="M66.73,80.75c-7.73,0-14.02-6.29-14.02-14.02,0-2.41,.63-4.8,1.83-6.9l.12-.21-2.44-5.76,7.29,.87,.14-.08c2.15-1.27,4.6-1.94,7.09-1.94,7.73,0,14.02,6.29,14.02,14.02s-6.29,14.02-14.02,14.02Zm-7.74-4.42c2.22,1.79,4.9,2.74,7.74,2.74s5.55-.97,7.74-2.74l1.06-.85h-17.6l1.06,.85Zm-2.68-16.19c-1.25,1.98-1.92,4.26-1.92,6.59,0,2.82,.98,5.59,2.77,7.78l.76,.93,.09-1.2c.14-1.81,1.18-3.37,2.79-4.17l2.52-1.26-.36-.46c-.66-.84-1.02-1.89-1.02-2.94v-2.41c0-2.68,1.99-4.88,4.53-5.01,.06,0,.12,0,.19,0,1.3,0,2.46,.45,3.37,1.31,.95,.9,1.49,2.17,1.49,3.47v2.64c0,1.05-.36,2.1-1.02,2.94l-.36,.46,2.52,1.26c1.61,.81,2.66,2.37,2.79,4.17l.09,1.2,.76-.93c1.79-2.2,2.77-4.96,2.77-7.78,0-6.81-5.54-12.34-12.34-12.34-2.33,0-4.61,.66-6.59,1.92l-.25,.16-5.01-.6,1.66,3.9-.23,.37Zm5.25,11.43c-.67,.34-1.2,.87-1.54,1.53l-.35,.7h14.12l-.35-.7c-.33-.67-.86-1.2-1.54-1.53l-3.38-1.69v-1.92l.28-.25c.67-.6,1.04-1.42,1.04-2.31v-2.64c0-.86-.34-1.66-.97-2.26-.58-.55-1.34-.86-2.14-.86-.06,0-.12,0-.18,0-1.62,.09-2.94,1.58-2.94,3.34v2.41c0,.88,.37,1.7,1.04,2.31l.28,.25v1.92l-3.38,1.69Z"/></g></g></svg>