<?xml version="1.0" encoding="UTF-8"?><svg id="Layer_2" xmlns="http://www.w3.org/2000/svg" viewBox="0 0 89.49 82"><defs><style>.cls-1{fill:#6cace3;}</style></defs><g id="work"><g><path class="cls-1" d="M62.28,39.96c3.5,0,6.34-2.84,6.34-6.34V10.84c0-3.5-2.84-6.34-6.34-6.34h-21.89C39.28,1.78,36.63,0,33.69,0h-8.64c-2.42,0-4.37,1.96-4.38,4.38v29.25c0,3.5,2.84,6.34,6.34,6.34H62.28ZM22.11,10.84V4.4c0-1.64,1.33-2.96,2.97-2.97h8.62c2.52,0,4.75,1.62,5.54,4.01h0s.05,.09,.08,.13c.02,.04,.04,.07,.06,.11,.03,.03,.07,.06,.11,.08,.03,.03,.07,.06,.11,.08h.12s.1,0,.15,0h22.42c2.72,0,4.93,2.21,4.93,4.93v1.56c-1.2-1.49-3.02-2.35-4.93-2.35H27c-1.92,0-3.73,.86-4.93,2.35l.04-1.49Zm0,22.79V16.38c0-2.72,2.21-4.93,4.93-4.93H62.28c2.72,0,4.93,2.21,4.93,4.93v17.25c0,2.72-2.21,4.93-4.93,4.93H27c-2.72-.01-4.91-2.22-4.91-4.93h.02Z"/><path class="cls-1" d="M75.64,54.44c.39,0,.7-.32,.7-.7v-4.23c0-.39-.32-.7-.7-.7h-30.3v-4.23c0-.39-.32-.7-.7-.7s-.7,.32-.7,.7v4.23H13.86c-.39,0-.7,.32-.7,.7v4.23c0,.39,.32,.7,.7,.7s.7-.32,.7-.7v-3.52h29.37v3.52c0,.39,.32,.7,.71,.7,.39,0,.7-.32,.7-.7v-3.52h29.6v3.52c0,.39,.31,.7,.7,.7h0Z"/><path class="cls-1" d="M36.4,30.25c.23,0,.44-.11,.58-.3l.99-1.41c1.01,3.87,4.97,6.18,8.83,5.17,2.67-.7,4.71-2.86,5.26-5.56,.08-.39-.17-.77-.56-.85-.39-.08-.77,.17-.85,.56-.65,3.15-3.74,5.18-6.89,4.52-2.21-.46-3.96-2.15-4.48-4.35l1.63,1c.36,.14,.77-.04,.91-.41,.11-.28,.02-.6-.21-.79l-2.86-1.76h-.06l-.1-.04c-.05,0-.1,0-.16,0h-.26l-.12,.06-.1,.06s-.08,.08-.12,.12l-2.02,2.82c-.22,.32-.15,.75,.16,.98,.12,.1,.27,.16,.42,.17h0Z"/><path class="cls-1" d="M38.05,24.14c.38,.08,.75-.17,.83-.55,0,0,0,0,0,0,.64-3.15,3.72-5.19,6.88-4.54,2.21,.45,3.97,2.14,4.5,4.34l-1.63-.98c-.31-.24-.75-.19-.99,.12-.24,.31-.19,.75,.12,.99,.05,.04,.11,.07,.17,.1l2.86,1.75h.12c.06,.05,.12,.1,.19,.13,.11,0,.21-.03,.3-.08h.04c.08-.05,.15-.11,.2-.18l2.02-2.82c.24-.31,.19-.75-.12-.99-.31-.24-.75-.19-.99,.12-.01,.02-.02,.03-.03,.05l-.99,1.41c-1.01-3.87-4.97-6.18-8.84-5.16-2.67,.7-4.71,2.86-5.26,5.57-.01,.36,.25,.68,.61,.73h0Z"/><path class="cls-1" d="M0,60.12v17.74c-.04,2.23,1.73,4.07,3.96,4.12H24.4c2.23-.05,4-1.89,3.96-4.12v-13.83c.04-2.23-1.73-4.07-3.96-4.12H11.94c-.71-1.63-2.31-2.7-4.09-2.71H2.83C1.25,57.24-.01,58.54,0,60.12Zm24.43,20.44H3.99c-1.45-.05-2.59-1.26-2.55-2.71v-12.33H26.98v12.35c.04,1.45-1.1,2.66-2.55,2.71,0,0,0,0,0,0h0ZM2.83,58.62H7.84c1.36,.02,2.55,.93,2.93,2.23,.09,.29,.36,.49,.67,.49h12.98c1.45,.04,2.59,1.25,2.55,2.7,0,0,0,0,0,0v.08H1.41v-4.01c-.01-.8,.62-1.47,1.42-1.5h0Z"/><path class="cls-1" d="M13.7,72.01c-.13,.13-.21,.31-.21,.5,0,.19,.08,.36,.21,.49,.13,.13,.31,.21,.49,.21,.09,0,.19-.02,.27-.06,.08-.04,.16-.09,.23-.16,.13-.13,.2-.31,.2-.49,0-.39-.32-.7-.71-.7-.18,0-.36,.07-.49,.2Z"/><path class="cls-1" d="M9.64,71.92l-.12-.06h-.13c-.38-.08-.75,.17-.83,.55-.08,.38,.17,.75,.55,.83,.14,.03,.29,.01,.42-.04,.09-.03,.16-.09,.23-.16,.27-.27,.27-.72,0-.99l-.11-.13Z"/><path class="cls-1" d="M19.01,71.82h-.13l-.12,.06-.08,.13c-.13,.13-.21,.31-.2,.5,0,.18,.07,.36,.2,.49,.2,.2,.5,.26,.77,.16,.09-.03,.17-.09,.23-.16,.27-.28,.26-.73-.01-1-.16-.16-.4-.23-.62-.19h-.04Z"/><path class="cls-1" d="M42.49,59.91c-.7-1.63-2.3-2.7-4.08-2.71h-5.02c-1.58,.04-2.84,1.35-2.82,2.93v17.74c-.04,2.23,1.73,4.07,3.96,4.12h20.44c2.23-.05,4-1.89,3.96-4.12v-13.85c.04-2.23-1.73-4.07-3.96-4.12h-12.48Zm12.49,20.66h-20.44c-1.45-.04-2.59-1.25-2.55-2.7,0,0,0,0,0,0v-12.35h25.54v12.35c.04,1.45-1.1,2.66-2.55,2.71,0,0,0,0,0,0Zm2.55-16.54v.08H31.97v-3.99c-.03-.81,.6-1.49,1.41-1.52h5.03c1.36,.02,2.55,.93,2.93,2.23,.1,.31,.39,.51,.7,.49h12.94c1.45,.04,2.59,1.25,2.55,2.7,0,0,0,0,0,0h0Z"/><path class="cls-1" d="M44.25,72.01c-.13,.13-.21,.31-.2,.5,0,.18,.07,.36,.2,.49,.27,.28,.72,.28,1,0,0,0,0,0,0,0,.13-.13,.2-.31,.2-.49,0-.19-.07-.37-.2-.5-.27-.28-.72-.28-1,0,0,0,0,0,0,0Z"/><path class="cls-1" d="M40.2,71.92l-.13-.06h-.13c-.13-.04-.28-.04-.41,0-.09,.04-.16,.09-.23,.16-.13,.13-.21,.31-.2,.5,0,.18,.07,.36,.2,.49,.27,.28,.72,.28,1,0,0,0,0,0,0,0,.13-.13,.2-.31,.2-.49,0-.19-.07-.37-.2-.5l-.11-.09Z"/><path class="cls-1" d="M49.2,72.01c-.13,.13-.21,.31-.2,.5,0,.18,.07,.36,.2,.49,.27,.28,.72,.28,1,0,0,0,0,0,0,0,.13-.13,.2-.31,.2-.49,0-.19-.07-.37-.2-.5-.27-.28-.72-.28-1,0,0,0,0,0,0,0Z"/><path class="cls-1" d="M85.54,59.91h-12.49c-.7-1.63-2.31-2.7-4.09-2.71h-5.01c-1.58,.04-2.84,1.35-2.82,2.93v17.74c-.04,2.23,1.73,4.07,3.96,4.12h20.44c2.23-.05,4-1.89,3.96-4.12v-13.85c.04-2.22-1.72-4.06-3.95-4.12h0Zm-21.59-1.3h5.01c1.36,.02,2.55,.93,2.93,2.23,.09,.29,.36,.49,.67,.49h12.98c1.45,.05,2.59,1.26,2.55,2.71v.08h-25.57v-4.01c-.02-.81,.62-1.47,1.42-1.5h0Zm21.59,21.97h-20.44c-1.45-.04-2.59-1.25-2.55-2.7,0,0,0,0,0,0v-12.37h25.54v12.35c.04,1.45-1.1,2.66-2.55,2.71v.02Z"/><path class="cls-1" d="M75.16,71.82h-.13l-.12,.06-.11,.09c-.13,.13-.21,.31-.2,.5,0,.18,.07,.36,.2,.49,.13,.13,.31,.21,.5,.21,.19,0,.36-.08,.49-.21,.13-.13,.21-.31,.21-.49,0-.39-.3-.71-.69-.72-.05,0-.1,0-.16,.01v.05Z"/><path class="cls-1" d="M70.75,71.92l-.12-.06h-.13c-.13-.04-.27-.04-.4,0-.09,.04-.17,.09-.23,.16-.27,.27-.27,.72,0,.99,.06,.07,.14,.12,.23,.16,.17,.08,.37,.08,.54,0,.09-.03,.16-.09,.23-.16,.27-.27,.27-.72,0-.99-.03-.04-.07-.07-.11-.09h0Z"/><path class="cls-1" d="M79.75,72.01c-.13,.13-.21,.31-.2,.5,0,.18,.07,.36,.2,.49,.2,.2,.5,.26,.77,.16,.09-.03,.16-.09,.23-.16,.13-.13,.2-.31,.2-.49,0-.19-.07-.37-.2-.5-.27-.27-.72-.27-.99,0h0Z"/></g></g></svg>