<?xml version="1.0" encoding="UTF-8"?><svg id="Layer_2" xmlns="http://www.w3.org/2000/svg" viewBox="0 0 79.54 71.04"><defs><style>.cls-1{fill:#6cace3;}</style></defs><g id="work"><g><path class="cls-1" d="M48.26,53.11c-7.36,0-13.34-5.99-13.34-13.34s5.99-13.34,13.34-13.34,13.34,5.99,13.34,13.34-5.99,13.34-13.34,13.34Zm0-24.54c-6.17,0-11.2,5.02-11.2,11.2s5.02,11.2,11.2,11.2,11.2-5.02,11.2-11.2-5.02-11.2-11.2-11.2Z"/><path class="cls-1" d="M53.77,40.84c-.59,0-1.07-.48-1.07-1.07,0-2.44-1.99-4.43-4.43-4.43-.59,0-1.07-.48-1.07-1.07s.48-1.07,1.07-1.07c3.63,0,6.58,2.95,6.58,6.58,0,.59-.48,1.07-1.07,1.07Z"/><path class="cls-1" d="M20.21,21.34c-.42,0-.78-.22-.97-.58l-3.25-6.27-3,6.24c-.17,.36-.55,.6-.95,.61h0c-.41,0-.78-.22-.97-.58L6.85,12.58c-.27-.53-.07-1.17,.46-1.45,.15-.08,.32-.12,.49-.12,.4,0,.77,.22,.96,.58l3.24,6.27,3-6.24c.18-.37,.54-.6,.95-.61,.41,0,.78,.22,.97,.58l3.25,6.27,3-6.24c.18-.38,.55-.61,.97-.61,.16,0,.32,.04,.46,.11,.53,.26,.76,.9,.5,1.43l-3.93,8.18c-.18,.37-.54,.6-.95,.61Z"/><path class="cls-1" d="M19.32,2.15c-.28,0-.56-.11-.76-.31-.2-.2-.32-.48-.32-.76s.11-.56,.31-.76c.2-.2,.48-.32,.76-.32s.56,.11,.76,.31c.2,.2,.31,.48,.31,.76s-.11,.56-.31,.76c-.2,.2-.48,.31-.76,.31Z"/><path class="cls-1" d="M74.7,71.04c-1.29,0-2.51-.5-3.42-1.41l-12.76-12.76-.33,.19c-3.01,1.74-6.45,2.65-9.93,2.65-11,0-19.95-8.95-19.95-19.95,0-2.31,.4-4.59,1.18-6.75l.24-.67H5.79c-3.19,0-5.79-2.6-5.79-5.79V5.79C0,2.6,2.6,0,5.79,0h6.45c.59,0,1.07,.48,1.07,1.07s-.48,1.07-1.07,1.07H5.79c-2.01,0-3.65,1.64-3.65,3.65V26.56c0,2.01,1.64,3.65,3.65,3.65H30.76l.14-.25c2.03-3.58,5.21-6.52,8.93-8.26l.58-.27-.4-.5c-.05-.06-.09-.12-.11-.16l-3.25-6.27-3,6.24c-.18,.37-.54,.6-.95,.61-.41,0-.78-.22-.97-.58l-4.23-8.18c-.13-.25-.16-.55-.07-.82s.28-.5,.53-.63c.15-.08,.32-.12,.49-.12,.4,0,.77,.22,.95,.58l3.25,6.27,3-6.24c.18-.37,.54-.6,.95-.61,.42,0,.79,.22,.97,.58l3.25,6.27,3-6.24c.18-.37,.56-.61,.97-.61,.16,0,.32,.04,.46,.11,.26,.12,.45,.34,.55,.61,.09,.27,.08,.56-.05,.82l-4,8.33,1.07-.3c1.77-.5,3.6-.75,5.44-.75,.95,0,1.92,.07,2.87,.21l.96,.14-3.93-7.59c-.27-.53-.07-1.17,.46-1.45,.16-.08,.32-.12,.49-.12,.4,0,.77,.22,.95,.58l3.25,6.27,3-6.24c.18-.37,.54-.6,.95-.61,.42,0,.79,.22,.97,.58l3.25,6.27,3-6.24c.18-.37,.56-.61,.97-.61,.16,0,.32,.04,.46,.11,.26,.12,.45,.34,.55,.61,.09,.27,.08,.56-.05,.82l-3.93,8.18c-.18,.37-.54,.6-.95,.61-.42,0-.78-.22-.97-.58l-3.25-6.27-3.01,6.26,.53,.18c4.56,1.6,8.39,4.8,10.79,9.02l.16,.28,.32-.03h7.64c2.01,0,3.65-1.64,3.65-3.65V5.79c0-2.01-1.64-3.65-3.65-3.65H25.92c-.59,0-1.07-.48-1.07-1.07s.48-1.07,1.07-1.07h47.82c3.19,0,5.79,2.6,5.79,5.79V26.56c0,3.19-2.6,5.79-5.79,5.79h-6.95l.24,.67c.78,2.17,1.18,4.44,1.18,6.75,0,6.05-2.71,11.71-7.44,15.53l-.43,.35,12.46,12.46c.51,.51,1.18,.79,1.9,.79s1.39-.28,1.9-.79c.51-.51,.79-1.18,.79-1.9s-.28-1.39-.79-1.9l-4.91-4.91c-.42-.42-.42-1.1,0-1.52,.2-.2,.47-.31,.76-.31h0c.29,0,.56,.11,.76,.31l4.91,4.91c.91,.91,1.41,2.13,1.41,3.42s-.5,2.51-1.41,3.42c-.91,.91-2.12,1.41-3.42,1.41ZM48.26,21.97c-9.82,0-17.8,7.99-17.8,17.8s7.99,17.8,17.8,17.8,17.8-7.99,17.8-17.8-7.99-17.8-17.8-17.8Z"/><path class="cls-1" d="M68.73,55.99c-.28,0-.56-.12-.76-.32-.2-.2-.31-.48-.31-.76s.11-.56,.31-.76c.2-.2,.48-.31,.76-.31s.56,.11,.76,.31c.2,.2,.31,.48,.31,.76s-.11,.56-.31,.76c-.2,.2-.48,.31-.76,.31Z"/></g></g></svg>