<?xml version="1.0" encoding="UTF-8"?><svg id="Layer_2" xmlns="http://www.w3.org/2000/svg" viewBox="0 0 79.83 86"><defs><style>.cls-1{fill:#6cace3;}</style></defs><g id="work"><g><path class="cls-1" d="M45.38,78.57c1.12,0,2.03-.91,2.03-2.03v-2.42c1.79-1.11,2.34-3.45,1.24-5.25-1.11-1.79-3.45-2.34-5.25-1.24-1.79,1.11-2.34,3.45-1.24,5.25,.31,.5,.73,.93,1.24,1.24v2.46c.02,1.08,.89,1.95,1.98,1.98Zm-2.46-7.72c0-1.36,1.1-2.46,2.46-2.47,1.36,0,2.46,1.1,2.47,2.46,0,.96-.55,1.82-1.41,2.23-.24,.11-.4,.35-.4,.61v2.88c-.1,.36-.48,.56-.84,.46-.22-.06-.4-.24-.46-.46v-2.87c0-.26-.15-.5-.39-.62-.87-.4-1.42-1.27-1.42-2.23h0Z"/><path class="cls-1" d="M59,0H14.1c-4.16,0-7.52,3.37-7.53,7.53v6.27c0,.37,.3,.68,.68,.68l13.04-.22v9.93h-6.23c-1.73,0-3.14,1.4-3.14,3.13v5.33c0,.37,.3,.68,.68,.68s.68-.3,.68-.68v-5.33c0-.98,.8-1.78,1.79-1.78h24.97c.58,0,1.15,.2,1.62,.55l3.38,2.63c.84,.64,1.86,.98,2.91,.99h28.72c1.54,.02,2.77,1.29,2.75,2.83,0,.15-.02,.31-.04,.46l-8.06,44h-6.92v-14.81c0-1.4-1.14-2.54-2.55-2.55h-.74v-6.74c0-2.45-.61-4.86-1.77-7.01-.18-.33-.59-.45-.92-.27-.33,.18-.45,.59-.27,.92,1.06,1.96,1.61,4.15,1.61,6.37v6.74h-3.01v-6.74c0-5.72-4.63-10.37-10.36-10.37-1.7,0-3.38,.42-4.88,1.22-.32,.2-.41,.62-.21,.93,.18,.29,.54,.4,.85,.26,4.4-2.34,9.86-.67,12.19,3.73,.69,1.3,1.05,2.75,1.05,4.23v6.74h-18.03v-6.74c0-2.48,1.05-4.85,2.87-6.53,.27-.26,.29-.68,.03-.96-.26-.27-.68-.29-.96-.03h0c-2.08,1.96-3.26,4.69-3.26,7.55v6.71h-3.04v-6.74c0-7.38,5.96-13.36,13.34-13.37,2.67,0,5.28,.79,7.5,2.29,.31,.21,.73,.12,.94-.19,0,0,0,0,0,0,.21-.31,.12-.73-.18-.93-6.73-4.55-15.87-2.78-20.41,3.95-1.64,2.43-2.52,5.3-2.52,8.23v6.77h-.74c-1.4,0-2.54,1.14-2.55,2.55v14.83H12.28V42.09c0-.37-.3-.68-.68-.68s-.68,.3-.68,.68v28.86L1.45,24.25c-.38-1.74,.72-3.46,2.46-3.84,.22-.05,.45-.07,.68-.07H15.55c.37,0,.68-.3,.68-.68s-.3-.68-.68-.68H4.58C2.05,18.98,0,21.03,0,23.56c0,.33,.04,.65,.1,.97l10.83,53.33s.02,.05,.03,.07c0,.03,.02,.07,.03,.1l.08,.12,.07,.07s.08,.07,.13,.09l.07,.05c.08,.03,.16,.04,.24,.05h15.77v5.06c0,1.4,1.14,2.54,2.55,2.55h18.61c.37,0,.68-.3,.68-.68s-.3-.68-.68-.68H29.92c-.66,0-1.19-.53-1.19-1.19h0v-5.06h6.97c.37,0,.68-.3,.68-.68s-.3-.68-.68-.68h-6.97v-3.6h6.97c.37,0,.68-.3,.68-.68s-.3-.68-.68-.68h-6.97v-3.55h6.97c.37,0,.68-.3,.68-.68s-.3-.68-.68-.68h-6.97v-5c0-.66,.53-1.19,1.19-1.19h30.93c.66,0,1.19,.53,1.19,1.19h0v5.02h-6.97c-.37,0-.68,.3-.68,.68s.3,.68,.68,.68h6.97v3.53h-6.97c-.37,0-.68,.3-.68,.68s.3,.68,.68,.68h6.97v3.55h-6.97c-.37,0-.68,.3-.68,.68s.3,.68,.68,.68h6.97v5.06c0,.66-.53,1.19-1.19,1.19h-5.77c-.37,0-.68,.3-.68,.68s.3,.68,.68,.68h5.77c1.4,0,2.54-1.14,2.55-2.55v-5.06h7.56c.33,0,.62-.23,.68-.56l8.12-44.57c.41-2.24-1.07-4.4-3.31-4.81-.25-.05-.5-.07-.75-.07h-2.47v-3.84c0-3.06-2.48-5.55-5.54-5.55h-1.14V7.53c0-4.16-3.38-7.52-7.53-7.53h0ZM7.92,13.11V7.53c.11-3.41,2.97-6.09,6.38-5.97,3.25,.11,5.86,2.72,5.97,5.97v5.42l-12.35,.17Zm36.97,14.53l-3.43-2.63c-.7-.54-1.56-.83-2.44-.83H21.64V7.53c0-2.47-1.22-4.77-3.25-6.17H59.01c3.41,0,6.17,2.76,6.18,6.17V28.36h-18.21c-.75,0-1.49-.25-2.08-.71Zm22.78-7.35c2.32,0,4.19,1.88,4.19,4.2v3.87h-5.33v-8.06h1.14Z"/><path class="cls-1" d="M59.44,13.13H31.33c-.37,0-.68,.3-.68,.68s.3,.68,.68,.68h28.1c.37,0,.68-.3,.68-.68s-.3-.68-.68-.68Z"/><path class="cls-1" d="M59.44,18.94h-17.15c-.37,0-.68,.3-.68,.68s.3,.68,.68,.68h17.15c.37,0,.68-.3,.68-.68s-.3-.68-.68-.68Z"/><path class="cls-1" d="M59.44,24.19h-9.99c-.37,0-.68,.3-.68,.68s.3,.68,.68,.68h9.99c.37,0,.68-.3,.68-.68s-.3-.68-.68-.68Z"/><path class="cls-1" d="M16.72,52.46c.37,0,.68-.3,.68-.68v-9.69c0-.37-.3-.68-.68-.68s-.68,.3-.68,.68v9.69c0,.37,.3,.68,.68,.68Z"/><path class="cls-1" d="M16.05,59.91c0,.37,.3,.68,.68,.68s.68-.3,.68-.68v-2.71c0-.37-.3-.68-.68-.68s-.68,.3-.68,.68v2.71Z"/><path class="cls-1" d="M72.55,34.63c.37,0,.68-.3,.68-.68s-.3-.68-.68-.68h-5.89c-.37,0-.68,.3-.68,.68s.3,.68,.68,.68h5.89Z"/><path class="cls-1" d="M62.72,34.63c.37,0,.68-.3,.68-.68s-.3-.68-.68-.68h-3.28c-.37,0-.68,.3-.68,.68s.3,.68,.68,.68h3.28Z"/></g></g></svg>