<?xml version="1.0" encoding="UTF-8"?><svg id="Layer_2" xmlns="http://www.w3.org/2000/svg" viewBox="0 0 85 45.84"><defs><style>.cls-1{fill:#6cace3;}</style></defs><g id="work"><g><path class="cls-1" d="M41.5,0c-.39,0-.71,.32-.71,.71v3.93c0,.39,.32,.71,.71,.71s.71-.32,.71-.71h0V.71c0-.39-.32-.71-.71-.71Z"/><path class="cls-1" d="M49.65,1.56s0,0-.01,0c-.32-.22-.77-.14-.99,.19l-2.22,3.22c-.22,.32-.14,.77,.18,.99,.12,.08,.26,.13,.41,.13,.24,0,.48-.11,.61-.31l2.22-3.21c.22-.33,.13-.77-.19-.99Z"/><path class="cls-1" d="M36.55,4.95l-2.22-3.22c-.22-.32-.67-.41-.99-.18s-.41,.67-.18,.99l2.22,3.21c.13,.2,.35,.31,.59,.31,.39,0,.71-.32,.71-.71,0-.14-.04-.29-.13-.4Z"/><path class="cls-1" d="M84.93,34.1c-.19-.34-.62-.47-.96-.29l-6.27,3.44-14.73-26.86,14.55-7.98c.34-.2,.46-.64,.27-.98s-.64-.46-.98-.27l-15.15,8.32c-.34,.19-.46,.62-.28,.96l.5,.92-3.04,1.67c-.34,.19-.46,.62-.28,.96l.71,1.3-2.3,1.27c-.5,.27-1.12,.22-1.57-.14l-.25-.2c1.29-.87,2.14-2.27,2.32-3.81,.09-.65-.16-1.31-.66-1.74-.51-.45-1.21-.62-1.87-.44l-5.52,1.43-1.66-1.32c-.13-.1-.28-.16-.44-.16h-7.84c-1.48,0-2.86,.79-3.63,2.05l-1.01,1.69h-8.39c.16-.34,.03-.74-.29-.92l-3.04-1.67,.5-.92c.19-.34,.06-.77-.28-.96L8.19,1.18c-.34-.2-.78-.08-.98,.27s-.08,.78,.27,.98l14.57,7.98L7.31,37.26l-6.27-3.44c-.34-.19-.77-.06-.96,.29-.17,.34-.05,.75,.28,.94l6.9,3.78c.1,.06,.22,.09,.34,.09,.26,0,.5-.14,.62-.37l2.29-4.13,3.04,1.67c.11,.06,.22,.09,.34,.09,.07,0,.13,0,.2,0,.18-.06,.33-.18,.43-.34l2.19-3.99,1.95,.86c-1.18,1.11-1.23,2.97-.12,4.14,.2,.21,.44,.4,.69,.54,.68,.38,1.48,.48,2.22,.27l3.35-.87v.64c0,1.62,1.32,2.93,2.94,2.94,.63,0,1.23-.2,1.73-.58v.41c0,1.62,1.3,2.94,2.91,2.94,.63,0,1.25-.2,1.76-.58v.41c.02,1.62,1.35,2.91,2.97,2.89,1.06-.01,2.03-.6,2.53-1.53,.59,.45,1.31,.7,2.05,.71,.93,0,1.83-.38,2.49-1.03,.57-.57,.93-1.33,1-2.14,1.61,1.09,3.8,.68,4.89-.93,.34-.49,.54-1.06,.6-1.66,1.61,1.09,3.8,.68,4.89-.93,.34-.49,.54-1.06,.6-1.65,1.58,1.11,3.77,.72,4.87-.86,.64-.91,.81-2.07,.45-3.13l5.62-3.01,3.37,6.07c.09,.16,.25,.29,.43,.34,.07,0,.13,0,.2,0,.12,0,.24-.03,.34-.09l3.04-1.67,2.29,4.16c.13,.23,.37,.37,.63,.37,.12,0,.23-.03,.33-.09l6.9-3.78c.31-.19,.43-.58,.28-.91ZM55.33,11.62c.2-.05,.41,0,.56,.14,.13,.12,.18,.3,.15,.48-.14,1.3-.91,2.45-2.07,3.06l-3.14-2.49,4.5-1.18ZM13.6,34.47l-2.41-1.32L22.45,12.62l2.41,1.33-11.26,20.53Zm7.48,1.76c-.39,.11-.8,.06-1.15-.14-.73-.41-.99-1.33-.58-2.06,.19-.33,.49-.59,.86-.7l4.48,1.97-3.61,.93Zm8.17-1.31v2.46c-.06,.84-.78,1.47-1.62,1.41-.76-.05-1.36-.65-1.41-1.41v-2.46c-.06-.84,.57-1.56,1.41-1.62,.84-.06,1.56,.57,1.62,1.41,0,.07,0,.14,0,.21Zm3.29,6.84c-.84,.06-1.56-.57-1.62-1.41,0-.07,0-.14,0-.21v-2.47c-.06-.84,.57-1.56,1.41-1.62,.84-.06,1.56,.57,1.62,1.41,0,.07,0,.14,0,.21v2.47c.06,.84-.57,1.56-1.41,1.62Zm6.09,1.15c-.06,.84-.78,1.47-1.62,1.41-.76-.05-1.36-.65-1.41-1.41v-2.47c.06-.84,.78-1.47,1.62-1.41,.76,.05,1.36,.65,1.41,1.41v2.47Zm21.02-7.7c-.79,.75-2.02,.78-2.85,.07l-1.52-1.37-5.22-4.85c-.27-.29-.72-.3-1.01-.03s-.3,.72-.03,1.01c.02,.02,.05,.05,.07,.07l5.18,4.83c.82,.83,.81,2.16-.02,2.98s-2.16,.81-2.98-.02l-1.52-1.43-4.06-3.77c-.27-.29-.72-.3-1.01-.03s-.3,.72-.03,1.01c.02,.02,.05,.05,.07,.07l4.03,3.75c.78,.85,.72,2.17-.14,2.95-.8,.73-2.03,.73-2.83-.01l-1.51-1.33-2.97-2.77c-.24-.31-.68-.38-1-.14-.31,.24-.38,.68-.14,1,.05,.07,.12,.13,.19,.17l2.94,2.74c.81,.82,.81,2.14-.01,2.95-.82,.81-2.14,.81-2.95-.01-.08-.07-.18-.12-.28-.15v-2.44c0-1.62-1.29-2.94-2.91-2.95-.64,0-1.27,.2-1.78,.59v-.41c0-1.62-1.32-2.94-2.94-2.94-.63,0-1.24,.21-1.74,.58v-.41c.04-1.62-1.24-2.96-2.86-3-1.28-.03-2.43,.77-2.84,1.99l-7.62-3.36,8.31-15.15h8.35l-1.43,2.43c-.37,.61-.42,1.37-.13,2.02,.29,.65,.87,1.12,1.56,1.27,.7,.15,1.42,.23,2.14,.24,1.15,.05,2.28-.28,3.23-.93,1.07-.73,1.94-1.71,2.56-2.85h1.31l16.33,14.63c.44,.38,.7,.92,.71,1.5,0,.58-.25,1.13-.67,1.52Zm1.15-3.79c-.09-.11-.18-.21-.28-.31l-15.12-13.58h.51c.39,0,.71-.32,.71-.71s-.32-.71-.71-.71h-4.45c-.35,0-.65,.25-.71,.59,0,0-.24,1.06-2.23,2.59-1.11,.86-2.91,.71-4.23,.43-.24-.05-.44-.21-.54-.44-.1-.23-.09-.5,.04-.71l3.33-5.54c.51-.84,1.42-1.35,2.4-1.36h7.58l7.43,5.91c.9,.71,2.14,.82,3.14,.27l2.29-1.26,6.49,11.83-5.64,3.02Zm10.61,3.05l-3.36-6.13-7.9-14.4,2.41-1.33,11.26,20.53-2.41,1.33Z"/></g></g></svg>