<?xml version="1.0" encoding="UTF-8"?><svg id="Layer_2" xmlns="http://www.w3.org/2000/svg" viewBox="0 0 46.37 80.67"><defs><style>.cls-1{fill:#6cace3;}</style></defs><g id="work"><g><path class="cls-1" d="M5.07,77.06c-.42,0-.76-.34-.76-.76s.34-.76,.76-.76h7.92c.42,0,.76,.34,.76,.76s-.34,.76-.76,.76H5.07Z"/><path class="cls-1" d="M16.94,77.06c-.42,0-.76-.34-.76-.76s.34-.76,.76-.76h1.32c.42,0,.76,.34,.76,.76s-.34,.76-.76,.76h-1.32Z"/><path class="cls-1" d="M46.37,10.55V3.39c0-1.86-1.53-3.39-3.4-3.39H3.4C1.53,0,0,1.53,0,3.39V77.27c0,1.87,1.53,3.4,3.4,3.4H42.97c1.87,0,3.4-1.53,3.4-3.4V10.55ZM30.13,1.52l-.94,3.76h-12.01l-.84-3.76h13.79Zm14.72,55.4v20.35c0,1.03-.84,1.89-1.89,1.89H3.4c-1.03,0-1.89-.85-1.89-1.89V3.39c0-1.03,.85-1.87,1.89-1.87H14.68l1.18,4.7c.08,.34,.38,.57,.73,.57h13.2c.35,0,.65-.24,.73-.57l1.18-4.7h11.29c1.03,0,1.87,.84,1.87,1.87V56.92Z"/><path class="cls-1" d="M22.22,16.37c-.42,0-.76-.34-.76-.76s.34-.76,.76-.76h2.64c.42,0,.76,.34,.76,.76s-.34,.76-.76,.76h-2.64Z"/><path class="cls-1" d="M28.81,16.37c-.42,0-.76-.34-.76-.76s.34-.76,.76-.76h2.64c.42,0,.76,.34,.76,.76s-.34,.76-.76,.76h-2.64Z"/><path class="cls-1" d="M35.41,16.37c-.42,0-.76-.34-.76-.76s.34-.76,.76-.76h2.64c.42,0,.76,.34,.76,.76s-.34,.76-.76,.76h-2.64Z"/></g></g></svg>