<?xml version="1.0" encoding="UTF-8"?><svg id="Layer_2" xmlns="http://www.w3.org/2000/svg" viewBox="0 0 80.59 79.69"><defs><style>.cls-1{fill:#6cace3;}</style></defs><g id="work"><g><path class="cls-1" d="M70.83,0H9.88c-2.69,0-4.88,2.18-4.88,4.88v15.97c0,2.69,2.18,4.88,4.88,4.88h2.79v6.1c0,.38,.31,.7,.7,.7,.13,0,.26-.04,.37-.11l10.52-6.69h8.76l6.85,6.85c.27,.27,.71,.27,.98,0,0,0,0,0,0,0l6.85-6.85h8.77l10.52,6.69c.32,.21,.75,.11,.96-.21,.07-.11,.11-.24,.11-.37v-6.11h2.79c2.68,0,4.86-2.18,4.86-4.87V4.88c0-2.69-2.18-4.88-4.88-4.88Zm3.48,20.84c0,1.92-1.56,3.47-3.48,3.48h0s-3.48,0-3.48,0c-.38,0-.7,.31-.7,.7v5.52l-9.58-6.12c-.11-.07-.24-.11-.38-.1h-9.28c-.19,0-.36,.07-.49,.2l-6.56,6.56-6.56-6.56c-.13-.13-.31-.2-.49-.2h-9.26c-.13,0-.26,.03-.38,.1l-9.62,6.11v-5.52c0-.38-.31-.7-.7-.7h-3.48c-1.92,0-3.48-1.56-3.48-3.48V4.88c0-1.92,1.56-3.48,3.48-3.48h60.95c1.92,0,3.48,1.56,3.48,3.48v15.97Z"/><path class="cls-1" d="M73.42,51.94c-.15-.33-.35-.62-.61-.87,.2-.8,.3-1.63,.29-2.45,0-4.76-3.48-8.5-7.88-8.5s-7.89,3.74-7.89,8.5c0,.83,.1,1.65,.31,2.45-1.1,1.08-1.12,2.84-.04,3.94,.25,.26,.55,.46,.89,.61,1.22,3.28,3.84,5.38,6.77,5.38s5.57-2.09,6.76-5.38c1.41-.62,2.04-2.27,1.42-3.68Zm-1.39,1.87c-.18,.29-.46,.5-.79,.59-.22,.06-.4,.23-.47,.45-.97,2.88-3.15,4.75-5.57,4.75s-4.59-1.87-5.57-4.75c-.07-.22-.25-.39-.47-.45-.58-.19-.96-.73-.96-1.33,0-.47,.22-.92,.62-1.18h.03c.26-.17,.37-.49,.28-.79-.25-.8-.38-1.64-.38-2.49,0-3.98,2.85-7.11,6.49-7.11s6.46,3.13,6.46,7.11c0,.84-.12,1.68-.38,2.49-.09,.29,.02,.61,.27,.79,.65,.41,.84,1.27,.43,1.92Z"/><path class="cls-1" d="M69.43,47.23l-.36-1.82c-.07-.33-.36-.56-.7-.56-.16,0-1.07,.03-2.44,1.26-1.25,1.13-3.08,1.29-4.51,.41-.33-.21-.76-.12-.97,.21s-.12,.76,.21,.97l.03,.03c.84,.51,1.8,.78,2.79,.78,1.26,0,2.47-.47,3.4-1.33,.29-.27,.61-.5,.95-.7l.2,1.01c.07,.38,.44,.64,.83,.56,.38-.07,.64-.44,.56-.83Z"/><path class="cls-1" d="M48.39,47.43c-.15-.33-.36-.63-.62-.88,.2-.8,.31-1.62,.31-2.44,0-4.77-3.48-8.5-7.88-8.5s-7.88,3.73-7.88,8.5c0,.82,.1,1.65,.31,2.44-1.11,1.07-1.14,2.83-.07,3.94,.25,.26,.55,.47,.88,.62,1.22,3.28,3.84,5.38,6.76,5.38s5.57-2.09,6.77-5.38c1.41-.62,2.04-2.27,1.42-3.67Zm-1.36,1.87c-.18,.29-.46,.5-.79,.59-.22,.06-.4,.23-.47,.45-.97,2.89-3.15,4.76-5.57,4.76s-4.59-1.87-5.57-4.76c-.07-.22-.25-.38-.47-.45-.74-.21-1.17-.98-.95-1.72,.09-.33,.3-.61,.59-.79h.01c.26-.17,.38-.49,.29-.79-.25-.8-.38-1.64-.38-2.49,0-3.99,2.86-7.11,6.49-7.11s6.49,3.12,6.49,7.11c0,.84-.13,1.68-.38,2.49-.09,.3,.02,.62,.28,.79,.65,.41,.84,1.27,.43,1.92Z"/><path class="cls-1" d="M44.43,42.72l-.35-1.78c-.06-.33-.36-.57-.7-.56-.18,0-1.07,.04-2.44,1.27-1.25,1.12-3.08,1.29-4.51,.41-.32-.21-.75-.11-.96,.21-.2,.33-.1,.75,.23,.95,.84,.51,1.8,.78,2.79,.79,1.26,0,2.47-.47,3.39-1.33,.29-.27,.61-.5,.95-.7l.2,1.01c.07,.38,.44,.64,.83,.56,.38-.07,.64-.44,.56-.83Z"/><path class="cls-1" d="M23.37,51.94c-.15-.33-.35-.62-.61-.87,.21-.8,.31-1.62,.31-2.45,0-4.76-3.48-8.5-7.88-8.5s-7.88,3.74-7.88,8.5c0,.83,.11,1.65,.32,2.45-1.1,1.07-1.13,2.84-.06,3.94,.25,.26,.55,.46,.87,.61h-.01c1.21,3.28,3.84,5.38,6.76,5.38s5.57-2.09,6.76-5.38c1.41-.62,2.04-2.27,1.42-3.68Zm-2.15,2.48c-.22,.06-.4,.23-.47,.45-.97,2.88-3.15,4.75-5.57,4.75s-4.59-1.87-5.57-4.75c-.07-.22-.25-.39-.47-.45-.57-.19-.96-.74-.95-1.34-.01-.47,.22-.92,.61-1.18,.26-.17,.37-.49,.28-.79-.25-.8-.38-1.64-.38-2.49,0-3.98,2.85-7.11,6.49-7.11s6.49,3.13,6.49,7.11c0,.84-.13,1.68-.38,2.49-.1,.29,0,.61,.25,.79,.4,.26,.64,.71,.64,1.18,0,.61-.39,1.16-.98,1.34Z"/><path class="cls-1" d="M19.47,47.24l-.4-1.82c-.07-.33-.36-.56-.7-.56-.17,0-1.07,.03-2.44,1.26-1.25,1.12-3.08,1.29-4.51,.41-.33-.21-.76-.12-.97,.21-.21,.33-.12,.76,.21,.97l.03,.03c.84,.51,1.8,.78,2.79,.78,1.26,0,2.47-.47,3.39-1.33,.29-.27,.61-.5,.95-.7l.25,1.02c.07,.38,.44,.64,.83,.56,.38-.07,.64-.44,.56-.83Z"/><path class="cls-1" d="M80.59,75.4s0-.06,0-.08v-4.92c.08-1.59-.78-3.08-2.19-3.82l-6.62-2.79-1.34-2.3s-.04-.04-.07-.06l-.1-.1-.13-.06s-.08-.03-.12-.04h-.13s-.09,0-.13,0c-.05,0-.09,.02-.13,.04-.03,0-.06,0-.09,0h-.03l-4.25,3.19-4.19-3.18s-.07,0-.1,0c-.04-.02-.09-.04-.13-.04-.04,0-.08,0-.13,0h-.14s-.08,.02-.11,.04l-.13,.06-.1,.09s-.05,.04-.08,.07l-1.34,2.28-3.11,1.25c-.17-1.27-.95-2.38-2.09-2.97l-6.62-2.79-1.34-2.3s-.06-.04-.08-.07c-.03-.03-.07-.06-.1-.09-.04-.03-.08-.04-.12-.06-.04-.02-.08-.04-.13-.04-.04,0-.08,0-.13,0h-.14l-.13,.05h-.1l-4.42,3.2-4.25-3.19h-.13s-.09-.04-.13-.05h-.13s-.09,0-.13,0c-.04,0-.08,.02-.12,.04-.04,.01-.09,.03-.13,.06-.04,.03-.07,.06-.1,.09,0,0-.05,.04-.07,.07l-1.33,2.29-6.57,2.65-.1,.06c-.5,.3-.93,.7-1.26,1.18-.42,.58-.7,1.25-.8,1.96l-3.15-1.32-1.34-2.3s-.05-.04-.07-.07-.06-.06-.1-.09c-.04-.02-.08-.04-.13-.06-.04-.02-.08-.03-.12-.04h-.13s-.09,0-.13,0l-.13,.04s-.06,0-.09,0h-.04l-4.32,3.2-4.26-3.19h-.03s-.07,0-.1,0c-.04-.02-.08-.03-.13-.04-.04,0-.09,0-.13,0h-.14l-.11,.04s-.09,.03-.13,.06c-.04,0-.07,.06-.1,.09-.03,.03-.06,.04-.08,.07l-1.34,2.28-6.55,2.66-.1,.05C.79,67.3,0,68.73,0,70.26v5.05c.02,.08,.04,.15,.05,.23h0s.03,.08,.06,.12c.02,.04,.05,.07,.08,.1,.03,.04,.07,.07,.11,.1,0,0,0,.04,.06,.06,4.6,2.51,9.77,3.81,15.01,3.77,5.24,.04,10.4-1.26,15-3.77,0,0,.04-.04,.07-.06l.11-.1,.07-.1,.06-.12s0-.1,0-.15v-1.69c6.28,1.96,13.01,1.96,19.29,0v1.69c0,.05,0,.1,0,.15,.01,.04,.03,.08,.06,.11,.02,.04,.04,.08,.08,.11,.03,.03,.07,.06,.1,.09,0,0,.04,.05,.07,.06,9.37,5.02,20.64,5.02,30.01,0l.06-.06s.08-.06,.11-.1l.08-.1s.04-.08,.06-.12c0-.05,0-.1,0-.15Zm-10.83-12.54l.87,1.5-2.68,2.92-1.62-1.83,3.43-2.58Zm-8.92,0l3.44,2.58-1.63,1.83-2.68-2.92,.87-1.5Zm-16.08-4.51l.87,1.49-2.68,2.93-1.63-1.83,3.44-2.58Zm-8.92,0l3.43,2.58-1.62,1.83-2.68-2.93,.87-1.49Zm-16.09,4.51l.88,1.5-2.69,2.92-1.62-1.83,3.43-2.58Zm-8.92,0l3.44,2.58-1.63,1.83-2.68-2.92,.87-1.5Zm18.47,7.52v1.97s-.05,.07-.06,.1c-.07,.2-.05,.41,.06,.59v1.83c-4.29,2.26-9.08,3.43-13.93,3.41-4.88,.04-9.69-1.13-14.01-3.41v-4.62c0-.64,.22-1.26,.61-1.78,.21-.31,.48-.57,.79-.78l6.07-2.49,3.29,3.58c.13,.14,.32,.22,.51,.22,.2,0,.38-.08,.52-.23l2.16-2.39,2.09,2.39c.13,.15,.32,.23,.52,.23,.2,0,.38-.08,.52-.22l3.27-3.57,6.22,2.6c.93,.51,1.47,1.5,1.39,2.56Zm20.75-.09v1.97c-6.27,2.06-13.03,2.06-19.29,0v-1.85c.08-1.61-.79-3.12-2.24-3.85l-2.09-.89c0-.61,.19-1.21,.54-1.71,.22-.31,.5-.57,.81-.78l6.07-2.49,3.28,3.58c.13,.14,.32,.22,.52,.22,.2,0,.38-.08,.52-.23l2.09-2.4,2.19,2.4c.13,.15,.32,.23,.52,.23,.19,0,.38-.08,.51-.22l3.25-3.54,6.21,2.61c.84,.44,1.38,1.31,1.39,2.26l-2.09,.87-.1,.05c-1.3,.81-2.09,2.24-2.09,3.77Zm29.31,.09v4.5c-8.76,4.54-19.18,4.54-27.93,0v-4.62c0-1.03,.52-2,1.39-2.56l6.07-2.49,3.29,3.58c.13,.14,.32,.22,.51,.22,.2,0,.38-.08,.52-.23l2.09-2.39,2.09,2.39c.13,.15,.32,.23,.52,.23,.2,0,.38-.08,.52-.22l3.27-3.57,6.22,2.6c.95,.49,1.52,1.49,1.46,2.56Z"/><path class="cls-1" d="M65.36,8.2h-10.28c-.38,0-.7,.31-.7,.7s.31,.7,.7,.7h10.28c.38,0,.7-.31,.7-.7s-.31-.7-.7-.7Z"/><path class="cls-1" d="M65.36,12.68h-10.28c-.38,0-.7,.31-.7,.7s.31,.7,.7,.7h10.28c.38,0,.7-.31,.7-.7s-.31-.7-.7-.7Z"/><path class="cls-1" d="M59.3,17.17h-4.22c-.38,0-.7,.31-.7,.7s.31,.7,.7,.7h4.22c.38,0,.7-.31,.7-.7s-.31-.7-.7-.7Z"/><path class="cls-1" d="M25.64,8.2H15.36c-.38,0-.7,.31-.7,.7s.31,.7,.7,.7h10.28c.38,0,.7-.31,.7-.7,0-.38-.31-.7-.7-.7Z"/><path class="cls-1" d="M25.64,12.68H15.36c-.38,0-.7,.31-.7,.7s.31,.7,.7,.7h10.28c.38,0,.7-.31,.7-.7,0-.38-.31-.7-.7-.7Z"/><path class="cls-1" d="M19.57,17.17h-4.18c-.38,0-.7,.31-.7,.7s.31,.7,.7,.7h4.18c.38,0,.7-.31,.7-.7s-.31-.7-.7-.7Z"/><path class="cls-1" d="M45.94,8.2h-10.28c-.38,0-.7,.31-.7,.7s.31,.7,.7,.7h10.28c.38,0,.7-.31,.7-.7,0-.38-.31-.7-.7-.7Z"/><path class="cls-1" d="M45.94,12.68h-10.28c-.38,0-.7,.31-.7,.7s.31,.7,.7,.7h10.28c.38,0,.7-.31,.7-.7,0-.38-.31-.7-.7-.7Z"/><path class="cls-1" d="M42.89,17.17h-4.18c-.38,0-.7,.31-.7,.7s.31,.7,.7,.7h4.18c.38,0,.7-.31,.7-.7s-.31-.7-.7-.7Z"/></g></g></svg>