<?xml version="1.0" encoding="UTF-8"?><svg id="Layer_2" xmlns="http://www.w3.org/2000/svg" viewBox="0 0 87.31 68.89"><defs><style>.cls-1{fill:#6cace3;}</style></defs><g id="work"><g><path class="cls-1" d="M6.74,68.89c-3.72,0-6.74-3.02-6.74-6.74V28.88c0-.49,.4-.89,.89-.89s.89,.4,.89,.89V62.16c0,2.74,2.23,4.97,4.97,4.97H80.57c2.74,0,4.97-2.23,4.97-4.97v-1.6c0-.49,.4-.89,.89-.89s.89,.4,.89,.89v1.6c0,3.71-3.02,6.74-6.74,6.74H6.74Z"/><path class="cls-1" d="M86.42,55.9c-.49,0-.89-.4-.89-.89V15.54H1.77v7.8c0,.49-.4,.89-.89,.89s-.89-.4-.89-.89V6.74C0,3.02,3.02,0,6.74,0H71.15c.49,0,.89,.4,.89,.89s-.4,.89-.89,.89H6.74C4,1.77,1.77,4,1.77,6.74v7.03H85.54V6.74c0-2.74-2.23-4.97-4.97-4.97h-3.85c-.49,0-.89-.4-.89-.89s.4-.89,.89-.89h3.85c3.72,0,6.74,3.02,6.74,6.74V55.01c0,.49-.4,.89-.89,.89Z"/><path class="cls-1" d="M10.61,11.35c-2.01,0-3.64-1.63-3.64-3.64s1.63-3.64,3.64-3.64,3.64,1.63,3.64,3.64-1.63,3.64-3.64,3.64Zm0-5.51c-1.03,0-1.87,.84-1.87,1.87s.84,1.87,1.87,1.87,1.87-.84,1.87-1.87-.84-1.87-1.87-1.87Z"/><path class="cls-1" d="M20.42,11.35c-2.01,0-3.64-1.63-3.64-3.64s1.63-3.64,3.64-3.64,3.64,1.63,3.64,3.64-1.63,3.64-3.64,3.64Zm0-5.51c-1.03,0-1.87,.84-1.87,1.87s.84,1.87,1.87,1.87,1.87-.84,1.87-1.87-.84-1.87-1.87-1.87Z"/><path class="cls-1" d="M30.23,11.35c-2.01,0-3.64-1.63-3.64-3.64s1.63-3.64,3.64-3.64,3.64,1.63,3.64,3.64-1.63,3.64-3.64,3.64Zm0-5.51c-1.03,0-1.87,.84-1.87,1.87s.84,1.87,1.87,1.87,1.87-.84,1.87-1.87-.84-1.87-1.87-1.87Z"/><path class="cls-1" d="M17.84,43.94c-.49,0-.89-.4-.89-.89s.4-.89,.89-.89h4.28v-12.96c0-.49,.4-.89,.89-.89h6.88c.49,0,.89,.4,.89,.89v3.11h5.11v-8.97c0-.49,.4-.89,.89-.89h6.88c.49,0,.89,.4,.89,.89v3.08h5.11v-7.47c0-.49,.4-.89,.89-.89h6.88c.49,0,.89,.4,.89,.89v10.36h6c.49,0,.89,.4,.89,.89v11.96h4.28c.49,0,.89,.4,.89,.89s-.4,.89-.89,.89H17.84Zm40.47-1.77h5.11v-11.08h-5.11v11.08Zm-6.88,0h5.11V19.84h-5.11v22.32Zm-6.88,0h5.11v-13.97h-5.11v13.97Zm-6.88,0h5.11V24.23h-5.11v17.94Zm-6.88,0h5.11v-8.08h-5.11v8.08Zm-6.88,0h5.11v-12.07h-5.11v12.07Z"/><path class="cls-1" d="M22.16,61.68c-2.01,0-3.64-1.63-3.64-3.64s1.63-3.64,3.64-3.64c1.14,0,2.2,.52,2.9,1.44l.18,.23,17.13-5.79v-.29c0-2.01,1.63-3.64,3.64-3.64,1.87,0,3.43,1.4,3.62,3.27l.03,.29,12.24,2.77,.15-.25c.67-1.09,1.83-1.75,3.11-1.75,2.01,0,3.64,1.63,3.64,3.64s-1.63,3.64-3.64,3.64c-1.87,0-3.43-1.4-3.62-3.27l-.03-.29-12.24-2.77-.15,.25c-.67,1.09-1.83,1.75-3.11,1.75-1.14,0-2.2-.52-2.89-1.44l-.18-.23-17.13,5.79v.29c0,2.01-1.63,3.64-3.64,3.64Zm0-5.51c-1.03,0-1.87,.84-1.87,1.87s.84,1.87,1.87,1.87,1.87-.84,1.87-1.87-.84-1.87-1.87-1.87Zm42.99-3.72c-1.03,0-1.87,.84-1.87,1.87s.84,1.87,1.87,1.87,1.87-.84,1.87-1.87-.84-1.87-1.87-1.87Zm-20.91-1.84c.26,.75,.97,1.25,1.76,1.25,1.03,0,1.87-.84,1.87-1.87s-.84-1.87-1.87-1.87c-.5,0-.97,.19-1.32,.55s-.55,.82-.55,1.32c0,.18,.03,.36,.08,.53v.03l.03,.06Z"/></g></g></svg>