<?xml version="1.0" encoding="UTF-8"?><svg id="Layer_2" xmlns="http://www.w3.org/2000/svg" viewBox="0 0 78.91 84.34"><defs><style>.cls-1{fill:#6cace3;}</style></defs><g id="work"><g><path class="cls-1" d="M39.44,84.34c-.52,0-1.01-.23-1.34-.63L13.14,53.35c-.3-.36-.25-.91,.12-1.21,.15-.13,.34-.19,.54-.19,.26,0,.5,.11,.66,.31l22.18,26.98,.68-.36-12-41.31H2.39l6.56,7.97c.3,.37,.25,.91-.12,1.21-.15,.13-.34,.2-.54,.2-.26,0-.5-.11-.66-.31L.4,37.85c-.55-.67-.53-1.62,.05-2.27l11.76-13.08c.1-.12,.23-.22,.37-.31,.21-.19,.42-.27,.63-.27h.16s35.13,0,35.13,0c.47,0,.86,.39,.86,.86s-.39,.86-.86,.86h-7.07l11.14,11.83,11.14-11.83h-6.27c-.47,0-.86-.39-.86-.86s.38-.86,.86-.86h7.99s.19,0,.2,0c.29,0,.49,.08,.64,.22,.2,.13,.32,.23,.43,.35l11.76,13.07c.58,.64,.6,1.6,.05,2.27l-37.73,45.86c-.33,.4-.82,.63-1.34,.63m.02-4.25l12.36-42.52H27.1l12.36,42.52Zm2.16-1.28l.68,.36,34.23-41.6h-22.92l-11.98,41.24Zm12.95-42.95h21.85l-10.68-11.87-11.18,11.87Zm-26.24,0h22.28l-11.14-11.83-11.14,11.83Zm-25.82,0H24.35l-11.18-11.87L2.5,35.86Zm23.83-.39l11.14-11.83H15.2l11.14,11.83Z"/><path class="cls-1" d="M39.46,7.52c-.47,0-.86-.39-.86-.86V.86c0-.47,.38-.86,.86-.86s.86,.39,.86,.86V6.66c0,.47-.38,.86-.86,.86"/><path class="cls-1" d="M29.57,10.17c-.31,0-.59-.16-.74-.43l-2.9-5.03c-.24-.41-.09-.93,.31-1.17,.13-.07,.28-.11,.43-.11,.31,0,.59,.16,.74,.43l2.9,5.03c.11,.2,.15,.43,.09,.65-.06,.22-.2,.4-.4,.52-.13,.08-.28,.12-.43,.12"/><path class="cls-1" d="M22.33,17.4c-.15,0-.3-.04-.43-.12l-5.03-2.9c-.41-.24-.55-.76-.31-1.17,.15-.26,.44-.43,.74-.43,.15,0,.3,.04,.43,.11l5.03,2.9c.41,.24,.55,.76,.31,1.17-.15,.26-.44,.43-.74,.43"/><path class="cls-1" d="M56.58,17.4c-.31,0-.59-.16-.74-.43-.11-.2-.15-.43-.09-.65,.06-.22,.2-.41,.4-.52l5.02-2.9c.13-.07,.28-.11,.43-.11,.31,0,.59,.16,.74,.43,.12,.2,.15,.43,.09,.65-.06,.22-.2,.4-.4,.52l-5.03,2.9c-.13,.08-.28,.12-.43,.12"/><path class="cls-1" d="M49.34,10.17c-.15,0-.3-.04-.43-.12-.41-.24-.55-.76-.31-1.17l2.9-5.03c.15-.27,.44-.43,.75-.43,.15,0,.29,.04,.43,.11,.2,.12,.34,.3,.4,.52,.06,.22,.03,.45-.09,.65l-2.9,5.03c-.15,.26-.44,.43-.74,.43"/></g></g></svg>