<?xml version="1.0" encoding="UTF-8"?><svg id="Layer_2" xmlns="http://www.w3.org/2000/svg" viewBox="0 0 85.59 83.19"><defs><style>.cls-1{fill:#6cace3;}</style></defs><g id="work"><g><path class="cls-1" d="M42.8,12.84c-15.92,0-28.88,12.96-28.88,28.88,0,7.71,3,14.97,8.46,20.42,5.45,5.45,12.7,8.46,20.42,8.46h0c15.92,0,28.88-12.96,28.88-28.88s-12.95-28.88-28.88-28.88Zm0,56.21h0c-7.3,0-14.16-2.84-19.32-8-5.16-5.16-8-12.02-8-19.32,0-15.07,12.26-27.33,27.33-27.33s27.33,12.26,27.33,27.33-12.26,27.33-27.33,27.33Z"/><path class="cls-1" d="M42.81,20.36c-5.72,0-11.1,2.23-15.14,6.28-4.04,4.05-6.25,9.43-6.24,15.15,.03,11.82,9.67,21.43,21.48,21.43,5.72,0,11.1-2.23,15.14-6.28,4.04-4.05,6.25-9.43,6.24-15.16-.03-11.82-9.67-21.43-21.48-21.43Zm14.14,35.49c-3.74,3.75-8.73,5.82-14.04,5.82-10.96,0-19.9-8.92-19.93-19.88-.01-5.31,2.04-10.3,5.79-14.06,3.74-3.75,8.73-5.82,14.04-5.82,10.96,0,19.9,8.92,19.93,19.88,.01,5.31-2.04,10.3-5.79,14.06Z"/><path class="cls-1" d="M85.23,71.95l-15.43-9.82c-.24-.15-.54-.16-.79-.03-.25,.14-.4,.4-.4,.68v4.82h-5.14c-.43,0-.77,.35-.77,.78s.35,.78,.77,.78h5.91c.43,0,.77-.35,.77-.78v-4.18l13.21,8.4-13.21,8.4v-3.76c0-.43-.35-.78-.77-.78h-28.07c-4.65,0-8.75-1.76-11.74-3.04l-.33-.14c-.37-.16-.79,0-.99,.34l-1.22,2.24-1.41,.4-4.13-2.38-.38-1.4,1.33-2.3c.2-.34,.11-.77-.21-1.01-2.6-1.96-4.9-4.25-6.84-6.83-.24-.31-.67-.4-1.01-.2l-2.31,1.34-1.4-.37-2.39-4.12,.38-1.4,2.27-1.27c.35-.19,.49-.62,.33-.98-1.15-2.7-2.06-6.06-2.49-9.22-.05-.38-.38-.67-.77-.67l-3.56,.02c-.09-.05-.28-.32-.4-.5-.12-.17-.25-.35-.39-.53v-5.29l1.02-1.02h3.33c.39,0,.72-.29,.77-.67,.5-3.65,1.28-6.74,2.33-9.19,.16-.37,0-.81-.36-.99l-4.02-2.07c-.38-.19-.85-.05-1.04,.33-.2,.38-.05,.85,.33,1.04l3.39,1.74c-.9,2.3-1.6,5.07-2.07,8.25h-2.98c-.21,0-.4,.08-.55,.23l-1.48,1.48c-.15,.14-.23,.34-.23,.55v5.91c0,.21,.08,.4,.23,.55,.16,.16,.31,.37,.45,.57,.36,.5,.8,1.13,1.57,1.13h2.98c.44,2.84,1.24,5.8,2.24,8.31l-1.95,1.09c-.18,.1-.31,.27-.37,.47l-.56,2.03c-.05,.2-.03,.41,.08,.59l2.71,4.68c.1,.18,.27,.31,.47,.36l2.02,.54c.2,.05,.41,.02,.59-.08l2-1.16c1.79,2.29,3.87,4.37,6.18,6.17l-1.15,1.99c-.1,.18-.13,.39-.08,.59l.54,2.02c.05,.2,.18,.37,.36,.47l4.69,2.71c.18,.11,.39,.13,.6,.08l2.04-.58c.2-.06,.37-.19,.47-.38l1.04-1.91c2.94,1.26,7.25,3.03,12.03,3.03h27.3v4.4c0,.28,.15,.54,.4,.68,.12,.06,.24,.1,.37,.1,.15,0,.29-.04,.42-.12l15.43-9.82c.22-.14,.36-.39,.36-.65s-.14-.51-.36-.65Z"/><path class="cls-1" d="M16.57,21.09c.25-.14,.4-.4,.4-.68v-4.44h5.13c.43,0,.77-.35,.77-.78s-.35-.78-.77-.78h-5.91c-.43,0-.77,.35-.77,.78v3.8L2.22,10.59,15.43,2.19V6.33c0,.43,.35,.78,.77,.78h28.72c5.07,0,9.63,1.95,12.07,2.99,.37,.16,.81,0,.99-.36l1.23-2.38,1.41-.41,4.1,2.37,.38,1.4-1.33,2.31c-.2,.34-.11,.77,.21,1.01,2.59,1.95,4.89,4.25,6.84,6.84,.24,.31,.67,.4,1.01,.21l2.3-1.33,1.4,.38,2.42,4.2-.37,1.39-2.31,1.35c-.34,.2-.48,.61-.32,.97,1.11,2.61,2.05,6.13,2.49,9.41,.05,.38,.38,.67,.77,.67h2.68l1.02,1.02v5.27l-1.02,1.02h-2.68c-.39,0-.72,.29-.77,.67-.42,3.1-1.3,6.33-2.49,9.1-.16,.38,0,.81,.36,1l3.86,1.97c.11,.06,.23,.08,.35,.08,.28,0,.55-.15,.69-.42,.19-.38,.04-.85-.34-1.04l-3.22-1.65c1.02-2.54,1.79-5.38,2.22-8.16h2.33c.21,0,.4-.08,.55-.23l1.48-1.48c.15-.15,.23-.34,.23-.55v-5.91c0-.21-.08-.4-.23-.55l-1.48-1.48c-.15-.15-.34-.23-.55-.23h-2.33c-.46-2.96-1.27-6.05-2.25-8.51l2.01-1.17c.18-.1,.31-.27,.36-.47l.53-2.01c.05-.2,.02-.41-.08-.59l-2.74-4.75c-.1-.18-.27-.31-.47-.36l-2.02-.54c-.2-.06-.41-.03-.59,.08l-1.99,1.15c-1.81-2.31-3.88-4.39-6.18-6.19l1.15-2c.1-.18,.13-.39,.08-.59l-.54-2.02c-.05-.2-.18-.37-.36-.47l-4.67-2.7c-.18-.11-.4-.13-.6-.07l-2.05,.6c-.2,.06-.37,.2-.47,.39l-1.05,2.04c-2.66-1.12-7.07-2.84-12.02-2.84H16.98V.77c0-.28-.15-.54-.4-.68-.25-.13-.55-.12-.79,.03L.36,9.94c-.22,.14-.36,.39-.36,.65s.14,.51,.36,.65l15.43,9.82c.24,.15,.54,.16,.79,.03Z"/><path class="cls-1" d="M43.07,40.67c-3.32-.97-3.97-1.87-4.1-3.38-.18-2.07,1.13-3.91,3.04-4.28l.3-.05c.14-.02,.28-.03,.42-.03,.84,0,1.64,.31,2.29,.89,.67,.59,1.1,1.4,1.22,2.28h1.95c-.12-1.43-.8-2.76-1.88-3.73-.59-.53-1.28-.91-2.05-1.14l-.48-.14v-1.44h-1.94v1.41l-.51,.13c-2.74,.7-4.54,3.34-4.28,6.28,.29,3.28,2.87,4.3,5.49,5.07,3.36,.99,4.08,2.22,4.12,3.76,.05,1.79-1.01,3.32-2.65,3.81-.23,.07-.46,.12-.68,.15-.15,.02-.29,.03-.44,.03-.83,0-1.64-.31-2.29-.88-.63-.55-1.05-1.3-1.2-2.1h-1.96c.17,1.37,.83,2.64,1.88,3.56,.58,.51,1.29,.9,2.04,1.13l.49,.15v1.44h1.94v-1.4l.78-.21c2.45-.73,4.11-3.08,4.04-5.72-.1-3.53-3-4.82-5.51-5.56Z"/></g></g></svg>