<?xml version="1.0" encoding="UTF-8"?><svg id="Layer_2" xmlns="http://www.w3.org/2000/svg" viewBox="0 0 83.75 85"><defs><style>.cls-1{fill:#6cace3;}</style></defs><g id="work"><g><path class="cls-1" d="M6.25,25.73c-.33-.21-.77-.12-.98,.21-1.46,2.31-2.7,4.76-3.69,7.31-.14,.37,.04,.78,.4,.92,0,0,0,0,0,0,.08,.03,.17,.05,.26,.05,.29,0,.56-.18,.66-.46,.95-2.46,2.14-4.83,3.56-7.06,.21-.33,.12-.77-.21-.98Z"/><path class="cls-1" d="M1.32,36.1c-.38-.11-.77,.11-.88,.48l-.02,.06c-.14,.47-.27,.95-.39,1.42-.1,.38,.13,.77,.51,.87,0,0,0,0,0,0,.06,0,.12,0,.18,0,.33,.01,.63-.21,.71-.53,.11-.47,.24-.93,.38-1.42,.11-.38-.11-.77-.48-.88Z"/><path class="cls-1" d="M8.94,74.11c-2.39-3.03-4.34-6.38-5.8-9.96-.15-.37-.57-.54-.93-.39-.37,.15-.54,.57-.39,.93,1.51,3.69,3.53,7.16,6,10.29,.13,.18,.34,.28,.55,.28,.16,0,.32-.06,.44-.16,.31-.24,.36-.69,.12-1Z"/><path class="cls-1" d="M15.34,80.59s0,0,0,0c-1.1-.89-2.15-1.84-3.15-2.85-.25-.3-.7-.34-1-.08s-.34,.7-.08,1c.02,.03,.05,.05,.08,.08,1.04,1.03,2.13,2.02,3.27,2.94,.12,.11,.28,.17,.45,.18,.21,0,.41-.1,.55-.26,.25-.3,.21-.75-.1-1Z"/><path class="cls-1" d="M77.11,70.12c-.33-.21-.77-.11-.98,.23-.45,.71-.92,1.42-1.42,2.13-.23,.32-.15,.76,.16,.99,.12,.09,.26,.13,.41,.14,.23,0,.45-.11,.58-.29,.51-.71,1.01-1.47,1.47-2.21,.21-.33,.11-.77-.23-.98Z"/><path class="cls-1" d="M83.04,47.96c-.39,0-.71,.32-.71,.71,0,4.05-.59,8.09-1.77,11.97-.12,.36,.07,.76,.43,.89,.07,.02,.15,.03,.22,.03,.32,.01,.62-.19,.71-.51,1.22-4.01,1.83-8.18,1.83-12.38,0-.39-.32-.71-.71-.71Z"/><path class="cls-1" d="M71.8,29.25v-10.83c2.59-.39,4.37-2.81,3.97-5.4-.39-2.59-2.81-4.37-5.4-3.97-2.59,.39-4.37,2.81-3.97,5.4,.31,2.05,1.92,3.66,3.97,3.97v8.77c-5.85-7.93-14.67-13.14-24.43-14.44v-3.33c2.59-.39,4.37-2.81,3.97-5.4-.39-2.59-2.81-4.37-5.4-3.97-2.59,.39-4.37,2.81-3.97,5.4,.31,2.05,1.92,3.66,3.97,3.97v3.15c-1.1-.08-2.2-.14-3.32-.14-20.04-.02-36.3,16.22-36.31,36.26-.02,20.04,16.22,36.3,36.26,36.31,20.04,.02,36.3-16.22,36.31-36.26,0-6.9-1.96-13.67-5.66-19.49Zm-4.04-15.5c0-1.83,1.48-3.32,3.31-3.32s3.32,1.48,3.32,3.31c0,1.83-1.48,3.32-3.31,3.32h0c-1.83,0-3.31-1.48-3.32-3.31Zm-.82,11.72s.06-.06,.09-.09c5.62,6.2,8.81,14.21,8.98,22.57h-11.21v-5.75c2.58-.39,4.36-2.81,3.97-5.39-.39-2.58-2.81-4.36-5.39-3.97-2.58,.39-4.36,2.81-3.97,5.39,.31,2.05,1.92,3.65,3.97,3.97v5.75h-4.7c-.02-5.59-.75-11.16-2.18-16.57,3.75-1.44,7.27-3.43,10.44-5.91Zm-2.85,15.37c-1.83,0-3.32-1.48-3.32-3.32s1.48-3.32,3.32-3.32,3.32,1.48,3.32,3.32-1.48,3.32-3.32,3.32Zm-38.94,7.11c.02-5.42,.73-10.82,2.09-16.07,2.52,.87,5.12,1.5,7.75,1.89v9.55c0,.39,.32,.71,.71,.71s.71-.32,.71-.71v-9.38c1.58,.18,3.17,.27,4.76,.27h.47c4.59-.05,9.14-.84,13.48-2.33,1.38,5.24,2.09,10.64,2.12,16.06h0s-32.1,0-32.1,0h0Zm32.1,1.39c-.02,5.43-.73,10.83-2.09,16.08-4.63-1.6-9.51-2.39-14.41-2.35-4.59,.05-9.14,.84-13.47,2.33-1.38-5.24-2.1-10.64-2.13-16.06H57.26Zm-24.87-23.01c0-1.83,1.47-3.32,3.3-3.33,1.83,0,3.32,1.47,3.33,3.3h0c0,1.84-1.47,3.32-3.3,3.33-1.83,0-3.32-1.47-3.33-3.3Zm13.59-12.16c7.63,1.07,14.7,4.64,20.08,10.16-3.02,2.37-6.38,4.28-9.96,5.66-1.69-5.65-4.18-10.32-7.27-13.31-.85-.85-1.81-1.58-2.85-2.18v-.33Zm-4.06-9.44c0-1.83,1.48-3.32,3.32-3.32s3.32,1.48,3.32,3.32-1.48,3.32-3.32,3.32-3.32-1.48-3.32-3.32Zm-.7,9.9c1.14,0,2.27,.24,3.31,.71v9.54c0,.39,.32,.71,.71,.71s.71-.32,.71-.71v-8.71c.67,.45,1.3,.96,1.88,1.53,2.9,2.81,5.27,7.32,6.92,12.81-4.21,1.46-8.64,2.23-13.1,2.28-1.74,0-3.48-.1-5.21-.31v-1.49c2.59-.39,4.37-2.81,3.97-5.4-.39-2.59-2.81-4.37-5.4-3.97-2.59,.39-4.37,2.81-3.97,5.4,.31,2.05,1.92,3.66,3.97,3.97v1.32c-2.51-.38-4.98-.99-7.37-1.83,2.85-9.38,7.76-15.72,13.4-15.85h.18Zm-3.81-.58c-4.65,2.13-8.61,7.99-11.05,15.96-3.6-1.38-6.97-3.3-10-5.69,5.61-5.76,13.05-9.39,21.04-10.27ZM15.38,25.38s.06,.05,.09,.08c3.17,2.5,6.7,4.5,10.47,5.95-1.44,5.4-2.18,10.96-2.21,16.55H6.42c.17-8.36,3.35-16.38,8.96-22.57Zm.1,46.46s-.08,.08-.1,.13c-5.62-6.2-8.8-14.23-8.96-22.6H23.74c.02,5.59,.75,11.15,2.18,16.56-3.75,1.43-7.27,3.43-10.43,5.91Zm.86,1.14h0c3.02-2.38,6.38-4.3,9.96-5.69,1.71,5.69,4.2,10.31,7.29,13.31,1.08,1.08,2.34,1.97,3.72,2.62-7.96-.89-15.37-4.51-20.97-10.24Zm18.25,6.63c-2.9-2.85-5.27-7.32-6.92-12.81,8.78-3.05,18.32-3.05,27.1,0-2.85,9.42-7.75,15.74-13.4,15.87-2.36,.07-4.64-.97-6.79-3.06Zm10.42,3.65h0c4.67-2.11,8.62-8,11.08-15.97,3.58,1.39,6.94,3.31,9.96,5.69-5.61,5.76-13.05,9.39-21.04,10.28Zm22.03-11.28s-.07-.08-.11-.11v.02c-3.17-2.51-6.7-4.52-10.48-5.96,1.45-5.4,2.19-10.96,2.22-16.55h4.7v6.73c0,.39,.32,.71,.71,.71s.71-.32,.71-.71v-6.74h11.21c-.16,8.37-3.35,16.4-8.96,22.6Z"/></g></g></svg>