<?xml version="1.0" encoding="UTF-8"?><svg id="Layer_2" xmlns="http://www.w3.org/2000/svg" viewBox="0 0 97.84 88.18"><defs><style>.cls-1{fill:#6cace3;}</style></defs><g id="work"><g><path class="cls-1" d="M20.91,30.22H12.73c-1.27,0-2.31,1.04-2.31,2.31v8.18c0,1.27,1.04,2.31,2.31,2.31h8.18c1.27,0,2.31-1.04,2.31-2.31v-8.18c0-1.27-1.04-2.31-2.31-2.31Zm.39,10.49c0,.22-.18,.39-.39,.39H12.73c-.22,0-.39-.18-.39-.39v-8.18c0-.22,.18-.39,.39-.39h8.18c.22,0,.39,.18,.39,.39v8.18Z"/><path class="cls-1" d="M43.45,30.22h-8.18c-1.27,0-2.31,1.04-2.31,2.31v8.18c0,1.27,1.04,2.31,2.31,2.31h8.18c1.27,0,2.31-1.04,2.31-2.31v-8.18c0-1.27-1.04-2.31-2.31-2.31Zm.39,10.49c0,.22-.18,.39-.39,.39h-8.18c-.22,0-.39-.18-.39-.39v-8.18c0-.22,.18-.39,.39-.39h8.18c.22,0,.39,.18,.39,.39v8.18Z"/><path class="cls-1" d="M20.91,48H12.73c-1.27,0-2.31,1.04-2.31,2.31v8.18c0,1.27,1.04,2.31,2.31,2.31h8.18c1.27,0,2.31-1.04,2.31-2.31v-8.18c0-1.27-1.04-2.31-2.31-2.31Zm.39,10.49c0,.22-.18,.39-.39,.39H12.73c-.22,0-.39-.18-.39-.39v-8.18c0-.22,.18-.39,.39-.39h8.18c.22,0,.39,.18,.39,.39v8.18Z"/><path class="cls-1" d="M43.45,48h-8.18c-1.27,0-2.31,1.04-2.31,2.31v8.18c0,1.27,1.04,2.31,2.31,2.31h8.18c1.27,0,2.31-1.04,2.31-2.31v-8.18c0-1.27-1.04-2.31-2.31-2.31Zm.39,10.49c0,.22-.18,.39-.39,.39h-8.18c-.22,0-.39-.18-.39-.39v-8.18c0-.22,.18-.39,.39-.39h8.18c.22,0,.39,.18,.39,.39v8.18Z"/><path class="cls-1" d="M96.33,53.85c-.96-2.68-2.37-5.18-4.16-7.41-1.78-2.21-3.9-4.1-6.3-5.62-2.22-1.41-4.63-2.45-7.16-3.12V13.38c0-2.89-2.29-5.24-5.11-5.24h-11.7c.04-.11,.07-.23,.07-.35V4c0-2.2-1.79-4-4-4s-4,1.79-4,4v4.14h-10.68c.04-.11,.07-.23,.07-.35V4c0-2.2-1.79-4-4-4s-4,1.79-4,4v4.14h-10.68c.04-.11,.07-.23,.07-.35V4c0-2.2-1.79-4-4-4s-4,1.79-4,4v4.14H5.11c-2.82,0-5.11,2.35-5.11,5.24v51.2c0,2.89,2.29,5.24,5.11,5.24H47.58c.27,.91,.59,1.81,.96,2.69,1.29,3.06,3.14,5.8,5.5,8.15,2.36,2.36,5.1,4.21,8.15,5.5,3.16,1.34,6.52,2.02,9.99,2.02s6.82-.68,9.99-2.02c3.06-1.29,5.8-3.14,8.15-5.5,2.36-2.36,4.21-5.1,5.5-8.15,1.34-3.16,2.02-6.52,2.02-9.99,0-2.98-.51-5.9-1.5-8.68ZM55.89,4c0-1.15,.93-2.08,2.08-2.08s2.08,.93,2.08,2.08v3.79c0,.12,.02,.24,.07,.35h-4.23V4Zm-18.61,0c0-1.15,.93-2.08,2.08-2.08s2.08,.93,2.08,2.08v3.79c0,.12,.02,.24,.07,.35h-4.23V4Zm-18.61,0c0-1.15,.93-2.08,2.08-2.08s2.08,.93,2.08,2.08v3.79c0,.12,.02,.24,.07,.35h-4.23V4ZM5.11,10.06h11.63v3.62c0,2.2,1.79,4,4,4,.53,0,.96-.43,.96-.96s-.43-.96-.96-.96c-1.15,0-2.08-.93-2.08-2.08v-3.62h16.69v3.62c0,2.2,1.79,4,4,4,.53,0,.96-.43,.96-.96s-.43-.96-.96-.96c-1.15,0-2.08-.93-2.08-2.08v-3.62h16.69v3.62c0,2.2,1.79,4,4,4,.53,0,.96-.43,.96-.96s-.43-.96-.96-.96c-1.15,0-2.08-.93-2.08-2.08v-3.62h17.71c1.76,0,3.19,1.49,3.19,3.32v9.21l-74.87,.22V13.38c0-1.83,1.43-3.32,3.19-3.32Zm0,57.84c-1.76,0-3.19-1.49-3.19-3.32V24.73l74.87-.22v12.77c-1.51-.27-3.06-.41-4.61-.41-1.31,0-2.61,.1-3.89,.29v-4.63c0-1.27-1.04-2.31-2.31-2.31h-8.18c-1.27,0-2.31,1.04-2.31,2.31v8.18c0,.68,.29,1.28,.76,1.71-.77,.61-1.5,1.27-2.2,1.97-2.36,2.36-4.21,5.1-5.5,8.15-1.34,3.16-2.02,6.52-2.02,9.99,0,1.83,.19,3.62,.56,5.38H5.11Zm52.9-26.78c-.07-.02-.14-.03-.22-.03-.22,0-.39-.18-.39-.39v-8.18c0-.22,.18-.39,.39-.39h8.18c.22,0,.39,.18,.39,.39v5c-1.42,.33-2.82,.78-4.18,1.36-1.47,.62-2.86,1.37-4.18,2.24Zm14.16,45.14c-13.09,0-23.74-10.65-23.74-23.74s10.65-23.74,23.74-23.74c1.81,0,3.61,.2,5.35,.61,10.82,2.49,18.38,12.01,18.38,23.13,0,13.09-10.65,23.74-23.74,23.74Z"/><path class="cls-1" d="M74.58,64.77c.54-.59,.86-1.38,.86-2.25s-.33-1.66-.87-2.26l4.77-8.08c.27-.46,.12-1.04-.34-1.31-.46-.27-1.04-.12-1.31,.34l-4.77,8.08c-.24-.06-.49-.09-.74-.09-1.8,0-3.27,1.49-3.27,3.32s1.47,3.32,3.27,3.32c.26,0,.51-.03,.75-.09l6.49,10.42c.18,.29,.49,.45,.82,.45,.17,0,.35-.05,.51-.15,.45-.28,.59-.87,.31-1.32l-6.47-10.39Zm-3.75-2.25c0-.77,.6-1.4,1.35-1.4s1.35,.63,1.35,1.4-.6,1.4-1.35,1.4-1.35-.63-1.35-1.4Z"/><path class="cls-1" d="M72.18,44.55c.53,0,.96-.43,.96-.96v-2.85c0-.53-.43-.96-.96-.96s-.96,.43-.96,.96v2.85c0,.53,.43,.96,.96,.96Z"/><path class="cls-1" d="M72.18,80.33c-.53,0-.96,.43-.96,.96v2.85c0,.53,.43,.96,.96,.96s.96-.43,.96-.96v-2.85c0-.53-.43-.96-.96-.96Z"/><path class="cls-1" d="M53.3,61.87h-2.85c-.53,0-.96,.43-.96,.96s.43,.96,.96,.96h2.85c.53,0,.96-.43,.96-.96s-.43-.96-.96-.96Z"/><path class="cls-1" d="M91.34,63.78h2.85c.53,0,.96-.43,.96-.96s-.43-.96-.96-.96h-2.85c-.53,0-.96,.43-.96,.96s.43,.96,.96,.96Z"/></g></g></svg>