<?xml version="1.0" encoding="UTF-8"?><svg id="Layer_2" xmlns="http://www.w3.org/2000/svg" viewBox="0 0 112.95 94.59"><defs><style>.cls-1{fill:#6cace3;}</style></defs><g id="work"><g><path class="cls-1" d="M29.17,14.38h6.06l6.32,6.44c.66-.16,1.34-.3,2.03-.44l-5.89-6h3.87c2.05,0,3.71-1.66,3.71-3.71V3.71c0-2.05-1.66-3.71-3.71-3.71h-12.38c-2.05,0-3.71,1.66-3.71,3.71v6.96c0,2.05,1.66,3.71,3.71,3.71Zm-1.96-10.67c0-1.08,.88-1.96,1.96-1.96h12.38c1.08,0,1.96,.88,1.96,1.96v6.96c0,1.08-.88,1.96-1.96,1.96h-12.38c-1.08,0-1.96-.88-1.96-1.96V3.71Z"/><path class="cls-1" d="M19.8,49.07v-2.6c0-2.05-1.66-3.71-3.71-3.71H3.71c-2.05,0-3.71,1.66-3.71,3.71v6.96c0,2.05,1.66,3.71,3.71,3.71h12.38c2.05,0,3.71-1.66,3.71-3.71v-2.6h12.54v-1.75h-12.54Zm-1.75,4.35c0,1.08-.88,1.96-1.96,1.96H3.71c-1.08,0-1.96-.88-1.96-1.96v-6.96c0-1.08,.88-1.96,1.96-1.96h12.38c1.08,0,1.96,.88,1.96,1.96v6.96Z"/><path class="cls-1" d="M35.15,80.21h-5.98c-2.05,0-3.71,1.66-3.71,3.71v6.96c0,2.05,1.66,3.71,3.71,3.71h12.38c2.05,0,3.71-1.66,3.71-3.71v-6.96c0-2.05-1.66-3.71-3.71-3.71h-3.9l5.79-5.69c-.7-.13-1.38-.28-2.04-.45l-6.25,6.13Zm8.36,3.71v6.96c0,1.08-.88,1.96-1.96,1.96h-12.38c-1.08,0-1.96-.88-1.96-1.96v-6.96c0-1.08,.88-1.96,1.96-1.96h12.38c1.08,0,1.96,.88,1.96,1.96Z"/><path class="cls-1" d="M109.24,42.76h-12.38c-2.04,0-3.71,1.66-3.71,3.71v2.6h-12.54v1.75h12.54v2.6c0,2.05,1.66,3.71,3.71,3.71h12.38c2.05,0,3.71-1.66,3.71-3.71v-6.96c0-2.05-1.66-3.71-3.71-3.71Zm1.96,10.67c0,1.08-.88,1.96-1.96,1.96h-12.38c-1.08,0-1.96-.88-1.96-1.96v-6.96c0-1.08,.88-1.96,1.96-1.96h12.38c1.08,0,1.96,.88,1.96,1.96v6.96Z"/><path class="cls-1" d="M83.78,80.21h-6.06l-6.05-6.16c-.65,.16-1.33,.31-2.01,.45l5.61,5.72h-3.87c-2.05,0-3.71,1.66-3.71,3.71v6.96c0,2.05,1.66,3.71,3.71,3.71h12.38c2.05,0,3.71-1.66,3.71-3.71v-6.96c0-2.05-1.66-3.71-3.71-3.71Zm1.96,10.67c0,1.08-.88,1.96-1.96,1.96h-12.38c-1.08,0-1.96-.88-1.96-1.96v-6.96c0-1.08,.88-1.96,1.96-1.96h12.38c1.08,0,1.96,.88,1.96,1.96v6.96Z"/><path class="cls-1" d="M77.8,14.38h5.98c2.05,0,3.71-1.66,3.71-3.71V3.71c0-2.05-1.66-3.71-3.71-3.71h-12.38c-2.05,0-3.71,1.66-3.71,3.71v6.96c0,2.05,1.66,3.71,3.71,3.71h3.9l-6.09,5.97c.7,.13,1.39,.28,2.06,.43l6.53-6.41Zm-8.36-3.71V3.71c0-1.08,.88-1.96,1.96-1.96h12.38c1.08,0,1.96,.88,1.96,1.96v6.96c0,1.08-.88,1.96-1.96,1.96h-12.38c-1.08,0-1.96-.88-1.96-1.96Z"/><path class="cls-1" d="M56.47,34.57c11.09,0,22.88-2.47,22.88-7.04s-11.79-7.04-22.88-7.04-22.88,2.47-22.88,7.04,11.79,7.04,22.88,7.04Zm0-12.21c13.02,0,21.02,3.01,21.02,5.17s-8,5.17-21.02,5.17-21.02-3.01-21.02-5.17,8-5.17,21.02-5.17Z"/><path class="cls-1" d="M78.42,33.5c-.51,0-.93,.42-.93,.93v6.53c0,2.16-8,5.17-21.02,5.17s-21.02-3.01-21.02-5.17v-6.53c0-.51-.42-.93-.93-.93s-.93,.42-.93,.93v6.53c0,4.57,11.79,7.04,22.88,7.04s22.88-2.47,22.88-7.04v-6.53c0-.51-.42-.93-.93-.93Z"/><path class="cls-1" d="M78.42,46.72c-.51,0-.93,.42-.93,.93v6.53c0,2.16-8,5.17-21.02,5.17s-21.02-3.01-21.02-5.17v-6.53c0-.51-.42-.93-.93-.93s-.93,.42-.93,.93v6.53c0,4.57,11.79,7.04,22.88,7.04s22.88-2.47,22.88-7.04v-6.53c0-.51-.42-.93-.93-.93Z"/><path class="cls-1" d="M78.42,59.94c-.51,0-.93,.42-.93,.93v6.53c0,2.16-8,5.17-21.02,5.17s-21.02-3.01-21.02-5.17v-6.53c0-.51-.42-.93-.93-.93s-.93,.42-.93,.93v6.53c0,4.57,11.79,7.04,22.88,7.04s22.88-2.47,22.88-7.04v-6.53c0-.51-.42-.93-.93-.93Z"/><path class="cls-1" d="M55.01,40.45c0,.81,.66,1.46,1.46,1.46s1.46-.66,1.46-1.46-.66-1.46-1.46-1.46-1.46,.66-1.46,1.46Z"/><path class="cls-1" d="M47.92,39.86c0,.81,.66,1.46,1.46,1.46s1.46-.66,1.46-1.46-.66-1.46-1.46-1.46-1.46,.66-1.46,1.46Z"/><path class="cls-1" d="M62.1,39.86c0,.81,.66,1.46,1.46,1.46s1.46-.66,1.46-1.46-.66-1.46-1.46-1.46-1.46,.66-1.46,1.46Z"/><path class="cls-1" d="M57.93,53.97c0-.81-.66-1.46-1.46-1.46s-1.46,.66-1.46,1.46,.66,1.46,1.46,1.46,1.46-.66,1.46-1.46Z"/><path class="cls-1" d="M50.85,53.38c0-.81-.66-1.46-1.46-1.46s-1.46,.66-1.46,1.46,.66,1.46,1.46,1.46,1.46-.66,1.46-1.46Z"/><path class="cls-1" d="M65.02,53.38c0-.81-.66-1.46-1.46-1.46s-1.46,.66-1.46,1.46,.66,1.46,1.46,1.46,1.46-.66,1.46-1.46Z"/><path class="cls-1" d="M57.93,67.19c0-.81-.66-1.46-1.46-1.46s-1.46,.66-1.46,1.46,.66,1.46,1.46,1.46,1.46-.66,1.46-1.46Z"/><path class="cls-1" d="M50.85,66.6c0-.81-.66-1.46-1.46-1.46s-1.46,.66-1.46,1.46,.66,1.46,1.46,1.46,1.46-.66,1.46-1.46Z"/><path class="cls-1" d="M65.02,66.6c0-.81-.66-1.46-1.46-1.46s-1.46,.66-1.46,1.46,.66,1.46,1.46,1.46,1.46-.66,1.46-1.46Z"/></g></g></svg>