<?xml version="1.0" encoding="UTF-8"?><svg id="Layer_2" xmlns="http://www.w3.org/2000/svg" viewBox="0 0 106.54 106.54"><defs><style>.cls-1{fill:#6cace3;}</style></defs><g id="work"><g><path class="cls-1" d="M52.52,85.53V21.01h12V85.53h-12Zm1.5-1.5h9.01v-9.01h-9.01v9.01Zm0-10.5h9.01v-9.01h-9.01v9.01Zm0-10.5h9.01v-9.01h-9.01v9.01Zm0-10.5h9.01v-9.01h-9.01v9.01Zm0-10.5h9.01v-9.01h-9.01v9.01Zm0-10.5h9.01v-9.01h-9.01v9.01Z"/><path class="cls-1" d="M0,106.54v-26.01H3.5V39.49l-2.7-4.05c-.52-.79-.8-1.71-.8-2.65,0-2.64,2.14-4.78,4.78-4.78h.76l3.5-7H45.52v-2.75c0-3.67,2.61-6.86,6.2-7.59l.8-.16V4.25c0-2.34,1.91-4.25,4.25-4.25h38.52c2.34,0,4.25,1.91,4.25,4.25v6.25l.8,.16c3.59,.73,6.2,3.93,6.2,7.59V106.54H0Zm99.54-1.5h5.51V18.26c0-3.45-2.81-6.26-6.26-6.26H53.27c-3.45,0-6.26,2.81-6.26,6.26V105.04h5.51v-14.01h47.01v14.01Zm-14.01,0h12.51v-12.51h-12.51v12.51Zm-17.51,0h16.01v-12.51h-16.01v12.51Zm-14.01,0h12.51v-12.51h-12.51v12.51Zm-20.88-14.01c3.79,0,6.88,3.08,6.88,6.88v7.13h5.51v-23.01H1.5v23.01H7v-7.13c0-3.79,3.08-6.88,6.88-6.88s6.88,3.08,6.88,6.88v7.13h5.51v-7.13c0-3.79,3.08-6.88,6.88-6.88Zm0,1.5c-2.97,0-5.38,2.41-5.38,5.38v7.13h10.76v-7.13c0-2.97-2.41-5.38-5.38-5.38Zm-19.26,0c-2.97,0-5.38,2.41-5.38,5.38v7.13h10.76v-7.13c0-2.97-2.41-5.38-5.38-5.38Zm19.13-12h12.51v-12.51h-12.51v12.51Zm-14.01,0h12.51v-12.51h-12.51v12.51Zm-14.01,0h12.51v-12.51H5v12.51Zm28.01-14.01h12.51v-12.51h-12.51v12.51Zm-14.01,0h12.51v-12.51h-12.51v12.51Zm-14.01,0h12.51v-12.51H5v12.51Zm28.01-14.01h12.51v-12.51h-12.51v12.51Zm-14.01,0h12.51v-12.51h-12.51v12.51Zm-14.01,0h12.51v-12.51H5v12.51Zm-.22-23.01c-1.81,0-3.28,1.47-3.28,3.28,0,.65,.19,1.28,.55,1.82l2.6,3.9H45.52v-9.01H4.78Zm2.43-1.5H45.52v-5.51H9.96l-2.75,5.51ZM56.77,1.5c-1.52,0-2.75,1.24-2.75,2.75v6.26h44.02V4.25c0-1.52-1.24-2.75-2.75-2.75H56.77Z"/><path class="cls-1" d="M70.03,85.53V21.01h12V85.53h-12Zm1.5-1.5h9.01v-9.01h-9.01v9.01Zm0-10.5h9.01v-9.01h-9.01v9.01Zm0-10.5h9.01v-9.01h-9.01v9.01Zm0-10.5h9.01v-9.01h-9.01v9.01Zm0-10.5h9.01v-9.01h-9.01v9.01Zm0-10.5h9.01v-9.01h-9.01v9.01Z"/><path class="cls-1" d="M87.54,85.53V21.01h12V85.53h-12Zm1.5-1.5h9.01v-9.01h-9.01v9.01Zm0-10.5h9.01v-9.01h-9.01v9.01Zm0-10.5h9.01v-9.01h-9.01v9.01Zm0-10.5h9.01v-9.01h-9.01v9.01Zm0-10.5h9.01v-9.01h-9.01v9.01Zm0-10.5h9.01v-9.01h-9.01v9.01Z"/></g></g></svg>