<?xml version="1.0" encoding="UTF-8"?><svg id="Layer_2" xmlns="http://www.w3.org/2000/svg" viewBox="0 0 84.4 84.96"><defs><style>.cls-1{fill:#6cace3;}</style></defs><g id="work"><g><path class="cls-1" d="M83.36,46.34l-.05,.05c-.65,.67-1.46,.79-2.41,.34-.07-.04-.15-.07-.22-.11,.84-1.35,1.04-2.84,.53-3.99-.43-.98-1.29-1.51-2.19-1.32-1.12,.22-1.83,.93-1.96,1.93-.14,1.1,.48,2.51,1.58,3.62-.3,.31-.65,.61-1.03,.88-.67,.48-1.49,.62-2.25,.38-.92-.3-1.63-1.12-2.01-2.31l-.03-.05c-2.46-9.11-10.38-16.54-21.2-19.91,3.59-2.77,5.64-6.92,5.64-11.42,0-7.96-6.48-14.43-14.43-14.43s-14.43,6.47-14.43,14.43c0,3.75,1.44,7.29,4.05,10-2.28,.41-4.73,1.05-6.9,1.81-2.51-2.78-6.57-3.49-9.89-1.73-.24,.13-.39,.37-.39,.64v6.61c-4.27,3.32-7.41,7.49-9.08,12.04H2.82c-.91,0-1.58,.24-2.06,.72C-.05,45.36-.02,46.64,.01,48.11c0,.3,.01,.61,.01,.92v5.25c0,.32,0,.62-.01,.92-.03,1.48-.06,2.75,.75,3.58,.47,.48,1.15,.72,2.06,.72h3.86c1.67,4.56,4.81,8.72,9.08,12.05v8.2c0,2.88,2.34,5.22,5.22,5.22h5.24c2.88,0,5.22-2.34,5.22-5.22v-1.21c5.92,1.18,12.15,1.07,18.02-.33v1.53c0,2.88,2.34,5.22,5.22,5.22h5.25c2.88,0,5.22-2.34,5.22-5.22v-9.43c5.79-5.11,8.98-11.74,8.98-18.66v-.22s.01-.92-.17-2.41c.31,.2,.63,.36,.95,.46,.39,.13,.8,.19,1.21,.19,.83,0,1.65-.27,2.34-.78,.49-.36,.93-.74,1.31-1.14,.16,.1,.32,.19,.49,.27,1.51,.72,2.99,.49,4.08-.64l.05-.05-1.04-1.01Zm-3.82-.65c-.68-.75-1.1-1.68-1.03-2.28,.03-.25,.15-.56,.8-.69,.02,0,.04,0,.06,0,.22,0,.42,.26,.52,.49,.29,.67,.16,1.59-.35,2.48Zm-28.91,31.02c-.13-.1-.28-.15-.44-.15-.06,0-.12,0-.19,.02-6.14,1.6-12.93,1.73-19.13,.35-.22-.05-.44,0-.61,.14-.17,.14-.27,.35-.27,.57v2.1c0,2.08-1.69,3.77-3.77,3.77h-5.24c-2.08,0-3.77-1.69-3.77-3.77v-8.56c0-.23-.11-.44-.29-.58-4.35-3.31-7.48-7.48-9.04-12.07-.1-.29-.38-.49-.69-.49H2.82c-.5,0-.83-.09-1.02-.28-.38-.39-.36-1.38-.33-2.53,0-.31,.01-.63,.01-.95v-5.25c0-.33,0-.65-.01-.95-.03-1.15-.05-2.14,.33-2.53,.18-.19,.52-.28,1.02-.28H7.19c.31,0,.59-.2,.69-.49,1.56-4.59,4.69-8.76,9.04-12.07,.18-.13,.29-.35,.29-.58v-6.52c2.79-1.28,6.08-.49,8.03,1.94,.19,.24,.52,.33,.81,.23,2.59-.94,5.59-1.7,8.25-2.1,.75,.61,1.59,1.14,2.5,1.6-1.1,.05-1.75,.12-1.76,.12-.19,.02-.37,.12-.49,.27-.12,.15-.18,.34-.15,.54,.04,.39,.39,.67,.81,.64,.34-.03,8.55-.87,16.36,1.86,.39,.13,.8-.08,.92-.45,.13-.38-.07-.79-.45-.92-1.34-.47-2.78-.87-4.28-1.18,.95-.31,1.89-.73,2.8-1.26,11.22,3.12,19.49,10.82,21.58,20.11,.54,2.56,.52,4.34,.52,4.42v.24c0,6.6-3.09,12.91-8.72,17.78h0c-.16,.14-.25,.34-.25,.55v9.76c0,2.08-1.69,3.77-3.76,3.77h-5.25c-2.07,0-3.76-1.69-3.76-3.77v-2.46c0-.22-.11-.44-.28-.58Zm-7.31-49.3c-3.09,0-6.08-1.12-8.44-3.14l-.02-.13h-.12c-2.8-2.46-4.4-6-4.4-9.7,0-7.16,5.82-12.98,12.98-12.98s12.98,5.82,12.98,12.98-5.82,12.98-12.98,12.98Z"/><path class="cls-1" d="M43.32,4.78c-5.32,0-9.65,4.33-9.65,9.65s4.33,9.65,9.65,9.65,9.65-4.33,9.65-9.65-4.33-9.65-9.65-9.65Zm8.2,9.65c0,4.52-3.68,8.2-8.2,8.2s-8.2-3.68-8.2-8.2,3.68-8.2,8.2-8.2,8.2,3.68,8.2,8.2Z"/><path class="cls-1" d="M43.79,8.97c-.28-.11-.59-.05-.8,.17l-3.45,3.58,1.05,1.01,2.2-2.29v8.17h1.45V9.65c0-.3-.18-.56-.45-.67Z"/><path class="cls-1" d="M14.7,41.72c-1.12-.47-2.57,.33-3.16,1.74-.61,1.46-.18,2.99,.98,3.47,.23,.1,.47,.14,.72,.14,.99,0,1.97-.76,2.44-1.88,.28-.66,.35-1.36,.2-1.99-.16-.7-.59-1.24-1.18-1.49Z"/></g></g></svg>