<?xml version="1.0" encoding="UTF-8"?><svg id="Layer_2" xmlns="http://www.w3.org/2000/svg" viewBox="0 0 67.57 75.26"><defs><style>.cls-1{fill:#6cace3;}</style></defs><g id="work"><g><path class="cls-1" d="M66.77,26.97h0l-60.37,.14L64.2,9.56c.18-.05,.32-.17,.41-.34,.09-.16,.11-.35,.05-.53l-1.65-5.42c-.58-1.92-2.4-3.27-4.4-3.27h0c-.45,0-.89,.07-1.33,.2L3.27,16.6c-1.18,.36-2.14,1.15-2.72,2.24-.58,1.08-.7,2.33-.34,3.51l1.63,5.37-.02,.18,.11,42.77c0,1.23,.49,2.38,1.36,3.25,.87,.87,2.06,1.34,3.26,1.34l56.45-.13c1.23,0,2.38-.48,3.25-1.36s1.35-2.03,1.34-3.26l-.1-42.84c0-.38-.31-.7-.7-.7Zm-.7,1.4l.02,7.92-12.83,.03,4.58-7.93,8.23-.02Zm-9.85,.02l-4.58,7.93-11.94,.03,4.58-7.93,11.94-.03Zm-13.55,.03l-4.58,7.93-11.94,.03,4.58-7.93,11.94-.03Zm-13.55,.03l-4.58,7.93-11.94,.03,4.58-7.93,11.94-.03ZM57.68,1.53c.31-.09,.61-.15,.93-.14,1.4,0,2.66,.94,3.07,2.28l1.44,4.75-7.29,2.21-6.92-6.44,8.77-2.66Zm-10.31,3.13l6.92,6.44-11.42,3.47-6.92-6.44,11.42-3.47Zm-12.97,3.94l6.92,6.44-11.42,3.47-6.92-6.44,11.42-3.47Zm-12.97,3.94l6.92,6.44-11.42,3.47-6.92-6.44,11.42-3.47ZM1.54,21.94c-.25-.82-.16-1.69,.24-2.44,.3-.57,.76-1.02,1.31-1.32,.18-.1,.38-.18,.59-.24l4.8-1.46,6.92,6.44-12.42,3.77-1.44-4.75Zm1.68,6.57l12.36-.03-4.58,7.93-7.76,.02-.02-7.92Zm62.02,44.27c-.6,.61-1.41,.94-2.27,.95l-56.45,.13h0c-.88,0-1.68-.36-2.27-.94s-.94-1.38-.94-2.26l-.08-32.83,62.86-.14,.08,32.83c0,.86-.33,1.66-.94,2.27Z"/><g><path class="cls-1" d="M37.13,67.11c-5.97,0-10.83-4.86-10.83-10.83s4.86-10.83,10.83-10.83c2.7,0,5.29,1,7.29,2.82,.31,.28,.33,.75,.05,1.06-.28,.31-.75,.33-1.06,.05-1.72-1.57-3.95-2.43-6.28-2.43-5.14,0-9.33,4.18-9.33,9.33s4.18,9.33,9.33,9.33c2.33,0,4.56-.86,6.28-2.43,.31-.28,.78-.26,1.06,.05,.28,.31,.26,.78-.05,1.06-2,1.82-4.59,2.82-7.29,2.82Z"/><g><path class="cls-1" d="M36.74,53.97h-13.09c-.41,0-.75-.34-.75-.75s.34-.75,.75-.75h13.09c.41,0,.75,.34,.75,.75s-.34,.75-.75,.75Z"/><path class="cls-1" d="M36.74,60.09h-13.09c-.41,0-.75-.34-.75-.75s.34-.75,.75-.75h13.09c.41,0,.75,.34,.75,.75s-.34,.75-.75,.75Z"/></g></g></g></g></svg>