<?xml version="1.0" encoding="UTF-8"?><svg id="Layer_2" xmlns="http://www.w3.org/2000/svg" viewBox="0 0 84.5 84.5"><defs><style>.cls-1{fill:#6cace3;}</style></defs><g id="work"><g><path class="cls-1" d="M62.93,84.5c-11.89,0-21.56-9.67-21.56-21.56v-.5H3.64c-2.01,0-3.64-1.63-3.64-3.64V3.64C0,1.63,1.63,0,3.64,0H80.86c2.01,0,3.64,1.63,3.64,3.64V62.93c0,11.89-9.67,21.56-21.56,21.56Zm-13.36-6.96l.41,.35c3.61,3.13,8.21,4.86,12.95,4.86s9.34-1.72,12.95-4.86l.41-.35-13.36-13.36-13.36,13.36Zm14.23-14.96l13.72,13.72,.35-.41c3.13-3.61,4.86-8.21,4.86-12.95,0-10.33-8.08-19-18.39-19.73l-.54-.04v19.41Zm-2.29-19.37c-10.31,.73-18.39,9.4-18.39,19.73,0,4.74,1.72,9.34,4.85,12.95l.35,.41,13.72-13.72v-19.41l-.54,.04ZM1.76,58.8c0,1.04,.84,1.88,1.88,1.88H41.5l.05-.44c1.35-10.76,10.54-18.87,21.38-18.87,7.83,0,15.06,4.27,18.87,11.15l.94,1.69V12.79H1.76V58.8ZM3.64,1.76c-1.04,0-1.88,.84-1.88,1.88v7.4H82.74V3.64c0-1.04-.84-1.88-1.88-1.88H3.64Z"/><path class="cls-1" d="M46.89,62.43c.21-6.78,4.73-12.75,11.19-14.8l.48,1.69c-5.7,1.83-9.69,7.11-9.9,13.11h-1.76Z"/><path class="cls-1" d="M47.81,68.3c-.23-.64-.41-1.3-.56-1.96l1.73-.32c.12,.56,.28,1.11,.47,1.64l-1.64,.64Z"/><path class="cls-1" d="M76.48,58.37c-.17-.5-.37-1-.59-1.48l1.57-.8c.27,.58,.51,1.17,.71,1.78l-1.69,.5Z"/><path class="cls-1" d="M77.21,63.49c0-.18,.01-.37,.01-.55,0-.35-.01-.7-.04-1.05l1.75-.19c.03,.41,.05,.82,.05,1.23,0,.23,0,.45-.01,.68l-1.75-.13Z"/><path class="cls-1" d="M76.09,68.53c.21-.49,.39-.99,.54-1.5l1.7,.44c-.18,.61-.4,1.22-.65,1.8l-1.59-.75Z"/><rect class="cls-1" x="11.03" y="5.52" width="1.76" height="1.76"/><rect class="cls-1" x="5.52" y="5.52" width="1.76" height="1.76"/><rect class="cls-1" x="16.55" y="5.52" width="1.76" height="1.76"/><path class="cls-1" d="M9.15,34.85c-2.01,0-3.64-1.63-3.64-3.64v-11.03c0-2.01,1.63-3.64,3.64-3.64H28.46c2.01,0,3.64,1.63,3.64,3.64v11.03c0,2.01-1.63,3.64-3.64,3.64H9.15Zm0-16.55c-1.04,0-1.88,.84-1.88,1.88v11.03c0,1.04,.84,1.88,1.88,1.88H28.46c1.04,0,1.88-.84,1.88-1.88v-11.03c0-1.04-.84-1.88-1.88-1.88H9.15Z"/><path class="cls-1" d="M9.15,56.92c-2.01,0-3.64-1.63-3.64-3.64v-11.03c0-2.01,1.63-3.64,3.64-3.64H28.46c2.01,0,3.64,1.63,3.64,3.64v11.03c0,2.01-1.63,3.64-3.64,3.64H9.15Zm0-16.55c-1.04,0-1.88,.84-1.88,1.88v11.03c0,1.04,.84,1.88,1.88,1.88H28.46c1.04,0,1.88-.84,1.88-1.88v-11.03c0-1.04-.84-1.88-1.88-1.88H9.15Z"/><polygon class="cls-1" points="10.26 28.86 16.05 23.08 20.18 27.22 26.1 21.3 27.35 22.54 20.18 29.7 16.05 25.56 11.51 30.11 10.26 28.86"/><polygon class="cls-1" points="11.03 51.4 11.03 44.13 12.79 44.13 12.79 49.64 16.55 49.64 16.55 46.89 18.31 46.89 18.31 49.64 22.06 49.64 22.06 44.13 23.82 44.13 23.82 49.64 26.58 49.64 26.58 51.4 11.03 51.4"/><rect class="cls-1" x="38.61" y="16.55" width="1.76" height="1.76"/><rect class="cls-1" x="44.13" y="16.55" width="34.85" height="1.76"/><rect class="cls-1" x="38.61" y="22.06" width="40.37" height="1.76"/><rect class="cls-1" x="38.61" y="27.58" width="7.27" height="1.76"/><rect class="cls-1" x="49.64" y="27.58" width="29.34" height="1.76"/><rect class="cls-1" x="38.61" y="33.1" width="23.82" height="1.76"/><rect class="cls-1" x="66.19" y="33.1" width="1.76" height="1.76"/><rect class="cls-1" x="71.71" y="33.1" width="1.76" height="1.76"/><rect class="cls-1" x="77.22" y="33.1" width="1.76" height="1.76"/></g></g></svg>