<?xml version="1.0" encoding="UTF-8"?><svg id="Layer_2" xmlns="http://www.w3.org/2000/svg" viewBox="0 0 87.1 88.91"><defs><style>.cls-1{fill:#6cace3;}</style></defs><g id="work"><g><path class="cls-1" d="M22.96,70.12h-5.97c-.44,0-.8,.36-.8,.8s.36,.79,.8,.79h5.97c.44,0,.79-.36,.79-.79s-.36-.8-.79-.8Z"/><path class="cls-1" d="M65.55,9.05c-5.49,0-10.49,1.72-14.29,4.53-.47-3.28-1.64-6.06-3.52-8.23-3.03-3.51-7.85-5.36-13.93-5.36-.56,0-1.14,.01-1.73,.05-6.51,.35-10.69,3.43-11.94,4.46l-.25,.06c-1.95,.25-6.48,1.56-6.48,8.21,0,3.88,.6,7.13,1.1,9.17l.14,.58-.54,.25c-1.34,.62-2.2,2.03-2.2,3.58v1.15c0,1.9,1.27,3.54,3.03,3.9,.25,.05,.5,.08,.75,.08,.03,0,.11,0,.21,0,.14,0,.32,0,.39,.04l.35,.39,.03,.17c.55,2.97,1.93,5.7,4,7.9l.2,.28v4.56h-.71c-.21,.02-.4,.1-.55,.24l-4.58,4.56-8.81,3.4C2.34,54.5-.16,58.31,0,62.48l1.24,25.66c.02,.44,.38,.76,.83,.76,.44-.02,.78-.39,.76-.83l-1.24-25.66c-.04-.88,.07-1.76,.32-2.61l.34-1.17,5.79,5.79c1.54,1.54,2.39,3.59,2.39,5.77v17.91c0,.44,.36,.8,.8,.8s.79-.36,.79-.8v-17.91c0-2.6-1.01-5.05-2.85-6.89l-6.04-6.04,.44-.51c.87-1.01,1.99-1.79,3.23-2.27l8.66-3.34,6.52,9.77c.63,.95,1.64,1.55,2.77,1.66,.13,.01,.25,.02,.38,.02,.68,0,1.36-.19,1.95-.55l1.16-.7-1.39,26.73c0,.21,.06,.41,.21,.57,.15,.16,.35,.25,.59,.26,.43,0,.77-.34,.79-.76l1.26-23.85h4.83l1.26,23.84c.02,.43,.38,.76,.83,.76,.21-.01,.41-.1,.55-.26s.22-.36,.21-.57l-1.39-26.73,1.16,.7c.59,.36,1.27,.55,1.95,.55,.13,0,.25,0,.38-.02,1.13-.11,2.14-.72,2.77-1.67l6.52-9.77,8.66,3.34c1.24,.48,2.36,1.27,3.23,2.27l.44,.51-6.04,6.04c-1.84,1.84-2.86,4.29-2.86,6.89v17.91c0,.44,.36,.8,.8,.8s.8-.36,.8-.8v-17.91c0-2.18,.85-4.23,2.39-5.77l5.79-5.79,.34,1.17c.25,.85,.36,1.73,.32,2.61l-1.24,25.66c0,.21,.07,.42,.21,.57,.14,.16,.34,.25,.54,.26h.04c.43,0,.78-.34,.79-.76l1.24-25.66c.17-4.17-2.34-7.98-6.23-9.48l-8.87-3.44-4.52-4.52c-.15-.15-.34-.23-.55-.23h-.71s.04-4.69,.04-4.69l.15-.16c1.31-1.4,2.35-3.01,3.07-4.76,.77,1.18,1.68,2.31,2.76,3.34,.06,.06,.08,.14,.06,.22l-1.53,4.94c-.27,.89,0,1.86,.7,2.47,.46,.4,1,.61,1.56,.61,.3,0,.6-.06,.9-.18l7.54-2.89s.09-.02,.13,0c2.28,.59,4.57,.89,6.79,.89,11.88,0,21.55-7.98,21.55-17.78s-9.67-17.78-21.55-17.78Zm0,33.99c-2.19,0-4.44-.31-6.7-.92-.15-.04-.33-.03-.48,.02l-7.84,3.01c-.3,.13-.59,.09-.86-.14h0c-.24-.21-.33-.54-.24-.84l1.71-5.54c.09-.29,0-.61-.23-.81-3.46-3.1-5.29-6.9-5.29-10.98,0-8.94,8.94-16.21,19.93-16.21s19.99,7.27,19.99,16.21-8.97,16.21-19.99,16.21ZM26.68,60.37c-.41,.41-.96,.64-1.54,.64-.07,0-.15,0-.22-.01-.66-.06-1.24-.42-1.6-.96l-6.57-9.86,3.49-3.49,10.74,9.39-4.29,4.29Zm-4.2-13.9v-4.81l1.12,.72c2.55,1.65,5.5,2.52,8.53,2.52s5.99-.87,8.53-2.52l1.12-.72-.06,4.94-9.59,8.39-9.65-8.52Zm7.3,16.24l.19-3.38,2.15-2.16,2.2,2.27,.14,3.27h-4.7Zm14.25-16.02l3.49,3.49-6.57,9.86c-.36,.55-.95,.9-1.6,.96-.07,0-.14,.01-.22,.01-.41,0-1.01-.11-1.54-.64l-4.28-4.28,10.74-9.39Zm-11.9-3.38c-6.81,0-12.64-4.86-13.87-11.55-.2-1.07-1.16-1.88-2.23-1.88h-.31c-.15,.01-.3,0-.44-.03-1-.2-1.75-1.21-1.75-2.34v-1.15c0-1.14,.77-2.13,1.79-2.3,.13-.02,.27-.03,.4-.03,.68,0,1.32,.31,1.74,.86,.19,.25,.44,.42,.72,.51,.14,.04,.28,.06,.42,.06,.3,0,.59-.09,.82-.26,1.16-.81,2.13-1.85,2.91-3.08,.12-.18,.15-.4,.11-.6-.05-.21-.17-.38-.35-.5-.13-.08-.27-.12-.42-.12-.27,0-.53,.14-.67,.37-.51,.81-1.13,1.52-1.83,2.12l-.48,.41-.47-.41c-.42-.38-.94-.65-1.49-.81l-.43-.21-.08-.31c-.44-1.67-1.19-5.1-1.19-9.27,0-2.74,.88-4.68,2.61-5.78,1.36-.86,2.79-.88,2.81-.88,.21,0,.4-.08,.55-.22,.04-.04,4.06-3.88,11.18-4.26,.56-.03,1.1-.05,1.64-.05,5.6,0,10,1.66,12.73,4.81,1.85,2.14,2.94,4.98,3.26,8.38-1.69,1.51-3.08,3.25-4.06,5.17l-.63-1.51c-.12-.3-.41-.49-.73-.49-.07,0-.14,.01-.2,.03-.04,.01-3.75,.96-8.31,.96-6.17,0-10.86-1.78-13.57-5.15-.15-.19-.38-.3-.62-.3-.18,0-.35,.06-.5,.18-.17,.13-.27,.32-.29,.53-.02,.21,.04,.42,.17,.58,3.83,4.77,10.17,5.77,14.83,5.77,3.22,0,6.04-.47,7.44-.75l.58-.12,.97,2.34c-.52,1.53-.82,3.14-.82,4.81,0,2.25,.54,4.46,1.54,6.54-1.8,5.84-7.22,9.94-13.47,9.94Z"/><path class="cls-1" d="M67.15,19.81c1.11,.58,1.8,1.71,1.81,2.97,0,.43,.35,.77,.77,.77s.77-.35,.77-.77c0-2.26-1.54-4.22-3.74-4.77l-.42-.1v-2.19c0-.43-.35-.77-.77-.77s-.77,.35-.77,.77v2.2l-.42,.1c-2.62,.66-4.22,3.33-3.57,5.95,.44,1.76,1.81,3.12,3.57,3.57l.42,.1v6.8l-.81-.43c-1.1-.58-1.79-1.71-1.79-2.96,0-.43-.35-.77-.77-.77s-.77,.35-.77,.77c0,2.26,1.54,4.22,3.73,4.76l.42,.1v2.2c0,.43,.35,.77,.77,.77s.77-.35,.77-.77v-2.2l.42-.1c2.63-.65,4.23-3.32,3.58-5.95-.44-1.77-1.81-3.14-3.58-3.58l-.42-.1v-6.8l.8,.42Zm-.8,14.64v-6.77l.81,.43c1.1,.58,1.78,1.72,1.79,2.96,0,1.24-.69,2.38-1.79,2.96l-.81,.43Zm-1.55-15.05v6.77l-.81-.43c-1.09-.58-1.77-1.72-1.77-2.96,0-1.24,.68-2.37,1.77-2.95l.81-.43Z"/></g></g></svg>