<?xml version="1.0" encoding="UTF-8"?><svg id="Layer_2" xmlns="http://www.w3.org/2000/svg" viewBox="0 0 86 86"><defs><style>.cls-1{fill:#6cace3;}</style></defs><g id="work"><g><path class="cls-1" d="M21.62,61.76c-1.2,0-2.31-.64-2.91-1.68l-2.65-4.59c-.93-1.6-.37-3.66,1.23-4.59l11.23-6.48-.02-.3c-.03-.37-.04-.75-.04-1.12,0-8.02,6.52-14.54,14.54-14.54,2.96,0,5.8,.88,8.22,2.54l.25,.17,4.52-2.61c.98-.56,1.11-.6,7.33-1.91,1.53-.32,3.43-.72,5.8-1.23,.17-.04,.34-.06,.51-.06,.89,0,1.67,.52,2.05,1.37,.37,.84,.22,1.75-.4,2.43l-3.92,4.36q-4.38,4.87-5.33,5.42l-4.55,2.62,.02,.3c.03,.37,.04,.75,.04,1.12,0,5.62-3.29,10.79-8.38,13.18-.11,.05-.22,.07-.33,.07-.31,0-.59-.18-.72-.46-.09-.19-.1-.41-.03-.6,.07-.2,.22-.36,.41-.45,4.42-2.07,7.35-6.56,7.47-11.44l.02-.86-19.95,11.52,.75,.41c1.91,1.05,4.01,1.59,6.22,1.59,.44,0,.79,.35,.79,.79s-.36,.79-.79,.79c-2.96,0-5.8-.88-8.22-2.54l-.25-.17-11.23,6.48c-.51,.29-1.09,.45-1.68,.45m-3.54-9.49c-.41,.24-.7,.62-.83,1.08-.12,.46-.06,.94,.18,1.35l2.65,4.59c.32,.55,.91,.89,1.54,.89,.31,0,.62-.08,.89-.24l3.03-1.75-4.43-7.67-3.03,1.75Zm31.48-13.85c.28,0,.54,.15,.69,.39,.22,.38,.09,.86-.29,1.08l-24.86,14.36,1.82,3.15,33.61-19.4-1.82-3.15-3.38,1.95c-.12,.07-.25,.11-.39,.11-.28,0-.55-.15-.69-.4-.11-.18-.13-.4-.08-.6,.05-.2,.18-.37,.37-.48l3.38-1.95-1.82-3.15L22.49,49.73l1.82,3.15,24.86-14.36c.12-.07,.26-.11,.39-.11m-6.56-8.38c-6.98,0-12.8,5.68-12.96,12.66l-.02,.86,19.95-11.52-.75-.41c-1.91-1.05-4.01-1.59-6.22-1.59m15.09-.64l-.61,.16,4.4,7.61,.44-.45,4.47-4.95-.29-.32c-.78-.87-1.39-1.92-1.75-3.04l-.13-.41s-6.46,1.38-6.53,1.4m11.35-2.43l-3.28,.7,.2,.53c.27,.72,.65,1.39,1.14,1.98l.36,.43,2.25-2.49c.21-.23,.24-.54,.09-.81-.13-.22-.34-.35-.58-.35h-.05l-.11,.02Z"/><path class="cls-1" d="M39.64,86c-.52,0-.97-.37-1.06-.89l-1.32-7.52-.33-.06c-2.02-.36-4.02-.89-5.93-1.59l-.32-.11-4.9,5.84c-.2,.25-.5,.39-.82,.39-.19,0-.38-.05-.54-.15l-5.83-3.36c-.45-.26-.65-.81-.47-1.3l2.62-7.17-.26-.22c-1.56-1.31-3.02-2.77-4.34-4.34l-.22-.26-7.17,2.62c-.12,.04-.25,.07-.37,.07-.38,0-.74-.21-.93-.54l-3.37-5.83c-.26-.45-.16-1.03,.24-1.36l5.84-4.9-.11-.32c-.7-1.92-1.23-3.91-1.58-5.93l-.06-.33-7.52-1.32c-.52-.09-.89-.54-.89-1.06v-6.73c0-.52,.37-.97,.89-1.06l7.52-1.32,.06-.33c.35-2.02,.89-4.01,1.58-5.93l.11-.32-5.84-4.9c-.4-.34-.5-.91-.24-1.36l3.37-5.83c.19-.33,.55-.54,.93-.54,.13,0,.25,.02,.37,.07l7.17,2.62,.22-.26c1.31-1.57,2.77-3.02,4.34-4.34l.26-.22-2.62-7.17c-.18-.49,.02-1.04,.47-1.3l5.83-3.37c.16-.09,.35-.14,.54-.14,.32,0,.62,.14,.82,.39l4.9,5.85,.32-.12c1.91-.7,3.91-1.23,5.93-1.59l.33-.06,1.32-7.52c.09-.52,.54-.89,1.06-.89h6.73c.52,0,.97,.37,1.06,.89l1.32,7.52,.33,.06c2.02,.36,4.02,.89,5.93,1.59l.32,.12,4.9-5.84c.21-.25,.51-.39,.82-.39,.19,0,.37,.05,.54,.14l5.83,3.37c.45,.26,.65,.81,.47,1.3l-2.62,7.17,.26,.22c1.56,1.31,3.02,2.77,4.34,4.34l.22,.26,7.17-2.62c.12-.04,.24-.07,.37-.07,.38,0,.74,.21,.93,.54l3.37,5.83c.26,.45,.16,1.03-.24,1.36l-5.84,4.9,.12,.32c.7,1.92,1.23,3.91,1.58,5.93l.06,.33,7.52,1.32c.52,.09,.89,.54,.89,1.06v6.73c0,.52-.37,.97-.89,1.06l-7.52,1.32-.06,.33c-.35,2.02-.89,4.01-1.58,5.93l-.12,.32,5.84,4.9c.4,.34,.5,.91,.24,1.36l-3.37,5.83c-.19,.33-.55,.54-.93,.54-.13,0-.25-.02-.37-.07l-7.17-2.62-.22,.26c-1.32,1.57-2.77,3.02-4.34,4.34l-.26,.22,2.62,7.17c.18,.49-.02,1.04-.47,1.3l-5.83,3.36c-.16,.09-.35,.14-.54,.14-.32,0-.62-.14-.82-.39l-4.9-5.84-.32,.11c-1.91,.7-3.91,1.23-5.93,1.59l-.33,.06-1.32,7.52c-.09,.52-.54,.89-1.06,.89h-6.73Zm-9.12-11.84c.13,0,.26,.03,.39,.07,2.23,.86,4.57,1.49,6.95,1.86,.46,.07,.82,.42,.89,.87l1.31,7.46h5.88l1.31-7.46c.08-.45,.44-.8,.89-.87,2.38-.37,4.72-.99,6.95-1.86,.12-.05,.26-.07,.39-.07,.32,0,.62,.14,.82,.38l4.86,5.8,5.09-2.94-2.6-7.12c-.16-.43-.02-.92,.34-1.2,1.87-1.51,3.58-3.22,5.09-5.09,.21-.25,.51-.4,.84-.4,.13,0,.25,.02,.37,.07l7.12,2.6,2.94-5.09-5.8-4.86c-.35-.29-.48-.78-.31-1.21,.87-2.23,1.49-4.57,1.86-6.95,.07-.45,.42-.81,.87-.89l7.46-1.31v-5.88l-7.46-1.31c-.45-.08-.81-.44-.87-.9-.37-2.38-.99-4.72-1.86-6.95-.17-.43-.04-.91,.31-1.21l5.8-4.86-2.94-5.09-7.12,2.6c-.12,.04-.24,.07-.37,.07-.33,0-.63-.15-.84-.4-1.5-1.87-3.21-3.58-5.09-5.09-.36-.29-.49-.77-.34-1.2l2.6-7.11-5.09-2.94-4.86,5.8c-.2,.24-.5,.38-.82,.38-.13,0-.26-.02-.39-.07-2.23-.87-4.57-1.49-6.95-1.86-.46-.07-.82-.42-.89-.87l-1.31-7.46h-5.88l-1.31,7.46c-.08,.45-.44,.81-.89,.87-2.38,.37-4.72,.99-6.95,1.86-.12,.05-.25,.07-.39,.07-.32,0-.62-.14-.82-.38l-4.86-5.8-5.09,2.94,2.6,7.12c.16,.43,.02,.92-.33,1.2-1.87,1.51-3.58,3.22-5.09,5.09-.21,.25-.51,.4-.84,.4-.13,0-.25-.02-.37-.07l-7.12-2.6-2.94,5.09,5.8,4.86c.35,.3,.48,.78,.31,1.21-.86,2.23-1.49,4.57-1.86,6.95-.07,.45-.42,.81-.87,.9l-7.46,1.31v5.88l7.46,1.31c.45,.08,.8,.44,.87,.9,.37,2.38,.99,4.72,1.86,6.95,.17,.43,.04,.92-.31,1.21l-5.8,4.86,2.94,5.09,7.12-2.6c.12-.04,.24-.07,.37-.07,.33,0,.63,.15,.84,.4,1.5,1.87,3.22,3.58,5.09,5.09,.36,.29,.49,.77,.33,1.2l-2.6,7.12,5.09,2.94,4.86-5.8c.2-.24,.5-.38,.82-.38"/><path class="cls-1" d="M19.15,46.34c-1.84,0-3.34-1.5-3.34-3.34,0-14.99,12.2-27.19,27.19-27.19,1.84,0,3.34,1.5,3.34,3.34s-1.5,3.34-3.34,3.34c-8.36,0-15.81,5.01-18.99,12.76-.12,.3-.41,.49-.73,.49-.1,0-.2-.02-.3-.06-.4-.17-.6-.63-.43-1.03,3.42-8.35,11.45-13.74,20.45-13.74,.97,0,1.76-.79,1.76-1.76s-.79-1.76-1.76-1.76c-14.12,0-25.61,11.49-25.61,25.61,0,.97,.79,1.76,1.76,1.76s1.76-.79,1.76-1.76c0-.75,.04-1.51,.11-2.26,.04-.4,.38-.71,.78-.71,.52,.05,.83,.44,.79,.87-.07,.69-.11,1.4-.11,2.1,0,1.84-1.5,3.34-3.34,3.34"/><path class="cls-1" d="M43,70.19c-1.84,0-3.34-1.5-3.34-3.34s1.5-3.34,3.34-3.34c11.31,0,20.51-9.2,20.51-20.51,0-1.84,1.5-3.34,3.34-3.34s3.34,1.5,3.34,3.34c0,14.99-12.2,27.19-27.19,27.19m23.85-28.95c-.97,0-1.76,.79-1.76,1.76,0,12.18-9.91,22.1-22.1,22.1-.97,0-1.76,.79-1.76,1.76s.79,1.76,1.76,1.76c14.12,0,25.61-11.49,25.61-25.61,0-.97-.79-1.76-1.76-1.76"/></g></g></svg>