<?xml version="1.0" encoding="UTF-8"?><svg id="Layer_2" xmlns="http://www.w3.org/2000/svg" viewBox="0 0 84.06 84.05"><defs><style>.cls-1{fill:#6cace3;}</style></defs><g id="work"><g><path class="cls-1" d="M55.63,29.86l-1.96,1.96-1.42-1.42,2.06-2.06-.11-.24c-.63-1.33-.43-2.89,.47-4l1.44,1.44c-.44,.68-.36,1.6,.24,2.19l1.24,1.24,1.24-1.24c.69-.69,.69-1.8,0-2.49-.71-.71-1.1-1.66-1.1-2.67s.39-1.96,1.1-2.67l2.67-2.67,1.96,1.96,1.96-1.96,1.42,1.42-2.06,2.06,.11,.24c.63,1.33,.43,2.89-.47,4l-1.44-1.44c.44-.68,.36-1.6-.24-2.19l-1.24-1.24-1.24,1.24c-.69,.69-.69,1.8,0,2.49,.71,.71,1.1,1.66,1.1,2.67s-.39,1.96-1.1,2.67l-2.67,2.67-1.96-1.96Z"/><path class="cls-1" d="M65.4,31.4c-.27,0-.52-.1-.71-.29s-.29-.44-.29-.71,.1-.52,.29-.71,.44-.29,.71-.29,.52,.1,.71,.29c.39,.39,.39,1.03,0,1.42-.19,.19-.44,.29-.71,.29Z"/><path class="cls-1" d="M53.66,19.66c-.27,0-.52-.1-.71-.29s-.29-.44-.29-.71,.1-.52,.29-.71,.44-.29,.71-.29,.52,.1,.71,.29c.39,.39,.39,1.03,0,1.42-.19,.19-.44,.29-.71,.29Z"/><path class="cls-1" d="M59.54,39.35c-3.97,0-7.69-1.54-10.49-4.34-5.79-5.79-5.79-15.2,0-20.99,2.8-2.8,6.52-4.34,10.49-4.34s7.69,1.54,10.49,4.34c5.79,5.79,5.79,15.2,0,20.99-2.8,2.8-6.52,4.34-10.49,4.34Zm0-27.65c-3.43,0-6.65,1.33-9.07,3.75-5,5-5,13.14,0,18.14,2.42,2.42,5.64,3.75,9.07,3.75s6.65-1.33,9.07-3.75c2.42-2.42,3.75-5.64,3.75-9.07,0-3.43-1.33-6.65-3.75-9.07-2.42-2.42-5.64-3.75-9.07-3.75Z"/><path class="cls-1" d="M12.89,71.17v-17.27c0-4.05,1.58-7.86,4.44-10.73,2.66-2.66,6.2-4.22,9.97-4.41l.71-.03-.42-.57c-.57-.76-.87-1.65-.87-2.58,0-1.16,.45-2.25,1.27-3.07l1.77-1.77-2.07-2.08,2.07-2.07-11.76-11.76L26.02,6.82l19.43,4.16,.14-.13C53.38,3.86,63.46,0,73.96,0h10.1V10.1c0,10.5-3.86,20.58-10.86,28.37l-.13,.14,4.16,19.43-8.02,8.02-11.76-11.76-2.07,2.08-2.08-2.08-1.77,1.77c-.82,.82-1.91,1.27-3.07,1.27-.92,0-1.82-.3-2.58-.87l-.57-.42-.03,.71c-.19,3.77-1.75,7.32-4.41,9.97-2.87,2.87-6.68,4.44-10.73,4.44H12.89Zm14.15-30.38c-3.13,.24-6.07,1.59-8.28,3.8-2.49,2.49-3.85,5.79-3.85,9.31v15.25h15.26c3.52,0,6.82-1.37,9.31-3.85,2.21-2.21,3.56-5.16,3.8-8.28l-.7-.22c-.42,.7-.91,1.33-1.44,1.86-1.82,1.82-4.24,2.83-6.82,2.83h-11.74v-11.74c0-2.58,1-5,2.82-6.82,.54-.54,1.17-1.03,1.87-1.45l-.22-.7Zm31.85,12.08l10.33,10.33,5.82-5.82-3.65-17.02-8.35,8.35,6.63,6.63-1.42,1.42-6.63-6.63-2.73,2.73Zm-27.55-10.67c-1.75,.2-3.32,.95-4.52,2.15-1.44,1.44-2.23,3.35-2.23,5.39v9.72h9.72c2.04,0,3.95-.79,5.39-2.23,1.21-1.21,1.95-2.77,2.15-4.52l.02-.18-10.35-10.35-.18,.02Zm-1.92-8.27c-.43,.43-.68,1.04-.68,1.65s.25,1.22,.68,1.65l17.41,17.41c.42,.42,1.02,.66,1.65,.66s1.23-.24,1.65-.66l1.77-1.77-20.71-20.71-1.77,1.77ZM73.96,2.01c-10.81,0-20.98,4.21-28.63,11.86l-14.8,14.8,24.86,24.86,14.8-14.8c7.65-7.65,11.86-17.82,11.86-28.63V2.01h-8.09ZM20.85,14.84l10.33,10.33,2.73-2.73-6.63-6.63,1.42-1.42,6.63,6.63,8.35-8.35-17.02-3.65-5.82,5.82Z"/><path class="cls-1" d="M1.03,84.04c-.25,0-.49-.1-.66-.27l-.1-.1c-.37-.37-.37-.96,0-1.33,.18-.18,.41-.27,.66-.27s.49,.1,.66,.27l.1,.1c.18,.18,.28,.41,.28,.66s-.1,.49-.27,.66-.41,.27-.66,.27Z"/><path class="cls-1" d="M4.85,80.23c-.25,0-.49-.1-.66-.27l-.1-.1c-.18-.18-.27-.41-.27-.66s.1-.49,.27-.66l.1-.1c.18-.18,.41-.27,.66-.27s.49,.1,.66,.27l.1,.1c.18,.18,.27,.41,.27,.66s-.1,.49-.27,.66l-.1,.1c-.18,.18-.41,.27-.66,.27Z"/><path class="cls-1" d="M8.76,76.32c-.25,0-.49-.1-.66-.27l-.1-.1c-.37-.37-.37-.96,0-1.33l.1-.1c.18-.18,.41-.27,.66-.27s.49,.1,.66,.27l.1,.1c.18,.18,.27,.41,.27,.66s-.1,.49-.27,.66l-.1,.1c-.18,.18-.41,.27-.66,.27Z"/><path class="cls-1" d="M10.71,84.04c-.25,0-.49-.1-.66-.27l-.1-.1c-.18-.18-.27-.41-.27-.66s.1-.49,.27-.66l.1-.1c.18-.18,.41-.27,.66-.27s.49,.1,.66,.27l.1,.1c.37,.37,.37,.96,0,1.33l-.1,.1c-.18,.18-.41,.27-.66,.27Z"/><path class="cls-1" d="M18.54,76.22c-.25,0-.49-.1-.66-.27l-.1-.1c-.37-.37-.37-.96,0-1.33,.18-.18,.41-.27,.66-.27s.49,.1,.66,.27l.1,.1c.18,.18,.27,.41,.27,.66s-.1,.49-.27,.66-.41,.27-.66,.27Z"/><path class="cls-1" d="M14.63,80.13c-.25,0-.49-.1-.66-.27l-.1-.1c-.18-.18-.27-.41-.27-.66s.1-.49,.27-.66l.1-.1c.18-.18,.41-.27,.66-.27s.49,.1,.66,.27l.1,.1c.18,.18,.28,.41,.28,.66s-.1,.49-.27,.66l-.1,.1c-.18,.18-.41,.27-.66,.27Z"/><path class="cls-1" d="M1.04,74.36c-.25,0-.49-.1-.66-.27l-.1-.1c-.37-.37-.37-.96,0-1.33l.1-.1c.18-.18,.41-.27,.66-.27s.49,.1,.66,.27l.1,.1c.18,.18,.27,.41,.27,.66s-.1,.49-.27,.66l-.1,.1c-.18,.18-.41,.27-.66,.27Z"/><path class="cls-1" d="M8.86,66.54c-.25,0-.49-.1-.66-.27l-.1-.1c-.36-.37-.36-.96,0-1.33,.18-.18,.41-.27,.66-.27s.49,.1,.66,.27l.1,.1c.37,.37,.37,.96,0,1.33-.18,.18-.41,.27-.66,.27Z"/><path class="cls-1" d="M4.95,70.45c-.25,0-.49-.1-.66-.27l-.1-.1c-.37-.37-.37-.96,0-1.33l.1-.1c.18-.18,.41-.27,.66-.27s.49,.1,.66,.27l.1,.1c.37,.37,.37,.96,0,1.33l-.1,.1c-.18,.18-.41,.27-.66,.27Z"/><path class="cls-1" d="M1.04,64.68c-.25,0-.49-.1-.66-.27l-.1-.1c-.37-.37-.37-.96,0-1.33l.1-.1c.18-.18,.41-.27,.66-.27s.49,.1,.66,.27l.1,.1c.18,.18,.28,.41,.28,.66s-.1,.49-.27,.66l-.1,.1c-.18,.18-.41,.27-.66,.27Z"/><path class="cls-1" d="M8.86,56.86c-.25,0-.49-.1-.66-.27l-.1-.1c-.18-.18-.27-.41-.27-.66s.1-.49,.27-.66,.41-.27,.66-.27,.49,.1,.66,.27l.1,.1c.18,.18,.27,.41,.27,.66s-.1,.49-.27,.66-.41,.27-.66,.27Z"/><path class="cls-1" d="M4.95,60.77c-.25,0-.49-.1-.66-.27l-.1-.1c-.37-.37-.37-.96,0-1.33l.1-.1c.18-.18,.41-.27,.66-.27s.49,.1,.66,.27l.1,.1c.37,.37,.37,.96,0,1.33l-.1,.1c-.18,.18-.41,.27-.66,.27Z"/><path class="cls-1" d="M28.22,76.22c-.25,0-.49-.1-.66-.27l-.1-.1c-.37-.37-.37-.96,0-1.33,.18-.18,.41-.27,.66-.27s.49,.1,.66,.27l.1,.1c.37,.37,.37,.96,0,1.33-.18,.18-.41,.27-.66,.27Z"/><path class="cls-1" d="M24.31,80.13c-.25,0-.49-.1-.66-.27l-.1-.1c-.37-.37-.37-.96,0-1.33l.1-.1c.18-.18,.41-.27,.66-.27s.49,.1,.66,.27l.1,.1c.37,.37,.37,.96,0,1.33l-.1,.1c-.18,.18-.41,.27-.66,.27Z"/><path class="cls-1" d="M20.4,84.05c-.25,0-.49-.1-.66-.27l-.1-.1c-.37-.37-.37-.96,0-1.33l.1-.1c.18-.18,.41-.27,.66-.27s.49,.1,.66,.27l.1,.1c.18,.18,.27,.41,.27,.66s-.1,.49-.27,.66l-.1,.1c-.18,.18-.41,.27-.66,.27Z"/></g></g></svg>