<?xml version="1.0" encoding="UTF-8"?><svg id="Layer_2" xmlns="http://www.w3.org/2000/svg" viewBox="0 0 101.15 81.18"><defs><style>.cls-1{fill:#6cace3;}</style></defs><g id="work"><g><path class="cls-1" d="M88.47,38.19H12.64c-.49,0-.88,.39-.88,.88v4.53c0,.49,.39,.88,.88,.88s.88-.39,.88-.88v-3.65H87.59v3.65c0,.49,.39,.88,.88,.88s.88-.39,.88-.88v-4.53c0-.49-.39-.88-.88-.88Z"/><path class="cls-1" d="M85.58,33.08H15.5c-.49,0-.88,.39-.88,.88s.39,.88,.88,.88H85.58c.49,0,.88-.39,.88-.88s-.39-.88-.88-.88Z"/><path class="cls-1" d="M82.11,27.93h-4.85V10.93s0-.04,0-.05c0-.08-.03-.16-.05-.23v-.09c-.04-.09-.1-.17-.17-.25L66.97,.28c-.07-.07-.16-.13-.25-.17h-.09c-.06-.05-.13-.09-.2-.11H24.71c-.49,0-.88,.39-.88,.88V27.93h-4.85c-.49,0-.88,.39-.88,.88s.39,.88,.88,.88h63.13c.49,0,.88-.39,.88-.88s-.39-.88-.88-.88ZM67.23,3.03l7.05,7.05h-7.05V3.03Zm8.26,24.89H25.59V1.76h39.88V10.93c0,.49,.39,.88,.88,.88h9.14V27.93h0Z"/><path class="cls-1" d="M52.41,11.23h-19.16c-.49,0-.88,.39-.88,.88s.39,.88,.88,.88h19.16c.49,0,.88-.39,.88-.88s-.39-.88-.88-.88Z"/><path class="cls-1" d="M67.84,17.88H33.24c-.49,0-.88,.39-.88,.88s.39,.88,.88,.88h34.59c.49,0,.88-.39,.88-.88s-.39-.88-.88-.88Z"/><path class="cls-1" d="M101.12,47.77c.06-.23,.02-.48-.11-.68l-14.99-23.81c-.16-.26-.45-.41-.75-.41h-3.17c-.49,0-.88,.39-.88,.88s.39,.88,.88,.88h2.65l13.95,22.1h-29.85c-.49,0-.88,.39-.88,.88v4.46H33.14v-4.46c0-.49-.39-.88-.88-.88H2.41l13.94-22.05h2.65c.49,0,.88-.39,.88-.88s-.39-.88-.88-.88h-3.13c-.3,0-.59,.15-.75,.41L.12,47.14c-.08,.14-.12,.29-.12,.45v32.71c0,.49,.39,.88,.88,.88H100.24c.49,0,.88-.39,.88-.88,0-.02,0-.04,0-.05V47.77Zm-1.76,31.6H1.73v-30.86H31.38v4.46c0,.49,.39,.88,.88,.88h36.6c.49,0,.88-.39,.88-.88v-4.46h29.62v30.86Z"/><path class="cls-1" d="M76.44,59.73h-5.6c-.49,0-.88,.39-.88,.88s.39,.88,.88,.88h1.93v4.55H28.36v-4.55h1.97c.49,0,.88-.39,.88-.88s-.39-.88-.88-.88h-5.62c-.49,0-.88,.39-.88,.88s.39,.88,.88,.88h1.89v5.43c0,.49,.39,.88,.88,.88h46.15c.49,0,.88-.39,.88-.88v-5.43h1.92c.49,0,.88-.39,.88-.88s-.39-.88-.88-.88Z"/></g></g></svg>