<?xml version="1.0" encoding="UTF-8"?><svg id="Layer_2" xmlns="http://www.w3.org/2000/svg" viewBox="0 0 81.25 81.25"><defs><style>.cls-1{fill:#6cace3;}</style></defs><g id="work"><g><path class="cls-1" d="M9.1,81.25c-5.01,0-9.09-4.09-9.1-9.1V9.1C0,4.09,4.09,0,9.1,0h63.06c5.01,0,9.09,4.09,9.1,9.1v63.06c0,5.01-4.09,9.09-9.1,9.1H9.1Zm-7.35-9.1c0,4.05,3.3,7.35,7.35,7.35h63.06c4.05,0,7.35-3.3,7.35-7.35V12.71H1.74v59.44ZM9.1,1.75c-4.05,0-7.35,3.3-7.35,7.35v1.87H79.51v-1.87c0-4.05-3.3-7.35-7.35-7.35H9.1Z"/><path class="cls-1" d="M9.1,7.23c-.48,0-.87-.39-.87-.87s.39-.87,.87-.87,.87,.39,.87,.87-.39,.87-.87,.87Z"/><path class="cls-1" d="M14.58,7.23c-.48,0-.87-.39-.87-.87s.39-.87,.87-.87,.87,.39,.87,.87-.39,.87-.87,.87Z"/><path class="cls-1" d="M20.06,7.23c-.48,0-.87-.39-.87-.87s.39-.87,.87-.87,.87,.39,.87,.87-.39,.87-.87,.87Z"/><path class="cls-1" d="M40.63,56.58c-10.3-.01-18.68-8.4-18.69-18.69,0-10.31,8.39-18.69,18.69-18.69s18.69,8.39,18.69,18.69-8.39,18.69-18.69,18.69h0Zm.87-1.72l.71-.32c1.99-.91,3.57-2.51,4.45-4.5l.22-.49-.5-.18c-1.39-.5-2.85-.82-4.33-.95l-.54-.05v6.49Zm-2.28-6.44c-1.47,.12-2.93,.44-4.33,.94l-.5,.18,.22,.49c.89,1.99,2.47,3.59,4.45,4.5l.71,.32v-6.48l-.54,.04Zm-6.9,2.12c-.35,.2-.69,.41-1.03,.64l-.63,.42,.63,.42c.67,.44,1.38,.84,2.11,1.18l1.64,.77-1.02-1.5c-.37-.55-.72-1.13-1.02-1.72l-.24-.46-.45,.25Zm15.94,.21c-.31,.59-.65,1.16-1.03,1.71l-1.03,1.5,1.65-.77c.73-.34,1.44-.74,2.12-1.18l.64-.42-.63-.42c-.34-.22-.68-.44-1.03-.64l-.45-.25-.24,.46Zm-24.5-11.45c.35,4.15,2.21,8.02,5.25,10.88l.3,.28,.33-.25c.65-.48,1.34-.92,2.05-1.3l.37-.2-.14-.4c-1.05-2.92-1.62-5.97-1.71-9.07v-.48h-6.49l.05,.54Zm27.31-.06c-.09,3.1-.67,6.15-1.71,9.06l-.14,.4,.37,.2c.71,.39,1.4,.83,2.05,1.3l.34,.25,.3-.29c3.03-2.86,4.89-6.72,5.24-10.88l.05-.54h-6.48v.48Zm-9.57,7.39l.46,.03c1.77,.13,3.51,.5,5.17,1.12l.48,.18,.17-.48c.92-2.65,1.43-5.41,1.53-8.21l.02-.52h-7.83v7.88Zm-9.56-7.36c.1,2.8,.62,5.56,1.54,8.21l.17,.48,.48-.18c1.66-.62,3.4-1,5.17-1.12l.46-.03v-7.88h-7.83l.02,.52Zm19.69-13.72c-.65,.47-1.34,.91-2.05,1.3l-.37,.21,.14,.4c1.04,2.92,1.62,5.97,1.71,9.07v.48h6.49l-.05-.54c-.35-4.15-2.21-8.01-5.24-10.88l-.3-.29-.34,.25Zm-4.49,2.43c-1.66,.62-3.4,.99-5.17,1.12l-.46,.03v7.88h7.83l-.02-.52c-.1-2.8-.62-5.56-1.54-8.21l-.17-.48-.48,.18Zm-13.66,.3c-.92,2.65-1.43,5.41-1.53,8.21l-.02,.52h7.83v-7.88l-.46-.03c-1.77-.13-3.51-.5-5.17-1.12l-.48-.18-.17,.48Zm-4.49-2.69c-3.03,2.86-4.89,6.72-5.24,10.88l-.05,.54h6.48v-.48c.1-3.1,.68-6.15,1.72-9.07l.14-.4-.37-.21c-.71-.39-1.4-.83-2.05-1.3l-.33-.25-.3,.29Zm12.51,1.8l.54-.04c1.48-.12,2.94-.44,4.33-.94l.5-.18-.22-.49c-.89-1.99-2.47-3.59-4.46-4.5l-.71-.32v6.48Zm-2.45-6.16c-1.98,.91-3.57,2.5-4.45,4.5l-.22,.49,.5,.18c1.4,.5,2.86,.82,4.33,.95l.54,.04v-6.48l-.71,.32Zm-5.65,1.34c-.73,.34-1.44,.74-2.11,1.18l-.63,.42,.63,.42c.34,.22,.68,.44,1.03,.64l.45,.26,.24-.46c.3-.59,.65-1.16,1.02-1.71l1.02-1.5-1.64,.77Zm13.84,.73c.37,.55,.72,1.12,1.03,1.71l.24,.46,.45-.25c.35-.2,.69-.41,1.03-.64l.63-.42-.63-.42c-.67-.44-1.38-.84-2.12-1.18l-1.65-.77,1.03,1.5Z"/><path class="cls-1" d="M61.19,73.04c-1.77,0-3.26-1.26-3.56-3-.3-1.74,.69-3.43,2.36-4.02l.33-.12v-.6c0-1.03-.84-1.87-1.87-1.87h-16.95v2.47l.33,.12c1.67,.59,2.66,2.28,2.36,4.02-.3,1.74-1.8,3-3.56,3s-3.26-1.26-3.56-3c-.3-1.74,.69-3.43,2.36-4.02l.33-.12v-2.47H21.43c-1.03,0-1.87,.84-1.87,1.87v.6l.33,.12c1.67,.59,2.66,2.28,2.36,4.02s-1.8,3-3.56,3-3.26-1.26-3.56-3c-.3-1.74,.69-3.43,2.36-4.02l.33-.12v-.6c0-1.99,1.62-3.61,3.61-3.61h18.32v-1.37h1.74v1.37h16.95c1.99,0,3.61,1.62,3.61,3.61v.6l.33,.12c1.66,.59,2.66,2.28,2.36,4.02-.3,1.74-1.8,3-3.56,3Zm0-5.5c-1.03,0-1.87,.84-1.87,1.87s.84,1.87,1.87,1.87,1.87-.84,1.87-1.87-.84-1.87-1.87-1.87Zm-20.56,0c-1.03,0-1.87,.84-1.87,1.87s.84,1.87,1.87,1.87,1.87-.84,1.87-1.87-.84-1.87-1.87-1.87Zm-21.93,0c-1.03,0-1.87,.84-1.87,1.87s.84,1.87,1.87,1.87,1.87-.84,1.87-1.87-.84-1.87-1.87-1.87Z"/></g></g></svg>