<?xml version="1.0" encoding="UTF-8"?><svg id="Layer_2" xmlns="http://www.w3.org/2000/svg" viewBox="0 0 101.58 101.58"><defs><style>.cls-1{fill:#6cace3;}</style></defs><g id="work"><g><path class="cls-1" d="M77.9,66.55l12.25,6.6-.1,.43c-.11,.47-.16,.89-.16,1.29,0,3.22,2.62,5.84,5.84,5.84s5.84-2.62,5.84-5.84-2.62-5.84-5.84-5.84c-1.64,0-3.21,.72-4.33,1.96l-.3,.34-12.23-6.58c.17-.35,.34-.7,.5-1.05,1.79-3.94,2.79-8.31,2.79-12.91s-1-8.97-2.79-12.91c-.16-.35-.32-.7-.5-1.05l12.23-6.58,.3,.34c1.12,1.25,2.7,1.96,4.33,1.96,3.22,0,5.84-2.62,5.84-5.84s-2.62-5.84-5.84-5.84-5.84,2.62-5.84,5.84c0,.4,.05,.83,.16,1.29l.1,.43-12.25,6.6c-.2-.33-.4-.66-.6-.99-5.2-8.2-14.09-13.83-24.32-14.53-.38-.03-.77-.05-1.16-.06v-7.86l.43-.11c2.58-.67,4.38-2.99,4.38-5.63,0-3.22-2.62-5.84-5.84-5.84s-5.84,2.62-5.84,5.84c0,2.65,1.8,4.96,4.38,5.63l.43,.11v7.86c-.39,.01-.77,.03-1.16,.06-10.23,.71-19.12,6.34-24.32,14.53-.21,.33-.41,.66-.6,.99l-12.25-6.6,.1-.43c.11-.47,.16-.89,.16-1.29,0-3.22-2.62-5.84-5.84-5.84S0,23.49,0,26.71s2.62,5.84,5.84,5.84c1.64,0,3.21-.72,4.33-1.96l.3-.34,12.23,6.58c-.17,.35-.34,.7-.5,1.05-1.79,3.94-2.79,8.31-2.79,12.91s1,8.97,2.79,12.91c.16,.35,.32,.7,.5,1.05l-12.23,6.58-.3-.34c-1.12-1.25-2.7-1.96-4.33-1.96-3.22,0-5.84,2.62-5.84,5.84s2.62,5.84,5.84,5.84,5.84-2.62,5.84-5.84c0-.4-.05-.83-.16-1.29l-.1-.43,12.25-6.6c.2,.33,.4,.66,.6,.99,5.2,8.2,14.09,13.83,24.32,14.53,.38,.03,.77,.05,1.16,.06v7.86l-.43,.11c-2.58,.67-4.38,2.99-4.38,5.63,0,3.22,2.62,5.84,5.84,5.84s5.84-2.62,5.84-5.84c0-2.65-1.8-4.96-4.38-5.63l-.43-.11v-7.86c.39-.01,.77-.03,1.16-.06,10.23-.71,19.12-6.34,24.32-14.53,.21-.33,.41-.66,.6-.99Zm17.84,4.53c2.09,0,3.79,1.7,3.79,3.79s-1.7,3.79-3.79,3.79-3.79-1.7-3.79-3.79,1.7-3.79,3.79-3.79Zm0-48.16c2.09,0,3.79,1.7,3.79,3.79s-1.7,3.79-3.79,3.79-3.79-1.7-3.79-3.79,1.7-3.79,3.79-3.79ZM5.84,30.5c-2.09,0-3.79-1.7-3.79-3.79s1.7-3.79,3.79-3.79,3.79,1.7,3.79,3.79-1.7,3.79-3.79,3.79Zm0,48.16c-2.09,0-3.79-1.7-3.79-3.79s1.7-3.79,3.79-3.79,3.79,1.7,3.79,3.79-1.7,3.79-3.79,3.79Zm15.32-27.87c0-16.34,13.29-29.63,29.63-29.63s29.63,13.29,29.63,29.63-13.29,29.63-29.63,29.63-29.63-13.29-29.63-29.63ZM47,5.84c0-2.09,1.7-3.79,3.79-3.79s3.79,1.7,3.79,3.79-1.7,3.79-3.79,3.79-3.79-1.7-3.79-3.79Zm7.58,89.9c0,2.09-1.7,3.79-3.79,3.79s-3.79-1.7-3.79-3.79,1.7-3.79,3.79-3.79,3.79,1.7,3.79,3.79Z"/><path class="cls-1" d="M62.26,37.24h-3.88c-.4,0-.72,.32-.72,.72s.32,.72,.72,.72h3.88c.4,0,.72-.32,.72-.72s-.32-.72-.72-.72Z"/><path class="cls-1" d="M62.26,48.55h-3.88c-.4,0-.72,.32-.72,.72s.32,.72,.72,.72h3.88c.4,0,.72-.32,.72-.72s-.32-.72-.72-.72Z"/><path class="cls-1" d="M62.26,59.87h-3.88c-.4,0-.72,.32-.72,.72s.32,.72,.72,.72h3.88c.4,0,.72-.32,.72-.72s-.32-.72-.72-.72Z"/><path class="cls-1" d="M37.6,36.07c-.4,0-.72,.32-.72,.72v2.44c0,.4,.32,.72,.72,.72s.72-.32,.72-.72v-2.44c0-.4-.32-.72-.72-.72Z"/><path class="cls-1" d="M40.67,36.07c-.4,0-.72,.32-.72,.72v2.44c0,.4,.32,.72,.72,.72s.72-.32,.72-.72v-2.44c0-.4-.32-.72-.72-.72Z"/><path class="cls-1" d="M43.74,36.07c-.4,0-.72,.32-.72,.72v2.44c0,.4,.32,.72,.72,.72s.72-.32,.72-.72v-2.44c0-.4-.32-.72-.72-.72Z"/><path class="cls-1" d="M46.81,36.07c-.4,0-.72,.32-.72,.72v2.44c0,.4,.32,.72,.72,.72s.72-.32,.72-.72v-2.44c0-.4-.32-.72-.72-.72Z"/><path class="cls-1" d="M37.6,47.33c-.4,0-.72,.32-.72,.72v2.44c0,.4,.32,.72,.72,.72s.72-.32,.72-.72v-2.44c0-.4-.32-.72-.72-.72Z"/><path class="cls-1" d="M40.67,47.33c-.4,0-.72,.32-.72,.72v2.44c0,.4,.32,.72,.72,.72s.72-.32,.72-.72v-2.44c0-.4-.32-.72-.72-.72Z"/><path class="cls-1" d="M43.74,47.33c-.4,0-.72,.32-.72,.72v2.44c0,.4,.32,.72,.72,.72s.72-.32,.72-.72v-2.44c0-.4-.32-.72-.72-.72Z"/><path class="cls-1" d="M46.81,47.33c-.4,0-.72,.32-.72,.72v2.44c0,.4,.32,.72,.72,.72s.72-.32,.72-.72v-2.44c0-.4-.32-.72-.72-.72Z"/><path class="cls-1" d="M37.6,58.6c-.4,0-.72,.32-.72,.72v2.44c0,.4,.32,.72,.72,.72s.72-.32,.72-.72v-2.44c0-.4-.32-.72-.72-.72Z"/><path class="cls-1" d="M40.67,58.6c-.4,0-.72,.32-.72,.72v2.44c0,.4,.32,.72,.72,.72s.72-.32,.72-.72v-2.44c0-.4-.32-.72-.72-.72Z"/><path class="cls-1" d="M43.74,58.6c-.4,0-.72,.32-.72,.72v2.44c0,.4,.32,.72,.72,.72s.72-.32,.72-.72v-2.44c0-.4-.32-.72-.72-.72Z"/><path class="cls-1" d="M46.81,58.6c-.4,0-.72,.32-.72,.72v2.44c0,.4,.32,.72,.72,.72s.72-.32,.72-.72v-2.44c0-.4-.32-.72-.72-.72Z"/><path class="cls-1" d="M63.7,68.77v-3.37h3.07c.4,0,.72-.32,.72-.72v-8.18c0-.4-.32-.72-.72-.72h-3.07v-1.69h3.07c.4,0,.72-.32,.72-.72v-8.18c0-.4-.32-.72-.72-.72h-3.07v-1.69h3.07c.4,0,.72-.32,.72-.72v-8.18c0-.4-.32-.72-.72-.72H34.26c-.4,0-.72,.32-.72,.72v8.18c0,.4,.32,.72,.72,.72h3.07v1.69h-3.07c-.4,0-.72,.32-.72,.72v8.18c0,.4,.32,.72,.72,.72h3.07v1.69h-3.07c-.4,0-.72,.32-.72,.72v8.18c0,.4,.32,.72,.72,.72h3.07v3.37c0,.4,.32,.72,.72,.72h24.93c.4,0,.72-.32,.72-.72Zm-28.72-27.44v-6.74h31.07v6.74h-31.07Zm3.79,1.44h23.48v1.69h-23.48v-1.69Zm-3.79,9.87v-6.74h31.07v6.74h-31.07Zm3.79,1.45h23.48v1.69h-23.48v-1.69Zm-3.79,9.87v-6.74h31.07v6.74h-31.07Zm27.27,4.09h-23.48v-2.65h23.48v2.65Z"/></g></g></svg>