<?xml version="1.0" encoding="UTF-8"?><svg id="Layer_2" xmlns="http://www.w3.org/2000/svg" viewBox="0 0 86.76 86.76"><defs><style>.cls-1{fill:#6cace3;}</style></defs><g id="work"><g><path class="cls-1" d="M67.3,43.21v-.1c-.05-5.03-1.69-9.91-4.7-13.94h0c-4.47-6.05-11.52-9.64-19.04-9.72-.06-.02-.13-.04-.19-.04-.05,0-.1,0-.16,0h-.11c-13.05,.15-23.58,10.73-23.66,23.78-.02,.06-.04,.12-.04,.18,0,.05,0,.11,0,.16v.1c.15,13.06,10.73,23.59,23.79,23.66,.06,0,.11,0,.17,0,.05,0,.1,0,.15,0h.12c13.03-.14,23.55-10.7,23.66-23.73,.02-.06,.04-.13,.04-.19,0-.06-.02-.11-.04-.16Zm-5.47,13.15c-1.85-.45-3.81-.83-5.86-1.13,1.22-3.6,1.86-7.37,1.9-11.17h8.06c-.13,4.42-1.55,8.7-4.1,12.3Zm-41.01-12.3h8.06c.04,3.8,.67,7.58,1.87,11.19-2.05,.31-3.96,.68-5.79,1.15-2.57-3.61-4.01-7.91-4.14-12.34Zm4.1-13.67c1.85,.45,3.81,.83,5.85,1.14-1.21,3.6-1.85,7.36-1.89,11.16h-8.06c.13-4.4,1.56-8.67,4.1-12.27v-.03Zm19.14,2.05c3.52-.03,7.04-.27,10.53-.73,1.22,3.54,1.87,7.24,1.91,10.98h-12.45v-10.25Zm0-1.37v-10.25c2.2,.27,4.23,1.29,5.76,2.89,1.86,1.91,3.31,4.19,4.27,6.68-3.33,.42-6.67,.65-10.03,.68Zm-1.37,0c-3.37-.01-6.73-.22-10.07-.64,2.25-5.52,5.9-9.22,10.07-9.62v10.25Zm0,1.37v10.25h-12.45c.04-3.72,.67-7.41,1.87-10.94,3.51,.45,7.04,.68,10.57,.68Zm-12.45,11.62h12.45v10.25c-3.52,.03-7.04,.27-10.53,.73-1.22-3.54-1.87-7.24-1.91-10.98Zm12.45,11.62v10.25c-2.2-.27-4.23-1.29-5.76-2.89-1.86-1.91-3.31-4.19-4.27-6.68,3.33-.42,6.67-.65,10.03-.68Zm1.37,0c3.37,.01,6.73,.22,10.07,.64-2.25,5.52-5.9,9.22-10.07,9.62v-10.25Zm0-1.37v-10.25h12.45c-.04,3.72-.67,7.41-1.87,10.94-3.51-.44-7.04-.67-10.57-.68Zm13.81-11.62c-.04-3.8-.67-7.58-1.87-11.19,2.05-.31,3.96-.68,5.79-1.15,2.55,3.61,3.98,7.89,4.1,12.3l-8.02,.03Zm3.01-13.53c-1.71,.4-3.5,.75-5.37,1.03-1.04-2.78-2.66-5.31-4.74-7.44-.41-.4-.84-.77-1.3-1.11,4.48,1.27,8.47,3.89,11.41,7.51h0Zm-23.57-7.52c-2.47,1.89-4.58,4.89-6.06,8.61-1.89-.27-3.71-.62-5.47-1.03,2.96-3.67,6.99-6.33,11.53-7.59h0Zm-11.45,35.95c1.71-.4,3.5-.75,5.37-1.03,1.04,2.78,2.66,5.31,4.74,7.44,.41,.39,.84,.76,1.29,1.1-4.48-1.27-8.46-3.89-11.4-7.51Zm23.57,7.52c2.47-1.89,4.58-4.89,6.06-8.61,1.89,.27,3.71,.62,5.47,1.03-2.96,3.67-6.99,6.33-11.53,7.59h0Z"/><path class="cls-1" d="M81.47,38.07c-.46,0-.92,.07-1.37,.19l-7.15-17.21c2.54-1.45,3.43-4.68,1.98-7.22-.24-.42-.53-.8-.87-1.13-2.06-2.07-5.42-2.08-7.49-.02-.34,.34-.63,.72-.87,1.13l-17.21-7.12c.12-.45,.19-.9,.19-1.37,0-2.93-2.38-5.31-5.31-5.31s-5.31,2.38-5.31,5.31c0,.46,.07,.92,.19,1.37l-17.21,7.12c-.23-.41-.52-.78-.85-1.11-2.08-2.08-5.44-2.08-7.52,0-2.08,2.08-2.08,5.44,0,7.52,.33,.33,.71,.62,1.12,.85l-7.12,17.2c-.45-.12-.9-.19-1.37-.19C2.37,38.07,0,40.45,0,43.38c0,2.93,2.38,5.31,5.31,5.31,.46,0,.92-.07,1.37-.19l7.12,17.21c-.41,.23-.78,.52-1.11,.85-2.08,2.08-2.08,5.44,0,7.52,2.08,2.08,5.44,2.08,7.52,0,.33-.33,.62-.71,.85-1.11l17.21,7.12c-.12,.45-.19,.9-.19,1.37,0,2.93,2.37,5.31,5.31,5.31,2.93,0,5.31-2.37,5.31-5.31h0c0-.47-.07-.93-.19-1.37l17.21-7.12c.23,.41,.52,.78,.85,1.11,2.08,2.08,5.44,2.08,7.52,0,2.08-2.08,2.08-5.44,0-7.52-.33-.33-.71-.62-1.11-.85l7.12-17.21c.45,.12,.9,.19,1.37,.19,2.93,0,5.31-2.38,5.31-5.31s-2.38-5.31-5.31-5.31h.01Zm-11.16-25.57c2.18,0,3.95,1.78,3.94,3.96,0,1.04-.42,2.04-1.15,2.78-.37,.36-.81,.65-1.29,.85h0c-.47,.2-.98,.3-1.5,.3-2.18,0-3.95-1.76-3.96-3.94,0-.52,.1-1.04,.3-1.53h0c.2-.48,.49-.91,.85-1.28,.74-.74,1.75-1.15,2.8-1.15ZM43.37,1.34c2.18,0,3.94,1.77,3.94,3.94s-1.77,3.94-3.94,3.94-3.94-1.77-3.94-3.94c0-2.18,1.77-3.94,3.94-3.94ZM12.49,16.44c0-2.18,1.78-3.95,3.96-3.94,1.04,0,2.04,.42,2.78,1.15,.36,.37,.65,.8,.85,1.28h0c.2,.47,.3,.98,.3,1.5,0,2.18-1.76,3.95-3.94,3.95,0,0,0,0-.01,0-.51,0-1.02-.1-1.5-.3h0c-.48-.2-.91-.49-1.29-.85-.74-.74-1.16-1.74-1.16-2.78ZM1.34,43.38c0-2.18,1.77-3.94,3.94-3.94,2.18,0,3.94,1.77,3.94,3.94s-1.77,3.94-3.94,3.94h0c-2.18,0-3.94-1.77-3.94-3.94Zm15.1,30.88c-2.18,0-3.95-1.78-3.94-3.96,0-1.04,.42-2.04,1.15-2.78,.37-.36,.8-.65,1.28-.85h0c.47-.2,.98-.3,1.5-.3,2.18,0,3.95,1.76,3.95,3.94,0,0,0,0,0,.01,0,.51-.1,1.02-.3,1.5h0c-.2,.48-.49,.91-.85,1.28-.73,.74-1.74,1.17-2.78,1.17Zm26.94,11.16c-2.18,0-3.94-1.77-3.94-3.94,0-2.18,1.77-3.94,3.94-3.94s3.94,1.77,3.94,3.94h0c0,2.18-1.77,3.94-3.94,3.94Zm30.88-15.1c0,2.18-1.78,3.95-3.96,3.94-1.04,0-2.04-.42-2.78-1.15-.36-.37-.65-.8-.85-1.28h0c-.19-.48-.29-.98-.29-1.5,0-2.18,1.76-3.95,3.94-3.95,0,0,0,0,.01,0,.51,0,1.02,.1,1.5,.3h0c.48,.2,.91,.49,1.28,.85,.74,.74,1.16,1.74,1.16,2.78Zm-2.57-5.13c-.45-.12-.91-.18-1.37-.18-2.93,0-5.31,2.38-5.31,5.31,0,.47,.06,.93,.18,1.38l-17.22,7.13c-1.46-2.54-4.7-3.41-7.23-1.95-.81,.47-1.49,1.14-1.95,1.95l-17.22-7.13c.77-2.82-.9-5.73-3.72-6.5-.91-.25-1.87-.25-2.78,0l-7.13-17.22c2.54-1.46,3.41-4.7,1.95-7.23-.47-.81-1.14-1.49-1.95-1.95l7.13-17.22c.45,.12,.91,.18,1.37,.18,2.93,0,5.3-2.36,5.31-5.28,0-.47-.06-.94-.18-1.4l17.22-7.13c1.46,2.54,4.7,3.41,7.23,1.95,.81-.47,1.49-1.14,1.95-1.95l17.22,7.13c-.76,2.83,.92,5.75,3.75,6.51,.45,.12,.91,.18,1.38,.18,.46,0,.92-.07,1.37-.18l7.13,17.21c-2.54,1.46-3.41,4.7-1.95,7.23,.47,.81,1.14,1.49,1.95,1.95l-7.12,17.21Zm9.78-17.86c-2.18,0-3.94-1.77-3.94-3.94s1.77-3.94,3.94-3.94c2.18,0,3.94,1.77,3.94,3.94,0,2.18-1.77,3.94-3.94,3.94h0Z"/><path class="cls-1" d="M24.1,61.68l-3.24,3.24c-.27,.27-.27,.7,0,.96,.27,.27,.7,.27,.96,0l3.24-3.24c.25-.29,.21-.72-.07-.96-.26-.22-.63-.22-.89,0Z"/><path class="cls-1" d="M62.16,25.27c.18,0,.35-.07,.48-.2l3.24-3.24c.25-.29,.21-.72-.07-.96-.26-.22-.63-.22-.89,0l-3.24,3.24c-.27,.27-.27,.7,0,.96,.13,.13,.3,.2,.49,.2Z"/><path class="cls-1" d="M24.1,25.07c.27,.27,.7,.27,.96,0,.27-.27,.27-.7,0-.96l-3.24-3.24c-.29-.25-.72-.21-.96,.07-.22,.26-.22,.63,0,.89l3.24,3.24Z"/><path class="cls-1" d="M62.64,61.68c-.29-.25-.72-.21-.96,.07-.22,.26-.22,.63,0,.89l3.24,3.24c.27,.27,.7,.27,.96,0,.27-.27,.27-.7,0-.96l-3.24-3.24Z"/><path class="cls-1" d="M16.8,42.69h-4.58c-.38,0-.68,.31-.68,.68s.31,.68,.68,.68h4.58c.38,0,.68-.31,.68-.68s-.31-.68-.68-.68Z"/><path class="cls-1" d="M74.52,42.69h-4.58c-.38,0-.68,.31-.68,.68s.31,.68,.68,.68h4.58c.38,0,.68-.31,.68-.68s-.31-.68-.68-.68Z"/><path class="cls-1" d="M43.37,17.49c.38,0,.68-.31,.68-.68v-4.58c0-.38-.31-.68-.68-.68s-.68,.31-.68,.68v4.58c0,.38,.31,.68,.68,.68Z"/><path class="cls-1" d="M43.37,69.26c-.38,0-.68,.31-.68,.68v4.58c0,.38,.31,.68,.68,.68s.68-.31,.68-.68v-4.58c0-.38-.31-.68-.68-.68Z"/></g></g></svg>