<?xml version="1.0" encoding="UTF-8"?><svg id="Layer_2" xmlns="http://www.w3.org/2000/svg" viewBox="0 0 46.63 84.8"><defs><style>.cls-1{fill:#6cace3;}</style></defs><g id="work"><g><path class="cls-1" d="M23.32,84.8c-11.18,0-20.27-9.09-20.27-20.27,0-8.04,4.77-15.33,12.16-18.57l.29-.12v-8.06H6.72c-1.26,0-2.29-1.03-2.29-2.29v-2.77c0-1.26,1.03-2.29,2.29-2.29h1.58L0,0H18.48l4.84,17.75L28.16,0h18.48l-8.3,30.43h1.58c1.26,0,2.29,1.03,2.29,2.29v2.77c0,1.26-1.03,2.29-2.29,2.29h-8.77v8.06l.28,.12c7.39,3.24,12.16,10.53,12.16,18.57,0,11.18-9.09,20.27-20.27,20.27Zm0-38.73c-10.18,0-18.46,8.28-18.46,18.46s8.28,18.46,18.46,18.46,18.46-8.28,18.46-18.46-8.28-18.46-18.46-18.46Zm0-1.81c1.78,0,3.6,.25,5.41,.75l.6,.17v-7.41h-12.02v7.41l.6-.17c1.8-.5,3.62-.75,5.4-.75ZM6.24,35.96H40.39v-3.72H6.24v3.72Zm26.56-5.53h3.65L44.26,1.81h-3.65l-7.81,28.62Zm-5.53,0h3.65L38.73,1.81h-3.65l-7.8,28.62Zm-5.53,0h3.65L33.19,1.81h-3.65l-7.8,28.62Zm-6.03,0h3.65L11.56,1.81h-3.65l7.8,28.62Zm-5.53,0h3.65L6.03,1.81H2.38l7.81,28.62Zm10.37-2.54l1.82-6.67L17.09,1.81h-3.65l7.11,26.08Z"/><path class="cls-1" d="M23.32,79.27c-8.13,0-14.74-6.61-14.74-14.74s6.61-14.74,14.74-14.74,14.74,6.61,14.74,14.74-6.61,14.74-14.74,14.74Zm0-27.66c-7.13,0-12.92,5.8-12.92,12.92s5.8,12.92,12.92,12.92,12.92-5.8,12.92-12.92-5.8-12.92-12.92-12.92Z"/></g></g></svg>