<?xml version="1.0" encoding="UTF-8"?><svg id="Layer_2" xmlns="http://www.w3.org/2000/svg" viewBox="0 0 99.45 76.57"><defs><style>.cls-1{fill:#6cace3;}</style></defs><g id="work"><g><path class="cls-1" d="M42.6,13.26c2.4,0,4.49-1.28,5.66-3.19l20.34,8.81c.11,.05,.23,.07,.35,.07,.34,0,.66-.2,.8-.53,.19-.44-.01-.96-.45-1.15l-20.32-8.81c.17-.58,.27-1.2,.27-1.84,0-3.66-2.97-6.63-6.63-6.63s-6.63,2.97-6.63,6.63,2.97,6.63,6.63,6.63Zm0-11.51c2.69,0,4.88,2.19,4.88,4.88s-2.19,4.88-4.88,4.88-4.88-2.19-4.88-4.88,2.19-4.88,4.88-4.88Z"/><path class="cls-1" d="M78.57,29.09c3.66,0,6.63-2.97,6.63-6.63s-2.97-6.63-6.63-6.63-6.63,2.97-6.63,6.63,2.97,6.63,6.63,6.63Zm0-11.51c2.69,0,4.88,2.19,4.88,4.88s-2.19,4.88-4.88,4.88-4.88-2.19-4.88-4.88,2.19-4.88,4.88-4.88Z"/><path class="cls-1" d="M78.57,47.48c-3.66,0-6.63,2.97-6.63,6.63s2.97,6.63,6.63,6.63,6.63-2.97,6.63-6.63-2.97-6.63-6.63-6.63Zm0,11.51c-2.69,0-4.88-2.19-4.88-4.88s2.19-4.88,4.88-4.88,4.88,2.19,4.88,4.88-2.19,4.88-4.88,4.88Z"/><path class="cls-1" d="M35.64,12.75c-.32-.36-.87-.4-1.23-.08l-9.79,8.62L12.14,10.31c.55-.82,.92-1.78,1.06-2.81h18.94c.48,0,.88-.39,.88-.88s-.39-.88-.88-.88H13.2c-.43-3.24-3.21-5.75-6.57-5.75C2.97,0,0,2.97,0,6.63s2.97,6.63,6.63,6.63c1.66,0,3.18-.62,4.35-1.64l12.31,10.83-12.31,10.84c-1.17-1.02-2.68-1.64-4.35-1.64-3.66,0-6.63,2.97-6.63,6.63s2.97,6.63,6.63,6.63c1.66,0,3.18-.62,4.35-1.64l12.31,10.83-12.31,10.83c-1.17-1.02-2.68-1.64-4.35-1.64-3.66,0-6.63,2.97-6.63,6.63s2.97,6.63,6.63,6.63c3.36,0,6.14-2.51,6.57-5.75h18.94c.48,0,.88-.39,.88-.88s-.39-.88-.88-.88H13.2c-.14-1.03-.5-1.98-1.06-2.81l12.48-10.98,9.79,8.62c.17,.15,.37,.22,.58,.22,.24,0,.48-.1,.66-.3,.32-.36,.28-.92-.08-1.24l-9.62-8.47,9.62-8.47c.36-.32,.4-.87,.08-1.24-.32-.36-.87-.4-1.23-.08l-9.79,8.62-12.48-10.98c.55-.82,.92-1.78,1.06-2.81h18.94c.48,0,.88-.39,.88-.88s-.39-.88-.88-.88H13.2c-.14-1.03-.5-1.98-1.06-2.81l12.48-10.98,9.79,8.62c.17,.15,.37,.22,.58,.22,.24,0,.48-.1,.66-.3,.32-.36,.28-.92-.08-1.24l-9.62-8.47,9.62-8.47c.36-.32,.4-.87,.08-1.24ZM1.75,6.63C1.75,3.94,3.94,1.75,6.63,1.75s4.88,2.19,4.88,4.88-2.19,4.88-4.88,4.88S1.75,9.32,1.75,6.63ZM6.63,74.82c-2.69,0-4.88-2.19-4.88-4.88s2.19-4.88,4.88-4.88,4.88,2.19,4.88,4.88-2.19,4.88-4.88,4.88ZM1.75,38.28c0-2.69,2.19-4.88,4.88-4.88s4.88,2.19,4.88,4.88-2.19,4.88-4.88,4.88-4.88-2.19-4.88-4.88Z"/><path class="cls-1" d="M68.59,57.5l-20.33,8.99c-1.17-1.91-3.26-3.19-5.65-3.19-3.66,0-6.63,2.97-6.63,6.63s2.97,6.63,6.63,6.63,6.63-2.97,6.63-6.63c0-.64-.1-1.26-.27-1.85l20.33-8.99c.44-.2,.64-.71,.45-1.15s-.71-.64-1.15-.45Zm-25.99,17.32c-2.69,0-4.88-2.19-4.88-4.88s2.19-4.88,4.88-4.88,4.88,2.19,4.88,4.88-2.19,4.88-4.88,4.88Z"/><path class="cls-1" d="M69.3,49.12l-20.33-8.99c.17-.59,.27-1.2,.27-1.85s-.1-1.26-.27-1.85l20.33-8.99c.44-.2,.64-.71,.45-1.15-.2-.44-.71-.65-1.15-.45l-20.33,8.99c-1.17-1.91-3.26-3.18-5.65-3.18-3.66,0-6.63,2.97-6.63,6.63s2.97,6.63,6.63,6.63c2.39,0,4.49-1.28,5.65-3.18l20.33,8.99c.12,.05,.24,.08,.35,.08,.34,0,.66-.19,.8-.52,.2-.44,0-.96-.45-1.15Zm-26.69-5.96c-2.69,0-4.88-2.19-4.88-4.88s2.19-4.88,4.88-4.88,4.88,2.19,4.88,4.88-2.19,4.88-4.88,4.88Z"/><path class="cls-1" d="M99.19,37.67l-6.73-6.73c-.34-.34-.9-.34-1.24,0s-.34,.9,0,1.24l5.23,5.23h-30.56c-.48,0-.88,.39-.88,.88s.39,.88,.88,.88h30.56l-5.23,5.23c-.34,.34-.34,.9,0,1.24,.17,.17,.39,.26,.62,.26s.45-.08,.62-.26l6.73-6.73c.34-.34,.34-.9,0-1.24Z"/></g></g></svg>