<?xml version="1.0" encoding="UTF-8"?><svg id="Layer_2" xmlns="http://www.w3.org/2000/svg" viewBox="0 0 88 61.4"><defs><style>.cls-1{fill:#6cace3;}</style></defs><g id="work"><g><path class="cls-1" d="M44.55,42.1H28.03c-.4,0-.72,.32-.72,.72s.32,.72,.72,.72h16.52c.4,0,.72-.32,.72-.72s-.32-.72-.72-.72Z"/><path class="cls-1" d="M44.55,37.29H28.03c-.4,0-.72,.32-.72,.72s.32,.72,.72,.72h16.52c.4,0,.72-.32,.72-.72s-.32-.72-.72-.72Z"/><path class="cls-1" d="M34.85,46.92h-6.82c-.4,0-.72,.32-.72,.72s.32,.72,.72,.72h6.82c.4,0,.72-.32,.72-.72s-.32-.72-.72-.72Z"/><path class="cls-1" d="M67.24,40.53c-.11-.12-.26-.19-.42-.21l-5.04-.72-2.25-4.55c-.12-.25-.37-.4-.64-.4-.28,0-.53,.16-.65,.4l-2.25,4.55-5.04,.72c-.39,.06-.67,.42-.61,.82,.02,.16,.1,.3,.21,.42l3.73,3.58-.86,5.04c-.04,.4,.24,.75,.64,.8,.14,.02,.28-.01,.41-.07l4.5-2.36,4.5,2.36c.1,.06,.22,.09,.33,.09,.14,0,.27-.05,.39-.12,.23-.16,.34-.44,.29-.72l-.86-5.04,3.6-3.55c.29-.28,.29-.73,.02-1.02Zm-4.89,3.83c-.17,.17-.24,.41-.2,.64l.68,3.94-3.55-1.86c-.21-.11-.46-.11-.67,0l-3.54,1.86,.68-3.94c.04-.23-.04-.46-.21-.63l-2.88-2.8,3.99-.58c.23-.03,.43-.18,.54-.39l1.77-3.6,1.77,3.6c.11,.21,.31,.36,.55,.39l3.96,.58-2.88,2.79Z"/><path class="cls-1" d="M67.18,29.43H12.82c-3.12,0-5.65,2.54-5.66,5.66v15.59c0,3.12,2.53,5.66,5.66,5.66h54.36c3.12,0,5.65-2.54,5.66-5.66v-15.59c0-3.12-2.53-5.66-5.66-5.66Zm4.22,21.26c0,2.33-1.89,4.22-4.22,4.22H20.95c0-.06,0-.13,0-.19v-1.53c0-.4-.32-.72-.72-.72s-.72,.32-.72,.72v1.53c0,.06,.02,.13,.04,.19h-6.72c-2.33,0-4.21-1.9-4.22-4.22v-15.59c0-2.33,1.89-4.22,4.22-4.22h6.78c-.02,.06-.03,.12-.04,.19v1.53c0,.4,.32,.72,.72,.72s.72-.32,.72-.72v-1.53c0-.06,0-.13,0-.19h46.17c2.33,0,4.21,1.9,4.22,4.22v15.59Z"/><path class="cls-1" d="M20.29,46.93c-.4,0-.72,.32-.72,.72v1.53c0,.4,.32,.72,.72,.72s.72-.32,.72-.72v-1.53c0-.4-.32-.72-.72-.72Z"/><path class="cls-1" d="M20.29,41.4c-.4,0-.72,.32-.72,.72v1.53c0,.4,.32,.72,.72,.72s.72-.32,.72-.72v-1.53c0-.4-.32-.72-.72-.72Z"/><path class="cls-1" d="M20.29,35.87c-.4,0-.72,.32-.72,.72v1.53c0,.4,.32,.72,.72,.72s.72-.32,.72-.72v-1.53c0-.4-.32-.72-.72-.72Z"/><path class="cls-1" d="M14.28,37.3c-.4,0-.72,.32-.72,.72v9.74c0,.4,.32,.72,.72,.72s.72-.32,.72-.72v-9.74c0-.4-.32-.72-.72-.72Z"/><path class="cls-1" d="M27.26,19.81s-.03,0-.04,0c-.39-.09-.77,.15-.86,.54,0,0,0,0,0,0l-.36,1.5c-.09,.39,.15,.77,.54,.86,0,0,0,0,0,0l.17,.04c.34,0,.65-.23,.72-.56l.33-1.5c.1-.38-.12-.78-.51-.88Z"/><path class="cls-1" d="M28.41,14.4c-.39-.08-.77,.16-.86,.55l-.33,1.5c-.08,.39,.16,.77,.55,.86,.05,0,.1,0,.15,0,.35,0,.65-.23,.72-.57l.33-1.5c.07-.38-.18-.76-.56-.84Z"/><path class="cls-1" d="M87.44,20.73c-2.15-.51-3.5-2.66-3.03-4.82,.04-.19,0-.39-.1-.55-.1-.16-.26-.27-.45-.32L16.46,.02c-.39-.08-.77,.16-.86,.55-.49,2.19-2.66,3.56-4.84,3.08-.39-.08-.77,.16-.86,.55l-.48,2.28c-.05,.28,.06,.56,.3,.72,.61,.42,.76,1.26,.34,1.88-.21,.3-.52,.5-.88,.56-.29,.05-.52,.27-.58,.55l-.43,1.94c-.05,.28,.06,.56,.3,.72,.61,.42,.77,1.25,.35,1.86-.21,.3-.53,.51-.89,.57-.29,.05-.52,.27-.58,.55l-.43,1.95c-.05,.28,.06,.56,.3,.72,.61,.42,.77,1.25,.35,1.86-.21,.3-.53,.51-.89,.57-.29,.05-.52,.27-.58,.55l-.43,1.95c-.05,.28,.06,.56,.3,.72l.18,.16h-.59c-.4,0-.72,.32-.72,.72,0,2.24-1.82,4.05-4.06,4.06-.4,0-.72,.32-.72,.72v2.34c0,.29,.18,.56,.45,.67,.69,.27,1.03,1.05,.75,1.74-.14,.35-.41,.62-.75,.75-.27,.11-.45,.37-.45,.66v1.99c0,.29,.18,.56,.45,.67,.69,.28,1.02,1.06,.74,1.74-.14,.34-.4,.61-.74,.74-.27,.11-.45,.38-.45,.67v1.99c0,.29,.18,.56,.45,.67,.69,.28,1.02,1.06,.74,1.74-.14,.34-.4,.61-.74,.74-.27,.11-.45,.38-.45,.67v1.99c0,.29,.18,.56,.45,.67,.53,.22,.86,.75,.82,1.32,0,.55-.33,1.04-.84,1.25C.18,52.94,0,53.2,0,53.5v2.41c0,.4,.32,.72,.72,.72,2.24,0,4.05,1.82,4.06,4.06,0,.4,.32,.72,.72,.72H74.56c.4,0,.72-.32,.72-.72,0-2.23,1.81-4.04,4.04-4.06,.4,0,.72-.32,.72-.72v-2.38c0-.28-.16-.53-.42-.65-.05-.02-.09-.05-.14-.08-.07-.03-.14-.07-.2-.12h-.04c-.07-.07-.14-.14-.2-.22l-.06-.09c-.05-.07-.08-.15-.12-.23v-.1c-.04-.12-.06-.24-.06-.36,0-.12,.02-.24,.06-.35v-.08c.03-.1,.08-.2,.14-.3,.07-.09,.15-.18,.24-.25l.07-.06c.09-.07,.19-.13,.3-.17h.04c.25-.12,.4-.37,.4-.64v-2.1c0-.1-.03-.2-.07-.3,.53-.1,1.07-.1,1.6,0,.39,.08,.76-.16,.85-.55l.51-2.29c.05-.28-.06-.56-.3-.72-.61-.42-.77-1.25-.35-1.86,.21-.3,.53-.51,.89-.57,.29-.05,.52-.27,.58-.55l.43-1.95c.05-.28-.06-.56-.29-.72-.64-.37-.86-1.19-.48-1.83,.2-.34,.54-.58,.93-.65,.29-.05,.52-.27,.58-.55l.43-1.94c.05-.28-.06-.56-.3-.72-.45-.31-.66-.86-.55-1.4,.12-.53,.55-.95,1.09-1.04,.29-.05,.52-.27,.58-.55l.43-1.94c.05-.28-.06-.56-.3-.72-.61-.42-.77-1.25-.35-1.86,.21-.3,.53-.51,.89-.57,.29-.05,.52-.27,.58-.55l.51-2.29c.09-.39-.16-.77-.54-.86Zm-8.8,34.45c-2.43,.36-4.33,2.29-4.66,4.72H21.01v-1.19c0-.4-.32-.72-.72-.72s-.72,.32-.72,.72v1.21H6.17c-.32-2.47-2.26-4.41-4.73-4.74v-1.23c1.3-.82,1.68-2.54,.86-3.84-.22-.35-.51-.64-.86-.86v-1.12c1.3-.82,1.68-2.53,.86-3.83-.22-.35-.52-.64-.86-.86v-1.12c1.3-.82,1.68-2.54,.86-3.84-.22-.35-.51-.64-.86-.86v-1.12c1.3-.82,1.68-2.54,.86-3.84-.22-.35-.51-.64-.86-.86v-1.23c2.46-.33,4.4-2.27,4.73-4.73h13.4v1.23c0,.4,.32,.72,.72,.72s.72-.32,.72-.72v-1.23h52.89c.3,2.18,1.86,3.98,3.99,4.57h.16c.17,.04,.34,.09,.51,.12v1.25l-.12,.09-.13,.09c-.15,.12-.29,.26-.42,.42l-.04,.04c-.11,.15-.21,.3-.29,.47,0,.03,0,.05,0,.08-.08,.16-.14,.34-.18,.51v.07c-.04,.19-.06,.38-.06,.58,0,.19,.03,.38,.06,.57v.07c.04,.18,.1,.35,.18,.52,0,.02,0,.05,0,.07,.08,.17,.18,.32,.29,.47l.04,.04c.12,.16,.26,.3,.42,.42l.1,.08,.15,.11v1.12l-.13,.09s-.08,.06-.12,.09c-.16,.12-.3,.26-.42,.42l-.04,.04c-.11,.15-.21,.3-.29,.47,0,.03,0,.05,0,.08-.08,.16-.14,.33-.18,.51v.07c-.04,.19-.06,.38-.06,.58,0,.19,.03,.37,.06,.55,0,.03,0,.05,0,.08,.04,.18,.1,.35,.17,.51v.07c.08,.16,.17,.32,.28,.47,.2,.25,.45,.46,.72,.63v1.11l-.13,.09-.12,.09c-.16,.12-.3,.26-.42,.42l-.04,.04c-.11,.15-.21,.3-.29,.47,0,.03,0,.05,0,.08-.08,.16-.14,.33-.18,.51v.07c-.09,.38-.09,.77,0,1.15v.07c.04,.18,.1,.35,.18,.51,0,.03,0,.05,0,.08,.08,.17,.18,.32,.29,.47l.04,.04c.12,.16,.26,.3,.42,.42l.1,.07,.15,.11v1.12c-.14,.09-.28,.2-.4,.32-.12,.12-.23,.25-.33,.39v.05c-.08,.13-.16,.26-.22,.4,0,.02,0,.05,0,.07-.06,.15-.11,.3-.14,.45v.12c-.03,.16-.05,.33-.05,.5,0,.19,.03,.39,.06,.58v.07c.04,.18,.1,.35,.18,.51,0,.03,0,.05,0,.08,.08,.17,.18,.32,.29,.47l.04,.04c.12,.16,.26,.3,.42,.42l.1,.07c.05,0,.1,.08,.15,.11v1.34ZM28.9,11.93s.04,.01,.06,.02c.05,0,.11,0,.16,0,.34,0,.65-.23,.72-.56l.33-1.5c0-.06,0-.13,0-.19l37.11,8.22-1.44,6.35c0,.05,0,.1,0,.15h-3.89l.72-3.23c.04-.19,0-.38-.1-.54-.1-.16-.27-.28-.45-.32l-28.26-6.27c-.39-.09-.77,.15-.86,.54,0,0,0,0,0,0l-1.24,5.52c-.08,.39,.16,.77,.55,.86l15.47,3.43H20.78l2.01-9.06c.09-.4-.17-.79-.57-.88s-.79,.17-.88,.57l-2.08,9.37h-5.04l2.95-13.3c.49-2.26,2.72-3.7,4.99-3.21,.02,0,.04,0,.06,.01l6.62,1.44c-.03,.05-.06,.11-.08,.17l-.33,1.5c-.12,.38,.09,.78,.47,.91Zm32.2,9.65l-.63,2.83h-6.05l-21.09-4.68,.92-4.11,26.85,5.96Zm6.22,2.83l1.37-6.19,6.59,1.44c2.28,.51,3.71,2.77,3.2,5.04,0,0,0,0,0,0l-.9,4.06c-1.39-.68-2.28-2.09-2.29-3.64,0-.4-.32-.72-.72-.72h-7.24Zm18.87-1.31c-1.45,.53-2.19,2.13-1.66,3.58,.14,.38,.36,.73,.65,1.01l-.25,1.09c-1.44,.52-2.19,2.12-1.67,3.56,.14,.38,.36,.73,.65,1.02l-.27,1.07c-1.44,.52-2.19,2.12-1.67,3.56,.14,.38,.36,.73,.65,1.02l-.24,1.09c-1.45,.53-2.2,2.13-1.67,3.57,.14,.38,.36,.73,.65,1.02l-.27,1.21c-.79-.06-1.58,.06-2.32,.34,0-.03,0-.06,0-.09-.08-.23-.08-.49,0-.72v-.1c.03-.08,.07-.16,.12-.23l.06-.09c.06-.08,.13-.16,.2-.22h.04c.09-.07,.19-.13,.29-.18h.05c.25-.12,.42-.37,.42-.65v-2.06c0-.29-.18-.56-.45-.67-.13-.05-.24-.12-.35-.21-.09-.07-.17-.16-.24-.25l-.05-.09c-.05-.07-.08-.15-.12-.23v-.1c-.08-.23-.08-.49,0-.72v-.1c.03-.08,.07-.16,.12-.23l.06-.09c.06-.08,.13-.16,.2-.22l.04-.04c.09-.07,.18-.13,.29-.17h.05c.25-.12,.42-.37,.42-.65v-2.03c0-.28-.16-.53-.42-.65-.07-.03-.13-.07-.19-.12-.05-.02-.1-.05-.15-.09-.02-.01-.03-.03-.04-.04-.08-.06-.15-.14-.2-.22l-.06-.09c-.05-.07-.08-.15-.12-.23v-.1c-.04-.11-.06-.23-.06-.35,0-.12,.02-.24,.06-.36v-.1c.03-.08,.07-.16,.12-.23l.06-.09c.06-.08,.13-.16,.2-.22,.09-.07,.2-.13,.3-.18h.04c.25-.12,.42-.37,.42-.65v-2.44c0-.4-.32-.72-.72-.72h-.32l.92-4.14c.67-3.05-1.26-6.07-4.31-6.74,0,0-.01,0-.02,0L22.53,6.5c-3.05-.68-6.07,1.25-6.75,4.3,0,0,0,.02,0,.02l-3.02,13.58H7.75c-.14-.38-.35-.72-.63-1.01l.23-1.06c1.45-.51,2.22-2.1,1.71-3.55-.14-.41-.38-.78-.69-1.08l.24-1.09c1.45-.53,2.19-2.13,1.66-3.58-.14-.38-.36-.73-.65-1.01l.25-1.09c1.44-.52,2.19-2.12,1.67-3.56-.14-.38-.36-.73-.65-1.02l.27-1.2c2.48,.21,4.79-1.26,5.64-3.6l13.08,2.88-.29,1.21c-.09,.39,.15,.77,.54,.86,0,0,0,0,0,0h.16c.34,0,.65-.23,.72-.56l.26-1.18,51.64,11.5c-.2,2.45,1.24,4.74,3.53,5.62l-.27,1.21Z"/></g></g></svg>