<?xml version="1.0" encoding="UTF-8"?><svg id="Layer_2" xmlns="http://www.w3.org/2000/svg" viewBox="0 0 82.73 69.55"><defs><style>.cls-1{fill:#6cace3;}</style></defs><g id="work"><g><g><path class="cls-1" d="M24.23,69.55c-.28,0-.51-.23-.51-.51s.23-.51,.51-.51h4.82l1.19-9.52H4.46c-2.46,0-4.46-2-4.46-4.46V4.46C0,2,2,0,4.46,0H78.26c2.46,0,4.46,2,4.46,4.46V54.54c0,2.46-2,4.46-4.46,4.46h-25.78l1.19,9.52h4.82c.28,0,.51,.23,.51,.51s-.23,.51-.51,.51H24.23Zm5.85-1.02h22.56l-1.19-9.52h-5.74l-.58,2.33c-.43,1.73-1.98,2.94-3.77,2.94s-3.34-1.21-3.77-2.94l-.58-2.33h-5.74l-1.19,9.52Zm8.5-7.44c.32,1.28,1.46,2.17,2.78,2.17s2.46-.89,2.78-2.17l.52-2.08h-6.6l.52,2.08ZM4.46,1.02c-1.9,0-3.44,1.54-3.44,3.44V54.54c0,1.9,1.54,3.44,3.44,3.44H78.26c1.9,0,3.44-1.54,3.44-3.44V4.46c0-1.9-1.54-3.44-3.44-3.44H4.46Z"/><path class="cls-1" d="M5.78,53.73c-.28,0-.51-.23-.51-.51V5.78c0-.28,.23-.51,.51-.51h63.25c.28,0,.51,.23,.51,.51s-.23,.51-.51,.51H6.29V52.71h2.12c.14,0,.26,.05,.36,.15,.1,.1,.15,.22,.15,.36,0,.28-.23,.51-.51,.51h-2.64Z"/><path class="cls-1" d="M13.69,53.73c-.28,0-.51-.23-.51-.51s.23-.51,.51-.51h62.74V6.29h-2.12c-.28,0-.51-.23-.51-.51s.23-.51,.51-.51h2.64c.28,0,.51,.23,.51,.51V53.22c0,.28-.23,.51-.51,.51H13.69Z"/></g><g><path class="cls-1" d="M27.22,12.02c-.24,0-.43-.19-.43-.43s.19-.43,.43-.43h37.72c.24,0,.43,.19,.43,.43s-.19,.43-.43,.43H27.22Z"/><path class="cls-1" d="M57.4,30.88c-.18,0-.34-.11-.41-.28l-.6-1.6h-5.53l-.6,1.6c-.06,.17-.22,.28-.41,.28-.05,0-.1,0-.15-.03-.11-.04-.19-.12-.24-.23-.05-.1-.05-.22-.01-.33l2.5-6.66c.26-.7,.93-1.16,1.68-1.16s1.42,.47,1.68,1.16l2.5,6.66c.04,.11,.04,.23-.01,.33-.05,.11-.13,.19-.24,.23-.05,.02-.1,.03-.15,.03m-3.77-7.54c-.39,0-.74,.24-.87,.6l-1.57,4.19h4.88l-1.57-4.19c-.13-.36-.48-.6-.87-.6"/><path class="cls-1" d="M18.73,47.85c-.76,0-1.38-.62-1.38-1.38V20.07c0-.76,.62-1.38,1.38-1.38h19.8c.76,0,1.38,.62,1.38,1.38v26.41c0,.76-.62,1.38-1.38,1.38H18.73Zm0-28.29c-.28,0-.51,.23-.51,.51v26.41c0,.28,.23,.51,.51,.51h19.8c.28,0,.51-.23,.51-.51V20.07c0-.28-.23-.51-.51-.51H18.73Z"/><path class="cls-1" d="M44.19,47.85c-.76,0-1.38-.62-1.38-1.38V20.07c0-.76,.62-1.38,1.38-1.38h19.8c.76,0,1.38,.62,1.38,1.38v26.41c0,.76-.62,1.38-1.38,1.38h-19.8Zm0-28.29c-.28,0-.51,.23-.51,.51v26.41c0,.28,.23,.51,.51,.51h19.8c.28,0,.51-.23,.51-.51V20.07c0-.28-.23-.51-.51-.51h-19.8Z"/><path class="cls-1" d="M47.02,35.59c-.24,0-.43-.19-.43-.43s.19-.43,.43-.43h2.83c.24,0,.43,.19,.43,.43s-.19,.43-.43,.43h-2.83Z"/><path class="cls-1" d="M47.02,39.37c-.24,0-.43-.19-.43-.43s.19-.43,.43-.43h6.6c.24,0,.43,.19,.43,.43s-.19,.43-.43,.43h-6.6Z"/><path class="cls-1" d="M53.62,35.59c-.24,0-.43-.19-.43-.43s.19-.43,.43-.43h7.54c.24,0,.43,.19,.43,.43s-.19,.43-.43,.43h-7.54Z"/><path class="cls-1" d="M47.02,43.14c-.24,0-.43-.19-.43-.43s.19-.43,.43-.43h2.83c.24,0,.43,.19,.43,.43s-.19,.43-.43,.43h-2.83Z"/><path class="cls-1" d="M53.62,43.14c-.24,0-.43-.19-.43-.43s.19-.43,.43-.43h7.54c.24,0,.43,.19,.43,.43s-.19,.43-.43,.43h-7.54Z"/><path class="cls-1" d="M57.4,39.37c-.24,0-.43-.19-.43-.43s.19-.43,.43-.43h3.77c.24,0,.43,.19,.43,.43s-.19,.43-.43,.43h-3.77Z"/><path class="cls-1" d="M32.88,43.14c-.24,0-.43-.19-.43-.43s.19-.43,.43-.43h2.83c.24,0,.43,.19,.43,.43s-.19,.43-.43,.43h-2.83Z"/><path class="cls-1" d="M29.1,39.37c-.24,0-.43-.19-.43-.43s.19-.43,.43-.43h6.6c.24,0,.43,.19,.43,.43s-.19,.43-.43,.43h-6.6Z"/><path class="cls-1" d="M21.56,43.14c-.24,0-.43-.19-.43-.43s.19-.43,.43-.43h7.54c.24,0,.43,.19,.43,.43s-.19,.43-.43,.43h-7.54Z"/><path class="cls-1" d="M32.88,35.59c-.24,0-.43-.19-.43-.43s.19-.43,.43-.43h2.83c.24,0,.43,.19,.43,.43s-.19,.43-.43,.43h-2.83Z"/><path class="cls-1" d="M21.56,35.59c-.24,0-.43-.19-.43-.43s.19-.43,.43-.43h7.54c.24,0,.43,.19,.43,.43s-.19,.43-.43,.43h-7.54Z"/><path class="cls-1" d="M21.56,39.37c-.24,0-.43-.19-.43-.43s.19-.43,.43-.43h3.77c.24,0,.43,.19,.43,.43s-.19,.43-.43,.43h-3.77Z"/><path class="cls-1" d="M31.93,30.88c-.05,0-.11-.01-.16-.03-.88-.35-1.68-.84-2.36-1.44l-.3-.26-.3,.26c-.68,.59-1.48,1.08-2.38,1.44-.05,.02-.11,.03-.16,.03-.18,0-.34-.11-.4-.27-.04-.11-.04-.22,0-.33,.05-.11,.13-.19,.24-.23,.79-.32,1.5-.74,2.1-1.27l.31-.27-.24-.33c-.29-.41-.55-.85-.76-1.31-.1-.22,0-.47,.21-.57,.06-.03,.12-.04,.18-.04,.17,0,.32,.1,.39,.25,.12,.26,.26,.52,.41,.77l.38,.62,.38-.62c.58-.93,.84-1.85,.96-2.45l.1-.54h-5.21c-.24,0-.43-.19-.43-.43s.19-.43,.43-.43h3.34v-.45c0-.3,.19-.49,.43-.49s.43,.19,.43,.43v.45l.45,.06h2.89c.24,0,.43,.19,.43,.43s-.19,.43-.43,.43h-1.47l-.06,.38c-.14,.9-.49,2.24-1.41,3.52l-.24,.33,.31,.27c.6,.52,1.3,.94,2.09,1.26,.11,.04,.19,.12,.24,.23,.05,.11,.05,.22,0,.33-.07,.16-.22,.27-.4,.27"/><path class="cls-1" d="M17.79,12.02c-.24,0-.43-.19-.43-.43s.19-.43,.43-.43,.43,.19,.43,.43-.19,.43-.43,.43"/><path class="cls-1" d="M20.62,12.02c-.24,0-.43-.19-.43-.43s.19-.43,.43-.43,.43,.19,.43,.43-.19,.43-.43,.43"/><path class="cls-1" d="M23.45,12.02c-.24,0-.43-.19-.43-.43s.19-.43,.43-.43,.43,.19,.43,.43-.19,.43-.43,.43"/></g></g></g></svg>