<?xml version="1.0" encoding="UTF-8"?><svg id="Layer_2" xmlns="http://www.w3.org/2000/svg" viewBox="0 0 73.22 73.22"><defs><style>.cls-1{fill:#6cace3;}</style></defs><g id="work"><g><path class="cls-1" d="M54.39,6.62c1.29,.77,2.54,1.63,3.73,2.56,.15,.12,.35,.19,.54,.19,.27,0,.52-.12,.69-.33,.3-.38,.23-.93-.15-1.23-1.25-.98-2.56-1.88-3.92-2.68-.42-.25-.95-.11-1.2,.31-.12,.2-.15,.44-.1,.66,.06,.23,.2,.42,.4,.54Z"/><path class="cls-1" d="M69.64,20.81c-.21-.43-.73-.62-1.17-.41-.1,.05-.19,.12-.27,.21-.24,.26-.29,.64-.14,.96,2.26,4.71,3.4,9.77,3.4,15.04,0,19.22-15.64,34.86-34.86,34.86S1.75,55.83,1.75,36.61,17.39,1.75,36.61,1.75c3.94,0,7.81,.65,11.49,1.94,.33,.12,.7,.02,.94-.24,.08-.09,.14-.19,.17-.29,.08-.22,.06-.46-.04-.67-.1-.21-.28-.37-.5-.45-3.87-1.35-7.93-2.04-12.07-2.04C16.42,0,0,16.42,0,36.61s16.42,36.61,36.61,36.61,36.61-16.42,36.61-36.61c0-5.53-1.2-10.85-3.57-15.8Z"/><path class="cls-1" d="M55.67,31.01c-.12-.36-.45-.6-.83-.6h-7.32c-.48,0-.88,.39-.88,.88s.39,.88,.88,.88h4.63l-9.09,6.6c-.31,.22-.44,.62-.32,.98l3.47,10.68-9.09-6.6c-.31-.22-.72-.22-1.03,0l-9.09,6.6,3.47-10.68c.12-.36-.01-.75-.32-.98l-9.09-6.6h11.23c.38,0,.71-.24,.83-.6l3.47-10.68,3.47,10.68c.07,.22,.23,.41,.44,.51,.21,.11,.45,.12,.67,.05,.35-.12,.59-.45,.59-.83,0-.08,0-.18-.03-.27l-4.3-13.24c-.12-.36-.45-.6-.83-.6s-.71,.24-.83,.6l-4.11,12.64h-13.29c-.38,0-.71,.24-.83,.61-.12,.36,.01,.75,.32,.98l10.75,7.81-4.11,12.64c-.12,.36,.01,.75,.32,.98,.15,.11,.33,.17,.51,.17s.36-.06,.51-.17l10.75-7.81,10.75,7.81c.3,.22,.73,.22,1.03,0,.31-.22,.44-.62,.32-.98l-4.11-12.64,10.75-7.81c.31-.22,.44-.62,.32-.98Z"/></g></g></svg>