<?xml version="1.0" encoding="UTF-8"?><svg id="Layer_2" xmlns="http://www.w3.org/2000/svg" viewBox="0 0 86.43 72.66"><defs><style>.cls-1{fill:#6cace3;}</style></defs><g id="work"><g><path class="cls-1" d="M81.77,0H4.66C2.09,0,0,2.09,0,4.66V56.98c0,2.57,2.09,4.66,4.66,4.66H31.6l-1.24,9.95h-5.04c-.29,0-.53,.24-.53,.53s.24,.53,.53,.53H61.12c.29,0,.53-.24,.53-.53s-.24-.53-.53-.53h-5.04l-1.24-9.95h26.93c2.57,0,4.67-2.09,4.67-4.66V4.66c0-2.57-2.09-4.66-4.67-4.66Zm-26.77,71.6H31.43l1.24-9.95h6l.61,2.43c.45,1.81,2.07,3.07,3.94,3.07s3.49-1.26,3.94-3.07l.61-2.43h5.99l1.24,9.95Zm-15.23-9.95h6.89l-.54,2.17c-.33,1.34-1.53,2.27-2.9,2.27s-2.57-.93-2.9-2.27l-.54-2.17Zm45.59-4.66c0,1.98-1.61,3.6-3.6,3.6H4.66c-1.98,0-3.6-1.61-3.6-3.6V4.66c0-1.98,1.61-3.6,3.6-3.6H81.77c1.98,0,3.6,1.61,3.6,3.6V56.98Z"/><path class="cls-1" d="M8.8,55.07h-2.22V6.57H72.13c.29,0,.53-.24,.53-.53s-.24-.53-.53-.53H6.04c-.29,0-.53,.24-.53,.53V55.61c0,.29,.24,.53,.53,.53h2.75c.29,0,.53-.24,.53-.53,0-.14-.06-.28-.16-.38-.1-.1-.23-.16-.38-.16Z"/><path class="cls-1" d="M80.39,5.51h-2.75c-.29,0-.53,.24-.53,.53s.24,.53,.53,.53h2.22V55.07H14.3c-.29,0-.53,.24-.53,.53s.24,.53,.53,.53H80.39c.29,0,.53-.24,.53-.53V6.04c0-.29-.24-.53-.53-.53Z"/><path class="cls-1" d="M16.61,24.37c-.15,.09-.25,.25-.25,.43v17.2c0,.18,.1,.34,.25,.43,.08,.04,.16,.07,.25,.07s.17-.02,.25-.07l14.78-8.6c.15-.09,.25-.25,.25-.43s-.09-.34-.25-.43l-14.78-8.6c-.15-.09-.35-.09-.5,0Zm.75,1.3l13.29,7.73-13.29,7.73v-15.46Z"/><path class="cls-1" d="M68.3,12.1c0-.25-.2-.45-.45-.45H28.44c-.25,0-.45,.2-.45,.45s.2,.45,.45,.45h39.41c.25,0,.45-.2,.45-.45Z"/><path class="cls-1" d="M19.04,12.1c0-.25-.2-.45-.45-.45s-.45,.2-.45,.45,.2,.45,.45,.45,.45-.2,.45-.45Z"/><path class="cls-1" d="M21.99,12.1c0-.25-.2-.45-.45-.45s-.45,.2-.45,.45,.2,.45,.45,.45,.45-.2,.45-.45Z"/><path class="cls-1" d="M24.95,12.1c0-.25-.2-.45-.45-.45s-.45,.2-.45,.45,.2,.45,.45,.45,.45-.2,.45-.45Z"/><path class="cls-1" d="M35.62,25.85h31.68c.28,0,.5-.22,.5-.5v-6.22c0-.28-.22-.5-.5-.5h-31.68c-.28,0-.5,.22-.5,.5v.59s.09-.01,.14-.01c.3,0,.59,.06,.86,.16v-.24h30.68v5.22h-30.68v-.24c-.27,.1-.56,.16-.86,.16-.05,0-.09-.01-.14-.01v.59c0,.28,.22,.5,.5,.5Z"/><path class="cls-1" d="M40.56,30.29v.63c.16-.03,.33-.05,.5-.05s.34,.02,.5,.05v-.13h30.68v5.22h-30.68v-.13c-.16,.03-.33,.05-.5,.05s-.34-.02-.5-.05v.63c0,.28,.22,.5,.5,.5h31.68c.28,0,.5-.22,.5-.5v-6.22c0-.28-.22-.5-.5-.5h-31.68c-.28,0-.5,.22-.5,.5Z"/><path class="cls-1" d="M35.62,48.18h31.68c.28,0,.5-.22,.5-.5v-6.22c0-.28-.22-.5-.5-.5h-31.68c-.28,0-.5,.22-.5,.5v.59s.09-.01,.14-.01c.3,0,.59,.06,.86,.16v-.24h30.68v5.22h-30.68v-.24c-.27,.1-.56,.16-.86,.16-.05,0-.09-.01-.14-.01v.59c0,.28,.22,.5,.5,.5Z"/><path class="cls-1" d="M36.12,24.61c.97-.35,1.68-1.28,1.68-2.38s-.7-2.02-1.68-2.38c-.27-.1-.56-.16-.86-.16-.05,0-.09,.01-.14,.01-1.33,.07-2.4,1.17-2.4,2.52s1.06,2.45,2.4,2.52c.05,0,.09,.01,.14,.01,.3,0,.59-.06,.86-.16Zm-.86-.84c-.85,0-1.54-.69-1.54-1.54s.69-1.54,1.54-1.54,1.54,.69,1.54,1.54-.69,1.54-1.54,1.54Z"/><path class="cls-1" d="M36.12,46.94c.97-.35,1.68-1.28,1.68-2.38s-.7-2.02-1.68-2.38c-.27-.1-.56-.16-.86-.16-.05,0-.09,.01-.14,.01-1.33,.07-2.4,1.17-2.4,2.52s1.06,2.45,2.4,2.52c.05,0,.09,.01,.14,.01,.3,0,.59-.06,.86-.16Zm-.86-.84c-.85,0-1.54-.69-1.54-1.54s.69-1.54,1.54-1.54,1.54,.69,1.54,1.54-.69,1.54-1.54,1.54Z"/><path class="cls-1" d="M41.56,35.89c1.16-.23,2.04-1.26,2.04-2.49s-.88-2.25-2.04-2.49c-.16-.03-.33-.05-.5-.05s-.34,.02-.5,.05c-1.16,.23-2.04,1.26-2.04,2.49s.88,2.25,2.04,2.49c.16,.03,.33,.05,.5,.05s.34-.02,.5-.05Zm-.5-.95c-.85,0-1.54-.69-1.54-1.54s.69-1.54,1.54-1.54,1.54,.69,1.54,1.54-.69,1.54-1.54,1.54Z"/></g></g></svg>