<?xml version="1.0" encoding="UTF-8"?><svg id="Layer_2" xmlns="http://www.w3.org/2000/svg" viewBox="0 0 79.63 79.87"><defs><style>.cls-1{fill:#6cace3;}</style></defs><g id="work"><g><path class="cls-1" d="M6.52,79.87c-.43,0-.78-.35-.78-.78v-5.13c-.02-.23,.03-.41,.14-.57l4.39-6.06v-9.73c0-.43,.35-.79,.79-.79s.78,.35,.78,.79v9.25h20.4V27.4c0-.43,.35-.78,.78-.78s.79,.35,.79,.78v39.98l4.35,6.01c.11,.15,.16,.34,.14,.53v5.17c0,.43-.35,.78-.79,.78H6.52Zm.79-1.57h29.42v-3.67H7.31v3.67Zm.75-5.24h27.93l-3.36-4.64H11.41l-3.36,4.64Z"/><path class="cls-1" d="M22.02,61.73c-.43,0-.79-.35-.79-.78V14.61c0-.43,.35-.78,.79-.78s.78,.35,.78,.78V60.95c0,.43-.35,.78-.78,.78Z"/><path class="cls-1" d="M16.77,61.73c-.43,0-.78-.35-.78-.78V14.61c0-.43,.35-.78,.78-.78s.79,.35,.79,.78V60.95c0,.43-.35,.78-.79,.78Z"/><path class="cls-1" d="M27.26,61.73c-.43,0-.79-.35-.79-.78V14.61c0-.43,.35-.78,.79-.78s.78,.35,.78,.78V60.95c0,.43-.35,.78-.78,.78Z"/><path class="cls-1" d="M47.96,79.87c-.43,0-.78-.35-.78-.79v-5.12c-.02-.23,.03-.41,.14-.57l4.33-5.99v-18.11c0-.43,.35-.78,.78-.78s.78,.35,.78,.78v17.58h20.37V30.62l-2.91,1.39c-.11,.05-.22,.08-.34,.08-.16,0-.32-.05-.45-.14l-6.63-4.69-5.98,1.32c-.06,.01-.11,.02-.17,.02-.25,0-.49-.12-.63-.32l-3.25-4.43v20.71c0,.43-.35,.79-.78,.79s-.79-.35-.79-.79V21.44c0-.34,.22-.64,.54-.75,.08-.03,.16-.04,.25-.04,.25,0,.49,.12,.63,.32l4.37,5.95,5.82-1.29c.05-.01,.11-.02,.17-.02,.16,0,.32,.05,.45,.14l6.54,4.62,3.62-1.72c.11-.05,.22-.08,.34-.08,.15,0,.29,.04,.42,.12,.23,.15,.37,.39,.37,.66v38.02l4.33,6c.11,.15,.16,.34,.14,.53v5.16c0,.43-.35,.79-.79,.79h-30.88Zm.79-1.57h29.31v-3.66h-29.31v3.66Zm.74-5.23h27.83l-3.35-4.63h-21.13l-3.35,4.63Z"/><path class="cls-1" d="M63.4,61.73c-.43,0-.79-.35-.79-.78v-25.94c0-.43,.35-.78,.79-.78s.78,.35,.78,.78v25.94c0,.43-.35,.78-.78,.78Z"/><path class="cls-1" d="M58.15,61.73c-.43,0-.78-.35-.78-.78v-25.94c0-.43,.35-.78,.78-.78s.79,.35,.79,.78v25.94c0,.43-.35,.78-.79,.78Z"/><path class="cls-1" d="M68.64,61.73c-.43,0-.79-.35-.79-.78v-25.94c0-.43,.35-.78,.79-.78s.78,.35,.78,.78v25.94c0,.43-.35,.78-.78,.78Z"/><path class="cls-1" d="M11.05,53.64c-.43,0-.79-.35-.79-.79V12.62l-.65,.52c-1.06,.85-2.34,1.3-3.7,1.3-3.26,0-5.92-2.65-5.92-5.92V.78C0,.35,.35,0,.79,0H43.29c.43,0,.78,.35,.78,.78v7.75c0,3.26-2.65,5.92-5.92,5.92-1.36,0-2.63-.45-3.7-1.3l-.65-.52v10.04c0,.43-.35,.78-.79,.78s-.78-.35-.78-.78V9.32H11.83V52.85c0,.43-.35,.79-.78,.79ZM36.82,5.7c-1.62,0-2.97,1.32-3.01,2.94,.07,2.35,2.01,4.24,4.34,4.24s4.35-1.95,4.35-4.35V1.57H1.57v6.96c0,2.4,1.95,4.35,4.35,4.35,2.26,0,4.12-1.69,4.33-3.94v-.05s0-.05,0-.05c0-.04-.01-.09-.01-.13,0-1.66-1.35-3.01-3.01-3.01-1.24,0-2.25,1.01-2.25,2.25,0,.38,.17,.61,.31,.73,.19,.17,.41,.22,.55,.22h.07l.07-.02c.08-.03,.17-.04,.25-.04,.33,0,.63,.21,.74,.52,.14,.41-.07,.86-.48,1-.2,.07-.42,.11-.65,.11-.48,0-.97-.16-1.39-.45-.67-.47-1.05-1.23-1.05-2.07,0-2.11,1.71-3.82,3.82-3.82s3.85,1.37,4.41,3.33l.08,.29h20.62l.08-.29c.56-1.96,2.37-3.33,4.41-3.33s3.82,1.71,3.82,3.82c0,.84-.38,1.6-1.05,2.07-.41,.29-.91,.45-1.39,.45-.23,0-.45-.04-.65-.11-.41-.15-.62-.6-.48-1,.11-.31,.41-.52,.74-.52,.08,0,.17,.01,.25,.04l.05,.02s.06,0,.06,0c.17,0,.39-.06,.58-.22,.14-.12,.31-.35,.31-.73,0-1.24-1.01-2.25-2.25-2.25Z"/></g></g></svg>