<?xml version="1.0" encoding="UTF-8"?><svg id="Layer_2" xmlns="http://www.w3.org/2000/svg" viewBox="0 0 85.43 93.91"><defs><style>.cls-1{fill:#6cace3;}</style></defs><g id="work"><g><path class="cls-1" d="M42.71,89.59c-.06,0-.12,0-.17-.03l.16-.55-.02-.04-.14,.19-.13,.35c-6.93-2.58-13.26-6.31-18.83-11.07-2.81-2.41-8.12-7.44-12.21-14.15-.11-.09-.19-.18-.24-.3-.14-.26-.27-.53-.4-.79l-.09-.18C1.95,47.73,3.56,30.89,5.3,22.22c.05-.42,.1-.77,.13-.95,.03-.16,.12-.31,.25-.4,1.65-1.18,3.31-1.55,4.91-1.9,1.47-.33,2.85-.63,4.26-1.52,4.38-4.91,15.08-13.12,27.73-13.12h.19c12.71,0,23.41,8.21,27.79,13.12,1.41,.89,2.8,1.19,4.26,1.52,1.61,.36,3.27,.73,4.91,1.9,.13,.09,.22,.24,.25,.4,.03,.18,.08,.53,.14,1,1.73,8.62,3.34,25.45-5.35,40.77l-.08,.17c-.13,.26-.26,.53-.4,.79-.05,.12-.14,.21-.24,.3-4.09,6.72-9.4,11.75-12.21,14.15-5.56,4.76-11.88,8.48-18.78,11.06-.11,.06-.24,.09-.37,.09ZM12.2,63.36l.06,.05c.05,.04,.09,.09,.13,.15,4,6.61,9.24,11.57,12,13.94,5.42,4.64,11.59,8.28,18.33,10.8,6.74-2.53,12.9-6.16,18.33-10.8,2.76-2.37,8-7.33,12-13.94,.03-.06,.08-.11,.13-.15l.06-.05c.12-.24,.24-.47,.36-.71l.09-.18s.01-.02,.02-.03c8.5-14.97,6.91-31.47,5.21-39.97-.04-.31-.07-.55-.1-.73-1.37-.91-2.77-1.23-4.25-1.55-1.53-.34-3.12-.69-4.74-1.73-.05-.03-.09-.07-.13-.11-4.21-4.75-14.59-12.76-26.85-12.76h-.19c-12.33,0-22.71,8.02-26.92,12.76-.04,.04-.08,.08-.13,.11-1.62,1.04-3.21,1.39-4.74,1.73-1.48,.33-2.88,.64-4.25,1.55-.03,.18-.06,.41-.09,.68-1.71,8.55-3.29,25.04,5.2,40.02l.11,.21c.12,.24,.24,.48,.36,.71Z"/><g><g><path class="cls-1" d="M22.36,60.33h-1.23v-.38h2.88v.38h-1.23v3.28h-.42v-3.28Z"/><path class="cls-1" d="M24.79,59.95h1.58c.45,0,.81,.14,1.04,.37,.18,.18,.28,.43,.28,.72h0c0,.62-.42,.97-.99,1.08l1.13,1.5h-.51l-1.06-1.42h-1.05v1.42h-.41v-3.66Zm1.54,1.87c.55,0,.94-.28,.94-.75h0c0-.46-.35-.73-.94-.73h-1.13v1.49h1.13Z"/><path class="cls-1" d="M29.93,59.93h.39l1.67,3.69h-.44l-.43-.97h-1.99l-.43,.97h-.42l1.67-3.69Zm1.02,2.35l-.83-1.87-.84,1.87h1.67Z"/><path class="cls-1" d="M32.7,59.95h.39l2.31,2.94v-2.94h.4v3.66h-.33l-2.37-3v3h-.4v-3.66Z"/><path class="cls-1" d="M36.6,63.08l.26-.3c.38,.35,.75,.52,1.26,.52s.82-.26,.82-.62h0c0-.35-.18-.54-.95-.71-.84-.18-1.23-.46-1.23-1.06h0c0-.59,.51-1.01,1.2-1.01,.53,0,.92,.15,1.29,.45l-.24,.32c-.34-.28-.68-.4-1.06-.4-.48,0-.78,.26-.78,.59h0c0,.36,.19,.55,.99,.72,.82,.18,1.19,.48,1.19,1.04h0c0,.64-.52,1.05-1.25,1.05-.58,0-1.06-.19-1.5-.59Z"/><path class="cls-1" d="M40.19,59.95h1.37c.83,0,1.37,.44,1.37,1.16h0c0,.8-.66,1.21-1.44,1.21h-.89v1.29h-.41v-3.66Zm1.32,1.99c.61,0,1.01-.32,1.01-.81h0c0-.53-.39-.81-.98-.81h-.93v1.61h.91Z"/><path class="cls-1" d="M43.68,59.95h2.65v.38h-2.24v1.25h2v.38h-2v1.28h2.26v.38h-2.67v-3.66Z"/><path class="cls-1" d="M47.19,59.95h1.58c.45,0,.81,.14,1.04,.37,.18,.18,.28,.43,.28,.72h0c0,.62-.42,.97-.99,1.08l1.13,1.5h-.51l-1.06-1.42h-1.05v1.42h-.41v-3.66Zm1.54,1.87c.55,0,.94-.28,.94-.75h0c0-.46-.35-.73-.94-.73h-1.13v1.49h1.13Z"/><path class="cls-1" d="M50.97,59.95h2.63v.38h-2.22v1.31h1.98v.38h-1.98v1.6h-.41v-3.66Z"/><path class="cls-1" d="M54.4,59.95h2.65v.38h-2.24v1.25h2v.38h-2v1.28h2.26v.38h-2.67v-3.66Z"/><path class="cls-1" d="M57.75,61.8h0c0-1.05,.78-1.91,1.85-1.91,.67,0,1.06,.24,1.43,.58l-.28,.3c-.31-.29-.65-.5-1.15-.5-.81,0-1.42,.66-1.42,1.5h0c0,.86,.61,1.52,1.42,1.52,.5,0,.83-.19,1.18-.53l.27,.27c-.38,.39-.8,.64-1.47,.64-1.06,0-1.84-.83-1.84-1.88Z"/><path class="cls-1" d="M62.74,60.33h-1.23v-.38h2.88v.38h-1.23v3.28h-.42v-3.28Z"/></g><g><path class="cls-1" d="M21.15,65.6h.42v2.02h1.27v.39h-1.69v-2.41Z"/><path class="cls-1" d="M23.22,65.6h.42v2.41h-.42v-2.41Z"/><path class="cls-1" d="M24.2,65.6h.39l1.29,1.67v-1.67h.42v2.41h-.35l-1.33-1.71v1.71h-.42v-2.41Z"/><path class="cls-1" d="M26.72,66.82h0c0-.68,.52-1.25,1.24-1.25,.42,0,.68,.12,.93,.33l-.27,.32c-.19-.16-.37-.26-.67-.26-.44,0-.78,.39-.78,.85h0c0,.5,.33,.87,.82,.87,.23,0,.43-.07,.58-.18v-.45h-.62v-.37h1.03v1.01c-.24,.2-.58,.38-1,.38-.75,0-1.25-.54-1.25-1.24Z"/><path class="cls-1" d="M29.4,66.99v-1.39h.42v1.37c0,.45,.23,.69,.61,.69s.61-.23,.61-.67v-1.39h.42v1.37c0,.72-.41,1.08-1.04,1.08s-1.03-.36-1.03-1.06Z"/><path class="cls-1" d="M31.98,65.6h.42v2.41h-.42v-2.41Z"/><path class="cls-1" d="M32.8,67.66l.25-.3c.23,.2,.46,.31,.76,.31,.26,0,.43-.12,.43-.3h0c0-.18-.1-.27-.54-.38-.51-.12-.8-.28-.8-.72h0c0-.42,.34-.71,.82-.71,.35,0,.63,.11,.87,.3l-.23,.32c-.22-.16-.43-.25-.65-.25-.25,0-.39,.13-.39,.29h0c0,.19,.11,.28,.57,.39,.51,.12,.77,.31,.77,.71h0c0,.46-.35,.73-.86,.73-.37,0-.72-.13-1-.39Z"/><path class="cls-1" d="M35.62,66h-.76v-.39h1.95v.39h-.76v2.02h-.43v-2.02Z"/><path class="cls-1" d="M38.01,66.82h0c0-.69,.51-1.25,1.24-1.25,.44,0,.71,.15,.94,.38l-.27,.31c-.19-.18-.4-.3-.67-.3-.46,0-.8,.38-.8,.85h0c0,.48,.33,.86,.8,.86,.3,0,.48-.12,.69-.31l.27,.28c-.25,.26-.53,.43-.98,.43-.7,0-1.23-.55-1.23-1.24Z"/><path class="cls-1" d="M40.57,65.6h1.79v.38h-1.36v.63h1.21v.38h-1.21v.65h1.38v.38h-1.8v-2.41Z"/><path class="cls-1" d="M42.79,65.6h1.07c.3,0,.54,.09,.7,.24,.13,.13,.2,.31,.2,.52h0c0,.4-.24,.64-.57,.74l.65,.91h-.5l-.59-.84h-.53v.84h-.42v-2.41Zm1.04,1.19c.3,0,.5-.16,.5-.4h0c0-.27-.19-.41-.5-.41h-.62v.81h.62Z"/><path class="cls-1" d="M45.77,66h-.76v-.39h1.95v.39h-.76v2.02h-.43v-2.02Z"/><path class="cls-1" d="M47.34,65.6h.42v2.41h-.42v-2.41Z"/><path class="cls-1" d="M48.32,65.6h1.79v.39h-1.37v.66h1.22v.39h-1.22v.98h-.42v-2.41Z"/><path class="cls-1" d="M50.52,65.6h.42v2.41h-.42v-2.41Z"/><path class="cls-1" d="M51.39,66.82h0c0-.69,.51-1.25,1.24-1.25,.44,0,.71,.15,.94,.38l-.27,.31c-.19-.18-.4-.3-.67-.3-.46,0-.8,.38-.8,.85h0c0,.48,.33,.86,.8,.86,.3,0,.48-.12,.69-.31l.27,.28c-.25,.26-.53,.43-.98,.43-.7,0-1.23-.55-1.23-1.24Z"/><path class="cls-1" d="M54.8,65.59h.39l1.06,2.43h-.45l-.24-.58h-1.14l-.25,.58h-.43l1.06-2.43Zm.61,1.47l-.42-.96-.41,.96h.83Z"/><path class="cls-1" d="M56.86,66h-.76v-.39h1.95v.39h-.76v2.02h-.43v-2.02Z"/><path class="cls-1" d="M58.44,65.6h.42v2.41h-.42v-2.41Z"/><path class="cls-1" d="M59.31,66.82h0c0-.68,.52-1.25,1.26-1.25s1.26,.56,1.26,1.24h0c0,.68-.52,1.25-1.26,1.25s-1.26-.56-1.26-1.24Zm2.08,0h0c0-.47-.34-.86-.82-.86s-.81,.38-.81,.85h0c0,.48,.34,.86,.82,.86s.81-.38,.81-.85Z"/><path class="cls-1" d="M62.26,65.6h.39l1.29,1.67v-1.67h.42v2.41h-.35l-1.33-1.71v1.71h-.42v-2.41Z"/></g></g><g><g><polygon class="cls-1" points="25.46 50.84 28.65 50.84 28.65 36.85 33.99 36.85 33.99 33.96 20.12 33.96 20.12 36.85 25.46 36.85 25.46 50.84"/><path class="cls-1" d="M28.65,51.06h-3.19c-.13,0-.23-.1-.23-.23v-13.76h-5.11c-.13,0-.23-.1-.23-.23v-2.89c0-.12,.1-.23,.23-.23h13.87c.13,0,.23,.1,.23,.23v2.89c0,.12-.1,.23-.23,.23h-5.11v13.76c0,.12-.1,.23-.23,.23Zm-2.96-.46h2.74v-13.76c0-.12,.1-.23,.23-.23h5.11v-2.44h-13.42v2.44h5.11c.13,0,.23,.1,.23,.23v13.76Z"/></g><g><path class="cls-1" d="M20.12,33.96h13.87v2.89h-5.34v13.99h-3.19v-13.99h-5.34v-2.89Z"/><path class="cls-1" d="M28.65,51.06h-3.19c-.13,0-.23-.1-.23-.23v-13.76h-5.11c-.13,0-.23-.1-.23-.23v-2.89c0-.12,.1-.23,.23-.23h13.87c.13,0,.23,.1,.23,.23v2.89c0,.12-.1,.23-.23,.23h-5.11v13.76c0,.12-.1,.23-.23,.23Zm-2.96-.46h2.74v-13.76c0-.12,.1-.23,.23-.23h5.11v-2.44h-13.42v2.44h5.11c.13,0,.23,.1,.23,.23v13.76Z"/></g><g><polygon class="cls-1" points="40.19 33.96 36.99 33.96 36.99 50.84 48.93 50.84 48.93 47.99 40.19 47.99 40.19 33.96"/><path class="cls-1" d="M48.93,51.06h-11.94c-.13,0-.23-.1-.23-.23v-16.88c0-.12,.1-.23,.23-.23h3.19c.13,0,.23,.1,.23,.23v13.81h8.52c.13,0,.23,.1,.23,.23v2.84c0,.12-.1,.23-.23,.23Zm-11.71-.46h11.49v-2.38h-8.52c-.13,0-.23-.1-.23-.23v-13.81h-2.74v16.42Z"/></g><g><path class="cls-1" d="M48.93,50.84h-11.94v-16.88h3.19v14.04h8.75v2.84Z"/><path class="cls-1" d="M48.93,51.06h-11.94c-.13,0-.23-.1-.23-.23v-16.88c0-.12,.1-.23,.23-.23h3.19c.13,0,.23,.1,.23,.23v13.81h8.52c.13,0,.23,.1,.23,.23v2.84c0,.12-.1,.23-.23,.23Zm-11.71-.46h11.49v-2.38h-8.52c-.13,0-.23-.1-.23-.23v-13.81h-2.74v16.42Z"/></g><g><path class="cls-1" d="M58.77,51.14c2.82,0,4.79-.81,6.73-2.79l-2-2.02c-1.36,1.2-2.65,1.93-4.6,1.93-3.09,0-5.42-2.51-5.42-5.85v-.05c0-3.25,2.38-5.8,5.42-5.8,1.59,0,2.98,.57,4.46,1.84l2.03-2.34c-1.8-1.68-3.75-2.39-6.46-2.39-5.03,0-8.82,3.76-8.82,8.74v.05c0,4.95,3.72,8.69,8.66,8.69Z"/><path class="cls-1" d="M58.77,51.36c-5.07,0-8.89-3.83-8.89-8.92s3.89-9.02,9.04-9.02c2.79,0,4.77,.73,6.61,2.46,.09,.08,.1,.22,.02,.31l-2.03,2.34c-.08,.1-.22,.11-.32,.02-1.44-1.23-2.76-1.78-4.31-1.78-2.91,0-5.2,2.45-5.2,5.57s2.23,5.67,5.2,5.67c1.92,0,3.17-.75,4.45-1.87,.09-.08,.23-.07,.31,.01l2,2.02c.09,.09,.09,.23,0,.32-1.99,2.03-3.98,2.86-6.89,2.86Zm.15-17.48c-4.9,0-8.59,3.66-8.59,8.51s3.63,8.51,8.44,8.51c2.69,0,4.57-.75,6.41-2.57l-1.7-1.71c-1.3,1.11-2.6,1.85-4.59,1.85-3.22,0-5.65-2.61-5.65-6.08s2.48-6.08,5.65-6.08c1.6,0,2.97,.54,4.43,1.75l1.74-2c-1.71-1.53-3.56-2.18-6.14-2.18Z"/></g><g><path class="cls-1" d="M50.11,42.4c0-4.98,3.79-8.74,8.82-8.74,2.71,0,4.66,.72,6.46,2.39l-2.03,2.34c-1.48-1.27-2.86-1.84-4.46-1.84-3.04,0-5.42,2.55-5.42,5.8v.05c0,3.33,2.33,5.85,5.42,5.85,1.95,0,3.24-.73,4.6-1.93l2,2.02c-1.94,1.98-3.91,2.79-6.73,2.79-4.94,0-8.66-3.74-8.66-8.69v-.05Z"/><path class="cls-1" d="M58.77,51.36c-5.07,0-8.89-3.83-8.89-8.92v-.05c0-5.11,3.89-8.97,9.04-8.97,2.79,0,4.77,.73,6.61,2.46,.09,.08,.1,.22,.02,.31l-2.03,2.34c-.08,.1-.22,.11-.32,.02-1.44-1.23-2.76-1.78-4.31-1.78-2.91,0-5.2,2.45-5.2,5.57s2.23,5.67,5.2,5.67c1.92,0,3.17-.75,4.45-1.87,.09-.08,.23-.07,.31,.01l2,2.02c.09,.09,.09,.23,0,.32-1.99,2.03-3.98,2.86-6.89,2.86Zm.15-17.48c-4.9,0-8.59,3.66-8.59,8.51v.05c0,4.82,3.63,8.46,8.44,8.46,2.69,0,4.57-.75,6.41-2.57l-1.7-1.71c-1.3,1.11-2.6,1.85-4.59,1.85-3.22,0-5.65-2.61-5.65-6.08s2.48-6.08,5.65-6.08c1.6,0,2.97,.54,4.43,1.75l1.74-2c-1.71-1.53-3.56-2.18-6.14-2.18Z"/></g></g><path class="cls-1" d="M66.16,30.81H19.34c-.35,0-.62-.28-.62-.62s.28-.62,.62-.62h46.81c.35,0,.62,.28,.62,.62s-.28,.62-.62,.62Z"/><path class="cls-1" d="M66.16,55.23H19.34c-.35,0-.62-.28-.62-.62s.28-.62,.62-.62h46.81c.35,0,.62,.28,.62,.62s-.28,.62-.62,.62Z"/><g><path class="cls-1" d="M41.37,15.59c-1.47-.37-2.47-.68-3.07-.68-.87,0-1.43,.63-1.43,1.47,0,1.24,1.34,2.15,3.67,2.15,.38,0,.8-.03,1.25-.08,.44-.67,.71-1.17,1.17-1.41l1.32-.7,.03,.06c-.32,.38-.78,1-1.38,1.86,.69-.09,2.23-.49,2.28-.5,.2-.04,.32,.2,.06,.29-.17,.06-1.47,.44-2.6,.6-.87,1.49-1.31,2.81-1.31,3.95,0,1.44,.83,2.31,2.04,2.31,.83,0,1.62-.42,2.28-1.23,.54-.65,.83-1.43,.83-2.12,0-.65-.32-1.02-.81-1.02-.86,0-1.89,.81-2.48,2.28,0,0-.06,.12-.18,.07-.09-.03-.07-.15-.07-.15,.51-1.53,1.71-2.48,2.7-2.48,.84,0,1.41,.6,1.41,1.53,0,.87-.54,1.92-1.54,2.69-.26,.2-.33,.25-.89,.48h3.94V15.07c-1.12,.73-2.41,1.09-3.89,1.09-1.26,0-2.33-.31-3.34-.57Z"/><path class="cls-1" d="M40.51,22.08c0-1.02,.35-2.18,1.08-3.3-.41,.03-.75,.04-1.07,.04-2.02,0-3.34-.63-3.8-1.62v7.78h5.54c-1.07-.45-1.75-1.52-1.75-2.91Z"/><path class="cls-1" d="M39.1,14.13c.84,0,1.82,.27,2.99,.6,1.76,.47,3.04,.77,3.86,.77s1.73-.26,2.65-.78v-1.64h-11.88v2.39c.34-.7,1.22-1.34,2.38-1.34Z"/></g><path class="cls-1" d="M42.71,93.91s-.02,0-.03,0c-.13,0-.27-.04-.37-.12-7.59-2.84-14.54-6.93-20.65-12.17-3.1-2.65-8.96-8.2-13.46-15.61-.09-.09-.17-.18-.22-.26h-.01c-.16-.29-.31-.59-.46-.89l-.11-.23C-2.18,47.79-.4,29.24,1.51,19.68c.06-.47,.11-.85,.15-1.05,.03-.16,.12-.3,.25-.4,1.8-1.29,3.63-1.7,5.4-2.09,1.62-.36,3.16-.7,4.73-1.69C16.86,9.04,28.64,0,42.58,0h.21c14,0,25.78,9.04,30.61,14.45,1.57,.99,3.11,1.33,4.73,1.69,1.77,.39,3.59,.8,5.4,2.09,.13,.09,.22,.24,.25,.4,.04,.2,.09,.59,.15,1.1,1.9,9.51,3.68,28.05-5.89,44.93l-.1,.21c-.14,.29-.29,.57-.44,.86-.05,.12-.14,.21-.26,.31-4.5,7.4-10.36,12.95-13.46,15.6-6.12,5.24-13.09,9.34-20.7,12.18-.12,.06-.25,.1-.38,.1ZM9.01,65.08l.07,.06c.05,.04,.09,.09,.13,.15,4.42,7.3,10.2,12.77,13.25,15.39,5.99,5.13,12.81,9.15,20.25,11.93,7.45-2.79,14.26-6.8,20.25-11.93,3.05-2.61,8.83-8.09,13.25-15.39,.03-.06,.08-.11,.13-.15l.07-.06c.13-.25,.26-.51,.39-.77l.11-.23s.01-.02,.02-.03c9.38-16.53,7.63-34.74,5.75-44.13-.04-.35-.08-.63-.11-.83-1.53-1.03-3.08-1.37-4.73-1.74-1.68-.37-3.42-.76-5.21-1.9-.05-.03-.09-.07-.13-.11-4.65-5.24-16.11-14.1-29.66-14.1h-.2c-13.63,0-25.09,8.85-29.74,14.1-.04,.04-.08,.08-.13,.11-1.78,1.14-3.52,1.53-5.21,1.9-1.64,.37-3.2,.71-4.73,1.74-.03,.2-.06,.46-.1,.78-1.89,9.43-3.64,27.64,5.75,44.17l.13,.25c.13,.26,.26,.52,.39,.78Z"/></g></g></svg>