<?xml version="1.0" encoding="UTF-8"?><svg id="Layer_2" xmlns="http://www.w3.org/2000/svg" viewBox="0 0 101.87 98.39"><defs><style>.cls-1{fill:#6cace3;}</style></defs><g id="work"><g><path class="cls-1" d="M17.86,56.21c-.16,0-.32-.04-.46-.12-.99-.38-5.82-2.58-7.12-9.92-.12-.51-.55-.85-1.05-.85h-2.41c-3.76,0-6.82-3.06-6.82-6.82V6.82C0,3.07,3.07,0,6.82,0h59.49c3.76,0,6.82,3.06,6.82,6.82v31.68c0,3.76-3.07,6.82-6.82,6.82H25.74c-5.42,0-6.27,4.31-6.65,8.34-.03,.58-.11,1.16-.24,1.72-.09,.42-.42,.74-.85,.81-.04,0-.09,0-.14,0Zm-8.62-12.79c1.43,0,2.66,1.02,2.92,2.43,.82,4.63,3.22,6.84,4.58,7.75l.42,.28,.05-.5c.28-2.98,.94-9.96,8.53-9.96h40.57c2.71,0,4.91-2.21,4.92-4.92V6.82c0-2.71-2.21-4.91-4.92-4.92H6.82c-2.71,0-4.91,2.21-4.92,4.92v31.68c0,2.71,2.21,4.91,4.92,4.92h2.42Z"/><path class="cls-1" d="M49.8,28.06c-.53,0-.95-.43-.95-.95s.43-.95,.95-.95h15.04c.53,0,.95,.43,.95,.95s-.43,.95-.95,.95h-15.04Z"/><path class="cls-1" d="M18.99,28.06c-.53,0-.95-.43-.95-.95s.43-.95,.95-.95h23.7c.53,0,.95,.43,.95,.95s-.43,.95-.95,.95H18.99Z"/><path class="cls-1" d="M8.29,28.06c-.53,0-.95-.43-.95-.95s.43-.95,.95-.95h5.17c.53,0,.95,.43,.95,.95s-.43,.95-.95,.95h-5.17Z"/><path class="cls-1" d="M60.92,20.72c-.53,0-.95-.43-.95-.95s.43-.95,.95-.95h3.93c.53,0,.95,.43,.95,.95s-.43,.95-.95,.95h-3.93Z"/><path class="cls-1" d="M48.84,20.72c-.53,0-.95-.43-.95-.95s.43-.95,.95-.95h6.57c.53,0,.95,.43,.95,.95s-.43,.95-.95,.95h-6.57Z"/><path class="cls-1" d="M8.29,20.72c-.53,0-.95-.43-.95-.95s.43-.95,.95-.95H43.3c.53,0,.95,.43,.95,.95s-.43,.95-.95,.95H8.29Z"/><path class="cls-1" d="M61.67,11.92c-.53,0-.95-.43-.95-.95s.43-.95,.95-.95h3.17c.53,0,.95,.43,.95,.95s-.43,.95-.95,.95h-3.17Z"/><path class="cls-1" d="M42.5,11.92c-.53,0-.95-.43-.95-.95s.43-.95,.95-.95h13.6c.53,0,.95,.43,.95,.95s-.43,.95-.95,.95h-13.6Z"/><path class="cls-1" d="M8.29,11.92c-.53,0-.95-.43-.95-.95s.43-.95,.95-.95h28.66c.53,0,.95,.43,.95,.95s-.43,.95-.95,.95H8.29Z"/><path class="cls-1" d="M49.57,35.4c-.53,0-.95-.43-.95-.95s.43-.95,.95-.95h.61c.53,0,.95,.43,.95,.95s-.43,.95-.95,.95h-.61Z"/><path class="cls-1" d="M33.62,35.4c-.53,0-.95-.43-.95-.95s.43-.95,.95-.95h10.87c.53,0,.95,.43,.95,.95s-.43,.95-.95,.95h-10.87Z"/><path class="cls-1" d="M8.29,35.4c-.53,0-.95-.43-.95-.95s.43-.95,.95-.95H26.68c.53,0,.95,.43,.95,.95s-.43,.95-.95,.95H8.29Z"/><path class="cls-1" d="M36.34,98.39c-3.98,0-7.21-3.24-7.22-7.22v-24.76c0-3.98,3.24-7.21,7.22-7.22h10.8v-4.35c0-1.5,1.22-2.72,2.73-2.72h9.01v-4.24c0-.53,.43-.95,.95-.95s.95,.43,.95,.95v4.24h9.16c1.5,0,2.72,1.23,2.72,2.73v4.35h10.8c3.98,0,7.21,3.24,7.22,7.22v.27l.27,.03c1.03,.1,2.04,.34,3.01,.7l.4,.15v-8.18l-.25-.05c-3.39-.63-5.72-3.81-5.3-7.24,.4-3.28,3.19-5.74,6.49-5.74,.14,0,.27,0,.41,.01,3.45,.21,6.15,3.08,6.14,6.53,0,3.15-2.25,5.85-5.35,6.43l-.24,.05v9.19l.13,.09c4.28,2.82,6.33,8.05,5.11,13.03-1.22,4.97-5.47,8.66-10.57,9.18l-.27,.03v.27c0,3.98-3.24,7.22-7.22,7.22H36.34Zm0-37.29c-2.93,0-5.31,2.39-5.31,5.31v24.76c0,2.93,2.39,5.31,5.31,5.31h47.13c2.93,0,5.31-2.39,5.31-5.31v-24.76c0-2.93-2.39-5.31-5.31-5.31H36.34Zm54.35,27.88l.34-.04c5.09-.66,8.94-5.02,8.94-10.15,0-5.13-3.85-9.5-8.94-10.15l-.34-.04v20.39ZM49.87,54.04c-.45,0-.82,.37-.82,.82v4.35h21.71v-4.35c0-.45-.37-.82-.82-.82h-20.07Zm45.46-5.76c-2.56,0-4.64,2.08-4.64,4.64,0,2.56,2.08,4.64,4.64,4.64,2.56,0,4.64-2.08,4.64-4.64s-2.08-4.64-4.64-4.64Z"/><path class="cls-1" d="M40.3,80.93c-.53,0-.95-.43-.95-.95v-3.57c0-2.13,1.74-3.87,3.88-3.88h1.24c2.14,0,3.87,1.74,3.88,3.88v3.57c0,.53-.43,.95-.95,.95h-7.08Zm2.92-6.5c-1.09,0-1.97,.89-1.97,1.97v2.62h5.18v-2.62c0-1.08-.88-1.97-1.97-1.97h-1.24Z"/><path class="cls-1" d="M72.42,80.93c-.53,0-.95-.43-.95-.95v-3.57c0-2.13,1.74-3.87,3.88-3.88h1.24c2.14,0,3.88,1.74,3.88,3.88v3.57c0,.53-.43,.95-.95,.95h-7.08Zm2.92-6.5c-1.09,0-1.97,.89-1.97,1.97v2.62h5.18v-2.62c0-1.08-.88-1.97-1.97-1.97h-1.24Z"/><path class="cls-1" d="M58.67,93.67c-3.75,0-6.8-3.05-6.8-6.8v-1.24c0-.53,.43-.95,.95-.95h14.17c.53,0,.95,.43,.95,.95v1.24c0,3.75-3.05,6.8-6.8,6.8h-2.47Zm-4.89-6.78c.01,2.69,2.21,4.87,4.89,4.88h2.47c2.69,0,4.88-2.19,4.89-4.88v-.3s-12.26,0-12.26,0v.3Z"/></g></g></svg>