<?xml version="1.0" encoding="UTF-8"?><svg id="Layer_2" xmlns="http://www.w3.org/2000/svg" viewBox="0 0 77.47 71.67"><defs><style>.cls-1{fill:#6cace3;}</style></defs><g id="work"><g><path class="cls-1" d="M71.3,20.1h-6.73c-.35,0-.64,.29-.64,.64s.29,.64,.64,.64h6.73c.35,0,.64-.29,.64-.64s-.29-.64-.64-.64Z"/><path class="cls-1" d="M66.1,22.87h-1.54c-.35,0-.64,.29-.64,.64s.29,.64,.64,.64h1.54c.35,0,.64-.29,.64-.64s-.29-.64-.64-.64Z"/><path class="cls-1" d="M77.31,49.58c-.44-.49-.68-1.13-.68-1.78v-8.83c0-1.23-.99-2.24-2.22-2.26v-1.84c0-.94-.62-1.77-1.52-2.05v-1.19c0-.35-.29-.64-.64-.64s-.64,.29-.64,.64v1.19c-.9,.28-1.52,1.1-1.52,2.05v32.6c0,.1,.03,.21,.08,.3l1.52,2.89c.11,.21,.33,.34,.57,.34,.23,0,.45-.13,.56-.34l1.52-2.89c.05-.09,.07-.2,.07-.3v-29.49c.53,.02,.95,.46,.95,.99v8.83c0,.97,.35,1.91,1,2.63,.12,.14,.3,.21,.48,.21,.35,0,.63-.29,.63-.64,0-.15-.06-.3-.16-.41Zm-4.18,17.71l-.88,1.68-.89-1.68v-.99h1.77v.99Zm0-2.24h-1.77v-27.08h1.77v27.08Zm0-28.35h-1.77v-1.83c0-.49,.39-.88,.88-.88h0c.49,0,.88,.39,.88,.88v1.83Z"/><path class="cls-1" d="M75.55,16.4h-8.48v-5.37c0-.06-.02-.12-.03-.17,0-.02,0-.04,0-.06-.03-.07-.07-.13-.12-.18L56.42,.16c-.05-.05-.11-.09-.18-.12h-.06c-.05-.02-.11-.03-.17-.04H16.83c-.35,0-.64,.29-.64,.64V9.48H5.1c-.35,0-.64,.29-.64,.64v4.84h-1.53c-.35,0-.64,.29-.64,.64s.29,.64,.64,.64h1.53v4.19h-1.53c-.35,0-.64,.29-.64,.64s.29,.64,.64,.64h1.53v4.19h-1.53c-.35,0-.64,.29-.64,.64s.29,.64,.64,.64h1.53v4.18h-1.53c-.35,0-.64,.29-.64,.64s.29,.64,.64,.64h1.53v4.19h-1.53c-.35,0-.64,.29-.64,.64s.29,.64,.64,.64h1.53v3.35H.64c-.35,0-.64,.29-.64,.64v24.39c0,.35,.29,.64,.64,.64h15.55v3.91c0,.35,.29,.64,.64,.64h49.6c.35,0,.64-.29,.64-.64V27.87h8.48c.35,0,.64-.29,.64-.64v-10.2c0-.35-.29-.64-.64-.64ZM56.6,2.15l8.29,8.29h-8.29V2.15ZM5.74,38.12h1.15c.35,0,.64-.29,.64-.64s-.29-.64-.64-.64h-1.15v-4.21h1.15c.35,0,.64-.29,.64-.64s-.29-.64-.64-.64h-1.15v-4.18h1.15c.35,0,.64-.29,.64-.64s-.29-.64-.64-.64h-1.15v-4.19h1.15c.35,0,.64-.29,.64-.64s-.29-.64-.64-.64h-1.15v-4.19h1.15c.35,0,.64-.29,.64-.64s-.29-.64-.64-.64h-1.15v-4.21H27.92v30.71H5.74v-3.35Zm46.57,4.63l-24.45,12.83L3.77,42.75H52.31Zm-23.11-1.27V10.76h1.59v30.71h-1.59Zm2.87,0V10.76h4.23v30.71h-4.23ZM1.3,65.86l-.03-22.98,26.29,13.97c.09,.05,.19,.08,.3,.08,.1,0,.2-.03,.29-.07l25.83-13.55v22.55H1.3Zm64.49,4.5H17.47v-3.26H54.63c.35,0,.64-.29,.64-.64v-24.36c0-.35-.29-.64-.64-.64h-17.06V10.12c0-.35-.29-.64-.64-.64H17.47V1.24H55.33V11.07c0,.35,.29,.64,.64,.64h9.82v4.67h-5.46c-.35,0-.64,.29-.64,.64v10.2c0,.35,.29,.64,.64,.64h5.47v42.52h0Zm9.12-43.76h-13.95v-8.92h13.95v8.92Z"/><path class="cls-1" d="M53.58,25.48h-11.47c-.35,0-.64,.29-.64,.64s.29,.64,.64,.64h11.47c.35,0,.64-.29,.64-.64s-.29-.64-.64-.64Z"/><path class="cls-1" d="M53.58,29.86h-11.47c-.35,0-.64,.29-.64,.64s.29,.64,.64,.64h11.47c.35,0,.64-.29,.64-.64s-.29-.64-.64-.64Z"/><path class="cls-1" d="M53.58,34.26h-11.47c-.35,0-.64,.29-.64,.64s.29,.64,.64,.64h11.47c.35,0,.64-.29,.64-.64s-.29-.64-.64-.64Z"/></g></g></svg>