<?xml version="1.0" encoding="UTF-8"?><svg id="Layer_2" xmlns="http://www.w3.org/2000/svg" viewBox="0 0 137.62 71.03"><defs><style>.cls-1{fill:#6cace3;}</style></defs><g id="work"><g><path class="cls-1" d="M47.2,15.95c5.52,1.51,13.01,2.37,20.57,2.37s15.06-.86,20.57-2.37c7.89-2.15,9.54-4.88,9.54-6.79s-1.66-4.63-9.54-6.79c-5.52-1.51-13.01-2.37-20.57-2.37s-15.06,.86-20.57,2.37c-7.88,2.15-9.54,4.88-9.54,6.79s1.66,4.63,9.54,6.79ZM67.77,2.17c7.78,0,15.03,.84,20.41,2.37,4.71,1.34,7.52,3.06,7.52,4.62,0,2.92-10.63,6.98-27.94,6.98-7.78,0-15.03-.84-20.41-2.37-4.71-1.34-7.52-3.06-7.52-4.62,0-2.92,10.63-6.98,27.94-6.98Z"/><path class="cls-1" d="M37.92,28.17l.04,.1c2.22,5.12,16.68,7.79,29.81,7.79,7.56,0,15.06-.86,20.57-2.37,4.35-1.19,9.54-3.33,9.54-6.79v-8.63c0-.6-.49-1.09-1.09-1.09s-1.09,.49-1.09,1.09v8.63c0,1.56-2.81,3.28-7.52,4.62-5.39,1.53-12.64,2.37-20.41,2.37s-14.74-.81-20.08-2.28c-4.65-1.28-7.58-2.96-7.83-4.5v-.07s.05-.03,.05-.03l9.08-5.24c.26-.15,.42-.43,.42-.74s-.16-.58-.42-.74l-13.88-8.01c-.26-.15-.59-.15-.85,0-.26,.15-.43,.43-.43,.74v4.49h-1.73l-.03-.05-6.44-11.16c-.16-.29-.47-.46-.8-.46H8.89c-.33,0-.64,.18-.8,.46L.12,20.11c-.17,.29-.17,.64,0,.92l7.97,13.8c.16,.29,.47,.46,.8,.46h15.94c.33,0,.64-.18,.8-.46l5.92-10.26h2.28v4.49c0,.3,.16,.58,.43,.74,.26,.15,.59,.15,.85,0l2.81-1.62Zm-8.58-3.45l-4.94,8.55c-.06,.11-.18,.17-.3,.17H9.63c-.12,0-.24-.07-.3-.17L2.09,20.74c-.06-.11-.06-.24,0-.35L9.33,7.87c.06-.11,.18-.18,.3-.18h14.47c.12,0,.24,.07,.3,.17l5.57,9.65h-1.49c-.47,0-.85,.38-.85,.85v5.36c0,.47,.38,.85,.85,.85h.95l-.09,.15Zm0-1.85v-3.66h5.36c.47,0,.85-.38,.85-.85v-3.86l.15,.09,11.18,6.46-.15,.09-11.18,6.46v-3.86c0-.47-.38-.85-.85-.85h-5.36Z"/><path class="cls-1" d="M97.89,44.39v-8.63c0-.6-.49-1.09-1.09-1.09s-1.09,.49-1.09,1.09v8.63c0,2.92-10.63,6.98-27.94,6.98-7.78,0-15.03-.84-20.41-2.37-4.71-1.34-7.52-3.06-7.52-4.62v-8.63c0-.6-.49-1.09-1.09-1.09s-1.09,.49-1.09,1.09v8.63c0,1.91,1.66,4.63,9.54,6.79,5.52,1.51,13.01,2.37,20.57,2.37s15.06-.86,20.57-2.37c7.89-2.15,9.54-4.88,9.54-6.79Z"/><path class="cls-1" d="M67.77,24.45c-.99,0-1.79,.8-1.79,1.79s.8,1.79,1.79,1.79,1.79-.8,1.79-1.79-.8-1.79-1.79-1.79Z"/><path class="cls-1" d="M58.4,23.67c-.99,0-1.79,.8-1.79,1.79s.8,1.79,1.79,1.79,1.79-.8,1.79-1.79-.8-1.79-1.79-1.79Z"/><path class="cls-1" d="M77.15,23.67c-.99,0-1.79,.8-1.79,1.79s.8,1.79,1.79,1.79,1.79-.8,1.79-1.79-.8-1.79-1.79-1.79Z"/><path class="cls-1" d="M67.77,45.9c.99,0,1.79-.8,1.79-1.79s-.8-1.79-1.79-1.79-1.79,.8-1.79,1.79,.8,1.79,1.79,1.79Z"/><circle class="cls-1" cx="58.4" cy="43.33" r="1.79"/><circle class="cls-1" cx="77.15" cy="43.33" r="1.79"/><path class="cls-1" d="M67.77,59.81c-.99,0-1.79,.8-1.79,1.79s.8,1.79,1.79,1.79,1.79-.8,1.79-1.79-.8-1.79-1.79-1.79Z"/><path class="cls-1" d="M58.4,59.03c-.99,0-1.79,.8-1.79,1.79s.8,1.79,1.79,1.79,1.79-.8,1.79-1.79-.8-1.79-1.79-1.79Z"/><path class="cls-1" d="M77.15,59.03c-.99,0-1.79,.8-1.79,1.79s.8,1.79,1.79,1.79,1.79-.8,1.79-1.79-.8-1.79-1.79-1.79Z"/><path class="cls-1" d="M119.71,45.56l-3.82,16.93h2.03l.89-4.43h3.88l.02,.08,.86,4.35h2.05l-3.85-16.93h-2.06Zm-.58,10.98l1.63-7.75,1.63,7.75h-3.26Z"/><path class="cls-1" d="M137.49,54.49c.17-.29,.17-.64,0-.92h0s-7.97-13.8-7.97-13.8c-.16-.28-.47-.46-.8-.46h-15.94c-.33,0-.64,.18-.8,.46l-5.34,9.24-.09-.05-5.88-3.4c-.26-.15-.59-.15-.85,0-.26,.15-.43,.43-.43,.74v4.49h-5.36c-.47,0-.85,.38-.85,.85v5.36c0,.47,.38,.85,.85,.85h1.66v4.04c0,1.56-2.81,3.28-7.52,4.62-5.39,1.53-12.64,2.37-20.41,2.37s-15.03-.84-20.41-2.37c-4.71-1.34-7.52-3.06-7.52-4.62v-8.63c0-.6-.49-1.09-1.09-1.09s-1.09,.49-1.09,1.09v8.63c0,1.91,1.66,4.63,9.54,6.79,5.52,1.51,13.01,2.37,20.57,2.37s15.06-.86,20.57-2.37c4.35-1.19,9.54-3.33,9.54-6.79v-4.04h1.52v4.49c0,.3,.16,.58,.43,.74,.26,.15,.59,.15,.85,0l6.21-3.59,.05,.09,5.04,8.73c.16,.29,.47,.46,.8,.46h15.94c.33,0,.64-.18,.8-.46l7.97-13.8Zm-36.38,6.36v-3.86c0-.47-.38-.85-.85-.85h-5.36v-3.66h5.36c.47,0,.85-.38,.85-.85v-3.86l.15,.09,11.18,6.46-.15,.09-11.18,6.46Zm27.18,5.88c-.06,.11-.18,.18-.3,.18h-14.47c-.12,0-.24-.07-.3-.17l-4.72-8.18,.09-.05,5.98-3.45c.26-.15,.42-.43,.42-.74s-.16-.58-.42-.74l-6.31-3.65,4.97-8.6c.06-.11,.18-.18,.3-.18h14.47c.12,0,.24,.07,.3,.17l7.23,12.53c.06,.11,.06,.24,0,.35h0s-7.23,12.53-7.23,12.53Z"/><path class="cls-1" d="M21.95,15.95h1.92c.45,0,.82-.35,.82-.78s-.37-.78-.82-.78h-6.14v-2.59c0-.43-.37-.78-.82-.78s-.82,.35-.82,.78v2.59h-6.14c-.45,0-.82,.35-.82,.78s.37,.78,.82,.78h10.36l-.17,.69c-.3,1.21-1.01,3.1-2.72,5.21l-.5,.62-.5-.62c-.74-.91-1.36-1.85-1.83-2.8-.19-.38-.7-.55-1.08-.38-.2,.09-.35,.24-.43,.44-.08,.2-.07,.42,.03,.61,.59,1.19,1.38,2.36,2.35,3.48l.34,.4-.39,.36c-1.56,1.41-3.45,2.7-5.63,3.85-.19,.1-.33,.27-.39,.47-.06,.2-.03,.42,.08,.61,.22,.36,.73,.5,1.11,.29,2.28-1.19,4.27-2.55,5.92-4.04l.44-.4,.44,.4c1.66,1.49,3.64,2.85,5.91,4.04,.12,.06,.25,.1,.39,.1,.29,0,.57-.15,.71-.39,.11-.18,.14-.39,.08-.59-.06-.21-.2-.38-.4-.48-2.17-1.14-4.06-2.43-5.62-3.85l-.39-.36,.34-.4c2.46-2.87,3.24-5.48,3.48-6.79l.09-.47Z"/></g></g></svg>