<?xml version="1.0" encoding="UTF-8"?><svg id="Layer_2" xmlns="http://www.w3.org/2000/svg" viewBox="0 0 88.57 50.01"><defs><style>.cls-1{fill:#6cace3;}</style></defs><g id="work"><g><path class="cls-1" d="M.39,10.94c-.24,.14-.39,.4-.39,.68v26.77c0,.28,.15,.54,.39,.68,.12,.07,.25,.1,.39,.1s.27-.03,.39-.1l23.01-13.39c.24-.14,.39-.4,.39-.67s-.15-.53-.39-.67L1.17,10.95c-.24-.14-.54-.14-.78,0Zm1.17,2.03l20.69,12.03L1.56,37.04V12.97Z"/><path class="cls-1" d="M29.99,11.25h49.33c.43,0,.78-.35,.78-.78V.78c0-.43-.35-.78-.78-.78H29.99c-.43,0-.78,.35-.78,.78v.92c.07,0,.14-.02,.22-.02,.47,0,.92,.1,1.34,.25v-.37h47.77V9.69H30.77v-.37c-.42,.15-.87,.25-1.34,.25-.07,0-.14-.02-.22-.02v.92c0,.43,.35,.78,.78,.78Z"/><path class="cls-1" d="M37.68,20.16v.97c.25-.05,.51-.08,.78-.08s.53,.03,.78,.08v-.2h47.77v8.13H39.24v-.2c-.25,.05-.51,.08-.78,.08s-.53-.03-.78-.08v.98c0,.43,.35,.78,.78,.78h49.33c.43,0,.78-.35,.78-.78v-9.69c0-.43-.35-.78-.78-.78H38.46c-.43,0-.78,.35-.78,.78Z"/><path class="cls-1" d="M29.99,50.01h49.33c.43,0,.78-.35,.78-.78v-9.69c0-.43-.35-.78-.78-.78H29.99c-.43,0-.78,.35-.78,.78v.92c.07,0,.14-.02,.22-.02,.47,0,.92,.1,1.34,.25v-.37h47.77v8.13H30.77v-.37c-.42,.15-.87,.25-1.34,.25-.07,0-.14-.02-.22-.02v.92c0,.43,.35,.78,.78,.78Z"/><path class="cls-1" d="M30.77,9.32c1.52-.55,2.61-1.99,2.61-3.7s-1.09-3.15-2.61-3.7c-.42-.15-.87-.25-1.34-.25-.07,0-.14,.02-.22,.02-2.07,.12-3.73,1.82-3.73,3.93s1.66,3.81,3.73,3.93c.07,0,.14,.02,.22,.02,.47,0,.92-.1,1.34-.25Zm-1.34-1.31c-1.32,0-2.39-1.07-2.39-2.39s1.07-2.39,2.39-2.39,2.39,1.07,2.39,2.39-1.07,2.39-2.39,2.39Z"/><path class="cls-1" d="M30.77,48.09c1.52-.55,2.61-1.99,2.61-3.7s-1.09-3.15-2.61-3.7c-.42-.15-.87-.25-1.34-.25-.07,0-.14,.02-.22,.02-2.07,.12-3.73,1.82-3.73,3.93s1.66,3.81,3.73,3.93c.07,0,.14,.02,.22,.02,.47,0,.92-.1,1.34-.25Zm-1.34-1.31c-1.32,0-2.39-1.07-2.39-2.39s1.07-2.39,2.39-2.39,2.39,1.07,2.39,2.39-1.07,2.39-2.39,2.39Z"/><path class="cls-1" d="M39.24,28.87c1.81-.36,3.17-1.96,3.17-3.87s-1.36-3.51-3.17-3.87c-.25-.05-.51-.08-.78-.08s-.53,.03-.78,.08c-1.81,.36-3.17,1.96-3.17,3.87s1.36,3.51,3.17,3.87c.25,.05,.51,.08,.78,.08s.53-.03,.78-.08Zm-.78-1.48c-1.32,0-2.39-1.07-2.39-2.39s1.07-2.39,2.39-2.39,2.39,1.07,2.39,2.39-1.07,2.39-2.39,2.39Z"/></g></g></svg>