<?xml version="1.0" encoding="UTF-8"?><svg id="Layer_2" xmlns="http://www.w3.org/2000/svg" viewBox="0 0 82.67 82.67"><defs><style>.cls-1{fill:#6cace3;}</style></defs><g id="work"><g id="emergency_call-app"><path class="cls-1" d="M63.45,82.67H19.21c-1.99,0-3.6-1.62-3.6-3.6v-15.61c0-.55,.45-1,1-1s1,.45,1,1v15.61c0,.88,.72,1.6,1.6,1.6H63.45c.88,0,1.6-.72,1.6-1.6v-16.91c0-.55,.45-1,1-1s1,.45,1,1v16.91c0,1.99-1.62,3.6-3.6,3.6Z"/><path class="cls-1" d="M16.61,48.84c-.55,0-1-.45-1-1V3.6c0-1.99,1.62-3.6,3.6-3.6H63.45c1.99,0,3.6,1.62,3.6,3.6V14.01c0,.55-.45,1-1,1s-1-.45-1-1V3.6c0-.88-.72-1.6-1.6-1.6H19.21c-.88,0-1.6,.72-1.6,1.6V47.84c0,.55-.45,1-1,1Z"/><path class="cls-1" d="M21.82,48.84c-.55,0-1-.45-1-1V11.41c0-.55,.45-1,1-1H60.85c.55,0,1,.45,1,1v6.51c0,.55-.45,1-1,1s-1-.45-1-1v-5.51H22.82V47.84c0,.55-.45,1-1,1Z"/><path class="cls-1" d="M60.85,67.05H21.82c-.55,0-1-.45-1-1v-2.6c0-.55,.45-1,1-1s1,.45,1,1v1.6H60.85c.55,0,1,.45,1,1s-.45,1-1,1Z"/><path class="cls-1" d="M49.14,7.2h-15.61c-.55,0-1-.45-1-1s.45-1,1-1h15.61c.55,0,1,.45,1,1s-.45,1-1,1Z"/><circle class="cls-1" cx="28.32" cy="6.2" r="1.3"/><path class="cls-1" d="M6.2,54.04H1c-.55,0-1-.45-1-1s.45-1,1-1H6.2c.55,0,1,.45,1,1s-.45,1-1,1Z"/><path class="cls-1" d="M32.23,38.43h-5.2c-.55,0-1-.45-1-1s.45-1,1-1h5.2c.55,0,1,.45,1,1s-.45,1-1,1Z"/><path class="cls-1" d="M34.83,33.23h-2.6c-.55,0-1-.45-1-1s.45-1,1-1h2.6c.55,0,1,.45,1,1s-.45,1-1,1Z"/><path class="cls-1" d="M32.23,54.04H11.41c-.55,0-1-.45-1-1s.45-1,1-1h20.82c.55,0,1,.45,1,1s-.45,1-1,1Z"/><path class="cls-1" d="M21.82,48.84H4.9c-.55,0-1-.45-1-1s.45-1,1-1H21.82c.55,0,1,.45,1,1s-.45,1-1,1Z"/><path class="cls-1" d="M50.44,59.25H8.81c-.55,0-1-.45-1-1s.45-1,1-1H50.44c.55,0,1,.45,1,1s-.45,1-1,1Z"/><path class="cls-1" d="M49.14,74.86h-15.61c-.55,0-1-.45-1-1s.45-1,1-1h15.61c.55,0,1,.45,1,1s-.45,1-1,1Z"/><path class="cls-1" d="M56.95,44.94h0c-.38,0-.72-.21-.89-.55l-3.13-6.27-1.65,2.47c-.19,.28-.5,.45-.83,.45h-2.6c-.55,0-1-.45-1-1s.45-1,1-1h2.07l2.31-3.46c.2-.3,.53-.47,.89-.44,.36,.02,.67,.23,.83,.55l3.01,6.02,5.61-11.22c.17-.35,.54-.56,.92-.55,.39,.01,.74,.25,.89,.61l3.64,8.5h11.05c.55,0,1,.45,1,1s-.45,1-1,1h-11.71c-.4,0-.76-.24-.92-.61l-3.05-7.13-5.54,11.08c-.17,.34-.52,.55-.89,.55Z"/><path class="cls-1" d="M60.85,61.85c-.22,0-.43-.07-.62-.21-4.5-3.51-14.9-13.9-18.39-20.34-1.71-3.14-2.81-7.17-2.81-10.27,0-3.41,1.25-6.62,3.51-9.04,2.28-2.43,5.31-3.77,8.55-3.77s6.27,1.34,8.55,3.77c.44,.47,.84,.97,1.21,1.51,.37-.54,.77-1.05,1.21-1.51,2.28-2.43,5.31-3.77,8.54-3.77s6.27,1.34,8.55,3.77c2.26,2.42,3.51,5.63,3.51,9.04,0,2.8-.91,6.42-2.38,9.45-.24,.5-.84,.7-1.34,.46-.5-.24-.7-.84-.46-1.34,1.35-2.77,2.18-6.06,2.18-8.57,0-2.9-1.06-5.62-2.97-7.67-1.9-2.02-4.41-3.14-7.09-3.14s-5.19,1.12-7.09,3.14c-.7,.74-1.29,1.6-1.78,2.56-.34,.67-1.45,.67-1.79,0-.48-.96-1.08-1.82-1.78-2.56-1.9-2.03-4.42-3.14-7.09-3.14s-5.19,1.12-7.09,3.14c-1.92,2.05-2.97,4.77-2.97,7.67,0,2.75,1.03,6.49,2.57,9.32,3.22,5.94,12.6,15.41,17.25,19.23,3.83-3.14,10.23-9.61,14.33-14.94,.34-.44,.96-.52,1.4-.18,.44,.34,.52,.96,.18,1.4-4.42,5.75-11.48,12.81-15.3,15.79-.18,.14-.4,.21-.62,.21Z"/></g></g></svg>