<?xml version="1.0" encoding="UTF-8"?><svg id="Layer_2" xmlns="http://www.w3.org/2000/svg" viewBox="0 0 86.87 86.87"><defs><style>.cls-1{fill:#6cace3;}</style></defs><g id="work"><g id="hospital"><path class="cls-1" d="M83.13,86.87c-.55,0-1-.45-1-1v-9.58c0-.55,.45-1,1-1s1,.45,1,1v9.58c0,.55-.45,1-1,1Z"/><path class="cls-1" d="M83.13,52.65c-.55,0-1-.45-1-1V23.9H29.38v27.75c0,.55-.45,1-1,1s-1-.45-1-1V22.9c0-.55,.45-1,1-1h54.76c.55,0,1,.45,1,1v28.75c0,.55-.45,1-1,1Z"/><path class="cls-1" d="M35.22,34.85c-.55,0-1-.45-1-1v-2.74c0-.55,.45-1,1-1h2.74c.55,0,1,.45,1,1s-.45,1-1,1h-1.74v1.74c0,.55-.45,1-1,1Z"/><path class="cls-1" d="M44.8,34.85c-.55,0-1-.45-1-1v-2.74c0-.55,.45-1,1-1h2.74c.55,0,1,.45,1,1s-.45,1-1,1h-1.74v1.74c0,.55-.45,1-1,1Z"/><path class="cls-1" d="M54.39,34.85c-.55,0-1-.45-1-1v-2.74c0-.55,.45-1,1-1h2.74c.55,0,1,.45,1,1s-.45,1-1,1h-1.74v1.74c0,.55-.45,1-1,1Z"/><path class="cls-1" d="M63.97,34.85c-.55,0-1-.45-1-1v-2.74c0-.55,.45-1,1-1h2.74c.55,0,1,.45,1,1s-.45,1-1,1h-1.74v1.74c0,.55-.45,1-1,1Z"/><path class="cls-1" d="M73.55,34.85c-.55,0-1-.45-1-1v-2.74c0-.55,.45-1,1-1h2.74c.55,0,1,.45,1,1s-.45,1-1,1h-1.74v1.74c0,.55-.45,1-1,1Z"/><path class="cls-1" d="M35.22,47.17c-.55,0-1-.45-1-1v-2.74c0-.55,.45-1,1-1h2.74c.55,0,1,.45,1,1s-.45,1-1,1h-1.74v1.74c0,.55-.45,1-1,1Z"/><path class="cls-1" d="M44.8,47.17c-.55,0-1-.45-1-1v-2.74c0-.55,.45-1,1-1h2.74c.55,0,1,.45,1,1s-.45,1-1,1h-1.74v1.74c0,.55-.45,1-1,1Z"/><path class="cls-1" d="M54.39,47.17c-.55,0-1-.45-1-1v-2.74c0-.55,.45-1,1-1h2.74c.55,0,1,.45,1,1s-.45,1-1,1h-1.74v1.74c0,.55-.45,1-1,1Z"/><path class="cls-1" d="M63.97,47.17c-.55,0-1-.45-1-1v-2.74c0-.55,.45-1,1-1h2.74c.55,0,1,.45,1,1s-.45,1-1,1h-1.74v1.74c0,.55-.45,1-1,1Z"/><path class="cls-1" d="M73.55,47.17c-.55,0-1-.45-1-1v-2.74c0-.55,.45-1,1-1h2.74c.55,0,1,.45,1,1s-.45,1-1,1h-1.74v1.74c0,.55-.45,1-1,1Z"/><path class="cls-1" d="M9.21,51.28c-.55,0-1-.45-1-1v-6.84c0-.55,.45-1,1-1h13.69c.55,0,1,.45,1,1s-.45,1-1,1H10.21v5.84c0,.55-.45,1-1,1Z"/><path class="cls-1" d="M9.21,63.6c-.55,0-1-.45-1-1v-6.84c0-.55,.45-1,1-1h13.69c.55,0,1,.45,1,1s-.45,1-1,1H10.21v5.84c0,.55-.45,1-1,1Z"/><path class="cls-1" d="M9.21,75.92c-.55,0-1-.45-1-1v-6.84c0-.55,.45-1,1-1h13.69c.55,0,1,.45,1,1s-.45,1-1,1H10.21v5.84c0,.55-.45,1-1,1Z"/><path class="cls-1" d="M85.87,86.87H1c-.55,0-1-.45-1-1s.45-1,1-1H85.87c.55,0,1,.45,1,1s-.45,1-1,1Z"/><path class="cls-1" d="M77.66,73.18c-5.08,0-9.21-4.13-9.21-9.21s4.13-9.21,9.21-9.21,9.21,4.13,9.21,9.21-4.13,9.21-9.21,9.21Zm0-16.43c-3.98,0-7.21,3.24-7.21,7.21s3.24,7.21,7.21,7.21,7.21-3.24,7.21-7.21-3.24-7.21-7.21-7.21Z"/><path class="cls-1" d="M77.66,86.87c-.55,0-1-.45-1-1v-18.25c0-.27,.11-.52,.29-.71l2.74-2.74c.39-.39,1.02-.39,1.41,0,.39,.39,.39,1.02,0,1.41l-2.44,2.45v17.84c0,.55-.45,1-1,1Z"/><path class="cls-1" d="M33.85,73.18c-5.08,0-9.21-4.13-9.21-9.21s4.13-9.21,9.21-9.21,9.21,4.13,9.21,9.21-4.13,9.21-9.21,9.21Zm0-16.43c-3.98,0-7.21,3.24-7.21,7.21s3.24,7.21,7.21,7.21,7.21-3.24,7.21-7.21-3.24-7.21-7.21-7.21Z"/><path class="cls-1" d="M33.85,86.87c-.55,0-1-.45-1-1v-18.25c0-.27,.11-.52,.29-.71l2.74-2.74c.39-.39,1.02-.39,1.41,0,.39,.39,.39,1.02,0,1.41l-2.44,2.45v17.84c0,.55-.45,1-1,1Z"/><g><path class="cls-1" d="M66.71,18.43c-.51,0-.95-.4-1-.92l-1.29-15.51h-17.32l-1.29,15.51c-.04,.55-.52,.96-1.08,.91-.55-.05-.96-.53-.91-1.08L45.18,.92c.04-.52,.48-.92,1-.92h19.16c.52,0,.95,.4,1,.92l1.37,16.43c.05,.55-.36,1.03-.91,1.08-.03,0-.06,0-.08,0Z"/><path class="cls-1" d="M51.65,18.43c-.55,0-1-.45-1-1V6.48c0-.55,.45-1,1-1s1,.45,1,1v10.95c0,.55-.45,1-1,1Z"/><path class="cls-1" d="M59.86,18.43c-.55,0-1-.45-1-1V6.48c0-.55,.45-1,1-1s1,.45,1,1v10.95c0,.55-.45,1-1,1Z"/><path class="cls-1" d="M59.86,11.58h-8.21c-.55,0-1-.45-1-1s.45-1,1-1h8.21c.55,0,1,.45,1,1s-.45,1-1,1Z"/></g><g><path class="cls-1" d="M55.76,81.4c-.55,0-1-.45-1-1v-12.32c0-.55,.45-1,1-1s1,.45,1,1v12.32c0,.55-.45,1-1,1Z"/><path class="cls-1" d="M66.71,86.87c-.55,0-1-.45-1-1v-4.48h-19.9v4.48c0,.55-.45,1-1,1s-1-.45-1-1v-5.48c0-.55,.45-1,1-1h21.9c.55,0,1,.45,1,1v5.48c0,.55-.45,1-1,1Z"/><path class="cls-1" d="M63.97,81.4h-16.43c-.55,0-1-.45-1-1v-12.32c0-.55,.45-1,1-1h16.43c.55,0,1,.45,1,1v12.32c0,.55-.45,1-1,1Zm-15.43-2h14.43v-10.32h-14.43v10.32Z"/></g><path class="cls-1" d="M28.38,32.12H5.11c-.55,0-1-.45-1-1s.45-1,1-1H28.38c.55,0,1,.45,1,1s-.45,1-1,1Z"/><path class="cls-1" d="M11.95,38.96c-.55,0-1-.45-1-1v-6.84c0-.55,.45-1,1-1s1,.45,1,1v6.84c0,.55-.45,1-1,1Z"/><path class="cls-1" d="M6.48,38.96c-.55,0-1-.45-1-1v-6.84c0-.55,.45-1,1-1s1,.45,1,1v6.84c0,.55-.45,1-1,1Z"/><path class="cls-1" d="M17.43,38.96c-.55,0-1-.45-1-1v-6.84c0-.55,.45-1,1-1s1,.45,1,1v6.84c0,.55-.45,1-1,1Z"/><path class="cls-1" d="M22.9,38.96c-.55,0-1-.45-1-1v-6.84c0-.55,.45-1,1-1s1,.45,1,1v6.84c0,.55-.45,1-1,1Z"/><path class="cls-1" d="M3.74,74.55c-.55,0-1-.45-1-1V37.96c0-.55,.45-1,1-1H28.38c.55,0,1,.45,1,1s-.45,1-1,1H4.74v34.59c0,.55-.45,1-1,1Z"/><path class="cls-1" d="M44.8,59.49c-.55,0-1-.45-1-1v-2.74c0-.55,.45-1,1-1h2.74c.55,0,1,.45,1,1s-.45,1-1,1h-1.74v1.74c0,.55-.45,1-1,1Z"/><path class="cls-1" d="M54.39,59.49c-.55,0-1-.45-1-1v-2.74c0-.55,.45-1,1-1h2.74c.55,0,1,.45,1,1s-.45,1-1,1h-1.74v1.74c0,.55-.45,1-1,1Z"/><path class="cls-1" d="M63.97,59.49c-.55,0-1-.45-1-1v-2.74c0-.55,.45-1,1-1h2.74c.55,0,1,.45,1,1s-.45,1-1,1h-1.74v1.74c0,.55-.45,1-1,1Z"/><path class="cls-1" d="M28.38,86.87c-.55,0-1-.45-1-1v-9.58c0-.55,.45-1,1-1s1,.45,1,1v9.58c0,.55-.45,1-1,1Z"/><path class="cls-1" d="M18.8,86.87c-2.82,0-5.11-2.29-5.11-5.11,0-3.74,3.84-3.74,5.11-3.74s5.11,0,5.11,3.74c0,2.81-2.29,5.11-5.11,5.11Zm0-6.84c-2.87,0-3.11,.82-3.11,1.74,0,1.71,1.39,3.11,3.11,3.11s3.11-1.39,3.11-3.11c0-.92-.24-1.74-3.11-1.74Z"/><path class="cls-1" d="M5.11,86.87c-2.82,0-5.11-2.29-5.11-5.11,0-3.74,3.84-3.74,5.11-3.74s5.11,0,5.11,3.74c0,2.81-2.29,5.11-5.11,5.11Zm0-6.84c-2.87,0-3.11,.82-3.11,1.74,0,1.71,1.39,3.11,3.11,3.11s3.11-1.39,3.11-3.11c0-.92-.24-1.74-3.11-1.74Z"/></g></g></svg>