<?xml version="1.0" encoding="UTF-8"?><svg id="Layer_2" xmlns="http://www.w3.org/2000/svg" viewBox="0 0 82.35 82.35"><defs><style>.cls-1{fill:#6cace3;}</style></defs><g id="work"><g id="medical_prescription"><path class="cls-1" d="M58.02,21.44h-19.44c-.55,0-1-.45-1-1V8.78c0-.55,.45-1,1-1s1,.45,1,1v10.66h18.44c.55,0,1,.45,1,1s-.45,1-1,1Z"/><path class="cls-1" d="M50.33,82.35H1c-.55,0-1-.45-1-1V1C0,.45,.45,0,1,0H38.58c.27,0,.52,.11,.71,.29l19.44,19.44c.19,.19,.29,.44,.29,.71v16.85c0,.55-.45,1-1,1s-1-.45-1-1V20.85L38.17,2H2V80.35H50.33c.55,0,1,.45,1,1s-.45,1-1,1Z"/><path class="cls-1" d="M20.44,11.07H11.37c-.55,0-1-.45-1-1s.45-1,1-1h9.07c.55,0,1,.45,1,1s-.45,1-1,1Z"/><path class="cls-1" d="M20.44,16.26H11.37c-.55,0-1-.45-1-1s.45-1,1-1h9.07c.55,0,1,.45,1,1s-.45,1-1,1Z"/><path class="cls-1" d="M28.22,21.44H11.37c-.55,0-1-.45-1-1s.45-1,1-1H28.22c.55,0,1,.45,1,1s-.45,1-1,1Z"/><g><g><path class="cls-1" d="M59.33,82.35c-.08,0-.17,0-.25-.03-4.94-1.27-8.53-6.04-8.53-11.34v-18.14c0-6.27,5.1-11.37,11.37-11.37s11.37,5.1,11.37,11.37v2.59c0,.55-.45,1-1,1s-1-.45-1-1v-2.59c0-5.17-4.2-9.37-9.37-9.37s-9.37,4.2-9.37,9.37v18.14c0,4.4,2.96,8.35,7.03,9.4,.53,.14,.86,.68,.72,1.22-.12,.45-.52,.75-.97,.75Z"/><path class="cls-1" d="M59.32,62.91h-7.78c-.55,0-1-.45-1-1s.45-1,1-1h7.78c.55,0,1,.45,1,1s-.45,1-1,1Z"/><path class="cls-1" d="M56.73,53.84c-.55,0-1-.45-1-1,0-3.41,2.77-6.18,6.18-6.18,.55,0,1,.45,1,1s-.45,1-1,1c-2.31,0-4.18,1.88-4.18,4.18,0,.55-.45,1-1,1Z"/></g><g><path class="cls-1" d="M70.98,82.35c-2.91,0-5.82-1.11-8.04-3.32-4.43-4.43-4.43-11.64,0-16.08,.39-.39,1.02-.39,1.41,0s.39,1.02,0,1.41c-3.65,3.65-3.65,9.6,0,13.25,3.65,3.65,9.6,3.65,13.25,0,.39-.39,1.02-.39,1.41,0s.39,1.02,0,1.41c-2.22,2.22-5.13,3.32-8.04,3.32Z"/><path class="cls-1" d="M78.32,79.32c-.26,0-.51-.1-.71-.29-.39-.39-.39-1.02,0-1.41,3.65-3.65,3.65-9.6,0-13.25-3.65-3.65-9.6-3.65-13.25,0-.39,.39-1.02,.39-1.41,0s-.39-1.02,0-1.41c4.43-4.43,11.65-4.43,16.08,0,4.43,4.43,4.43,11.64,0,16.08-.2,.2-.45,.29-.71,.29Z"/></g><path class="cls-1" d="M63.65,79.31c-.26,0-.51-.1-.71-.29-.39-.39-.39-1.02,0-1.41l14.66-14.66c.39-.39,1.02-.39,1.41,0s.39,1.02,0,1.41l-14.66,14.66c-.2,.2-.45,.29-.71,.29Z"/></g><g><path class="cls-1" d="M19.14,55.14h-7.78c-.55,0-1-.45-1-1s.45-1,1-1h7.78c3.02,0,5.48-2.46,5.48-5.48s-2.46-5.48-5.48-5.48h-7.78c-.55,0-1-.45-1-1s.45-1,1-1h7.78c4.12,0,7.48,3.35,7.48,7.48s-3.36,7.48-7.48,7.48Z"/><path class="cls-1" d="M11.37,60.32c-.55,0-1-.45-1-1v-18.14c0-.55,.45-1,1-1s1,.45,1,1v18.14c0,.55-.45,1-1,1Z"/><path class="cls-1" d="M28.22,64.21c-.26,0-.51-.1-.71-.29l-9.07-9.07c-.39-.39-.39-1.02,0-1.41s1.02-.39,1.41,0l9.07,9.07c.39,.39,.39,1.02,0,1.41-.2,.2-.45,.29-.71,.29Z"/><path class="cls-1" d="M37.29,73.28c-.26,0-.51-.1-.71-.29l-5.18-5.18c-.39-.39-.39-1.02,0-1.41s1.02-.39,1.41,0l5.18,5.18c.39,.39,.39,1.02,0,1.41-.2,.2-.45,.29-.71,.29Z"/><path class="cls-1" d="M19.14,73.28c-.26,0-.51-.1-.71-.29-.39-.39-.39-1.02,0-1.41l18.14-18.14c.39-.39,1.02-.39,1.41,0s.39,1.02,0,1.41l-18.14,18.14c-.2,.2-.45,.29-.71,.29Z"/></g></g></g></svg>