<?xml version="1.0" encoding="UTF-8"?><svg id="Layer_2" xmlns="http://www.w3.org/2000/svg" viewBox="0 0 82.67 82.67"><defs><style>.cls-1{fill:#6cace3;}</style></defs><g id="work"><g id="medical_check_home_doctor"><path class="cls-1" d="M54.34,77.46c-1.99,0-3.6-1.62-3.6-3.6s1.62-3.6,3.6-3.6,3.6,1.62,3.6,3.6-1.62,3.6-3.6,3.6Zm0-5.2c-.88,0-1.6,.72-1.6,1.6s.72,1.6,1.6,1.6,1.6-.72,1.6-1.6-.72-1.6-1.6-1.6Z"/><path class="cls-1" d="M54.34,82.67c-4.86,0-8.81-3.95-8.81-8.81s3.95-8.81,8.81-8.81c2.49,0,4.88,1.07,6.55,2.93,.37,.41,.33,1.04-.08,1.41-.41,.37-1.04,.33-1.41-.08-1.29-1.44-3.14-2.27-5.06-2.27-3.75,0-6.81,3.05-6.81,6.81s3.05,6.81,6.81,6.81c1.92,0,3.77-.83,5.06-2.27,.37-.41,1-.44,1.41-.08,.41,.37,.45,1,.08,1.41-1.67,1.86-4.06,2.93-6.55,2.93Z"/><path class="cls-1" d="M34.83,25.42c-1.99,0-3.61-1.62-3.61-3.6s1.62-3.6,3.61-3.6,3.6,1.62,3.6,3.6-1.61,3.6-3.6,3.6Zm0-5.2c-.89,0-1.61,.72-1.61,1.6s.72,1.6,1.61,1.6,1.6-.72,1.6-1.6-.72-1.6-1.6-1.6Z"/><path class="cls-1" d="M41.33,61.85c-.17,0-.33-.04-.49-.13-.23-.13-5.69-3.2-11.24-8.18-7.56-6.78-11.39-13.52-11.39-20.01,0-8.08,4.63-12.71,12.71-12.71h1.3c.55,0,1,.45,1,1s-.45,1-1,1h-1.3c-7.01,0-10.71,3.7-10.71,10.71,0,14.19,21.39,26.33,21.61,26.45,.48,.27,.65,.88,.38,1.36-.18,.33-.52,.51-.87,.51Z"/><path class="cls-1" d="M47.83,25.42c-1.98,0-3.6-1.62-3.6-3.6s1.61-3.6,3.6-3.6,3.61,1.62,3.61,3.6-1.62,3.6-3.61,3.6Zm0-5.2c-.88,0-1.6,.72-1.6,1.6s.72,1.6,1.6,1.6,1.61-.72,1.61-1.6-.72-1.6-1.61-1.6Z"/><path class="cls-1" d="M27.02,82.67c-8.44,0-15.31-6.87-15.31-15.31v-29.92c0-.88-.72-1.6-1.6-1.6H3.6c-1.99,0-3.6-1.62-3.6-3.6,0-1.02,.91-2.04,3.06-3.44L38.88,.97C39.69,.32,40.49,0,41.33,0c0,0,.01,0,.02,0,.83,0,1.63,.32,2.45,.98l35.88,27.85c2.08,1.35,2.99,2.38,2.99,3.39,0,1.99-1.62,3.6-3.6,3.6h-6.5c-.88,0-1.6,.72-1.6,1.6v29.92c0,4.14-3.37,7.51-7.5,7.51h-6.51c-.55,0-1-.45-1-1s.45-1,1-1h6.51c3.04,0,5.5-2.47,5.5-5.51v-29.92c0-1.99,1.62-3.6,3.6-3.6h6.5c.88,0,1.6-.72,1.6-1.6h0s-.24-.52-2.15-1.76L42.56,2.55c-.47-.38-.86-.55-1.22-.55,0,0,0,0,0,0-.37,0-.75,.17-1.21,.54L4.22,30.41c-2,1.3-2.21,1.82-2.22,1.88,0,.82,.73,1.54,1.61,1.54h6.5c1.99,0,3.6,1.62,3.6,3.6v29.92c0,7.34,5.97,13.31,13.31,13.31s13.31-5.97,13.31-13.31v-6.51c0-.36,.2-.7,.51-.87,.22-.12,21.61-12.26,21.61-26.45,0-7.01-3.7-10.71-10.71-10.71h-1.3c-.55,0-1-.45-1-1s.45-1,1-1h1.3c8.08,0,12.71,4.63,12.71,12.71,0,6.5-3.83,13.23-11.39,20.01-4.64,4.16-9.22,6.99-10.73,7.88v5.93c0,8.44-6.87,15.31-15.31,15.31Z"/></g></g></svg>