<?xml version="1.0" encoding="UTF-8"?><svg id="Layer_2" xmlns="http://www.w3.org/2000/svg" viewBox="0 0 82.67 82.67"><defs><style>.cls-1{fill:#6cace3;}</style></defs><g id="work"><g id="online_medical_consultation-diagnosis"><path class="cls-1" d="M3.6,74.8c-.55,0-1-.45-1-1V27.43c0-2.93,2.38-5.31,5.31-5.31h8.7c.55,0,1,.45,1,1s-.45,1-1,1H7.92c-1.83,0-3.31,1.49-3.31,3.31v46.36c0,.55-.45,1-1,1Z"/><path class="cls-1" d="M8.81,46.24c-.55,0-1-.45-1-1V28.32c0-.55,.45-1,1-1h7.81c.55,0,1,.45,1,1s-.45,1-1,1h-6.81v15.91c0,.55-.45,1-1,1Z"/><path class="cls-1" d="M72.56,82.67H10.11c-3.65,0-6.24-.82-7.93-2.51C.73,78.7,0,76.58,0,73.86c0-.55,.45-1,1-1H29.62c.55,0,1,.45,1,1v1.6h21.42v-1.6c0-.55,.45-1,1-1h28.62c.55,0,1,.45,1,1,0,5.43-3.87,8.81-10.11,8.81ZM2.04,74.86c.14,1.69,.65,2.97,1.56,3.88,1.29,1.29,3.42,1.92,6.51,1.92h62.45c2.3,0,7.47-.59,8.05-5.81h-26.57v1.6c0,.55-.45,1-1,1H29.62c-.55,0-1-.45-1-1v-1.6H2.04Z"/><path class="cls-1" d="M36.13,59.02c-.18,0-.37-.05-.53-.15-10.38-6.49-9.61-13.47-9.57-13.76,.07-.55,.58-.94,1.12-.86,.55,.07,.93,.57,.87,1.11-.03,.25-.54,5.83,8.1,11.47,1.86-1.29,8.12-6.04,8.12-11.59,0-.55,.45-1,1-1s1,.45,1,1c0,7.6-9.19,13.39-9.58,13.63-.16,.1-.34,.15-.53,.15Z"/><path class="cls-1" d="M21.82,59.25c-.55,0-1-.45-1-1v-6.51c0-2.07,1.25-6.3,5.96-7.48,.53-.14,1.08,.19,1.21,.73,.13,.54-.19,1.08-.73,1.21-4.36,1.09-4.45,5.36-4.45,5.54v6.5c0,.55-.45,1-1,1Z"/><path class="cls-1" d="M50.44,61.85c-.55,0-1-.45-1-1v-9.11c0-.18-.09-4.45-4.45-5.54-.54-.13-.86-.68-.73-1.21,.13-.54,.67-.86,1.21-.73,4.72,1.18,5.96,5.41,5.96,7.48v9.11c0,.55-.45,1-1,1Z"/><path class="cls-1" d="M28.32,69.66h-2.6c-.55,0-1-.45-1-1s.45-1,1-1h1.6v-1.42c0-3.38-2.21-6.99-5.51-6.99s-5.5,3.62-5.5,6.99v1.42h1.79c.55,0,1,.45,1,1s-.45,1-1,1h-2.79c-.55,0-1-.45-1-1v-2.42c0-4.88,3.44-8.99,7.5-8.99s7.51,4.12,7.51,8.99v2.42c0,.55-.45,1-1,1Z"/><path class="cls-1" d="M50.44,69.66c-2.7,0-4.9-2.2-4.9-4.9s2.2-4.9,4.9-4.9,4.9,2.2,4.9,4.9-2.2,4.9-4.9,4.9Zm0-7.81c-1.6,0-2.9,1.3-2.9,2.9s1.3,2.9,2.9,2.9,2.9-1.3,2.9-2.9-1.3-2.9-2.9-2.9Z"/><path class="cls-1" d="M79.07,74.8c-.55,0-1-.45-1-1V32.23c0-.55,.45-1,1-1s1,.45,1,1v41.57c0,.55-.45,1-1,1Z"/><path class="cls-1" d="M73.86,74.83c-.55,0-1-.45-1-1V32.23c0-.55,.45-1,1-1s1,.45,1,1v41.6c0,.55-.45,1-1,1Z"/><path class="cls-1" d="M36.13,39.73c-8.44,0-15.31-6.87-15.31-15.31V15.31C20.82,6.87,27.69,0,36.13,0s15.31,6.87,15.31,15.31v9.11c0,6.14-3.9,11.84-9.7,14.19-.51,.21-1.1-.04-1.3-.55-.21-.51,.04-1.09,.55-1.3,5.05-2.05,8.45-7.01,8.45-12.34V15.31c0-7.34-5.97-13.31-13.31-13.31s-13.31,5.97-13.31,13.31v9.11c0,7.34,5.97,13.31,13.31,13.31,.55,0,1,.45,1,1s-.45,1-1,1Z"/><path class="cls-1" d="M8.81,69.66c-.55,0-1-.45-1-1v-9.45c0-7.5,3.85-12.76,10.31-14.05l9-1.2c.62-.09,1.51-.58,1.51-1.38v-4.75c0-.55,.45-1,1-1s1,.45,1,1v4.75c0,1.88-1.67,3.14-3.23,3.36l-8.95,1.19c-5.46,1.1-8.64,5.5-8.64,12.08v9.45c0,.55-.45,1-1,1Z"/><path class="cls-1" d="M63.45,69.66c-.55,0-1-.45-1-1v-9.45c0-6.57-3.17-10.98-8.7-12.09l-8.87-1.18c-1.58-.23-3.25-1.49-3.25-3.36v-4.75c0-.55,.45-1,1-1s1,.45,1,1v4.75c0,.8,.89,1.29,1.52,1.38l8.92,1.19c6.52,1.3,10.37,6.55,10.37,14.06v9.45c0,.55-.45,1-1,1Z"/><path class="cls-1" d="M58.25,35.83c-.15,0-.29-.03-.43-.1-.35-.17-.57-.52-.57-.9v-6.81h-1.6c-.55,0-1-.45-1-1s.45-1,1-1h2.6c.55,0,1,.45,1,1v5.73l8.13-6.51c.18-.14,.4-.22,.62-.22h12.66V2h-27.92v1.6c0,.55-.45,1-1,1s-1-.45-1-1V1c0-.55,.45-1,1-1h29.92c.55,0,1,.45,1,1V27.02c0,.55-.45,1-1,1h-13.31l-9.48,7.59c-.18,.14-.4,.22-.62,.22Z"/></g></g></svg>