<?xml version="1.0" encoding="UTF-8"?><svg id="Layer_2" xmlns="http://www.w3.org/2000/svg" viewBox="0 0 87.34 81.83"><defs><style>.cls-1{fill:#6cace3;}</style></defs><g id="work"><g id="syringe"><g><path class="cls-1" d="M56.23,26.61c-.26,0-.51-.1-.71-.29-.39-.39-.39-1.02,0-1.41L80.13,.29c.39-.39,1.02-.39,1.41,0s.39,1.02,0,1.41l-24.61,24.61c-.2,.2-.45,.29-.71,.29Z"/><path class="cls-1" d="M55.25,33.42c-.26,0-.51-.1-.71-.29-.39-.39-.39-1.02,0-1.41l.97-.97c1.22-1.22,1.22-3.21,0-4.43-1.22-1.22-3.21-1.22-4.43,0l-.97,.97c-.39,.39-1.02,.39-1.41,0-.39-.39-.39-1.02,0-1.41l.97-.97c2-2,5.25-2,7.25,0,2,2,2,5.26,0,7.26l-.97,.97c-.2,.19-.45,.29-.71,.29Z"/><path class="cls-1" d="M22.25,73.07c-.26,0-.51-.1-.71-.29-.39-.39-.39-1.02,0-1.41L55.92,36.99c.33-.33,.51-.77,.51-1.24s-.18-.91-.51-1.24l-8.59-8.59c-.66-.66-1.82-.66-2.48,0L10.47,60.29c-.39,.39-1.02,.39-1.41,0s-.39-1.02,0-1.41L43.44,24.5c1.42-1.42,3.89-1.42,5.31,0l8.59,8.59c.71,.71,1.1,1.65,1.1,2.65s-.39,1.95-1.1,2.65L22.95,72.78c-.2,.2-.45,.29-.71,.29Z"/><path class="cls-1" d="M24.19,75.02c-.26,0-.51-.1-.71-.29L7.11,58.35c-.39-.39-.39-1.02,0-1.41s1.02-.39,1.41,0l16.38,16.38c.39,.39,.39,1.02,0,1.41-.2,.2-.45,.29-.71,.29Z"/><path class="cls-1" d="M3.75,72.2c-.26,0-.51-.1-.71-.29-.39-.39-.39-1.02,0-1.41l4.13-4.13c.39-.39,1.02-.39,1.41,0s.39,1.02,0,1.41l-4.13,4.13c-.2,.2-.45,.29-.71,.29Z"/><path class="cls-1" d="M10.64,79.08c-.26,0-.51-.1-.71-.29-.39-.39-.39-1.02,0-1.41l4.13-4.13c.39-.39,1.02-.39,1.41,0s.39,1.02,0,1.41l-4.13,4.13c-.2,.2-.45,.29-.71,.29Z"/><path class="cls-1" d="M12.01,81.83c-.26,0-.51-.1-.71-.29L.29,70.53c-.39-.39-.39-1.02,0-1.41s1.02-.39,1.41,0l11.01,11.01c.39,.39,.39,1.02,0,1.41-.2,.2-.45,.29-.71,.29Z"/><path class="cls-1" d="M23.7,50.54c-.26,0-.51-.1-.71-.29l-1.95-1.95c-.39-.39-.39-1.02,0-1.41s1.02-.39,1.41,0l1.95,1.95c.39,.39,.39,1.02,0,1.41-.2,.2-.45,.29-.71,.29Z"/><path class="cls-1" d="M20.78,57.35c-.26,0-.51-.1-.71-.29l-3.89-3.89c-.39-.39-.39-1.02,0-1.41s1.02-.39,1.41,0l3.89,3.89c.39,.39,.39,1.02,0,1.41-.2,.2-.45,.29-.71,.29Z"/><path class="cls-1" d="M30.52,47.62c-.26,0-.51-.1-.71-.29l-3.89-3.89c-.39-.39-.39-1.02,0-1.41s1.02-.39,1.41,0l3.89,3.89c.39,.39,.39,1.02,0,1.41-.2,.2-.45,.29-.71,.29Z"/><path class="cls-1" d="M33.44,40.81c-.26,0-.51-.1-.71-.29l-1.95-1.95c-.39-.39-.39-1.02,0-1.41s1.02-.39,1.41,0l1.95,1.95c.39,.39,.39,1.02,0,1.41-.2,.2-.45,.29-.71,.29Z"/><path class="cls-1" d="M40.25,37.89c-.26,0-.51-.1-.71-.29l-3.89-3.89c-.39-.39-.39-1.02,0-1.41s1.02-.39,1.41,0l3.89,3.89c.39,.39,.39,1.02,0,1.41-.2,.2-.45,.29-.71,.29Z"/><path class="cls-1" d="M43.17,31.07c-.26,0-.51-.1-.71-.29l-1.95-1.95c-.39-.39-.39-1.02,0-1.41,.39-.39,1.02-.39,1.41,0l1.95,1.95c.39,.39,.39,1.02,0,1.41-.2,.2-.45,.29-.71,.29Z"/></g><path class="cls-1" d="M80.83,29.53c-3.58,0-6.5-2.85-6.51-6.36,0-4.66,5.57-10.14,5.81-10.37,.39-.38,1.01-.38,1.4,0l-.7,.71,.7-.71c.59,.59,5.8,5.85,5.8,10.36,0,3.51-2.92,6.36-6.51,6.36Zm0-14.58c-1.7,1.84-4.51,5.48-4.51,8.21,0,2.41,2.02,4.36,4.51,4.36s4.5-1.96,4.5-4.36c0-2.74-2.81-6.37-4.51-8.21Z"/></g></g></svg>