<?xml version="1.0" encoding="UTF-8"?><svg id="Layer_2" xmlns="http://www.w3.org/2000/svg" viewBox="0 0 96.88 100.25"><defs><style>.cls-1{fill:#fff;}</style></defs><g id="work"><g id="_6"><path class="cls-1" d="M36.15,100.25c-4.65,0-8.83-2.46-11.1-6.48-.55,.07-1.11,.11-1.65,.11-7.05,0-12.78-5.73-12.78-12.78,0-1.07,.14-2.13,.41-3.18-4.83-1.9-8.12-6.64-8.12-11.89,0-2.51,.73-4.95,2.12-7.04,.12-.19,3.2-4.9,9.24-4.02,.59,.09,1,.64,.92,1.23-.09,.59-.64,1-1.23,.92-4.62-.68-7.01,2.9-7.11,3.06-1.16,1.75-1.77,3.77-1.77,5.85,0,4.66,3.12,8.84,7.59,10.17,.29,.08,.52,.28,.66,.55,.13,.26,.16,.57,.06,.85-.4,1.15-.6,2.32-.6,3.5,0,5.85,4.76,10.61,10.61,10.61,.67,0,1.35-.07,2.04-.2,.49-.09,.97,.15,1.18,.59,1.79,3.69,5.45,5.98,9.53,5.98,2.45,0,4.74-.81,6.61-2.33,.46-.38,1.15-.31,1.53,.16,.38,.47,.31,1.15-.16,1.53-2.27,1.84-5.03,2.82-7.98,2.82Z"/><path class="cls-1" d="M1.78,55.18c-.44,0-.86-.27-1.02-.72-.5-1.39-.76-2.85-.76-4.34,0-3.74,1.67-7.31,4.51-9.73-1.05-1.89-1.6-4.01-1.6-6.18,0-5.25,3.29-9.99,8.12-11.89-.27-1.05-.41-2.11-.41-3.18,0-7.59,6.67-13.69,14.43-12.67C27.32,2.46,31.5,0,36.15,0c6.98,0,12.65,5.76,12.65,12.83,0,.6-.49,1.09-1.09,1.09s-1.09-.49-1.09-1.09c0-5.88-4.7-10.66-10.48-10.66-4.08,0-7.74,2.29-9.53,5.98-.22,.44-.7,.68-1.18,.59-6.71-1.31-12.64,3.89-12.65,10.41,0,1.18,.2,2.36,.6,3.5,.1,.28,.08,.59-.06,.85-.14,.26-.37,.46-.66,.55-4.47,1.32-7.59,5.5-7.59,10.17,0,2.08,.61,4.11,1.76,5.84,.32,.49,.2,1.14-.27,1.48-2.76,1.99-4.4,5.21-4.4,8.59,0,1.24,.21,2.45,.63,3.6,.21,.56-.09,1.19-.65,1.39-.12,.04-.25,.07-.37,.07Z"/><path class="cls-1" d="M19.29,27.92c-2.28,0-5.18-.92-8.03-4.39-.38-.46-.32-1.15,.15-1.53,.46-.38,1.15-.31,1.53,.15,2.3,2.79,4.8,3.97,7.48,3.5,.59-.1,1.15,.29,1.26,.88,.1,.59-.29,1.15-.88,1.26-.46,.08-.96,.13-1.5,.13Z"/><path class="cls-1" d="M23.73,63.22c-.88,0-1.7-.15-2.39-.33-.58-.16-.92-.75-.76-1.33,.16-.58,.75-.92,1.33-.76,3.54,.96,5.87-.69,7.12-5.04,.17-.58,.77-.91,1.34-.74,.58,.17,.91,.77,.74,1.34-1.6,5.55-4.76,6.87-7.39,6.87Z"/><path class="cls-1" d="M25.64,93.61c-.5,0-.95-.35-1.06-.86-.04-.17-.87-4.14,.48-7.91,.2-.56,.82-.86,1.39-.66,.56,.2,.86,.82,.66,1.39-1.14,3.17-.41,6.69-.41,6.72,.12,.59-.25,1.16-.83,1.29-.08,.02-.15,.02-.23,.02Z"/><path class="cls-1" d="M11.8,41.69H5.94c-.6,0-1.09-.49-1.09-1.09s.49-1.09,1.09-1.09h5.86c.6,0,1.09,.49,1.09,1.09s-.49,1.09-1.09,1.09Z"/><path class="cls-1" d="M12.37,78.28c-.39,0-.77-.21-.96-.58-.28-.53-.08-1.19,.46-1.47l6.59-3.46c.54-.28,1.19-.07,1.47,.46,.28,.53,.08,1.19-.46,1.47l-6.59,3.46c-.16,.08-.33,.12-.5,.12Z"/><path class="cls-1" d="M27.83,12.09c-.36,0-.71-.18-.91-.5l-2.19-3.39c-.33-.5-.18-1.18,.32-1.5,.51-.33,1.18-.18,1.5,.32l2.19,3.39c.33,.5,.18,1.18-.32,1.5-.18,.12-.39,.17-.59,.17Z"/><path class="cls-1" d="M60.73,100.25c-7.05,0-12.78-5.73-12.78-12.78l.02-5.67c0-.6,.49-1.08,1.09-1.08h0c.6,0,1.08,.49,1.08,1.09l-.02,5.67c0,5.84,4.76,10.6,10.61,10.6,4.08,0,7.74-2.29,9.53-5.98,.22-.44,.7-.68,1.18-.59,.68,.13,1.37,.2,2.04,.2,5.85,0,10.61-4.76,10.61-10.61,0-1.18-.2-2.36-.6-3.5-.1-.28-.08-.59,.06-.85,.14-.26,.37-.46,.66-.55,4.47-1.32,7.59-5.5,7.59-10.17,0-2.09-.61-4.11-1.76-5.84-.32-.49-.2-1.14,.27-1.48,2.76-2,4.4-5.21,4.4-8.59,0-.86-.1-1.71-.31-2.54-.14-.58,.21-1.17,.79-1.31,.58-.14,1.17,.21,1.31,.79,.25,.99,.37,2.02,.37,3.06,0,3.74-1.67,7.31-4.51,9.73,1.05,1.89,1.6,4.01,1.6,6.19,0,5.25-3.29,9.99-8.12,11.89,.27,1.05,.41,2.11,.41,3.18,0,7.05-5.73,12.78-12.78,12.78-.54,0-1.1-.04-1.65-.11-2.27,4.02-6.45,6.48-11.1,6.48Z"/><path class="cls-1" d="M85.55,44.25c-1.39,0-2.99-.34-4.79-1.26-.53-.27-.75-.93-.48-1.46s.92-.75,1.46-.48c5.39,2.74,8.21-.89,8.33-1.04,1.12-1.69,1.72-3.71,1.72-5.8,0-4.66-3.12-8.84-7.59-10.17-.29-.08-.52-.28-.66-.55-.13-.26-.16-.57-.06-.85,.4-1.15,.6-2.32,.6-3.5,0-6.52-5.94-11.71-12.65-10.41-.48,.09-.97-.15-1.18-.59-1.79-3.69-5.45-5.98-9.53-5.98-2.25,0-4.4,.7-6.22,2.02-.49,.35-1.16,.24-1.52-.24s-.24-1.16,.24-1.52c2.19-1.59,4.78-2.43,7.5-2.43,4.65,0,8.83,2.46,11.1,6.48,7.75-1.02,14.43,5.08,14.43,12.67,0,1.07-.14,2.13-.41,3.18,4.83,1.9,8.12,6.64,8.12,11.89,0,2.51-.73,4.95-2.12,7.04-.05,.07-2.25,2.99-6.3,2.99Z"/><path class="cls-1" d="M47.84,18.84c-.59,0-1.07-.47-1.08-1.06l-.13-4.97c-.01-.6,.46-1.1,1.06-1.11,0,0,.02,0,.03,0,.59,0,1.07,.47,1.08,1.06l.13,4.97c.01,.6-.46,1.1-1.06,1.11,0,0-.02,0-.03,0Z"/><path class="cls-1" d="M66.6,16.58c-.52,0-.98-.38-1.07-.91-.98-6.03,3.16-8.56,5.48-9.05,.6-.12,1.16,.25,1.29,.84,.12,.58-.25,1.16-.83,1.29-.49,.11-4.67,1.21-3.79,6.58,.1,.59-.31,1.15-.9,1.25-.06,0-.12,.01-.17,.01Z"/><path class="cls-1" d="M76.52,28.97c-.37,0-.72-.18-.93-.52-.31-.51-.15-1.18,.36-1.49l7.99-4.88c.51-.31,1.18-.15,1.49,.36,.31,.51,.15,1.18-.36,1.49l-7.99,4.88c-.18,.11-.37,.16-.57,.16Z"/><path class="cls-1" d="M90.94,60.68s-.1,0-.15-.01l-5.44-.75c-.59-.08-1.01-.63-.93-1.22,.08-.59,.62-1.01,1.22-.93l5.44,.75c.59,.08,1.01,.63,.93,1.22-.07,.54-.54,.94-1.07,.94Z"/><path class="cls-1" d="M83.27,78.4c-1.99,0-5.63-.45-7.66-3.49-.33-.5-.2-1.17,.3-1.51,.5-.33,1.17-.2,1.51,.3,2.08,3.11,6.88,2.47,6.93,2.46,.6-.09,1.14,.33,1.23,.92s-.33,1.14-.92,1.23c-.07,0-.6,.08-1.39,.08Z"/><path class="cls-1" d="M71.24,93.67c-.42,0-.82-.24-1-.65l-2.38-5.44c-.24-.55,0-1.19,.56-1.43,.55-.24,1.19,0,1.43,.56l2.38,5.44c.24,.55,0,1.19-.56,1.43-.14,.06-.29,.09-.43,.09Z"/><path class="cls-1" d="M61.24,73.6h-4.86c-.6,0-1.09-.49-1.09-1.09s.49-1.09,1.09-1.09h4.86c.6,0,1.09,.49,1.09,1.09s-.49,1.09-1.09,1.09Z"/><path class="cls-1" d="M66.75,78.27c-2.53,0-4.82-1.62-5.82-4.26-1.01-2.65-.55-6.17,2.74-8.04,.52-.3,1.18-.12,1.48,.41,.3,.52,.12,1.18-.41,1.48-2.32,1.32-2.41,3.73-1.78,5.38,.65,1.72,2.33,3.25,4.59,2.77,.58-.13,1.16,.25,1.29,.84,.12,.59-.25,1.16-.84,1.29-.42,.09-.84,.13-1.25,.13Z"/><path class="cls-1" d="M23.26,47.11c-4.1,0-5.88-2.35-6.6-3.88-1.39-2.95-.84-7.01,1.2-8.86,.44-.4,1.13-.37,1.53,.08,.4,.44,.37,1.13-.08,1.53-1.19,1.08-1.75,4.08-.7,6.32,.98,2.08,3.09,2.96,6.09,2.53,.59-.09,1.14,.33,1.23,.92s-.33,1.14-.92,1.23c-.63,.09-1.22,.13-1.76,.13Z"/><path class="cls-1" d="M79.05,58.82c-.05,0-.11,0-.16-.01-3.44-.52-5.12-2.11-5.93-3.35-1.09-1.68-1.36-3.83-.75-6.05,.16-.58,.76-.92,1.33-.76,.58,.16,.92,.75,.76,1.33-.26,.94-.53,2.74,.48,4.3,.82,1.26,2.31,2.07,4.43,2.39,.59,.09,1,.64,.91,1.24-.08,.54-.54,.92-1.07,.92Z"/><path class="cls-1" d="M33.35,80.79s-.04,0-.05,0c-.6-.03-1.06-.54-1.03-1.14,.05-1.06-1.15-2.79-2.73-3.35-1.46-.52-2.89,.08-4.14,1.75-.36,.48-1.04,.58-1.52,.22-.48-.36-.58-1.04-.22-1.52,1.82-2.44,4.24-3.35,6.61-2.49,2.36,.85,4.27,3.37,4.16,5.5-.03,.58-.51,1.03-1.08,1.03Z"/><path class="cls-1" d="M75.83,33.78c-.06,0-.12,0-.18-.02-.59-.1-.99-.66-.89-1.25,.39-2.33,.11-3.96-.83-4.84-1.4-1.31-3.96-.73-3.99-.72-.57,.14-1.17-.22-1.31-.8s.22-1.17,.8-1.31c.15-.04,3.71-.87,5.97,1.23,1.51,1.41,2.02,3.7,1.5,6.8-.09,.53-.55,.91-1.07,.91Z"/><path class="cls-1" d="M28.92,23.25c-1.9,0-3.67-1.16-5.26-3.46-.34-.49-.22-1.17,.27-1.51,.49-.34,1.17-.22,1.51,.27,1.18,1.7,2.4,2.53,3.53,2.52,1.6-.03,3.04-1.73,3.46-2.39,.32-.5,.99-.65,1.5-.33,.5,.32,.65,.99,.33,1.5-.09,.14-2.14,3.33-5.24,3.39-.03,0-.07,0-.1,0Z"/><path class="cls-1" d="M44.86,75.17h-2.62c-.31,0-.6-.13-.81-.36s-.3-.54-.27-.84l2.62-23.8h-5.87c-.32,0-.63-.14-.84-.39-.21-.25-.29-.58-.23-.9l4.38-22.91c.1-.51,.54-.88,1.07-.88h17.26c.35,0,.68,.17,.89,.46,.2,.29,.26,.66,.14,.99l-1.25,3.57c-.2,.56-.82,.86-1.38,.66-.57-.2-.86-.82-.66-1.38l.75-2.12h-14.83l-3.96,20.74h5.77c.31,0,.6,.13,.81,.36s.3,.54,.27,.84l-2.62,23.8h.75l14.21-27.1h-5.42c-.35,0-.68-.17-.89-.46-.2-.29-.26-.66-.14-.99l2.53-7.2c.2-.56,.82-.87,1.38-.66,.57,.2,.86,.82,.66,1.38l-2.02,5.75h5.68c.38,0,.73,.2,.93,.52,.2,.33,.21,.73,.03,1.07l-15.35,29.27c-.19,.36-.56,.58-.96,.58Z"/></g></g></svg>