<?xml version="1.0" encoding="UTF-8"?><svg id="Layer_2" xmlns="http://www.w3.org/2000/svg" viewBox="0 0 77.52 111.51"><defs><style>.cls-1{fill:#fff;}</style></defs><g id="work"><g id="_7"><path class="cls-1" d="M53.32,103.62H24.2c-.55,0-1-.45-1-1s.45-1,1-1h29.12c.55,0,1,.45,1,1s-.45,1-1,1Z"/><path class="cls-1" d="M53.32,95.72H24.2c-.55,0-1-.45-1-1s.45-1,1-1h29.12c.55,0,1,.45,1,1s-.45,1-1,1Z"/><path class="cls-1" d="M56.18,87.83H25.09c-.55,0-1-.45-1-1s.45-1,1-1h31.09c.55,0,1,.45,1,1s-.45,1-1,1Z"/><path class="cls-1" d="M44.77,111.51h-12.03c-.55,0-1-.45-1-1s.45-1,1-1h12.03c.55,0,1,.45,1,1s-.45,1-1,1Z"/><path class="cls-1" d="M56.06,87.83H21.46c-.55,0-1-.45-1-1v-1.21c0-9.34-2.68-18.02-7.74-25.1-4.08-5.69-6.13-12.42-5.95-19.46,.43-16.41,13.58-30.06,29.95-31.07,8.94-.56,17.45,2.5,23.95,8.61,6.41,6.03,10.09,14.53,10.09,23.32,0,6.42-1.89,12.61-5.48,17.91-4.05,5.99-6.64,12.41-7.7,19.09-.08,.55-.6,.92-1.14,.83-.55-.09-.92-.6-.83-1.14,1.1-6.97,3.8-13.67,8.02-19.9,3.36-4.96,5.13-10.77,5.13-16.79,0-8.37-3.36-16.13-9.46-21.86-6.09-5.73-14.05-8.6-22.46-8.08-15.34,.95-27.67,13.75-28.07,29.13-.17,6.6,1.75,12.91,5.58,18.24,5.31,7.42,8.11,16.5,8.11,26.26v.21H56.06c.55,0,1,.45,1,1s-.45,1-1,1Z"/><g><path class="cls-1" d="M35.54,87.39c-.52,0-.96-.4-1-.93-.02-.27-1.79-24-2.44-34.77-3.69,.17-8.71,.23-11.42-2.36-1.23-1.17-1.86-2.76-1.86-4.71,0-4.71,3.07-7.88,7.64-7.88,6.87,0,7.24,7.35,7.46,11.74,.02,.35,.04,.74,.06,1.16h3.66c.55,0,1,.45,1,1s-.45,1-1,1h-3.54c.66,10.78,2.42,34.39,2.43,34.66,.04,.55-.37,1.03-.92,1.07-.03,0-.05,0-.08,0Zm-9.08-48.64c-3.48,0-5.64,2.25-5.64,5.88,0,1.4,.41,2.47,1.24,3.26,2.12,2.02,6.6,1.96,9.92,1.81-.02-.4-.04-.77-.06-1.11-.27-5.39-.87-9.84-5.46-9.84Z"/><path class="cls-1" d="M41.98,87.39s-.05,0-.08,0c-.55-.04-.96-.52-.92-1.07,.02-.29,2.15-28.9,2.61-37.83,.25-4.68,.62-11.74,7.46-11.74,4.57,0,7.64,3.17,7.64,7.88,0,4.26-2.55,6.77-6.99,6.88h-.58c-.55,0-1-.45-1-1s.45-1,1-1h.56c3.32-.09,5.01-1.73,5.01-4.88,0-3.63-2.16-5.88-5.64-5.88-4.58,0-5.18,4.46-5.46,9.85-.47,8.95-2.6,37.58-2.62,37.87-.04,.53-.48,.93-1,.93Z"/></g><path class="cls-1" d="M38.76,3.54c-.55,0-1-.45-1-1V1c0-.55,.45-1,1-1s1,.45,1,1v1.54c0,.55-.45,1-1,1Z"/><path class="cls-1" d="M38.76,3.54c-.55,0-1-.45-1-1V1c0-.55,.45-1,1-1s1,.45,1,1v1.54c0,.55-.45,1-1,1Z"/><path class="cls-1" d="M16.33,10.83c-.31,0-.61-.14-.81-.41l-.9-1.24c-.33-.45-.23-1.07,.22-1.4,.45-.33,1.07-.22,1.4,.22l.9,1.24c.33,.45,.23,1.07-.22,1.4-.18,.13-.38,.19-.59,.19Z"/><path class="cls-1" d="M2.46,29.91c-.1,0-.21-.02-.31-.05l-1.46-.47c-.53-.17-.81-.73-.64-1.26,.17-.52,.74-.81,1.26-.64l1.46,.47c.53,.17,.81,.73,.64,1.26-.14,.42-.53,.69-.95,.69Z"/><path class="cls-1" d="M76.52,53.98c-.1,0-.21-.02-.31-.05l-1.46-.47c-.53-.17-.81-.73-.64-1.26,.17-.52,.74-.81,1.26-.64l1.46,.47c.53,.17,.81,.73,.64,1.26-.14,.42-.53,.69-.95,.69Z"/><path class="cls-1" d="M1,53.98c-.42,0-.81-.27-.95-.69-.17-.53,.12-1.09,.64-1.26l1.46-.47c.53-.17,1.09,.12,1.26,.64,.17,.53-.12,1.09-.64,1.26l-1.46,.47c-.1,.03-.21,.05-.31,.05Z"/><path class="cls-1" d="M75.06,29.91c-.42,0-.81-.27-.95-.69-.17-.53,.12-1.09,.64-1.26l1.46-.47c.53-.17,1.09,.12,1.26,.64,.17,.53-.12,1.09-.64,1.26l-1.46,.47c-.1,.03-.21,.05-.31,.05Z"/><path class="cls-1" d="M61.2,10.83c-.2,0-.41-.06-.59-.19-.45-.32-.55-.95-.22-1.4l.9-1.24c.32-.45,.95-.55,1.4-.22,.45,.32,.55,.95,.22,1.4l-.9,1.24c-.2,.27-.5,.41-.81,.41Z"/></g></g></svg>