<?xml version="1.0" encoding="UTF-8"?><svg id="Layer_2" xmlns="http://www.w3.org/2000/svg" viewBox="0 0 72.43 72.43"><defs><style>.cls-1{fill:#fff;}</style></defs><g id="work"><g><path class="cls-1" d="M24.12,40.99c-1.29,1.27-2.99,1.97-4.78,1.97s-3.5-.7-4.79-1.97c-.36-.36-.94-.35-1.3,0-.36,.36-.35,.94,0,1.3,1.4,1.39,3.19,2.24,5.12,2.45-.19,2.16-1.08,4.18-2.57,5.78-.35,.37-.32,.96,.05,1.3,.18,.16,.4,.25,.63,.25,.25,0,.49-.1,.67-.29,1.8-1.94,2.86-4.41,3.06-7.02,1.96-.2,3.78-1.05,5.2-2.46,.36-.36,.37-.94,0-1.3-.36-.36-.94-.36-1.3,0Z"/><path class="cls-1" d="M61.46,37.13c.44,2.61,2.71,4.6,5.44,4.6,3.05,0,5.52-2.48,5.52-5.52s-2.48-5.52-5.52-5.52c-2.73,0-5,1.99-5.44,4.6h-27.4v-5.83h17.49c.51,0,.92-.41,.92-.92v-6.75h4.38c.44,2.61,2.71,4.6,5.44,4.6,3.05,0,5.52-2.48,5.52-5.52s-2.48-5.52-5.52-5.52c-2.73,0-5,1.99-5.44,4.6h-5.3c-.51,0-.92,.41-.92,.92v6.75h-16.57v-5.83h9.82c.51,0,.92-.41,.92-.92V6.45h4.38c.44,2.61,2.71,4.6,5.44,4.6,3.05,0,5.52-2.48,5.52-5.52s-2.48-5.52-5.52-5.52c-2.73,0-5,1.99-5.44,4.6h-5.3c-.51,0-.92,.41-.92,.92v14.42h-8.9V10.13c0-5.58-4.54-10.13-10.13-10.13-4.37,0-8.25,2.84-9.6,6.95C7.68,9.09,3.07,15.37,3.07,22.4c0,1.26,.16,2.51,.45,3.74-2.23,2.82-3.51,6.34-3.51,10.07,0,4.17,1.58,8.08,4.43,11.12-.88,1.78-1.36,3.74-1.36,5.76,0,6.62,5.01,12.24,11.51,13.07,1.52,3.67,5.14,6.26,9.36,6.26,5.58,0,10.13-4.54,10.13-10.13v-9.82h8.9v14.42c0,.51,.41,.92,.92,.92h5.3c.44,2.61,2.71,4.6,5.44,4.6,3.05,0,5.52-2.48,5.52-5.52s-2.48-5.52-5.52-5.52c-2.73,0-5,1.99-5.44,4.6h-4.38v-14.42c0-.51-.41-.92-.92-.92h-9.85c.02-.2,.03-.41,.03-.61v-5.22h16.57v6.75c0,.51,.41,.92,.92,.92h5.3c.44,2.61,2.71,4.6,5.44,4.6,3.05,0,5.52-2.48,5.52-5.52s-2.48-5.52-5.52-5.52c-2.73,0-5,1.99-5.44,4.6h-4.38v-6.75c0-.51-.41-.92-.92-.92h-17.49v-5.83h27.4Zm.84-19.95c2.03,0,3.68,1.65,3.68,3.68s-1.65,3.68-3.68,3.68-3.68-1.65-3.68-3.68,1.65-3.68,3.68-3.68ZM54.63,1.84c2.03,0,3.68,1.65,3.68,3.68s-1.65,3.68-3.68,3.68-3.68-1.65-3.68-3.68,1.65-3.68,3.68-3.68Zm0,61.38c2.03,0,3.68,1.65,3.68,3.68s-1.65,3.68-3.68,3.68-3.68-1.65-3.68-3.68,1.65-3.68,3.68-3.68Zm7.67-15.34c2.03,0,3.68,1.65,3.68,3.68s-1.65,3.68-3.68,3.68-3.68-1.65-3.68-3.68,1.65-3.68,3.68-3.68Zm4.6-15.34c2.03,0,3.68,1.65,3.68,3.68s-1.65,3.68-3.68,3.68-3.68-1.65-3.68-3.68,1.65-3.68,3.68-3.68ZM23.94,70.59c-3.61,0-6.67-2.32-7.81-5.54,0,0,0-.01,0-.02-.3-.85-.47-1.77-.47-2.72,0-.81,.11-1.59,.33-2.31,.15-.49-.13-1-.62-1.15-.49-.15-1,.13-1.15,.62-.27,.89-.41,1.85-.41,2.84,0,.65,.07,1.29,.19,1.91-5.19-1.06-9.09-5.7-9.09-11.11,0-1.54,.33-3.05,.92-4.44,1.64,1.37,3.51,2.43,5.52,3.06,.09,.03,.19,.04,.28,.04,.39,0,.75-.25,.88-.64,.15-.48-.12-1-.6-1.16-2.16-.68-4.09-1.84-5.74-3.45-2.79-2.75-4.33-6.4-4.33-10.3,0-5.68,3.36-10.85,8.55-13.17,.46-.21,.67-.75,.47-1.22-.21-.46-.75-.67-1.22-.47-1.72,.77-3.26,1.82-4.58,3.08-.1-.68-.15-1.36-.15-2.04,0-5.87,3.62-11.15,8.97-13.33-.04,.35-.07,.7-.07,1.06,0,1.59,.36,3.11,1.06,4.52,.23,.46,.78,.64,1.24,.41,.46-.23,.64-.78,.41-1.24-.58-1.15-.87-2.4-.87-3.7,0-.78,.1-1.52,.3-2.21,.99-3.58,4.27-6.08,7.98-6.08,4.57,0,8.29,3.72,8.29,8.29,0,3.72-3.03,6.75-6.75,6.75-.51,0-.92,.41-.92,.92s.41,.92,.92,.92c2.74,0,5.18-1.29,6.75-3.29V31.48c-1.29-1.42-3.15-2.32-5.22-2.32-.32,0-.62,.03-.93,.07-.79-3.31-3.17-6-6.44-7.15-.48-.17-1.01,.08-1.17,.56-.17,.48,.08,1.01,.56,1.17,2.64,.93,4.63,3.2,5.27,5.89-2.55,1.06-4.35,3.58-4.35,6.52,0,.51,.41,.92,.92,.92s.92-.41,.92-.92c0-2.88,2.34-5.22,5.22-5.22s5.22,2.34,5.22,5.22v13.81c0,2.88-2.34,5.22-5.22,5.22-.51,0-.92,.41-.92,.92s.41,.92,.92,.92c2.07,0,3.92-.9,5.22-2.32v7.54c0,4.57-3.72,8.29-8.29,8.29Z"/></g></g></svg>