<?xml version="1.0" encoding="UTF-8"?><svg id="Layer_2" xmlns="http://www.w3.org/2000/svg" viewBox="0 0 93.76 81.4"><defs><style>.cls-1{fill:#fff;}</style></defs><g id="work"><g><path class="cls-1" d="M86.99,19.89l-12.11-4.06s-.07-.05-.08-.09,0-.09,.04-.12l.66-.61c.26-.24,.35-.62,.23-.95L70.91,.62s-.02-.04-.03-.07l-.02-.07c-.03-.06-.07-.12-.12-.17,0,0-.01-.02-.02-.03,0,0,0,0,0,0-.04-.04-.11-.1-.23-.16l-.04-.02c-.1-.04-.17-.06-.25-.07-.05,0-.07-.01-.08-.01h-.07S23.71,0,23.71,0c-.01,0-.03,0-.05,0-.01,0-.03,0-.05,0-.11,.02-.19,.04-.26,.07l-.08,.04c-.09,.05-.17,.11-.23,.17-.06,.08-.11,.14-.14,.19l-.02,.06s-.03,.07-.04,.08l-4.8,13.43c-.12,.33-.03,.71,.23,.95l.66,.61s.05,.08,.04,.12-.04,.08-.08,.09l-12.11,4.06C2.72,21.25,0,25.03,0,29.3v42c0,.49,.4,.89,.89,.89H35.31s.06,0,.08,.03l.06,.05,10.87,8.94c.32,.26,.81,.26,1.13,0l10.93-8.99s.05-.03,.08-.03h34.42c.49,0,.89-.4,.89-.89V29.3c0-4.27-2.72-8.05-6.77-9.41ZM69.56,2.11l4.26,11.92s0,.1-.03,.13l-13.33,12.4s-.05,.03-.08,.03c0,0-.02,0-.03,0-.04,0-.07-.04-.09-.07L52.19,7.64s-.01-.07,0-.1c.01-.03,.04-.06,.08-.07l17.14-5.44c.06-.02,.13,.01,.16,.08Zm-14.2,17.48s.01,.09-.01,.12l-5.12,7.08s-.06,.05-.1,.05h-6.49s-.08-.02-.1-.05l-5.12-7.08s-.03-.08-.01-.12l.04-.1,4.94-11.56s.06-.08,.11-.08h6.76s.1,.03,.11,.08l.05,.12,4.94,11.54ZM30.24,1.78H63.52c.06,0,.11,.04,.12,.11,0,.06-.03,.12-.09,.14l-12.75,4.04s-.02,0-.04,0h-7.81s-.03-.01-.04-.02L30.21,2.02c-.06-.02-.1-.08-.09-.14,0-.06,.06-.11,.12-.11Zm-6.04,.33c.02-.06,.09-.1,.16-.08l17.14,5.44s.06,.04,.08,.07c.01,.03,.02,.07,0,.1l-.09,.2-7.99,18.68s-.05,.07-.09,.07c0,0-.02,0-.03,0-.03,0-.06-.01-.08-.03l-.21-.19-13.12-12.21s-.05-.09-.03-.13L24.2,2.11Zm10.73,68.19c0,.06-.06,.11-.12,.11H1.9c-.07,0-.12-.06-.12-.12V29.3c0-3.5,2.23-6.61,5.56-7.72l13.16-4.41s.09,0,.12,.03l12.53,11.66c.21,.2,.51,.28,.79,.22,.28-.06,.52-.25,.63-.52l2.9-6.78s.06-.07,.1-.08c.05,0,.09,.01,.11,.05l4.14,5.72s.03,.06,.02,.09v.08s-6.91,42.67-6.91,42.67Zm22.14,.68l-10.11,8.32s-.05,.03-.08,.03-.06,0-.08-.03l-10.11-8.32s-.05-.07-.04-.12l.02-.11,6.79-42.02c0-.06,.06-.11,.12-.11h6.6c.06,0,.11,.04,.12,.11l.03,.17,6.78,41.97s0,.09-.04,.12Zm34.91-.7c0,.07-.06,.12-.12,.12H58.95c-.06,0-.11-.04-.12-.11l-.03-.17-6.88-42.58s0-.07,.02-.09l.05-.07,4.09-5.65s.07-.06,.11-.05c.04,0,.08,.03,.1,.08l2.9,6.78c.11,.27,.35,.46,.63,.52,.28,.06,.58-.02,.79-.22l12.53-11.66s.08-.04,.12-.03l.11,.04,13.04,4.38c3.32,1.11,5.56,4.22,5.56,7.72v40.98Z"/><path class="cls-1" d="M84.25,39.43h-17.89c-.6,0-1.09,.49-1.09,1.09s.49,1.09,1.09,1.09h17.89c.6,0,1.09-.49,1.09-1.09s-.49-1.09-1.09-1.09Z"/></g></g></svg>