<?xml version="1.0" encoding="UTF-8"?><svg id="Layer_2" xmlns="http://www.w3.org/2000/svg" viewBox="0 0 80.42 85"><defs><style>.cls-1{fill:#fff;}</style></defs><g id="work"><g><path class="cls-1" d="M48.66,55.86c-.15-.34-.37-.65-.64-.92,.21-.84,.32-1.71,.32-2.58,0-5.03-3.64-8.96-8.29-8.96s-8.29,3.93-8.29,8.94c0,.88,.11,1.75,.33,2.6-1.16,1.13-1.19,2.98-.07,4.14,.26,.27,.57,.49,.92,.64,1.28,3.45,4.04,5.66,7.11,5.66s5.86-2.2,7.12-5.66c1.48-.66,2.15-2.39,1.49-3.86Zm-2.27,2.57c-.23,.07-.42,.24-.5,.48-1.02,3.03-3.31,4.99-5.86,4.99s-4.82-1.96-5.86-4.99c-.07-.23-.26-.41-.49-.48-.62-.19-1.04-.77-1.03-1.41,0-.49,.24-.95,.64-1.23,.29-.17,.43-.52,.34-.84-.26-.85-.4-1.73-.4-2.61,0-4.19,3-7.47,6.82-7.47s6.82,3.29,6.82,7.47c0,.89-.14,1.77-.41,2.61-.1,.31,.02,.65,.29,.83,.41,.27,.66,.74,.65,1.23,.01,.65-.41,1.24-1.03,1.43Z"/><path class="cls-1" d="M44.51,50.88l-.37-1.87c-.07-.34-.36-.58-.71-.59-.19,0-1.12,0-2.56,1.33-1.31,1.18-3.24,1.36-4.74,.44-.33-.24-.79-.16-1.02,.17s-.16,.79,.17,1.02c.02,.02,.04,.03,.07,.04,.88,.53,1.9,.82,2.93,.82,1.32,0,2.6-.5,3.57-1.4,.31-.28,.64-.53,1-.73l.21,1.05c.08,.4,.47,.67,.87,.59,.4-.08,.67-.47,.59-.87Z"/><path class="cls-1" d="M54.02,71.21l-6.96-2.93-1.41-2.42v-.04s-.05-.05-.08-.07c-.03-.04-.07-.07-.11-.1l-.1-.09s-.08-.03-.12-.04h-.29s-.09,.02-.13,.04c-.03,0-.07,0-.1,0l-4.47,3.35-4.47-3.35s-.06,0-.1,0l-.14-.04h-.43s-.08,.03-.12,.04c-.05,.02-.09,.04-.13,.07-.04,.03-.07,.05-.1,.09-.03,.02-.06,.05-.08,.07v.04l-1.4,2.4-6.87,2.81s-.07,.03-.1,.05c-1.36,.86-2.19,2.35-2.2,3.96v5.31s0,.06,0,.09c0,.06,.01,.12,.03,.18,.02,.04,.04,.09,.07,.12,.02,.04,.05,.08,.07,.11l.12,.1s.05,.04,.07,.06c4.84,2.64,10.27,4,15.78,3.96,5.51,.04,10.94-1.32,15.77-3.96,.03-.02,.05-.04,.07-.07l.12-.1,.08-.12s.04-.08,.06-.12c0-.05,0-.1,0-.15,0-.03,0-.06,0-.09v-5.18c.08-1.67-.82-3.24-2.31-4.01Zm-9.17-3.89l.92,1.57-2.82,3.07-1.71-1.93,3.62-2.72Zm-9.38,0l3.61,2.72-1.71,1.93-2.83-3.07,.92-1.57Zm19.45,7.88v4.73c-9.21,4.77-20.16,4.77-29.37,0v-4.86c0-.66,.22-1.29,.61-1.82,.23-.32,.52-.6,.86-.81l6.38-2.63,3.45,3.76c.14,.15,.34,.24,.54,.23,.21,0,.4-.09,.54-.24l2.2-2.51,2.31,2.49c.14,.15,.34,.24,.54,.24,.2,0,.4-.09,.53-.23l3.45-3.75,6.5,2.72c.97,.53,1.54,1.58,1.46,2.69Z"/><path class="cls-1" d="M72.78,12.43c-.15-.34-.37-.65-.64-.92,.22-.84,.33-1.71,.33-2.58-.03-5.02-3.69-8.9-8.32-8.9s-8.29,3.89-8.29,8.9c0,.87,.11,1.73,.32,2.58-1.16,1.13-1.18,2.99-.04,4.14,.27,.27,.58,.49,.93,.64,1.28,3.45,4.04,5.66,7.12,5.66s5.86-2.2,7.11-5.66c1.48-.66,2.15-2.39,1.49-3.86Zm-1.46,1.97c-.19,.3-.49,.52-.83,.62-.23,.07-.41,.24-.49,.47-1.02,3.04-3.32,5-5.86,5s-4.82-1.96-5.86-5c-.08-.23-.26-.4-.5-.47-.62-.19-1.04-.77-1.03-1.41,0-.5,.25-.96,.67-1.23h.04c.27-.18,.39-.52,.29-.83-.26-.85-.4-1.73-.4-2.61-.04-4.19,2.96-7.44,6.79-7.44s6.83,3.25,6.83,7.44c0,.89-.13,1.77-.4,2.61-.1,.31,.02,.64,.29,.83,.68,.43,.88,1.34,.45,2.02Z"/><path class="cls-1" d="M68.59,7.48l-.37-1.87c-.07-.35-.38-.6-.73-.59-.18,0-1.13,.04-2.56,1.33-1.31,1.18-3.24,1.35-4.74,.43-.34-.22-.8-.12-1.02,.22s-.12,.8,.22,1.02h.04c.88,.52,1.9,.81,2.93,.81,1.32,0,2.6-.5,3.57-1.4,.3-.28,.64-.53,1-.73l.2,1.06c.08,.4,.47,.67,.87,.59,.4-.08,.67-.47,.59-.87Z"/><path class="cls-1" d="M78.11,27.81l-6.96-2.93-1.41-2.42v-.04s-.05-.05-.08-.07l-.1-.1-.13-.06s-.08-.04-.12-.04h-.14s-.09-.01-.14,0c-.05,0-.09,.02-.13,.04h-.14l-4.47,3.35-4.5-3.3h-.1l-.14-.05h-.2s-.1,0-.15,0c-.04,0-.09,.02-.12,.04l-.13,.06-.1,.1s-.06,.04-.08,.07,0,0,0,.04l-1.41,2.41-6.87,2.76-.11,.05c-1.37,.85-2.2,2.35-2.2,3.96v5.4c0,.05,0,.1,0,.15l.11,.14s.05,.08,.08,.11c0,0,.07,.07,.11,.1s.04,.04,.07,.06c9.85,5.28,21.69,5.28,31.55,0,0,0,.04-.06,.07-.07,.04-.03,.08-.06,.12-.1l.08-.11s.04-.08,.06-.12c0-.05,0-.1,0-.15,0-.03,0-.06,0-.09v-5.18c.08-1.67-.82-3.24-2.31-4.01Zm-9.17-3.89l.92,1.57-2.82,3.1-1.71-1.93,3.61-2.75Zm-9.38,0l3.62,2.72-1.71,1.96-2.82-3.07,.92-1.61Zm19.47,7.91v4.73c-9.21,4.77-20.16,4.77-29.37,0h-.03v-4.86c0-1.09,.55-2.1,1.46-2.69l6.38-2.61,3.46,3.76c.14,.15,.33,.23,.53,.23,.21,0,.4-.09,.54-.24l2.2-2.51,2.2,2.51c.14,.15,.34,.24,.54,.24,.21,0,.4-.08,.54-.23l3.49-3.76,6.59,2.74c.97,.53,1.54,1.58,1.46,2.69Z"/><path class="cls-1" d="M24.57,12.43c-.15-.34-.37-.65-.64-.92,.22-.84,.33-1.71,.33-2.58C24.26,3.92,20.59,0,15.97,0S7.68,3.92,7.68,8.94c0,.87,.12,1.74,.34,2.58-1.16,1.13-1.19,2.98-.06,4.14,.26,.27,.57,.49,.92,.64h-.01c1.27,3.45,4.03,5.66,7.11,5.66s5.86-2.2,7.11-5.66c1.48-.66,2.15-2.39,1.49-3.86Zm-2.26,2.63c-.23,.06-.42,.24-.5,.47-1.02,3.04-3.31,5-5.86,5s-4.82-1.96-5.86-5c-.08-.23-.26-.4-.5-.47-.62-.19-1.03-.77-1.02-1.41-.01-.51,.24-.99,.67-1.27,.27-.18,.39-.52,.29-.83-.26-.85-.4-1.73-.4-2.61,0-4.19,2.99-7.44,6.82-7.44s6.82,3.29,6.82,7.47c0,.89-.13,1.77-.4,2.61-.1,.31,.02,.65,.29,.83,.41,.28,.65,.74,.64,1.23,0,.65-.41,1.22-1.02,1.41Z"/><path class="cls-1" d="M20.46,7.47l-.37-1.87c-.07-.35-.38-.6-.73-.59-.18,0-1.13,.04-2.56,1.33-1.31,1.18-3.24,1.35-4.74,.43-.34-.22-.8-.12-1.02,.22s-.12,.8,.22,1.02h-.02c.88,.53,1.9,.81,2.93,.82,1.32,0,2.6-.5,3.57-1.4,.3-.28,.64-.53,1-.73l.26,1.05c.08,.4,.47,.67,.87,.59,.4-.08,.67-.47,.59-.87Z"/><path class="cls-1" d="M29.98,27.81l-6.96-2.93-1.41-2.42v-.04l-.07-.07-.11-.1s-.09-.04-.13-.06c-.04-.02-.08-.04-.12-.04h-.14s-.09-.01-.14,0l-.13,.04h-.14l-4.55,3.4-4.47-3.35h-.14l-.13-.05h-.14s-.1,0-.15,0c-.04,0-.08,.02-.12,.04-.05,.01-.09,.03-.13,.06-.04,0-.07,.07-.11,.1-.04,.03-.06,.04-.08,.07s0,0,0,.04l-1.41,2.41-6.89,2.76-.11,.05C.83,28.58,0,30.08,0,31.69v5.31c.02,.08,.04,.16,.05,.24,.02,.04,.04,.08,.06,.12,.02,.04,.05,.08,.08,.11,.04,.04,.08,.07,.12,.1,0,0,0,.04,.07,.06,4.84,2.64,10.26,4,15.77,3.96,5.51,.04,10.93-1.32,15.77-3.96,0,0,.04-.04,.07-.06l.12-.1,.07-.1,.07-.12c0-.05,0-.1,0-.15v-5.28c.09-1.66-.79-3.23-2.26-4.01Zm-9.19-3.89l.92,1.57-2.86,3.1-1.71-1.93,3.65-2.75Zm-9.38,0l3.62,2.72-1.75,1.96-2.82-3.07,.95-1.61Zm19.42,7.91v4.73c-4.51,2.38-9.54,3.61-14.64,3.58-5.14,.04-10.21-1.19-14.76-3.59v-4.86c0-.67,.23-1.33,.64-1.87,.22-.32,.5-.6,.83-.82l6.41-2.61,3.46,3.76c.14,.15,.33,.23,.53,.23,.21,0,.4-.09,.54-.24l2.24-2.53,2.2,2.51c.14,.15,.34,.24,.54,.24,.21,0,.4-.08,.54-.23l3.48-3.75,6.54,2.75c.97,.53,1.55,1.58,1.46,2.69Z"/><path class="cls-1" d="M51.42,13.85c-7.17-2.93-15.2-2.93-22.37,0-.38,.15-.56,.58-.41,.95,0,0,0,0,0,0,.15,.37,.58,.55,.96,.4,0,0,0,0,0,0,6.82-2.78,14.45-2.78,21.27,0,.09,.04,.18,.06,.28,.06,.4,0,.73-.33,.73-.73,0-.3-.18-.57-.46-.68Z"/><path class="cls-1" d="M24.16,64.13c-5.59-3.91-9.56-9.72-11.17-16.35-.09-.39-.49-.64-.89-.54-.39,.09-.64,.49-.54,.89,1.7,6.97,5.88,13.09,11.76,17.2,.12,.09,.27,.14,.42,.14,.4,0,.73-.32,.74-.73,0-.24-.12-.47-.31-.61Z"/><path class="cls-1" d="M68.39,47.24s-.02,0-.03,0c-.39-.1-.79,.14-.88,.54,0,0,0,0,0,0-1.6,6.62-5.56,12.43-11.14,16.35-.33,.23-.41,.69-.18,1.02,.14,.2,.36,.31,.61,.31,.15,0,.3-.05,.42-.14,5.88-4.11,10.06-10.22,11.76-17.2,.09-.39-.15-.79-.55-.88Z"/><path class="cls-1" d="M64.92,64.85c-.28-.29-.75-.29-1.04,0l-.04,.04c-.28,.28-.56,.55-.85,.82-.28,.29-.28,.75,0,1.03,.29,.28,.75,.28,1.03,0,.3-.28,.59-.56,.89-.85,.29-.28,.29-.75,0-1.04Z"/><path class="cls-1" d="M71.53,55.15c-.35-.2-.8-.08-1,.27-.02,.03-.03,.06-.05,.09-.31,.64-.64,1.27-.98,1.9-.77,1.37-1.62,2.69-2.57,3.95-.24,.32-.18,.78,.14,1.02,.13,.09,.28,.15,.44,.15,.23,0,.45-.11,.59-.29,.99-1.31,1.89-2.68,2.69-4.11,.36-.64,.73-1.31,1.02-1.98,.2-.35,.08-.8-.27-1Z"/><path class="cls-1" d="M46.78,6.79c-2.17-.41-4.38-.62-6.59-.61-.4,0-.73,.33-.73,.73s.33,.73,.73,.73c2.12,0,4.24,.21,6.32,.61,.04,0,.09,0,.13,0,.4,.04,.76-.26,.8-.66s-.26-.76-.66-.8Z"/><path class="cls-1" d="M37.66,7.04c-.04-.4-.4-.7-.8-.66-1.38,.14-2.75,.35-4.11,.65-.4,.04-.7,.4-.66,.81s.4,.7,.81,.66v-.04c.05,0,.1,0,.15,0,1.3-.28,2.61-.49,3.94-.61,.4-.04,.7-.4,.66-.8,0,0,0,0,0,0Z"/><path class="cls-1" d="M9.64,54.79s0,0,0,0c-.83-1.87-1.5-3.82-1.98-5.81-.09-.39-.49-.63-.88-.54-.39,.09-.64,.49-.54,.88,0,0,0,0,0,0,.49,2.08,1.18,4.11,2.06,6.06,.12,.26,.38,.43,.67,.43,.1,0,.21-.02,.3-.06,.37-.16,.54-.6,.37-.97Z"/><path class="cls-1" d="M13.4,61.19c-.6-.81-1.17-1.65-1.7-2.5-.14-.38-.57-.57-.95-.42-.38,.14-.57,.57-.42,.95,.03,.08,.07,.15,.12,.21,.55,.93,1.14,1.81,1.77,2.65,.14,.18,.36,.29,.59,.29,.16,0,.31-.05,.44-.15,.32-.24,.39-.7,.15-1.02Z"/></g></g></svg>