<?xml version="1.0" encoding="UTF-8"?><svg id="Layer_2" xmlns="http://www.w3.org/2000/svg" viewBox="0 0 87.57 76.38"><defs><style>.cls-1{fill:#fff;}</style></defs><g id="work"><g><path class="cls-1" d="M12.09,72.65c-.5,0-.9-.4-.9-.9V.9c0-.5,.4-.9,.9-.9s.9,.4,.9,.9V71.75c0,.5-.4,.9-.9,.9Z"/><path class="cls-1" d="M54.97,40.95c-.5,0-.9-.4-.9-.9V.9c0-.5,.4-.9,.9-.9s.9,.4,.9,.9V40.05c0,.5-.4,.9-.9,.9Z"/><path class="cls-1" d="M.9,72.65c-.5,0-.9-.4-.9-.9V.9C0,.4,.4,0,.9,0s.9,.4,.9,.9V71.75c0,.5-.4,.9-.9,.9Z"/><path class="cls-1" d="M66.16,37.23c-.5,0-.9-.4-.9-.9V.9c0-.5,.4-.9,.9-.9s.9,.4,.9,.9V36.33c0,.5-.4,.9-.9,.9Z"/><path class="cls-1" d="M12.09,9.26H.9c-.5,0-.9-.4-.9-.9s.4-.9,.9-.9H12.09c.5,0,.9,.4,.9,.9s-.4,.9-.9,.9Z"/><path class="cls-1" d="M12.09,20.45H.9c-.5,0-.9-.4-.9-.9s.4-.9,.9-.9H12.09c.5,0,.9,.4,.9,.9s-.4,.9-.9,.9Z"/><path class="cls-1" d="M12.09,31.63H.9c-.5,0-.9-.4-.9-.9s.4-.9,.9-.9H12.09c.5,0,.9,.4,.9,.9s-.4,.9-.9,.9Z"/><path class="cls-1" d="M12.09,42.82H.9c-.5,0-.9-.4-.9-.9s.4-.9,.9-.9H12.09c.5,0,.9,.4,.9,.9s-.4,.9-.9,.9Z"/><path class="cls-1" d="M12.09,54.01H.9c-.5,0-.9-.4-.9-.9s.4-.9,.9-.9H12.09c.5,0,.9,.4,.9,.9s-.4,.9-.9,.9Z"/><path class="cls-1" d="M12.09,65.19H.9c-.5,0-.9-.4-.9-.9s.4-.9,.9-.9H12.09c.5,0,.9,.4,.9,.9s-.4,.9-.9,.9Z"/><path class="cls-1" d="M66.16,9.26h-11.19c-.5,0-.9-.4-.9-.9s.4-.9,.9-.9h11.19c.5,0,.9,.4,.9,.9s-.4,.9-.9,.9Z"/><path class="cls-1" d="M66.16,20.45h-11.19c-.5,0-.9-.4-.9-.9s.4-.9,.9-.9h11.19c.5,0,.9,.4,.9,.9s-.4,.9-.9,.9Z"/><path class="cls-1" d="M66.16,31.63h-11.19c-.5,0-.9-.4-.9-.9s.4-.9,.9-.9h11.19c.5,0,.9,.4,.9,.9s-.4,.9-.9,.9Z"/><path class="cls-1" d="M54.97,14.85H12.09c-.5,0-.9-.4-.9-.9s.4-.9,.9-.9H54.97c.5,0,.9,.4,.9,.9s-.4,.9-.9,.9Z"/><path class="cls-1" d="M41.92,59.6H12.09c-.5,0-.9-.4-.9-.9s.4-.9,.9-.9h29.83c.5,0,.9,.4,.9,.9s-.4,.9-.9,.9Z"/><path class="cls-1" d="M66.16,76.38c-.18,0-.37-.06-.52-.17l-12.82-9.16h-7.17c-.5,0-.9-.4-.9-.9v-16.78c0-.5,.4-.9,.9-.9h7.17l12.82-9.16c.27-.2,.63-.22,.94-.07,.3,.15,.49,.46,.49,.8v35.43c0,.34-.19,.65-.49,.8-.13,.07-.27,.1-.41,.1Zm-19.61-11.12h6.56c.19,0,.37,.06,.52,.17l11.63,8.31v-31.93l-11.63,8.31c-.15,.11-.34,.17-.52,.17h-6.56v14.98Z"/><path class="cls-1" d="M73.62,65.19c-.27,0-.54-.12-.72-.36-.3-.4-.22-.96,.18-1.26,2.14-1.61,3.37-4.06,3.37-6.74s-1.23-5.13-3.37-6.74c-.4-.3-.48-.86-.18-1.26s.86-.48,1.26-.18c2.6,1.95,4.09,4.93,4.09,8.18s-1.49,6.23-4.09,8.18c-.16,.12-.35,.18-.54,.18Z"/><path class="cls-1" d="M79.21,72.65c-.27,0-.54-.12-.72-.36-.3-.4-.22-.96,.18-1.26,4.51-3.39,7.1-8.56,7.1-14.2s-2.59-10.82-7.11-14.2c-.4-.3-.48-.86-.18-1.26,.3-.4,.86-.48,1.26-.18,4.97,3.73,7.83,9.43,7.83,15.64s-2.85,11.91-7.82,15.64c-.16,.12-.35,.18-.54,.18Z"/></g></g></svg>