<?xml version="1.0" encoding="UTF-8"?><svg id="Layer_2" xmlns="http://www.w3.org/2000/svg" viewBox="0 0 68.95 88.65"><defs><style>.cls-1{fill:#fff;}</style></defs><g id="work"><g><path class="cls-1" d="M11.87,16.79c-2.71,0-4.91-2.21-4.91-4.92s2.2-4.91,4.91-4.91,4.92,2.2,4.92,4.91-2.21,4.92-4.92,4.92Zm0-8.12c-1.76,0-3.2,1.43-3.2,3.19s1.43,3.19,3.2,3.19,3.2-1.43,3.2-3.19-1.43-3.19-3.2-3.19Z"/><path class="cls-1" d="M57.66,10.76c-.35,0-.63-.28-.63-.63s.28-.63,.63-.63,.63,.28,.63,.63-.28,.63-.63,.63Z"/><path class="cls-1" d="M53.02,10.76c-.35,0-.63-.28-.63-.63s.28-.63,.63-.63,.63,.28,.63,.63-.28,.63-.63,.63Z"/><path class="cls-1" d="M59.98,14.24c-.35,0-.63-.27-.63-.62s.28-.63,.63-.63,.63,.28,.63,.63-.28,.62-.63,.62Z"/><path class="cls-1" d="M55.34,14.24c-.34,0-.63-.28-.63-.62s.28-.63,.63-.63,.63,.28,.63,.63-.28,.62-.63,.62Z"/><path class="cls-1" d="M48.39,10.76c-.35,0-.63-.28-.63-.63s.28-.63,.63-.63,.63,.28,.63,.63-.28,.63-.63,.63Z"/><path class="cls-1" d="M50.7,14.24c-.35,0-.63-.28-.63-.62s.28-.63,.63-.63,.63,.28,.63,.63-.28,.62-.63,.62Z"/><path class="cls-1" d="M43.74,10.76c-.34,0-.63-.28-.63-.63s.28-.63,.63-.63,.63,.28,.63,.63-.28,.63-.63,.63Z"/><path class="cls-1" d="M46.06,14.24c-.35,0-.63-.28-.63-.62s.28-.63,.63-.63,.63,.28,.63,.63-.28,.62-.63,.62Z"/><path class="cls-1" d="M39.11,10.76c-.35,0-.63-.28-.63-.63s.28-.63,.63-.63,.63,.28,.63,.63-.28,.63-.63,.63Z"/><path class="cls-1" d="M41.43,14.24c-.35,0-.63-.28-.63-.62s.28-.63,.63-.63,.63,.28,.63,.63-.28,.62-.63,.62Z"/><path class="cls-1" d="M67.21,26.77c-.15-1.69-1.58-3.02-3.31-3.02H5.05c-1.73,0-3.16,1.33-3.31,3.02H0c.09-1.42,.78-2.74,1.94-3.65l.3-.23-.3-.23c-1.24-.97-1.95-2.41-1.95-3.95V5.04C0,2.26,2.26,0,5.05,0H63.9c2.78,0,5.05,2.26,5.05,5.04v13.66c0,1.54-.71,2.98-1.95,3.95l-.3,.23,.3,.23c1.16,.91,1.85,2.23,1.94,3.65h-1.73ZM5.05,1.73c-1.83,0-3.32,1.49-3.32,3.32v13.66c0,1.83,1.49,3.32,3.32,3.32H63.9c1.83,0,3.32-1.49,3.32-3.32V5.04c0-1.83-1.49-3.32-3.32-3.32H5.05Z"/><path class="cls-1" d="M11.87,38.81c-2.71,0-4.91-2.21-4.91-4.92s2.2-4.91,4.91-4.91,4.92,2.2,4.92,4.91-2.21,4.92-4.92,4.92Zm0-8.12c-1.76,0-3.2,1.43-3.2,3.19s1.43,3.2,3.2,3.2,3.2-1.43,3.2-3.2-1.43-3.19-3.2-3.19Z"/><path class="cls-1" d="M57.66,32.78c-.35,0-.63-.28-.63-.63s.28-.63,.63-.63,.63,.28,.63,.63-.28,.63-.63,.63Z"/><path class="cls-1" d="M53.02,32.78c-.35,0-.63-.28-.63-.63s.28-.63,.63-.63,.63,.28,.63,.63-.28,.63-.63,.63Z"/><path class="cls-1" d="M59.98,36.26c-.35,0-.63-.28-.63-.63s.28-.63,.63-.63,.63,.28,.63,.63-.28,.63-.63,.63Z"/><path class="cls-1" d="M55.34,36.26c-.34,0-.63-.28-.63-.63s.28-.63,.63-.63,.63,.28,.63,.63-.28,.63-.63,.63Z"/><path class="cls-1" d="M48.39,32.78c-.35,0-.63-.28-.63-.63s.28-.63,.63-.63,.63,.28,.63,.63-.28,.63-.63,.63Z"/><path class="cls-1" d="M50.7,36.26c-.35,0-.63-.28-.63-.63s.28-.63,.63-.63,.63,.28,.63,.63-.28,.63-.63,.63Z"/><path class="cls-1" d="M43.74,32.78c-.34,0-.63-.28-.63-.63s.28-.63,.63-.63,.63,.28,.63,.63-.28,.63-.63,.63Z"/><path class="cls-1" d="M46.06,36.26c-.35,0-.63-.28-.63-.63s.28-.63,.63-.63,.63,.28,.63,.63-.28,.63-.63,.63Z"/><path class="cls-1" d="M39.11,32.78c-.35,0-.63-.28-.63-.63s.28-.63,.63-.63,.63,.28,.63,.63-.28,.63-.63,.63Z"/><path class="cls-1" d="M41.43,36.26c-.35,0-.63-.28-.63-.63s.28-.63,.63-.63,.63,.28,.63,.63-.28,.63-.63,.63Z"/><path class="cls-1" d="M34.47,88.65c-2.6,0-4.87-1.85-5.38-4.4l-.05-.24H.86c-.48,0-.86-.39-.86-.86s.39-.86,.86-.86H29.04l.05-.24c.44-2.16,2.12-3.84,4.28-4.29l.24-.05v-9.93H5.05c-2.78,0-5.05-2.26-5.05-5.05v-13.65c0-1.54,.71-2.98,1.95-3.95l.3-.23-.3-.23c-1.24-.97-1.95-2.41-1.95-3.95v-13.66c0-2.78,2.26-5.05,5.05-5.05H63.9c2.78,0,5.05,2.26,5.05,5.05v13.66c0,1.54-.71,2.98-1.95,3.95l-.3,.23,.3,.23c1.24,.97,1.95,2.41,1.95,3.95v13.65c0,2.78-2.26,5.05-5.05,5.05h-28.56v9.93l.24,.05c2.17,.45,3.85,2.13,4.28,4.29l.05,.24h28.18c.48,0,.86,.38,.86,.86s-.39,.86-.86,.86h-28.18l-.05,.24c-.52,2.55-2.78,4.4-5.38,4.4Zm0-9.27c-2.08,0-3.77,1.69-3.77,3.77s1.69,3.78,3.77,3.78,3.77-1.7,3.77-3.78-1.69-3.77-3.77-3.77ZM5.05,45.77c-1.83,0-3.32,1.49-3.32,3.32v13.65c0,1.83,1.49,3.32,3.32,3.32H63.9c1.83,0,3.32-1.49,3.32-3.32v-13.65c0-1.83-1.49-3.32-3.32-3.32H5.05Zm0-22.02c-1.83,0-3.32,1.49-3.32,3.32v13.66c0,1.83,1.49,3.32,3.32,3.32H63.9c1.83,0,3.32-1.49,3.32-3.32v-13.66c0-1.83-1.49-3.32-3.32-3.32H5.05Z"/><path class="cls-1" d="M11.87,60.83c-2.71,0-4.91-2.2-4.91-4.91s2.2-4.92,4.91-4.92,4.92,2.21,4.92,4.92-2.21,4.91-4.92,4.91Zm0-8.11c-1.76,0-3.2,1.43-3.2,3.19s1.43,3.2,3.2,3.2,3.2-1.43,3.2-3.2-1.43-3.19-3.2-3.19Z"/><path class="cls-1" d="M57.66,54.81c-.35,0-.63-.28-.63-.63s.28-.63,.63-.63,.63,.28,.63,.63-.28,.63-.63,.63Z"/><path class="cls-1" d="M53.02,54.81c-.35,0-.63-.28-.63-.63s.28-.63,.63-.63,.63,.28,.63,.63-.28,.63-.63,.63Z"/><path class="cls-1" d="M59.98,58.29c-.35,0-.63-.28-.63-.63s.28-.63,.63-.63,.63,.28,.63,.63-.28,.63-.63,.63Z"/><path class="cls-1" d="M55.34,58.29c-.34,0-.63-.28-.63-.63s.28-.63,.63-.63,.63,.28,.63,.63-.28,.63-.63,.63Z"/><path class="cls-1" d="M48.39,54.81c-.35,0-.63-.28-.63-.63s.28-.63,.63-.63,.63,.28,.63,.63-.27,.63-.63,.63Z"/><circle class="cls-1" cx="50.7" cy="57.66" r=".63"/><path class="cls-1" d="M43.74,54.81c-.35,0-.63-.28-.63-.63s.28-.63,.63-.63,.63,.28,.63,.63-.28,.63-.63,.63Z"/><path class="cls-1" d="M46.06,58.29c-.35,0-.63-.28-.63-.63s.28-.63,.63-.63,.63,.28,.63,.63-.28,.63-.63,.63Z"/><path class="cls-1" d="M39.11,54.81c-.35,0-.63-.28-.63-.63s.28-.63,.63-.63,.63,.28,.63,.63-.28,.63-.63,.63Z"/><path class="cls-1" d="M41.43,58.29c-.35,0-.63-.28-.63-.63s.28-.63,.63-.63,.63,.28,.63,.63-.28,.63-.63,.63Z"/></g></g></svg>