<?xml version="1.0" encoding="UTF-8"?><svg id="Layer_2" xmlns="http://www.w3.org/2000/svg" viewBox="0 0 70.58 88.33"><defs><style>.cls-1{fill:#fff;}</style></defs><g id="work"><g><path class="cls-1" d="M24.56,4.85l-11.25,11.25c-.15,.15-.38,.15-.53,0l-3.17-3.17c-.21-.21-.48-.32-.78-.32s-.57,.11-.77,.32c-.21,.21-.32,.48-.32,.78s.11,.57,.32,.78l4.99,4.99L26.11,6.4c.43-.43,.43-1.12,0-1.55-.43-.43-1.12-.43-1.55,0Z"/><path class="cls-1" d="M23.22,22.85c0,.21-.17,.38-.38,.38H2.57c-.21,0-.38-.17-.38-.38V2.57c0-.21,.17-.38,.38-.38H23.95V0H0V25.42H25.42V13.08h-2.19v9.77Z"/><path class="cls-1" d="M37.39,8.17h17.96c.6,0,1.1-.49,1.1-1.1s-.49-1.1-1.1-1.1h-17.96c-.6,0-1.1,.49-1.1,1.1s.49,1.1,1.1,1.1Z"/><path class="cls-1" d="M37.4,17.92c0,.6,.49,1.1,1.1,1.1h30.99c.6,0,1.1-.49,1.1-1.1s-.49-1.1-1.1-1.1h-30.99c-.6,0-1.1,.49-1.1,1.1Z"/><path class="cls-1" d="M24.56,36.3l-11.26,11.25c-.15,.15-.38,.15-.53,0l-3.17-3.17c-.21-.21-.48-.32-.78-.32s-.57,.11-.77,.32c-.21,.21-.32,.48-.32,.78s.11,.57,.32,.78l4.99,4.99,13.07-13.07c.43-.43,.43-1.12,0-1.55s-1.14-.41-1.55,0Z"/><path class="cls-1" d="M23.22,54.31c0,.21-.17,.38-.38,.38H2.57c-.21,0-.38-.17-.38-.38v-20.28c0-.21,.17-.38,.38-.38H23.95v-2.19H0v25.42H25.42v-12.33h-2.19v9.77Z"/><path class="cls-1" d="M37.39,39.62h17.96c.6,0,1.1-.49,1.1-1.1s-.49-1.1-1.1-1.1h-17.96c-.6,0-1.1,.49-1.1,1.1s.49,1.1,1.1,1.1Z"/><path class="cls-1" d="M69.48,48.28h-30.99c-.6,0-1.1,.49-1.1,1.1s.49,1.1,1.1,1.1h30.99c.6,0,1.1-.49,1.1-1.1s-.49-1.1-1.1-1.1Z"/><path class="cls-1" d="M24.56,67.76l-11.26,11.25c-.15,.15-.38,.15-.53,0l-3.17-3.17c-.21-.21-.48-.32-.78-.32s-.57,.11-.77,.32c-.21,.21-.32,.48-.32,.78s.11,.57,.32,.78l4.99,4.99,13.07-13.07c.43-.43,.43-1.12,0-1.55s-1.14-.41-1.55,0Z"/><path class="cls-1" d="M2.57,86.14c-.21,0-.38-.17-.38-.38v-20.28c0-.21,.17-.38,.38-.38H23.95v-2.19H0v25.42H25.42v-12.33h-2.19v9.77c0,.21-.17,.38-.38,.38H2.57Z"/><path class="cls-1" d="M55.35,71.08c.6,0,1.1-.49,1.1-1.1s-.49-1.1-1.1-1.1h-17.96c-.6,0-1.1,.49-1.1,1.1s.49,1.1,1.1,1.1h17.96Z"/><path class="cls-1" d="M69.48,79.73h-30.99c-.6,0-1.1,.49-1.1,1.1s.49,1.1,1.1,1.1h30.99c.6,0,1.1-.49,1.1-1.1s-.49-1.1-1.1-1.1Z"/></g></g></svg>