<?xml version="1.0" encoding="UTF-8"?><svg id="Layer_2" xmlns="http://www.w3.org/2000/svg" viewBox="0 0 84.14 86"><defs><style>.cls-1{fill:#fff;}</style></defs><g id="work"><g><path class="cls-1" d="M22.39,47.77c-3.73,0-6.76,3.03-6.76,6.76s3.03,6.76,6.76,6.76,6.76-3.03,6.76-6.76h0c0-3.73-3.03-6.75-6.76-6.76Zm0,12.03h0c-2.91,0-5.28-2.36-5.28-5.28s2.36-5.28,5.28-5.28,5.28,2.36,5.28,5.28c0,2.91-2.36,5.28-5.28,5.28Z"/><path class="cls-1" d="M33.91,54.52c-.02-6.35-5.17-11.49-11.52-11.49-6.36,0-11.52,5.16-11.52,11.52s5.16,11.52,11.52,11.52,11.52-5.16,11.52-11.52v-.03Zm-11.52,10.04v.02c-5.54,0-10.04-4.49-10.04-10.04s4.49-10.04,10.04-10.04,10.03,4.48,10.04,10.02c0,5.54-4.5,10.03-10.04,10.04Z"/><path class="cls-1" d="M22.39,38.21c-9,0-16.3,7.3-16.3,16.3s7.3,16.3,16.3,16.3,16.3-7.3,16.3-16.3-7.3-16.3-16.3-16.3Zm.01,31.13h-.01c-8.18-.01-14.82-6.65-14.82-14.83s6.63-14.82,14.82-14.82,14.82,6.63,14.82,14.82c0,8.18-6.62,14.83-14.8,14.83Z"/><path class="cls-1" d="M63.44,35.49c-.21-.02-.42-.02-.63,0h-13.03c-1.84,.17-3.19,1.81-3.02,3.65,.15,1.6,1.42,2.87,3.02,3.02h13.03c1.84,.17,3.48-1.18,3.65-3.02,.17-1.84-1.18-3.48-3.02-3.65Zm-7.88,5.16h-5.78c-1.02-.13-1.75-1.06-1.62-2.09,.11-.85,.77-1.51,1.62-1.62h5.78v3.7Zm7.26,.03h-5.79v-3.7h5.78c1.03,0,1.87,.81,1.88,1.84,0,1.03-.84,1.87-1.87,1.87Z"/><path class="cls-1" d="M11.43,74.46c0-1.49-1.21-2.7-2.7-2.7s-2.7,1.21-2.7,2.7,1.21,2.7,2.7,2.7,2.7-1.21,2.7-2.7h0Zm-2.7,1.22c-.68,0-1.22-.55-1.22-1.22s.55-1.22,1.22-1.22,1.22,.55,1.22,1.22-.55,1.22-1.22,1.22Z"/><path class="cls-1" d="M72.4,35.46h-.01c-1.85,0-3.34,1.5-3.35,3.35,0,1.85,1.5,3.36,3.35,3.36s3.36-1.5,3.36-3.35c0-1.85-1.5-3.36-3.35-3.36Zm1.82,3.35c0,1.04-.83,1.88-1.87,1.88s-1.88-.83-1.88-1.87,.83-1.88,1.87-1.88h0c1.04-.02,1.89,.8,1.91,1.84,0,.01,0,.02,0,.03h-.04Z"/><path class="cls-1" d="M8.07,31.32c-1.49,0-2.71,1.2-2.71,2.7h0c0,1.5,1.21,2.7,2.7,2.71,1.49,0,2.71-1.2,2.71-2.7,0-1.49-1.2-2.71-2.7-2.71Zm0,3.93c-.68,0-1.23-.54-1.23-1.22h0c0-.68,.54-1.23,1.22-1.23,.68,0,1.23,.54,1.23,1.22,0,.68-.54,1.23-1.22,1.23Z"/><path class="cls-1" d="M60.33,59.16h-14.91c-.41,0-.74,.33-.74,.74s.33,.74,.74,.74h14.91c.41,0,.74-.33,.74-.74s-.33-.74-.74-.74Z"/><path class="cls-1" d="M63.48,53.29h-18.06c-.41,0-.74,.33-.74,.74s.33,.74,.74,.74h18.06c.41,0,.74-.33,.74-.74s-.33-.74-.74-.74Z"/><path class="cls-1" d="M75.22,48.07h-29.79c-.41,0-.74,.33-.74,.74s.33,.74,.74,.74h29.79c.41,0,.74-.33,.74-.74s-.33-.74-.74-.74Z"/><path class="cls-1" d="M75.57,53.29h-7.31c-.41,0-.74,.33-.74,.74s.33,.74,.74,.74h7.31c.41,0,.74-.33,.74-.74s-.33-.74-.74-.74Z"/><path class="cls-1" d="M75.57,59.16h-11c-.41,0-.74,.33-.74,.74s.33,.74,.74,.74h11c.41,0,.74-.33,.74-.74,0-.41-.33-.74-.74-.74Z"/><path class="cls-1" d="M75.55,70.76h-16.45c-.41,0-.74,.33-.74,.74s.33,.74,.74,.74h16.45c.41,0,.74-.33,.74-.74,0-.41-.33-.74-.74-.74Z"/><path class="cls-1" d="M54.45,70.76h-9.03c-.41,0-.74,.33-.74,.74s.33,.74,.74,.74h9.03c.41,0,.74-.33,.74-.74s-.33-.74-.74-.74Z"/><path class="cls-1" d="M75.57,64.89h-30.15c-.41,0-.74,.33-.74,.74s.33,.74,.74,.74h30.15c.41,0,.74-.33,.74-.74,0-.41-.33-.74-.74-.74Z"/><path class="cls-1" d="M76.89,25.46h-5.02l8.51-20.57h.22c1.35,.02,2.46-1.07,2.47-2.42,.02-1.35-1.07-2.46-2.42-2.47-1.35-.02-2.46,1.07-2.47,2.42,0,.71,.3,1.39,.83,1.86l-8.74,21.15h-4.17v-3.09c0-4.72-3.83-8.55-8.56-8.56H14.65c-4.72,0-8.55,3.83-8.56,8.56v3.22C2.6,26.11,.02,29.12,0,32.65v42.11c-.01,3.99,3.21,7.23,7.2,7.25h.63v3.25c0,.41,.33,.74,.74,.74H75.58c.41,0,.74-.33,.74-.74v-3.22h.59c3.99,0,7.22-3.23,7.22-7.22V32.65c-.02-3.99-3.27-7.21-7.25-7.19Zm2.77-22.99c0-.52,.42-.93,.93-.93,.52,0,.94,.41,.95,.93s-.41,.94-.93,.95-.94-.41-.95-.93c0,0,0,0,0-.01ZM7.57,22.34c0-3.91,3.17-7.07,7.08-7.08H57.54c3.91,0,7.07,3.17,7.08,7.08v3.12h-2.14v-3.11c-.06-2.82-2.37-5.07-5.19-5.07H14.92c-2.82,0-5.12,2.25-5.19,5.07v3.11h-2.16v-3.12Zm53.4,0v3.11H11.2v-3.11c.04-2.01,1.69-3.61,3.7-3.59H57.27c2.01-.02,3.66,1.58,3.7,3.59Zm13.86,62.17H9.3v-2.47H74.83v2.47Zm7.82-9.75c0,3.17-2.57,5.73-5.74,5.73H7.24c-3.17,0-5.74-2.57-5.74-5.73V32.65c.02-3.16,2.58-5.71,5.74-5.71H76.89c3.16,0,5.74,2.55,5.76,5.71v42.11Z"/></g></g></svg>