<?xml version="1.0" encoding="UTF-8"?><svg id="Layer_2" xmlns="http://www.w3.org/2000/svg" viewBox="0 0 81.6 100.79"><defs><style>.cls-1{fill:#fff;}</style></defs><g id="work"><g><g><path class="cls-1" d="M74.02,9.54h-.05c-.2,.01-.8,.05-1.75,.05-5.17,0-18.52-.92-30.91-9.43-.3-.21-.71-.21-1.01,0C27.9,8.67,14.55,9.59,9.38,9.59c-1.1,0-1.72-.04-1.75-.05-4.2,0-7.63,3.18-7.63,7.08V51.43c0,13.46,7.01,26.26,20.28,37.02,9.94,8.06,19.77,12.12,20.18,12.28,.21,.09,.46,.09,.67,0,.41-.17,10.23-4.22,20.18-12.28,13.27-10.76,20.28-23.56,20.28-37.02V16.62c0-3.9-3.4-7.08-7.58-7.08Zm5.8,41.89c0,29.3-34.74,45.61-38.71,47.37l-.31,.14-.31-.14c-3.96-1.76-38.7-18.04-38.7-47.37V16.62c0-2.89,2.58-5.27,5.74-5.3h.05c.17,.01,.81,.05,1.8,.05,5.14,0,18.44-.89,31-9.12l.42-.27,.42,.27c12.56,8.24,25.86,9.12,31,9.12,.99,0,1.63-.04,1.8-.05,3.2,.03,5.8,2.4,5.8,5.29V51.43Z"/><path class="cls-1" d="M70.53,19.76c-5.88-.18-17.52-1.42-29.31-7.74-.26-.14-.58-.14-.84,0-6.21,3.32-13.05,5.62-20.33,6.84-.48,.08-.81,.54-.73,1.03,.08,.48,.54,.81,1.03,.73,7.17-1.2,13.94-3.42,20.11-6.62l.35-.18,.35,.18c10.6,5.49,20.94,7.09,27.74,7.47l.72,.04v29.91c0,18.84-19.9,31.44-28.46,35.99l-.36,.19-.36-.19c-8.56-4.54-28.45-17.15-28.45-35.99V29.61c0-.49-.4-.89-.89-.89s-.89,.4-.89,.89v21.82c0,20.17,21.11,33.28,30.18,37.97,.25,.13,.57,.13,.82,0,9.08-4.7,30.18-17.8,30.18-37.97V20.65c0-.49-.38-.88-.86-.89Z"/></g><g><g><path class="cls-1" d="M36.75,45.27h16.73c2.13,0,3.87,1.73,3.87,3.87v7.92c0,9.12-7.42,16.54-16.54,16.54s-16.54-7.42-16.54-16.54v-7.92c0-2.13,1.73-3.87,3.87-3.87h.89m-.88,1.4c-1.36,0-2.47,1.11-2.47,2.47v7.92c0,8.35,6.79,15.14,15.14,15.14s15.14-6.79,15.14-15.14v-7.92c0-1.36-1.11-2.47-2.47-2.47H28.13Zm2.28-1.4h4.94"/><path class="cls-1" d="M40.8,64.09c-.39,0-.7-.31-.7-.7v-2.49l-.53-.18c-1.58-.53-2.63-2-2.63-3.66,0-2.13,1.73-3.87,3.87-3.87s3.87,1.73,3.87,3.87c0,1.66-1.06,3.13-2.64,3.66l-.53,.18v2.49c0,.39-.31,.7-.7,.7Zm0-9.5c-1.36,0-2.47,1.11-2.47,2.47s1.11,2.47,2.47,2.47,2.47-1.11,2.47-2.47-1.11-2.47-2.47-2.47Z"/></g><g><path class="cls-1" d="M45.6,45.73h-1.49v-6.74c0-1.82-1.48-3.31-3.31-3.31s-3.31,1.48-3.31,3.31v6.67h-1.49v-6.67c0-2.65,2.15-4.8,4.8-4.8s4.8,2.15,4.8,4.8v6.74Z"/><path class="cls-1" d="M53.33,45.73h-1.49v-6.74c0-6.09-4.95-11.04-11.04-11.04s-11.04,4.95-11.04,11.04v6.67h-1.49v-6.67c0-6.91,5.62-12.53,12.53-12.53s12.53,5.62,12.53,12.53v6.74Z"/></g></g></g></g></svg>