<?xml version="1.0" encoding="UTF-8"?><svg id="Layer_2" xmlns="http://www.w3.org/2000/svg" viewBox="0 0 95.95 90.26"><defs><style>.cls-1{fill:#fff;}</style></defs><g id="work"><g><path class="cls-1" d="M43.3,34.94h-9.39c-.39,0-.7,.31-.7,.7v5.23c0,1.15-.94,2.09-2.1,2.09H12.94c-1.98,0-2.1-1.75-2.1-2.09v-5.23c0-.39-.31-.7-.7-.7H.7c-.39,0-.7,.31-.7,.7v53.92c0,.39,.31,.7,.7,.7H10.14c.39,0,.7-.31,.7-.7v-5.34c0-1.15,.94-2.09,2.1-2.09H31.11c1.16,0,2.1,.94,2.1,2.09v5.34c0,.39,.31,.7,.7,.7h9.39c.39,0,.7-.31,.7-.7V35.64c0-.39-.31-.7-.7-.7Zm-5.62,53.77v-3.03c0-.12,.1-.22,.22-.22h1.12c.12,0,.22,.1,.22,.22v3.03h-1.57Zm4.92,.15h-1.95v-3.18c0-.89-.73-1.62-1.62-1.62h-1.12c-.89,0-1.62,.73-1.62,1.62v3.18h-1.68v-4.64c0-1.93-1.57-3.49-3.5-3.49H12.94c-1.93,0-3.5,1.57-3.5,3.49v4.64h-2.18v-3.18c0-.89-.73-1.62-1.62-1.62h-1.12c-.89,0-1.62,.73-1.62,1.62v3.18H1.4V36.34h1.49v2.32c0,.94,.77,1.71,1.71,1.71h.95c.94,0,1.71-.77,1.71-1.71v-2.32h2.18v4.53c0,1.21,.73,3.49,3.5,3.49H31.11c1.93,0,3.5-1.57,3.5-3.49v-4.53h1.68v2.32c0,.94,.77,1.71,1.71,1.71h.95c.94,0,1.71-.77,1.71-1.71v-2.32h1.95v52.52Zm-38.32-.15v-3.03c0-.12,.1-.22,.22-.22h1.12c.12,0,.22,.1,.22,.22v3.03h-1.57Zm0-52.37h1.57v2.32c0,.17-.14,.31-.31,.31h-.95c-.17,0-.31-.14-.31-.31v-2.32Zm34.97,0v2.32c0,.17-.14,.31-.31,.31h-.95c-.17,0-.31-.14-.31-.31v-2.32h1.57Z"/><path class="cls-1" d="M31.11,51H12.94c-1.93,0-3.5,1.57-3.5,3.49v16.8c0,1.93,1.57,3.49,3.5,3.49H31.11c1.93,0,3.5-1.57,3.5-3.49v-16.8c0-1.93-1.57-3.49-3.5-3.49Zm2.1,20.29c0,1.15-.94,2.09-2.1,2.09H12.94c-1.16,0-2.1-.94-2.1-2.09v-16.8c0-1.15,.94-2.09,2.1-2.09H31.11c1.16,0,2.1,.94,2.1,2.09v16.8Z"/><path class="cls-1" d="M5.53,45.29h-.92c-.95,0-1.73,.77-1.73,1.72v4.28c0,.95,.77,1.72,1.73,1.72h.92c.95,0,1.73-.77,1.73-1.72v-4.28c0-.95-.77-1.72-1.73-1.72Zm.33,6c0,.18-.15,.32-.33,.32h-.92c-.18,0-.33-.14-.33-.32v-4.28c0-.18,.15-.32,.33-.32h.92c.18,0,.33,.14,.33,.32v4.28Z"/><path class="cls-1" d="M5.53,57.93h-.92c-.95,0-1.73,.77-1.73,1.72v4.28c0,.95,.77,1.72,1.73,1.72h.92c.95,0,1.73-.77,1.73-1.72v-4.28c0-.95-.77-1.72-1.73-1.72Zm.33,6c0,.18-.15,.32-.33,.32h-.92c-.18,0-.33-.14-.33-.32v-4.28c0-.18,.15-.32,.33-.32h.92c.18,0,.33,.14,.33,.32v4.28Z"/><path class="cls-1" d="M5.53,70.58h-.92c-.95,0-1.73,.77-1.73,1.72v4.28c0,.95,.77,1.72,1.73,1.72h.92c.95,0,1.73-.77,1.73-1.72v-4.28c0-.95-.77-1.72-1.73-1.72Zm.33,6c0,.18-.15,.32-.33,.32h-.92c-.18,0-.33-.14-.33-.32v-4.28c0-.18,.15-.32,.33-.32h.92c.18,0,.33,.14,.33,.32v4.28Z"/><path class="cls-1" d="M38.93,70.58h-.92c-.95,0-1.73,.77-1.73,1.72v4.28c0,.95,.77,1.72,1.73,1.72h.92c.95,0,1.73-.77,1.73-1.72v-4.28c0-.95-.77-1.72-1.73-1.72Zm.33,6c0,.18-.15,.32-.33,.32h-.92c-.18,0-.33-.14-.33-.32v-4.28c0-.18,.15-.32,.33-.32h.92c.18,0,.33,.14,.33,.32v4.28Z"/><path class="cls-1" d="M38.93,57.93h-.92c-.95,0-1.73,.77-1.73,1.72v4.28c0,.95,.77,1.72,1.73,1.72h.92c.95,0,1.73-.77,1.73-1.72v-4.28c0-.95-.77-1.72-1.73-1.72Zm.33,6c0,.18-.15,.32-.33,.32h-.92c-.18,0-.33-.14-.33-.32v-4.28c0-.18,.15-.32,.33-.32h.92c.18,0,.33,.14,.33,.32v4.28Z"/><path class="cls-1" d="M38.93,45.29h-.92c-.95,0-1.73,.77-1.73,1.72v4.28c0,.95,.77,1.72,1.73,1.72h.92c.95,0,1.73-.77,1.73-1.72v-4.28c0-.95-.77-1.72-1.73-1.72Zm.33,6c0,.18-.15,.32-.33,.32h-.92c-.18,0-.33-.14-.33-.32v-4.28c0-.18,.15-.32,.33-.32h.92c.18,0,.33,.14,.33,.32v4.28Z"/><path class="cls-1" d="M29.57,20.77c-1.68,0-3.05,1.37-3.05,3.05s1.37,3.05,3.05,3.05c1.44,0,2.65-1.01,2.96-2.35h4.91c.39,0,.7-.31,.7-.7s-.31-.7-.7-.7h-4.91c-.32-1.35-1.52-2.35-2.96-2.35Zm1.65,3.05c0,.91-.74,1.65-1.65,1.65s-1.65-.74-1.65-1.65,.74-1.65,1.65-1.65,1.65,.74,1.65,1.65Z"/><path class="cls-1" d="M18.18,20.05c1.52,0,2.79-1.04,3.16-2.44h7.35c.39,0,.7-.31,.7-.7v-2.72h5.32c.39,0,.7-.31,.7-.7s-.31-.7-.7-.7h-6.02c-.39,0-.7,.31-.7,.7v2.72h-6.58s0-.09-.02-.13c-.32-1.49-1.64-2.61-3.22-2.61-1.81,0-3.29,1.48-3.29,3.29s1.48,3.29,3.29,3.29Zm0-5.18c1.04,0,1.89,.85,1.89,1.89s-.85,1.89-1.89,1.89-1.89-.85-1.89-1.89,.85-1.89,1.89-1.89Z"/><path class="cls-1" d="M25.63,9.61c1.44,0,2.65-1.01,2.96-2.35h4.91c.39,0,.7-.31,.7-.7s-.31-.7-.7-.7h-4.91c-.32-1.35-1.52-2.35-2.96-2.35-1.68,0-3.05,1.37-3.05,3.05s1.37,3.05,3.05,3.05Zm0-4.71c.91,0,1.65,.74,1.65,1.65s-.74,1.65-1.65,1.65-1.65-.74-1.65-1.65,.74-1.65,1.65-1.65Z"/><path class="cls-1" d="M53.08,29.5s.06,0,.09,0l3.85-.19c.45-.02,.87-.22,1.18-.56,.3-.34,.46-.77,.44-1.23l-.1-1.94c.54-.21,1.07-.46,1.57-.75l1.44,1.3c.34,.3,.78,.47,1.23,.44,.45-.02,.87-.22,1.18-.56l2.58-2.86c.3-.34,.46-.77,.44-1.23-.02-.45-.22-.87-.56-1.17l-1.44-1.3c.24-.53,.43-1.08,.58-1.64l1.94-.1c.94-.05,1.66-.85,1.61-1.78l-.19-3.85c-.05-.94-.84-1.64-1.78-1.61l-1.94,.1c-.21-.54-.46-1.07-.74-1.57l1.3-1.44c.63-.7,.57-1.77-.12-2.4l-2.86-2.58c-.7-.63-1.77-.57-2.4,.12l-1.3,1.44c-.53-.23-1.08-.43-1.64-.58l-.1-1.94c-.02-.45-.22-.87-.56-1.18-.34-.31-.78-.45-1.22-.44l-3.85,.19c-.45,.02-.87,.22-1.18,.56s-.46,.77-.44,1.23l.1,1.94c-.54,.21-1.07,.46-1.57,.75l-1.44-1.3c-.34-.3-.77-.46-1.23-.44-.45,.02-.87,.22-1.18,.56l-2.59,2.86c-.63,.7-.57,1.77,.12,2.4l1.44,1.3c-.23,.53-.43,1.08-.58,1.64l-1.94,.1c-.45,.02-.87,.22-1.18,.56-.3,.34-.46,.77-.44,1.23l.19,3.85c.05,.94,.84,1.66,1.78,1.61l1.94-.1c.21,.54,.46,1.07,.74,1.57l-1.3,1.44c-.3,.34-.46,.77-.44,1.23,.02,.45,.22,.87,.56,1.18l2.86,2.58c.34,.3,.77,.47,1.23,.44,.45-.02,.87-.22,1.18-.56l1.3-1.44c.53,.23,1.08,.43,1.64,.58l.1,1.94c.05,.91,.8,1.62,1.7,1.62Zm-6.2-3.62l-2.86-2.58c-.08-.07-.1-.16-.1-.21,0-.05,0-.14,.08-.22l1.39-1.53c.36-.4,.42-.98,.14-1.45-.29-.5-.54-1.02-.74-1.56-.19-.51-.68-.85-1.22-.81l-2.06,.1c-.17-.02-.31-.12-.31-.29l-.19-3.85c0-.11,.05-.18,.08-.22,.03-.04,.1-.09,.21-.1l2.06-.1c.54-.03,.99-.4,1.13-.93,.15-.56,.34-1.1,.58-1.63,.23-.5,.11-1.07-.29-1.43l-1.53-1.38c-.12-.11-.13-.3-.02-.42l2.58-2.86c.07-.08,.16-.1,.21-.1,.05,0,.14,0,.22,.08l1.53,1.39c.4,.36,.98,.42,1.45,.14,.5-.29,1.02-.54,1.56-.74,.51-.19,.84-.68,.81-1.22l-.1-2.06c0-.11,.05-.18,.08-.22,.03-.03,.1-.09,.21-.1l3.85-.19c.1,0,.18,.05,.22,.08,.03,.03,.09,.1,.1,.21l.1,2.06c.03,.54,.4,.99,.93,1.13,.56,.15,1.11,.34,1.63,.58,.49,.23,1.07,.11,1.43-.29l1.38-1.53c.11-.12,.3-.13,.42-.02l2.86,2.58c.12,.11,.13,.3,.02,.42l-1.39,1.53c-.36,.4-.42,.98-.14,1.45,.29,.5,.54,1.02,.74,1.56,.19,.51,.68,.84,1.22,.81l2.06-.1c.16-.01,.31,.12,.31,.29l.19,3.85c0,.17-.12,.31-.28,.32l-2.06,.1c-.54,.03-.99,.4-1.13,.93-.15,.56-.34,1.1-.58,1.63-.23,.5-.11,1.07,.29,1.43l1.53,1.39c.08,.07,.1,.16,.1,.21,0,.05,0,.14-.08,.22l-2.59,2.86c-.07,.08-.16,.1-.21,.1-.05,0-.14,0-.22-.08l-1.53-1.38c-.4-.36-.98-.42-1.45-.15-.49,.29-1.02,.54-1.56,.74-.51,.19-.83,.68-.81,1.22l.1,2.06c0,.11-.05,.18-.08,.22-.03,.03-.1,.09-.21,.1l-3.85,.19c-.17,0-.31-.12-.31-.29l-.1-2.06c-.03-.54-.4-.99-.93-1.13-.56-.15-1.11-.34-1.63-.58-.17-.08-.35-.11-.52-.11-.34,0-.67,.14-.91,.4l-1.39,1.53c-.07,.08-.16,.1-.21,.1-.04,0-.14,0-.22-.08Z"/><path class="cls-1" d="M54.35,21.98c1.98,0,3.94-.8,5.37-2.38,2.68-2.96,2.45-7.55-.51-10.22-2.96-2.67-7.54-2.45-10.22,.51h0c-2.68,2.96-2.45,7.55,.51,10.22,1.38,1.25,3.12,1.87,4.85,1.87Zm-4.33-11.15c2.16-2.39,5.86-2.57,8.24-.41,2.39,2.16,2.57,5.86,.41,8.24-2.16,2.39-5.86,2.57-8.24,.41-2.39-2.16-2.57-5.86-.41-8.24h0Z"/><path class="cls-1" d="M73.77,39.13c-12.23,0-22.18,9.97-22.18,22.23s9.95,22.23,22.18,22.23,22.18-9.97,22.18-22.23-9.95-22.23-22.18-22.23Zm0,43.05c-11.46,0-20.78-9.34-20.78-20.83s9.32-20.83,20.78-20.83,20.78,9.34,20.78,20.83-9.32,20.83-20.78,20.83Z"/><path class="cls-1" d="M65.68,51.54h-.66v-2.2c0-.39-.31-.7-.7-.7s-.7,.31-.7,.7v2.2h-.66c-1.31,0-2.37,1.06-2.37,2.37s1.06,2.37,2.37,2.37h.66v17.6c0,.39,.31,.7,.7,.7s.7-.31,.7-.7v-17.6h.66c1.31,0,2.37-1.06,2.37-2.37s-1.06-2.37-2.37-2.37Zm0,3.34h-2.72c-.53,0-.97-.43-.97-.97s.43-.97,.97-.97h2.72c.53,0,.97,.43,.97,.97s-.43,.97-.97,.97Z"/><path class="cls-1" d="M74.6,64.77h-.66v-15.43c0-.39-.31-.7-.7-.7s-.7,.31-.7,.7v15.43h-.66c-1.31,0-2.37,1.06-2.37,2.37s1.06,2.37,2.37,2.37h.66v4.37c0,.39,.31,.7,.7,.7s.7-.31,.7-.7v-4.37h.66c1.31,0,2.37-1.06,2.37-2.37s-1.06-2.37-2.37-2.37Zm0,3.34h-2.72c-.53,0-.97-.43-.97-.97s.43-.97,.97-.97h2.72c.53,0,.97,.43,.97,.97s-.43,.97-.97,.97Z"/><path class="cls-1" d="M83.51,58.72h-.66v-9.38c0-.39-.31-.7-.7-.7s-.7,.31-.7,.7v9.38h-.66c-1.31,0-2.37,1.06-2.37,2.37s1.06,2.37,2.37,2.37h.66v10.42c0,.39,.31,.7,.7,.7s.7-.31,.7-.7v-10.42h.66c1.31,0,2.37-1.06,2.37-2.37s-1.06-2.37-2.37-2.37Zm0,3.34h-2.72c-.53,0-.97-.43-.97-.97s.43-.97,.97-.97h2.72c.53,0,.97,.43,.97,.97s-.43,.97-.97,.97Z"/></g></g></svg>