<?xml version="1.0" encoding="UTF-8"?><svg id="Layer_2" xmlns="http://www.w3.org/2000/svg" viewBox="0 0 56.15 83.23"><defs><style>.cls-1{fill:#fff;}</style></defs><g id="work"><g><path class="cls-1" d="M35.55,50.04c-2.83,0-5.41-1.45-6.88-3.89l-.6-.99-.6,.99c-1.47,2.44-4.05,3.89-6.88,3.89h-4.99c-.31,0-.56-.25-.56-.56,0-4.43,3.61-8.04,8.04-8.04h9.97c4.43,0,8.04,3.6,8.04,8.04,0,.31-.25,.56-.56,.56h-4.99Zm-6.78-6.64c.66,3.2,3.51,5.53,6.78,5.53h4.46l-.17-.84c-.66-3.2-3.51-5.53-6.78-5.53h-4.46l.17,.84Zm-5.69-.84c-3.27,0-6.12,2.32-6.78,5.52l-.17,.84h4.46c3.27,0,6.12-2.32,6.78-5.52l.17-.84h-4.46Z"/><path class="cls-1" d="M1.84,83.23c-.31,0-.56-.25-.56-.56v-11.56c0-2.04,.38-4.04,1.12-5.92,.09-.24,.3-.38,.53-.38,.31,0,.56,.25,.56,.56,0,.07-.01,.14-.04,.21-.7,1.76-1.05,3.62-1.05,5.53v11.56c0,.31-.25,.56-.56,.56Z"/><path class="cls-1" d="M54.31,83.23c-.31,0-.56-.25-.56-.56v-11.56c0-7.06-4.8-13.08-11.67-14.64l-.35-.08-.27,.23c-1.03,.89-2.15,1.68-3.33,2.35l-.31,.17-1.15,9.66c-.02,.21-.17,.39-.36,.46-.06,.02-.13,.03-.19,.03-.14,0-.28-.05-.38-.16l-7.11-6.8v20.32c0,.31-.25,.56-.56,.56s-.56-.25-.56-.56v-20.32l-7.11,6.8c-.1,.1-.24,.16-.38,.16-.06,0-.13-.01-.19-.03-.2-.07-.34-.25-.36-.46l-1.15-9.67-.31-.17c-1.18-.67-2.3-1.46-3.32-2.35l-.27-.23-.35,.08c-3.15,.72-6.04,2.48-8.13,4.96-.11,.13-.26,.2-.43,.2-.09,0-.23-.02-.36-.13-.11-.1-.18-.23-.2-.38-.01-.15,.03-.29,.13-.41,1.93-2.29,4.46-3.99,7.31-4.92l1.01-.33-.7-.8c-1.95-2.22-3.43-4.87-4.26-7.69l-.16-.55-.57,.05c-.21,.02-.42,.03-.63,.03-3.91,0-7.08-3.18-7.08-7.09,0-2.47,1.26-4.72,3.37-6.03l.4-.25-.07-.46c-1.68-10.64-.11-18.91,4.67-24.6,2.42-2.87,5.61-5.02,9.5-6.4,3.92-1.39,7.72-1.68,10.2-1.68,3.96,0,13.82,.82,19.94,8.37,.19,.24,.16,.59-.08,.78-.13,.1-.26,.12-.35,.12-.17,0-.33-.08-.43-.21C41.33,1.89,31.87,1.11,28.07,1.11s-13.01,.75-18.86,7.69c-4.48,5.32-6,13.1-4.51,23.12l.11,.74,.73-.16c.51-.11,1.02-.17,1.54-.17l.67,.03,.24-.42,4.99-10.7c.09-.2,.29-.32,.51-.32,.07,0,.14,.01,.21,.04,4.61,1.87,9.44,2.81,14.37,2.81s9.76-.95,14.37-2.81c.07-.03,.14-.04,.21-.04,.22,0,.41,.13,.51,.32l5.18,11.13,.72-.03c.51,0,1.03,.06,1.54,.17l.73,.16,.11-.74c1.11-7.5,.53-13.8-1.73-18.7-.13-.28,0-.61,.27-.74,.07-.03,.15-.05,.23-.05,.22,0,.42,.13,.51,.32,2.41,5.24,2.99,11.94,1.73,19.93l-.07,.46,.4,.25c2.11,1.3,3.37,3.56,3.37,6.03,0,3.91-3.18,7.08-7.09,7.08-.21,0-.42,0-.62-.03l-.57-.05-.16,.55c-.84,2.81-2.31,5.47-4.25,7.69l-.7,.8,1.01,.33c6.64,2.17,11.1,8.33,11.1,15.33v11.56c0,.31-.25,.56-.56,.56Zm-18.77-23.02c-1.15,.45-2.36,.8-3.58,1.03-.35,.07-.7,.12-1.06,.17l-1.43,.2,6.24,5.96,.92-7.79-1.09,.43Zm-15.1,7.37l6.23-5.96-1.43-.2c-1.59-.22-3.15-.63-4.63-1.21l-1.09-.43,.93,7.8ZM8.71,33.06v8.08c0,10.66,8.66,19.34,19.31,19.36,.19,0,.37,0,.56,0,1.09-.03,2.15-.14,3.17-.34,9.09-1.75,15.69-9.74,15.69-19.01v-8.08l-5.07-10.88-.61,.22c-4.42,1.64-9.02,2.47-13.69,2.47s-9.27-.83-13.69-2.47l-.6-.22-5.07,10.88Zm39.84,8.08c0,1.14-.1,2.29-.29,3.43l-.14,.8,.93,.03c3.29,0,5.97-2.68,5.97-5.97s-2.53-5.85-5.76-5.96l-.72-.03v3.98l.67,.03c1,.05,2.33,.43,2.99,1.95,.12,.28,0,.61-.29,.73-.07,.03-.14,.05-.22,.05-.22,0-.42-.13-.51-.33-.32-.75-.99-1.2-1.87-1.28l-.76-.07v2.65ZM6.87,33.45c-3.23,.12-5.75,2.73-5.75,5.96s2.68,5.97,5.97,5.97h.15s.78-.05,.78-.05l-.13-.77c-.19-1.13-.29-2.28-.29-3.43v-2.65l-.76,.07c-.88,.08-1.55,.53-1.88,1.28-.09,.2-.29,.33-.51,.33-.08,0-.15-.02-.22-.05-.14-.06-.24-.17-.3-.31-.05-.14-.05-.29,0-.43,.25-.56,1.03-1.88,2.98-1.96l.67-.03v-3.98l-.72,.03Z"/><path class="cls-1" d="M31.84,71.11c-.24,0-.45-.16-.53-.38-.07-.2,0-.44,.15-.59,.1-.09,.24-.15,.38-.15,.11,0,.21,.03,.3,.09,.21,.14,.3,.42,.22,.65-.08,.22-.29,.38-.52,.38h0Z"/><path class="cls-1" d="M44.29,83.23c-.31,0-.56-.25-.56-.56v-7.37c0-.31,.25-.56,.56-.56s.56,.25,.56,.56v7.37c0,.31-.25,.56-.56,.56Z"/><path class="cls-1" d="M11.86,83.23c-.31,0-.56-.25-.56-.56v-7.37c0-.31,.25-.56,.56-.56s.56,.25,.56,.56v7.37c0,.31-.25,.56-.56,.56Z"/><path class="cls-1" d="M1.97,83.23c-.31,0-.56-.25-.56-.56s.25-.56,.56-.56H54.33c.31,0,.56,.25,.56,.56s-.25,.56-.56,.56H1.97Z"/></g></g></svg>