<?xml version="1.0" encoding="UTF-8"?><svg id="Layer_2" xmlns="http://www.w3.org/2000/svg" viewBox="0 0 94.21 84.39"><defs><style>.cls-1{fill:#fff;}</style></defs><g id="work"><g><path class="cls-1" d="M92.14,68.62L56.21,6.37c-2.37-4.11-5.6-6.37-9.1-6.37s-6.72,2.26-9.1,6.37L2.07,68.62c-2.37,4.11-2.72,8.04-.97,11.07,1.75,3.03,5.32,4.69,10.07,4.69H83.05c4.75,0,8.32-1.67,10.07-4.69,1.75-3.03,1.4-6.96-.97-11.07Zm-.9,9.99c-1.35,2.33-4.26,3.62-8.2,3.62H11.17c-3.94,0-6.85-1.28-8.2-3.62-1.35-2.33-1-5.5,.97-8.92L39.87,7.45c1.97-3.42,4.54-5.3,7.23-5.3s5.27,1.88,7.24,5.3l35.94,62.25c1.97,3.42,2.32,6.58,.97,8.92Z"/><g><g><g><polygon class="cls-1" points="38.54 35.59 38.16 33.77 38.16 33.77 38.54 35.59"/><path class="cls-1" d="M38.16,33.77h0l.39,1.81-.38-1.81Z"/></g><polygon class="cls-1" points="38.14 33.55 38.13 33.55 38.13 32.54 38.14 33.55"/><path class="cls-1" d="M56.07,32.66h0c-.2-4.47-4.22-7.97-9.14-7.97s-8.52,3.34-8.8,7.78v.04s0,.04,0,.04v1.01s0,.11,0,.11l.02,.11,.38,1.81h0s4.41,20.98,4.41,20.98c.24,1.12,1.21,1.91,2.36,1.91h3.24s.09,0,.13,0c.06,0,.12,0,.16,0,1.14,0,2.13-.81,2.36-1.91l4.41-20.96,.44-2.08,.02-.09v-.09c0-.11,.01-.23,.01-.34s0-.23,0-.34Zm-2.15,.51h0s-.42,1.99-.42,1.99l-4.41,20.96c-.03,.13-.15,.2-.25,.2h-.05s-.18,0-.18,0c-.02,0-.03,0-.05,0h-3.24c-.12,0-.23-.08-.25-.2l-4.41-20.98-.36-1.71v-.86s0,0,0,0c.23-3.27,3.08-5.72,6.65-5.72,3.77,0,6.84,2.59,6.99,5.9,0,.08,0,.17,0,.26,0,.05,0,.11,0,.17Z"/></g><path class="cls-1" d="M47.11,73.35c-3.15,0-5.72-2.56-5.72-5.71s2.57-5.71,5.72-5.71,5.72,2.56,5.72,5.71-2.57,5.71-5.72,5.71Zm0-9.27c-1.97,0-3.57,1.6-3.57,3.56s1.6,3.56,3.57,3.56,3.57-1.6,3.57-3.56-1.6-3.56-3.57-3.56Z"/></g></g></g></svg>