<?xml version="1.0" encoding="UTF-8"?><svg id="Layer_2" xmlns="http://www.w3.org/2000/svg" viewBox="0 0 107.47 91.76"><defs><style>.cls-1{fill:#fff;}</style></defs><g id="work"><g><path class="cls-1" d="M82.53,43.52c-.32-3.6-1.33-7.07-2.99-10.3-1.66-3.23-3.89-6.07-6.63-8.43-2.84-2.45-6.1-4.27-9.7-5.43-3.6-1.16-7.31-1.57-11.04-1.24-3.6,.32-7.07,1.33-10.3,2.99-3.23,1.66-6.07,3.89-8.43,6.63-2.45,2.84-4.27,6.1-5.43,9.7-1.16,3.6-1.57,7.31-1.24,11.04,.32,3.6,1.33,7.07,2.99,10.3,1.66,3.23,3.89,6.07,6.63,8.43,2.84,2.45,6.1,4.27,9.7,5.43,2.79,.9,5.67,1.35,8.56,1.35,.82,0,1.66-.04,2.49-.11,3.6-.32,7.07-1.33,10.3-2.99,3.23-1.66,6.07-3.89,8.43-6.63,2.45-2.84,4.27-6.1,5.43-9.7,1.16-3.6,1.57-7.31,1.24-11.04Zm-2.84,11.29c-1.81,5.15-5.1,9.54-9.53,12.72-1.17-.91-2.37-1.78-3.6-2.58,.81-.94,1.59-1.95,2.32-3.01,1.89-2.76,3.42-5.83,4.55-9.14l6.26,2.01Zm-45.89-4.15c-.03,1.28,.02,2.56,.13,3.79-1.46-.06-2.95-.06-4.43,0-1.75-5.17-1.86-10.66-.33-15.89l6.26,2.01c-1.01,3.35-1.56,6.74-1.63,10.08Zm-4.19-13.47c1.97-5.61,5.81-10.43,10.85-13.61,1.07,.82,2.19,1.59,3.33,2.32-1.21,1.25-2.34,2.65-3.37,4.16-1.89,2.76-3.42,5.83-4.55,9.14l-6.26-2.01Zm16.79,5.4c1.5-4.52,3.37-8.78,5.43-12.33,2.22,1,4.58,1.9,7.01,2.69,2.43,.78,4.87,1.42,7.26,1.9-.4,4.09-1.35,8.64-2.77,13.19l-16.94-5.45Zm-.44,1.37l16.94,5.45c-1.3,3.93-2.91,7.7-4.66,10.94-2.31-1.06-4.76-2.01-7.3-2.82-2.53-.81-5.08-1.47-7.58-1.96,.47-3.65,1.36-7.65,2.59-11.6Zm4.56-14.31c-2.09,3.62-3.98,7.93-5.5,12.5l-7.78-2.5c1.73-5.06,4.42-9.53,7.8-12.97,1.74,1.06,3.58,2.06,5.47,2.97Zm9.03,31.31c1.77-3.3,3.4-7.13,4.72-11.11l7.78,2.5c-1.53,4.48-3.85,8.55-6.72,11.8-1.84-1.16-3.79-2.23-5.79-3.2Zm-14.97-17.44c-1.25,4-2.16,8.06-2.64,11.78-2.19-.38-4.39-.64-6.56-.78-.44-4.32,.05-8.98,1.42-13.51l7.78,2.5Zm11.22,23.35c1.04-1.37,2.06-2.93,3.05-4.65,1.89,.91,3.74,1.92,5.49,3.01-.97,1-2,1.91-3.07,2.71-3.46,2.61-7.12,3.96-10.66,3.96h-.08c1.7-.97,3.46-2.65,5.27-5.03Zm8.91-18.39c1.43-4.6,2.4-9.2,2.82-13.36,2.06,.36,4.14,.62,6.18,.78,.75,4.77,.33,9.97-1.21,15.09l-7.78-2.5Zm10.22-13.95c-.2-1.01-.45-1.99-.74-2.94-.79-2.51-1.89-4.72-3.29-6.6,3.05,2.36,5.57,5.4,7.36,8.88h0c.13,.25,.25,.49,.37,.74-1.23,.02-2.47,0-3.69-.08Zm-7.28-.86c.1-1.39,.13-2.72,.09-3.97-.08-2.99-.54-5.39-1.35-7.16,2.91,2.06,5.12,5.31,6.42,9.48,.24,.77,.45,1.58,.63,2.4-1.91-.15-3.85-.41-5.79-.75Zm-1.43-.27c-2.28-.46-4.61-1.08-6.94-1.83-2.33-.75-4.58-1.61-6.71-2.56,.68-1.09,1.37-2.1,2.06-3.01,1.56-2.04,3.07-3.54,4.51-4.45,1.37-.87,2.59-1.14,3.61-.82h0c1.02,.33,1.85,1.26,2.46,2.77,.64,1.58,1,3.68,1.07,6.25,.03,1.15,0,2.38-.08,3.65Zm-12.73-8.27c-.75,.99-1.51,2.09-2.23,3.28-1.77-.85-3.5-1.78-5.14-2.76,.62-.56,1.26-1.09,1.91-1.58,3.44-2.59,7.13-3.96,10.67-3.96h.07c-1.7,.97-3.46,2.65-5.27,5.03Zm-6.34-2.22c-.79,.6-1.57,1.25-2.31,1.95-1.03-.65-2.05-1.34-3.04-2.07,3.64-2.01,7.7-3.15,11.83-3.31-2.22,.71-4.39,1.86-6.48,3.43Zm-13.06,33c.22,1.55,.56,3.07,1.01,4.5,.78,2.49,1.88,4.69,3.26,6.56-3.67-2.87-6.59-6.72-8.34-11.08,1.36-.04,2.73-.04,4.07,.02Zm7.68,.83c-.2,1.97-.28,3.84-.23,5.55,.08,2.99,.54,5.39,1.35,7.16-2.91-2.06-5.12-5.31-6.42-9.48-.4-1.27-.7-2.61-.91-3.99,2.05,.13,4.14,.39,6.21,.75Zm1.42,.27c2.4,.47,4.86,1.11,7.3,1.9,2.44,.78,4.8,1.7,7.04,2.71-.93,1.62-1.9,3.09-2.88,4.39-1.56,2.04-3.07,3.54-4.51,4.45-1.38,.87-2.59,1.15-3.61,.82-1.02-.33-1.85-1.26-2.46-2.77-.64-1.58-1-3.68-1.07-6.25-.05-1.62,.03-3.38,.21-5.24Zm18.93,12.09c1.2-.9,2.36-1.93,3.44-3.07,1.12,.73,2.24,1.52,3.32,2.35-4,2.54-8.55,3.96-13.24,4.15,2.22-.71,4.39-1.86,6.48-3.43Zm13.36-27.75c.04-1.83-.07-3.63-.32-5.35,1.37,.07,2.73,.09,4.07,.05,2.27,5.58,2.57,11.58,.87,17.39l-6.26-2.01c1.01-3.35,1.56-6.74,1.63-10.08Z"/><path class="cls-1" d="M74.81,82.81s-.01,0-.02,0l-9.23-1.55c-.39-.07-.76,.2-.83,.59-.03,.19,.01,.38,.12,.54,.11,.16,.28,.26,.47,.29l6.88,1.15c-5.51,2.57-11.42,3.87-17.56,3.87-22.99,0-41.69-18.7-41.69-41.69,0-.4-.32-.72-.72-.72s-.72,.32-.72,.72c0,2.92,.29,5.85,.88,8.69,.57,2.77,1.41,5.49,2.51,8.1,1.08,2.55,2.42,5.02,3.98,7.33,1.54,2.29,3.32,4.43,5.27,6.38s4.1,3.72,6.38,5.27c2.31,1.56,4.77,2.9,7.33,3.98,2.6,1.1,5.33,1.95,8.1,2.51,6.32,1.29,13.02,1.15,19.27-.43,2.54-.64,5.04-1.52,7.43-2.63l-3.29,5.48c-.2,.34-.09,.79,.25,.99,.11,.07,.24,.1,.37,.1,.25,0,.49-.13,.62-.35l4.54-7.57c.12-.21,.14-.46,.04-.67-.08-.17-.21-.29-.37-.36Z"/><path class="cls-1" d="M34.81,8.9c.12,.08,.26,.12,.35,.12l9.02,1.5h.12c.35,0,.65-.24,.71-.59,.07-.39-.2-.76-.59-.83l-6.83-1.14c5.32-2.39,11.2-3.65,17.07-3.65,22.99,0,41.69,18.7,41.69,41.69,0,.4,.32,.72,.72,.72s.72-.32,.72-.72c0-2.92-.29-5.85-.88-8.69-.57-2.77-1.41-5.49-2.51-8.1-1.08-2.55-2.42-5.02-3.98-7.33-1.54-2.28-3.31-4.43-5.27-6.38-1.95-1.95-4.1-3.72-6.38-5.27-2.31-1.56-4.77-2.9-7.33-3.98-2.6-1.1-5.33-1.95-8.1-2.51-6.23-1.28-12.85-1.15-19.02,.37-2.49,.61-4.92,1.45-7.26,2.5l3.31-5.52c.2-.34,.09-.78-.25-.99-.17-.1-.36-.13-.55-.08-.19,.05-.34,.16-.44,.33l-4.54,7.57c-.12,.21-.14,.46-.04,.68,.06,.12,.15,.22,.26,.3Z"/><path class="cls-1" d="M24.61,34.84v-15.29h1.39c.31,0,.58-.19,.68-.48,.1-.29,0-.61-.23-.8L13.81,8.16c-.27-.21-.64-.21-.9,0L.27,18.27c-.24,.19-.33,.51-.23,.8,.1,.29,.38,.48,.68,.48h1.39v15.29c0,.4,.32,.72,.72,.72H23.89c.4,0,.72-.32,.72-.72ZM2.83,18.12h-.05L13.36,9.65l10.58,8.47h-.05c-.4,0-.72,.32-.72,.72v15.29H3.55v-15.29c0-.4-.32-.72-.72-.72Z"/><path class="cls-1" d="M13.36,22.99c2.43,0,4.4-1.97,4.4-4.4s-1.97-4.4-4.4-4.4-4.4,1.97-4.4,4.4,1.97,4.4,4.4,4.4Zm-2.96-4.4c0-1.63,1.33-2.96,2.96-2.96s2.96,1.33,2.96,2.96-1.33,2.96-2.96,2.96-2.96-1.33-2.96-2.96Z"/><path class="cls-1" d="M107.2,66.31l-12.64-10.11c-.27-.21-.64-.21-.9,0l-12.64,10.11c-.24,.19-.33,.51-.23,.8,.1,.29,.37,.48,.68,.48h1.39v15.29c0,.4,.32,.72,.72,.72h21.06c.4,0,.72-.32,.72-.72v-15.29h1.39c.31,0,.58-.19,.68-.48,.1-.29,0-.61-.23-.8Zm-23.62-.16h-.05l10.58-8.47,10.58,8.47h-.05c-.4,0-.72,.32-.72,.72v15.29h-19.62v-15.29c0-.4-.32-.72-.72-.72Z"/><path class="cls-1" d="M94.11,71.03c2.43,0,4.4-1.97,4.4-4.4s-1.97-4.4-4.4-4.4-4.4,1.97-4.4,4.4,1.97,4.4,4.4,4.4Zm-2.96-4.4c0-1.63,1.33-2.96,2.96-2.96s2.96,1.33,2.96,2.96-1.33,2.96-2.96,2.96-2.96-1.33-2.96-2.96Z"/><path class="cls-1" d="M89.09,79.91h10.05c.94,0,1.7-.76,1.7-1.7v-2.72c0-1.98-1.61-3.59-3.59-3.59h-6.26c-1.98,0-3.59,1.61-3.59,3.59v2.72c0,.94,.76,1.7,1.7,1.7Zm-.44-1.7v-2.72c0-1.29,1.05-2.34,2.34-2.34h6.26c1.29,0,2.34,1.05,2.34,2.34v2.72c0,.24-.2,.44-.44,.44h-10.05c-.24,0-.44-.2-.44-.44Z"/><path class="cls-1" d="M8.34,31.87h10.05c.94,0,1.7-.76,1.7-1.7v-2.72c0-1.98-1.61-3.59-3.59-3.59h-6.26c-1.98,0-3.59,1.61-3.59,3.59v2.72c0,.94,.76,1.7,1.7,1.7Zm-.44-1.7v-2.72c0-1.29,1.05-2.34,2.34-2.34h6.26c1.29,0,2.34,1.05,2.34,2.34v2.72c0,.24-.2,.44-.44,.44H8.34c-.24,0-.44-.2-.44-.44Z"/></g></g></svg>