<?xml version="1.0" encoding="UTF-8"?><svg id="Layer_2" xmlns="http://www.w3.org/2000/svg" viewBox="0 0 66.79 67.93"><defs><style>.cls-1{fill:#fff;}</style></defs><g id="work"><g><path class="cls-1" d="M50.24,11.69c0-2.67,2.18-4.84,4.85-4.84s4.84,2.17,4.84,4.84-2.17,4.85-4.84,4.85-4.85-2.18-4.85-4.85Zm8,0c0-1.74-1.41-3.15-3.15-3.15s-3.15,1.41-3.15,3.15,1.41,3.15,3.15,3.15,3.15-1.41,3.15-3.15Z"/><path class="cls-1" d="M56.18,56.8c0-.34,.28-.62,.62-.62s.62,.28,.62,.62-.28,.62-.62,.62-.62-.28-.62-.62Z"/><path class="cls-1" d="M56.18,52.24c0-.34,.28-.62,.62-.62s.62,.28,.62,.62-.28,.62-.62,.62-.62-.28-.62-.62Z"/><path class="cls-1" d="M52.76,59.09c0-.35,.27-.62,.62-.62s.62,.27,.62,.62-.27,.62-.62,.62-.62-.28-.62-.62Z"/><path class="cls-1" d="M52.76,54.52c0-.34,.28-.62,.62-.62s.62,.27,.62,.62-.27,.62-.62,.62-.62-.27-.62-.62Z"/><path class="cls-1" d="M56.18,47.67c0-.34,.28-.62,.62-.62s.62,.28,.62,.62-.28,.62-.62,.62-.62-.28-.62-.62Z"/><path class="cls-1" d="M52.76,49.95c0-.34,.28-.62,.62-.62s.62,.28,.62,.62-.28,.62-.62,.62-.62-.28-.62-.62Z"/><path class="cls-1" d="M56.18,43.1c0-.34,.28-.62,.62-.62s.62,.28,.62,.62-.28,.62-.62,.62-.62-.28-.62-.62Z"/><path class="cls-1" d="M52.76,45.38c0-.34,.28-.62,.62-.62s.62,.28,.62,.62-.28,.62-.62,.62-.62-.28-.62-.62Z"/><path class="cls-1" d="M56.18,38.53c0-.34,.28-.62,.62-.62s.62,.28,.62,.62-.28,.62-.62,.62-.62-.28-.62-.62Z"/><path class="cls-1" d="M52.76,40.82c0-.34,.28-.62,.62-.62s.62,.28,.62,.62-.28,.62-.62,.62-.62-.28-.62-.62Z"/><path class="cls-1" d="M40.41,66.22c1.67-.15,2.98-1.55,2.98-3.26V4.97c0-1.7-1.31-3.11-2.98-3.26V0c1.4,.08,2.7,.77,3.6,1.91l.23,.29,.23-.29c.96-1.22,2.38-1.92,3.89-1.92h13.45c2.74,0,4.97,2.23,4.97,4.97V62.96c0,2.74-2.23,4.97-4.97,4.97h-13.45c-1.51,0-2.93-.7-3.89-1.92l-.23-.29-.23,.29c-.89,1.14-2.19,1.83-3.6,1.91v-1.7ZM65.08,4.97c0-1.8-1.47-3.27-3.27-3.27h-13.45c-1.8,0-3.27,1.47-3.27,3.27V62.96c0,1.8,1.47,3.27,3.27,3.27h13.45c1.8,0,3.27-1.47,3.27-3.27V4.97Z"/><path class="cls-1" d="M28.55,11.69c0-2.67,2.18-4.84,4.85-4.84s4.84,2.17,4.84,4.84-2.17,4.85-4.84,4.85-4.85-2.18-4.85-4.85Zm8,0c0-1.74-1.41-3.15-3.15-3.15s-3.15,1.41-3.15,3.15,1.41,3.15,3.15,3.15,3.15-1.41,3.15-3.15Z"/><path class="cls-1" d="M34.49,56.8c0-.34,.28-.62,.62-.62s.62,.28,.62,.62-.28,.62-.62,.62-.62-.28-.62-.62Z"/><path class="cls-1" d="M34.49,52.24c0-.34,.28-.62,.62-.62s.62,.28,.62,.62-.28,.62-.62,.62-.62-.28-.62-.62Z"/><path class="cls-1" d="M31.06,59.09c0-.35,.27-.62,.62-.62s.62,.27,.62,.62-.27,.62-.62,.62-.62-.28-.62-.62Z"/><path class="cls-1" d="M31.06,54.52c0-.34,.28-.62,.62-.62s.62,.27,.62,.62-.27,.62-.62,.62-.62-.27-.62-.62Z"/><path class="cls-1" d="M34.49,47.67c0-.34,.28-.62,.62-.62s.62,.28,.62,.62-.28,.62-.62,.62-.62-.28-.62-.62Z"/><path class="cls-1" d="M31.06,49.95c0-.34,.28-.62,.62-.62s.62,.28,.62,.62-.28,.62-.62,.62-.62-.28-.62-.62Z"/><path class="cls-1" d="M34.49,43.1c0-.34,.28-.62,.62-.62s.62,.28,.62,.62-.28,.62-.62,.62-.62-.28-.62-.62Z"/><path class="cls-1" d="M31.06,45.38c0-.34,.28-.62,.62-.62s.62,.28,.62,.62-.28,.62-.62,.62-.62-.28-.62-.62Z"/><path class="cls-1" d="M34.49,38.53c0-.34,.28-.62,.62-.62s.62,.28,.62,.62-.28,.62-.62,.62-.62-.28-.62-.62Z"/><path class="cls-1" d="M31.06,40.82c0-.34,.28-.62,.62-.62s.62,.28,.62,.62-.28,.62-.62,.62-.62-.28-.62-.62Z"/><path class="cls-1" d="M0,33.11V4.97C0,2.23,2.23,0,4.97,0h13.45c1.51,0,2.93,.7,3.89,1.92l.23,.29,.23-.29c.96-1.22,2.38-1.92,3.89-1.92h13.45c2.74,0,4.97,2.23,4.97,4.97V62.96c0,2.74-2.23,4.97-4.97,4.97h-13.45c-1.51,0-2.93-.7-3.89-1.92l-.23-.29-.23,.29c-.96,1.22-2.38,1.92-3.89,1.92H4.97c-2.74,0-4.97-2.23-4.97-4.97v-28.14M21.69,4.97c0-1.8-1.47-3.27-3.27-3.27H4.97c-1.8,0-3.27,1.47-3.27,3.27V62.96c0,1.8,1.47,3.27,3.27,3.27h13.45c1.8,0,3.27-1.47,3.27-3.27V4.97Zm21.7,0c0-1.8-1.47-3.27-3.27-3.27h-13.45c-1.8,0-3.27,1.47-3.27,3.27V62.96c0,1.8,1.47,3.27,3.27,3.27h13.45c1.8,0,3.27-1.47,3.27-3.27V4.97Z"/><path class="cls-1" d="M6.85,11.69c0-2.67,2.17-4.84,4.84-4.84s4.85,2.17,4.85,4.84-2.18,4.85-4.85,4.85-4.84-2.18-4.84-4.85Zm7.99,0c0-1.74-1.41-3.15-3.15-3.15s-3.15,1.41-3.15,3.15,1.41,3.15,3.15,3.15,3.15-1.41,3.15-3.15Z"/><path class="cls-1" d="M12.79,56.8c0-.34,.28-.62,.62-.62s.62,.28,.62,.62-.28,.62-.62,.62-.62-.28-.62-.62Z"/><path class="cls-1" d="M12.79,52.24c0-.34,.28-.62,.62-.62s.62,.28,.62,.62-.28,.62-.62,.62-.62-.28-.62-.62Z"/><path class="cls-1" d="M9.36,59.09c0-.34,.28-.62,.62-.62s.62,.28,.62,.62-.28,.62-.62,.62-.62-.28-.62-.62Z"/><path class="cls-1" d="M9.36,54.52c0-.34,.28-.62,.62-.62s.62,.28,.62,.62-.28,.62-.62,.62-.62-.28-.62-.62Z"/><path class="cls-1" d="M12.79,47.67c0-.35,.27-.62,.62-.62s.62,.27,.62,.62-.28,.62-.62,.62-.62-.27-.62-.62Z"/><circle class="cls-1" cx="9.98" cy="49.95" r=".62"/><path class="cls-1" d="M12.79,43.1c0-.35,.27-.62,.62-.62s.62,.28,.62,.62-.27,.62-.62,.62-.62-.27-.62-.62Z"/><path class="cls-1" d="M9.36,45.38c0-.34,.28-.62,.62-.62s.62,.28,.62,.62-.28,.62-.62,.62-.62-.28-.62-.62Z"/><path class="cls-1" d="M12.79,38.53c0-.34,.28-.62,.62-.62s.62,.28,.62,.62-.28,.62-.62,.62-.62-.28-.62-.62Z"/><path class="cls-1" d="M9.36,40.82c0-.34,.28-.62,.62-.62s.62,.28,.62,.62-.28,.62-.62,.62-.62-.28-.62-.62Z"/></g></g></svg>