<?xml version="1.0" encoding="UTF-8"?><svg id="Layer_2" xmlns="http://www.w3.org/2000/svg" viewBox="0 0 70.26 71.13"><defs><style>.cls-1{fill:#fff;}</style></defs><g id="work"><g><path class="cls-1" d="M8.15,54.97c-.27,0-.52-.14-.7-.36C3.23,49.5,.66,43.32,.01,36.73c0-.01-.01-.22-.01-.22,0-.59,.45-1.04,1.01-1.04H18.1c.48,0,.89,.34,.99,.8,.37,1.79,1.07,3.48,2.08,5.03,.27,.4,.21,.94-.13,1.3l-12.09,12.08c-.2,.19-.45,.29-.72,.29h-.07ZM2.22,37.99c.74,5.05,2.74,9.9,5.79,14.01l.31,.42,10.73-10.71-.16-.3c-.63-1.15-1.13-2.36-1.48-3.61l-.09-.33H2.15l.07,.52Z"/><path class="cls-1" d="M30.15,66.66s-.04,0-.09-.01h-.1c-6.62-.67-12.79-3.24-17.9-7.45l-.07-.07c-.39-.39-.39-1.03,0-1.43l12.08-12.1c.19-.19,.45-.3,.72-.3,.2,0,.39,.06,.56,.17,1.53,1.01,3.2,1.71,4.97,2.07l.14,.04c.42,.12,.73,.52,.73,.97v17.1c0,.56-.45,1.01-1.01,1.01h-.03Zm-15.93-8.33l.42,.31c4.14,3.05,8.98,5.05,14.01,5.79l.52,.08v-15.15l-.33-.09c-1.23-.33-2.43-.83-3.58-1.48l-.3-.17-10.73,10.72Z"/><path class="cls-1" d="M48.52,31.19c-.47,0-.89-.34-.99-.82-1.17-5.61-5.56-10-11.18-11.2h-.05s-.05,0-.05,0c-.45-.11-.71-.5-.71-1.16v-1.27c.01-.36,.01-.78,.01-1.23,.01-1.32,.1-14.45,.1-14.45v-.13c.05-.48,.48-.87,1.01-.87h.09c15.79,1.59,28.37,14.2,29.91,29.99v.1c0,.56-.46,1.01-1.02,1.01l-17.14,.03h0ZM37.66,4.18c-.04,4.94-.09,10.54-.08,12.88v.34s.33,.09,.33,.09c5.52,1.59,9.76,5.84,11.33,11.36l.09,.33,15.2-.03-.08-.52c-2.1-13.63-12.65-24.22-26.26-26.35l-.52-.08-.02,1.98Z"/><path class="cls-1" d="M1.03,31.04h-.03s-.09-.01-.09-.01c-.26-.02-.5-.15-.68-.36-.17-.21-.25-.47-.22-.73C1.65,14.17,14.28,1.59,30.05,.01c0,0,.12-.01,.13-.01,.62,0,1.06,.45,1.06,1.01l-.07,17.11c0,.48-.34,.89-.82,1-5.51,1.13-10.02,5.6-11.21,11.12-.1,.46-.52,.8-.99,.8H1.03Zm3.94-11.29c-.49,.99-.9,1.96-1.25,2.96l-.09,.27,6.04,6.04h5.4L5.25,19.19l-.28,.56Zm-2.23,6.2c-.23,1.02-.39,1.8-.5,2.55l-.08,.52H6.8l-3.88-3.86-.18,.79Zm5.39-11.42c-.63,.84-1.18,1.66-1.69,2.51l-.18,.3,11.22,11.22,.23-.69c.31-.93,.73-1.83,1.26-2.75l.17-.3L8.44,14.12l-.31,.42Zm3.99-4.41c-.34,.31-.68,.64-1.01,.96-.37,.37-.72,.75-1.08,1.14l-.29,.32,.3,.31,10.26,10.26,.32-.37c.32-.38,.67-.75,1.03-1.11,.3-.31,.61-.6,.98-.91l.38-.32L12.43,9.84l-.32,.29Zm4.78-3.6c-.91,.56-1.72,1.12-2.49,1.71l-.41,.31,10.69,10.67,.3-.18c.86-.51,1.78-.94,2.73-1.28l.67-.24L17.2,6.34l-.3,.19Zm5.66-2.73c-.89,.32-1.85,.73-2.94,1.25l-.57,.27,10.09,10.09,.02-5.38-6.33-6.33-.27,.1Zm6.13-1.57c-.98,.15-1.93,.34-2.91,.58l-.78,.19,4.18,4.18,.02-5.03-.52,.08Z"/><path class="cls-1" d="M33.04,71.13c-.57,0-1.01-.44-1.01-.98,.01-5.21,3.57-9.65,8.66-10.78l1.63-.36-1.59-.51c-2.48-.79-4.42-2.73-5.19-5.19-1.31-4.19,1.02-8.66,5.19-9.97,.78-.24,1.59-.37,2.4-.37,3.49,0,6.53,2.23,7.57,5.56,1.31,4.18-1.02,8.65-5.19,9.97l-1.6,.5,1.64,.36c5.08,1.13,8.64,5.57,8.66,10.78,0,.55-.45,.98-.99,.98h-20.17Zm10.06-10.08c-4.33,0-8.17,3.23-8.93,7.51l-.09,.53h18.04l-.09-.53c-.76-4.28-4.6-7.51-8.93-7.51Zm.01-16.04c-3.26,0-5.92,2.66-5.92,5.92s2.66,5.9,5.92,5.92c3.27,0,5.92-2.66,5.92-5.92s-2.66-5.92-5.92-5.92Z"/><path class="cls-1" d="M53.68,51.55c-.12,0-.23-.03-.37-.08-.37-.15-.61-.52-.6-.92v-16.29c0-.59,.42-1,.95-1h15.58s.1,.01,.1,.01c.53,.02,.93,.45,.91,.98v12.58c0,.58-.42,1.04-.95,1.04h-11.51l-3.41,3.39c-.17,.17-.44,.28-.71,.28Zm1.06-3.45l1.94-1.99c.17-.17,.42-.27,.69-.27h10.85v-10.55h-13.48v12.82Z"/></g></g></svg>