<?xml version="1.0" encoding="UTF-8"?><svg id="Layer_2" xmlns="http://www.w3.org/2000/svg" viewBox="0 0 81.74 81.74"><defs><style>.cls-1{fill:#fff;}</style></defs><g id="work"><g><path class="cls-1" d="M16.05,32.1c-.63,0-1.27-.04-1.9-.12-.39-.04-.7-.33-.77-.71l-.7-3.8-.29-.09c-.61-.19-1.2-.44-1.77-.74l-.26-.14-3.25,2.1c-.18,.13-.36,.19-.55,.19s-.37-.06-.52-.17c-.98-.77-1.88-1.67-2.66-2.67-.22-.3-.22-.72,0-1.03l2.21-3.19-.14-.27c-.3-.57-.55-1.16-.74-1.77l-.09-.29-3.8-.7c-.38-.07-.67-.38-.71-.76-.16-1.26-.16-2.54,0-3.8,.04-.39,.33-.7,.71-.77l3.8-.7,.09-.29c.19-.61,.44-1.2,.74-1.77l.14-.26-2.1-3.25c-.25-.34-.25-.76-.02-1.07,.77-.98,1.67-1.88,2.67-2.66,.14-.1,.32-.16,.51-.16s.37,.06,.52,.17l3.19,2.21,.27-.14c.56-.3,1.16-.55,1.77-.74l.29-.09,.7-3.8c.07-.38,.38-.67,.76-.71,.63-.08,1.27-.12,1.9-.12s1.27,.04,1.9,.12c.39,.04,.7,.33,.77,.71l.7,3.8,.29,.09c.61,.19,1.2,.44,1.77,.74l.26,.14,3.25-2.1c.18-.13,.36-.19,.55-.19s.37,.06,.52,.17c.98,.77,1.88,1.67,2.66,2.67,.22,.3,.22,.72,0,1.03l-2.21,3.19,.14,.27c.3,.56,.54,1.16,.74,1.77l.09,.29,3.8,.7c.38,.07,.67,.38,.71,.76,.16,1.26,.16,2.54,0,3.8-.04,.39-.33,.7-.71,.77l-3.8,.7-.09,.29c-.19,.61-.44,1.2-.74,1.77l-.14,.26,2.1,3.25c.25,.34,.25,.76,.02,1.07-.77,.98-1.67,1.88-2.67,2.66-.14,.1-.32,.16-.51,.16s-.37-.06-.52-.17l-3.19-2.21-.27,.14c-.56,.3-1.16,.54-1.77,.74l-.29,.09-.7,3.8c-.07,.38-.38,.67-.76,.71-.63,.08-1.27,.12-1.9,.12Zm-5.79-7.52c.17,0,.34,.05,.48,.14,.91,.56,1.89,.97,2.92,1.21,.34,.08,.59,.35,.66,.69l.68,3.72h2.1l.67-3.65c.06-.34,.32-.61,.66-.69,1.03-.24,2.01-.65,2.9-1.21,.15-.1,.32-.15,.49-.15s.34,.05,.48,.14l3.07,2.12,.29-.25c.34-.29,.65-.61,.95-.95l.25-.29-2.12-3.08c-.18-.28-.18-.66,0-.95,.56-.91,.97-1.89,1.21-2.92,.08-.34,.35-.59,.69-.66l3.72-.68v-2.1l-3.72-.68c-.34-.06-.61-.32-.69-.66-.24-1.03-.65-2.01-1.21-2.9-.2-.3-.2-.68,0-.97l2.13-3.05-.26-.29c-.29-.34-.61-.65-.95-.95l-.29-.25-3.08,2.12c-.13,.08-.3,.13-.47,.13s-.34-.05-.48-.14c-.91-.56-1.89-.97-2.92-1.21-.34-.08-.59-.35-.66-.69l-.68-3.72h-2.1l-.65,3.69c-.06,.34-.32,.61-.66,.69-1.03,.24-2.01,.65-2.9,1.21-.15,.1-.32,.15-.49,.15s-.34-.05-.48-.14l-3.08-2.1-.29,.25c-.33,.29-.65,.61-.95,.94l-.26,.29,2.12,3.08c.19,.28,.2,.65,.02,.94-.55,.89-.96,1.87-1.2,2.9-.08,.34-.35,.6-.69,.66l-3.73,.68v2.11l3.68,.64c.34,.06,.61,.32,.69,.66,.24,1.03,.65,2.01,1.21,2.9,.2,.3,.2,.68,0,.97l-2.12,3.07,.25,.29c.29,.34,.61,.65,.95,.95l.29,.25,3.08-2.12c.13-.08,.3-.13,.47-.13Z"/><path class="cls-1" d="M65.69,56.92c-.63,0-1.27-.04-1.9-.12-.39-.04-.7-.33-.77-.71l-.7-3.8-.29-.09c-.61-.19-1.2-.44-1.77-.74l-.26-.14-3.25,2.1c-.18,.13-.36,.19-.55,.19s-.37-.06-.52-.17c-.98-.77-1.88-1.67-2.66-2.67-.22-.3-.22-.72,0-1.03l2.21-3.19-.14-.27c-.3-.56-.54-1.16-.74-1.77l-.09-.29-3.8-.7c-.38-.07-.67-.38-.71-.76-.16-1.26-.16-2.54,0-3.8,.04-.39,.33-.7,.71-.77l3.8-.7,.09-.29c.19-.61,.44-1.2,.74-1.77l.14-.26-2.1-3.25c-.25-.34-.25-.76-.02-1.07,.77-.98,1.67-1.88,2.67-2.66,.14-.1,.32-.16,.51-.16s.37,.06,.52,.17l3.19,2.21,.27-.14c.56-.3,1.16-.54,1.77-.74l.29-.09,.7-3.8c.07-.38,.38-.67,.76-.71,.63-.08,1.27-.12,1.9-.12s1.27,.04,1.9,.12c.39,.04,.7,.33,.77,.71l.7,3.8,.29,.09c.61,.19,1.2,.44,1.77,.74l.26,.14,3.25-2.1c.18-.13,.36-.19,.55-.19s.37,.06,.52,.17c.98,.77,1.88,1.67,2.66,2.67,.22,.3,.22,.72,0,1.03l-2.21,3.19,.14,.27c.3,.56,.54,1.16,.74,1.77l.09,.29,3.8,.7c.38,.07,.67,.38,.71,.76,.16,1.26,.16,2.54,0,3.8-.04,.39-.33,.7-.71,.77l-3.8,.7-.09,.29c-.19,.61-.44,1.2-.74,1.77l-.14,.26,2.1,3.25c.25,.34,.25,.76,.02,1.07-.77,.98-1.67,1.88-2.67,2.66-.14,.1-.32,.16-.51,.16s-.37-.06-.52-.17l-3.19-2.21-.27,.14c-.56,.3-1.16,.55-1.77,.74l-.29,.09-.7,3.8c-.07,.38-.38,.67-.76,.71-.63,.08-1.27,.12-1.9,.12Zm-5.79-7.52c.17,0,.34,.05,.48,.14,.91,.56,1.89,.97,2.92,1.21,.34,.08,.59,.35,.66,.69l.68,3.72h2.11l.64-3.68c.06-.33,.32-.61,.66-.69,1.03-.24,2.01-.65,2.9-1.21,.15-.1,.32-.15,.49-.15s.34,.05,.48,.14l3.07,2.12,.29-.25c.34-.29,.66-.61,.94-.95l.25-.29-2.12-3.08c-.18-.28-.18-.66,0-.95,.56-.91,.97-1.89,1.21-2.92,.08-.34,.35-.59,.69-.66l3.72-.68v-.42c0-.08,.02-.16,.03-.23,.03-.14,.05-.27,.05-.4v-1.05l-3.72-.68c-.34-.06-.61-.32-.69-.66-.24-1.03-.65-2.01-1.21-2.9-.2-.3-.2-.68,0-.97l2.12-3.07-.25-.29c-.29-.34-.61-.65-.95-.95l-.29-.25-3.08,2.12c-.13,.08-.3,.13-.47,.13s-.34-.05-.48-.14c-.91-.56-1.89-.97-2.92-1.21-.34-.08-.59-.35-.66-.69l-.68-3.72h-2.1l-.68,3.72c-.06,.34-.32,.61-.66,.69-1.03,.24-2,.65-2.9,1.21-.15,.1-.32,.15-.49,.15s-.34-.05-.48-.14l-3.07-2.12-.29,.26c-.33,.29-.65,.61-.94,.94l-.26,.29,2.12,3.08c.18,.28,.18,.66,0,.95-.56,.91-.97,1.89-1.21,2.92-.08,.34-.35,.59-.69,.66l-3.72,.68v2.11l3.68,.64c.33,.06,.61,.32,.69,.66,.24,1.03,.65,2,1.21,2.9,.19,.3,.19,.68,0,.97l-2.12,3.07,.25,.29c.29,.34,.61,.65,.95,.95l.29,.25,3.08-2.12c.13-.08,.3-.13,.47-.13Z"/><path class="cls-1" d="M16.05,81.74c-.63,0-1.27-.04-1.9-.12-.39-.04-.7-.33-.77-.71l-.7-3.8-.29-.09c-.61-.19-1.2-.44-1.77-.74l-.26-.14-3.25,2.1c-.18,.13-.36,.19-.55,.19s-.37-.06-.52-.17c-.98-.77-1.88-1.67-2.66-2.67-.22-.3-.22-.72,0-1.03l2.21-3.19-.14-.27c-.3-.57-.55-1.16-.74-1.77l-.09-.29-3.8-.7c-.38-.07-.67-.38-.71-.76-.16-1.26-.16-2.54,0-3.8,.04-.39,.33-.7,.71-.77l3.8-.7,.09-.29c.19-.6,.44-1.2,.74-1.77l.14-.26-2.1-3.25c-.25-.34-.25-.76-.02-1.07,.77-.98,1.67-1.88,2.67-2.66,.14-.1,.32-.16,.51-.16s.37,.06,.52,.17l3.19,2.21,.27-.14c.57-.3,1.16-.55,1.77-.74l.29-.09,.7-3.8c.07-.38,.38-.67,.76-.71,.63-.08,1.27-.12,1.9-.12s1.27,.04,1.9,.12c.39,.04,.7,.33,.77,.71l.7,3.8,.29,.09c.6,.19,1.2,.44,1.77,.74l.26,.14,3.25-2.1c.18-.13,.36-.19,.55-.19s.37,.06,.52,.17c.98,.77,1.88,1.67,2.66,2.67,.22,.3,.22,.72,0,1.03l-2.21,3.19,.14,.27c.3,.56,.54,1.16,.74,1.77l.09,.29,3.8,.7c.38,.07,.67,.38,.71,.76,.16,1.26,.16,2.54,0,3.8-.04,.39-.33,.7-.71,.77l-3.8,.7-.09,.29c-.19,.61-.44,1.2-.74,1.77l-.14,.26,2.1,3.25c.25,.34,.25,.76,.02,1.07-.77,.98-1.67,1.88-2.67,2.66-.14,.1-.32,.16-.51,.16s-.37-.06-.52-.17l-3.19-2.21-.27,.14c-.56,.3-1.16,.54-1.77,.74l-.29,.09-.7,3.8c-.07,.38-.38,.67-.76,.71-.63,.08-1.27,.12-1.9,.12Zm-5.79-7.52c.17,0,.34,.05,.48,.14,.91,.56,1.89,.97,2.92,1.21,.34,.08,.59,.35,.66,.69l.68,3.72h2.1l.73-3.67c.06-.35,.32-.62,.66-.7,1.03-.24,2-.65,2.9-1.21,.15-.1,.32-.15,.49-.15s.34,.05,.48,.14l3.07,2.12,.29-.25c.33-.29,.65-.61,.95-.94l.25-.29-2.12-3.08c-.18-.28-.18-.66,0-.95,.56-.91,.97-1.89,1.21-2.91,.08-.34,.35-.6,.69-.66l3.72-.68v-2.1l-3.72-.68c-.34-.06-.61-.32-.69-.66-.24-1.03-.65-2.01-1.21-2.9-.2-.3-.2-.68,0-.97l2.12-3.07-.25-.29c-.29-.34-.61-.65-.95-.95l-.29-.25-3.08,2.12c-.13,.08-.3,.13-.47,.13s-.34-.05-.48-.14c-.91-.56-1.89-.97-2.92-1.21-.34-.08-.59-.35-.66-.69l-.68-3.72h-2.1l-.68,3.72c-.06,.34-.32,.61-.66,.69-1.03,.24-2.01,.65-2.9,1.21-.15,.1-.32,.15-.49,.15s-.34-.05-.48-.14l-3.07-2.12-.29,.25c-.34,.29-.66,.61-.94,.95l-.25,.29,2.12,3.08c.18,.28,.18,.66,0,.95-.56,.91-.97,1.89-1.21,2.92-.08,.34-.35,.59-.69,.66l-3.72,.68v2.11l3.68,.64c.34,.06,.61,.32,.69,.66,.24,1.03,.65,2.01,1.21,2.9,.2,.3,.2,.68,0,.97l-2.12,3.07,.26,.29c.29,.34,.61,.65,.95,.95l.29,.25,3.08-2.12c.13-.08,.3-.13,.47-.13Z"/><rect class="cls-1" x="32.96" y="8.87" width="1.76" height="1.76" transform="translate(10.48 36.11) rotate(-64.52)"/><rect class="cls-1" x="47.9" y="15.98" width="1.76" height="1.76" transform="translate(12.6 53.66) rotate(-64.55)"/><rect class="cls-1" x="37.94" y="11.25" width="1.76" height="1.76" transform="translate(11.19 41.97) rotate(-64.55)"/><rect class="cls-1" x="57.86" y="20.72" width="1.76" height="1.76" transform="translate(13.99 65.36) rotate(-64.55)"/><rect class="cls-1" x="52.89" y="18.35" width="1.76" height="1.76" transform="translate(13.3 59.52) rotate(-64.55)"/><rect class="cls-1" x="42.93" y="13.61" width="1.76" height="1.76" transform="translate(11.91 47.82) rotate(-64.55)"/><polygon class="cls-1" points="36.57 42.1 37.45 40.28 37.08 39.61 38.62 38.76 39.46 40.3 38.29 40.95 38.92 41.26 38.17 42.85 36.57 42.1"/><rect class="cls-1" x="26.9" y="36.08" width="1.76" height="1.76" transform="translate(-17.53 46.13) rotate(-64.51)"/><rect class="cls-1" x="41.85" y="43.18" width="1.76" height="1.76" transform="translate(-15.43 63.68) rotate(-64.52)"/><rect class="cls-1" x="46.84" y="45.56" width="1.76" height="1.76" transform="translate(-14.73 69.53) rotate(-64.52)"/><rect class="cls-1" x="21.93" y="33.7" width="1.76" height="1.76" transform="translate(-18.22 40.29) rotate(-64.51)"/><rect class="cls-1" x="47.42" y="63.07" width="1.76" height="1.76" transform="translate(-24.84 31.2) rotate(-28.81)"/><rect class="cls-1" x="57.1" y="57.74" width="1.76" height="1.76" transform="translate(-21.07 35.19) rotate(-28.81)"/><rect class="cls-1" x="42.6" y="65.72" width="1.76" height="1.76" transform="translate(-26.71 29.2) rotate(-28.81)"/><rect class="cls-1" x="52.27" y="60.41" width="1.76" height="1.76" transform="translate(-22.95 33.18) rotate(-28.79)"/><rect class="cls-1" x="32.92" y="71.04" width="1.76" height="1.76" transform="translate(-30.48 25.2) rotate(-28.81)"/><rect class="cls-1" x="37.76" y="68.38" width="1.76" height="1.76" transform="translate(-28.6 27.2) rotate(-28.81)"/><path class="cls-1" d="M32.24,42.27l1.54-.84,.85,1.54-1.55,.84-.84-1.54Zm-.65-2.54l.75-1.58,1.59,.76-.75,1.58-1.59-.76Z"/><rect class="cls-1" x="47.05" y="33.76" width="1.76" height="1.76" transform="translate(-10.76 27.39) rotate(-28.81)"/><rect class="cls-1" x="22.89" y="47.04" width="1.76" height="1.76" transform="translate(-20.16 17.4) rotate(-28.83)"/><rect class="cls-1" x="27.71" y="44.4" width="1.76" height="1.76" transform="translate(-18.28 19.37) rotate(-28.79)"/><rect class="cls-1" x="42.23" y="36.42" width="1.76" height="1.76" transform="translate(-12.64 25.39) rotate(-28.81)"/><path class="cls-1" d="M16.05,22.44c-3.53,0-6.4-2.87-6.4-6.4s2.87-6.4,6.4-6.4,6.4,2.87,6.4,6.4-2.87,6.4-6.4,6.4Zm0-11.03c-2.56,0-4.64,2.08-4.64,4.64s2.08,4.64,4.64,4.64,4.64-2.08,4.64-4.64-2.08-4.64-4.64-4.64Z"/><path class="cls-1" d="M65.69,47.26c-3.53,0-6.39-2.87-6.39-6.4s2.87-6.4,6.39-6.4,6.4,2.87,6.4,6.4-2.87,6.4-6.4,6.4Zm0-11.03c-2.56,0-4.64,2.08-4.64,4.64s2.08,4.64,4.64,4.64,4.64-2.08,4.64-4.64-2.08-4.64-4.64-4.64Z"/><path class="cls-1" d="M16.05,72.09c-3.53,0-6.4-2.87-6.4-6.4s2.87-6.4,6.4-6.4,6.4,2.87,6.4,6.4-2.87,6.4-6.4,6.4Zm0-11.03c-2.56,0-4.64,2.08-4.64,4.64s2.08,4.64,4.64,4.64,4.64-2.08,4.64-4.64-2.08-4.64-4.64-4.64Z"/></g></g></svg>