<?xml version="1.0" encoding="UTF-8"?><svg id="Layer_2" xmlns="http://www.w3.org/2000/svg" viewBox="0 0 89.19 71.02"><defs><style>.cls-1{fill:#fff;}</style></defs><g id="work"><g><g><path class="cls-1" d="M5.24,71.02c-2.89,0-5.24-2.35-5.24-5.24V5.24C0,2.35,2.35,0,5.24,0H83.95c2.89,0,5.23,2.35,5.23,5.24v60.55c0,2.89-2.35,5.24-5.23,5.24H5.24Zm-3.85-5.24c0,2.12,1.73,3.85,3.85,3.85H83.95c2.12,0,3.85-1.73,3.85-3.85V13.5H1.39v52.29ZM5.24,1.39c-2.12,0-3.85,1.72-3.85,3.85v6.87H87.8V5.24c0-2.12-1.72-3.85-3.85-3.85H5.24Z"/><path class="cls-1" d="M21.89,7.44c-.38,0-.69-.31-.69-.69s.31-.69,.69-.69h60.55c.38,0,.69,.31,.69,.69s-.31,.69-.69,.69H21.89Z"/><path class="cls-1" d="M6.75,7.44c-.38,0-.69-.31-.69-.69s.31-.69,.69-.69,.69,.31,.69,.69-.31,.69-.69,.69"/><path class="cls-1" d="M11.29,7.44c-.38,0-.69-.31-.69-.69s.31-.69,.69-.69,.69,.31,.69,.69-.31,.69-.69,.69"/><path class="cls-1" d="M15.83,7.44c-.38,0-.69-.31-.69-.69s.31-.69,.69-.69,.69,.31,.69,.69-.31,.69-.69,.69"/></g><g><path class="cls-1" d="M10.3,30.58c-.19,.11-.3,.31-.3,.53v20.92c0,.22,.12,.42,.3,.53,.09,.05,.2,.08,.3,.08s.21-.03,.31-.08l17.98-10.46c.19-.11,.3-.31,.3-.53s-.12-.42-.3-.53L10.91,30.58c-.19-.11-.42-.11-.61,0Zm.91,1.58l16.17,9.4-16.17,9.4v-18.81Z"/><path class="cls-1" d="M33.42,32.38h38.54c.34,0,.61-.27,.61-.61v-7.57c0-.34-.27-.61-.61-.61H33.42c-.34,0-.61,.27-.61,.61v.72c.06,0,.11-.02,.17-.02,.37,0,.72,.08,1.05,.2v-.29h37.33v6.35H34.03v-.29c-.33,.12-.68,.2-1.05,.2-.06,0-.11-.01-.17-.02v.72c0,.34,.27,.61,.61,.61Z"/><path class="cls-1" d="M39.44,37.78v.76c.2-.04,.4-.06,.61-.06s.41,.02,.61,.06v-.15h37.33v6.35H40.65v-.15c-.2,.04-.4,.06-.61,.06s-.41-.02-.61-.06v.76c0,.34,.27,.61,.61,.61h38.54c.34,0,.61-.27,.61-.61v-7.57c0-.34-.27-.61-.61-.61H40.04c-.34,0-.61,.27-.61,.61Z"/><path class="cls-1" d="M33.42,59.54h38.54c.34,0,.61-.27,.61-.61v-7.57c0-.34-.27-.61-.61-.61H33.42c-.34,0-.61,.27-.61,.61v.72c.06,0,.11-.02,.17-.02,.37,0,.72,.08,1.05,.2v-.29h37.33v6.35H34.03v-.29c-.33,.12-.68,.2-1.05,.2-.06,0-.11-.01-.17-.02v.72c0,.34,.27,.61,.61,.61Z"/><path class="cls-1" d="M34.03,30.87c1.19-.43,2.04-1.56,2.04-2.89s-.85-2.46-2.04-2.89c-.33-.12-.68-.2-1.05-.2-.06,0-.11,.01-.17,.02-1.62,.09-2.92,1.43-2.92,3.07s1.29,2.98,2.92,3.07c.06,0,.11,.02,.17,.02,.37,0,.72-.08,1.05-.2Zm-1.05-1.02c-1.03,0-1.87-.84-1.87-1.87s.84-1.87,1.87-1.87,1.87,.84,1.87,1.87-.84,1.87-1.87,1.87Z"/><path class="cls-1" d="M34.03,58.04c1.19-.43,2.04-1.56,2.04-2.89s-.85-2.46-2.04-2.89c-.33-.12-.68-.2-1.05-.2-.06,0-.11,.01-.17,.02-1.62,.09-2.92,1.43-2.92,3.07s1.29,2.98,2.92,3.07c.06,0,.11,.02,.17,.02,.37,0,.72-.08,1.05-.2Zm-1.05-1.02c-1.03,0-1.87-.84-1.87-1.87s.84-1.87,1.87-1.87,1.87,.84,1.87,1.87-.84,1.87-1.87,1.87Z"/><path class="cls-1" d="M40.65,44.59c1.41-.28,2.48-1.53,2.48-3.02s-1.07-2.74-2.48-3.02c-.2-.04-.4-.06-.61-.06s-.41,.02-.61,.06c-1.41,.28-2.48,1.53-2.48,3.02s1.07,2.74,2.48,3.02c.2,.04,.4,.06,.61,.06s.41-.02,.61-.06Zm-.61-1.16c-1.03,0-1.87-.84-1.87-1.87s.84-1.87,1.87-1.87,1.87,.84,1.87,1.87-.84,1.87-1.87,1.87Z"/></g></g></g></svg>