<?xml version="1.0" encoding="UTF-8"?><svg id="Layer_2" xmlns="http://www.w3.org/2000/svg" viewBox="0 0 82.44 82.44"><defs><style>.cls-1{fill:#fff;}</style></defs><g id="work"><g><path class="cls-1" d="M41.22,26.65c-.12,0-.23,0-.35,0-.32,.56-.59,1.15-.8,1.76,.37-.1,.76-.15,1.15-.15,2.5,0,4.53,2.03,4.53,4.53v8.75c.53,.23,1.07,.42,1.62,.57v-9.32c0-3.39-2.76-6.15-6.15-6.15Z"/><path class="cls-1" d="M41.22,31.56c-.44,0-.8,.36-.8,.8v3.88c.41,.92,.95,1.76,1.6,2.53,.01-.06,.02-.12,.02-.18v-6.23c0-.44-.37-.8-.82-.8Z"/><path class="cls-1" d="M45.76,22.25c-.66,.29-1.28,.65-1.87,1.07,4.19,1.22,7.19,5.22,7.19,9.67v9.42c.55-.05,1.1-.15,1.62-.29v-9.32c0-3.06-1.2-5.95-3.37-8.12-1.05-1.05-2.25-1.87-3.58-2.44Z"/><path class="cls-1" d="M56.37,31.55c.03,.43,.38,.74,.82,.74,.22,0,.44-.09,.59-.26,.15-.16,.23-.38,.21-.6-.27-3.37-1.54-6.54-3.68-9.18-.97-.43-1.99-.71-3.05-.83,2.94,2.6,4.8,6.26,5.11,10.13Z"/><path class="cls-1" d="M57.23,36.82c-.44,0-.8,.36-.8,.8v2.69c.38-.29,.74-.6,1.08-.94,.18-.18,.37-.38,.55-.59v-1.16c0-.45-.36-.8-.82-.8Z"/><path class="cls-1" d="M14.54,49.84c.44,0,.81-.36,.81-.8v-12.46c0-.45-.36-.8-.82-.8s-.8,.36-.8,.8v12.46c0,.44,.37,.8,.82,.8Z"/><path class="cls-1" d="M13.83,30.36c-.02,.22,.06,.45,.21,.61,.15,.17,.37,.26,.59,.26h.02c.42,0,.76-.31,.8-.73,1.17-13.23,12.49-23.59,25.78-23.59,8.11,0,15.87,3.9,20.74,10.42,.25,.33,.73,.42,1.1,.17,.19-.12,.31-.31,.35-.53,.04-.22-.01-.44-.15-.62-5.18-6.93-13.42-11.07-22.03-11.07-6.91,0-13.52,2.58-18.61,7.27-5.06,4.66-8.18,10.98-8.78,17.79Z"/><path class="cls-1" d="M64.95,22.48c1.43,3.26,2.15,6.73,2.15,10.32h0v9.16c.11,0,.22,0,.33,0,.43,0,.87,.04,1.29,.11v-9.26c0-3.81-.77-7.5-2.28-10.97-.19-.44-.77-.63-1.2-.34-.32,.22-.45,.63-.29,.98Z"/><path class="cls-1" d="M20.68,49.64v-.25s0-16.6,0-16.6c0-7.22,3.7-13.79,9.89-17.56,.34-.21,.47-.63,.31-1.01-.13-.3-.42-.49-.74-.49-.15,0-.29,.04-.41,.12-6.68,4.07-10.67,11.15-10.67,18.94v16.95c-.05,2.06-1.54,3.87-3.55,4.31-.15,.03-.3,.06-.46,.08-.4,.05-.71,.41-.7,.84,.01,.44,.37,.78,.81,.78,.04,0,.07,0,.1,0,.18-.02,.37-.05,.57-.1,2.81-.61,4.84-3.13,4.84-6.01Z"/><path class="cls-1" d="M61.26,64c.06-.21,.04-.43-.07-.62-.11-.2-.29-.33-.52-.4-.07-.02-.14-.03-.21-.03-.36,0-.67,.23-.78,.58-.69,2.23-1.56,4.44-2.58,6.56l-.03,.06c-.13,.27-.12,.56,.04,.8,.26,.4,.83,.51,1.21,.21,.12-.1,.2-.2,.26-.31,.42-.87,.81-1.76,1.17-2.63,.57-1.39,1.08-2.81,1.51-4.23Z"/><path class="cls-1" d="M35.57,11.36c-.22,.06-.41,.21-.51,.42t0,0c-.1,.21-.11,.46-.01,.69,.15,.36,.54,.56,.94,.46,1.63-.43,3.32-.66,5.02-.67h.21c3.69,0,7.31,1.01,10.47,2.91,1.4,.13,2.76,.44,4.06,.91-4.03-3.52-9.16-5.44-14.53-5.44-1.91,0-3.82,.25-5.65,.73Z"/><path class="cls-1" d="M61.99,54.21c-.14-.15-.27-.31-.4-.47-.11,1.32-.28,2.63-.5,3.91-.07,.42,.18,.81,.6,.92,.47,.12,.93-.19,1-.65,.14-.82,.26-1.67,.36-2.53l-1.07-1.17Z"/><path class="cls-1" d="M43.38,64.84c-.07-.21-.21-.38-.42-.48-.11-.05-.23-.08-.35-.08-.29,0-.55,.16-.69,.4-2.09,3.79-4.92,7.08-8.42,9.76l-.37,.28c-.19,.14-.3,.33-.32,.54-.03,.34,.18,.64,.5,.74l.25,.07c.21,.06,.45,.02,.62-.11,.33-.24,.65-.5,1.03-.81,3.32-2.7,6.05-5.96,8.1-9.68,.11-.19,.13-.42,.06-.62h0Z"/><path class="cls-1" d="M33.24,61.52c2.26-3.55,3.46-7.66,3.46-11.87v-.24s0-7.25,0-7.25c-.62-.8-1.16-1.66-1.62-2.56v10.22c-.07,7.91-4.75,15.16-11.95,18.49l-.34,.15c-.21,.09-.37,.25-.45,.43-.14,.32-.06,.68,.2,.93,.24,.21,.59,.27,.86,.14,.28-.12,.57-.26,.88-.41,3.67-1.8,6.77-4.58,8.97-8.03Z"/><path class="cls-1" d="M44.66,60.14l.05,.03c.44,.21,.95-.02,1.09-.46,1.04-3.24,1.58-6.63,1.58-10.07v-1.13c-.54-.08-1.09-.2-1.62-.34v1.66c-.02,3.21-.52,6.37-1.48,9.37-.12,.37,.05,.77,.39,.94Z"/><path class="cls-1" d="M42.04,49.64v-2.94c-.56-.3-1.1-.64-1.62-1v3.94c0,9.05-4.84,17.57-12.64,22.23-.13,.08-.27,.16-.4,.24-.23,.13-.37,.38-.38,.65,0,.26,.14,.5,.37,.64l.14,.08c.23,.13,.52,.13,.74,0,.34-.19,.66-.39,.97-.58,8.03-5.09,12.83-13.78,12.83-23.25Z"/><path class="cls-1" d="M20.4,65.42c6.12-2.29,10.41-7.98,10.91-14.49,.02-.22-.06-.43-.21-.6-.15-.17-.37-.26-.61-.26-.42,0-.77,.33-.8,.74-.46,6.02-4.45,11.2-10.16,13.19-.14,.05-.29,.1-.43,.14-.25,.08-.45,.27-.53,.52-.08,.25-.04,.51,.11,.72,.2,.29,.56,.42,.92,.31,.27-.08,.54-.18,.8-.28Z"/><path class="cls-1" d="M36.06,22.54c-3.87,1.95-6.33,5.91-6.33,10.26v11.94c0,.45,.36,.8,.82,.8s.8-.36,.8-.8v-11.94c0-2.72,1.08-5.25,3.05-7.13,.43-1.09,.99-2.14,1.65-3.13Z"/><path class="cls-1" d="M51.09,49.64c0,9.75-3.81,18.92-10.72,25.84l-.26,.25c-.24,.24-.31,.58-.19,.89,.12,.31,.42,.51,.77,.51,.23,0,.43-.09,.59-.24l.26-.25c.28-.28,.54-.55,.79-.81,6.7-7.09,10.39-16.4,10.39-26.19v-1.13c-.54,.09-1.09,.15-1.62,.18v.96Z"/><path class="cls-1" d="M26.02,49.64v-.25s0-16.6,0-16.6c0-8.37,6.8-15.18,15.17-15.2,.89-.55,1.83-1.02,2.81-1.4-.91-.15-1.84-.23-2.77-.23-9.28,0-16.83,7.55-16.83,16.83v16.98c-.06,4.44-3.11,8.31-7.41,9.41-.16,.04-.32,.08-.48,.11-.24,.05-.45,.2-.56,.42-.11,.22-.12,.47-.02,.71,.13,.29,.42,.48,.74,.48,.06,0,.11,0,.16-.02,.24-.05,.49-.11,.75-.18,4.97-1.37,8.44-5.93,8.44-11.08Z"/><path class="cls-1" d="M56.43,49.64c0,9.07-2.86,17.71-8.28,24.98l-.09,.12c-.19,.26-.23,.58-.11,.85,.14,.3,.42,.49,.74,.49,.08,0,.16-.01,.26-.04,.16-.05,.31-.15,.42-.29,.4-.52,.77-1.05,1.12-1.56,4.94-7.21,7.56-15.7,7.56-24.54v-2.94c-.52,.28-1.07,.54-1.62,.77v2.17Z"/><path class="cls-1" d="M72.58,62.39c1.03,1.14,2.45,1.78,3.99,1.82,1.54,.04,2.99-.54,4.07-1.63l.07-.07c1.09-1.09,1.67-2.53,1.63-4.07-.04-1.54-.68-2.96-1.82-3.99l-9.75-8.88c-1.71-1.56-4.24-1.73-6.15-.42-.07,.05-.16,.04-.22-.02l-3.46-3.46c-.07-.07-.07-.17,0-.24,5-5.72,4.72-14.41-.65-19.78-5.65-5.65-14.85-5.65-20.51,0s-5.65,14.85,0,20.5c5.37,5.37,14.06,5.66,19.78,.65,.07-.06,.17-.06,.24,0l3.46,3.46c.06,.06,.07,.15,.02,.22-1.31,1.91-1.14,4.43,.42,6.15l8.87,9.75Zm-7.57-15.46l.06-.06c1.27-1.27,3.29-1.31,4.62-.11l9.75,8.87c.81,.73,1.27,1.74,1.29,2.83,.03,1.09-.39,2.12-1.16,2.89l-.07,.07c-.75,.75-1.73,1.16-2.79,1.16-.03,0-.07,0-.1,0-1.09-.02-2.09-.48-2.83-1.29l-8.88-9.75c-1.2-1.32-1.16-3.35,.11-4.62Zm-5.87-5.92c-2.51,2.51-5.81,3.77-9.11,3.77s-6.6-1.25-9.11-3.77c-5.02-5.02-5.02-13.19,0-18.21s13.19-5.02,18.21,0,5.02,13.19,0,18.21Z"/><path class="cls-1" d="M0,10.01H1.62V1.8c0-.1,.08-.17,.17-.17H10.01V0H0V10.01Z"/><path class="cls-1" d="M1.62,80.65v-8.21H0v10.01H10.01v-1.62H1.8c-.1,0-.17-.08-.17-.17Z"/><path class="cls-1" d="M72.43,1.62h8.21c.1,0,.17,.08,.17,.17V10.01h1.62V0h-10.01V1.62Z"/><path class="cls-1" d="M80.82,80.65c0,.1-.08,.17-.17,.17h-8.21v1.62h10.01v-10.01h-1.62v8.21Z"/></g></g></svg>