<?xml version="1.0" encoding="UTF-8"?><svg id="Layer_2" xmlns="http://www.w3.org/2000/svg" viewBox="0 0 80.85 80.85"><defs><style>.cls-1{fill:#fff;}</style></defs><g id="work"><path class="cls-1" d="M37.78,41.23h31.19l.03,.19c.49,2.88,2.96,4.97,5.88,4.97,3.29,0,5.97-2.68,5.97-5.97s-2.68-5.97-5.97-5.97c-2.92,0-5.39,2.09-5.88,4.97l-.03,.19h-31.19v-7.01h19.87c.44,0,.8-.36,.8-.8v-7.81h5.35l.03,.19c.49,2.88,2.96,4.97,5.88,4.97,3.29,0,5.97-2.68,5.97-5.97s-2.68-5.97-5.97-5.97c-2.92,0-5.39,2.09-5.88,4.97l-.03,.19h-6.15c-.44,0-.8,.36-.8,.8v7.81h-19.07v-7.01h11.26c.44,0,.8-.36,.8-.8V6.77h5.35l.03,.19c.49,2.88,2.96,4.97,5.88,4.97,3.29,0,5.97-2.68,5.97-5.97s-2.68-5.97-5.97-5.97c-2.92,0-5.39,2.09-5.88,4.97l-.03,.19h-6.15c-.44,0-.8,.36-.8,.8V22.4h-10.46V11.14c0-6.14-5-11.14-11.14-11.14-4.81,0-9.05,3.07-10.56,7.64l-.04,.11-.11,.04C8.58,10.16,3.45,17.2,3.45,24.92c0,1.37,.17,2.76,.49,4.14l.03,.11-.07,.09c-2.51,3.18-3.9,7.14-3.9,11.16,0,4.58,1.74,8.96,4.91,12.33l.11,.12-.07,.15c-.98,1.99-1.5,4.19-1.5,6.36,0,7.31,5.47,13.52,12.72,14.44l.13,.02,.05,.13c1.73,4.19,5.77,6.89,10.29,6.89,6.14,0,11.14-5,11.14-11.14v-11.26h10.46v16.43c0,.44,.36,.8,.8,.8h6.15l.03,.19c.49,2.88,2.96,4.97,5.88,4.97,3.29,0,5.97-2.68,5.97-5.97s-2.68-5.97-5.97-5.97c-2.92,0-5.39,2.09-5.88,4.97l-.03,.19h-5.35v-16.43c0-.44-.36-.8-.8-.8h-11.32l.02-.25c.02-.22,.03-.44,.03-.67v-6.09h19.07v7.81c0,.44,.36,.8,.8,.8h6.15l.03,.19c.49,2.88,2.96,4.97,5.88,4.97,3.29,0,5.97-2.68,5.97-5.97s-2.68-5.97-5.97-5.97c-2.92,0-5.39,2.09-5.88,4.97l-.03,.19h-5.35v-7.81c0-.44-.36-.8-.8-.8h-19.87v-7.01Zm37.1-5.17c2.41,0,4.37,1.96,4.37,4.37s-1.96,4.37-4.37,4.37-4.37-1.96-4.37-4.37,1.96-4.37,4.37-4.37Zm-5.17-17.23c2.41,0,4.37,1.96,4.37,4.37s-1.96,4.37-4.37,4.37-4.37-1.96-4.37-4.37,1.96-4.37,4.37-4.37ZM61.1,1.6c2.41,0,4.37,1.96,4.37,4.37s-1.96,4.37-4.37,4.37-4.37-1.96-4.37-4.37,1.96-4.37,4.37-4.37Zm0,68.91c2.41,0,4.37,1.96,4.37,4.37s-1.96,4.37-4.37,4.37-4.37-1.96-4.37-4.37,1.96-4.37,4.37-4.37ZM28.36,20.55c2.9,0,5.59-1.32,7.4-3.61l.42-.53v19.3l-.41-.45c-1.46-1.61-3.53-2.53-5.68-2.53-.31,0-.63,.02-1.01,.08l-.21,.03-.05-.21c-.88-3.67-3.52-6.61-7.08-7.86-.2-.07-.42-.06-.61,.03-.19,.09-.34,.25-.41,.46-.07,.2-.06,.42,.03,.61,.09,.19,.25,.34,.46,.41,3,1.06,5.32,3.66,6.06,6.78l.05,.19-.18,.08c-2.88,1.2-4.74,3.99-4.74,7.1,0,.44,.36,.8,.8,.8s.8-.36,.8-.8c0-3.36,2.73-6.09,6.09-6.09s6.09,2.73,6.09,6.09v15.51c0,3.36-2.73,6.09-6.09,6.09-.44,0-.8,.36-.8,.8s.36,.8,.8,.8c2.15,0,4.22-.92,5.68-2.53l.41-.45v9.07c0,5.26-4.28,9.54-9.54,9.54-4.03,0-7.64-2.56-8.99-6.38-.37-1.05-.55-2.1-.55-3.16,0-.94,.13-1.83,.38-2.66,.06-.2,.04-.42-.06-.61s-.27-.33-.47-.39c-.42-.13-.87,.11-1,.53-.3,.98-.45,2.03-.45,3.13,0,.68,.07,1.39,.21,2.1l.07,.34-.34-.07c-6.02-1.22-10.39-6.57-10.39-12.71,0-1.74,.36-3.45,1.06-5.08l.12-.29,.24,.2c1.87,1.56,3.93,2.7,6.12,3.39,.41,.13,.87-.11,1-.52,.13-.42-.1-.87-.52-1-2.46-.78-4.66-2.1-6.54-3.92-3.18-3.13-4.93-7.29-4.93-11.73,0-6.47,3.82-12.36,9.74-15,.2-.09,.35-.25,.42-.44,.08-.2,.07-.42-.02-.61-.18-.4-.65-.59-1.06-.4-1.87,.83-3.58,1.98-5.08,3.41l-.33,.31-.06-.45c-.11-.79-.17-1.57-.17-2.32,0-6.59,4.11-12.69,10.22-15.19l.36-.15-.04,.39c-.04,.36-.08,.76-.08,1.17,0,1.75,.39,3.42,1.17,4.97,.1,.19,.26,.33,.46,.4,.2,.07,.42,.05,.61-.04,.19-.1,.33-.26,.4-.46,.07-.2,.05-.42-.04-.61-.66-1.33-1-2.76-1-4.26,0-.9,.12-1.75,.35-2.55,1.14-4.11,4.92-6.99,9.19-6.99,5.26,0,9.54,4.28,9.54,9.54,0,4.31-3.51,7.81-7.81,7.81-.44,0-.8,.36-.8,.8s.36,.8,.8,.8Zm41.35,32.73c2.41,0,4.37,1.96,4.37,4.37s-1.96,4.37-4.37,4.37-4.37-1.96-4.37-4.37,1.96-4.37,4.37-4.37Z"/></g></svg>