<?xml version="1.0" encoding="UTF-8"?><svg id="Layer_2" xmlns="http://www.w3.org/2000/svg" viewBox="0 0 75.71 75.71"><defs><style>.cls-1{fill:#fff;}</style></defs><g id="work"><g><path class="cls-1" d="M24.22,75.71c-3.1,0-5.62-2.52-5.62-5.62v-19.17h-7.29l-.83-3.31-2.93,1.76-5.99-5.99,1.76-2.93-3.31-.83v-8.48l3.31-.83-1.76-2.93,6-5.99,2.93,1.76,.83-3.31h7.29V5.62c0-3.1,2.52-5.62,5.62-5.62H56.45c3.1,0,5.62,2.52,5.62,5.62V22.61l.45,.1c7.64,1.68,13.19,8.57,13.19,16.38s-5.55,14.71-13.19,16.38l-.45,.1v14.51c0,3.1-2.52,5.62-5.62,5.62H24.22Zm-4.29-5.62c0,2.37,1.93,4.29,4.29,4.29H56.45c2.37,0,4.29-1.93,4.29-4.29v-4.29H19.93v4.29Zm0-5.62H60.74v-8.69l-.73,.05c-.38,.03-.73,.05-1.08,.05s-.7-.03-1.05-.05l-.77-.06v5.06H23.55V14.87H57.11v7.54l.74-.05c.36-.03,.71-.05,1.07-.05s.71,.03,1.07,.05l.74,.05V11.25H19.93v53.21Zm4.96-4.96h30.9v-3.93l-.45-.1c-7.64-1.68-13.19-8.57-13.19-16.38,0-.73,.06-1.49,.19-2.4l.09-.66h-13.92V19.83h23.64v3.9l.78-.3c.81-.31,1.62-.56,2.4-.73l.45-.1v-6.4H24.88V59.5Zm25.56-15.74c-1.91,.48-3.25,2.19-3.25,4.16v1.19l.14,.16c2.94,3.35,7.17,5.26,11.59,5.26s8.64-1.92,11.59-5.26l.14-.16v-1.19c0-1.97-1.34-3.69-3.25-4.16l-6.67-1.67v-2.83l.33-.19c1.35-.78,2.15-2.16,2.15-3.69v-2.48c0-1.2-.51-2.35-1.39-3.16-.8-.74-1.81-1.13-2.91-1.13-.12,0-.25,0-.37,.02-2.19,.19-3.91,2.18-3.91,4.53v2.22c0,1.53,.8,2.91,2.15,3.69l.33,.19v2.83l-6.67,1.67Zm-38.8,3.04l.69,2.79h6.25v-6.68l-.74,.22c-.78,.24-1.56,.35-2.31,.35-4.47,0-8.1-3.64-8.1-8.1s3.64-8.1,8.1-8.1c.76,0,1.53,.12,2.31,.35l.74,.22v-6.68h-6.25l-.8,3.19-.98,.4-2.81-1.69-4.52,4.52,1.69,2.81-.4,.98-3.19,.8v6.4l3.19,.8,.4,.98-1.69,2.81,4.52,4.52,2.81-1.69,.92,.37,.16,.43ZM58.92,27.27c1.42,0,2.77,.52,3.81,1.48,1.16,1.06,1.83,2.58,1.83,4.15v2.48c0,1.74-.84,3.41-2.25,4.47l-.23,.17v1.03l5.66,1.42c1.81,.45,3.28,1.77,3.92,3.53l.45,1.24,.6-1.18c1.11-2.19,1.68-4.54,1.68-6.97,0-8.52-6.93-15.45-15.45-15.45s-15.45,6.93-15.45,15.45c0,2.43,.57,4.78,1.68,6.97l.6,1.18,.45-1.24c.64-1.76,2.1-3.08,3.92-3.53l5.66-1.42v-1.03l-.23-.17c-1.41-1.06-2.25-2.73-2.25-4.47v-2.22c0-3.04,2.25-5.61,5.12-5.86,.16-.01,.33-.02,.49-.02Zm-43.38,1.33c-3.73,0-6.77,3.04-6.77,6.77s3.04,6.77,6.77,6.77c.93,0,1.84-.2,2.71-.58l.34-.15v-12.08l-.34-.15c-.87-.38-1.78-.58-2.71-.58Zm14.3,6.11h12.89l.12-.41c1.22-4.1,3.95-7.55,7.68-9.72l.29-.17v-3.25H29.84v13.54ZM24.22,1.33c-2.37,0-4.29,1.93-4.29,4.29v4.29H60.74V5.62c0-2.37-1.93-4.29-4.29-4.29H24.22Z"/><rect class="cls-1" x="45.87" y="4.96" width="1.33" height="1.33"/><rect class="cls-1" x="33.47" y="4.96" width="8.77" height="1.33"/><rect class="cls-1" x="35.95" y="69.42" width="8.77" height="1.33"/><rect class="cls-1" x="53.3" y="69.42" width="1.33" height="1.33"/><rect class="cls-1" x="26.03" y="69.42" width="1.33" height="1.33"/><rect class="cls-1" x="28.51" y="39.67" width="10.01" height="1.33"/><rect class="cls-1" x="28.51" y="44.63" width="10.01" height="1.33"/><rect class="cls-1" x="28.51" y="49.58" width="10.01" height="1.33"/><rect class="cls-1" x="28.51" y="54.54" width="10.01" height="1.33"/><path class="cls-1" d="M68.84,21.17c-1.73,0-3.15-1.41-3.15-3.15,0-1.32,.84-2.5,2.1-2.95l.38-.14V4.96h1.33V14.93l.38,.14c1.26,.45,2.1,1.63,2.1,2.95,0,1.73-1.41,3.15-3.15,3.15Zm0-4.96c-1,0-1.81,.81-1.81,1.81s.81,1.81,1.81,1.81,1.81-.81,1.81-1.81-.81-1.81-1.81-1.81Z"/><rect class="cls-1" x="68.18" width="1.33" height="1.33"/><path class="cls-1" d="M11.16,70.75v-9.97l-.38-.14c-1.26-.45-2.1-1.63-2.1-2.95,0-1.73,1.41-3.15,3.15-3.15s3.15,1.41,3.15,3.15c0,1.32-.84,2.5-2.1,2.95l-.38,.14v9.97h-1.33Zm.67-14.87c-1,0-1.81,.81-1.81,1.81s.81,1.81,1.81,1.81,1.81-.81,1.81-1.81-.81-1.81-1.81-1.81Z"/><rect class="cls-1" x="11.16" y="74.38" width="1.33" height="1.33"/></g></g></svg>