<?xml version="1.0" encoding="UTF-8"?><svg id="Layer_2" xmlns="http://www.w3.org/2000/svg" viewBox="0 0 78.08 96.89"><defs><style>.cls-1{fill:#fff;}</style></defs><g id="work"><path class="cls-1" d="M45.32,0c-2.78-.02-5.48,.63-8.51,2.04-1.58,.74-3.1,1.62-4.25,2.31-.78,.47-1.57,.91-2.36,1.35-.44,.25-.89,.5-1.33,.75-.88,.5-1.76,1.02-2.63,1.54-1,.59-2,1.19-3.02,1.76-1.32,.75-2.63,1.51-3.94,2.28l-.81,.47c-.28,.16-.56,.32-.85,.47-.49,.27-.98,.54-1.48,.86-.04,.03-.07,.07-.11,.1-.06,.05-.12,.09-.17,.15-.04,.05-.06,.1-.09,.16-.03,.06-.07,.12-.09,.19-.02,.06-.02,.12-.03,.18,0,.07-.02,.14-.01,.21,0,.06,.02,.12,.04,.18,.01,.05,.01,.1,.03,.15,.4,.95-.39,2.34-1.75,3.13-1.31,.76-2.84,.72-3.55-.08-.13-.15-.32-.26-.51-.32-.05-.01-.17-.04-.22-.05-.07-.01-.15,0-.22,0-.02,0-.04,0-.06,0-.12,.02-.24,.06-.35,.12-.01,0-.02,0-.04,.01l-5.98,3.46c-1.39,.8-2.39,2.12-2.82,3.71-.45,1.7-.21,3.5,.7,5.06l3.07,5.31c.87,1.5,2.24,2.6,3.86,3.08,1.65,.49,3.35,.3,4.8-.54l5.98-3.46s.03-.03,.05-.04c.08-.05,.15-.11,.21-.18,.02-.02,.04-.04,.06-.07,.07-.09,.12-.19,.16-.3,0,0,0-.03,.01-.04,0,0,0,0,0,0h0c.01-.05,.03-.13,.04-.16,.04-.18,.02-.36-.03-.53-.27-.81,.41-2.45,1.94-3.01,1.52-.56,3.72,1.16,4.82,2.45,.02,.03,.05,.04,.08,.06,.06,.06,.12,.11,.19,.16,.03,.02,.06,.03,.09,.05,.09,.04,.19,.07,.29,.09,.01,0,.03,0,.04,0,.12,.01,.23,0,.35-.02,0,0,0,0,0,0,.09-.02,.19-.04,.28-.09l2.7-1.56,11.9,20.58c-.17,.33-.31,.68-.4,1.04-.37,1.38-.18,2.81,.53,4.04l20.85,37.19c1.47,2.54,4.74,3.42,7.28,1.95l5.35-3.09c1.23-.71,2.11-1.86,2.48-3.24s.18-2.81-.54-4.06l-21.7-36.67c-.71-1.23-1.86-2.11-3.24-2.48-.37-.1-.73-.15-1.1-.17l-11.9-20.58,2.86-1.65c.5-.29,.67-.93,.38-1.43-1.08-1.87-2.73-4.73-2.89-5.03,0,0,0-.02-.01-.03-.24-.46-.28-1.04-.1-1.71,.47-1.77,2.24-3.72,4.62-5.1,1.51-.87,3.11-1.41,4.69-1.57,1.84-.31,3.56-.14,5.26,.52,.66,.26,1.35,.61,2.06,1.06,.33,.21,.75,.22,1.08,.02l1.6-.92c.25-.14,.42-.38,.49-.64s.04-.55-.11-.8l-.68-1.16c-.84-1.47-2.03-2.83-3.56-4.05-1.56-1.25-3.29-2.16-5.13-2.71C48.48,.24,46.91,.01,45.32,0ZM16.68,33.3l-5.07,2.93c-.95,.55-2.06,.67-3.15,.35-1.11-.33-2.05-1.08-2.65-2.12l-3.07-5.31c-.62-1.08-.8-2.31-.49-3.47,.28-1.05,.93-1.91,1.84-2.44l5.07-2.93,7.52,13Zm.9-2.63l-5.64-9.76c1.01,.02,2.09-.25,3.08-.82,.98-.57,1.77-1.34,2.28-2.2l6.05,10.45c-.95-.33-1.97-.43-3-.05-1.16,.42-2.16,1.31-2.77,2.38Zm36.27,19.51l21.7,36.67c.86,1.5,.31,3.56-1.18,4.42l-5.35,3.1c-1.54,.89-3.53,.36-4.41-1.17l-20.85-37.19c-.43-.75-.55-1.62-.32-2.46,.09-.35,.25-.67,.45-.96,0,0,.01-.01,.01-.02,.28-.42,.63-.75,1.04-.98l4.48-2.59c.4-.23,.87-.37,1.38-.41,0,0,.01,0,.02,0,.35-.03,.71,0,1.06,.09,.84,.22,1.53,.76,1.97,1.52Zm-4.75-3.35c-.25,.1-.5,.21-.73,.35l-4.48,2.59c-.23,.13-.45,.29-.66,.46l-11.5-19.89,5.87-3.4,11.5,19.89ZM53.8,5.04c1.31,1.05,2.34,2.21,3.04,3.45l.16,.27-.15,.09c-.63-.37-1.26-.67-1.87-.91-2.06-.8-4.14-1.01-6.3-.65-1.81,.18-3.7,.82-5.46,1.83-2.88,1.67-4.98,4.05-5.6,6.37-.32,1.19-.22,2.3,.27,3.23l.04-.02c.26,.57,.91,1.7,2.37,4.23l-2.85,1.65s0,0,0,0l-7.69,4.45h0s-2.7,1.56-2.7,1.56l-8.96-15.5c.17-.1,.35-.19,.52-.29,.3-.17,.61-.33,.9-.5l.81-.47c1.3-.76,2.6-1.52,3.91-2.26,1.03-.58,2.04-1.18,3.06-1.78,.86-.51,1.73-1.02,2.6-1.52,.44-.25,.87-.49,1.31-.74,.81-.45,1.62-.91,2.41-1.38,1.11-.66,2.57-1.51,4.07-2.21,2.74-1.28,5.15-1.87,7.61-1.85,1.4,.01,2.77,.21,4.07,.6,1.59,.47,3.07,1.26,4.43,2.34Z"/></g></svg>