<?xml version="1.0" encoding="UTF-8"?><svg id="Layer_2" xmlns="http://www.w3.org/2000/svg" viewBox="0 0 72.82 82.04"><defs><style>.cls-1{fill:#fff;}</style></defs><g id="work"><path class="cls-1" d="M36.41,82.04c-7.82,0-15.17-3.09-20.7-8.7-4.21-4.28-7-9.63-8.06-15.49l-.11-.59-.6-.07c-3.96-.49-6.95-3.88-6.95-7.87s2.73-7.11,6.5-7.8l.67-.12V23.56l-1.23,.73c-.43,.26-.83,.56-1.18,.89-.37,.36-.84,.55-1.33,.55-.36,0-.72-.11-1.04-.31-.78-.49-1.09-1.37-.79-2.24l.77-2.27c.38-1.14,.95-2.2,1.68-3.17l.14-.18,.02-.23c.84-7.83,6.31-13.36,15.82-15.98,3.27-.9,6.65-1.36,10.05-1.36,4.26,0,8.51,.71,12.64,2.11l10.17,3.45,.27-.09c1-.35,2.05-.53,3.11-.53,1.84,0,3.63,.54,5.18,1.56,2.63,1.74,4.19,4.66,4.19,7.81v27.08l.67,.12c3.77,.69,6.5,3.97,6.5,7.8s-2.97,7.35-6.91,7.87l-.6,.08-.1,.59c-1.03,5.93-3.84,11.33-8.13,15.63-5.52,5.52-12.87,8.56-20.67,8.56h0ZM8.7,52.5c0,7.45,2.88,14.47,8.1,19.77,5.24,5.32,12.21,8.24,19.61,8.24s14.36-2.88,19.6-8.12c5.23-5.24,8.12-12.2,8.12-19.6v-15.38l-.72-.09c-6.32-.75-11.09-6.11-11.09-12.49v-6.32l-1.41,1.48c-4.35,4.58-9.96,7.63-16.21,8.82-1.88,.36-3.79,.54-5.69,.54-5.84,0-11.54-1.7-16.47-4.92-.89-.58-1.91-.93-2.96-1.01l-.88-.07v29.13Zm-2.57-9.33c-2.71,.8-4.6,3.33-4.6,6.15s1.93,5.4,4.69,6.18l1.11,.31-.08-1.15c-.05-.71-.07-1.43-.07-2.15v-9.64l-1.05,.31Zm59.53,9.63c0,.58-.02,1.18-.06,1.85l-.07,1.15,1.1-.31c2.75-.78,4.67-3.31,4.67-6.17s-1.89-5.35-4.6-6.15l-1.05-.31v9.94ZM56.3,6.45c-.67,0-1.33,.09-1.99,.26l-.61,.16,.13,17.98c0,5.39,4.02,10.08,9.35,10.91l.94,.15V14.31c0-2.68-1.28-5.06-3.51-6.54-1.3-.86-2.79-1.32-4.32-1.32ZM9.11,21.89c1.51,0,2.98,.44,4.26,1.28,4.68,3.05,10.09,4.67,15.64,4.67,1.8,0,3.62-.17,5.41-.51,7.14-1.36,13.43-5.33,17.74-11.18l.16-.22-.14-9-9.94-3.37c-3.97-1.35-8.06-2.03-12.15-2.03-3.27,0-6.51,.44-9.64,1.3-7.23,1.99-11.87,5.61-13.8,10.76l-.75,1.99,1.89-.98c.26-.13,.51-.26,.78-.37,1.4-.6,2.88-.9,4.4-.9,1.62,0,3.25,.36,4.72,1.04,1.27,.59,2.63,.89,4.05,.89,2.79,0,5.43-1.18,7.26-3.25l.39-.44c.15-.16,.35-.26,.57-.26,.19,0,.36,.07,.5,.19,.15,.13,.24,.32,.26,.52,.01,.2-.05,.4-.19,.55l-.39,.44c-2.11,2.39-5.18,3.76-8.41,3.76-1.64,0-3.21-.35-4.68-1.03-1.27-.59-2.68-.9-4.08-.9-1.31,0-2.59,.26-3.8,.78-2.52,1.08-4.47,3.19-5.35,5.79l-1.08,3.22,2.01-1.38c1.29-.89,2.8-1.35,4.37-1.35Z"/></g></svg>