<?xml version="1.0" encoding="UTF-8"?><svg id="Layer_2" xmlns="http://www.w3.org/2000/svg" viewBox="0 0 102.39 68.59"><defs><style>.cls-1{fill:#fff;}</style></defs><g id="work"><g><path class="cls-1" d="M101.39,68.59H1c-.55,0-1-.45-1-1V1C0,.45,.45,0,1,0H101.39c.55,0,1,.45,1,1V67.59c0,.55-.45,1-1,1ZM2,66.59H100.39V2H2V66.59Z"/><path class="cls-1" d="M26.69,39.81H14.54c-.55,0-1-.45-1-1s.45-1,1-1h12.15c.55,0,1,.45,1,1s-.45,1-1,1Z"/><path class="cls-1" d="M87.86,39.81H40.53c-.55,0-1-.45-1-1s.45-1,1-1h47.33c.55,0,1,.45,1,1s-.45,1-1,1Z"/><g><path class="cls-1" d="M88.02,53.95h-12.15c-.55,0-1-.45-1-1s.45-1,1-1h12.15c.55,0,1,.45,1,1s-.45,1-1,1Z"/><path class="cls-1" d="M62.03,53.95H14.7c-.55,0-1-.45-1-1s.45-1,1-1H62.03c.55,0,1,.45,1,1s-.45,1-1,1Z"/></g></g></g></svg>