<?xml version="1.0" encoding="UTF-8"?><svg id="Layer_2" xmlns="http://www.w3.org/2000/svg" viewBox="0 0 81.4 69.35"><defs><style>.cls-1{fill:#fff;}</style></defs><g id="work"><g><path class="cls-1" d="M40.7,23.88c-.41,0-.75-.34-.75-.75s.34-.75,.75-.75,.75,.34,.75,.75-.34,.75-.75,.75Z"/><path class="cls-1" d="M4,40.12c-2.2,0-4-1.79-4-4s1.79-4,4-4h6.94l.21-.59c.37-1.04,.75-2.18,1.16-3.38C15.49,18.73,20.33,4.48,27.93,.78c1.07-.52,2.16-.78,3.23-.78,2.35,0,4.4,1.28,5.36,3.34,.77,1.65,2.37,2.67,4.18,2.67s3.41-1.03,4.18-2.68c.93-2,2.91-3.24,5.17-3.24,1.21,0,2.46,.34,3.7,1,7.54,4.06,12.27,18,15.41,27.22,.39,1.13,.75,2.21,1.1,3.21l.21,.59h6.94c2.2,0,4,1.79,4,4s-1.79,4-4,4H4Zm0-6.5c-1.38,0-2.5,1.12-2.5,2.5s1.12,2.5,2.5,2.5H77.4c1.38,0,2.5-1.12,2.5-2.5s-1.12-2.5-2.5-2.5H4Zm11.2-9.16c-.82,2.38-1.67,4.81-2.26,6.49l-.41,1.16h56.35l-.41-1.16c-.59-1.68-1.44-4.13-2.26-6.49l-.2-.59h-18.81c-.41,0-.75-.34-.75-.75s.34-.75,.75-.75h18.3l-.43-1.17C60.24,7.91,55.46,3.73,53.04,2.43c-1.02-.55-2.02-.83-2.98-.83-1.7,0-3.13,.89-3.82,2.38-1.02,2.18-3.14,3.54-5.54,3.54s-4.52-1.36-5.54-3.54c-.71-1.53-2.24-2.48-4-2.48-.84,0-1.71,.21-2.58,.63-2.42,1.18-7.23,5.22-12.25,19.08l-.42,1.17h18.3c.41,0,.75,.34,.75,.75s-.34,.75-.75,.75H15.4l-.2,.59Z"/><path class="cls-1" d="M24.46,69.35c-7.58,0-13.74-6.16-13.74-13.74v-6.5c0-.41,.34-.75,.75-.75h25.98c.41,0,.75,.34,.75,.75v2.5h5v-2.5c0-.41,.34-.75,.75-.75h25.98c.41,0,.75,.34,.75,.75v6.5c0,7.58-6.16,13.74-13.74,13.74-5.76,0-10.8-3.47-12.84-8.85l-.13-.34-.33-.15c-.91-.42-1.93-.64-2.94-.64s-2.03,.22-2.94,.64l-.33,.15-.13,.34c-2.04,5.38-7.08,8.85-12.84,8.85Zm20.24-13.74c0,6.75,5.49,12.24,12.24,12.24s12.24-5.49,12.24-12.24v-5.75h-24.49v5.75Zm-32.48,0c0,6.75,5.49,12.24,12.24,12.24s12.24-5.49,12.24-12.24v-5.75H12.22v5.75Zm25.98,0c0,.47-.03,.96-.08,1.46l-.12,1.16,1.15-.21c.51-.09,1.03-.14,1.55-.14s1.04,.05,1.55,.14l1.15,.21-.12-1.16c-.05-.5-.08-.99-.08-1.46v-2.5h-5v2.5Z"/><path class="cls-1" d="M24.46,62.86c-3.99,0-7.24-3.25-7.24-7.25,0-.41,.34-.75,.75-.75s.75,.34,.75,.75c0,3.17,2.58,5.75,5.75,5.75,.41,0,.75,.34,.75,.75s-.34,.75-.75,.75Z"/><path class="cls-1" d="M56.94,62.86c-.41,0-.75-.34-.75-.75s.34-.75,.75-.75c3.17,0,5.75-2.58,5.75-5.75,0-.41,.34-.75,.75-.75s.75,.34,.75,.75c0,4-3.25,7.25-7.25,7.25Z"/></g></g></svg>