<?xml version="1.0" encoding="UTF-8"?><svg id="Layer_2" xmlns="http://www.w3.org/2000/svg" viewBox="0 0 80.67 80.67"><defs><style>.cls-1{fill:#fff;}</style></defs><g id="work"><g><path class="cls-1" d="M5.07,77.06c-.42,0-.76-.34-.76-.76s.34-.76,.76-.76h7.92c.42,0,.76,.34,.76,.76s-.34,.76-.76,.76H5.07Z"/><path class="cls-1" d="M16.94,77.06c-.42,0-.76-.34-.76-.76s.34-.76,.76-.76h1.32c.42,0,.76,.34,.76,.76s-.34,.76-.76,.76h-1.32Z"/><path class="cls-1" d="M55.34,40.75c-.42,0-.76-.34-.76-.76s.34-.76,.76-.76h7.92c.42,0,.76,.34,.76,.76s-.34,.76-.76,.76h-7.92Z"/><path class="cls-1" d="M67.21,40.75c-.42,0-.76-.34-.76-.76s.34-.76,.76-.76h1.32c.42,0,.76,.34,.76,.76s-.34,.76-.76,.76h-1.32Z"/><path class="cls-1" d="M74.64,10.55h-28.27V3.39c0-1.86-1.53-3.39-3.4-3.39H3.4C1.53,0,0,1.53,0,3.39V77.27c0,1.87,1.53,3.4,3.4,3.4H42.97c1.87,0,3.4-1.53,3.4-3.4v-20.35h5.62v-1.52H21.87c-2.49,0-4.52-2.03-4.52-4.52V19.98h61.8v30.91c0,2.49-2.03,4.52-4.51,4.52h-2.96v1.52h2.96c3.32,0,6.03-2.72,6.03-6.04V16.59c0-3.32-2.7-6.04-6.03-6.04ZM30.13,1.52l-.94,3.76h-12.01l-.84-3.76h13.79Zm-14.3,15.07V50.88c0,3.32,2.7,6.04,6.04,6.04h22.98v20.35c0,1.03-.84,1.89-1.89,1.89H3.4c-1.03,0-1.89-.85-1.89-1.89V3.39c0-1.03,.85-1.87,1.89-1.87H14.68l1.18,4.7c.08,.34,.38,.57,.73,.57h13.2c.35,0,.65-.24,.73-.57l1.18-4.7h11.29c1.03,0,1.87,.84,1.87,1.87v7.16H21.87c-3.33,0-6.04,2.72-6.04,6.04Zm63.32,1.87H17.35v-1.87c0-2.49,2.03-4.52,4.52-4.52h52.77c2.48,0,4.51,2.03,4.51,4.52v1.87Z"/><path class="cls-1" d="M22.22,16.37c-.42,0-.76-.34-.76-.76s.34-.76,.76-.76h2.64c.42,0,.76,.34,.76,.76s-.34,.76-.76,.76h-2.64Z"/><path class="cls-1" d="M28.81,16.37c-.42,0-.76-.34-.76-.76s.34-.76,.76-.76h2.64c.42,0,.76,.34,.76,.76s-.34,.76-.76,.76h-2.64Z"/><path class="cls-1" d="M35.41,16.37c-.42,0-.76-.34-.76-.76s.34-.76,.76-.76h2.64c.42,0,.76,.34,.76,.76s-.34,.76-.76,.76h-2.64Z"/><path class="cls-1" d="M70.5,35.08h-17.33c-1.39,0-2.53,1.13-2.53,2.53v32.5c0,1.39,1.13,2.51,2.53,2.51h17.33c1.39,0,2.53-1.12,2.53-2.51V37.61c0-1.39-1.13-2.53-2.53-2.53Zm1.18,35.03c0,.64-.53,1.18-1.18,1.18h-17.33c-.65,0-1.18-.54-1.18-1.18V37.61c0-.65,.53-1.18,1.18-1.18h17.33c.65,0,1.18,.53,1.18,1.18v32.5Z"/></g></g></svg>