<?xml version="1.0" encoding="UTF-8"?><svg id="Layer_2" xmlns="http://www.w3.org/2000/svg" viewBox="0 0 87.26 87.26"><defs><style>.cls-1{fill:#fff;}</style></defs><g id="work"><g><path class="cls-1" d="M35.35,53.38c-.82,0-1.48-.67-1.48-1.48v-16.55c0-.82,.66-1.48,1.48-1.48h8.27c.44,0,.79,.36,.79,.79s-.36,.79-.79,.79h-8.17v16.34h16.34v-16.34h-2.65c-.44,0-.79-.36-.79-.79s.36-.79,.79-.79h2.76c.82,0,1.48,.67,1.48,1.48v16.55c0,.82-.67,1.48-1.48,1.48h-16.55Z"/><path class="cls-1" d="M6.65,17.1c-.82,0-1.48-.67-1.48-1.48V6.65c0-.82,.67-1.48,1.48-1.48H15.62c.82,0,1.48,.67,1.48,1.48V15.62c0,.82-.67,1.48-1.48,1.48H6.65Zm.1-1.59H15.51V6.76H6.76V15.51Z"/><path class="cls-1" d="M6.65,82.08c-.82,0-1.48-.67-1.48-1.48v-8.96c0-.82,.67-1.48,1.48-1.48H15.62c.82,0,1.48,.67,1.48,1.48v8.96c0,.82-.67,1.48-1.48,1.48H6.65Zm.1-1.59H15.51v-8.76H6.76v8.76Z"/><path class="cls-1" d="M67.85,87.26c-1.58,0-2.86-1.28-2.86-2.86v-7.69c0-.44,.36-.79,.79-.79s.79,.36,.79,.79v7.69c0,.7,.57,1.28,1.28,1.28h16.55c.7,0,1.28-.57,1.28-1.28v-16.55c0-.7-.57-1.28-1.28-1.28h-16.55c-.7,0-1.28,.57-1.28,1.28v3.36c0,.44-.36,.79-.79,.79s-.79-.36-.79-.79v-3.36c0-1.58,1.28-2.86,2.86-2.86h7.48v-19.28h-16.77v9.3c0,1.96-1.59,3.55-3.55,3.55h-5.24v6.59l.33,.12c1.35,.48,2.25,1.76,2.25,3.19,0,1.86-1.52,3.38-3.38,3.38s-3.38-1.52-3.38-3.38c0-1.43,.91-2.71,2.25-3.19l.33-.12v-6.59h-8.07v17.15c0,.44-.36,.79-.79,.79H22.27v7.9c0,1.58-1.28,2.86-2.86,2.86H2.86c-1.58,0-2.86-1.28-2.86-2.86v-16.55c0-1.58,1.28-2.86,2.86-2.86H19.41c1.58,0,2.86,1.28,2.86,2.86v7.06h16.25v-16.36h-6.28c-1.96,0-3.55-1.59-3.55-3.55v-5.07h-2.63l-.12,.33c-.48,1.35-1.76,2.25-3.19,2.25-1.86,0-3.38-1.52-3.38-3.38s1.52-3.38,3.38-3.38c1.43,0,2.71,.91,3.19,2.25l.12,.33h2.63v-6.52H11.14c-.44,0-.79-.36-.79-.79V22.27H2.86c-1.58,0-2.86-1.28-2.86-2.86V2.86C0,1.28,1.28,0,2.86,0H19.41c1.58,0,2.86,1.28,2.86,2.86v7.67c0,.44-.36,.79-.79,.79s-.79-.36-.79-.79V2.86c0-.7-.57-1.28-1.28-1.28H2.86c-.7,0-1.28,.57-1.28,1.28V19.41c0,.7,.57,1.28,1.28,1.28H19.41c.7,0,1.28-.57,1.28-1.28v-3.36c0-.44,.36-.79,.79-.79s.79,.36,.79,.79v3.36c0,1.58-1.28,2.86-2.86,2.86h-7.48v17.98H28.7v-8c0-1.96,1.59-3.55,3.55-3.55h6.28v-5.9l-.33-.12c-1.35-.48-2.25-1.76-2.25-3.19,0-1.86,1.52-3.38,3.38-3.38s3.38,1.52,3.38,3.38c0,1.43-.91,2.71-2.25,3.19l-.33,.12v5.9h8.07V11.14c0-.44,.36-.79,.79-.79h16.01V2.86c0-1.58,1.28-2.86,2.86-2.86h16.55c1.58,0,2.86,1.28,2.86,2.86V19.41c0,1.58-1.28,2.86-2.86,2.86h-16.55c-1.58,0-2.86-1.28-2.86-2.86v-7.48h-15.22V28.7h5.24c1.96,0,3.55,1.59,3.55,3.55v4.9h7.01l.12-.33c.48-1.35,1.76-2.25,3.18-2.25,1.86,0,3.38,1.52,3.38,3.38s-1.52,3.38-3.38,3.38c-1.43,0-2.71-.91-3.18-2.25l-.12-.33h-7.01v5.39h17.57c.44,0,.79,.36,.79,.79v20.07h7.48c1.58,0,2.86,1.28,2.86,2.86v16.55c0,1.58-1.28,2.86-2.86,2.86h-16.55ZM2.86,66.57c-.7,0-1.28,.57-1.28,1.28v16.55c0,.7,.57,1.28,1.28,1.28H19.41c.7,0,1.28-.57,1.28-1.28v-16.55c0-.7-.57-1.28-1.28-1.28H2.86Zm46.11,.09c-.99,0-1.79,.8-1.79,1.79s.8,1.79,1.79,1.79,1.79-.8,1.79-1.79-.8-1.79-1.79-1.79ZM32.25,30.29c-1.08,0-1.96,.88-1.96,1.96v22.76c0,1.08,.88,1.96,1.96,1.96h22.76c1.08,0,1.96-.88,1.96-1.96v-22.76c0-1.08-.88-1.96-1.96-1.96h-22.76Zm-9.48,17.06c-.99,0-1.79,.8-1.79,1.79s.8,1.79,1.79,1.79,1.79-.8,1.79-1.79-.8-1.79-1.79-1.79Zm46.1-11.2c-.99,0-1.79,.8-1.79,1.79s.8,1.79,1.79,1.79,1.79-.8,1.79-1.79-.8-1.79-1.79-1.79Zm-29.55-18.44c-.99,0-1.79,.8-1.79,1.79s.8,1.79,1.79,1.79,1.79-.8,1.79-1.79-.8-1.79-1.79-1.79ZM67.85,1.59c-.7,0-1.28,.57-1.28,1.28V19.41c0,.7,.57,1.28,1.28,1.28h16.55c.7,0,1.28-.57,1.28-1.28V2.86c0-.7-.57-1.28-1.28-1.28h-16.55Z"/><path class="cls-1" d="M71.64,17.1c-.82,0-1.48-.67-1.48-1.48V6.65c0-.82,.67-1.48,1.48-1.48h8.96c.82,0,1.48,.67,1.48,1.48V15.62c0,.82-.67,1.48-1.48,1.48h-8.96Zm.1-1.59h8.76V6.76h-8.76V15.51Z"/><path class="cls-1" d="M71.64,82.08c-.82,0-1.48-.67-1.48-1.48v-8.96c0-.82,.67-1.48,1.48-1.48h8.96c.82,0,1.48,.67,1.48,1.48v8.96c0,.82-.67,1.48-1.48,1.48h-8.96Zm.1-1.59h8.76v-8.76h-8.76v8.76Z"/></g></g></svg>