<?xml version="1.0" encoding="UTF-8"?><svg id="Layer_2" xmlns="http://www.w3.org/2000/svg" viewBox="0 0 135.02 90.99"><defs><style>.cls-1{fill:#fff;}</style></defs><g id="work"><g><path class="cls-1" d="M132.61,70.36c-.77-4-3.63-7.36-7.46-8.79l-8.29-3.08,.16-.11-.96-.62c-.45-.29-5.09-3.71-6.82-4.98l-.54-.39-1.55,1.41-.86-5.83c1.71-1.42,3.09-2.9,4.05-4.41,.84-1.32,1.42-2.49,1.66-4.21l.55-3.81c.02-.11,.08-.22,.17-.29,.72-.58,3.05-2.75,2.78-6.32-.09-1.23-.54-1.91-1.05-2.3,2.83-7.92,3.2-13.64,1.13-17.48-1.33-2.45-3.69-4.11-7.02-4.94-2.65-3.4-11.04-3.61-11.42-3.62-7.91,0-13.61,2.3-16.93,6.81-.18,.24-.35,.49-.51,.73-.05,.08-.1,.17-.15,.25-.1,.17-.21,.33-.3,.5-.06,.1-.1,.2-.16,.3-.08,.16-.17,.31-.25,.47-.05,.11-.1,.22-.15,.32-.07,.15-.14,.3-.21,.45-.05,.11-.09,.23-.14,.34-.06,.15-.12,.3-.18,.45-.04,.12-.08,.23-.12,.35-.05,.15-.1,.3-.15,.45-.04,.12-.07,.24-.11,.36-.04,.15-.09,.3-.13,.44-.03,.12-.06,.24-.09,.36-.04,.15-.08,.3-.11,.45-.03,.12-.05,.24-.07,.36-.03,.15-.06,.3-.09,.45-.02,.12-.04,.24-.06,.36-.02,.15-.05,.3-.07,.44-.02,.12-.03,.24-.05,.35-.02,.15-.04,.3-.05,.45-.01,.11-.02,.23-.03,.34-.01,.15-.03,.3-.04,.45,0,.11-.01,.23-.02,.34,0,.15-.02,.29-.02,.44,0,.11,0,.22-.01,.33,0,.15,0,.29-.01,.44,0,.11,0,.21,0,.32,0,.14,0,.29,0,.43,0,.11,0,.21,0,.32,0,.14,0,.28,.01,.42,0,.1,0,.2,.01,.3,0,.14,.01,.28,.02,.41,0,.1,.01,.19,.02,.29,0,.13,.02,.27,.03,.4,0,.09,.02,.19,.03,.28,.01,.13,.02,.26,.04,.39,0,.09,.02,.18,.03,.26,.01,.13,.03,.25,.04,.37,.01,.09,.02,.17,.03,.25,.02,.12,.03,.24,.05,.35,.01,.08,.02,.16,.04,.24,.02,.11,.04,.23,.05,.34,.01,.07,.02,.15,.04,.22,.02,.11,.04,.22,.06,.32,.01,.07,.02,.13,.04,.19,.02,.1,.04,.2,.06,.3,.01,.06,.03,.13,.04,.19,.02,.09,.04,.18,.06,.27,.01,.06,.02,.12,.04,.17,.02,.08,.04,.16,.05,.23,.01,.06,.03,.11,.04,.17,.02,.06,.03,.13,.04,.19,.01,.06,.03,.11,.04,.17,.01,.05,.02,.09,.04,.14,.01,.05,.03,.11,.04,.15,0,.02,0,.04,.01,.05-.47,.42-.91,1.14-1.02,2.4-.29,3.57,2.06,5.74,2.79,6.33,.08,.06,.14,.17,.15,.28l.56,3.81c.24,1.72,.82,2.89,1.66,4.21,.95,1.5,2.31,2.97,4.01,4.38l-.86,5.86-1.04-.95-.49-.48-.53,.39c-1.75,1.29-6.39,4.71-6.84,5l-.96,.62,.16,.11-7.17,2.66-8.65-3.39,.9-.58h-2.3c-.66-.47-2.82-2.06-4.8-3.52,3.46-.2,5.77-.89,6.84-2.06,.53-.57,.78-1.28,.72-2.03-.08-1.04,.29-2.98,.76-5.44,1.84-9.62,5.26-27.51-9-39.61C49.75,1.53,45.31,0,39.62,0c-5.68,0-10.12,1.53-13.16,4.49-14.3,12.14-10.87,30.03-9.03,39.64,.47,2.46,.84,4.4,.76,5.44-.06,.76,.19,1.47,.72,2.04,1.09,1.18,3.41,1.86,6.9,2.06-1.87,1.37-4.37,3.2-4.9,3.57l-12.77,5c-2.22,.95-3.93,2.8-4.69,5.07C2.36,70.58,.85,80.62,0,90.18c-.04,.41,.27,.78,.68,.81,.02,0,.04,0,.07,0,.38,0,.71-.29,.75-.68,.82-9.3,2.33-19.4,3.38-22.53,.62-1.86,2.03-3.38,3.83-4.15l12.43-4.86c.84,.7,3.01,2.7,4.95,4.49,2.64,2.44,5.38,4.96,6.31,5.65l.44,.26,1.7-1.08c1.43-.91,4.18-2.65,5.12-3.23,.95,.58,3.76,2.36,5.21,3.29l1.27,.8,.37,.17,.33-.17,.11-.07c.89-.66,3.61-3.16,6.24-5.58,1.97-1.81,4.15-3.82,4.98-4.51l12.33,4.83c1.83,.78,3.23,2.3,3.85,4.16,1.04,3.12,2.56,13.23,3.38,22.53,.03,.39,.36,.68,.75,.68,.02,0,.04,0,.07,0,.41-.04,.72-.4,.68-.81-.84-9.56-2.36-19.6-3.45-22.87-.76-2.27-2.47-4.11-4.71-5.07l-.64-.25,6.53-2.42c1.06,.9,3.01,2.65,5.08,4.51,2.77,2.48,5.62,5.05,6.55,5.74l.53,.26,.36-.23c.94-.59,5.45-3.4,6.7-4.15,1.25,.75,5.77,3.56,6.74,4.17l.38,.19,.35-.17,.11-.07c.92-.69,3.77-3.25,6.53-5.73,2.07-1.86,4.03-3.62,5.1-4.52l9.23,3.42c3.34,1.24,5.84,4.18,6.51,7.66l2.39,12.44c.07,.36,.38,.61,.74,.61,.05,0,.09,0,.14-.01,.41-.08,.67-.47,.59-.88l-2.39-12.44Zm-92.96-7.38l-8.98-8.19c.3-.38,.55-.78,.78-1.19h.03s.19-.39,.19-.39c.41-.87,.75-2.76,1.07-4.59,.03-.18,.06-.34,.09-.51,.09,.08,.17,.15,.25,.23,1.42,1.15,2.58,1.68,4.25,1.94l.32,.05c.37,.05,.66,.1,.96,.13,.31,.03,.61,.04,1,.05,.79,0,1.26-.07,1.98-.18l.31-.05c1.67-.26,2.82-.78,4.27-1.96,.08-.07,.15-.15,.23-.22,.03,.18,.07,.37,.1,.56,.04,.23,.08,.45,.12,.68,.24,1.36,.49,2.68,.79,3.5,.05,.14,.1,.26,.15,.37l.19,.39h.03c.23,.42,.49,.83,.8,1.23l-8.93,8.15ZM31.89,14.46c5.05,7.76,12.29,9.52,21.89,10.94-1.2,10.94-3.17,16.4-7.41,20.69,0,0,0,0,0,0-.37,.37-.76,.74-1.14,1.08-1.23,.99-2.12,1.4-3.53,1.62,0,0-.14,.02-.33,.05-.73,.11-1.09,.16-1.73,.16-.33,0-.59-.01-.85-.04-.28-.03-.55-.07-.88-.12l-.33-.06c-1.42-.22-2.31-.63-3.51-1.6-.41-.36-.8-.72-1.17-1.1-2.07-2.09-3.56-4.44-4.68-7.38-1.21-3.18-2.04-7.18-2.68-12.92,2.91-1.89,5.19-7.7,6.37-11.32Zm-2.39,39.25s.08,0,.12,0c-.02,.02-.03,.05-.05,.07l-.07-.07Zm20.19,.1s-.05-.07-.07-.11c.06,0,.12,0,.19,0l-.11,.1Zm-30.01-4.13c.09-1.24-.28-3.17-.79-5.84-1.78-9.31-5.1-26.65,8.57-38.26,2.79-2.71,6.88-4.09,12.15-4.09,5.28,0,9.37,1.38,12.19,4.13,13.63,11.57,10.31,28.91,8.53,38.22-.19,1-.36,1.9-.5,2.69-.18,1.06-.29,1.94-.3,2.65,0,.18,0,.34,.01,.5,.03,.35-.08,.64-.33,.91-.93,1.02-3.74,1.61-7.7,1.64-.29,0-.56,0-.82,0-.03,0-.06,0-.08,0-.79,0-1.44-.04-1.85-.06-.02-.07-.04-.14-.07-.22-.01-.04-.03-.08-.04-.13-.04-.14-.07-.28-.11-.44-.02-.07-.03-.14-.05-.21-.02-.1-.04-.2-.07-.3-.02-.08-.03-.16-.05-.24-.02-.1-.04-.21-.06-.31-.02-.08-.03-.16-.05-.24-.02-.12-.05-.24-.07-.36-.01-.07-.02-.13-.04-.2-.03-.16-.06-.32-.09-.48,0-.03,0-.05-.01-.08-.03-.19-.07-.39-.1-.57-.04-.25-.09-.5-.13-.73,0-.04-.01-.08-.02-.12-.04-.24-.09-.47-.13-.68,0,0,0,0,0-.01,.11-.12,.21-.24,.32-.35,.16-.17,.31-.34,.46-.52,.14-.17,.28-.34,.42-.51,.14-.18,.29-.35,.42-.53,.13-.18,.26-.36,.38-.54,.13-.18,.26-.36,.38-.55,.12-.18,.24-.37,.35-.56,.12-.19,.23-.38,.34-.57,.11-.19,.22-.39,.32-.59,.1-.19,.21-.39,.31-.59,.1-.2,.2-.41,.29-.62,.09-.2,.19-.4,.28-.6,.09-.22,.18-.44,.27-.66,.08-.2,.17-.41,.24-.61,.09-.23,.17-.47,.25-.71,.07-.21,.15-.41,.22-.62,.08-.25,.15-.5,.23-.75,.06-.21,.13-.42,.19-.63,.07-.26,.14-.54,.21-.81,.05-.21,.11-.42,.16-.64,.07-.29,.13-.58,.2-.87,.05-.21,.09-.42,.14-.63,.06-.31,.12-.63,.18-.95,.04-.21,.08-.41,.12-.62,.06-.34,.12-.7,.17-1.05,.03-.19,.07-.38,.1-.58,.06-.39,.11-.79,.17-1.19,.02-.17,.05-.34,.07-.51,.06-.48,.12-.97,.18-1.47,.01-.1,.03-.2,.04-.3,.07-.61,.14-1.22,.2-1.85l.07-.72-.71-.1c-9.99-1.45-16.89-2.97-21.74-10.65-.27-.44-.78-.67-1.29-.61-.52,.06-.95,.42-1.11,.92-1.9,5.95-4.21,10.07-6.18,11.04l-.47,.23,.06,.52c.66,6.13,1.53,10.38,2.83,13.78,.28,.73,.58,1.42,.9,2.08,.02,.03,.03,.07,.05,.1,.31,.64,.65,1.25,1.02,1.84,.03,.05,.06,.1,.09,.15,.36,.57,.74,1.12,1.15,1.65,.04,.06,.09,.12,.13,.17,.41,.52,.84,1.02,1.3,1.51,.03,.04,.06,.08,.1,.11,0,.04-.02,.09-.03,.14-.03,.15-.06,.3-.09,.46-.02,.11-.04,.21-.06,.32-.03,.19-.07,.38-.1,.58-.03,.16-.06,.33-.09,.5-.01,.08-.03,.16-.04,.24-.02,.12-.04,.23-.06,.35-.01,.08-.03,.15-.04,.23-.02,.12-.04,.24-.07,.35-.01,.08-.03,.15-.04,.23-.02,.13-.05,.25-.07,.37-.01,.06-.02,.12-.04,.18-.03,.15-.06,.29-.09,.43,0,.03-.01,.06-.02,.09-.04,.17-.08,.34-.12,.49,0,0,0,.02,0,.02-.03,.12-.06,.22-.1,.32-.23,.01-.53,.03-.9,.04,0,0,0,0,0,0-.14,0-.29,0-.44,.01-.07,0-.14,0-.21,0-.13,0-.27,0-.41,0-.23,0-.46,0-.71,0-3.99-.02-6.83-.62-7.77-1.64-.25-.27-.35-.56-.33-.91Zm14.05,17.14l-.86,.55c-1.12-.94-3.57-3.2-5.77-5.22-2.13-1.96-3.69-3.4-4.61-4.2,1.39-1.01,4.08-2.99,5.23-3.83l10.69,9.75c-.92,.57-2.51,1.58-4.68,2.96Zm18.45-4.63c-2.18,2.01-4.62,4.25-5.74,5.18l-.77-.49c-2.22-1.41-3.84-2.43-4.77-3.01l10.68-9.75c1.14,.85,3.84,2.84,5.24,3.86-.93,.8-2.5,2.25-4.64,4.21ZM97.13,2.1c2.32,.05,8.71,.72,10.37,3.2l.17,.25,.29,.07c3.08,.71,5.15,2.1,6.31,4.26,.23,.43,.43,.89,.59,1.39,.05,.16,.08,.35,.12,.52,.09,.35,.19,.69,.25,1.07,.04,.23,.04,.49,.07,.74,.03,.34,.08,.68,.09,1.04,0,.29-.01,.61-.02,.91,0,.35,0,.69-.04,1.06-.03,.34-.08,.71-.13,1.07-.05,.36-.08,.71-.14,1.09-.06,.39-.16,.8-.24,1.2-.08,.38-.15,.76-.25,1.16-.1,.41-.23,.85-.35,1.28-.12,.43-.23,.84-.36,1.29-.13,.41-.28,.85-.42,1.27-.13,.39-.26,.78-.41,1.19-.04,0-.08,0-.12,0-.14,0-.27,0-.41,.03-.08,.01-.16,.02-.24,.03-.19,.04-.38,.08-.56,.14,.15-4.39-2.17-7.79-3.54-9.05-.36-.33-.83-.48-1.32-.41-.48,.07-.9,.35-1.16,.77-1.21,2.03-3.43,4.01-7.14,1.93-4.3-2.41-9.71-1.9-12.92-.4-1.02,.48-2.28,1.27-2.49,2.35-.37,1.99-1.15,3.97-1.63,5-.12-.07-.26-.14-.4-.2-.04-.02-.09-.04-.13-.06-.1-.04-.21-.08-.32-.12-.05-.02-.09-.03-.14-.05-.15-.04-.31-.08-.47-.11-.02,0-.04,0-.06,0-.14-.02-.28-.03-.42-.03-.02,0-.04,0-.07,0-.06,0-.11,0-.17,0,0-.01,0-.02,0-.03-.04-.14-.07-.3-.11-.48,0-.03-.01-.05-.02-.08-.04-.18-.08-.38-.13-.59,0-.02,0-.03-.01-.05-.04-.22-.09-.46-.13-.7,0-.05-.02-.1-.03-.15-.04-.25-.08-.51-.13-.78,0-.06-.02-.11-.02-.17-.04-.29-.08-.58-.11-.89,0-.03,0-.07-.01-.1-.03-.3-.06-.6-.09-.92,0-.05,0-.1-.01-.16-.02-.33-.04-.66-.06-1.01,0-.07,0-.15,0-.22-.01-.35-.02-.7-.01-1.05,0-.06,0-.13,0-.19,0-.36,.02-.73,.04-1.11,0-.02,0-.03,0-.05,.02-.38,.06-.77,.1-1.15,0-.07,.02-.14,.02-.21,.05-.37,.1-.75,.17-1.13,.01-.08,.03-.15,.04-.23,.07-.39,.16-.77,.26-1.16,.01-.04,.02-.09,.04-.13,.1-.37,.21-.74,.34-1.11,.02-.05,.03-.1,.05-.15,.13-.38,.28-.75,.45-1.12,.03-.07,.06-.14,.1-.21,.17-.36,.35-.72,.55-1.07,.03-.06,.07-.12,.11-.18,.22-.37,.45-.73,.71-1.08,3.02-4.1,8.31-6.19,15.7-6.2Zm-13.79,40.66c-.77-1.21-1.23-2.15-1.44-3.62l-.56-3.81c-.07-.5-.32-.94-.7-1.24-.58-.47-2.46-2.21-2.23-5.03,.05-.58,.21-1.31,.7-1.53,.11-.05,.25-.07,.38-.07,.03,0,.06,0,.09,0,.14,0,.28,.02,.42,.06,.03,0,.05,.02,.08,.02,.12,.04,.24,.08,.35,.13,.03,.01,.05,.02,.08,.03,.12,.06,.23,.12,.32,.17,.02,.01,.04,.03,.06,.04,.09,.06,.16,.12,.2,.16l.25,.36h.83s.22-.33,.22-.33c.43-.62,1.72-3.52,2.24-6.29,.03-.15,.38-.68,1.65-1.27,2.88-1.34,7.72-1.8,11.56,.35,5.35,3,8.36-1.13,9.16-2.47l-.64-.38,.81,.36c1.53,1.41,3.57,5,2.96,9.06l-.12,.62,1.08,.47,.37-.38c.15-.16,.77-.47,1.34-.52,.04,0,.07,0,.11,0,.06,0,.12,0,.17,0,.03,0,.07,.01,.1,.02,.05,0,.11,.01,.16,.03,.41,.13,.64,.58,.7,1.35,.21,2.84-1.65,4.57-2.22,5.03-.39,.31-.64,.75-.72,1.25l-.55,3.81c-.21,1.47-.67,2.41-1.44,3.62-.93,1.45-2.33,2.95-4.05,4.33-1.7,1.36-3.28,2.26-3.74,2.46-1.7,.74-2.95,1.11-5.08,1.11s-3.38-.37-5.08-1.11c-.46-.2-2.05-1.1-3.76-2.48-1.74-1.4-3.1-2.85-4.03-4.31Zm4.1,6.25c1.43,1.04,2.65,1.72,3.09,1.91,1.84,.8,3.3,1.24,5.68,1.24s3.84-.43,5.68-1.24c.43-.19,1.63-.86,3.04-1.88l.88,5.98-9.63,8.79-9.63-8.79,.88-6.02Zm1.68,19.29c-1.15-.94-3.64-3.18-6.06-5.35-2.05-1.84-4-3.59-5.09-4.52,1.48-1.07,4.4-3.22,5.6-4.1l11.36,10.37c-1.55,.95-4.67,2.89-5.81,3.6Zm20.18-5.34c-2.41,2.17-4.9,4.4-6.04,5.34-1.21-.75-4.28-2.67-5.81-3.6l11.36-10.37c1.2,.89,4.12,3.04,5.6,4.1-1.09,.93-3.05,2.68-5.1,4.53Z"/><path class="cls-1" d="M96.22,71.08c-.41,0-.75,.34-.75,.75v11.11c0,.41,.34,.75,.75,.75s.75-.34,.75-.75v-11.11c0-.41-.34-.75-.75-.75Z"/><path class="cls-1" d="M39.63,70.03c-.41,0-.75,.34-.75,.75v19.43c0,.41,.34,.75,.75,.75s.75-.34,.75-.75v-19.43c0-.41-.34-.75-.75-.75Z"/></g></g></svg>