<?xml version="1.0" encoding="UTF-8"?><svg id="Layer_2" xmlns="http://www.w3.org/2000/svg" viewBox="0 0 68.49 84.59"><defs><style>.cls-1{fill:#fff;}</style></defs><g id="work"><g><path class="cls-1" d="M68.18,13.35h0c-.2-.18-.47-.26-.73-.23-.09,.01-8.96,1.25-18.16-2.32C40.3,7.31,35.23,.78,35.02,.51c-.22-.29-.52-.51-.72-.51-.2,0-.49,.2-.72,.5-.21,.28-5.35,6.88-14.37,10.38C10.22,14.37,1.42,13.21,1.05,13.16c-.27-.04-.53,.03-.73,.21-.2,.17-.31,.42-.31,.68v30.62c0,23.85,32.48,39.19,33.87,39.83,.12,.05,.25,.08,.38,.08s.26-.03,.38-.08c1.38-.64,33.87-15.97,33.87-39.83V14.05c0-.26-.12-.53-.31-.7Zm-1.49,1.72v29.61c0,20.67-26.73,35.14-32.09,37.83l-.36,.18-.36-.18C28.53,79.82,1.8,65.35,1.8,44.68V15.07l.85,.05c3.41,.21,10.19,.16,17.21-2.57,6.97-2.7,11.66-7,13.85-9.32l.59-.62,.58,.63c2.15,2.32,6.81,6.61,13.77,9.31,7.03,2.73,13.79,2.78,17.19,2.57l.85-.05Z"/><path class="cls-1" d="M57.25,21.43c-.64,.09-6.42,.8-12.48-1.55-6.34-2.46-9.79-6.95-9.82-7-.07-.1-.23-.24-.73-.24s-.65,.13-.72,.23c-.03,.04-3.46,4.47-9.81,6.93-6.08,2.36-11.81,1.67-12.44,1.59-.27-.04-.53,.04-.73,.21-.2,.17-.31,.42-.31,.68v21.44c0,16.87,22.69,27.67,23.66,28.12,.12,.06,.25,.08,.38,.08s.26-.03,.38-.08c.97-.45,23.66-11.25,23.66-28.12V22.29c0-.33-.17-.54-.31-.67-.19-.16-.45-.23-.72-.19Zm-.77,1.87v20.42c0,14.14-18.22,24.24-21.87,26.12l-.37,.19-.37-.19c-3.65-1.88-21.87-11.96-21.87-26.12V23.3l.83,.04c2.26,.1,6.77,0,11.51-1.84,4.64-1.8,7.82-4.65,9.3-6.18l.57-.6,.58,.59c1.49,1.54,4.68,4.39,9.32,6.19,4.72,1.83,9.25,1.94,11.53,1.84l.83-.04Z"/><path class="cls-1" d="M43.61,34.48c-.24,.01-.46,.11-.62,.29l-11.31,12.24-6.25-5.8c-.35-.32-.95-.3-1.27,.05-.16,.18-.25,.41-.24,.65,0,.24,.11,.46,.29,.63l6.91,6.41c.14,.13,.31,.21,.49,.23v.81h.25s.02-.81,.02-.81c.2-.03,.38-.13,.52-.28l11.93-12.9c.16-.18,.25-.41,.24-.65s-.11-.46-.29-.63c-.18-.17-.41-.25-.65-.24Z"/></g></g></svg>