<?xml version="1.0" encoding="UTF-8"?><svg id="Layer_2" xmlns="http://www.w3.org/2000/svg" viewBox="0 0 92.21 87"><defs><style>.cls-1{fill:#fff;}</style></defs><g id="work"><g><path class="cls-1" d="M91.99,26.37s0,0,0,0c-.3-.3-.79-.3-1.1,0l-1.82,1.81c-1.45-.93-3.36-.72-4.58,.49l-43.78,43.8c-.11,.11-.19,.25-.21,.41l-.94,5.02c-.05,.26,.03,.52,.22,.7,.15,.14,.34,.23,.55,.23h.15l5.02-.93c.16-.03,.3-.11,.41-.22l38.16-38.16,.24,.25c.44,.43,.69,1.02,.69,1.64,0,.62-.25,1.21-.69,1.64l-11.92,11.87c-1.24,1.23-1.99,2.87-2.08,4.62-.02,.43,.31,.8,.74,.82,.01,0,.03,0,.04,0,.41,0,.75-.32,.78-.73,.07-1.36,.65-2.64,1.6-3.6l11.88-11.88c1.48-1.51,1.48-3.94,0-5.45l-.24-.24,2.13-2.13,2.43-2.43c1.22-1.22,1.42-3.13,.49-4.58l1.81-1.82c.31-.3,.32-.79,.02-1.1Zm-47.06,50.01l-3.68,.69,.69-3.68,1.67-1.67,2.99,2.99-1.67,1.67Zm2.78-2.77l-2.98-2.99,35.2-35.2,2.99,2.99-35.2,35.2Zm36.33-36.34l-3.01-2.95,1.56-1.56,3.01,2.95-1.56,1.56Zm4.55-4.51l-1.88,1.88-2.99-2.99,1.88-1.88c.82-.83,2.16-.83,2.99,0,.83,.82,.83,2.16,0,2.99Z"/><path class="cls-1" d="M87.99,11.02L77.19,.23c-.3-.3-.79-.3-1.1,0L1.44,74.88c-.15,.15-.23,.35-.23,.55,0,.2,.08,.4,.23,.55l10.79,10.8c.15,.15,.35,.23,.55,.23,.21,0,.41-.08,.55-.23l16.04-16.01,8.51-8.57,17.03-17,8.51-8.52,17-17.03,7.52-7.52c.16-.14,.26-.34,.26-.55,0-.2-.08-.4-.23-.55Zm-8.08,6.96l-3-2.99c-.28-.33-.77-.36-1.1-.08-.33,.28-.36,.77-.08,1.1,.03,.03,.05,.06,.08,.08l2.99,3-7.41,7.41-2.99-3c-.31-.31-.8-.31-1.11,0s-.31,.8,0,1.11l3.01,2.99-7.41,7.41-3-2.99c-.3-.3-.79-.3-1.1,0-.3,.3-.3,.79,0,1.1l2.99,3-7.41,7.41-3-3c-.3-.31-.8-.31-1.1,0,0,0,0,0,0,0-.3,.3-.3,.79,0,1.1l3,3-7.41,7.43-3-3c-.3-.3-.79-.3-1.1,0-.31,.3-.31,.8,0,1.1,0,0,0,0,0,0l3,2.99-7.41,7.41-3-2.99c-.3-.3-.79-.3-1.1,0-.3,.3-.3,.79,0,1.1l2.99,3-7.41,7.41-3-3.01c-.3-.3-.79-.3-1.1,0-.31,.3-.31,.8,0,1.1,0,0,0,0,0,0l3,2.99-7.41,7.41-2.96-2.99c-.28-.33-.77-.36-1.1-.08-.33,.28-.36,.77-.08,1.1,.03,.03,.05,.06,.08,.08l2.99,3-6.42,6.42-9.73-9.69L76.65,1.88l9.69,9.69-6.42,6.42Z"/><path class="cls-1" d="M83.55,69.03c-.3-.3-.79-.3-1.1,0l-8.25,8.22c-1.59,1.59-4.16,1.59-5.75,0-1.59-1.59-1.59-4.16,0-5.75l8.93-8.93c1.06-.88,2.64-.73,3.52,.33,.77,.93,.77,2.27,0,3.19l-8.08,8.1c-.36,.33-.93,.3-1.25-.07-.3-.34-.3-.85,0-1.19l6.52-6.53c.34-.27,.4-.76,.13-1.09s-.76-.4-1.09-.13c-.05,.04-.09,.08-.13,.13l-6.53,6.53c-.95,.95-.95,2.5,0,3.45s2.5,.95,3.45,0l8.06-8.08c1.54-1.63,1.46-4.2-.17-5.74-1.56-1.48-4.01-1.47-5.57,0l-8.9,8.93c-2.17,2.22-2.13,5.78,.09,7.95,2.19,2.14,5.68,2.14,7.86,0l8.25-8.22c.3-.3,.3-.79,0-1.1Z"/><path class="cls-1" d="M55.66,2.87c-.2-.22-.51-.31-.8-.23l-8.22,2.84c-.11,.04-.2,.1-.28,.18L6.49,45.52l-5.05,5.04c-1.85,1.74-1.94,4.65-.2,6.5,1.74,1.85,4.65,1.94,6.5,.2,.07-.06,.13-.13,.2-.2L52.83,12.16c.08-.08,.14-.17,.18-.28l2.84-8.23c.09-.27,.01-.57-.19-.78Zm-8.78,4.46l1.56,1.6L9.73,47.66l-1.56-1.56L46.89,7.32ZM6.84,55.96c-1.2,1.14-3.09,1.14-4.29,0-.57-.57-.89-1.34-.89-2.15,0-.81,.32-1.58,.89-2.15l1.5-1.5,4.29,4.29-1.5,1.5Zm2.59-2.6l-4.29-4.29,1.9-1.9,4.29,4.29-1.9,1.9Zm3-3.01l-1.56-1.56L49.58,10.01l1.56,1.56L12.43,50.35ZM51.95,10.18l-3.63-3.63,5.55-1.92-1.92,5.55Z"/></g></g></svg>