<?xml version="1.0" encoding="UTF-8"?><svg id="Layer_2" xmlns="http://www.w3.org/2000/svg" viewBox="0 0 75.6 75.91"><defs><style>.cls-1{fill:#fff;}</style></defs><g id="work"><g><path class="cls-1" d="M44.89,15.39c-.23-.39-.73-.52-1.12-.29-.39,.23-.52,.73-.29,1.12,5.61,9.45,2.5,21.66-6.95,27.28-9.45,5.61-21.66,2.5-27.28-6.95-5.61-9.45-2.5-21.66,6.95-27.28,7.82-4.65,17.79-3.4,24.23,3.03,.32,.32,.84,.33,1.16,.01,0,0,0,0,.01-.01,.32-.32,.32-.84,0-1.16-8.36-8.37-21.92-8.38-30.29-.02-8.37,8.36-8.38,21.92-.02,30.29,8.36,8.37,21.92,8.38,30.29,.02,6.92-6.91,8.28-17.64,3.3-26.06Z"/><path class="cls-1" d="M17.74,49.75c-1.49-.55-2.92-1.24-4.28-2.07-.38-.24-.89-.13-1.13,.25-.24,.38-.13,.89,.25,1.13,0,0,.02,0,.02,.01,1.45,.88,2.98,1.62,4.58,2.21,.1,.04,.2,.06,.31,.06,.45,0,.81-.38,.8-.84,0-.34-.22-.64-.54-.76Z"/><path class="cls-1" d="M52.21,31.75c.84-3.98,.73-8.1-.3-12.04l-.49-1.64C46.82,4.25,31.89-3.24,18.07,1.35,4.25,5.94-3.24,20.87,1.35,34.69c1.65,4.96,4.73,9.32,8.87,12.53,.36,.28,.87,.21,1.15-.14,.28-.36,.21-.87-.14-1.15C.43,37.55-1.54,22.01,6.84,11.21,15.21,.42,30.75-1.55,41.55,6.82c10.8,8.37,12.76,23.91,4.39,34.71-4.69,6.04-11.9,9.58-19.55,9.58-1.59,0-3.18-.17-4.74-.48-.45-.09-.89,.21-.98,.67-.09,.45,.21,.89,.67,.98,1.66,.32,3.35,.48,5.05,.48,5.66,0,11.16-1.81,15.7-5.19l6.62,6.62-1.29,1.25c-.32,.32-.32,.84,0,1.16,0,0,0,0,0,0l17.46,17.46c2.45,2.45,6.43,2.45,8.88,0,2.45-2.45,2.45-6.43,0-8.88l-17.43-17.46c-.32-.32-.84-.32-1.16,0l-1.26,1.27-4.42-4.43c-.32-.32-.84-.32-1.16,0,0,0,0,0,0,0-.32,.32-.32,.84,0,1.16l4.43,4.43-2.87,2.87-6.5-6.49c4.07-3.43,7.01-8.01,8.43-13.14m17.53,40.87c-1.22,0-2.4-.49-3.26-1.35l-5.16-5.17,1.51-1.51c.32-.32,.32-.84,0-1.16,0,0,0,0,0,0-.32-.32-.84-.32-1.16,0l-1.53,1.52-2.4-2.4,3.28-3.28c.32-.32,.32-.84,0-1.17s-.84-.32-1.17,0l-3.28,3.28-7-7,5.3-5.3,1.26-1.26,16.89,16.88c.88,.87,1.38,2.05,1.38,3.29h0c0,2.57-2.09,4.64-4.66,4.64Z"/><path class="cls-1" d="M72.18,67.3c-.17-.42-.65-.62-1.07-.45s-.62,.65-.45,1.07c.76,1.87,.11,2.85,.07,2.91-.27,.35-.21,.86,.14,1.14,.14,.12,.32,.18,.51,.18,.25,0,.49-.12,.64-.31,.06-.07,1.33-1.71,.16-4.55Z"/><path class="cls-1" d="M22.23,10.91c-.1,0-9.32,.63-11.05,9.98-.08,.44,.21,.87,.66,.95h.15c.4,0,.75-.28,.82-.67,1.44-8.05,9.15-8.6,9.48-8.63,.45-.03,.8-.41,.77-.86-.03-.43-.39-.77-.82-.77Z"/></g></g></svg>