<?xml version="1.0" encoding="UTF-8"?><svg id="Layer_2" xmlns="http://www.w3.org/2000/svg" viewBox="0 0 91.92 86.48"><defs><style>.cls-1{fill:#fff;}</style></defs><g id="work"><g><path class="cls-1" d="M70.01,86.48c-8.3,0-16.02-4.82-19.67-12.28l-.13-.27H9.4c-5.17,0-9.39-4.22-9.4-9.4V9.4C0,4.22,4.22,0,9.4,0H28.27c2.63,0,5.16,1.12,6.94,3.06l5.73,6.27c.21,.23,.51,.36,.82,.36h15.79c5.18,0,9.39,4.22,9.4,9.4v.73h.92c5.18,0,9.39,4.22,9.4,9.4v14.7l.32,.12c9.21,3.39,15.07,12.6,14.25,22.38-.82,9.78-8.13,17.88-17.78,19.69-1.33,.25-2.7,.38-4.05,.38h0Zm0-41.84c-10.99,0-19.94,8.94-19.94,19.94s8.94,19.94,19.94,19.94,19.94-8.94,19.94-19.94c-.01-10.98-8.96-19.92-19.94-19.94h0ZM27.11,21.78c-4.09,0-7.43,3.34-7.43,7.43v35.32c0,2.49-.97,4.84-2.73,6.61l-.82,.82H49.38l-.2-.63c-2.41-7.45-.65-15.68,4.62-21.47,4.14-4.56,10.05-7.18,16.22-7.18,1.58,0,3.16,.17,4.71,.51l.59,.13v-14.1c0-4.09-3.34-7.43-7.43-7.43H27.11ZM9.4,1.97c-4.09,0-7.43,3.34-7.43,7.43v55.14c0,4.09,3.34,7.42,7.43,7.43h.89c4.09,0,7.43-3.34,7.43-7.43V29.21c0-5.17,4.22-9.39,9.4-9.4h37.88v-.73c0-4.09-3.34-7.43-7.43-7.43h-15.79c-.87,0-1.7-.37-2.28-1.01l-5.73-6.26c-1.41-1.54-3.4-2.42-5.49-2.42H9.4Z"/><path class="cls-1" d="M76,71.55c-.26,0-.51-.1-.69-.29l-5.3-5.3-5.3,5.3c-.19,.19-.43,.29-.69,.29s-.51-.1-.69-.29c-.38-.38-.38-1.01,0-1.39l5.3-5.3-5.3-5.3c-.19-.19-.29-.43-.29-.7s.1-.51,.29-.69c.19-.19,.43-.29,.7-.29s.51,.1,.69,.29l5.3,5.29,5.3-5.29c.19-.19,.43-.29,.69-.29s.51,.1,.69,.29c.19,.19,.29,.43,.29,.69s-.1,.51-.29,.7l-5.3,5.3,5.3,5.3c.38,.38,.38,1.01,0,1.39-.19,.19-.43,.29-.69,.29Z"/></g></g></svg>