<?xml version="1.0" encoding="UTF-8"?><svg id="Layer_2" xmlns="http://www.w3.org/2000/svg" viewBox="0 0 87.14 56.61"><defs><style>.cls-1{fill:#fff;}</style></defs><g id="work"><g><path class="cls-1" d="M77.16,56.61H9.98c-1.37,0-2.68-.26-3.88-.78-1.2-.51-2.27-1.23-3.18-2.14s-1.63-1.98-2.14-3.18c-.52-1.21-.78-2.51-.78-3.88V.78C0,.35,.35,0,.77,0H77.16c1.37,0,2.68,.26,3.88,.78,1.2,.51,2.27,1.23,3.18,2.14,.91,.91,1.63,1.98,2.14,3.18,.52,1.21,.78,2.51,.78,3.88V46.63c0,1.37-.26,2.68-.78,3.88-.51,1.2-1.24,2.27-2.14,3.18s-1.98,1.63-3.18,2.14c-1.2,.52-2.51,.78-3.88,.78ZM1.55,1.55V46.63c0,1.16,.22,2.26,.65,3.27,.44,1.02,1.05,1.92,1.82,2.69,.77,.77,1.67,1.38,2.69,1.81,1.01,.43,2.11,.65,3.27,.65H77.16c1.16,0,2.26-.22,3.27-.65,1.02-.44,1.92-1.05,2.69-1.82s1.38-1.67,1.82-2.69c.43-1.01,.65-2.11,.65-3.27V9.98c0-1.16-.22-2.26-.65-3.27-.44-1.02-1.05-1.92-1.82-2.69-.77-.77-1.68-1.38-2.69-1.81-1.01-.43-2.11-.65-3.27-.65H1.55Z"/><path class="cls-1" d="M32.33,42.78c1.38-.52,2.58-1.25,3.6-2.17,1.02-.92,1.84-2.04,2.46-3.34,.62-1.3,.99-2.74,1.12-4.29h-5.49c-.25,1.62-.95,2.9-2.08,3.84-1.13,.94-2.5,1.41-4.13,1.41-2.13,0-3.81-.88-5.03-2.65-1.22-1.77-1.84-4.19-1.84-7.28s.61-5.51,1.84-7.28c1.22-1.77,2.9-2.65,5.03-2.65,1.62,0,2.99,.5,4.1,1.5,1.11,1,1.81,2.35,2.1,4.03h5.44c-.1-1.59-.46-3.05-1.1-4.37-.64-1.32-1.47-2.46-2.5-3.44-1.03-.97-2.23-1.73-3.6-2.27-1.37-.54-2.85-.81-4.44-.81-1.94,0-3.69,.35-5.25,1.05-1.56,.7-2.89,1.71-3.98,3.03-1.1,1.32-1.93,2.93-2.5,4.82-.57,1.89-.86,4.02-.86,6.37s.29,4.48,.88,6.37c.59,1.89,1.42,3.5,2.5,4.82,1.08,1.32,2.4,2.33,3.96,3.03,1.56,.7,3.31,1.05,5.25,1.05,1.62,0,3.12-.26,4.51-.79Z"/><path class="cls-1" d="M64.85,42.78c1.4-.52,2.61-1.25,3.63-2.17,1.02-.92,1.84-2.04,2.48-3.34,.64-1.3,1-2.74,1.1-4.29h-5.49c-.25,1.62-.95,2.9-2.08,3.84-1.13,.94-2.5,1.41-4.13,1.41-2.16,0-3.86-.88-5.08-2.65-1.22-1.77-1.84-4.19-1.84-7.28s.61-5.51,1.84-7.28c1.22-1.77,2.9-2.65,5.03-2.65,1.62,0,3,.5,4.13,1.5,1.13,1,1.82,2.35,2.08,4.03h5.53c-.1-1.59-.46-3.05-1.1-4.37-.64-1.32-1.48-2.46-2.53-3.44-1.05-.97-2.27-1.73-3.65-2.27-1.38-.54-2.87-.81-4.46-.81-1.94,0-3.7,.35-5.27,1.05-1.57,.7-2.91,1.71-4.01,3.03-1.1,1.32-1.94,2.93-2.53,4.82-.59,1.89-.88,4.02-.88,6.37s.29,4.48,.88,6.37c.59,1.89,1.43,3.5,2.53,4.82,1.1,1.32,2.43,2.33,4.01,3.03,1.57,.7,3.33,1.05,5.27,1.05,1.62,0,3.13-.26,4.53-.79Z"/></g></g></svg>