<?xml version="1.0" encoding="UTF-8"?><svg id="Layer_2" xmlns="http://www.w3.org/2000/svg" viewBox="0 0 83.94 85"><defs><style>.cls-1{fill:#fff;}</style></defs><g id="work"><g><path class="cls-1" d="M45.58,3.64c-.39,0-.7,.32-.7,.7v2.01H19.01v-2.01c0-.39-.32-.7-.7-.7s-.7,.32-.7,.7v2.71c0,.39,.32,.7,.7,.7h27.27c.39,0,.7-.32,.7-.7v-2.71c0-.39-.32-.7-.7-.7Z"/><path class="cls-1" d="M34.68,50.88H15.11c-.39,0-.7,.32-.7,.7s.32,.7,.7,.7h19.57c.39,0,.7-.32,.7-.7s-.32-.7-.7-.7Z"/><path class="cls-1" d="M48.78,28.68H15.11c-.39,0-.7,.32-.7,.7s.32,.7,.7,.7H48.78c.39,0,.7-.32,.7-.7s-.32-.7-.7-.7Z"/><path class="cls-1" d="M48.78,36.08H15.11c-.39,0-.7,.32-.7,.7s.32,.7,.7,.7H48.78c.39,0,.7-.32,.7-.7s-.32-.7-.7-.7Z"/><path class="cls-1" d="M48.78,43.48H15.11c-.39,0-.7,.32-.7,.7s.32,.7,.7,.7H48.78c.39,0,.7-.32,.7-.7s-.32-.7-.7-.7Z"/><path class="cls-1" d="M32.95,63.46h0c-3.21-1.03-5.05-.33-7.05,.42-.69,.27-1.4,.51-2.11,.7h-.08c-.39,.14-.8,.2-1.21,.18-.13-.33-.15-.69-.06-1.04,.11-.37-.11-.76-.48-.87-.24-.07-.5,0-.68,.17-.23,.22-.54,.58-.87,.96l-.43,.49c-.15-1.1,.26-2.71,2.44-4.72,.26-.2,.39-.53,.32-.85-.07-.26-.28-.46-.55-.51-.94-.2-7.68,5.01-11.56,9.94-.24,.31-.19,.75,.12,.99,.13,.1,.28,.15,.44,.15,.21,0,.42-.1,.55-.27,2.14-2.63,4.57-5.01,7.24-7.1-.46,1.04-.53,2.22-.2,3.31,.1,.41,.43,.73,.84,.82,.39,.04,.77-.1,1.03-.39,.16-.15,.35-.36,.56-.6,.16,.41,.5,.74,.92,.88,.67,.12,1.35,.06,1.99-.16h.08c.76-.22,1.51-.49,2.25-.79,1.87-.7,3.35-1.28,6.07-.39,.37,.11,.76-.11,.87-.48,.1-.35-.09-.73-.43-.85Z"/><path class="cls-1" d="M83.74,19.77c-.28-.27-.72-.27-1,0l-.07,.06-1.41,1.41c-1.17-.71-2.67-.52-3.64,.44l-1.86,1.9-2.11,2.11-9.77,9.86V3.68c0-.39-.32-.7-.7-.7h-12.53V.7c0-.39-.32-.7-.7-.7H13.96c-.39,0-.7,.32-.7,.7V2.97H.7c-.39,0-.7,.32-.7,.7V84.3c0,.39,.32,.7,.7,.7H63.18c.39,0,.7-.32,.7-.7V43.99l13.49-13.6,.13,.12c.67,.68,.67,1.77,0,2.44l-9.27,9.35c-.99,.99-1.57,2.32-1.63,3.71,0,.38,.29,.69,.67,.7h.04c.39,0,.7-.32,.7-.7,.05-1.04,.49-2.02,1.22-2.76l9.29-9.36c1.22-1.23,1.22-3.21,0-4.43l-.13-.12,3.52-3.52c.56-.56,.87-1.32,.87-2.11,0-.54-.16-1.08-.44-1.54l1.41-1.41c.27-.28,.27-.72,0-1ZM50.63,4.38h11.84V36.97l-3.78,3.81V7.12c0-.39-.32-.7-.7-.7h-7.36v-2.04ZM14.66,1.41H49.22V10H14.66V1.41Zm-.7,10H49.93c.39,0,.7-.32,.7-.7v-2.87h6.66V42.2l-13.87,13.99c-.1,.1-.17,.23-.2,.37l-.7,3.95c-.04,.23,.03,.46,.2,.63,.13,.13,.31,.2,.49,.2h.13l3.94-.75c.14-.03,.27-.09,.37-.2l9.65-9.72v14.02h-11.72c-.39,0-.7,.32-.7,.7v11.71H6.6V7.83h6.65v2.87c0,.39,.32,.7,.7,.7Zm31.8,44.38l2.25,2.21-1.22,1.23-2.74,.51,.49-2.72,1.22-1.23Zm10.53,10.3l-10,10.01v-10.01h10ZM1.41,83.59V4.38H13.25v2.04H5.9c-.39,0-.7,.32-.7,.7V77.8c0,.39,.32,.7,.7,.7H45.58c.09,0,.18-.02,.27-.06,.09-.04,.16-.09,.23-.15l12.41-12.41c.05-.06,.1-.12,.13-.2v-.06c.01-.06,.01-.13,0-.19,0-.01,0-.03,0-.04v-16.17l3.78-3.8,.08,38.17H1.41ZM62.69,43.2l-5.19,5.22-8.52,8.57-2.23-2.21,16.91-17.03,10.48-10.57,2.23,2.21-13.68,13.81Zm14.68-14.8l-2.22-2.21,1.11-1.11,2.22,2.2-1.11,1.13Zm3.5-3.53s0,0-.01,.01h0s-1.41,1.4-1.41,1.4l-2.22-2.21,1.41-1.41c.61-.61,1.6-.61,2.21,0t0,0c.61,.61,.62,1.59,.01,2.2Z"/></g></g></svg>