<?xml version="1.0" encoding="UTF-8"?><svg id="Layer_2" xmlns="http://www.w3.org/2000/svg" viewBox="0 0 51.22 90"><defs><style>.cls-1{fill:#fff;}</style></defs><g id="work"><g><path class="cls-1" d="M41.22,38.67c.41,0,.74-.33,.74-.74v-7.16c0-.41-.33-.74-.74-.74s-.74,.33-.74,.74v6.42h-6.42c-.41,0-.74,.33-.74,.74s.33,.74,.74,.74h7.16Z"/><path class="cls-1" d="M1.8,37.19v-6.42c0-.41-.33-.74-.74-.74s-.74,.33-.74,.74v7.16c0,.41,.33,.74,.74,.74h7.16c.41,0,.74-.33,.74-.74s-.33-.74-.74-.74H1.8Z"/><path class="cls-1" d="M8.96,.74c0-.41-.33-.74-.74-.74H1.06C.65,0,.32,.33,.32,.74V7.91c0,.41,.33,.74,.74,.74s.74-.33,.74-.74V1.48h6.42c.41,0,.74-.33,.74-.74Z"/><path class="cls-1" d="M41.22,0h-7.16c-.41,0-.74,.33-.74,.74s.33,.74,.74,.74h6.42V7.91c0,.41,.33,.74,.74,.74s.74-.33,.74-.74V.74c0-.41-.33-.74-.74-.74Z"/><path class="cls-1" d="M29.11,28.42c-.28,.3-.27,.77,.03,1.05,.25,.24,.63,.27,.92,.08,2.93-2.5,4.61-6.15,4.61-10,0-.41-.33-.74-.74-.74s-.74,.33-.74,.74c0,3.41-1.48,6.65-4.07,8.87Z"/><path class="cls-1" d="M21.53,6.43c-7.25,0-13.13,5.87-13.16,13.12,0,.41,.33,.74,.74,.74s.74-.33,.74-.74c-.01-6.45,5.21-11.68,11.66-11.69,4.15,0,7.98,2.19,10.08,5.76,.17,.37,.61,.54,.98,.37,.37-.17,.54-.61,.37-.98-.02-.05-.05-.09-.08-.13-2.38-4-6.69-6.44-11.34-6.45Z"/><path class="cls-1" d="M9.29,21.68c-.4,.09-.65,.49-.56,.89,0,0,0,0,0,0,.57,2.38,1.79,4.56,3.52,6.28,.29,.29,.76,.29,1.05,0,.29-.29,.29-.76,0-1.05-1.53-1.53-2.61-3.46-3.11-5.57-.09-.4-.49-.65-.89-.56,0,0-.01,0-.02,0h0Z"/><path class="cls-1" d="M28.9,23.66c.09,.04,.19,.07,.3,.07,.29,0,.56-.17,.68-.44,2.06-4.61-.01-10.01-4.62-12.07-4.61-2.06-10.01,.01-12.07,4.62-.53,1.18-.8,2.45-.79,3.74,0,.41,.33,.74,.74,.74s.74-.33,.74-.74c0-4.23,3.43-7.65,7.65-7.66,4.23,0,7.65,3.43,7.66,7.65h0c0,1.08-.22,2.15-.67,3.13-.15,.37,.02,.78,.38,.95Z"/><path class="cls-1" d="M46.33,46.56c-1.23,0-2.41,.46-3.31,1.3-.44-2.3-2.46-3.96-4.8-3.96-1.41,0-2.75,.58-3.71,1.61-.72-2.59-3.39-4.1-5.98-3.38-.56,.16-1.09,.41-1.56,.75V20c0-3.04-2.46-5.51-5.5-5.51-1.47,0-2.88,.59-3.91,1.63-1.04,1.04-1.61,2.44-1.59,3.91l.18,37.78-6.18-12.02c-1.47-2.55-4.74-3.43-7.29-1.96-2.16,1.24-3.17,3.81-2.44,6.19l5.84,19.25c1.97,8.16,8.66,13.72,10.21,14.92v5.08c0,.41,.33,.74,.74,.74s.74-.33,.74-.74v-5.44c0-.24-.12-.46-.31-.6-.07-.06-7.88-5.8-9.95-14.34L1.65,49.59c-.63-2.04,.52-4.2,2.56-4.83,1.7-.52,3.55,.19,4.46,1.72l7.6,14.75c.16,.3,.5,.46,.84,.38,.34-.08,.57-.39,.56-.74l-.22-40.85c0-2.22,1.79-4.03,4.01-4.04,0,0,0,0,0,0,2.22,0,4.02,1.8,4.03,4.02v30.45c0,.41,.33,.74,.74,.74s.74-.33,.74-.74v-5.44c1.02-1.57,3.13-2.02,4.7-1,.97,.63,1.55,1.71,1.55,2.86v5.72c0,.41,.33,.74,.74,.74s.74-.33,.74-.74v-3.8c.05-1.9,1.61-3.41,3.51-3.4,1.88,0,3.41,1.52,3.41,3.4v5.93c0,.41,.33,.74,.74,.74s.74-.33,.74-.74v-4.38c.46-1.38,1.76-2.31,3.21-2.3,1.88,0,3.4,1.53,3.4,3.4v23.14c0,2.17-3.13,7.65-4.33,9.58-.07,.12-.11,.25-.11,.39v4.7c0,.41,.33,.74,.74,.74s.74-.33,.74-.74v-4.45c.8-1.31,4.45-7.37,4.45-10.18v-23.18c0-2.7-2.19-4.89-4.9-4.89h0Z"/></g></g></svg>