<?xml version="1.0" encoding="UTF-8"?><svg id="Layer_2" xmlns="http://www.w3.org/2000/svg" viewBox="0 0 72.82 87.26"><defs><style>.cls-1{fill:#fff;}</style></defs><g id="work"><g><path class="cls-1" d="M15.96,87.26c-2.15,0-3.91-1.76-3.91-3.91v-20.59c0-.54,.44-.97,.97-.97s.97,.44,.97,.97v20.59c0,1.09,.89,1.97,1.97,1.97h52.95c1.09,0,1.97-.89,1.97-1.97V6.85c0-1.09-.88-1.97-1.97-1.97h-4.91v4.07l.33,.12c1.8,.64,2.88,2.47,2.55,4.35-.32,1.88-1.94,3.25-3.86,3.25s-3.53-1.37-3.86-3.25c-.32-1.88,.75-3.71,2.55-4.35l.33-.12V4.88h-18.65v4.07l.33,.12c1.8,.64,2.88,2.47,2.55,4.35-.32,1.88-1.94,3.25-3.86,3.25s-3.53-1.37-3.86-3.25c-.32-1.88,.75-3.71,2.55-4.35l.33-.12V4.88H22.81v4.07l.33,.12c1.8,.64,2.88,2.47,2.55,4.35-.32,1.88-1.95,3.25-3.86,3.25s-3.53-1.37-3.86-3.25c-.32-1.88,.75-3.71,2.55-4.35l.33-.12V4.88h-4.91c-1.09,0-1.97,.89-1.97,1.97v27.95c0,.54-.44,.97-.97,.97s-.97-.44-.97-.97V6.85c0-2.15,1.76-3.91,3.91-3.91h4.91V.97c0-.54,.44-.97,.97-.97s.97,.44,.97,.97v1.97h18.65V.97c0-.54,.44-.97,.97-.97s.97,.44,.97,.97v1.97h18.65V.97c0-.54,.44-.97,.97-.97s.97,.44,.97,.97v1.97h4.91c2.15,0,3.91,1.76,3.91,3.91V83.34c0,2.15-1.76,3.91-3.91,3.91H15.96ZM63.03,10.77c-1.09,0-1.97,.88-1.97,1.97s.88,1.97,1.97,1.97c1.09,0,1.97-.89,1.97-1.97,0-1.09-.88-1.97-1.97-1.97Zm-20.59,0c-1.09,0-1.97,.88-1.97,1.97s.88,1.97,1.97,1.97c1.09,0,1.97-.89,1.97-1.97,0-1.09-.88-1.97-1.97-1.97Zm-20.59,0c-1.09,0-1.97,.88-1.97,1.97s.88,1.97,1.97,1.97c1.09,0,1.97-.89,1.97-1.97,0-1.09-.88-1.97-1.97-1.97Z"/><path class="cls-1" d="M21.84,29.89c-.26,0-.5-.1-.68-.28l-2.94-2.94c-.37-.38-.37-.99,0-1.36,.18-.18,.43-.28,.69-.28s.5,.1,.68,.28l2.15,2.15,3.74-4.99c.18-.24,.47-.39,.78-.39,.04,0,.08,0,.12,0,.34,.04,.64,.26,.78,.58,.14,.32,.09,.69-.12,.96l-4.41,5.88c-.17,.23-.43,.37-.71,.39h-.07Z"/><path class="cls-1" d="M21.84,46.07c-.26,0-.5-.1-.69-.28l-2.94-2.94c-.37-.38-.37-.99,0-1.36,.18-.18,.43-.28,.69-.28s.5,.1,.68,.28l2.15,2.15,3.74-4.99c.19-.25,.47-.39,.78-.39,.21,0,.41,.07,.58,.19,.43,.32,.51,.93,.19,1.36l-4.41,5.88c-.17,.23-.43,.37-.71,.39h-.07Z"/><path class="cls-1" d="M32.14,28.42c-.54,0-.97-.44-.97-.97s.44-.97,.97-.97h33.83c.54,0,.97,.44,.97,.97s-.44,.97-.97,.97H32.14Z"/><path class="cls-1" d="M32.14,44.6c-.54,0-.97-.44-.97-.97s.44-.97,.97-.97h33.83c.54,0,.97,.44,.97,.97s-.44,.97-.97,.97H32.14Z"/><path class="cls-1" d="M32.14,60.78c-.54,0-.97-.44-.97-.97s.44-.97,.97-.97h33.83c.54,0,.97,.44,.97,.97s-.44,.97-.97,.97H32.14Z"/><path class="cls-1" d="M32.14,76.96c-.54,0-.97-.44-.97-.97s.44-.97,.97-.97h33.83c.54,0,.97,.44,.97,.97s-.44,.97-.97,.97H32.14Z"/><path class="cls-1" d="M23.32,60.79c-.26,0-.51-.11-.69-.29l-1.21-1.21h-.19c-2.88-.17-5.54-1.42-7.5-3.53L1.1,42.08c-1.5-1.62-1.45-4.11,.11-5.66,.2-.2,.41-.37,.64-.52,.69-.44,1.48-.68,2.3-.68,0,0,.2,.03,.25,.03,1.04,.07,2,.53,2.7,1.29l12.78,13.84c1.86,2.01,2.89,4.62,2.92,7.35v.2s1.19,1.19,1.19,1.19c.25,.25,.35,.61,.26,.94-.09,.33-.35,.6-.69,.69-.08,.02-.16,.03-.25,.03h0ZM5.36,43.83l9.79,10.61c1.33,1.44,3.13,2.43,5.05,2.78l.68,.12-.09-.68c-.25-1.87-1.05-3.59-2.34-4.97l-10.06-10.9-3.04,3.04Zm-1.26-6.68c-.85,0-1.62,.51-1.97,1.29s-.19,1.69,.39,2.32l1.52,1.65,3.04-3.04-1.4-1.52c-.39-.43-.95-.68-1.54-.69h-.04Z"/></g></g></svg>