<?xml version="1.0" encoding="UTF-8"?><svg id="Layer_2" xmlns="http://www.w3.org/2000/svg" viewBox="0 0 85.01 82"><defs><style>.cls-1{fill:#fff;}</style></defs><g id="work"><g><path class="cls-1" d="M78.05,63.88c-.01-10-8.12-18.11-18.12-18.12-2.3,0-4.57,.43-6.7,1.29-5.34-12.89-20.13-19.01-33.02-13.67C7.32,38.72,1.2,53.51,6.54,66.4c5.34,12.89,20.13,19.01,33.02,13.67,2.48-1.03,4.78-2.44,6.81-4.19,6.63,7.5,18.08,8.2,25.58,1.57,3.88-3.44,6.11-8.37,6.11-13.56h-.01Zm-48.16,16.63c-13.13,0-23.76-10.66-23.75-23.78,0-13.13,10.66-23.76,23.78-23.75,13.12,0,23.75,10.65,23.75,23.77-.03,13.12-10.66,23.74-23.78,23.77Zm30.04,0c-4.78,0-9.32-2.05-12.47-5.64,7.08-6.82,9.53-17.15,6.28-26.42,8.52-3.42,18.21,.71,21.63,9.23,3.42,8.52-.71,18.21-9.23,21.63-1.98,.79-4.08,1.2-6.21,1.2h0Z"/><path class="cls-1" d="M.22,6.61c.14,.14,.33,.22,.53,.22,.2,0,.39-.08,.53-.22L6.61,1.27c.29-.29,.29-.76,0-1.05-.29-.29-.76-.29-1.05,0,0,0,0,0,0,0L.22,5.56c-.29,.29-.29,.76,0,1.05Z"/><path class="cls-1" d="M.22,16.07c.14,.14,.33,.22,.53,.22,.2,0,.39-.08,.53-.22L16.08,1.27c.29-.29,.29-.76,0-1.05-.29-.29-.76-.29-1.05,0,0,0,0,0,0,0L.22,15.02c-.29,.29-.29,.76,0,1.05Z"/><path class="cls-1" d="M.22,25.54c.14,.14,.33,.22,.53,.22,.2,0,.39-.08,.53-.22L25.54,1.27c.29-.29,.29-.76,0-1.05-.29-.29-.76-.29-1.05,0,0,0,0,0,0,0L.22,24.49c-.29,.29-.29,.76,0,1.05Z"/><path class="cls-1" d="M35,.22c-.29-.29-.76-.29-1.05,0,0,0,0,0,0,0L.22,33.95c-.29,.29-.28,.77,.01,1.05,.14,.14,.32,.21,.52,.21,.2,0,.39-.08,.53-.22L35,1.27c.29-.29,.29-.76,0-1.05Z"/><path class="cls-1" d="M18.61,26.11c.14,.14,.33,.22,.53,.22,.2,0,.39-.08,.53-.22L44.47,1.27c.29-.29,.29-.76,0-1.05-.29-.29-.76-.29-1.05,0,0,0,0,0,0,0L18.61,25.02c-.3,.28-.32,.75-.03,1.05,.01,.01,.02,.02,.03,.03h0Z"/><path class="cls-1" d="M53.93,.22c-.29-.29-.76-.29-1.05,0,0,0,0,0,0,0L29.85,23.23c-.29,.29-.29,.76,0,1.05,.29,.29,.76,.29,1.05,0L53.91,1.27c.29-.29,.3-.76,.01-1.05Z"/><path class="cls-1" d="M38.68,25.68c.2,0,.38-.08,.52-.22L63.39,1.27c.29-.29,.29-.76,0-1.05-.29-.29-.76-.29-1.05,0,0,0,0,0,0,0l-24.18,24.18c-.29,.29-.29,.76,0,1.05,0,0,0,0,0,0,.14,.14,.33,.22,.53,.22h0Z"/><path class="cls-1" d="M45.44,28.38c.2,0,.38-.08,.52-.22L72.86,1.27c.29-.29,.29-.76,0-1.05-.29-.29-.76-.29-1.05,0,0,0,0,0,0,0l-26.89,26.89c-.29,.29-.29,.76,0,1.05,0,0,0,0,0,0,.14,.14,.33,.22,.53,.22h0Z"/><path class="cls-1" d="M82.32,.22c-.29-.29-.76-.29-1.05,0,0,0,0,0,0,0l-30.71,30.71c-.29,.29-.29,.76,0,1.05s.76,.29,1.05,0L82.32,1.27c.29-.29,.29-.76,0-1.05Z"/><path class="cls-1" d="M83.74,7.2l-28.52,28.52c-.29,.29-.28,.77,.01,1.05,.14,.13,.32,.21,.51,.21,.2,0,.39-.08,.53-.22l28.52-28.54c.29-.29,.29-.76,0-1.05-.29-.29-.77-.28-1.05,.01,0,0,0,0,0,0h0Z"/><path class="cls-1" d="M83.74,16.67l-22.62,22.63c-.29,.29-.29,.76,0,1.05,.14,.14,.33,.22,.52,.22,.2,0,.39-.08,.53-.22l22.63-22.63c.29-.29,.29-.76,0-1.05-.29-.29-.76-.29-1.05,0,0,0,0,0,0,0Z"/><path class="cls-1" d="M83.74,26.11l-15.17,15.19c-.29,.29-.29,.76,0,1.05s.76,.29,1.05,0h0l15.17-15.17c.29-.29,.29-.76,0-1.05-.28-.3-.75-.31-1.05-.03,0,0,0,0,0,0h0Z"/><path class="cls-1" d="M83.74,35.59l-9.38,9.38c-.29,.29-.29,.76,0,1.05s.76,.29,1.05,0l9.38-9.38c.29-.29,.29-.76,0-1.05-.29-.29-.76-.29-1.05,0,0,0,0,0,0,0h0Z"/><path class="cls-1" d="M83.74,45.06l-4.92,4.92c-.29,.29-.29,.76,0,1.05,0,0,0,0,0,0,.14,.14,.33,.22,.53,.22,.2,0,.39-.08,.53-.22l4.92-4.93c.29-.29,.29-.76,0-1.05-.29-.29-.76-.29-1.05,0,0,0,0,0,0,0h0Z"/></g></g></svg>