<?xml version="1.0" encoding="UTF-8"?><svg id="Layer_2" xmlns="http://www.w3.org/2000/svg" viewBox="0 0 82 100"><defs><style>.cls-1{fill:#fff;}</style></defs><g id="work"><g><path class="cls-1" d="M40.86,78.22c-6.4,0-11.61-5.21-11.61-11.61s5.21-11.61,11.61-11.61,11.61,5.21,11.61,11.61-5.21,11.61-11.61,11.61Zm0-22c-5.73,0-10.38,4.66-10.38,10.38s4.66,10.38,10.38,10.38,10.39-4.66,10.39-10.38-4.66-10.38-10.39-10.38Z"/><polygon class="cls-1" points="13.71 26.47 13.71 23.38 10.63 23.38 10.63 22.16 13.71 22.16 13.71 19.07 14.94 19.07 14.94 22.16 18.02 22.16 18.02 23.38 14.94 23.38 14.94 26.47 13.71 26.47"/><polygon class="cls-1" points="32.01 11.2 32.01 8.12 28.92 8.12 28.92 6.89 32.01 6.89 32.01 3.81 33.23 3.81 33.23 6.89 36.32 6.89 36.32 8.12 33.23 8.12 33.23 11.2 32.01 11.2"/><polygon class="cls-1" points="51.25 21.4 51.25 18.32 48.17 18.32 48.17 17.09 51.25 17.09 51.25 14.01 52.48 14.01 52.48 17.09 55.56 17.09 55.56 18.32 52.48 18.32 52.48 21.4 51.25 21.4"/><polygon class="cls-1" points="4.71 60.97 4.71 53.63 11.95 53.63 11.95 54.86 5.94 54.86 5.94 60.97 4.71 60.97"/><polygon class="cls-1" points="4.71 79.81 4.71 72.56 5.94 72.56 5.94 78.58 11.95 78.58 11.95 79.81 4.71 79.81"/><polygon class="cls-1" points="69.77 79.81 69.77 78.58 75.79 78.58 75.79 72.47 77.02 72.47 77.02 79.81 69.77 79.81"/><polygon class="cls-1" points="75.79 60.97 75.79 54.86 69.77 54.86 69.77 53.63 77.02 53.63 77.02 60.97 75.79 60.97"/><rect class="cls-1" x="23.76" y="65.97" width="1.49" height="1.49"/><rect class="cls-1" x="18.58" y="65.97" width="1.49" height="1.49"/><rect class="cls-1" x="13.4" y="65.97" width="1.49" height="1.49"/><rect class="cls-1" x="66.83" y="65.97" width="1.49" height="1.49"/><rect class="cls-1" x="61.65" y="65.97" width="1.49" height="1.49"/><rect class="cls-1" x="56.47" y="65.97" width="1.49" height="1.49"/><path class="cls-1" d="M40.25,74.31v-.91l-.31-.09c-.47-.14-.92-.39-1.29-.72-.66-.58-1.09-1.39-1.19-2.26h1.24c.1,.51,.36,.98,.76,1.34,.41,.36,.93,.56,1.45,.56,.09,0,.18,0,.28-.02,.14-.02,.29-.05,.43-.09,1.04-.31,1.71-1.28,1.68-2.41-.03-.98-.48-1.76-2.62-2.38-1.66-.49-3.3-1.14-3.48-3.21-.17-1.86,.98-3.54,2.72-3.98l.32-.08v-.89h1.23v.91l.31,.09c.49,.15,.93,.39,1.3,.72,.69,.61,1.11,1.46,1.19,2.37h-1.24c-.07-.56-.35-1.07-.77-1.45-.41-.37-.92-.56-1.45-.56-.09,0-.18,0-.27,.02l-.19,.03c-1.21,.23-2.05,1.4-1.93,2.72,.09,.96,.5,1.53,2.6,2.14,1.6,.47,3.44,1.29,3.5,3.53,.05,1.67-1.01,3.17-2.56,3.63l-.5,.13v.89h-1.23Z"/><rect class="cls-1" x=".01" y="88.45" width="81.7" height="1.23"/><rect class="cls-1" x=".01" y="93.61" width="81.7" height="1.23"/><rect class="cls-1" x=".01" y="98.77" width="81.7" height="1.23"/><path class="cls-1" d="M0,84.52V48.92H4.71v-11.51h-.44c-1.76,.05-3.32,.08-4.25,.09v-1.23c2.62-.02,10.17-.21,13.21-.41,2.68-.18,5.34-.41,7.93-.68,2.67-.27,5.34-.6,7.93-.97,2.64-.38,5.31-.81,7.92-1.3,2.72-.51,5.38-1.08,7.92-1.7,2.76-.67,5.42-1.41,7.91-2.2,2.79-.88,5.44-1.85,7.9-2.88,2.86-1.2,5.51-2.51,7.87-3.9,2.86-1.67,5.38-3.52,7.51-5.48l.14-.13V2.36l-3.65,3.65-.87-.87,5.14-5.14,5.14,5.14-.87,.87-3.65-3.65V48.92h4.25v35.59H0Zm1.23-1.23H80.49V50.15H1.23v33.14ZM75.54,18.9c-1.71,1.43-3.67,2.8-5.8,4.09l-.21,.13v25.81h6.72V18.31l-.71,.59Zm-7.88,5.28c-1.8,.98-3.76,1.93-5.82,2.82l-.26,.11v21.81h6.72V23.84l-.64,.35Zm-7.9,3.67c-1.85,.74-3.81,1.44-5.83,2.09l-.3,.1v18.88h6.72V27.62l-.59,.23Zm-7.91,2.74c-1.9,.57-3.87,1.11-5.84,1.6l-.33,.08v16.63h6.72V30.44l-.56,.17Zm-7.92,2.11c-1.88,.44-3.84,.86-5.84,1.24l-.35,.07v14.9h6.72v-16.33l-.53,.12Zm-7.93,1.63c-1.91,.34-3.88,.67-5.85,.96l-.37,.05v13.57h6.72v-14.67l-.51,.09Zm-7.93,1.25c-1.87,.26-3.84,.49-5.84,.71l-.39,.04v12.58h6.72v-13.4l-.49,.07Zm-7.93,.93c-1.92,.19-3.89,.36-5.84,.5l-.4,.03v11.88h6.72v-12.45l-.47,.05Zm-7.93,.63c-1.6,.08-3.75,.16-5.85,.22h-.42v11.55h6.72v-11.79l-.45,.02Z"/></g></g></svg>