<?xml version="1.0" encoding="UTF-8"?><svg id="Layer_2" xmlns="http://www.w3.org/2000/svg" viewBox="0 0 84.12 84.4"><defs><style>.cls-1{fill:#fff;}</style></defs><g id="work"><g><path class="cls-1" d="M41.91,84.4c-18.05,0-34.11-11.47-39.94-28.55-.13-.39,.08-.82,.47-.95,.08-.03,.16-.04,.24-.04,.32,0,.61,.2,.71,.51,5.63,16.47,21.11,27.53,38.52,27.53,22.44,0,40.7-18.26,40.7-40.7S64.36,1.5,41.91,1.5c-10.87,0-21.09,4.23-28.78,11.92-.14,.14-.33,.22-.53,.22s-.39-.08-.53-.22c-.29-.29-.29-.77,0-1.06C20.05,4.39,30.64,0,41.91,0c23.27,0,42.2,18.93,42.2,42.2s-18.93,42.2-42.2,42.2Z"/><polygon class="cls-1" points="0 57.83 2.1 53.72 6.21 55.82 6.88 57.89 2.77 55.79 .67 59.9 0 57.83"/><path class="cls-1" d="M34.67,70.49c-.1,0-.19-.03-.27-.08-.15-.1-.25-.26-.25-.44v-5.98h-8.34c-2.09,0-3.79-1.73-3.79-3.85V23.52c0-2.1,1.66-3.74,3.79-3.74H58.92c2.1,0,3.82,1.68,3.82,3.74v5.74c0,.29-.23,.52-.52,.52h-6.04v24.1h6.04c.29,0,.52,.23,.52,.52v5.74c0,2.11-1.71,3.82-3.82,3.82l-14.98,.03v5.98c0,.18-.09,.35-.25,.44-.08,.05-.18,.08-.27,.08-.08,0-.16-.02-.23-.06l-4.14-2.07-4.14,2.07c-.07,.04-.15,.06-.23,.06Zm4.37-3.22c.08,0,.16,.02,.23,.06l3.62,1.81v-10.63l-.44,.24c-1.03,.56-2.2,.86-3.37,.86s-2.39-.31-3.44-.9l-.45-.25v10.67l3.62-1.81c.07-.04,.15-.06,.23-.06ZM25.81,20.82c-1.54,0-2.75,1.19-2.75,2.7V60.14c0,1.55,1.23,2.81,2.75,2.81h8.34v-5.35l-.09-.09c-1.31-1.32-2.06-3.14-2.06-4.99,0-3.9,3.17-7.08,7.08-7.08s7.08,3.17,7.08,7.08c0,1.89-.78,3.73-2.13,5.06l-.09,.09v5.28l12.34-.02-.36-.48c-.51-.67-.77-1.47-.77-2.31V23.58c0-.83,.26-1.61,.76-2.27l.36-.48H25.81Zm30.36,39.32c0,1.53,1.23,2.77,2.74,2.78,1.51,0,2.78-1.28,2.78-2.78v-5.22h-5.52v5.22Zm-17.09-13.65c-3.33,0-6.04,2.71-6.04,6.04,0,1.7,.73,3.33,1.99,4.48,1.11,1.01,2.55,1.56,4.05,1.56,1.4,0,2.77-.5,3.85-1.39,.1-.13,.16-.18,.24-.22,1.26-1.18,1.95-2.78,1.95-4.42,0-3.33-2.71-6.04-6.04-6.04Zm19.83-25.66c-1.51,0-2.74,1.24-2.74,2.75v5.17h5.52v-5.22c0-1.49-1.24-2.7-2.77-2.7h0Z"/><path class="cls-1" d="M39.08,56.35c-2.09,0-3.8-1.7-3.8-3.8s1.7-3.8,3.8-3.8,3.8,1.7,3.8,3.8-1.7,3.8-3.8,3.8Zm0-6.56c-1.52,0-2.76,1.24-2.76,2.76s1.24,2.76,2.76,2.76,2.76-1.24,2.76-2.76-1.24-2.76-2.76-2.76Z"/><path class="cls-1" d="M28.17,40.52c-.29,0-.52,.23-.52,.52s.23,.52,.52,.52h21.86c.29,0,.52-.23,.52-.52s-.23-.52-.52-.52H28.17Z"/><path class="cls-1" d="M31.45,43.8c-.29,0-.52,.23-.52,.52s.23,.52,.52,.52h15.3c.29,0,.52-.23,.52-.52s-.23-.52-.52-.52h-15.3Z"/><path class="cls-1" d="M46.75,37.24c-.29,0-.52,.23-.52,.52s.23,.52,.52,.52h3.28c.29,0,.52-.23,.52-.52s-.23-.52-.52-.52h-3.28Z"/><path class="cls-1" d="M28.17,37.24c-.29,0-.52,.23-.52,.52s.23,.52,.52,.52h15.3c.29,0,.52-.23,.52-.52s-.23-.52-.52-.52h-15.3Z"/><path class="cls-1" d="M39.08,30.98l.24,.3,1.9,2.45c.1,.13,.25,.2,.41,.2s.31-.08,.41-.2l1.9-2.45,.24-.3,.24,.3,1.9,2.45c.1,.13,.25,.2,.41,.2,.12,0,.23-.04,.32-.11,.23-.18,.27-.5,.09-.73l-2.55-3.28c-.1-.12-.25-.2-.41-.2s-.31,.07-.41,.2l-1.9,2.45-.24,.3-.24-.3-1.9-2.45c-.1-.12-.25-.2-.41-.2s-.31,.08-.41,.2l-1.9,2.45-.24,.3-.24-.3-1.9-2.45c-.1-.13-.25-.2-.41-.2s-.31,.07-.41,.2l-2.55,3.28c-.18,.23-.14,.55,.09,.73,.09,.07,.2,.11,.32,.11,.16,0,.31-.07,.41-.2l1.9-2.45,.24-.3,.24,.3,1.9,2.45c.1,.13,.25,.2,.41,.2s.31-.08,.41-.2l1.9-2.45,.24-.3Z"/></g></g></svg>