<?xml version="1.0" encoding="UTF-8"?><svg id="Layer_2" xmlns="http://www.w3.org/2000/svg" viewBox="0 0 70.93 84.81"><defs><style>.cls-1{fill:#fff;}</style></defs><g id="work"><g><path class="cls-1" d="M16.94,53.12c-2.52-3.52-3.92-7.67-4.03-11.99-.15-5.75,1.96-11.23,5.94-15.43,3.98-4.2,9.34-6.59,15.1-6.74,3.23-.09,6.35,.53,9.31,1.85,.32,.14,.7,.04,.91-.24,.65-.88,1.29-1.75,1.92-2.6,3.01-3.81,6.07-7.76,9.02-11.57,1.34-1.73,2.67-3.46,4.02-5.18,.18-.23,.21-.53,.08-.79-.13-.26-.39-.42-.67-.42h-11.88c-.23,0-.44,.1-.59,.28l-4,5.04c-.35,.43-.7,.88-1.03,1.37-2.44-.47-4.94-.68-7.43-.61C14.59,6.57-.48,22.45,.01,41.47c.23,8.87,3.83,17.21,10.15,23.5,.14,.14,.33,.22,.53,.22,.04,0,.08,0,.12,0,.24-.04,.44-.18,.55-.4l5.63-10.88c.13-.25,.11-.55-.06-.78Zm-6.43,10.05C4.91,57.25,1.72,49.56,1.51,41.43,1.04,23.24,15.45,8.05,33.65,7.57c.29,0,.57-.01,.86-.01,2.26,0,4.52,.23,6.74,.69,.31,.07,.63-.08,.8-.35,.34-.58,.76-1.1,1.2-1.65l3.78-4.75h9.99c-1.03,1.32-2.05,2.65-3.08,3.97-2.95,3.81-6,7.76-9.02,11.58-.54,.71-1.07,1.43-1.6,2.15-2.99-1.24-6.15-1.82-9.4-1.74-6.15,.16-11.89,2.72-16.15,7.2-4.26,4.49-6.52,10.35-6.36,16.5,.12,4.47,1.52,8.76,4.05,12.45l-4.95,9.55Z"/><path class="cls-1" d="M59.32,16.42c-.15-.13-.35-.2-.55-.19-.2,.01-.39,.11-.52,.26-2.37,2.82-4.76,5.84-7.11,8.98-.23,.31-.19,.73,.09,1,4.33,4.08,6.81,9.81,6.81,15.73,0,11.92-9.69,21.61-21.61,21.61-4.56,0-8.93-1.42-12.64-4.1-.18-.13-.4-.17-.62-.12-.21,.05-.39,.19-.49,.39l-5.51,10.86c-2.1,4.46-3.93,8.82-5.44,12.97-.08,.23-.05,.49,.09,.69,.14,.2,.37,.32,.61,.32h7.45c.31,0,.59-.19,.7-.48,1.2-3.09,2.62-6.33,4.21-9.66l.11,.04s0,0,0,0c3.69,1.31,7.57,1.98,11.52,1.98,19.02,0,34.5-15.48,34.5-34.5,0-9.82-4.23-19.21-11.61-25.78Z"/></g></g></svg>