<?xml version="1.0" encoding="UTF-8"?><svg id="Layer_2" xmlns="http://www.w3.org/2000/svg" viewBox="0 0 88 74.76"><defs><style>.cls-1{fill:#fff;}</style></defs><g id="work"><g><path class="cls-1" d="M27.42,44.06h-8.38c-.42,0-.77,.34-.77,.77s.34,.77,.77,.77h8.38c.42,0,.77-.34,.77-.77,0-.42-.34-.77-.77-.77Z"/><path class="cls-1" d="M34.01,52.17h-8.73c-.42,0-.77,.34-.77,.77s.34,.77,.77,.77h8.73c.42,0,.77-.34,.77-.77s-.34-.77-.77-.77Z"/><path class="cls-1" d="M21.09,52.21h-4.32c-.42,0-.77,.34-.77,.77s.34,.77,.77,.77h4.32c.42,0,.77-.34,.77-.77s-.34-.77-.77-.77Z"/><path class="cls-1" d="M8.55,59.64H4.36c-.42,0-.77,.34-.77,.77s.34,.77,.77,.77h4.19c.42,0,.77-.34,.77-.77s-.34-.77-.77-.77Z"/><path class="cls-1" d="M25.23,59.64H12.74c-.42,0-.77,.34-.77,.77s.34,.77,.77,.77h12.48c.42,0,.77-.34,.77-.77s-.34-.77-.77-.77Z"/><path class="cls-1" d="M12.74,52.21H.77c-.42,0-.77,.34-.77,.77s.34,.77,.77,.77H12.74c.42,0,.77-.34,.77-.77s-.34-.77-.77-.77Z"/><path class="cls-1" d="M14.24,44.06h-2.87c-.42,0-.77,.34-.77,.77s.34,.77,.77,.77h2.87c.42,0,.77-.34,.77-.77s-.34-.77-.77-.77Z"/><path class="cls-1" d="M85.73,48.73c-.42,0-.77,.34-.77,.77v21.39c0,.29-.06,.59-.17,.86l-23.71-15.36c-.37-.2-.84-.07-1.04,.3-.18,.33-.1,.75,.21,.98l23.51,15.24c-.33,.19-.71,.29-1.1,.29H21.85c-.39,0-.76-.1-1.1-.29l23.51-15.24c.38-.19,.53-.65,.34-1.03s-.65-.53-1.03-.34c-.05,.02-.09,.05-.14,.09l-23.71,15.36c-.11-.27-.17-.57-.17-.86v-4.33c0-.42-.34-.77-.77-.77s-.77,.34-.77,.77v4.36c0,.75,.22,1.48,.63,2.1,.02,.11,.05,.21,.12,.3,.08,.13,.21,.23,.35,.28,.72,.74,1.71,1.16,2.74,1.16h60.81c1.03,0,2.02-.42,2.74-1.16,.14-.06,.27-.16,.35-.28,.06-.09,.1-.19,.12-.3,.41-.62,.63-1.35,.63-2.1v-21.42c0-.42-.34-.77-.77-.77Z"/><path class="cls-1" d="M82.66,28.15H21.85c-2.12,0-3.84,1.72-3.84,3.84v6.28c0,.42,.34,.77,.77,.77s.77-.34,.77-.77v-6.28c0-.19,.03-.38,.08-.56l32.18,23.83h.15c.09,.04,.2,.07,.3,.07,.1,0,.21-.02,.3-.07h.16l32.17-23.87c.06,.18,.08,.37,.08,.56v10.89c0,.42,.34,.77,.77,.77s.77-.34,.77-.77v-10.85c0-2.12-1.72-3.84-3.84-3.84Zm-30.41,25.53L20.47,30.11c.4-.29,.88-.44,1.37-.43h60.81c.5,0,.98,.17,1.37,.47l-31.78,23.53Z"/><path class="cls-1" d="M54.14,66.98h-11.14c-.42,0-.77,.34-.77,.77s.34,.77,.77,.77h11.14c.42,0,.77-.34,.77-.77s-.34-.77-.77-.77Z"/><path class="cls-1" d="M63.97,66.98h-4.99c-.42,0-.77,.34-.77,.77s.34,.77,.77,.77h4.99c.42,0,.77-.34,.77-.77s-.34-.77-.77-.77Z"/><path class="cls-1" d="M70.12,20.26h-14.08c-.42,0-.77,.34-.77,.77s.34,.77,.77,.77h14.08c.42,0,.77-.34,.77-.77s-.34-.77-.77-.77Z"/><path class="cls-1" d="M84.41,13.55h-4.19c-.42,0-.77,.34-.77,.77s.34,.77,.77,.77h4.19c.42,0,.77-.34,.77-.77s-.34-.77-.77-.77Z"/><path class="cls-1" d="M76.02,13.55h-12.48c-.42,0-.77,.34-.77,.77s.34,.77,.77,.77h12.48c.42,0,.77-.34,.77-.77s-.34-.77-.77-.77Z"/><path class="cls-1" d="M87.23,20.21h-11.98c-.42,0-.77,.34-.77,.77s.34,.77,.77,.77h11.98c.42,0,.77-.34,.77-.77s-.34-.77-.77-.77Z"/><path class="cls-1" d="M67.12,0H6.31c-2.12,0-3.84,1.72-3.84,3.84V25.23c0,.42,.34,.77,.77,.77s.77-.34,.77-.77V3.84c0-1.27,1.03-2.3,2.3-2.3h60.81c1.27,0,2.3,1.03,2.3,2.3v4.33c0,.42,.34,.77,.77,.77s.77-.34,.77-.77V3.84c0-2.12-1.72-3.84-3.84-3.84Z"/><path class="cls-1" d="M61.05,7.65c-.23-.36-.7-.47-1.07-.25l-23.5,15.05L13.44,7.68c-.39-.16-.84,.02-1,.42-.12,.29-.05,.62,.17,.84l23.37,14.98c.12,.09,.26,.15,.41,.15h.2c.14,0,.28-.04,.41-.12l23.81-15.24c.36-.23,.47-.7,.25-1.07Z"/></g></g></svg>