<?xml version="1.0" encoding="UTF-8"?><svg id="Layer_2" xmlns="http://www.w3.org/2000/svg" viewBox="0 0 83.55 87"><defs><style>.cls-1{fill:#fff;}</style></defs><g id="work"><g><path class="cls-1" d="M58.62,0s-.02,0-.03,0H7.79C5.09,0,2.9,2.2,2.9,4.9v13.77c0,2.7,2.19,4.9,4.89,4.9h2.75v6.07c-.01,.28,.13,.54,.38,.67,.22,.13,.5,.13,.72,0l10.55-6.71H58.59c2.7,0,4.89-2.2,4.89-4.9V4.94C63.5,2.23,61.32,.02,58.62,0Zm3.41,18.68c0,1.9-1.54,3.45-3.44,3.45H21.95c-.14,0-.27,.04-.38,.11l-9.57,6.09v-5.44c0-.4-.32-.72-.72-.72h-3.48c-1.9,0-3.44-1.55-3.44-3.45V4.94c-.02-1.91,1.51-3.47,3.41-3.49,0,0,.02,0,.03,0H58.59c1.9,0,3.44,1.55,3.44,3.45v13.77h0Z"/><path class="cls-1" d="M51.38,8.05H15c-.4,0-.72,.32-.72,.72s.32,.72,.72,.72H51.38c.4,0,.72-.32,.72-.72s-.32-.72-.72-.72Z"/><path class="cls-1" d="M51.38,13.99H15c-.4,0-.72,.32-.72,.72s.32,.72,.72,.72H51.38c.4,0,.72-.32,.72-.72s-.32-.72-.72-.72Z"/><path class="cls-1" d="M55.69,56.61H4.89c-2.7,0-4.88,2.18-4.89,4.88v13.77c0,2.7,2.19,4.89,4.89,4.89h2.75v6.12c0,.26,.15,.5,.38,.63,.1,.06,.23,.1,.35,.09,.14,0,.27-.04,.39-.12l10.53-6.71H55.69c2.7,0,4.89-2.19,4.89-4.89v-13.77c0-2.7-2.19-4.89-4.89-4.89Zm3.44,18.65c0,1.9-1.54,3.44-3.44,3.44H19.05c-.14,0-.27,.04-.38,.12l-9.57,6.09v-5.48c0-.4-.32-.72-.72-.72h-3.48c-1.9,0-3.44-1.54-3.44-3.44v-13.77c0-1.9,1.54-3.44,3.44-3.44H55.69c1.9,0,3.44,1.54,3.44,3.44v13.77h0Z"/><path class="cls-1" d="M48.48,64.61H12.1c-.4,0-.72,.32-.72,.72s.32,.72,.72,.72H48.48c.4,0,.72-.32,.72-.72s-.32-.72-.72-.72Z"/><path class="cls-1" d="M17.18,70.55h-5.07c-.4,0-.72,.32-.72,.72s.32,.72,.72,.72h5.07c.4,0,.72-.32,.72-.72s-.32-.72-.72-.72Z"/><path class="cls-1" d="M28.8,70.55h-7.25c-.4,0-.72,.32-.72,.72s.32,.72,.72,.72h7.25c.4,0,.72-.32,.72-.72s-.32-.72-.72-.72Z"/><path class="cls-1" d="M35.32,70.55h-2.17c-.4,0-.72,.32-.72,.72s.32,.72,.72,.72h2.17c.4,0,.72-.32,.72-.72s-.32-.72-.72-.72Z"/><path class="cls-1" d="M78.66,28.31H27.86c-2.7,0-4.89,2.19-4.89,4.89v13.77c0,2.7,2.19,4.89,4.89,4.89h36.42l10.5,6.68c.12,.08,.25,.12,.39,.12,.12,0,.24-.03,.35-.09,.23-.13,.38-.37,.38-.63v-6.06h2.76c2.7,0,4.89-2.19,4.89-4.89v-13.79c0-2.7-2.19-4.89-4.89-4.89Zm0,22.11h-3.48c-.4,0-.72,.32-.72,.72v5.48l-9.57-6.09c-.11-.07-.25-.11-.38-.12H27.86c-1.9,0-3.44-1.54-3.44-3.44v-13.77c0-1.9,1.54-3.44,3.44-3.44h50.79c1.9,0,3.44,1.54,3.44,3.44v13.77c0,1.9-1.54,3.44-3.44,3.44Z"/><path class="cls-1" d="M71.45,36.33H35.07c-.4,0-.72,.32-.72,.72s.32,.72,.72,.72h36.38c.4,0,.72-.32,.72-.72s-.32-.72-.72-.72Z"/><path class="cls-1" d="M49.02,42.27h-13.96c-.4,0-.72,.32-.72,.72s.32,.72,.72,.72h13.96c.4,0,.72-.32,.72-.72s-.32-.72-.72-.72Z"/><path class="cls-1" d="M56.08,42.27h-3.05c-.4,0-.72,.32-.72,.72s.32,.72,.72,.72h3.05c.4,0,.72-.32,.72-.72s-.32-.72-.72-.72Z"/></g></g></svg>