<?xml version="1.0" encoding="UTF-8"?><svg id="Layer_2" xmlns="http://www.w3.org/2000/svg" viewBox="0 0 75.41 79.88"><defs><style>.cls-1{fill:#fff;}</style></defs><g id="work"><g><path class="cls-1" d="M0,9.36c0,3.47,5.17,5.65,9.5,6.86,5.64,1.58,13.46,2.49,21.46,2.49s15.83-.91,21.47-2.49c4.33-1.21,9.5-3.39,9.5-6.86s-5.17-5.66-9.5-6.87C46.8,.91,38.97,0,30.96,0S15.14,.91,9.5,2.49C5.17,3.7,0,5.88,0,9.36ZM30.96,2.17c18.54,0,28.79,4.25,28.79,7.19s-10.25,7.18-28.79,7.18S2.19,12.29,2.19,9.36,12.43,2.17,30.96,2.17Z"/><path class="cls-1" d="M8.56,34.13c5.07,1.55,11.98,2.52,19.48,2.72l2.14-2.13c-18.03-.12-27.99-4.3-27.99-7.19v-8.83c0-.72-.72-1.26-1.47-1.02-.42,.14-.72,.59-.72,1.09v8.76c0,3.28,4.65,5.39,8.56,6.59Z"/><path class="cls-1" d="M61.22,17.68c-.74-.24-1.47,.3-1.47,1.02v8.83c0,.74-.61,1.52-1.81,2.31l.42,2.23c2.37-1.35,3.57-2.88,3.57-4.53v-8.76c0-.51-.29-.96-.72-1.09Z"/><path class="cls-1" d="M21.97,54.42v-2.17c-12.39-1.06-19.78-4.29-19.78-6.81v-8.83c0-.6-.49-1.08-1.09-1.08-.12,0-.25,.02-.38,.06-.42,.14-.72,.59-.72,1.09v8.76c0,1.19,1.06,7.17,21.97,8.98Z"/><path class="cls-1" d="M2.19,63.35v-8.83c0-.6-.49-1.08-1.09-1.08-.12,0-.25,.02-.38,.06-.42,.14-.72,.59-.72,1.09v8.76c0,5.81,14.47,9.07,28.98,9.34l-2.25-2.24c-14.68-.54-24.54-4.1-24.54-7.1Z"/><path class="cls-1" d="M30.61,25.09c-.7,.13-1.29,.71-1.42,1.41-.1,.54,.03,1.09,.38,1.5,.42,.51,1.1,.75,1.76,.62,.7-.13,1.29-.71,1.42-1.41,.1-.54-.03-1.09-.38-1.5-.42-.51-1.09-.75-1.76-.62Z"/><path class="cls-1" d="M20.96,24.29c-.7,.13-1.29,.71-1.42,1.41-.1,.54,.04,1.09,.38,1.5,.42,.51,1.09,.75,1.76,.62,.7-.13,1.29-.71,1.42-1.41,.1-.54-.04-1.09-.38-1.5-.42-.51-1.09-.75-1.76-.62Z"/><path class="cls-1" d="M40.26,24.29c-.7,.13-1.29,.71-1.42,1.41-.1,.54,.04,1.09,.38,1.5,.42,.51,1.1,.75,1.76,.62,.7-.13,1.29-.71,1.42-1.41,.1-.54-.04-1.09-.38-1.5-.42-.51-1.09-.75-1.76-.62Z"/><path class="cls-1" d="M23.1,44c-.13-.7-.72-1.28-1.42-1.41h0c-.12-.02-.24-.03-.36-.03-.54,0-1.05,.24-1.4,.66-.34,.41-.48,.96-.38,1.5,.13,.7,.72,1.28,1.42,1.41,.67,.13,1.34-.11,1.76-.62,.34-.41,.48-.96,.38-1.5Z"/><path class="cls-1" d="M21.32,60.47c-.12,0-.24,.01-.36,.03-.7,.13-1.29,.71-1.42,1.41-.1,.54,.04,1.09,.38,1.5,.42,.51,1.1,.75,1.76,.62,.7-.13,1.29-.71,1.42-1.41,.1-.54-.04-1.09-.38-1.5-.35-.42-.86-.66-1.4-.66Z"/><path class="cls-1" d="M72.46,48.28h-1.29c-1,0-1.93-.69-2.37-1.75-.44-1.05-.26-2.18,.45-2.88l.91-.9c.56-.56,.87-1.3,.86-2.08,0-.79-.31-1.53-.86-2.08l-4.45-4.42c-.44-.44-.95-.73-1.47-.85-1-.21-2.05,.08-2.75,.79l-.92,.91c-.66,.67-1.89,.86-2.88,.45-.83-.34-1.46-1-1.67-1.78-.05-.2-.08-.4-.08-.59v-1.28c0-.29-.04-.56-.13-.81-.05-.21-.13-.37-.19-.51-.5-1-1.51-1.62-2.64-1.62h-6.35c-1.63,0-2.96,1.32-2.96,2.94v1.28c0,.2-.03,.4-.08,.56-.19,.77-.82,1.45-1.68,1.8-.99,.41-2.22,.22-2.88-.44l-.91-.9c-.33-.33-.67-.56-.99-.67-1.15-.42-2.38-.15-3.19,.66l-4.5,4.47c-.56,.55-.87,1.29-.87,2.08,0,.78,.31,1.52,.87,2.07l.91,.91c.71,.7,.89,1.83,.45,2.88-.16,.38-.38,.71-.64,.98-.49,.5-1.11,.77-1.74,.77h-1.2c-.47,0-.86,.07-1.2,.21-1.14,.48-1.84,1.53-1.84,2.73v6.33c0,1.62,1.33,2.93,2.96,2.93h1.29c.46,0,.91,.15,1.31,.43,.44,.29,.82,.76,1.06,1.32,.44,1.05,.26,2.18-.45,2.88l-.91,.91c-.97,.96-1.14,2.48-.41,3.63l.04,.08c.12,.16,.24,.31,.37,.44l4.5,4.47c.55,.56,1.3,.87,2.09,.87s1.53-.31,2.09-.86l.92-.91c.42-.42,1.06-.67,1.75-.67,.38,0,.78,.08,1.13,.22,1.07,.45,1.76,1.38,1.76,2.37v1.28c0,1.62,1.33,2.94,2.96,2.94h6.35c1.63,0,2.96-1.32,2.96-2.94v-1.28c0-.99,.69-1.92,1.76-2.36,1-.41,2.22-.22,2.89,.45l.92,.9c.71,.72,1.73,1.02,2.76,.8,.51-.11,1.02-.41,1.46-.85l4.45-4.43c.73-.71,1.02-1.76,.78-2.8-.12-.5-.4-.98-.84-1.41l-.85-.85c-.7-.7-.88-1.83-.44-2.88,.44-1.06,1.37-1.75,2.37-1.75h1.15c.78,0,1.47-.22,1.99-.65,.71-.58,1.1-1.4,1.1-2.3v-6.32c0-1.62-1.33-2.94-2.96-2.94Zm.77,9.27c0,.23-.1,.44-.27,.58-.1,.11-.3,.18-.5,.18h-1.29c-1.88,0-3.61,1.21-4.39,3.08-.78,1.86-.42,3.92,.92,5.24l.91,.92c.06,.05,.22,.22,.22,.54,0,.22-.09,.42-.25,.56l-4.47,4.46c-.32,.32-.77,.31-1.09,0l-.91-.9c-.85-.85-2.02-1.31-3.28-1.31-.67,0-1.36,.14-2,.4-1.88,.78-3.1,2.5-3.1,4.36v1.28c0,.43-.34,.77-.77,.77h-6.36c-.42,0-.76-.35-.76-.77v-1.1c0-.63-.2-1.67-.49-2.21-.56-1.05-1.46-1.86-2.61-2.34-1.86-.76-3.96-.39-5.27,.91l-.92,.91c-.15,.16-.34,.24-.54,.24-.14,0-.35-.04-.55-.26l-4.48-4.46c-.14-.13-.23-.33-.23-.54s.09-.41,.25-.56l.89-.9c1.34-1.33,1.7-3.39,.92-5.24-.79-1.88-2.51-3.09-4.39-3.09h-1.29c-.43,0-.77-.34-.77-.77v-6.33c0-.2,.08-.4,.23-.54,.09-.08,.27-.22,.55-.22h1.29c1.88,0,3.6-1.21,4.39-3.08,.78-1.86,.42-3.92-.92-5.24l-.91-.9c-.15-.15-.23-.35-.23-.56,0-.21,.09-.4,.24-.54l4.48-4.46c.15-.16,.34-.25,.54-.25,.14,0,.35,.04,.55,.26l.9,.89c.09,.09,.18,.17,.28,.25,.84,.7,1.87,1.07,3,1.07,.68,0,1.37-.14,2.01-.4,1.17-.49,2.08-1.32,2.62-2.38,.31-.61,.47-1.34,.47-2.18v-1.09c0-.43,.35-.77,.77-.77h6.35c.43,0,.77,.35,.77,.77v1.28c0,.46,.08,.93,.22,1.38,.44,1.32,1.49,2.41,2.88,2.99,.75,.31,1.54,.43,2.35,.39,1.12-.08,2.15-.53,2.91-1.28l.94-.93c.29-.28,.79-.29,1.08,0l4.5,4.47c.15,.15,.22,.33,.22,.54s-.08,.41-.23,.55l-.91,.9c-1.34,1.32-1.7,3.38-.92,5.24,.78,1.87,2.5,3.08,4.39,3.08h1.29c.43,0,.77,.35,.77,.77v6.33Z"/><path class="cls-1" d="M62.38,54.38c0-2.06-.51-4.1-1.48-5.88-.54-1.02-1.22-1.95-2.03-2.79-2.4-2.49-5.63-3.86-9.08-3.86-2.41,0-4.76,.69-6.78,1.98-1.2,.76-2.26,1.72-3.15,2.85-1.24,1.57-2.08,3.43-2.44,5.37-.15,.77-.23,1.55-.23,2.33,0,.25,0,.51,.02,.75,.12,2.04,.73,3.98,1.81,5.75,.73,1.19,1.65,2.25,2.74,3.15,2.29,1.89,5.07,2.88,8.03,2.88,3.46,0,6.68-1.37,9.07-3.85,1.48-1.54,2.55-3.42,3.1-5.45,.28-1.04,.42-2.13,.42-3.23Zm-2.34,2c-.09,.79-.22,1.23-.45,1.48-1.47,4.12-5.4,6.89-9.8,6.89-2.82,0-5.46-1.11-7.44-3.12l-.1-.15c-.14-.28-.35-.53-.62-.71l-.09-.08c-1.29-1.68-2.03-3.64-2.14-5.72,0-.2-.02-.39-.02-.59,0-.95,.13-1.9,.39-2.81,1.26-4.45,5.39-7.56,10.02-7.56,2.89,0,5.66,1.21,7.62,3.33,.76,.81,1.39,1.74,1.85,2.77,.48,1.03,.78,2.14,.89,3.3l.02,.24-.05,.05c.05,.83,.02,1.73-.09,2.68Z"/></g></g></svg>