<?xml version="1.0" encoding="UTF-8"?><svg id="Layer_2" xmlns="http://www.w3.org/2000/svg" viewBox="0 0 77.19 94.11"><defs><style>.cls-1{fill:#fff;}</style></defs><g id="work"><path class="cls-1" d="M33.49,94.11c-1.52,0-2.77-1.19-2.84-2.71v-5.31c.07-1.49,1.32-2.67,2.84-2.67h7.95c1.52,0,2.77,1.19,2.84,2.71v1.71s.97-.07,.97-.07c6.42-.48,11.17-2.38,14.12-5.64,1.67-1.83,2.74-4.09,3.11-6.55l.14-.93-.93-.1c-1.32-.15-2.34-1.26-2.37-2.59v-31.57c0-1.47,1.2-2.67,2.67-2.67h3c1.47,0,2.67,1.2,2.67,2.67v1.04h3.24v-8.91C70.88,15.57,56.35,1.77,38.49,1.77S6.1,15.57,6.1,32.53v8.91h3.24v-1.04c0-1.47,1.2-2.67,2.67-2.67h3.23c1.47,0,2.67,1.2,2.67,2.67v31.47c0,1.47-1.2,2.67-2.67,2.67h-3.14c-1.41,0-2.58-1.1-2.67-2.51l-.05-.85h-3.61c-.23,.02-.39,.02-.55,.02-1.85,0-3.57-.99-4.5-2.59-.5-.96-.75-2.07-.72-3.18v-18.23c-.03-1.14,.22-2.26,.74-3.26,.62-1.13,1.71-1.96,2.98-2.27l.69-.17v-8.98C4.41,14.59,19.73,0,38.56,0s34.15,14.59,34.15,32.53v8.99l.7,.16c1.26,.29,2.36,1.11,3.01,2.23,.53,.99,.8,2.13,.77,3.27v18.25c.03,1.13-.22,2.25-.74,3.24-.92,1.57-2.64,2.55-4.48,2.55-.16,0-.31,0-.47-.02h-3.69s-.05,.84-.05,.84c-.09,1.34-1.16,2.42-2.51,2.49l-.75,.04-.09,.75c-.35,3.01-1.62,5.78-3.67,8.02-3.31,3.65-8.54,5.73-15.55,6.2l-.84,.06v1.84c-.07,1.49-1.32,2.67-2.84,2.67h-8.02Zm.17-8.94c-.32,0-.64,.11-.88,.32l-.33,.27v6.46l.83,.07c.07,0,.15,0,.22,0s.15,0,.22,0h7.64c.52-.03,.95-.29,1.18-.72l.08-.16,.02-6.24h-8.99Zm27.46-12.39h4.81v-28.75l.07-4.54h-4.88v33.29ZM11.2,39.59v3.82c.02,.23,.02,.39,0,.55v28.82s4.79,0,4.79,0V39.45l-4.8,.14Zm56.5,29.86h3.65c2.57,0,3.26-1.22,3.49-1.62,.38-.79,.55-1.61,.51-2.44v-18.16c.04-.78-.13-1.59-.48-2.33-.6-1.12-1.78-1.69-3.52-1.69h-3.65v26.25ZM5.71,43.17c-2.53,0-3.22,1.22-3.45,1.63-.38,.8-.54,1.62-.49,2.46v18.14c-.04,.79,.13,1.59,.48,2.33,.6,1.12,1.78,1.69,3.52,1.69h3.66v-26.41l-3.72,.17Z"/></g></svg>