<?xml version="1.0" encoding="UTF-8"?><svg id="Layer_2" xmlns="http://www.w3.org/2000/svg" viewBox="0 0 81.74 87.26"><defs><style>.cls-1{fill:#fff;}</style></defs><g id="work"><g><path class="cls-1" d="M40.87,87.26c-1,0-2.02-.1-3.01-.31-.33-.07-.59-.32-.67-.65l-.75-3-2.65,1.59c-.14,.08-.29,.12-.45,.12-.17,0-.34-.05-.48-.14-.85-.56-1.64-1.19-2.33-1.88-.73-.73-1.36-1.51-1.93-2.38-.18-.28-.19-.65-.02-.93l1.59-2.65-3-.75c-.32-.08-.58-.35-.65-.67-.1-.51-.18-1.05-.24-1.67l-.04-.45H3.64c-2.01,0-3.64-1.63-3.64-3.64V17.43c0-2.01,1.63-3.64,3.64-3.64H24.82V6.4c0-3.53,2.87-6.4,6.4-6.4h19.31c3.53,0,6.4,2.87,6.4,6.4v7.4h21.19c2.01,0,3.64,1.63,3.64,3.64v52.4c0,2.01-1.63,3.64-3.64,3.64h-22.59l-.04,.46c-.06,.61-.13,1.16-.24,1.68-.07,.33-.32,.59-.65,.67l-3,.75,1.59,2.65c.17,.29,.16,.65-.02,.93-1.12,1.71-2.55,3.15-4.26,4.26-.14,.09-.31,.14-.48,.14-.16,0-.32-.04-.45-.12l-2.65-1.59-.75,3c-.08,.33-.35,.58-.67,.65-1,.21-2.01,.31-3.01,.31Zm-4.82-5.64c.13,0,.27,.03,.38,.09,.37,.18,.75,.34,1.12,.47,.28,.1,.49,.33,.57,.62l.63,2.54,.33,.05c.59,.08,1.19,.12,1.78,.12s1.19-.04,1.78-.12l.33-.05,.63-2.54c.07-.29,.28-.52,.56-.62,.37-.13,.75-.29,1.12-.47,.12-.06,.25-.09,.39-.09,.16,0,.32,.04,.45,.13l2.24,1.34,.27-.2c.95-.72,1.8-1.57,2.52-2.52l.2-.27-1.34-2.24c-.15-.25-.17-.57-.04-.84,.19-.39,.34-.76,.47-1.12,.1-.28,.33-.49,.62-.57l2.53-.63,.05-.33c.08-.59,.12-1.19,.12-1.78s-.04-1.19-.12-1.78l-.05-.33-2.53-.63c-.29-.07-.52-.28-.62-.56-.13-.39-.29-.76-.47-1.12-.13-.27-.12-.58,.04-.84l1.34-2.24-.2-.27c-.72-.95-1.57-1.8-2.52-2.52l-.27-.2-2.24,1.34c-.14,.08-.29,.13-.45,.13-.13,0-.26-.03-.38-.09-.39-.19-.76-.34-1.12-.47-.28-.1-.49-.33-.57-.62l-.63-2.53-.33-.05c-.59-.08-1.19-.12-1.78-.12s-1.19,.04-1.78,.12l-.33,.05-.63,2.54c-.07,.29-.28,.52-.56,.62-.37,.13-.75,.29-1.12,.47-.12,.06-.25,.09-.39,.09-.16,0-.32-.04-.45-.12l-2.24-1.34-.27,.2c-.49,.36-.94,.75-1.34,1.16-.42,.42-.82,.88-1.18,1.36l-.2,.27,1.34,2.24c.15,.26,.17,.57,.04,.84-.18,.37-.34,.75-.47,1.12-.1,.28-.33,.49-.62,.57l-2.54,.63-.05,.33c-.08,.58-.12,1.18-.12,1.77,0,.61,.04,1.21,.12,1.79l.05,.33,2.54,.63c.29,.07,.52,.28,.62,.57,.13,.38,.29,.75,.47,1.12,.13,.27,.12,.58-.04,.84l-1.34,2.24,.2,.27c.36,.48,.75,.93,1.15,1.33,.43,.43,.88,.82,1.37,1.19l.27,.2,2.24-1.34c.14-.08,.29-.12,.45-.12Zm12.35-21.45c.17,0,.34,.05,.48,.14,1.71,1.12,3.15,2.55,4.26,4.26,.18,.28,.19,.65,.02,.93l-1.59,2.65,3,.75c.32,.08,.58,.35,.65,.67,.11,.51,.19,1.06,.24,1.68l.04,.45h22.59c1.04,0,1.88-.84,1.88-1.88V34.95l-.75,.43c-.25,.14-.47,.25-.69,.32l-14.73,5.3v6.76c0,2.01-1.63,3.64-3.64,3.64h-2.76c-2.01,0-3.64-1.63-3.64-3.64v-3.15l-10.01,3.6c-.79,.27-1.82,.42-2.9,.42s-2.11-.15-2.89-.42l-10.02-3.61v3.15c0,2.01-1.63,3.64-3.64,3.64h-2.76c-2.01,0-3.64-1.63-3.64-3.64v-6.76l-14.74-5.31c-.23-.08-.45-.18-.68-.32l-.75-.43v34.87c0,1.04,.84,1.88,1.88,1.88H26.23l.04-.46c.06-.61,.13-1.16,.24-1.68,.07-.33,.32-.59,.65-.67l3-.75-1.59-2.65c-.17-.29-.16-.65,.02-.93,.56-.86,1.2-1.65,1.89-2.34,.71-.71,1.51-1.35,2.37-1.92,.14-.09,.31-.14,.48-.14,.16,0,.31,.04,.45,.12l2.65,1.59,.75-3c.08-.32,.35-.58,.67-.65,.99-.21,2-.31,3.01-.31s2.02,.1,3.01,.31c.33,.07,.59,.32,.67,.65l.75,3,2.65-1.59c.14-.08,.29-.12,.45-.12Zm9.02-25.31c-1.04,0-1.88,.84-1.88,1.88v11.03c0,1.04,.84,1.88,1.88,1.88h2.76c1.04,0,1.88-.84,1.88-1.88v-11.03c0-1.04-.84-1.88-1.88-1.88h-2.76Zm-35.85,0c-1.04,0-1.88,.84-1.88,1.88v11.03c0,1.04,.84,1.88,1.88,1.88h2.76c1.04,0,1.88-.84,1.88-1.88v-11.03c0-1.04-.84-1.88-1.88-1.88h-2.76Zm2.76-1.76c2.01,0,3.64,1.63,3.64,3.64v6.02l10.6,3.82c.56,.19,1.4,.3,2.31,.3s1.76-.11,2.32-.31l10.59-3.81v-6.02c0-2.01,1.63-3.64,3.64-3.64h2.76c2.01,0,3.64,1.63,3.64,3.64v2.41l14.14-5.09c1.09-.38,2.03-1.67,2.03-2.83v-13.79c0-1.04-.84-1.88-1.88-1.88H3.64c-1.04,0-1.88,.84-1.88,1.88v13.79c0,1.14,.94,2.46,2.02,2.83l14.15,5.1v-2.41c0-2.01,1.63-3.64,3.64-3.64h2.76ZM50.52,5.52c.48,0,.88,.39,.88,.88v7.4h3.76V6.4c0-2.56-2.08-4.64-4.64-4.64H31.22c-2.56,0-4.64,2.08-4.64,4.64v7.4h3.76V6.4c0-.48,.39-.88,.88-.88h19.31Zm-18.43,8.27h17.55V7.27h-17.55v6.52Z"/><path class="cls-1" d="M50.52,21.06c-.48,0-.88-.39-.88-.88s.39-.88,.88-.88h23.44c.48,0,.88,.39,.88,.88s-.39,.88-.88,.88h-23.44Z"/><path class="cls-1" d="M45.01,21.06c-.22,0-.46-.1-.64-.26-.15-.15-.24-.39-.24-.62s.09-.46,.26-.64c.14-.14,.37-.22,.62-.22s.47,.08,.62,.23c.16,.16,.25,.4,.25,.63s-.1,.46-.26,.64c-.15,.15-.39,.24-.62,.24Z"/><path class="cls-1" d="M40.87,77.6c-2.77,0-5.02-2.25-5.02-5.02s2.25-5.02,5.02-5.02,5.02,2.25,5.02,5.02-2.25,5.02-5.02,5.02Zm0-8.27c-1.8,0-3.26,1.46-3.26,3.26s1.46,3.26,3.26,3.26,3.26-1.46,3.26-3.26-1.46-3.26-3.26-3.26Z"/></g></g></svg>