<?xml version="1.0" encoding="UTF-8"?><svg id="Layer_2" xmlns="http://www.w3.org/2000/svg" viewBox="0 0 79.73 82.48"><defs><style>.cls-1{fill:#fff;}</style></defs><g id="work"><g><path class="cls-1" d="M33.48,30.73l6.28,6.28-12.43-12.43c-.37,.36-.77,.67-1.2,.92l5.76,5.76,.53-.53c.29-.29,.77-.29,1.06,0Z"/><path class="cls-1" d="M41.34,10.57l19.02,19.02-14.01,14.01-6.6-6.6c.14,.14,.22,.33,.22,.53s-.08,.39-.22,.53l-.53,.53,6.21,6.21c.26-.44,.58-.86,.95-1.23l13.95-13.95c.37-.37,.79-.69,1.23-.95L42.25,9.36c-.25,.43-.54,.84-.91,1.21Z"/><path class="cls-1" d="M39.76,38.07c.14-.14,.22-.33,.22-.53s-.08-.39-.22-.53l-6.28-6.28c-.29-.29-.77-.29-1.06,0l-.53,.53-10.68,10.68c.09,0,.18-.01,.26-.01,.57,0,1.13,.07,1.67,.2l9.81-9.81,5.22,5.22-1.47,1.47s-.02,.02-.02,.02l-8.32,8.32c.13,.54,.2,1.1,.2,1.66,0,.09,0,.18-.01,.27l9.19-9.19s.02-.02,.02-.02l1.47-1.47,.53-.53Z"/><path class="cls-1" d="M28.36,47.34c-.3-1.26-.94-2.41-1.87-3.35-.94-.94-2.09-1.57-3.35-1.87-.54-.13-1.1-.2-1.67-.2-.09,0-.18,0-.26,.01-1.79,.07-3.47,.79-4.75,2.06-.29,.29-.29,.77,0,1.06s.77,.29,1.06,0c1.06-1.06,2.46-1.64,3.95-1.64s2.9,.58,3.95,1.64c1.06,1.06,1.64,2.46,1.64,3.95s-.58,2.9-1.64,3.95l-15.71,15.71-7.9-7.9,11.35-11.35c.29-.29,.29-.77,0-1.06s-.77-.29-1.06,0L.22,60.24c-.14,.14-.22,.33-.22,.53s.08,.39,.22,.53l8.96,8.96c.15,.15,.34,.22,.53,.22s.38-.07,.53-.22l16.24-16.24c1.28-1.28,2-2.95,2.06-4.75,0-.09,.01-.18,.01-.27,0-.57-.07-1.12-.2-1.66Z"/><path class="cls-1" d="M27.33,24.58s.02-.02,.03-.03l8.35-8.35,14.09,14.09c.15,.15,.34,.22,.53,.22s.38-.07,.53-.22c.29-.29,.29-.77,0-1.06l-1.91-1.91-12.71-12.71c-.29-.29-.77-.29-1.06,0l-8.88,8.88c-.89,.89-2.07,1.38-3.33,1.38s-2.44-.49-3.33-1.38c-.89-.89-1.38-2.07-1.38-3.33s.49-2.44,1.38-3.33L33.59,2.88c.89-.89,2.07-1.38,3.33-1.38s2.44,.49,3.33,1.38c.89,.89,1.38,2.07,1.38,3.33s-.49,2.44-1.38,3.33l-1.01,1.01c-.29,.29-.29,.77,0,1.06,.24,.24,.61,.27,.89,.11,.06-.03,.12-.06,.17-.11l1.01-1.01s.02-.02,.02-.03c.37-.37,.66-.78,.91-1.21,1.41-2.38,1.11-5.5-.94-7.54-1.17-1.17-2.73-1.82-4.39-1.82s-3.22,.65-4.39,1.82l-13.95,13.95c-1.17,1.17-1.82,2.73-1.82,4.39s.65,3.22,1.82,4.39,2.73,1.82,4.39,1.82c1.13,0,2.21-.31,3.16-.87,.43-.26,.83-.56,1.2-.92Z"/><path class="cls-1" d="M60.33,29.62l-13.95,13.95c-.37,.37-.69,.79-.95,1.23-.56,.95-.87,2.03-.87,3.16,0,1.66,.65,3.22,1.82,4.39s2.73,1.82,4.39,1.82,3.22-.65,4.39-1.82l13.95-13.95c1.17-1.17,1.82-2.73,1.82-4.39s-.65-3.22-1.82-4.39c-1.17-1.17-2.73-1.82-4.39-1.82-1.13,0-2.21,.31-3.16,.87-.44,.26-.86,.58-1.23,.95Zm-9.56,23.05c-1.26,0-2.44-.49-3.33-1.38-.89-.89-1.38-2.07-1.38-3.33s.49-2.44,1.38-3.33l13.95-13.95c.89-.89,2.07-1.38,3.33-1.38s2.44,.49,3.33,1.38,1.38,2.07,1.38,3.33-.49,2.44-1.38,3.33l-13.95,13.95c-.89,.89-2.07,1.38-3.33,1.38Z"/><path class="cls-1" d="M48.31,65.58c.54-1.68,2.09-2.81,3.85-2.81h15.08c2.23,0,4.05,1.82,4.05,4.05v2.75h1.5v-2.75c0-3.06-2.49-5.55-5.55-5.55h-15.08c-2.42,0-4.55,1.55-5.28,3.86-.13,.39,.09,.82,.49,.94,.06,.02,.13,.02,.2,.02,.33,.01,.64-.18,.75-.51Z"/><path class="cls-1" d="M75.34,69.56h-31.28c-2.42,0-4.39,1.97-4.39,4.39v7.78c0,.41,.34,.75,.75,.75h38.56c.41,0,.75-.34,.75-.75v-7.78c0-2.42-1.97-4.39-4.39-4.39Zm2.89,11.42H41.18v-7.03c0-1.59,1.3-2.89,2.89-2.89h31.28c1.59,0,2.89,1.3,2.89,2.89v7.03Z"/></g></g></svg>