<?xml version="1.0" encoding="UTF-8"?><svg id="Layer_2" xmlns="http://www.w3.org/2000/svg" viewBox="0 0 98.27 82.92"><defs><style>.cls-1{fill:#fff;}</style></defs><g id="work"><g><path class="cls-1" d="M76.8,11.23l-3.6,1.53,.76-3.95c.06-.3-.06-.62-.32-.8-3.25-2.39-6.83-4.29-10.63-5.64-.3-.12-.63-.04-.84,.21l-2.88,3.08-.97-4.18c-.07-.3-.3-.54-.6-.6C53.82,.06,49.82-.19,45.84,.14c-.31,.03-.58,.23-.68,.52l-1.46,4.2-2.71-3.56c-.18-.25-.5-.37-.81-.31-3.86,.84-7.58,2.24-11.04,4.14-.26,.15-.4,.43-.38,.73l.4,4.61-4.04-2.23c-.27-.13-.59-.1-.83,.08-3.15,2.36-5.95,5.16-8.31,8.31-.19,.25-.21,.58-.06,.85l2.21,4.02-4.58-.4c-.31-.03-.61,.14-.76,.41-1.9,3.46-3.3,7.18-4.14,11.04-.07,.31,.05,.62,.31,.81l3.6,2.72-4.2,1.45c-.3,.1-.51,.37-.53,.69-.32,3.98-.07,7.98,.75,11.89,.07,.3,.3,.54,.6,.6l4.18,.94-3.09,2.89c-.23,.21-.3,.54-.2,.84,1.35,3.8,3.25,7.39,5.64,10.63,.18,.25,.49,.38,.79,.32l3.95-.76-1.53,3.6c-.12,.29-.06,.62,.16,.85l.23,.23,.56,.56c2.64,2.63,5.62,4.9,8.86,6.74,.26,.15,.59,.14,.84-.04l3.02-2.16,.07,3.62c-.01,.32,.17,.62,.46,.75,3.82,1.6,7.87,2.61,11.99,3.01,.3,.03,.59-.11,.75-.37l1.8-2.91,1.42,3.04c.13,.28,.41,.46,.72,.46,4.18-.08,8.32-.8,12.29-2.12,.29-.09,.5-.35,.54-.65l.4-3.21,2.43,2.11c.23,.2,.56,.25,.85,.12,3.83-1.75,7.37-4.07,10.5-6.88,.23-.21,.31-.52,.22-.81l-.92-3.02,3.02,.92c.28,.08,.58,0,.79-.19l.03-.03c2.81-3.13,5.14-6.67,6.88-10.5,.13-.28,.08-.61-.13-.84l-2.11-2.43,3.22-.4c.3-.04,.55-.25,.65-.53,1.31-3.98,2.01-8.13,2.07-12.32,0-.31-.17-.6-.45-.73l-3.04-1.41,2.91-1.8c.26-.14,.42-.42,.41-.72-.4-4.12-1.42-8.16-3.01-11.98-.12-.29-.4-.48-.71-.49l-3.63-.06,2.13-3.04c.17-.25,.19-.58,.04-.84-1.84-3.24-4.11-6.22-6.74-8.86l-.56-.56-.23-.23c-.23-.22-.56-.27-.85-.15Zm.52,2.06c2.42,2.42,4.52,5.15,6.24,8.1l-2.7,3.82c-.17,.24-.19,.55-.06,.81,.13,.26,.4,.42,.69,.43l4.56,.11c1.37,3.38,2.26,6.94,2.66,10.57l-3.73,2.26c-.37,.22-.5,.7-.28,1.08,.08,.14,.2,.25,.35,.31l3.93,1.82c-.1,3.7-.7,7.38-1.81,10.91l-4.18,.52c-.28,.04-.52,.22-.63,.48-.1,.27-.05,.58,.14,.8l2.73,3.16c-1.58,3.36-3.62,6.48-6.07,9.27l-3.95-1.2c-.42-.13-.86,.1-.99,.52-.05,.15-.05,.32,0,.47l1.2,3.95c-2.79,2.45-5.91,4.5-9.27,6.08l-3.16-2.73c-.33-.29-.83-.25-1.11,.08-.1,.12-.17,.26-.19,.42l-.53,4.19c-3.52,1.11-7.18,1.73-10.87,1.83l-1.83-3.92c-.19-.39-.65-.56-1.05-.38-.14,.07-.26,.17-.34,.31l-2.28,3.78c-3.63-.4-7.19-1.3-10.57-2.66l-.11-4.56c0-.29-.17-.55-.43-.69-.26-.13-.56-.11-.8,.06l-3.82,2.71c-2.98-1.76-5.72-3.89-8.15-6.35l-.37-.37,1.89-4.49c.17-.4-.02-.86-.43-1.03-.14-.06-.3-.07-.45-.05l-4.87,.96c-2.06-2.88-3.73-6.02-4.96-9.35l3.78-3.54c.22-.19,.31-.5,.22-.78-.07-.27-.29-.48-.56-.56l-5.14-1.19c-.68-3.42-.9-6.92-.68-10.4l5.1-1.76c.27-.1,.46-.33,.51-.61,.04-.29-.07-.57-.3-.75l-4.39-3.28c.79-3.37,2.01-6.62,3.63-9.68l5.54,.42c.3,.03,.59-.11,.75-.37,.16-.24,.17-.55,.03-.81l-2.68-4.91c2.1-2.74,4.55-5.18,7.29-7.29l4.91,2.68c.38,.21,.86,.07,1.07-.31,.08-.14,.11-.3,.09-.45l-.52-5.47c3.06-1.64,6.33-2.87,9.71-3.66l3.28,4.39c.18,.23,.46,.34,.75,.3,.28-.05,.51-.24,.61-.51l1.77-5.11c3.49-.22,7,.01,10.44,.7l1.2,5.13c.07,.27,.29,.48,.56,.56,.28,.09,.59,0,.78-.22l3.54-3.78c3.32,1.23,6.46,2.9,9.34,4.96l-.95,4.9c-.05,.28,.05,.58,.28,.76,.22,.18,.53,.23,.8,.12l4.49-1.9c.12,.12,.25,.25,.37,.37Z"/><polygon class="cls-1" points="68.62 21.47 68.85 21.24 69.17 20.91 68.62 21.47"/><path class="cls-1" d="M68.85,21.24l-.8,.8,.22,.22c.31,.31,.81,.31,1.11,0s.31-.81,0-1.11l-.23-.23-.31,.32Z"/><path class="cls-1" d="M66.62,18.69s0,0,0,0c-.55-.41-1.12-.83-1.71-1.22-.37-.25-.87-.15-1.11,.22s-.15,.87,.22,1.11c.56,.37,1.1,.76,1.62,1.16,.32,.24,.78,.2,1.05-.09l.07-.07c.27-.34,.21-.84-.14-1.11Z"/><path class="cls-1" d="M60.28,15.02c-9.81-4.18-21.14-2.55-29.37,4.23l.97-3.2c.12-.42-.13-.86-.56-.98s-.86,.13-.98,.56l-1.75,5.9c-.02,.07-.03,.14-.03,.21,0,.08,.02,.16,.05,.23l.03,.03c.03,.07,.06,.13,.11,.19l.03,.03c.07,.06,.15,.11,.23,.15,.08,.03,.17,.05,.25,.05h.06l6.13-.56c.18-.02,.35-.1,.48-.23,.31-.31,.31-.81,0-1.11-.17-.17-.4-.25-.63-.23l-3.79,.36c7.8-6.61,18.66-8.25,28.06-4.24,.42,.12,.86-.11,.98-.53,.09-.31-.02-.65-.28-.85Z"/><path class="cls-1" d="M35.28,64.76s0,0,0,0c-1.95-1.15-3.75-2.54-5.36-4.14-.31-.31-.81-.31-1.11,0s-.31,.81,0,1.11c1.69,1.69,3.59,3.16,5.64,4.38,.32,.19,.72,.13,.97-.14,.05-.04,.1-.09,.14-.14,.22-.37,.1-.86-.28-1.08Z"/><path class="cls-1" d="M92.65,20.27c-.4,.17-.58,.64-.41,1.04,0,.01,.01,.03,.02,.04,2.27,4.85,3.7,10.04,4.23,15.37,.31,3.25,.28,6.52-.07,9.76-.05,.43,.27,.82,.7,.87,0,0,0,0,0,0,.24,.03,.48-.05,.65-.22,.12-.13,.2-.29,.22-.47,.36-3.35,.37-6.72,.05-10.08-.54-5.51-2.01-10.88-4.35-15.9-.17-.4-.64-.58-1.04-.41Z"/><path class="cls-1" d="M88.2,12.94c-.35,.25-.44,.74-.18,1.1,.72,1.02,1.4,2.08,2.03,3.15,.22,.37,.7,.5,1.08,.28,0,0,0,0,0,0,.05-.04,.1-.09,.14-.14,.27-.25,.33-.66,.14-.97-.65-1.1-1.36-2.19-2.12-3.24-.26-.34-.74-.42-1.09-.17Z"/><path class="cls-1" d="M.75,43.26c-.43,.02-.77,.39-.75,.82,0,0,0,0,0,0,.08,1.48,.23,2.97,.45,4.43,.06,.43,.46,.73,.89,.67,.17-.03,.32-.11,.44-.23,.18-.18,.26-.42,.22-.67-.2-1.41-.35-2.85-.42-4.29-.02-.43-.39-.77-.82-.75Z"/><path class="cls-1" d="M3.02,56.15c-.42,.13-.65,.57-.53,.98,0,.02,0,.03,.02,.05,1.81,5.33,4.53,10.31,8.04,14.72,.27,.34,.76,.4,1.11,.13,0,0,0,0,0,0l.07-.07c.25-.28,.27-.7,.05-1-3.4-4.28-6.02-9.11-7.77-14.29-.13-.42-.57-.65-.98-.53Z"/><path class="cls-1" d="M68.56,60.48l-5.87,1.13c-.43,.08-.71,.5-.62,.92,.08,.43,.5,.71,.92,.62l3.2-.61c-7.19,5.86-16.88,7.61-25.66,4.65-.41-.12-.85,.11-.97,.52-.14,.41,.08,.86,.5,1,9.5,3.19,19.97,1.17,27.6-5.32l-.73,3.73c-.08,.43,.19,.84,.62,.92,.26,.05,.52-.03,.71-.22,.11-.11,.19-.25,.22-.41l1.19-6.04c.03-.15,.01-.3-.04-.45-.01-.01-.03-.03-.04-.04-.03-.07-.08-.14-.13-.19-.01-.02-.03-.04-.05-.05-.03-.04-.06-.07-.1-.1-.22-.14-.49-.16-.72-.06Z"/><g><path class="cls-1" d="M29.79,48.34c-1.07-.57-1.91-1.36-2.52-2.37s-.92-2.16-.92-3.44,.31-2.43,.92-3.44,1.45-1.8,2.52-2.37c1.07-.57,2.27-.85,3.62-.85,1.17,0,2.23,.21,3.17,.62,.94,.42,1.72,1.01,2.34,1.79l-2.31,2.09c-.83-1-1.84-1.5-3.02-1.5-.7,0-1.32,.15-1.86,.46-.54,.3-.96,.74-1.26,1.29-.3,.56-.45,1.19-.45,1.91s.15,1.36,.45,1.91c.3,.56,.72,.99,1.26,1.29,.54,.31,1.16,.46,1.86,.46,1.18,0,2.19-.5,3.02-1.5l2.31,2.09c-.62,.78-1.4,1.38-2.34,1.79-.94,.42-2,.62-3.17,.62-1.34,0-2.55-.28-3.62-.85Z"/><path class="cls-1" d="M52.1,48.94l-.04-6.79-3.29,5.53h-1.61l-3.28-5.35v6.61h-3.35v-12.82h2.98l4.5,7.4,4.39-7.4h2.98l.04,12.82h-3.33Z"/><path class="cls-1" d="M60.77,48.34c-1.07-.57-1.91-1.36-2.52-2.37s-.92-2.16-.92-3.44,.31-2.43,.92-3.44,1.45-1.8,2.52-2.37c1.07-.57,2.27-.85,3.62-.85,1.17,0,2.23,.21,3.17,.62,.94,.42,1.72,1.01,2.34,1.79l-2.31,2.09c-.83-1-1.84-1.5-3.02-1.5-.7,0-1.32,.15-1.86,.46-.54,.3-.96,.74-1.26,1.29-.3,.56-.45,1.19-.45,1.91s.15,1.36,.45,1.91c.3,.56,.72,.99,1.26,1.29,.54,.31,1.16,.46,1.86,.46,1.18,0,2.19-.5,3.02-1.5l2.31,2.09c-.62,.78-1.4,1.38-2.34,1.79-.94,.42-2,.62-3.17,.62-1.34,0-2.55-.28-3.62-.85Z"/></g></g></g></svg>