<?xml version="1.0" encoding="UTF-8"?><svg id="Layer_2" xmlns="http://www.w3.org/2000/svg" viewBox="0 0 80 76.98"><defs><style>.cls-1{fill:#fff;}</style></defs><g id="work"><g><path class="cls-1" d="M14.56,37.59H6.62c-.35,0-.64,.29-.64,.64,0,.35,.29,.64,.64,.64h7.94c.25,1.08,1.09,1.92,2.16,2.17v3.21c0,.35,.29,.64,.64,.64s.64-.29,.64-.64v-3.21c1.07-.25,1.91-1.09,2.16-2.16H59.83c.25,1.07,1.09,1.91,2.16,2.16v3.21c0,.35,.29,.64,.64,.64s.64-.29,.64-.64v-3.21c1.07-.25,1.91-1.09,2.16-2.16h7.94c.35,0,.64-.29,.64-.64s-.29-.64-.64-.64h-7.94c-.35-1.55-1.89-2.52-3.44-2.17-1.08,.24-1.93,1.09-2.17,2.17h-19.19v-3.81c0-.35-.29-.64-.64-.64s-.64,.29-.64,.64v3.8H20.17c-.35-1.55-1.89-2.52-3.44-2.17-1.08,.24-1.93,1.09-2.17,2.17h0Zm48.08-.96c.89,0,1.61,.72,1.61,1.6,0,.89-.72,1.61-1.6,1.61h0c-.89,0-1.6-.72-1.6-1.6s.72-1.6,1.6-1.6h0Zm-43.65,1.6c0,.88-.72,1.59-1.6,1.6-.89,0-1.6-.72-1.6-1.6,0-.89,.72-1.6,1.6-1.6s1.6,.72,1.6,1.6c0,0,0,0,0,0h0Z"/><path class="cls-1" d="M55,25.52c1.3,0,2.36-1.06,2.36-2.36h0V2.36c0-1.3-1.06-2.36-2.36-2.36H25c-1.29,.02-2.33,1.07-2.33,2.36V23.14c0,1.3,1.06,2.36,2.36,2.36h9.99l-.73,3.4h-2.9c-.35,0-.64,.29-.64,.64s.29,.64,.64,.64h17.22c.35,0,.64-.29,.64-.64s-.29-.64-.64-.64h-2.9l-.73-3.4h10.02ZM25,1.28h30c.59,0,1.07,.48,1.08,1.07V19.05H23.95V2.36c0-.58,.47-1.05,1.05-1.07h0Zm-1.05,21.87v-2.86H56.11v2.86c0,.6-.48,1.08-1.08,1.08H25c-.58-.02-1.05-.5-1.05-1.08h0Zm20.48,5.78h-8.83l.73-3.4h7.34l.76,3.4Z"/><path class="cls-1" d="M40.46,21.88c-.06-.06-.13-.11-.21-.14-.12-.05-.24-.06-.37-.04l-.12,.04-.11,.06s-.07,.05-.1,.08c-.06,.06-.11,.13-.14,.21-.03,.08-.05,.16-.05,.25,0,.08,.02,.17,.05,.24,.03,.08,.08,.15,.14,.21,.12,.12,.28,.19,.45,.19,.17,0,.34-.07,.46-.19,.12-.12,.19-.28,.19-.45,0-.09-.01-.17-.04-.25-.04-.08-.08-.14-.14-.21Z"/><path class="cls-1" d="M12.4,72.27l-.73,3.4h-2.91c-.35,0-.64,.29-.64,.64s.29,.64,.64,.64H25.97c.35,0,.64-.29,.64-.64s-.29-.64-.64-.64h-2.9l-.73-3.4h10.02c1.29,0,2.35-1.04,2.36-2.34v-20.82c0-1.3-1.05-2.36-2.35-2.36,0,0,0,0,0,0H2.36c-1.3,0-2.36,1.06-2.36,2.36v20.82c0,1.3,1.05,2.36,2.36,2.36l10.04-.03Zm9.39,3.4H12.96l.73-3.4h7.34l.75,3.4ZM2.38,48.07h29.99c.59,0,1.07,.49,1.07,1.08v16.65H1.28v-16.68c0-.59,.48-1.07,1.07-1.08l.02,.03Zm-1.09,21.86v-2.86H33.44v2.86c0,.59-.48,1.07-1.07,1.08H2.36c-.59,0-1.07-.49-1.07-1.08Z"/><path class="cls-1" d="M17.36,69.73c.17,0,.34-.07,.46-.19,.12-.12,.19-.28,.19-.45,0-.04,0-.09,0-.13-.02-.08-.05-.16-.1-.23l-.08-.1c-.18-.18-.46-.24-.7-.14-.09,.03-.18,.09-.24,.16-.03,.03-.05,.06-.08,.1-.05,.07-.08,.15-.1,.23,0,.04,0,.09,0,.13,0,.17,.07,.33,.19,.45,.12,.12,.29,.18,.46,.17h0Z"/><path class="cls-1" d="M80,66.4v-17.29c0-1.3-1.05-2.36-2.36-2.36h-30.01c-1.3,0-2.36,1.05-2.36,2.36,0,0,0,0,0,0v20.82c0,1.3,1.05,2.36,2.35,2.36,0,0,0,0,0,0h10.02l-.73,3.4h-2.9c-.35,0-.64,.29-.64,.64s.29,.64,.64,.64h17.22c.35,0,.64-.29,.64-.64s-.29-.64-.64-.64h-2.9l-.73-3.4h10.03c1.3,0,2.36-1.06,2.36-2.36v-3.53Zm-32.37-18.37h30.01c.59,0,1.07,.49,1.07,1.08v16.65H46.56v-16.65c0-.59,.48-1.07,1.07-1.08Zm19.41,27.64h-8.8l.73-3.4h7.35l.72,3.4Zm10.61-4.69h-30.01c-.58,0-1.06-.47-1.07-1.05v-2.86h32.16v2.86c-.01,.58-.49,1.05-1.07,1.05Z"/><path class="cls-1" d="M63.23,68.84l-.06-.11-.06-.08c-.25-.25-.65-.25-.91,0l-.08,.1-.06,.11s0,.08,0,.12c0,.04,0,.09,0,.13,0,.17,.07,.33,.19,.45,.25,.25,.66,.25,.91,0,.12-.12,.19-.28,.19-.45,0-.04,0-.09,0-.13l-.12-.14Z"/></g></g></svg>