<?xml version="1.0" encoding="UTF-8"?><svg id="Layer_2" xmlns="http://www.w3.org/2000/svg" viewBox="0 0 68.68 68.68"><defs><style>.cls-1{fill:#fff;}</style></defs><g id="work"><g><path class="cls-1" d="M40.78,28.8h.01s.02,0,.02,0l11.07-2.5c1.68-.32,2.83-1.88,2.57-3.49-.13-.81-.58-1.52-1.26-2-.69-.49-1.57-.68-2.41-.53l-9.22,1.44c-1.58,.25-3.2,.41-4.81,.5-.36,.02-.64,.33-.62,.69,.02,.35,.31,.62,.66,.62,0,0,.02,0,.03,0,1.64-.08,3.3-.26,4.94-.51l9.23-1.44s.03,0,.03,0c.49-.09,1,.02,1.42,.31,.39,.28,.65,.68,.72,1.14,.15,.91-.54,1.81-1.52,1.99t-.03,0l-11.08,2.5c-.8,.15-1.38,.85-1.38,1.64,0,6.9,1.03,12.55,3.69,20.18l1.31,3.77c.17,.49,.14,1.01-.09,1.48-.24,.49-.67,.85-1.21,1.03-.22,.07-.45,.11-.67,.11-.89,0-1.69-.55-1.97-1.36l-5.04-13.39c-.13-.35-.46-.57-.83-.57s-.7,.22-.83,.57l-5.04,13.37c-.18,.51-.55,.93-1.05,1.17-.52,.25-1.11,.27-1.66,.08-1.03-.37-1.57-1.52-1.21-2.55l1.29-3.7c2.66-7.62,3.69-13.28,3.69-20.18,0-.8-.58-1.49-1.38-1.64l-11.09-2.5s0,0,0,0c0,0,0,0-.02,0h-.01c-.99-.19-1.67-1.08-1.52-1.99,.07-.46,.33-.86,.72-1.14,.42-.29,.93-.4,1.43-.31l9.24,1.44c1.65,.26,3.33,.43,5,.51h.02c.36,0,.65-.27,.67-.62,0-.17-.05-.34-.17-.47s-.28-.21-.45-.21c-1.61-.08-3.25-.25-4.86-.5l-9.22-1.44c-.19-.03-.38-.05-.57-.05-.66,0-1.32,.21-1.85,.58-.68,.48-1.13,1.19-1.26,2-.26,1.61,.89,3.17,2.56,3.49l11.09,2.5s0,0,0,0c0,0,0,0,.01,0h.01c.19,.04,.32,.19,.32,.36,0,6.74-1.01,12.28-3.62,19.75l-1.29,3.7c-.59,1.71,.3,3.6,2,4.21,.88,.32,1.83,.27,2.67-.13,.81-.39,1.42-1.06,1.72-1.89l4.5-11.95c.02-.05,.07-.09,.13-.09s.11,.03,.13,.09l4.5,11.95c.47,1.34,1.76,2.23,3.2,2.23,.36,0,.73-.06,1.07-.17,.87-.28,1.57-.89,1.97-1.69,.39-.78,.44-1.67,.16-2.49l-1.31-3.77c-2.6-7.47-3.62-13.01-3.62-19.75,0-.17,.13-.32,.32-.36Z"/><path class="cls-1" d="M39.73,15.68c0-2.97-2.42-5.39-5.39-5.39s-5.39,2.42-5.39,5.39,2.42,5.39,5.39,5.39,5.39-2.42,5.39-5.39Zm-9.48,0c0-2.25,1.83-4.08,4.08-4.08s4.08,1.83,4.08,4.08-1.83,4.08-4.08,4.08-4.08-1.83-4.08-4.08Z"/><path class="cls-1" d="M58.62,10.06C52.14,3.57,43.51,0,34.34,0S16.54,3.57,10.06,10.06C3.57,16.54,0,25.17,0,34.34s3.57,17.8,10.06,24.28c6.49,6.49,15.11,10.06,24.28,10.06s17.8-3.57,24.28-10.06c6.49-6.49,10.06-15.11,10.06-24.28s-3.57-17.8-10.06-24.28Zm-.93,47.64c-6.24,6.24-14.53,9.67-23.36,9.67s-17.12-3.44-23.36-9.67C4.75,51.46,1.31,43.16,1.31,34.34S4.75,17.22,10.98,10.98C17.22,4.75,25.52,1.31,34.34,1.31s17.12,3.44,23.36,9.68c6.24,6.24,9.68,14.53,9.68,23.36s-3.44,17.12-9.68,23.36Z"/><path class="cls-1" d="M62.83,25.68c-1.98-6.48-6.13-12.14-11.68-15.93-.15-.1-.32-.13-.49-.1-.17,.03-.32,.13-.42,.27-.1,.15-.14,.32-.1,.49,.03,.17,.13,.32,.27,.42,11.05,7.55,15.36,22,10.26,34.38-4.42,10.7-14.76,17.61-26.36,17.61-3.72,0-7.37-.73-10.83-2.15C8.96,54.67,2.03,37.99,8.02,23.48,14.01,8.96,30.69,2.03,45.21,8.02c.16,.07,.34,.07,.5,0,.16-.07,.29-.19,.35-.35,.07-.16,.07-.34,0-.5-.07-.16-.19-.29-.35-.35-3.64-1.5-7.45-2.26-11.34-2.26s-7.78,.78-11.45,2.3c-7.35,3.06-13.07,8.78-16.1,16.13-3.03,7.34-3.02,15.44,.04,22.79,3.06,7.35,8.78,13.07,16.13,16.11,3.62,1.49,7.43,2.25,11.32,2.25,12.13,0,22.95-7.23,27.57-18.42,2.62-6.34,2.96-13.46,.95-20.03Z"/></g></g></svg>