<?xml version="1.0" encoding="UTF-8"?><svg id="Layer_2" xmlns="http://www.w3.org/2000/svg" viewBox="0 0 103.07 78.26"><defs><style>.cls-1{fill:#fff;}</style></defs><g id="work"><g><path class="cls-1" d="M103.07,10.87c0-.44-.36-.81-.81-.81h-7.27c-.23,0-.41-.18-.41-.41V2.02c0-.23,.18-.41,.41-.41h7.27c.44,0,.81-.36,.81-.8s-.36-.81-.81-.81H28.86c-.44,0-.8,.36-.8,.81s.36,.8,.8,.8h4.99c.23,0,.41,.18,.41,.41v7.63c0,.23-.18,.41-.41,.41h-12.69c-.45,0-.81,.36-.81,.81s.36,.81,.81,.81H102.27c.44,0,.81-.37,.81-.81Zm-57.07-1.22c0,.23-.18,.41-.41,.41h-9.31c-.23,0-.41-.18-.41-.41V2.02c0-.23,.18-.41,.41-.41h9.31c.23,0,.41,.18,.41,.41v7.63Zm11.74,0c0,.23-.18,.41-.41,.41h-9.31c-.23,0-.41-.18-.41-.41V2.02c0-.23,.18-.41,.41-.41h9.31c.23,0,.41,.18,.41,.41v7.63Zm11.74,0c0,.23-.18,.41-.41,.41h-9.31c-.23,0-.41-.18-.41-.41V2.02c0-.23,.18-.41,.41-.41h9.31c.23,0,.41,.18,.41,.41v7.63Zm11.74,0c0,.23-.18,.41-.41,.41h-9.31c-.23,0-.41-.18-.41-.41V2.02c0-.23,.18-.41,.41-.41h9.31c.23,0,.41,.18,.41,.41v7.63Zm11.74,0c0,.23-.18,.41-.41,.41h-9.31c-.23,0-.41-.18-.41-.41V2.02c0-.23,.18-.41,.41-.41h9.31c.23,0,.41,.18,.41,.41v7.63Z"/><path class="cls-1" d="M103.07,77.46c0-.44-.36-.81-.81-.81h-7.27c-.23,0-.41-.18-.41-.41v-7.63c0-.23,.18-.41,.41-.41h7.27c.44,0,.81-.36,.81-.81s-.36-.81-.81-.81H21.16c-.45,0-.81,.37-.81,.82s.36,.81,.81,.81h11.49s.06-.01,.09-.01h1.11c.23,0,.41,.18,.41,.41v7.63c0,.23-.18,.41-.41,.41h-4.99c-.44,0-.8,.36-.8,.81s.36,.81,.8,.81H102.27c.44,0,.81-.36,.81-.81Zm-57.07-1.22c0,.23-.18,.41-.41,.41h-9.31c-.23,0-.41-.18-.41-.41v-7.63c0-.23,.18-.41,.41-.41h9.31c.23,0,.41,.18,.41,.41v7.63Zm11.74,0c0,.23-.18,.41-.41,.41h-9.31c-.23,0-.41-.18-.41-.41v-7.63c0-.23,.18-.41,.41-.41h9.31c.23,0,.41,.18,.41,.41v7.63Zm11.74,0c0,.23-.18,.41-.41,.41h-9.31c-.23,0-.41-.18-.41-.41v-7.63c0-.23,.18-.41,.41-.41h9.31c.23,0,.41,.18,.41,.41v7.63Zm11.74,0c0,.23-.18,.41-.41,.41h-9.31c-.23,0-.41-.18-.41-.41v-7.63c0-.23,.18-.41,.41-.41h9.31c.23,0,.41,.18,.41,.41v7.63Zm11.74,0c0,.23-.18,.41-.41,.41h-9.31c-.23,0-.41-.18-.41-.41v-7.63c0-.23,.18-.41,.41-.41h9.31c.23,0,.41,.18,.41,.41v7.63Z"/><path class="cls-1" d="M36.74,59.85v-5.61c0-.42-.36-.79-.81-.79s-.81,.36-.81,.81h0v6.81c0,.44,.36,.81,.81,.81h60.48c.44,0,.81-.36,.81-.81V17.2c0-.44-.36-.81-.81-.81H35.94c-.44,0-.81,.36-.81,.81v6.84c0,.42,.36,.79,.81,.79s.81-.36,.81-.81v-5.6c0-.23,.18-.41,.41-.41h58.05c.23,0,.41,.18,.41,.41V59.85c0,.23-.18,.41-.41,.41H37.15c-.23,0-.41-.18-.41-.41Z"/><path class="cls-1" d="M53.01,28.73c0-.45-.37-.82-.82-.82H25.34c-.45,0-.82,.37-.82,.82s.37,.82,.82,.82h26.85c.45,0,.82-.37,.82-.82Z"/><path class="cls-1" d="M53.01,39.57c0-.45-.37-.82-.82-.82h-14.95c-.45,0-.82,.37-.82,.82s.37,.82,.82,.82h14.95c.45,0,.82-.37,.82-.82Z"/><path class="cls-1" d="M30.38,39.63c0-.45-.37-.82-.82-.82h-8.44c-.45,0-.82,.37-.82,.82s.37,.82,.82,.82h8.44c.45,0,.82-.37,.82-.82Z"/><path class="cls-1" d="M11.38,49.53c0-.45-.37-.82-.82-.82H5.88c-.45,0-.82,.37-.82,.82s.37,.82,.82,.82h4.68c.45,0,.82-.37,.82-.82Z"/><path class="cls-1" d="M40.67,49.53c0-.45-.37-.82-.82-.82H17.71c-.45,0-.82,.37-.82,.82s.37,.82,.82,.82h22.13c.45,0,.82-.37,.82-.82Z"/><path class="cls-1" d="M16.47,38.81H.82c-.45,0-.82,.37-.82,.82s.37,.82,.82,.82h15.65c.45,0,.82-.37,.82-.82s-.37-.82-.82-.82Z"/><path class="cls-1" d="M10.56,29.56h8.01c.45,0,.82-.37,.82-.82s-.37-.82-.82-.82H10.56c-.45,0-.82,.37-.82,.82s.37,.82,.82,.82Z"/><path class="cls-1" d="M60.26,50.25l18.12-10.46c.23-.13,.38-.39,.38-.66s-.15-.52-.38-.66l-18.12-10.46c-.23-.13-.52-.13-.76,0-.23,.13-.38,.39-.38,.66v20.92c0,.27,.14,.52,.38,.66,.23,.13,.53,.13,.76,0Zm.38-20.27l.11,.06,15.74,9.09-15.85,9.15V29.98Z"/></g></g></svg>