<?xml version="1.0" encoding="UTF-8"?><svg id="Layer_2" xmlns="http://www.w3.org/2000/svg" viewBox="0 0 74.65 76.06"><defs><style>.cls-1{fill:#fff;}</style></defs><g id="work"><g><path class="cls-1" d="M73.4,35.78c.96-.96,1.4-2.33,1.19-3.67l-3.84-24c-.28-1.77-1.66-3.17-3.42-3.5L42.74,.07c-1.39-.25-2.79,.19-3.77,1.17L1.24,39.01c-1.65,1.66-1.65,4.35,0,6l3.38,3.37c.18,.18,.43,.28,.7,.28h0c.27,0,.52-.1,.7-.28,.38-.39,.38-1.01,0-1.39l-3.38-3.37c-.89-.88-.89-2.33,0-3.21L40.36,2.64c.43-.43,1.01-.67,1.61-.67,.14,0,.27,.01,.41,.04l24.6,4.54c.94,.17,1.68,.93,1.83,1.87l3.84,24c.11,.72-.12,1.45-.64,1.96l-12.59,12.61c-.19,.19-.29,.43-.29,.7s.1,.51,.29,.7c.38,.38,1.01,.38,1.39,0l12.59-12.61Z"/><path class="cls-1" d="M61.76,21.83c2.45-2.6,2.18-5.76,.82-7.74-1.1-1.59-2.92-2.55-4.89-2.55-.87,0-1.76,.18-2.63,.55-.5,.21-.96,.52-1.33,.92-2.45,2.6-2.18,5.76-.82,7.74,1.61,2.34,4.7,3.16,7.52,2,.5-.21,.96-.52,1.33-.92h0Zm-1.44-1.35c-.18,.19-.41,.35-.65,.44-.65,.27-1.3,.41-1.92,.41-1.31,0-2.48-.62-3.23-1.7-.88-1.29-1.18-3.35,.63-5.27,.18-.19,.4-.34,.65-.44,2.01-.83,4.03-.33,5.15,1.29,.89,1.29,1.19,3.34-.63,5.27Z"/><path class="cls-1" d="M52.98,55.36c-.15-.37-.51-.61-.91-.61h-11.12V31.48c0-.54-.44-.99-.99-.99h-14.49c-.54,0-.99,.44-.99,.99v23.27H13.38c-.4,0-.76,.24-.91,.61-.15,.37-.07,.79,.21,1.08l19.37,19.35c.17,.17,.43,.27,.7,.27h0c.27,0,.52-.1,.69-.27l19.33-19.35c.28-.28,.37-.71,.21-1.07Zm-3.5,1.58l-16.74,16.76-.09-.09L15.76,56.72h9.72c.54,0,.99-.44,.99-.99v-23.27h12.52v23.27c0,.26,.1,.51,.29,.7,.19,.19,.43,.29,.7,.29h9.72l-.21,.21Z"/></g></g></svg>