<?xml version="1.0" encoding="UTF-8"?><svg id="Layer_2" xmlns="http://www.w3.org/2000/svg" viewBox="0 0 78.13 88"><defs><style>.cls-1{fill:#fff;}</style></defs><g id="work"><g><path class="cls-1" d="M72.58,68.02s0,0,0,0c-.34-.23-.8-.14-1.03,.2,0,0,0,0,0,0-1.49,2.21-3.19,4.27-5.07,6.16-.29,.29-.29,.76,0,1.05,0,0,0,0,0,0,.29,.29,.76,.29,1.05,0,0,0,0,0,0,0v-.03c1.95-1.95,3.7-4.07,5.25-6.35,.23-.34,.14-.8-.2-1.03Z"/><path class="cls-1" d="M30.88,3.37c-.07-.41-.45-.69-.86-.62-1.65,.28-3.28,.65-4.88,1.11-.41,.06-.69,.44-.64,.84,.06,.41,.44,.69,.84,.64v-.04c.07,.01,.14,.01,.21,0,1.55-.45,3.12-.81,4.71-1.07,.41-.07,.69-.45,.62-.86Z"/><path class="cls-1" d="M16.79,8.18c-.19-.36-.64-.5-1-.31-.02,0-.04,.02-.05,.03-3.56,2.06-6.8,4.62-9.63,7.6-.28,.3-.27,.77,.03,1.05,.14,.13,.32,.2,.51,.2l-.03-.04c.2,0,.39-.08,.53-.23,2.75-2.87,5.89-5.33,9.34-7.31,.36-.19,.5-.64,.31-1Z"/><path class="cls-1" d="M3.14,20.13c-.33-.24-.8-.17-1.04,.16-.7,1-1.38,2.04-1.99,3.09-.21,.35-.09,.81,.26,1.02,.11,.07,.24,.1,.38,.1,.26,0,.5-.14,.64-.36,.6-1.02,1.24-2.02,1.93-2.96,.24-.33,.17-.8-.16-1.04Z"/><path class="cls-1" d="M37.16,86.52c-6.9,0-13.68-1.72-19.75-5-.36-.2-.81-.08-1.02,.28s-.08,.81,.28,1.02c6.29,3.41,13.34,5.19,20.49,5.19,.41,0,.74-.33,.74-.74s-.33-.74-.74-.74Z"/><path class="cls-1" d="M56.31,82.67c-.18-.37-.62-.52-.99-.34-1.38,.68-2.79,1.27-4.24,1.79-.38,.14-.58,.56-.44,.95,.11,.29,.38,.49,.7,.49,.09,0,.17-.02,.25-.04,1.5-.53,2.96-1.15,4.39-1.84,.37-.18,.52-.62,.34-.99Z"/><path class="cls-1" d="M62.07,8.21c-4.36,0-7.89,3.53-7.89,7.89v.02c.02,4.35,3.54,7.86,7.89,7.87,4.36,0,7.89-3.53,7.89-7.89s-3.53-7.89-7.89-7.89Zm0,14.31c-3.54,0-6.41-2.87-6.41-6.41,.01-3.53,2.88-6.39,6.41-6.39h0c3.54-.01,6.41,2.85,6.41,6.39s-2.87,6.41-6.41,6.41Z"/><g><path class="cls-1" d="M2.27,45.09s0,0,0,0c0,0,0,0,0-.01v.02Z"/><path class="cls-1" d="M78.13,16.08C78.15,7.22,70.97,.02,62.11,0c-7.13-.01-13.42,4.68-15.43,11.53C28.14,6.26,8.86,17.02,3.59,35.55c-.88,3.1-1.33,6.31-1.33,9.53-.01,19.26,15.59,34.89,34.85,34.91,19.27,.02,34.9-15.58,34.93-34.85,0-3.8-.61-7.58-1.83-11.19,5.05-7.99,7.92-14.38,7.92-17.87Zm-47.96-3.67c-5.51,3.63-9.87,11.4-11.85,21.14H5.8c3.97-10.75,13.17-18.73,24.37-21.14ZM5.3,35.03h12.75c-1.13,6.64-1.13,13.43,0,20.07H5.3c-2.06-6.53-2.06-13.54,0-20.07Zm.5,21.56h12.52c1.96,9.74,6.31,17.51,11.85,21.14-11.21-2.42-20.4-10.39-24.37-21.14Zm30.61,21.86c-7.62-.55-14.08-9.49-16.6-21.86h16.6v21.86h0Zm0-23.34H19.54c-.57-3.32-.86-6.68-.85-10.05,0-3.36,.28-6.72,.85-10.03h2.73c.41,0,.74-.33,.74-.74s-.33-.74-.74-.74h-2.47c2.52-12.37,8.97-21.31,16.6-21.86v21.86h-8.71c-.41,0-.74,.33-.74,.74s.33,.74,.74,.74h8.72v20.08ZM47.49,15.53c.04-.97,.17-1.93,.39-2.87,1.58-6.56,7.44-11.18,14.19-11.17,8.05,0,14.57,6.53,14.58,14.58,0,4.38-5.33,14.42-13.91,26.21-.28,.37-.8,.44-1.16,.16-.06-.05-.12-.1-.16-.16-8.59-11.89-13.92-21.94-13.92-26.21v-.53Zm-1.17-2.57c-.07,.3-.12,.67-.16,.96-.61-.54-1.26-1.03-1.94-1.48,.74,.16,1.41,.33,2.1,.53Zm-8.42,43.64h12.24c.41,0,.74-.33,.74-.74s-.33-.74-.74-.74h-12.24v-20.08h13.55c.41,0,.74-.33,.74-.74s-.33-.74-.74-.74h-13.55V11.69c1.9,.16,3.73,.79,5.33,1.84,1.01,.66,1.95,1.44,2.79,2.31v.25c0,3.56,3.2,10.48,8.79,19.15,.55,3.24,.83,6.53,.82,9.82,0,17.97-7.89,32.67-17.74,33.38v-21.85h0Zm32.67-11.53h0c0,3.41-.52,6.8-1.54,10.05h-7.61c-.41,0-.74,.33-.74,.74s.33,.74,.74,.74h7.11c-3.97,10.74-13.15,18.72-24.35,21.14,7.55-4.98,12.94-17.74,12.94-32.67,0-2.32-.14-4.63-.4-6.93,1.1,1.63,2.26,3.3,3.5,5.03,.77,1.02,2.22,1.23,3.25,.46,.17-.13,.33-.28,.46-.46,1.93-2.65,3.67-5.19,5.25-7.6,.92,3.08,1.39,6.28,1.39,9.5Z"/></g></g></g></svg>