<?xml version="1.0" encoding="UTF-8"?><svg id="Layer_2" xmlns="http://www.w3.org/2000/svg" viewBox="0 0 99.76 61"><defs><style>.cls-1{fill:#fff;}</style></defs><g id="work"><path class="cls-1" d="M77.71,61h-8.98c-1.13,0-2.05-.9-2.05-2.01l-.03-3.08c-10.79,.58-22.4,.59-32.88,.02l-.03,3.06c0,1.1-.92,2.01-2.05,2.01h-8.98c-1.13,0-2.05-.9-2.05-2.01v-17.56c-.04-1.93,.44-3.54,1.42-4.75,.35-.42,1.87-2.23,4-4.78l-1.09-1.09h-4.31c-.41,0-.75-.33-.75-.75s.33-.75,.75-.75h4.62c.2,0,.39,.08,.53,.22l1.21,1.21c1.82-2.18,3.98-4.76,6.2-7.42,.66-.79,1.51-1.25,2.53-1.38,11.35-.73,17-.73,28.81,0,1.07,.13,1.92,.6,2.58,1.39,2.16,2.59,4.25,5.09,6.04,7.22l1.02-1.02c.14-.14,.33-.22,.53-.22h4.62c.41,0,.75,.33,.75,.75s-.33,.75-.75,.75h-4.31l-.89,.89c2.21,2.64,3.79,4.53,4.15,4.96,.99,1.22,1.47,2.82,1.43,4.77v17.54c0,1.11-.92,2.01-2.05,2.01Zm-9.56-5.2l.03,3.18c0,.29,.25,.53,.55,.53h8.98c.3,0,.55-.23,.55-.52v-17.56c.03-1.6-.34-2.88-1.09-3.81-.38-.45-2.09-2.5-4.48-5.35-.03-.02-.05-.04-.08-.07-.06-.06-.1-.12-.14-.19-.23-.27-.46-.55-.69-.83,0,.06,0,.12,0,.18,.01,1.99-1.45,3.4-3.65,3.51-12.06,.61-23.79,.61-35.85,0-2.2-.11-3.67-1.52-3.65-3.51,0-.06,0-.12,0-.18-2.85,3.41-4.97,5.95-5.39,6.45-.74,.92-1.11,2.2-1.08,3.78v17.57c0,.28,.25,.52,.55,.52h8.98c.3,0,.55-.23,.55-.52l.04-3.17-4.06-.41c-.41-.04-.71-.41-.67-.82,.04-.41,.41-.71,.82-.67l4.73,.47c10.87,.62,23.04,.61,34.25-.02l4.93-.45c.4-.03,.77,.27,.81,.68,.04,.41-.27,.77-.68,.81l-4.26,.39ZM32.01,27.15s-.01,.02-.02,.02c-1.84,2.2-1.85,3.17-1.86,4.2,0,1.39,1.15,1.95,2.23,2,12.01,.6,23.69,.6,35.7,0,1.08-.05,2.24-.61,2.23-2.01-.01-1.03-.02-2-1.86-4.2,0,0-.01-.01-.02-.02-.78-.93-1.58-1.9-2.4-2.87-.15-.18-.61-.74-1.57-.85-11.69-.72-17.3-.72-28.54,0-.91,.11-1.37,.67-1.53,.85-.81,.97-1.61,1.93-2.39,2.86Zm62.21,19.29c-.16,0-.32-.05-.46-.16-.33-.25-.38-.72-.13-1.05,6.16-7.91,6.18-18.98,.05-26.91-.25-.33-.19-.8,.13-1.05,.33-.25,.8-.19,1.05,.13,6.55,8.47,6.53,20.3-.05,28.75-.15,.19-.37,.29-.59,.29Zm-88.68,0c-.22,0-.44-.1-.59-.29-6.58-8.45-6.6-20.27-.05-28.75,.25-.33,.72-.39,1.05-.13,.33,.25,.39,.72,.13,1.05C-.05,26.25-.03,37.32,6.13,45.23c.25,.33,.2,.8-.13,1.05-.14,.11-.3,.16-.46,.16Zm28.58-3.63s-.06,0-.09,0l-8.48-1.02c-.41-.05-.7-.42-.65-.83s.42-.71,.83-.65l8.48,1.02c.41,.05,.7,.42,.65,.83-.05,.38-.37,.66-.74,.66Zm32.18,0c-.37,0-.7-.28-.74-.66-.05-.41,.24-.78,.65-.83l8.48-1.02c.41-.06,.78,.24,.83,.65s-.24,.78-.65,.83l-8.48,1.02s-.06,0-.09,0Zm23.82-.11c-.15,0-.31-.05-.44-.15-.33-.25-.4-.71-.16-1.05,4.24-5.73,4.25-13.75,.04-19.49-.24-.33-.17-.8,.16-1.04,.33-.25,.8-.17,1.05,.16,4.6,6.27,4.58,15.01-.04,21.27-.15,.2-.37,.3-.6,.3Zm-80.48,0c-.23,0-.46-.11-.6-.3-4.62-6.25-4.64-15-.04-21.27,.24-.33,.71-.41,1.05-.16,.33,.24,.41,.71,.16,1.04-4.22,5.75-4.2,13.76,.04,19.49,.25,.33,.18,.8-.16,1.05-.13,.1-.29,.15-.44,.15Zm4.12-3.75c-.24,0-.48-.12-.62-.33-2.73-4.1-2.74-9.61-.02-13.72,.23-.34,.69-.44,1.04-.21,.34,.23,.44,.69,.21,1.04-2.39,3.61-2.38,8.46,.02,12.07,.23,.34,.14,.81-.21,1.04-.13,.08-.27,.13-.41,.13Zm72.25,0c-.14,0-.29-.04-.41-.13-.34-.23-.44-.69-.21-1.04,2.4-3.61,2.41-8.46,.02-12.07-.23-.34-.13-.81,.21-1.04,.34-.23,.81-.13,1.04,.21,2.72,4.11,2.71,9.62-.02,13.72-.14,.22-.38,.33-.62,.33ZM43.45,14.5c-.24,0-.48-.12-.62-.33-.23-.34-.14-.81,.21-1.04,4.1-2.73,9.61-2.74,13.72-.03,.34,.23,.44,.69,.21,1.04-.23,.34-.69,.44-1.04,.21-3.62-2.39-8.46-2.38-12.07,.02-.13,.08-.27,.13-.41,.13Zm-3.75-4.12c-.23,0-.46-.11-.6-.3-.25-.33-.18-.8,.16-1.05,6.25-4.62,14.99-4.64,21.27-.04,.33,.24,.4,.71,.16,1.04s-.71,.41-1.05,.16c-5.75-4.22-13.76-4.2-19.49,.04-.13,.1-.29,.15-.44,.15Zm-3.74-4.1c-.22,0-.44-.1-.59-.29-.25-.33-.2-.8,.13-1.05,8.45-6.58,20.27-6.6,28.75-.05,.33,.25,.39,.72,.13,1.05-.25,.33-.72,.39-1.05,.13C55.4-.05,44.34-.03,36.42,6.13c-.14,.11-.3,.16-.46,.16Z"/></g></svg>