<?xml version="1.0" encoding="UTF-8"?><svg id="Layer_2" xmlns="http://www.w3.org/2000/svg" viewBox="0 0 80.42 80.42"><defs><style>.cls-1{fill:none;}.cls-2{fill:#fff;}</style></defs><g id="work"><g><path class="cls-1" d="M40.1,54.65c-2.77,0-5.02,2.25-5.02,5.02s2.25,5.02,5.02,5.02,5.02-2.25,5.02-5.02-2.25-5.02-5.02-5.02Z"/><path class="cls-1" d="M40.1,15.73c-5.58,0-10.49,2.97-13.83,8.38l6.69,3.83c1.91-2.99,4.31-4.5,7.13-4.5,3.52,0,6.38,2.92,6.38,6.5,0,2.8-2.07,4.13-5.23,5.84-2.23,1.2-5.01,2.7-5.01,5.91v5.62c0,.31,.25,.56,.56,.56h6.6c.31,0,.56-.24,.56-.55,.11-3.75,.5-4.29,.66-4.52,.68-.95,1.79-1.78,3.08-2.73,2.88-2.14,6.47-4.8,6.47-10.12,0-7.83-6.32-14.21-14.09-14.21Z"/><path class="cls-1" d="M72.05,62.04c4.43-6.45,6.77-13.99,6.77-21.83C78.82,18.92,61.5,1.6,40.21,1.6S1.6,18.92,1.6,40.21s17.32,38.61,38.61,38.61c7.84,0,15.39-2.34,21.83-6.77,.21-.15,.48-.18,.73-.09l14.39,5.2-5.2-14.4c-.09-.24-.05-.51,.09-.72Zm-31.95,4.24c-3.65,0-6.62-2.97-6.62-6.62s2.97-6.62,6.62-6.62,6.62,2.97,6.62,6.62-2.97,6.62-6.62,6.62Zm8.58-24.93c-1.18,.88-2.2,1.63-2.73,2.38-.09,.18-.3,1.18-.37,3.64-.04,1.18-.99,2.1-2.16,2.1h-6.6c-1.19,0-2.16-.97-2.16-2.16v-5.62c0-4.16,3.52-6.06,5.85-7.32,3.49-1.88,4.39-2.79,4.39-4.43,0-2.7-2.15-4.9-4.78-4.9-2.26,0-4.23,1.29-5.83,3.83-.43,.68-1.31,.91-2,.51l-6.88-3.94c-.35-.2-.61-.54-.71-.93-.1-.39-.04-.8,.17-1.15,3.64-5.96,9.06-9.24,15.25-9.24,8.65,0,15.69,7.09,15.69,15.8,0,6.13-4.11,9.18-7.11,11.41Z"/><path class="cls-2" d="M40.1,14.13c-6.19,0-11.61,3.28-15.25,9.24-.21,.35-.27,.75-.17,1.15,.1,.39,.36,.73,.71,.93l6.88,3.94c.69,.4,1.57,.17,2-.51,1.6-2.54,3.57-3.83,5.83-3.83,2.64,0,4.78,2.2,4.78,4.9,0,1.63-.9,2.55-4.39,4.43-2.33,1.26-5.85,3.15-5.85,7.32v5.62c0,1.19,.97,2.16,2.16,2.16h6.6c1.18,0,2.13-.92,2.16-2.1,.07-2.46,.27-3.46,.37-3.64,.53-.75,1.55-1.5,2.73-2.38,3-2.23,7.11-5.28,7.11-11.41,0-8.71-7.04-15.8-15.69-15.8Zm7.62,25.93c-1.29,.96-2.4,1.78-3.08,2.73-.17,.23-.55,.78-.66,4.52,0,.31-.26,.55-.56,.55h-6.6c-.31,0-.56-.25-.56-.56v-5.62c0-3.21,2.78-4.71,5.01-5.91,3.16-1.71,5.23-3.03,5.23-5.84,0-3.58-2.86-6.5-6.38-6.5-2.83,0-5.23,1.52-7.13,4.5l-6.69-3.83c3.34-5.4,8.25-8.38,13.83-8.38,7.77,0,14.09,6.37,14.09,14.21,0,5.33-3.59,7.99-6.47,10.12Z"/><path class="cls-2" d="M40.1,53.05c-3.65,0-6.62,2.97-6.62,6.62s2.97,6.62,6.62,6.62,6.62-2.97,6.62-6.62-2.97-6.62-6.62-6.62Zm0,11.63c-2.77,0-5.02-2.25-5.02-5.02s2.25-5.02,5.02-5.02,5.02,2.25,5.02,5.02-2.25,5.02-5.02,5.02Z"/><path class="cls-2" d="M73.6,62.6c4.46-6.64,6.82-14.37,6.82-22.4C80.42,18.04,62.38,0,40.21,0S0,18.04,0,40.21s18.04,40.21,40.21,40.21c8.02,0,15.76-2.36,22.4-6.82l15.61,5.64c.29,.11,.62,.03,.84-.19,.22-.22,.29-.55,.19-.84l-5.64-15.62Zm-10.84,9.35c-.24-.09-.51-.05-.73,.09-6.44,4.43-13.99,6.77-21.83,6.77C18.92,78.82,1.6,61.5,1.6,40.21S18.92,1.6,40.21,1.6s38.61,17.32,38.61,38.61c0,7.84-2.34,15.38-6.77,21.83-.15,.21-.18,.48-.09,.72l5.2,14.4-14.39-5.2Z"/></g></g></svg>