<?xml version="1.0" encoding="UTF-8"?><svg id="Layer_2" xmlns="http://www.w3.org/2000/svg" viewBox="0 0 83.94 83.94"><defs><style>.cls-1{fill:#fff;}</style></defs><g id="work"><g><path class="cls-1" d="M82.16,73.81h0s-24.52-24.52-24.52-24.52c-.33-.33-.38-.85-.13-1.24,7.86-12.26,6.09-28.63-4.2-38.92C47.41,3.24,39.57,0,31.22,0S15.02,3.24,9.13,9.13C3.24,15.02,0,22.86,0,31.21s3.24,16.19,9.13,22.08c5.89,5.89,13.73,9.13,22.09,9.13,5.98,0,11.81-1.7,16.84-4.93,.16-.1,.35-.16,.54-.16,.27,0,.52,.1,.7,.29l24.52,24.52c1.16,1.15,2.64,1.79,4.17,1.79s3.02-.64,4.17-1.79c1.16-1.16,1.79-2.66,1.78-4.22-.01-1.53-.65-2.99-1.78-4.12Zm-50.94-12.97c-7.93,0-15.37-3.08-20.96-8.67C-1.3,40.61-1.3,21.81,10.26,10.26,15.85,4.67,23.29,1.59,31.22,1.59s15.37,3.08,20.96,8.67c11.56,11.56,11.56,30.36,0,41.92-5.59,5.59-13.04,8.67-20.96,8.67Zm24.23,.28c-.27,0-.52-.1-.7-.29l-3.9-3.9c-.2-.2-.3-.47-.29-.75,.01-.28,.15-.54,.37-.72,.83-.68,1.63-1.4,2.39-2.15,.75-.75,1.48-1.56,2.15-2.39,.18-.22,.44-.35,.72-.37h.05c.27,0,.52,.1,.7,.29l3.9,3.9c.19,.19,.29,.44,.29,.7s-.11,.52-.29,.7l-4.68,4.68c-.19,.19-.44,.29-.7,.29Zm25.59,19.9c-.84,.84-1.93,1.31-3.05,1.31s-2.2-.46-3.05-1.31l-17.67-17.66c-.19-.18-.29-.44-.29-.7s.11-.52,.29-.7l4.68-4.68c.38-.38,1.03-.38,1.41,0l17.67,17.66c.83,.83,1.3,1.9,1.31,3.01,0,1.14-.44,2.21-1.31,3.08Z"/><path class="cls-1" d="M55.29,31.21c0-13.27-10.8-24.07-24.07-24.07S7.15,17.94,7.15,31.21s10.8,24.07,24.07,24.07,24.07-10.8,24.07-24.07ZM10.81,21.85h0c1.93-4.19,5.11-7.68,9.07-10.01,.57-.33,1.15-.64,1.74-.92,.4-.19,.9-.08,1.19,.26,.29,.34,.32,.84,.06,1.21-1.82,2.62-3.23,6.11-4.08,10.09-.1,.46-.51,.79-.97,.79h-6.11c-.34,0-.65-.17-.84-.46-.18-.29-.21-.64-.07-.95Zm-1.33,14.99c-.49-1.89-.74-3.79-.74-5.62s.25-3.73,.74-5.62c.11-.44,.51-.75,.96-.75h6.78c.28,0,.56,.12,.74,.33,.19,.21,.28,.5,.24,.78-.21,1.74-.32,3.51-.32,5.25s.11,3.51,.32,5.25c.03,.28-.05,.57-.24,.78-.19,.21-.46,.33-.74,.33h-6.78c-.45,0-.85-.31-.96-.75Zm13.33,14.42c-.19,.22-.47,.35-.76,.35-.15,0-.29-.03-.43-.1-4.77-2.26-8.61-6.14-10.82-10.93-.04-.08-.06-.16-.08-.24-.04-.24,0-.5,.14-.71,.14-.22,.35-.37,.59-.43,.08-.02,.16-.03,.25-.03h6.11c.47,0,.88,.33,.97,.79,.85,3.98,2.26,7.47,4.08,10.09,.26,.37,.23,.87-.06,1.21Zm7.61,1.1c0,.32-.16,.63-.42,.81-.17,.12-.37,.18-.57,.18-.11,0-.22-.02-.33-.06-3.76-1.33-6.96-6.15-8.56-12.9-.07-.3,0-.61,.19-.85,.19-.24,.47-.38,.78-.38h7.93c.55,0,.99,.45,.99,.99v12.19Zm0-15.77c0,.55-.45,.99-.99,.99h-8.58c-.5,0-.92-.37-.99-.86-.25-1.86-.38-3.71-.38-5.5s.13-3.64,.38-5.5c.07-.49,.49-.86,.99-.86h8.58c.55,0,.99,.45,.99,.99v10.74Zm0-14.32c0,.55-.45,.99-.99,.99h-7.93c-.31,0-.59-.14-.78-.38-.19-.24-.26-.55-.19-.85,1.6-6.75,4.8-11.58,8.56-12.9,.31-.11,.64-.06,.91,.13,.2,.14,.33,.35,.39,.58,.02,.08,.03,.16,.03,.24v12.19Zm22.54,3.33c.43,1.66,.67,3.31,.73,4.93,0,.23,.01,.46,.01,.69,0,1.84-.25,3.73-.74,5.62-.11,.44-.51,.75-.96,.75h-6.78c-.28,0-.56-.12-.74-.33-.19-.21-.28-.5-.24-.78,.21-1.74,.32-3.51,.32-5.25s-.11-3.51-.32-5.25c-.03-.28,.06-.57,.24-.78,.19-.21,.46-.33,.74-.33h6.78c.45,0,.85,.31,.96,.75Zm-13.33-14.42c.29-.34,.79-.44,1.18-.26,4.77,2.26,8.61,6.14,10.82,10.93,.14,.31,.12,.67-.07,.95-.18,.29-.5,.46-.84,.46h-6.11c-.47,0-.88-.33-.97-.79-.63-2.98-1.59-5.69-2.79-7.97-.4-.76-.83-1.47-1.29-2.12-.26-.37-.23-.87,.06-1.21Zm-7.61-1.1c0-.32,.16-.63,.42-.81,.26-.18,.6-.23,.9-.13,3.76,1.33,6.96,6.15,8.56,12.9,.07,.3,0,.61-.19,.85-.19,.24-.47,.38-.78,.38h-7.93c-.55,0-.99-.45-.99-.99V10.07Zm0,15.77c0-.55,.45-.99,.99-.99h8.58c.5,0,.92,.37,.99,.86,.25,1.87,.38,3.72,.38,5.5s-.13,3.64-.38,5.5c-.07,.49-.49,.86-.99,.86h-8.58c-.55,0-.99-.45-.99-.99v-10.74Zm1.33,27.45h0c-.11,.04-.22,.06-.33,.06-.21,0-.41-.06-.57-.18-.26-.19-.42-.49-.42-.81v-12.19c0-.55,.45-.99,.99-.99h7.93c.31,0,.59,.14,.78,.38,.19,.24,.26,.55,.19,.85-1.6,6.75-4.8,11.58-8.56,12.9Zm12.41-4.98c-1.49,1.27-3.15,2.34-4.94,3.19-.13,.06-.28,.1-.43,.1-.29,0-.57-.13-.76-.35-.29-.34-.32-.84-.06-1.21,1.82-2.62,3.23-6.11,4.08-10.09,.1-.46,.51-.79,.97-.79h6.11c.34,0,.65,.17,.84,.46,.18,.29,.21,.64,.07,.95h0c-1.38,2.99-3.4,5.63-5.88,7.74Z"/></g></g></svg>