<?xml version="1.0" encoding="UTF-8"?><svg id="Layer_2" xmlns="http://www.w3.org/2000/svg" viewBox="0 0 85.26 82.17"><defs><style>.cls-1{fill:#fff;}</style></defs><g id="work"><g><path class="cls-1" d="M42.63,48.2c-.52,0-.94-.42-.94-.94v-8.43l-.4-.14c-1.61-.57-2.69-2.09-2.69-3.78,0-2.22,1.81-4.03,4.03-4.03s4.03,1.81,4.03,4.03c0,1.69-1.08,3.2-2.69,3.78l-.4,.14v8.43c0,.52-.42,.94-.94,.94Zm0-15.44c-1.19,0-2.15,.97-2.15,2.15s.96,2.15,2.15,2.15,2.15-.96,2.15-2.15-.96-2.15-2.15-2.15h0Z"/><path class="cls-1" d="M33.36,82.17c-3.07,0-5.57-2.5-5.57-5.57,0-2.53,1.72-4.73,4.18-5.37l.45-.12v-16.74h-8.33c-.52,0-.94-.42-.94-.94v-2.15H12.13l-5.63,5.63v4.93l.46,.12c2.46,.64,4.18,2.84,4.18,5.37,0,3.07-2.5,5.57-5.57,5.57-3.07,0-5.57-2.5-5.57-5.57,0-2.53,1.72-4.73,4.18-5.37l.46-.12v-5.32c0-.25,.1-.49,.27-.66l6.18-6.18c.18-.18,.41-.27,.66-.27h11.42v-8.93H11.06l-.12,.45c-.64,2.46-2.84,4.18-5.37,4.18-3.07,0-5.57-2.5-5.57-5.57s2.5-5.57,5.57-5.57c2.52,0,4.73,1.72,5.37,4.18l.12,.45h12.1v-8.93H11.75c-.25,0-.48-.1-.66-.27l-6.18-6.18c-.18-.18-.27-.41-.27-.66V11.06l-.45-.12C1.72,10.3,0,8.09,0,5.57,0,2.5,2.5,0,5.57,0s5.57,2.5,5.57,5.57c0,2.52-1.72,4.73-4.18,5.37l-.45,.12v11.11l5.63,5.63h11.03v-2.15c0-.52,.42-.94,.94-.94h5.24V13.29c0-7.33,5.96-13.29,13.29-13.29s13.29,5.96,13.29,13.29v11.42h5.24c.52,0,.94,.42,.94,.94v2.15h11.03l5.63-5.63V11.06l-.46-.12c-2.46-.64-4.18-2.85-4.18-5.37,0-3.07,2.5-5.57,5.57-5.57s5.57,2.5,5.57,5.57c0,2.52-1.72,4.73-4.18,5.37l-.45,.12v11.5c0,.25-.1,.49-.27,.66l-6.18,6.18c-.18,.18-.41,.27-.66,.27h-11.42v8.93h12.1l.12-.45c.64-2.46,2.85-4.18,5.37-4.18,3.07,0,5.57,2.5,5.57,5.57,0,3.07-2.5,5.57-5.57,5.57-2.52,0-4.73-1.72-5.37-4.18l-.12-.45h-12.1v8.93h11.42c.25,0,.49,.1,.66,.27l6.18,6.18c.18,.17,.27,.42,.27,.66v5.32l.46,.12c2.46,.64,4.18,2.84,4.18,5.37,0,3.07-2.5,5.57-5.57,5.57-3.07,0-5.57-2.5-5.57-5.57,0-2.53,1.72-4.73,4.18-5.37l.46-.12v-4.93l-5.63-5.63h-11.03v2.15c0,.52-.42,.94-.94,.94h-8.33v7.47l.46,.12c2.46,.64,4.18,2.84,4.18,5.37,0,3.07-2.5,5.57-5.57,5.57-3.07,0-5.57-2.5-5.57-5.57,0-2.53,1.72-4.73,4.18-5.37l.46-.12v-7.47h-16.66v16.74l.46,.12c2.46,.64,4.18,2.85,4.18,5.37,0,3.07-2.5,5.57-5.57,5.57h0Zm0-9.26c-2.04,0-3.69,1.66-3.69,3.7s1.66,3.69,3.69,3.69,3.69-1.66,3.69-3.69c0-2.04-1.66-3.69-3.69-3.7h0Zm46.32-9.26c-2.04,0-3.7,1.66-3.7,3.69s1.66,3.69,3.7,3.69,3.69-1.66,3.69-3.69c0-2.03-1.66-3.69-3.69-3.69h0Zm-27.79,0c-2.04,0-3.69,1.66-3.69,3.69s1.66,3.69,3.69,3.69,3.69-1.66,3.69-3.69c0-2.03-1.66-3.69-3.69-3.69h0Zm-46.32,0c-2.04,0-3.7,1.66-3.7,3.69s1.66,3.69,3.7,3.69,3.69-1.66,3.69-3.69c0-2.04-1.66-3.69-3.69-3.69h0Zm19.47-11.14H60.22V26.58H25.04v25.92Zm54.65-16.66c-2.04,0-3.7,1.66-3.7,3.7s1.66,3.69,3.7,3.69,3.69-1.66,3.69-3.69c0-2.04-1.66-3.69-3.69-3.7h0Zm-74.12,0c-2.04,0-3.7,1.66-3.7,3.7s1.66,3.69,3.7,3.69,3.69-1.66,3.69-3.69c0-2.04-1.66-3.69-3.69-3.7h0ZM42.63,6.18c3.92,0,7.11,3.19,7.11,7.11v11.42h4.3V13.29c0-6.29-5.12-11.42-11.42-11.42s-11.42,5.12-11.42,11.42v11.42h4.3V13.29c0-3.92,3.19-7.11,7.11-7.11Zm0,1.87c-2.89,0-5.24,2.35-5.24,5.24v11.42h10.48V13.29c0-2.89-2.35-5.24-5.24-5.24ZM79.69,1.87c-2.04,0-3.7,1.66-3.7,3.7s1.66,3.69,3.7,3.69,3.69-1.66,3.69-3.69c0-2.04-1.66-3.69-3.69-3.7h0ZM5.57,1.87c-2.04,0-3.7,1.66-3.7,3.7s1.66,3.69,3.7,3.69,3.69-1.66,3.69-3.69c0-2.04-1.66-3.69-3.69-3.7h0Z"/></g></g></svg>