<?xml version="1.0" encoding="UTF-8"?><svg id="Layer_2" xmlns="http://www.w3.org/2000/svg" viewBox="0 0 91.19 91.19"><defs><style>.cls-1{fill:#fff;}</style></defs><g id="work"><g><path class="cls-1" d="M1.79,1.99c0-.11,.09-.19,.19-.19H11.07V0H0V11.07H1.79V1.99Z"/><path class="cls-1" d="M1.79,89.21v-9.08H0v11.07H11.07v-1.79H1.99c-.11,0-.19-.09-.19-.19Z"/><path class="cls-1" d="M80.12,0V1.79h9.08c.11,0,.19,.09,.19,.19V11.07h1.79V0h-11.07Z"/><path class="cls-1" d="M89.4,89.21c0,.11-.09,.19-.19,.19h-9.08v1.79h11.07v-11.07h-1.79v9.08Z"/><path class="cls-1" d="M69.21,56.77c0,2.6,2.11,4.71,4.71,4.71s4.71-2.11,4.71-4.71-2.11-4.71-4.71-4.71-4.71,2.11-4.71,4.71Zm8,0c0,1.81-1.48,3.29-3.29,3.29s-3.29-1.48-3.29-3.29,1.48-3.29,3.29-3.29,3.29,1.48,3.29,3.29Z"/><path class="cls-1" d="M81.67,80.44v-14.26c0-.39-.32-.71-.71-.71s-.71,.32-.71,.71v8.91l-7.19-8.1c-.21-.24-.51-.38-.85-.39-.31,0-.61,.12-.83,.34l-4.46,4.45-5.96-6.72c-.21-.24-.51-.38-.86-.39-.31,0-.61,.12-.82,.34l-10.86,10.85v-25.59c0-.35,.28-.63,.63-.63h30.56c.35,0,.63,.28,.63,.63v11.36c0,.39,.32,.71,.71,.71s.71-.32,.71-.71v-11.36c0-1.13-.92-2.05-2.05-2.05h-30.56c-1.13,0-2.05,.92-2.05,2.05v30.56c0,1.13,.92,2.05,2.05,2.05h30.56c1.13,0,2.05-.92,2.05-2.05Zm-1.42,0c0,.35-.28,.63-.63,.63h-30.56c-.35,0-.63-.28-.63-.63v-2.96l11.66-11.66,6.12,6.89,.02,.04c.04,.07,.08,.14,.14,.19,.03,.03,.07,.07,.12,.1l.04,.03,1.44,1.62c.13,.15,.33,.24,.53,.24,.17,0,.34-.06,.47-.18,.29-.26,.32-.71,.06-1l-1.16-1.31,4.31-4.31,8.06,9.08v3.22Z"/><path class="cls-1" d="M41.69,10.21H11.13c-1.13,0-2.05,.92-2.05,2.05v30.56c0,1.13,.92,2.05,2.05,2.05h5.05c.39,0,.71-.32,.71-.71s-.32-.71-.71-.71h-5.05c-.35,0-.63-.28-.63-.63V12.26c0-.35,.28-.63,.63-.63h30.56c.35,0,.63,.28,.63,.63v30.56c0,.35-.28,.63-.63,.63H21.17c-.39,0-.71,.32-.71,.71s.32,.71,.71,.71h20.53c1.13,0,2.05-.92,2.05-2.05V12.26c0-1.13-.92-2.05-2.05-2.05Z"/><path class="cls-1" d="M29.64,20.47h1.2c1.51,.23,1.97,1.93,2.09,2.65,.09,.5,.52,.86,1.03,.86h2.64c.57,0,1.04-.47,1.04-1.04v-7.75c0-.57-.47-1.04-1.04-1.04H16.21c-.57,0-1.04,.47-1.04,1.04v7.75c0,.57,.47,1.04,1.04,1.04h2.65c.51,0,.94-.36,1.03-.86,.12-.72,.58-2.42,2.15-2.65h1.15v14.29c.04,.45-.05,1.26-.42,1.65-.18,.19-.43,.29-.8,.29h-1.7c-.57,0-1.04,.47-1.04,1.04v2.16c0,.57,.47,1.04,1.04,1.04h12.3c.57,0,1.04-.47,1.04-1.04v-2.16c0-.57-.47-1.04-1.04-1.04h-1.71c-.36,0-.6-.09-.78-.29-.37-.39-.46-1.19-.42-1.65,0-.03,0-.05,0-.08v-14.22Zm-.61,16.92c.45,.48,1.08,.73,1.84,.73h1.32v1.4h-11.54v-1.4h1.3s.05,0,.05,0c.73,0,1.35-.25,1.8-.73,.87-.92,.83-2.41,.81-2.73v-14.57c0-.57-.47-1.04-1.04-1.04h-1.58s-.09,0-.13,0c-1.57,.2-2.75,1.38-3.24,3.24l-.07,.27h-1.95v-6.99h19.64v6.99h-1.95l-.07-.27c-.49-1.86-1.67-3.04-3.24-3.24-.04,0-.09,0-.13,0h-1.58c-.57,0-1.04,.47-1.04,1.04v14.59c-.02,.29-.07,1.78,.81,2.7Z"/><path class="cls-1" d="M49.06,44.87h30.56c1.13,0,2.05-.92,2.05-2.05V12.26c0-1.13-.92-2.05-2.05-2.05h-30.56c-1.13,0-2.05,.92-2.05,2.05v30.56c0,1.13,.92,2.05,2.05,2.05Zm-.63-32.61c0-.35,.28-.63,.63-.63h30.56c.35,0,.63,.28,.63,.63v30.56c0,.35-.28,.63-.63,.63h-30.56c-.35,0-.63-.28-.63-.63V12.26Z"/><path class="cls-1" d="M41.69,47.82H11.13c-1.13,0-2.05,.92-2.05,2.05v30.56c0,1.13,.92,2.05,2.05,2.05h30.56c1.13,0,2.05-.92,2.05-2.05v-30.56c0-.55-.21-1.06-.6-1.45-.39-.39-.9-.6-1.45-.6Zm.63,32.61c0,.35-.28,.63-.63,.63H11.13c-.35,0-.63-.28-.63-.63v-30.56c0-.35,.28-.63,.63-.63h30.56c.35,0,.63,.28,.63,.63v30.56Z"/><path class="cls-1" d="M27.59,54.86c-.29-.15-.63-.12-.9,.07l-5.92,4.26h-5.56c-.48,0-.86,.39-.86,.86v10.22c0,.48,.39,.86,.86,.86h5.56l5.92,4.26c.15,.11,.32,.16,.5,.16,.14,0,.27-.03,.39-.1,.29-.15,.47-.44,.47-.77v-19.07c0-.33-.18-.62-.47-.77Zm-.89,1.73v17.14l-4.99-3.59v-9.96l4.99-3.59Zm-6.35,3.96v9.23h-4.65v-9.23h4.65Z"/><path class="cls-1" d="M35.15,56.54c-.25-.28-.68-.3-.96-.05-.13,.12-.21,.29-.22,.47,0,.18,.05,.35,.17,.49,1.91,2.11,2.96,4.85,2.96,7.7s-1.05,5.59-2.96,7.7c-.12,.13-.18,.31-.17,.49,0,.18,.09,.35,.22,.47,.12,.11,.29,.17,.46,.17,.19,0,.38-.08,.5-.22,2.14-2.36,3.31-5.42,3.31-8.61s-1.18-6.25-3.31-8.61h0Z"/><path class="cls-1" d="M32.92,58.56c-.12-.13-.29-.21-.47-.22-.17,0-.35,.05-.49,.17-.13,.12-.21,.29-.22,.47,0,.18,.05,.35,.17,.49,1.41,1.56,2.19,3.58,2.19,5.69s-.78,4.13-2.19,5.69c-.25,.28-.23,.71,.05,.96,.12,.11,.29,.17,.46,.17,.19,0,.37-.08,.5-.22,1.64-1.81,2.54-4.15,2.54-6.6s-.9-4.79-2.54-6.6Z"/><path class="cls-1" d="M30.7,60.57c-.12-.13-.29-.21-.47-.22-.19,0-.35,.05-.49,.17-.28,.25-.3,.68-.05,.96,.91,1.01,1.42,2.31,1.42,3.68s-.5,2.67-1.42,3.68c-.25,.28-.23,.71,.05,.96,.13,.11,.29,.18,.46,.18,.19,0,.37-.08,.5-.22,1.14-1.26,1.77-2.89,1.77-4.59s-.63-3.33-1.77-4.59Z"/><path class="cls-1" d="M55.66,38.66l18.12-10.46c.23-.13,.38-.39,.38-.66s-.15-.52-.38-.66l-18.12-10.46c-.23-.13-.52-.13-.76,0-.23,.13-.38,.39-.38,.66v20.92c0,.27,.14,.52,.38,.66,.23,.13,.53,.13,.76,0Zm.38-20.27l.11,.06,15.74,9.09-15.85,9.15V18.39Z"/></g></g></svg>