<?xml version="1.0" encoding="UTF-8"?><svg id="Layer_2" xmlns="http://www.w3.org/2000/svg" viewBox="0 0 92.76 97.06"><defs><style>.cls-1{fill:#fff;}</style></defs><g id="work"><g><path class="cls-1" d="M48.71,54.43l-.17-.05c-.12-.03-.24-.06-.37-.08-.08-.01-.16-.01-.24-.01h-3.1c-.18,0-.37,.03-.6,.09l-.17,.05-.15-.1c-2.8-2.02-6.58-3.91-8.77-3.18-.76,.25-2.01,1.03-1.77,3.39,.23,2.33,.23,4.69,0,7.02-.24,2.37,1.01,3.15,1.77,3.4,.33,.11,.69,.16,1.1,.16,2.8,0,6.58-2.56,7.68-3.35l.15-.11,.17,.05c.23,.06,.42,.09,.6,.09h3.1c.18,0,.37-.03,.6-.09l.17-.05,.15,.11c1.09,.79,4.87,3.35,7.68,3.35,.4,0,.77-.05,1.1-.16,.76-.25,2.01-1.04,1.77-3.4-.23-2.33-.23-4.69,0-7.02,.24-2.36-1.01-3.14-1.77-3.4-2.19-.73-5.96,1.17-8.76,3.18l-.15,.11Zm-6.2,6.04c-1.6,1.11-4.52,2.8-6.22,2.8-.21,0-.4-.03-.57-.08-.62-.21-.53-1.14-.5-1.44,.24-2.45,.24-4.93,0-7.39-.03-.3-.12-1.22,.5-1.43,1.52-.51,4.98,1.47,6.78,2.72l.21,.14-.05,.25c-.04,.17-.05,.33-.05,.48v3.1c0,.15,.02,.31,.06,.47l.05,.25-.21,.14Zm1.98-.49l-.04-3.82,3.82-.03,.04,3.81-3.82,.04Zm5.75-4.34c1.8-1.25,5.26-3.23,6.79-2.72,.62,.21,.53,1.13,.5,1.43-.24,2.45-.24,4.94,0,7.39,.03,.3,.12,1.23-.5,1.44-.17,.05-.36,.08-.57,.08-1.48,0-3.9-1.29-5.56-2.36-.24-.15-.46-.3-.66-.44l-.21-.14,.05-.25c.04-.17,.05-.32,.05-.47v-3.1c0-.14-.02-.3-.06-.48l-.05-.25,.21-.14Z"/><path class="cls-1" d="M75.97,60.07l-12.39-7.28c-.34-.2-.78-.16-1.08,.11-.3,.26-.4,.69-.25,1.07,.04,.1,3.95,10.57-15.58,32.49l-.28,.31-.28-.31c-19.52-21.9-15.63-32.37-15.59-32.47,.17-.38,.07-.82-.23-1.09-.18-.16-.4-.24-.62-.24-.16,0-.33,.04-.48,.13l-12.39,7.28c-.24,.14-.4,.38-.45,.65-.05,.27,.03,.55,.21,.76l4.31,5.1-2.19,5.17c-.15,.35-.07,.76,.2,1.03,.54,.53,13.28,13.04,26.27,16.08l.29,.07v7.19c0,.52,.42,.94,.94,.94s.94-.42,.94-.94v-7.19l.29-.07c13-3.04,25.74-15.55,26.27-16.08,.27-.27,.35-.68,.2-1.03l-2.19-5.17,4.31-5.1c.18-.21,.25-.49,.21-.76-.05-.27-.21-.51-.45-.65Zm-33.61,26.02c-9.71-3.45-18.92-11.6-21.51-14.02l-.19-.18,2.16-5.1c.14-.33,.08-.7-.15-.97l-3.97-4.69,9.6-5.65-.03,.69c-.17,4.39,1.48,14.05,14.49,29.33l.91,1.06-1.32-.47Zm27.74-20.27c-.23,.27-.29,.64-.15,.97l2.16,5.1-.19,.18c-2.59,2.42-11.79,10.56-21.51,14.02l-1.32,.47,.91-1.06c13.01-15.28,14.66-24.93,14.49-29.33l-.03-.69,9.6,5.65-3.97,4.69Z"/><path class="cls-1" d="M75.56,91.78l-.2-.02-3.92-6.9c-.15-.26-.41-.43-.7-.47-.3-.03-.59,.07-.79,.29l-1.83,1.95-2.05-3.46c-.18-.3-.5-.47-.86-.46-.34,.02-.65,.23-.8,.54l-3.94,8.52h-.24c-.52,0-.94,.42-.94,.94s.42,.94,.94,.94h15.27c.52,0,.94-.42,.94-.94,0-.48-.38-.89-.87-.93Zm-13.03,0l2.83-6.11,3.63,6.11h-6.45Zm8.63,0l-2.06-3.46,1.33-1.42,2.77,4.88h-2.05Z"/><path class="cls-1" d="M24.2,13.81c-1.44,3.56,1.43,8.28,2.74,10.14l.25,.36-.4,.19c-1.41,.67-2.24,2.26-2.01,3.87h0s.48,3.45,.48,3.45c.21,1.48,.93,2.78,2.03,3.68,.55,.44,1.08,.68,1.62,.73l.24,.02,.08,.22c1.79,4.83,4.75,8.9,8.12,11.17l.24,.16-.3,.87c-.18,.49,.06,1.01,.53,1.2,.13,.05,3.3,1.28,8.25,1.28,2.91,0,5.86-.42,8.77-1.25,.25-.07,.46-.24,.58-.48,.12-.23,.13-.5,.05-.75l-.34-.94,.2-.17c3.16-2.7,5.34-7.53,6.62-11.11l.08-.23,.24-.02c.54-.05,1.07-.29,1.61-.72,1.1-.88,1.82-2.19,2.03-3.68l.55-3.94c.14-.96-.13-1.9-.74-2.6-.33-.37-.75-.66-1.27-.86l-.43-.16,.25-.39c4.86-7.54,1.57-11.47-.83-14.33-1.9-2.27-2.41-3.06-.54-4.68,.23-.2,.35-.5,.32-.8-.03-.3-.21-.57-.48-.72-4.31-2.4-8.38-3.33-12.11-3.33-10.95,0-18.87,8-20.74,10.08l-.09,.1-.13,.02c-2.86,.48-4.7,1.7-5.48,3.61Zm15.37,33.23l-.05-.1m-.22-.26c-.06-.05-.09-.07-.12-.09-3.54-2.02-6.8-6.5-8.53-11.71-.16-.49-.69-.75-1.18-.6-.41,.14-.59,.09-1.01-.24-.73-.59-1.21-1.48-1.36-2.48l-.48-3.45c-.12-.82,.3-1.63,1-1.94,.2-.09,.39-.16,.65-.13h.19s2.67,3.65,2.67,3.65c.24,.33,.66,.47,1.05,.34,.39-.13,.65-.48,.65-.89v-8.33l15.2-3.2,.09,.03,10.66,3.38v8.12c0,.41,.28,.78,.67,.9,.38,.11,.83-.04,1.05-.39l2.35-3.62,.23,.03c.08,0,.12,.01,.16,.01,.43,0,.8,.16,1.05,.45s.36,.68,.3,1.11l-.55,3.94c-.11,.76-.4,1.44-.85,1.98-.15,.18-.32,.34-.5,.49-.42,.34-.6,.39-1.02,.25-.49-.16-1.02,.11-1.18,.6-1.87,5.63-4.42,9.91-7,11.74-.29,.21-.44,.57-.38,.92l.04,.24c0,.06,.02,.11,.04,.17l.14,.4-.4,.12c-2.53,.6-4.84,.81-6.84,.81-2.79,0-4.97-.41-6.32-.76l-.4-.1,.14-.39c.05-.13,.06-.18,.07-.24l.04-.24c0-.05,0-.08,0-.12v-.15M25.94,14.51c.54-1.35,2.05-2.2,4.47-2.52,.24-.03,.45-.15,.6-.34,.33-.4,8.11-9.8,19.51-9.8,3.29,0,6.59,.79,9.82,2.34l.39,.19-.24,.36c-1.56,2.32,.15,4.36,1.52,6,2.33,2.79,4.98,5.95,.25,12.79l-1.58,2.44v-5.63c0-.41-.26-.77-.65-.89l-11.65-3.69c-.15-.05-.32-.06-.48-.02l-16.19,3.41c-.43,.09-.74,.48-.74,.92v6.22l-1.93-2.64s-4.46-5.73-3.09-9.12Z"/><path class="cls-1" d="M90.91,96.31c.1,.5,.61,.83,1.11,.73,.24-.05,.45-.19,.59-.4,.14-.21,.19-.46,.13-.71l-7.53-36.21c-.07-.33-.31-.59-.62-.7l-11.08-3.69c-.1-.03-.2-.05-.29-.05-.39,0-.76,.25-.89,.64-.16,.49,.1,1.02,.59,1.19l10.56,3.52,7.42,35.69Z"/><path class="cls-1" d="M79.28,89.52c-.16-.1-.33-.16-.52-.16-.06,0-.12,0-.18,.02-.25,.05-.46,.19-.6,.4-.14,.21-.19,.46-.14,.7l1.14,5.82c.1,.5,.58,.84,1.1,.74,.25-.05,.46-.19,.6-.4,.14-.21,.19-.46,.14-.7l-1.14-5.82c-.05-.25-.19-.46-.4-.6Z"/><path class="cls-1" d="M.75,97.04c.49,.1,1.01-.23,1.11-.73l7.42-35.68,10.57-3.52c.49-.16,.76-.7,.59-1.19-.13-.39-.5-.64-.89-.64-.1,0-.2,.02-.3,.05l-11.08,3.69c-.32,.11-.55,.37-.62,.7L.02,95.93c-.05,.25,0,.5,.13,.71,.14,.21,.35,.35,.59,.4Z"/><path class="cls-1" d="M13.79,96.3l1.14-5.82c.05-.25,0-.5-.14-.7-.14-.21-.35-.35-.6-.4h0c-.06-.01-.12-.02-.18-.02-.18,0-.36,.05-.52,.16-.21,.14-.35,.35-.4,.6l-1.14,5.82c-.05,.25,0,.5,.14,.7,.14,.21,.35,.35,.6,.4,.52,.1,1-.24,1.1-.74Z"/><path class="cls-1" d="M47.3,66.25c-.01-.06-.03-.12-.06-.18-.03-.08-.06-.13-.08-.15-.04-.05-.08-.11-.12-.15-.18-.18-.42-.27-.66-.27-.06,0-.12,0-.18,.02-.07,.01-.12,.03-.18,.05-.06,.03-.12,.05-.17,.09-.04,.03-.09,.07-.13,.11-.04,.04-.08,.09-.11,.14-.03,.04-.06,.09-.09,.17-.02,.06-.04,.12-.06,.19,0,.04-.02,.11-.02,.17,0,.24,.1,.49,.28,.66,.03,.03,.08,.08,.13,.11,.05,.03,.11,.06,.17,.09,.06,.02,.13,.04,.19,.06,.04,0,.1,.02,.17,.02,.24,0,.49-.1,.67-.28s.27-.42,.27-.66c0-.06,0-.12-.01-.18Z"/><path class="cls-1" d="M47.32,72.81c0-.25-.1-.49-.27-.66h-.01c-.04-.05-.09-.09-.13-.11-.06-.04-.12-.08-.17-.1-.06-.02-.12-.04-.19-.05-.05,0-.11-.01-.17-.01-.06,0-.13,0-.19,.02-.05,.01-.11,.03-.17,.05-.06,.02-.12,.06-.17,.09-.05,.03-.09,.06-.12,.1-.19,.19-.29,.43-.29,.67s.1,.48,.28,.66c.17,.17,.42,.28,.66,.28,.09,0,.14,0,.17-.02,.08-.01,.14-.03,.19-.05,.06-.03,.11-.05,.14-.07,.07-.05,.12-.08,.16-.12,.19-.19,.28-.43,.28-.67Z"/><path class="cls-1" d="M47.04,78.53c-.17-.16-.41-.26-.67-.26h0c-.25,0-.49,.09-.65,.26h0c-.05,.05-.09,.1-.11,.13-.03,.05-.06,.11-.09,.17-.03,.06-.05,.13-.06,.19,0,.03,0,.1,0,.16s0,.14,.02,.21c0,.03,.03,.09,.05,.15,.03,.06,.05,.12,.08,.16,.04,.06,.08,.11,.12,.15,.35,.35,.98,.34,1.33,0,.17-.17,.27-.42,.27-.67s-.1-.49-.27-.66Z"/></g></g></svg>