<?xml version="1.0" encoding="UTF-8"?><svg id="Layer_2" xmlns="http://www.w3.org/2000/svg" viewBox="0 0 80.84 80.1"><defs><style>.cls-1{fill:#fff;}</style></defs><g id="work"><path class="cls-1" d="M3.58,80.1c-1.97,0-3.58-1.61-3.58-3.58,0-1.64,1.12-3.07,2.72-3.47l.15-.04,.02-.15c.42-3.18,3.16-5.58,6.36-5.59h1.17V31.59H3.58c-1.97,0-3.58-1.61-3.58-3.58,0-1.97,1.61-3.58,3.58-3.58h2.66L39.99,.14c.13-.09,.28-.14,.43-.14,.16,0,.32,.05,.45,.15l33.73,24.28h2.66c1.97,0,3.58,1.61,3.58,3.58,0,1.97-1.61,3.58-3.58,3.58h-6.85v35.68h1.17c1.71,0,3.31,.67,4.52,1.88,1,.99,1.65,2.31,1.83,3.7l.02,.15,.15,.04c1.6,.4,2.72,1.83,2.72,3.47,0,1.97-1.61,3.57-3.58,3.58H3.58Zm0-5.65c-1.15,0-2.09,.95-2.1,2.1,0,1.15,.94,2.09,2.1,2.1H77.26c1.15,0,2.1-.95,2.1-2.1,0-1.15-.95-2.09-2.1-2.1H3.58Zm5.68-5.68c-2.31,.01-4.34,1.66-4.83,3.92l-.06,.28H76.48l-.06-.27c-.48-2.27-2.51-3.92-4.83-3.92H9.26Zm52.78-1.5h6.89V31.59h-6.89v35.68Zm-5.38,0h3.91V31.59h-3.91v35.68Zm-8.38,0h6.89V31.59h-6.89v35.68Zm-14.22,0h12.74V31.59h-12.74v35.68Zm-8.37,0h6.89V31.59h-6.89v35.68Zm-5.39,0h3.9V31.59s-3.9,0-3.9,0v35.68Zm-8.37,0h6.89V31.59h-6.89v35.68ZM3.58,25.93c-1.15,0-2.09,.95-2.1,2.1,0,1.15,.94,2.09,2.1,2.1H77.26c1.15,0,2.1-.95,2.1-2.1,0-1.16-.95-2.1-2.1-2.1H3.58ZM23.88,13.53l-15.11,10.89h63.31l-15.11-10.89L40.42,1.64,23.88,13.53Zm16.54,6.17c-1.47,0-2.85-.57-3.89-1.61-2.15-2.15-2.15-5.63,0-7.78,1.09-1.05,2.44-1.6,3.88-1.6s2.88,.59,3.9,1.61c2.14,2.14,2.15,5.62,0,7.76-1.05,1.05-2.43,1.62-3.9,1.62Zm0-9.52c-1.05,0-2.04,.4-2.79,1.12-.79,.83-1.18,1.86-1.15,2.93,.03,1.07,.47,2.07,1.25,2.81,.75,.71,1.73,1.1,2.76,1.1s2.02-.39,2.77-1.1c1.54-1.55,1.56-4.05,.07-5.62l-.07-.07c-.76-.76-1.77-1.17-2.84-1.17Z"/></g></svg>