<?xml version="1.0" encoding="UTF-8"?><svg id="Layer_2" xmlns="http://www.w3.org/2000/svg" viewBox="0 0 127.22 86.76"><defs><style>.cls-1{fill:#fff;}</style></defs><g id="work"><g><path class="cls-1" d="M21.12,64.5C9.48,64.5,0,55.03,0,43.38S9.48,22.25,21.12,22.25c.74,0,1.49,.04,2.3,.13,.49,.05,.84,.5,.79,.98-.05,.45-.43,.8-.88,.8h-.1c-.74-.09-1.43-.12-2.1-.12C10.46,24.04,1.79,32.72,1.79,43.38s8.68,19.34,19.34,19.34h14.16c.49,0,.89,.4,.89,.89s-.4,.89-.89,.89h-14.16Z"/><path class="cls-1" d="M91.93,64.5c-.49,0-.89-.4-.89-.89s.4-.89,.89-.89h14.16c10.66,0,19.34-8.67,19.34-19.34s-8.67-19.34-19.34-19.34c-.67,0-1.35,.04-2.07,.11h-.01c-.53,0-.91-.33-.97-.77-.88-6.55-6.53-11.48-13.13-11.48-2.63,0-5.18,.77-7.37,2.24-.15,.1-.32,.15-.5,.15-.27,0-.52-.12-.69-.32-6.39-7.74-15.81-12.18-25.84-12.18-11.02,0-21.33,5.44-27.59,14.55-.17,.24-.44,.39-.74,.39-.18,0-.35-.05-.5-.16-.2-.14-.33-.34-.37-.57s0-.47,.14-.67C33.05,5.73,43.91,0,55.52,0c9.96,0,19.5,4.24,26.18,11.63l.52,.58,.69-.36c2.14-1.13,4.56-1.73,7-1.73,6.91,0,12.91,4.68,14.59,11.39l.2,.78,.8-.02c.2,0,.4,0,.6,0,11.65,0,21.12,9.48,21.12,21.12s-9.48,21.12-21.12,21.12h-14.16Z"/><path class="cls-1" d="M63.61,86.76c-11.65,0-21.12-9.48-21.12-21.12v-10.12c0-2.72,2.22-4.94,4.94-4.94h1.13v-11.25c0-8.3,6.75-15.05,15.05-15.05s15.05,6.75,15.05,15.05v4.05c0,.49-.4,.89-.89,.89h-8.09c-.49,0-.89-.4-.89-.89v-4.05c0-2.85-2.32-5.18-5.18-5.18s-5.18,2.32-5.18,5.18v11.25h21.36c2.72,0,4.94,2.22,4.94,4.94v10.12c0,11.65-9.48,21.12-21.12,21.12Zm-16.18-34.39c-1.74,0-3.15,1.42-3.15,3.15v10.12c0,10.66,8.67,19.34,19.34,19.34s19.34-8.68,19.34-19.34v-10.12c0-1.74-1.42-3.15-3.15-3.15H47.43Zm16.18-26.3c-7.32,0-13.27,5.95-13.27,13.27v11.25h6.31v-11.25c0-3.84,3.12-6.96,6.96-6.96s6.96,3.12,6.96,6.96v3.15h6.31v-3.15c0-7.32-5.95-13.27-13.27-13.27Z"/><path class="cls-1" d="M63.61,74.62c-.49,0-.89-.4-.89-.89v-3.18l-.68-.23c-2.01-.68-3.37-2.56-3.37-4.68,0-2.72,2.22-4.94,4.94-4.94s4.94,2.22,4.94,4.94c0,2.12-1.35,4-3.37,4.68l-.68,.23v3.18c0,.49-.4,.89-.89,.89Zm0-12.14c-1.74,0-3.15,1.42-3.15,3.15s1.42,3.15,3.15,3.15,3.15-1.42,3.15-3.15-1.42-3.15-3.15-3.15Z"/></g></g></svg>