<?xml version="1.0" encoding="UTF-8"?><svg id="Layer_2" xmlns="http://www.w3.org/2000/svg" viewBox="0 0 127.97 86.89"><defs><style>.cls-1{fill:#fff;}</style></defs><g id="work"><g><path class="cls-1" d="M77.95,61.64c-3.12,0-5.66-2.54-5.66-5.66s2.54-5.67,5.66-5.67,5.66,2.54,5.66,5.67-2.54,5.66-5.66,5.66Zm0-9.62c-2.18,0-3.96,1.78-3.96,3.96s1.78,3.96,3.96,3.96,3.96-1.77,3.96-3.96-1.78-3.96-3.96-3.96Z"/><path class="cls-1" d="M48.07,86.89c-1.36,0-2.46-1.11-2.46-2.46V47.68c0-1.36,1.11-2.46,2.46-2.46h36.74c1.36,0,2.46,1.11,2.46,2.46v13.66c0,.47-.38,.85-.85,.85s-.85-.38-.85-.85v-13.66c0-.42-.34-.76-.76-.76H48.07c-.42,0-.76,.34-.76,.76v30.77l13.05-13.05c.26-.26,.62-.41,.99-.41,.42,.01,.78,.18,1.03,.47l7.17,8.08,5.36-5.35c.26-.26,.62-.41,.99-.41,.41,.01,.77,.18,1.02,.47l8.64,9.74v-10.71c0-.47,.38-.85,.85-.85s.85,.38,.85,.85v17.14c0,1.36-1.11,2.46-2.46,2.46H48.07Zm-.76-6.03v3.56c0,.42,.34,.76,.76,.76h36.74c.42,0,.76-.34,.76-.76v-3.87l-9.69-10.92-5.19,5.18,1.39,1.57c.31,.35,.28,.89-.07,1.21-.16,.14-.36,.22-.57,.22-.24,0-.48-.1-.64-.29l-1.73-1.95-.05-.03c-.06-.04-.11-.08-.15-.12-.07-.07-.12-.15-.16-.23l-.03-.05-7.36-8.29-14.02,14.01Z"/><path class="cls-1" d="M14.53,41.67c-.47,0-.85-.38-.85-.85s.38-.85,.85-.85h24.68c.42,0,.76-.34,.76-.76V2.46c0-.42-.34-.76-.76-.76H2.46c-.42,0-.76,.34-.76,.76V39.21c0,.42,.34,.76,.76,.76h6.07c.47,0,.85,.38,.85,.85s-.38,.85-.85,.85H2.46c-1.36,0-2.46-1.11-2.46-2.46V2.46C0,1.11,1.11,0,2.46,0H39.21c1.36,0,2.46,1.11,2.46,2.46V39.21c0,1.36-1.11,2.46-2.46,2.46H14.53Z"/><path class="cls-1" d="M13.44,36.94c-.69,0-1.25-.56-1.25-1.25v-2.59c0-.69,.56-1.25,1.25-1.25h2.04c.45,0,.74-.11,.96-.34,.44-.47,.55-1.45,.51-1.98v-.09s0-17.09,0-17.09h-1.38c-1.88,.28-2.43,2.32-2.58,3.19-.1,.6-.62,1.04-1.23,1.04h-3.18c-.69,0-1.25-.56-1.25-1.25V5.99c0-.69,.56-1.25,1.25-1.25h24.52c.69,0,1.25,.56,1.25,1.25V15.31c0,.69-.56,1.25-1.25,1.25h-3.18c-.61,0-1.13-.44-1.23-1.04-.15-.87-.7-2.91-2.52-3.19h-1.45s0,17.09,0,17.09c0,.03,0,.07,0,.1-.04,.54,.06,1.51,.51,1.98,.22,.23,.51,.34,.94,.34h2.06c.69,0,1.25,.56,1.25,1.25v2.59c0,.69-.56,1.25-1.25,1.25H13.44Zm.46-3.39v1.68h13.87v-1.68h-1.58c-.91,0-1.66-.3-2.21-.88-1.05-1.12-.99-2.9-.97-3.25V11.87c0-.69,.56-1.25,1.25-1.25h1.9c.05,0,.11,0,.16,.01,1.88,.24,3.3,1.65,3.89,3.89l.09,.33h2.34V6.44H9.03V14.85h2.34l.09-.33c.59-2.24,2.01-3.66,3.89-3.89,.05,0,.11-.01,.16-.01h1.9c.69,0,1.25,.56,1.25,1.25V29.39c.02,.37,.07,2.17-.97,3.28-.54,.58-1.29,.88-2.17,.88h-.06s-1.57,0-1.57,0Z"/><path class="cls-1" d="M48.07,41.67c-1.36,0-2.46-1.11-2.46-2.46V2.46c0-1.36,1.11-2.46,2.46-2.46h36.74c1.36,0,2.46,1.11,2.46,2.46V39.21c0,1.36-1.11,2.46-2.46,2.46H48.07Zm0-39.96c-.42,0-.76,.34-.76,.76V39.21c0,.42,.34,.76,.76,.76h36.74c.42,0,.76-.34,.76-.76V2.46c0-.42-.34-.76-.76-.76H48.07Z"/><path class="cls-1" d="M52.36,18.99c-.47,0-.85-.38-.85-.85s.38-.85,.85-.85h7.08c.47,0,.85,.38,.85,.85s-.38,.85-.85,.85h-7.08Z"/><path class="cls-1" d="M65.42,18.99c-.47,0-.85-.38-.85-.85s.38-.85,.85-.85h3.13c.47,0,.85,.38,.85,.85s-.38,.85-.85,.85h-3.13Z"/><path class="cls-1" d="M74.53,18.99c-.47,0-.85-.38-.85-.85s.38-.85,.85-.85h5.99c.47,0,.85,.38,.85,.85s-.38,.85-.85,.85h-5.99Z"/><path class="cls-1" d="M52.36,25.04c-.47,0-.85-.38-.85-.85s.38-.85,.85-.85h2.78c.47,0,.85,.38,.85,.85s-.38,.85-.85,.85h-2.78Z"/><path class="cls-1" d="M61.13,25.04c-.47,0-.85-.38-.85-.85s.38-.85,.85-.85h9.36c.47,0,.85,.38,.85,.85s-.38,.85-.85,.85h-9.36Z"/><path class="cls-1" d="M76.43,25.04c-.47,0-.85-.38-.85-.85s.38-.85,.85-.85h4.09c.47,0,.85,.38,.85,.85s-.38,.85-.85,.85h-4.09Z"/><path class="cls-1" d="M52.36,30.61c-.47,0-.85-.38-.85-.85s.38-.85,.85-.85h6.54c.47,0,.85,.38,.85,.85s-.38,.85-.85,.85h-6.54Z"/><path class="cls-1" d="M64.78,30.61c-.47,0-.85-.38-.85-.85s.38-.85,.85-.85h8.29c.47,0,.85,.38,.85,.85s-.38,.85-.85,.85h-8.29Z"/><path class="cls-1" d="M79.04,30.61c-.47,0-.85-.38-.85-.85s.38-.85,.85-.85h1.48c.47,0,.85,.38,.85,.85s-.38,.85-.85,.85h-1.48Z"/><path class="cls-1" d="M57.75,12.77c-.47,0-.85-.38-.85-.85s.38-.85,.85-.85h17.39c.47,0,.85,.38,.85,.85s-.38,.85-.85,.85h-17.39Z"/><path class="cls-1" d="M2.46,86.89c-1.36,0-2.46-1.11-2.46-2.46V47.68c0-1.36,1.11-2.46,2.46-2.46H39.21c.66,0,1.28,.26,1.74,.72,.47,.47,.72,1.08,.72,1.74v36.74c0,1.36-1.11,2.46-2.46,2.46H2.46Zm0-39.96c-.42,0-.76,.34-.76,.76v36.74c0,.42,.34,.76,.76,.76H39.21c.42,0,.76-.34,.76-.76V47.68c0-.42-.34-.76-.76-.76H2.46Z"/><path class="cls-1" d="M6.8,81.23c-1.55,0-2.81-1.26-2.81-2.81v-24.73c0-1.55,1.26-2.81,2.81-2.81h13.24c.75,0,1.46,.29,1.99,.82,.53,.53,.82,1.24,.82,1.99v24.73c0,1.55-1.26,2.81-2.81,2.81H6.8Zm.94-1.71h11.36l-5.68-11.54-5.68,11.54Zm6.63-13.47l5.94,12.06,.83-.19v-23.74l-.83-.19-5.94,12.06Zm-8.67-11.87v23.74l.83,.19,5.94-12.06-5.94-12.06-.83,.19Zm7.72,9.94l5.68-11.54H7.73l5.68,11.54Z"/><path class="cls-1" d="M28.78,81.23c-1.76,0-3.19-1.43-3.19-3.19v-6.85c0-1.76,1.43-3.19,3.19-3.19h5.72c1.76,0,3.19,1.43,3.19,3.19v6.85c0,1.76-1.43,3.19-3.19,3.19h-5.72Zm0-11.52c-.82,0-1.48,.66-1.48,1.48v6.85c0,.82,.66,1.48,1.48,1.48h5.72c.82,0,1.48-.66,1.48-1.48v-6.85c0-.82-.66-1.48-1.48-1.48h-5.72Z"/><path class="cls-1" d="M28.78,64.11c-1.76,0-3.19-1.43-3.19-3.19v-6.86c0-1.76,1.43-3.19,3.19-3.19h5.72c1.76,0,3.19,1.43,3.19,3.19v6.86c0,1.76-1.43,3.19-3.19,3.19h-5.72Zm0-11.52c-.82,0-1.48,.66-1.48,1.48v6.86c0,.82,.66,1.48,1.48,1.48h5.72c.82,0,1.48-.66,1.48-1.48v-6.86c0-.82-.66-1.48-1.48-1.48h-5.72Z"/><path class="cls-1" d="M102.24,18.99h-9.82v1.71s9.82,0,9.82,0c.47,0,.85-.38,.85-.85s-.38-.85-.85-.85Z"/><path class="cls-1" d="M120.34,0h-27.91V1.71s27.91,0,27.91,0c.47,0,.85-.38,.85-.85s-.38-.85-.85-.85Z"/><path class="cls-1" d="M127.12,53.99h-34.69v1.71s34.69,0,34.69,0c.47,0,.85-.38,.85-.85s-.38-.85-.85-.85Z"/><path class="cls-1" d="M112.08,31.35h-19.65v1.71s19.65,0,19.65,0c.47,0,.85-.38,.85-.85s-.38-.85-.85-.85Z"/><path class="cls-1" d="M102.24,73.77h-9.82v1.71s9.82,0,9.82,0c.47,0,.85-.38,.85-.85s-.38-.85-.85-.85Z"/><path class="cls-1" d="M114.22,85.19h-21.8v1.71s21.8,0,21.8,0c.47,0,.85-.38,.85-.85s-.38-.85-.85-.85Z"/></g></g></svg>