<?xml version="1.0" encoding="UTF-8"?><svg id="Layer_2" xmlns="http://www.w3.org/2000/svg" viewBox="0 0 110.89 90.53"><defs><style>.cls-1{fill:#fff;}</style></defs><g id="work"><g><path class="cls-1" d="M40,32.74c0,.34,.28,.62,.62,.62h4.47c.34,0,.62-.28,.62-.62V.62c0-.34-.28-.62-.62-.62h-4.47c-.34,0-.62,.28-.62,.62v1.52H5.71V.62c0-.34-.28-.62-.62-.62H.62C.28,0,0,.28,0,.62V32.74c0,.34,.28,.62,.62,.62H5.09c.34,0,.62-.28,.62-.62v-1.52H40v1.52Zm1.24-31.51h3.23v3.35h-3.23V1.24Zm0,4.58h3.23v3.28h-3.23v-3.28Zm0,4.51h3.23v3.55h-3.23v-3.55Zm0,4.79h3.23v3.35h-3.23v-3.35Zm0,4.58h3.23v3.28h-3.23v-3.28Zm0,4.51h3.23v3.35h-3.23v-3.35Zm0,4.58h3.23v3.33h-3.23v-3.33Zm-36.76,3.33H1.24v-3.33h3.23v3.33Zm0-4.57H1.24v-3.35h3.23v3.35Zm0-4.58H1.24v-3.28h3.23v3.28Zm0-4.51H1.24v-3.35h3.23v3.35Zm0-4.58H1.24v-3.55h3.23v3.55Zm0-4.79H1.24v-3.28h3.23v3.28Zm0-4.51H1.24V1.24h3.23v3.35Zm1.24,25.41V3.37H40V29.99H5.71Z"/><path class="cls-1" d="M28.19,16.13l-7.78-4.06c-.19-.1-.42-.09-.61,.02-.18,.11-.3,.31-.3,.53v8.11c0,.21,.11,.42,.3,.53,.1,.06,.21,.09,.32,.09,.1,0,.2-.02,.29-.07l7.78-4.05c.21-.11,.33-.32,.33-.55s-.13-.44-.33-.55Zm-7.45,3.58v-6.07l5.83,3.04-5.83,3.04Z"/><path class="cls-1" d="M36.72,5.9h-4.44c-.34,0-.62,.28-.62,.62s.28,.62,.62,.62h3.82V15.4c0,.34,.28,.62,.62,.62s.62-.28,.62-.62V6.52c0-.34-.28-.62-.62-.62Z"/><path class="cls-1" d="M13.6,26.31h-4.03v-8.48c0-.34-.28-.62-.62-.62s-.62,.28-.62,.62v9.09c0,.34,.28,.62,.62,.62h4.65c.34,0,.62-.28,.62-.62s-.28-.62-.62-.62Z"/><path class="cls-1" d="M110.28,84.92h-4.84V47.28c0-2.1-1.67-3.75-3.79-3.75h-4.94v-4.94c0-1.18-.96-2.15-2.15-2.15H46.61c-1.18,0-2.15,.96-2.15,2.15v3.56c-.02,.07-.03,.13-.03,.2s.01,.13,.03,.19v.99h-5.01c-1.02,0-1.98,.38-2.7,1.08-.73,.71-1.14,1.66-1.14,2.67v37.64h-4.75c-.34,0-.62,.28-.62,.62v1.42c0,1.97,1.6,3.57,3.57,3.57H107.32c1.97,0,3.57-1.6,3.57-3.57v-1.42c0-.34-.28-.62-.62-.62ZM56.63,41.64v-3.97h37.92c.5,0,.91,.41,.91,.91v3.14H56.63s0-.05,0-.08Zm-10.93-3.06c0-.5,.41-.91,.91-.91h8.79v3.97s0,.05,0,.08h-9.7v-3.14Zm0,4.37h49.76v26.72c0,.5-.41,.91-.91,.91H46.61c-.5,0-.91-.41-.91-.91v-26.72Zm.91,28.86h47.95c1.18,0,2.15-.96,2.15-2.15v-20.4h3.06v31.93l-58.39,.03v-31.97h3.1v20.4c0,1.18,.96,2.15,2.15,2.15Zm-9.76-24.54c0-1.41,1.14-2.52,2.6-2.52h5.01v3.28h-3.72c-.34,0-.62,.28-.62,.62v33.2c0,.16,.06,.31,.18,.43,.11,.11,.27,.17,.44,.17l59.63-.02c.35,0,.62-.27,.62-.61V48.66c0-.34-.28-.62-.62-.62h-3.67v-3.28h4.94c1.43,0,2.56,1.11,2.56,2.52v37.64H36.85V47.28Zm38.68,38.88v1.04h-9.94v-1.04h9.94Zm34.13,.8c0,1.29-1.05,2.34-2.34,2.34H33.81c-1.29,0-2.34-1.05-2.34-2.34v-.8h32.87v1.65c0,.34,.28,.62,.62,.62h11.18c.34,0,.62-.28,.62-.62v-1.65h32.89v.8Z"/><path class="cls-1" d="M68.8,58.75c.09,.05,.2,.08,.3,.08s.22-.03,.32-.09l7.32-4.42c.18-.11,.3-.31,.3-.53s-.11-.42-.3-.53l-7.32-4.42c-.19-.12-.43-.12-.62,0-.19,.11-.31,.32-.31,.54v8.84c0,.22,.12,.43,.31,.54Zm.92-8.28l5.51,3.32-5.51,3.32v-6.65Z"/><path class="cls-1" d="M51.64,65.45h4.52v1.05c0,.34,.28,.62,.62,.62h2.08c.34,0,.62-.28,.62-.62v-1.05h30.06c.34,0,.62-.28,.62-.62s-.28-.62-.62-.62h-30.06v-.91c0-.34-.28-.62-.62-.62h-2.08c-.34,0-.62,.28-.62,.62v.91h-4.52c-.34,0-.62,.28-.62,.62s.28,.62,.62,.62Zm5.76-1.53h.85v1.96h-.85v-1.96Z"/><path class="cls-1" d="M51.64,68.71h31.73v.84c0,.34,.28,.62,.62,.62h2.08c.34,0,.62-.28,.62-.62v-.84h2.85c.34,0,.62-.28,.62-.62s-.28-.62-.62-.62h-2.85v-1.05c0-.34-.28-.62-.62-.62h-2.08c-.34,0-.62,.28-.62,.62v1.05h-31.73c-.34,0-.62,.28-.62,.62s.28,.62,.62,.62Zm32.97-1.67h.85v1.89h-.85v-1.89Z"/><path class="cls-1" d="M48.62,38.08c-.81,0-1.48,.66-1.48,1.48s.66,1.48,1.48,1.48,1.48-.66,1.48-1.48-.66-1.48-1.48-1.48Zm0,1.72c-.13,0-.24-.11-.24-.24s.11-.24,.24-.24,.24,.11,.24,.24-.11,.24-.24,.24Z"/><path class="cls-1" d="M52.55,38.08c-.81,0-1.48,.66-1.48,1.48s.66,1.48,1.48,1.48,1.48-.66,1.48-1.48-.66-1.48-1.48-1.48Zm0,1.72c-.13,0-.24-.11-.24-.24s.11-.24,.24-.24,.24,.11,.24,.24-.11,.24-.24,.24Z"/><path class="cls-1" d="M77.19,38.18h-19.16c-.34,0-.62,.28-.62,.62s.28,.62,.62,.62h19.16c.34,0,.62-.28,.62-.62s-.28-.62-.62-.62Z"/><path class="cls-1" d="M69,39.85h-10.97c-.34,0-.62,.28-.62,.62s.28,.62,.62,.62h10.97c.34,0,.62-.28,.62-.62s-.28-.62-.62-.62Z"/><path class="cls-1" d="M9.57,35.74c0-.34-.28-.62-.62-.62s-.62,.28-.62,.62v.9c0,.34,.28,.62,.62,.62s.62-.28,.62-.62v-.9Z"/><path class="cls-1" d="M9.57,50.04c0-.34-.28-.62-.62-.62s-.62,.28-.62,.62v1.8c0,.34,.28,.62,.62,.62s.62-.28,.62-.62v-1.8Z"/><path class="cls-1" d="M9.57,39.91c0-.34-.28-.62-.62-.62s-.62,.28-.62,.62v1.8c0,.34,.28,.62,.62,.62s.62-.28,.62-.62v-1.8Z"/><path class="cls-1" d="M8.95,64.63c-.34,0-.62,.28-.62,.62v1.8c0,.34,.28,.62,.62,.62s.62-.28,.62-.62v-1.8c0-.34-.28-.62-.62-.62Z"/><path class="cls-1" d="M9.57,44.98c0-.34-.28-.62-.62-.62s-.62,.28-.62,.62v1.8c0,.34,.28,.62,.62,.62s.62-.28,.62-.62v-1.8Z"/><path class="cls-1" d="M9.57,55.11c0-.34-.28-.62-.62-.62s-.62,.28-.62,.62v1.81c0,.34,.28,.62,.62,.62s.62-.28,.62-.62v-1.81Z"/><path class="cls-1" d="M9.57,60.18c0-.34-.28-.62-.62-.62s-.62,.28-.62,.62v1.8c0,.34,.28,.62,.62,.62s.62-.28,.62-.62v-1.8Z"/><path class="cls-1" d="M9.78,70.6h-.22v-.21c0-.34-.28-.62-.62-.62s-.62,.28-.62,.62v.83c0,.34,.28,.62,.62,.62h.83c.34,0,.62-.28,.62-.62s-.28-.62-.62-.62Z"/><path class="cls-1" d="M28.46,70.6h-1.67c-.34,0-.62,.28-.62,.62s.28,.62,.62,.62h1.67c.34,0,.62-.28,.62-.62s-.28-.62-.62-.62Z"/><path class="cls-1" d="M23.81,70.6h-1.67c-.34,0-.62,.28-.62,.62s.28,.62,.62,.62h1.67c.34,0,.62-.28,.62-.62s-.28-.62-.62-.62Z"/><path class="cls-1" d="M14.5,70.6h-1.67c-.34,0-.62,.28-.62,.62s.28,.62,.62,.62h1.67c.34,0,.62-.28,.62-.62s-.28-.62-.62-.62Z"/><path class="cls-1" d="M19.16,70.6h-1.67c-.34,0-.62,.28-.62,.62s.28,.62,.62,.62h1.67c.34,0,.62-.28,.62-.62s-.28-.62-.62-.62Z"/><path class="cls-1" d="M31.37,70.6c-.34,0-.62,.28-.62,.62s.28,.62,.62,.62h.9c.34,0,.62-.28,.62-.62s-.28-.62-.62-.62h-.9Z"/><path class="cls-1" d="M70.59,31.31c-.34,0-.62,.28-.62,.62v.83c0,.34,.28,.62,.62,.62s.62-.28,.62-.62v-.83c0-.34-.28-.62-.62-.62Z"/><path class="cls-1" d="M71.21,21.03c0-.34-.28-.62-.62-.62s-.62,.28-.62,.62v1.94c0,.34,.28,.62,.62,.62s.62-.28,.62-.62v-1.94Z"/><path class="cls-1" d="M71.21,26.44c0-.34-.28-.62-.62-.62s-.62,.28-.62,.62v1.94c0,.34,.28,.62,.62,.62s.62-.28,.62-.62v-1.94Z"/><path class="cls-1" d="M69.69,17.27h.28v.29c0,.34,.28,.62,.62,.62s.62-.28,.62-.62v-.9c0-.34-.28-.62-.62-.62h-.9c-.34,0-.62,.28-.62,.62s.28,.62,.62,.62Z"/><path class="cls-1" d="M61.08,17.27h1.53c.34,0,.62-.28,.62-.62s-.28-.62-.62-.62h-1.53c-.34,0-.62,.28-.62,.62s.28,.62,.62,.62Z"/><path class="cls-1" d="M56.78,17.27h1.53c.34,0,.62-.28,.62-.62s-.28-.62-.62-.62h-1.53c-.34,0-.62,.28-.62,.62s.28,.62,.62,.62Z"/><path class="cls-1" d="M52.48,17.27h1.53c.34,0,.62-.28,.62-.62s-.28-.62-.62-.62h-1.53c-.34,0-.62,.28-.62,.62s.28,.62,.62,.62Z"/><path class="cls-1" d="M65.39,17.27h1.53c.34,0,.62-.28,.62-.62s-.28-.62-.62-.62h-1.53c-.34,0-.62,.28-.62,.62s.28,.62,.62,.62Z"/><path class="cls-1" d="M48.59,17.27h.83c.34,0,.62-.28,.62-.62s-.28-.62-.62-.62h-.83c-.34,0-.62,.28-.62,.62s.28,.62,.62,.62Z"/></g></g></svg>