<?xml version="1.0" encoding="UTF-8"?><svg id="Layer_2" xmlns="http://www.w3.org/2000/svg" viewBox="0 0 90 83.36"><defs><style>.cls-1{fill:#fff;}</style></defs><g id="work"><g><path class="cls-1" d="M11.61,43.18c-.45,0-.82-.37-.82-.82s.37-.82,.82-.82h15.79c.45,0,.82,.37,.82,.82s-.37,.82-.82,.82H11.61Z"/><path class="cls-1" d="M11.61,49.83c-.45,0-.82-.37-.82-.82s.37-.82,.82-.82h15.79c.45,0,.82,.37,.82,.82s-.37,.82-.82,.82H11.61Z"/><path class="cls-1" d="M11.61,56.48c-.45,0-.82-.37-.82-.82s.37-.82,.82-.82h27.24c.45,0,.82,.37,.82,.82s-.37,.82-.82,.82H11.61Z"/><path class="cls-1" d="M11.61,63.12c-.45,0-.82-.37-.82-.82s.37-.82,.82-.82h31.59c.45,0,.82,.37,.82,.82s-.37,.82-.82,.82H11.61Z"/><path class="cls-1" d="M46.81,9.65c-.45,0-.82-.37-.82-.82s.37-.82,.82-.82h31.59c.45,0,.82,.37,.82,.82s-.37,.82-.82,.82h-31.59Z"/><path class="cls-1" d="M51.28,16.3c-.45,0-.82-.37-.82-.82s.37-.82,.82-.82h27.11c.45,0,.82,.37,.82,.82s-.37,.82-.82,.82h-27.11Z"/><path class="cls-1" d="M62.6,22.94c-.45,0-.82-.37-.82-.82s.37-.82,.82-.82h15.79c.45,0,.82,.37,.82,.82s-.37,.82-.82,.82h-15.79Z"/><path class="cls-1" d="M62.6,29.59c-.45,0-.82-.37-.82-.82s.37-.82,.82-.82h15.79c.45,0,.82,.37,.82,.82s-.37,.82-.82,.82h-15.79Z"/><path class="cls-1" d="M45.05,45.29c-5.3,0-9.61-4.31-9.61-9.61s4.31-9.61,9.61-9.61,9.61,4.31,9.61,9.61-4.31,9.61-9.61,9.61Zm0-17.59c-4.4,0-7.97,3.58-7.97,7.97s3.58,7.97,7.97,7.97,7.97-3.58,7.97-7.97-3.58-7.97-7.97-7.97Z"/><path class="cls-1" d="M44.23,39.08c-.22,0-.43-.09-.58-.24l-2.71-2.71c-.16-.15-.24-.36-.24-.58s.09-.43,.24-.58c.16-.16,.36-.24,.58-.24s.43,.09,.58,.24l2.13,2.13,4.09-4.09c.16-.15,.36-.24,.58-.24s.43,.09,.58,.24c.32,.32,.32,.84,0,1.16l-4.67,4.67c-.16,.15-.36,.24-.58,.24h0Z"/><path class="cls-1" d="M10.46,83.36c-.95,0-1.94-.72-1.94-1.92v-9.83c0-.33-.27-.61-.61-.61H3.08c-1.7,0-3.08-1.38-3.08-3.08v-31.32c0-1.7,1.38-3.08,3.08-3.08H26.97l.15-.26c.33-.58,.94-.94,1.61-.94h2.44l.1-.38c.32-1.17,.78-2.3,1.39-3.36l.2-.34-1.73-1.73c-.72-.72-.72-1.89,0-2.61l2.13-2.13c.35-.35,.81-.54,1.3-.54l.54,.03,.09-.54V3.08c0-1.7,1.38-3.08,3.08-3.08h48.65c1.7,0,3.08,1.38,3.08,3.08V15.48c0,.45-.37,.82-.82,.82s-.82-.37-.82-.82V3.08c0-.79-.64-1.44-1.44-1.44H38.28c-.79,0-1.44,.65-1.44,1.44V22.75l.75,.75,.34-.19c1.05-.6,2.18-1.07,3.34-1.38l.38-.1v-2.44c0-1.02,.83-1.84,1.84-1.84h3.04c1.02,0,1.85,.83,1.85,1.84v2.44l.38,.1c1.17,.32,2.29,.78,3.34,1.38l.34,.19,1.72-1.72c.35-.35,.82-.54,1.32-.54s.97,.19,1.32,.54l2.13,2.13c.72,.72,.72,1.89,0,2.61l-1.73,1.73,.2,.34c.61,1.05,1.07,2.18,1.39,3.36l.1,.38h2.44c1.02,0,1.84,.83,1.84,1.84v1.66h4.2c1.25,0,2.42,.56,3.22,1.53l9.25,11.32v-10.6c0-1.24,1.01-2.25,2.25-2.25h4.83c.78,0,1.44-.66,1.44-1.44v-12.7c0-.45,.37-.82,.82-.82s.82,.37,.82,.82v12.7c0,1.7-1.38,3.08-3.08,3.08h-4.83c-.34,0-.61,.27-.61,.61v9.83c0,1.2-.99,1.92-1.94,1.92-.57,0-1.08-.25-1.46-.71l-8.77-10.72c-.48-.59-1.19-.92-1.95-.92h-4.19l-.12,.34c-.27,.73-.96,1.21-1.73,1.21h-2.44l-.1,.38c-.32,1.18-.79,2.3-1.39,3.36l-.2,.34,1.73,1.73c.72,.72,.72,1.89,0,2.61l-2.13,2.13c-.35,.35-.81,.54-1.3,.54l-.68-.05v17.86c0,1.7-1.38,3.08-3.08,3.08h-15.71c-.45,0-.82-.37-.82-.82s.37-.82,.82-.82h15.71c.78,0,1.44-.66,1.44-1.44v-19.38l-.71-.71-.34,.2c-1.05,.61-2.18,1.07-3.36,1.39l-.38,.1v2.44c0,1.02-.83,1.84-1.85,1.84h-3.01c-1.02,0-1.84-.83-1.84-1.84v-2.44l-.38-.1c-1.17-.32-2.3-.78-3.36-1.39l-.34-.2-.28,.28c-.23,.23-.44,.45-.63,.64-.99,1.02-1.34,1.35-2.13,1.35-.49,0-.96-.19-1.3-.54l-2.13-2.13c-.72-.72-.72-1.89,0-2.61l1.73-1.73-.2-.34c-.61-1.06-1.07-2.18-1.39-3.36l-.1-.38h-2.44c-1.02,0-1.84-.83-1.84-1.84v-2.01H3.08c-.78,0-1.44,.66-1.44,1.44v31.32c0,.78,.66,1.44,1.44,1.44H7.91c1.24,0,2.25,1.01,2.25,2.25v10.6l9.25-11.32c.79-.97,1.97-1.53,3.22-1.53h7.16c.45,0,.82,.37,.82,.82s-.37,.82-.82,.82h-7.16c-.76,0-1.47,.34-1.95,.92l-8.77,10.73c-.37,.46-.89,.71-1.46,.71h0Zm27.15-37.15c.31,0,.62,.09,.88,.25,1.1,.67,2.29,1.16,3.53,1.46,.76,.19,1.29,.86,1.29,1.64v2.62h3.42v-2.62c0-.78,.53-1.45,1.29-1.64,1.25-.3,2.43-.8,3.53-1.46,.27-.16,.57-.25,.89-.25,.35,0,.69,.11,.97,.31,.12,.09,.13,.09,.94,.9l1.13,1.13,2.42-2.42-1.85-1.85c-.55-.55-.65-1.4-.24-2.08,.66-1.09,1.16-2.28,1.46-3.53,.19-.76,.86-1.29,1.64-1.29h2.69l-.09-.59s-.01-.09-.01-.14v-2.69h-2.62c-.78,0-1.45-.53-1.64-1.29-.3-1.25-.8-2.43-1.46-3.53-.41-.67-.31-1.52,.24-2.08l1.85-1.85-2.4-2.4-1.84,1.84c-.32,.32-.75,.5-1.2,.5-.32,0-.63-.09-.9-.25-1.1-.67-2.28-1.16-3.53-1.46-.76-.19-1.3-.86-1.3-1.64v-2.62h-3.39v2.62c0,.78-.53,1.45-1.29,1.64-1.24,.3-2.43,.8-3.53,1.46-.27,.16-.58,.25-.9,.25-.46,0-.89-.18-1.2-.49-.91-.91-1.29-1.3-1.41-1.43l-.36-.38-.42,.32-2.05,2.05,1.85,1.85c.55,.55,.65,1.41,.25,2.08-.67,1.1-1.16,2.28-1.46,3.53-.19,.76-.86,1.29-1.64,1.29h-2.62v3.42h2.62c.78,0,1.46,.53,1.64,1.29,.3,1.25,.8,2.43,1.46,3.53,.41,.67,.31,1.52-.24,2.07l-1.85,1.85,2.42,2.42,1.85-1.85c.32-.32,.74-.49,1.19-.49Z"/></g></g></svg>