<?xml version="1.0" encoding="UTF-8"?><svg id="Layer_2" xmlns="http://www.w3.org/2000/svg" viewBox="0 0 94.11 83.1"><defs><style>.cls-1{fill:#fff;}</style></defs><g id="work"><g><path class="cls-1" d="M81.3,83.1c-.44,0-.8-.36-.8-.8s.36-.8,.8-.8h10.16c.59,0,1.07-.48,1.07-1.07V26.65c0-.59-.48-1.07-1.07-1.07h-17.69l-12.82,14.27c-.39,.43-.92,.69-1.5,.72h-.26s-.23,.06-.23,.06l-5.53,2.75c-.23,.11-.47,.17-.72,.17-.4,0-.78-.15-1.08-.42-.5-.45-.67-1.14-.44-1.77l2.19-5.93-.02-.15c-.01-.07-.02-.14-.02-.21-.03-.57,.17-1.13,.55-1.56l7.13-7.94h-25.5c-.44,0-.8-.36-.8-.8s.36-.8,.8-.8h26.93l15.5-17.26c.41-.46,1-.72,1.62-.72,.54,0,1.05,.2,1.45,.55l3.83,3.44c.43,.39,.69,.92,.72,1.5,.03,.58-.17,1.13-.55,1.57l-9.8,10.91h16.26c1.47,0,2.66,1.19,2.66,2.66v53.79c0,1.47-1.19,2.66-2.66,2.66h-10.16Zm-28.65-41.1l4.78-2.38-2.93-2.63-1.85,5.01Zm4.97-4.34l1.75,1.57,21.31-23.72-1.75-1.58-21.31,23.72Zm-2.94-2.64l1.75,1.58,21.31-23.72-1.75-1.57-21.31,23.72Zm22.37-24.9l4.69,4.21,2.46-2.74-4.69-4.21-2.46,2.74Z"/><path class="cls-1" d="M12.42,83.1c-6.85,0-12.42-5.57-12.42-12.42V12.42C0,5.57,5.57,0,12.42,0h2.87c1.47,0,2.66,1.19,2.66,2.66V12.46c0,.44-.36,.8-.8,.8s-.8-.36-.8-.8V2.66c0-.59-.48-1.06-1.07-1.06h-2.87C6.45,1.59,1.59,6.45,1.59,12.42V63.62l1.07-1.36c2.38-3.01,5.93-4.74,9.76-4.74h2.87c.59,0,1.07-.48,1.07-1.07V18.54c0-.44,.36-.8,.8-.8s.8,.36,.8,.8v5.45h11.48c.44,0,.8,.36,.8,.8s-.36,.8-.8,.8h-11.48v30.87c0,1.47-1.19,2.66-2.66,2.66h-2.87c-5.97,0-10.83,4.86-10.83,10.83v.74c0,5.97,4.86,10.83,10.83,10.83h62.8c.44,0,.8,.36,.8,.8s-.36,.8-.8,.8H12.42Z"/><path class="cls-1" d="M56.76,66.36c-.44,0-.8-.36-.8-.8v-15.95c0-.44,.36-.8,.8-.8h6.99l.03-.56c.32-5.34,4.76-9.53,10.12-9.53s10.14,4.55,10.14,10.14-4.46,10.03-9.94,10.13h-.59v6.57c0,.44-.36,.8-.8,.8h-15.95Zm.8-1.59h14.36v-5.95l-.46-.11c-3.77-.94-6.71-4-7.49-7.81l-.1-.48h-6.32v14.35Zm16.35-24.45c-4.42,0-8.16,3.45-8.51,7.85l-.05,.65h7.37c.44,0,.8,.36,.8,.8v7.8l.62-.02c4.59-.12,8.32-3.95,8.33-8.54,0-4.71-3.83-8.54-8.54-8.54Zm-8.22,10.85c.76,2.69,2.79,4.85,5.44,5.77l.8,.28v-6.8h-6.45l.21,.76Z"/><path class="cls-1" d="M79.08,62.76c-.44,0-.8-.36-.8-.8s.36-.8,.8-.8h3.11c.44,0,.8,.36,.8,.8s-.36,.8-.8,.8h-3.11Z"/><path class="cls-1" d="M79.08,66.36c-.44,0-.8-.36-.8-.8s.36-.8,.8-.8h3.11c.44,0,.8,.36,.8,.8s-.36,.8-.8,.8h-3.11Z"/><path class="cls-1" d="M24.9,36.98c-.44,0-.8-.36-.8-.8s.36-.8,.8-.8h2.23c.44,0,.8,.36,.8,.8s-.36,.8-.8,.8h-2.23Z"/><path class="cls-1" d="M24.9,41.04c-.44,0-.8-.36-.8-.8s.36-.8,.8-.8h10.78c.44,0,.8,.36,.8,.8s-.36,.8-.8,.8h-10.78Z"/><path class="cls-1" d="M33.45,36.98c-.44,0-.8-.36-.8-.8s.36-.8,.8-.8h2.23c.44,0,.8,.36,.8,.8s-.36,.8-.8,.8h-2.23Z"/><path class="cls-1" d="M41.99,36.98c-.44,0-.8-.36-.8-.8s.36-.8,.8-.8h2.23c.44,0,.8,.36,.8,.8s-.36,.8-.8,.8h-2.23Z"/><path class="cls-1" d="M24.9,45.08c-.44,0-.8-.36-.8-.8s.36-.8,.8-.8h10.78c.44,0,.8,.36,.8,.8s-.36,.8-.8,.8h-10.78Z"/><path class="cls-1" d="M24.9,49.12c-.44,0-.8-.36-.8-.8s.36-.8,.8-.8h17.09c.44,0,.8,.36,.8,.8s-.36,.8-.8,.8H24.9Z"/><path class="cls-1" d="M24.9,53.15c-.44,0-.8-.36-.8-.8s.36-.8,.8-.8h19.32c.44,0,.8,.36,.8,.8s-.36,.8-.8,.8H24.9Z"/><path class="cls-1" d="M24.9,63.5c-.44,0-.8-.36-.8-.8v-3.85c0-.44,.36-.8,.8-.8h3.85c.44,0,.8,.36,.8,.8v3.85c0,.44-.36,.8-.8,.8h-3.85Zm.8-1.59h2.26v-2.25h-2.26v2.25Z"/><path class="cls-1" d="M34.13,63.5c-.44,0-.8-.36-.8-.8v-3.85c0-.44,.36-.8,.8-.8h3.85c.44,0,.8,.36,.8,.8v3.85c0,.44-.36,.8-.8,.8h-3.85Zm.8-1.59h2.26v-2.25h-2.26v2.25Z"/><path class="cls-1" d="M43.36,63.5c-.44,0-.8-.36-.8-.8v-3.85c0-.44,.36-.8,.8-.8h3.85c.44,0,.8,.36,.8,.8v3.85c0,.44-.36,.8-.8,.8h-3.85Zm.8-1.59h2.25v-2.25h-2.25v2.25Z"/><path class="cls-1" d="M24.9,73.31c-.44,0-.8-.36-.8-.8v-3.85c0-.44,.36-.8,.8-.8h3.85c.44,0,.8,.36,.8,.8v3.85c0,.44-.36,.8-.8,.8h-3.85Zm.8-1.59h2.26v-2.25h-2.26v2.25Z"/><path class="cls-1" d="M34.13,73.31c-.44,0-.8-.36-.8-.8v-3.85c0-.44,.36-.8,.8-.8h3.85c.44,0,.8,.36,.8,.8v3.85c0,.44-.36,.8-.8,.8h-3.85Zm.8-1.59h2.26v-2.25h-2.26v2.25Z"/><path class="cls-1" d="M43.36,73.31c-.44,0-.8-.36-.8-.8v-3.85c0-.44,.36-.8,.8-.8h3.85c.44,0,.8,.36,.8,.8v3.85c0,.44-.36,.8-.8,.8h-3.85Zm.8-1.59h2.25v-2.25h-2.25v2.25Z"/></g></g></svg>