<?xml version="1.0" encoding="UTF-8"?><svg id="Layer_2" xmlns="http://www.w3.org/2000/svg" viewBox="0 0 86.12 86.15"><defs><style>.cls-1{fill:#fff;}</style></defs><g id="work"><g><path class="cls-1" d="M6.55,86C2.93,85.99,0,83.04,0,79.42L.15,6.55C.16,2.93,3.11,0,6.72,0L44.62,.08c3.61,.01,6.55,2.96,6.55,6.57l-.15,72.88c-.01,3.61-2.96,6.55-6.57,6.55h0s-37.9-.08-37.9-.08ZM6.72,1.46c-2.81,0-5.11,2.28-5.11,5.09l-.15,72.88c0,2.81,2.28,5.11,5.09,5.11l37.9,.08c2.81,0,5.11-2.28,5.11-5.09l.15-72.88c0-2.81-2.28-5.11-5.09-5.11l-37.9-.08Z"/><path class="cls-1" d="M6.68,18.95c-.4,0-.73-.33-.73-.73l.02-11.66c0-.4,.33-.73,.73-.73l37.9,.08c.4,0,.73,.33,.73,.73l-.02,11.66c0,.4-.33,.73-.73,.73l-37.9-.08Zm.73-1.46l36.44,.07,.02-10.2-36.44-.07-.02,10.2Z"/><path class="cls-1" d="M6.65,36.44c-.4,0-.73-.33-.73-.73l.02-8.75c0-.4,.33-.73,.73-.73l8.75,.02c.4,0,.73,.33,.73,.73l-.02,8.75c0,.4-.33,.73-.73,.73l-8.75-.02Zm.73-1.46h7.29s.01-7.27,.01-7.27H7.39s-.01,7.27-.01,7.27Z"/><path class="cls-1" d="M21.22,36.47c-.4,0-.73-.33-.73-.73l.02-8.75c0-.4,.33-.73,.73-.73l8.75,.02c.4,0,.73,.33,.73,.73l-.02,8.75c0,.4-.33,.73-.73,.73l-8.75-.02Zm.73-1.46h7.29s.01-7.27,.01-7.27h-7.29s-.01,7.27-.01,7.27Z"/><path class="cls-1" d="M35.8,36.5c-.4,0-.73-.33-.73-.73l.02-8.75c0-.4,.33-.73,.73-.73l8.75,.02c.4,0,.73,.33,.73,.73l-.02,8.75c0,.4-.33,.73-.73,.73l-8.75-.02Zm.73-1.46h7.29s.01-7.27,.01-7.27h-7.29s-.01,7.27-.01,7.27Z"/><path class="cls-1" d="M6.62,51.02c-.4,0-.73-.33-.73-.73l.02-8.75c0-.4,.33-.73,.73-.73l8.75,.02c.4,0,.73,.33,.73,.73l-.02,8.75c0,.4-.33,.73-.73,.73l-8.75-.02Zm.73-1.46h7.29s.01-7.27,.01-7.27H7.36s-.01,7.27-.01,7.27Z"/><path class="cls-1" d="M21.19,51.04c-.4,0-.73-.33-.73-.73l.02-8.75c0-.4,.33-.73,.73-.73l8.75,.02c.4,0,.73,.33,.73,.73l-.02,8.75c0,.4-.33,.73-.73,.73l-8.75-.02Zm.73-1.46h7.29s.01-7.27,.01-7.27h-7.29s-.01,7.27-.01,7.27Z"/><path class="cls-1" d="M35.77,51.07c-.4,0-.73-.33-.73-.73l.02-8.75c0-.4,.33-.73,.73-.73l8.75,.02c.4,0,.73,.33,.73,.73l-.02,8.75c0,.4-.33,.73-.73,.73l-8.75-.02Zm.73-1.46h7.29s.01-7.27,.01-7.27h-7.29s-.01,7.27-.01,7.27Z"/><path class="cls-1" d="M6.59,65.59c-.4,0-.73-.33-.73-.73l.02-8.75c0-.4,.33-.73,.73-.73l8.75,.02c.4,0,.73,.33,.73,.73l-.02,8.75c0,.4-.33,.73-.73,.73l-8.75-.02Zm.73-1.46h7.29s.01-7.27,.01-7.27H7.33s-.01,7.27-.01,7.27Z"/><path class="cls-1" d="M21.16,65.62c-.4,0-.73-.33-.73-.73l.02-8.75c0-.4,.33-.73,.73-.73l8.75,.02c.4,0,.73,.33,.73,.73l-.02,8.75c0,.4-.33,.73-.73,.73l-8.75-.02Zm.73-1.46h7.29s.01-7.27,.01-7.27h-7.29s-.01,7.27-.01,7.27Z"/><path class="cls-1" d="M35.71,80.23c-.4,0-.73-.33-.73-.73l.05-23.32c0-.4,.33-.73,.73-.73l8.75,.02c.4,0,.73,.33,.73,.73l-.05,23.32c0,.4-.33,.73-.73,.73l-8.75-.02Zm.73-1.46h7.29s.04-21.85,.04-21.85h-7.29s-.04,21.85-.04,21.85Z"/><path class="cls-1" d="M6.56,80.17c-.4,0-.73-.33-.73-.73l.02-8.75c0-.4,.33-.73,.73-.73l8.75,.02c.4,0,.73,.33,.73,.73l-.02,8.75c0,.4-.33,.73-.73,.73l-8.75-.02Zm.73-1.46h7.29s.01-7.27,.01-7.27H7.3s-.01,7.27-.01,7.27Z"/><path class="cls-1" d="M21.13,80.2c-.4,0-.73-.33-.73-.73l.02-8.75c0-.4,.33-.73,.73-.73l8.75,.02c.4,0,.73,.33,.73,.73l-.02,8.75c0,.4-.33,.73-.73,.73l-8.75-.02Zm.73-1.46h7.29s.01-7.27,.01-7.27h-7.29s-.01,7.27-.01,7.27Z"/><path class="cls-1" d="M72.26,23.45c-.4,0-.73-.33-.73-.73v-2.24s-.48-.17-.48-.17c-1.45-.52-2.42-1.89-2.42-3.43,0-.4,.33-.72,.73-.72s.73,.33,.73,.73c0,1.21,.98,2.19,2.18,2.19,1.21,0,2.19-.98,2.19-2.18,0-1.21-.98-2.19-2.18-2.19-1.55,0-2.92-.98-3.43-2.43-.32-.92-.27-1.9,.16-2.78,.42-.87,1.16-1.53,2.07-1.85l.49-.17v-2.24c0-.4,.33-.73,.73-.73s.73,.33,.73,.73v2.24s.48,.17,.48,.17c1.45,.51,2.42,1.89,2.42,3.43,0,.4-.33,.72-.73,.72s-.73-.33-.73-.73c0-1.21-.98-2.19-2.18-2.19-1.21,0-2.19,.98-2.19,2.18s.98,2.19,2.18,2.19c1.55,0,2.92,.98,3.43,2.43,.66,1.89-.34,3.97-2.23,4.63l-.49,.17v2.24c0,.4-.33,.73-.73,.73Z"/><path class="cls-1" d="M59.02,86.1c-1.65,0-3.09-1.11-3.51-2.7-.51-1.94,.64-3.93,2.58-4.45l.8-.21-.31-.77c-.35-.87-.35-1.83,0-2.7l.32-.77-.8-.21c-1.26-.33-2.24-1.32-2.57-2.58-.25-.93-.11-1.91,.38-2.74,.49-.83,1.27-1.43,2.21-1.67l.8-.21-.31-.77c-.35-.87-.35-1.83,0-2.7l.32-.77-.8-.21c-.57-.15-1.09-.44-1.52-.83-.71-.65-1.12-1.54-1.16-2.5-.04-.96,.3-1.88,.95-2.59l.45-.49-.45-.49c-.39-.43-.68-.96-.82-1.52-.24-.93-.11-1.9,.38-2.73s1.27-1.42,2.2-1.66l.81-.21-.31-.77c-.52-1.28-.25-2.76,.69-3.77l.46-.49-.45-.49c-.93-1.02-1.2-2.5-.67-3.77l.32-.77-.8-.21c-1.26-.33-2.24-1.32-2.57-2.58-.25-.93-.11-1.91,.38-2.74,.49-.83,1.27-1.43,2.21-1.67l.8-.21-.31-.77c-.18-.44-.27-.91-.26-1.38,.01-1.99,1.64-3.61,3.64-3.61h3.71s-1.76-1.31-1.76-1.31c-1.07-.8-2.02-1.76-2.83-2.84-4.55-6.13-3.26-14.82,2.87-19.37,2.41-1.79,5.27-2.73,8.27-2.73,4.43,0,8.47,2.05,11.1,5.6,4.55,6.13,3.26,14.82-2.87,19.37l-1.77,1.31h3.7c2.01,.01,3.64,1.65,3.64,3.66,0,1.63-1.12,3.07-2.7,3.49l-.8,.21,.31,.77c.36,.87,.35,1.83,0,2.7l-.32,.77,.81,.21c.56,.15,1.09,.44,1.52,.83,1.46,1.35,1.56,3.63,.21,5.09l-.45,.49,.45,.49c.39,.43,.68,.96,.83,1.52,.24,.93,.11,1.9-.38,2.73-.49,.83-1.27,1.42-2.2,1.66l-.81,.21,.31,.77c.52,1.28,.25,2.76-.69,3.77l-.46,.49,.45,.49c.93,1.02,1.2,2.5,.67,3.77l-.32,.77,.8,.21c1.25,.33,2.24,1.32,2.57,2.58,.25,.93,.11,1.91-.38,2.74-.49,.83-1.27,1.43-2.21,1.67l-.8,.21,.31,.77c.35,.87,.35,1.83,0,2.7l-.32,.77,.8,.21c1.25,.33,2.24,1.32,2.57,2.58,.25,.93,.11,1.91-.38,2.74-.49,.83-1.27,1.43-2.21,1.67l-.8,.21,.31,.77c.18,.44,.27,.91,.26,1.38-.01,2-1.64,3.61-3.63,3.61,0,0-20.42-.04-20.42-.04Zm.01-5.83c-1.21,0-2.19,.98-2.19,2.18s.98,2.19,2.18,2.19l20.41,.04c1.21,0,2.19-.98,2.19-2.18,0-1.21-.98-2.19-2.18-2.19l-20.41-.04Zm2.93-5.82c-1.21,0-2.19,.98-2.19,2.18,0,1.21,.98,2.19,2.18,2.19l20.41,.04c1.21,0,2.19-.98,2.19-2.18,0-1.21-.98-2.19-2.18-2.19l-20.41-.04Zm-2.9-5.84c-1.21,0-2.19,.98-2.19,2.18,0,1.21,.98,2.19,2.18,2.19l20.41,.04c1.21,0,2.19-.98,2.19-2.18,0-1.21-.98-2.19-2.18-2.19l-20.41-.04Zm2.93-5.82c-1.21,0-2.19,.98-2.19,2.18,0,1.21,.98,2.19,2.18,2.19l20.41,.04c1.21,0,2.19-.98,2.19-2.18s-.98-2.19-2.18-2.19l-20.41-.04Zm-2.9-5.84c-1.21,0-2.19,.98-2.19,2.18,0,1.21,.98,2.19,2.18,2.19l20.41,.04c1.21,0,2.19-.98,2.19-2.18s-.98-2.19-2.18-2.19l-20.41-.04Zm.01-5.83c-1.21,0-2.19,.98-2.19,2.18s.98,2.19,2.18,2.19l20.41,.04c1.21,0,2.19-.98,2.19-2.18,0-1.21-.98-2.19-2.18-2.19l-20.41-.04Zm2.93-5.82c-1.21,0-2.19,.98-2.19,2.18s.98,2.19,2.18,2.19l20.41,.04c1.21,0,2.19-.98,2.19-2.18s-.98-2.19-2.18-2.19l-20.41-.04Zm.01-5.83c-1.21,0-2.19,.98-2.19,2.18s.98,2.19,2.18,2.19l20.41,.04c1.21,0,2.19-.98,2.19-2.18,0-1.21-.98-2.19-2.18-2.19l-20.41-.04Zm-2.9-5.84c-1.21,0-2.19,.98-2.19,2.18,0,1.21,.98,2.19,2.18,2.19l20.41,.04c1.21,0,2.19-.98,2.19-2.18,0-1.21-.98-2.19-2.18-2.19l-20.41-.04Zm2.93-5.82c-1.21,0-2.19,.98-2.19,2.18,0,1.21,.98,2.19,2.18,2.19l20.41,.04c1.21,0,2.19-.98,2.19-2.18s-.98-2.19-2.18-2.19l-20.41-.04ZM72.31,1.59c-6.83-.01-12.4,5.53-12.41,12.36,0,6.83,5.54,12.39,12.36,12.41,6.83,.01,12.4-5.53,12.42-12.36,.01-6.83-5.53-12.4-12.37-12.41Z"/></g></g></svg>