<?xml version="1.0" encoding="UTF-8"?><svg id="Layer_2" xmlns="http://www.w3.org/2000/svg" viewBox="0 0 96.12 74.14"><defs><style>.cls-1{fill:none;}.cls-2{fill:#fff;}</style></defs><g id="work"><g><path class="cls-1" d="M29.07,37.07c0,10.47,8.52,18.99,18.99,18.99s18.99-8.52,18.99-18.99-8.52-18.99-18.99-18.99-18.99,8.52-18.99,18.99Zm20-10.94c0,.56-.45,1.01-1.01,1.01-5.47,0-9.93,4.45-9.93,9.93s4.45,9.93,9.93,9.93,9.93-4.45,9.93-9.93c0-.56,.45-1.01,1.01-1.01s1.01,.45,1.01,1.01c0,6.59-5.36,11.95-11.95,11.95s-11.95-5.36-11.95-11.95,5.36-11.95,11.95-11.95c.56,0,1.01,.45,1.01,1.01Z"/><path class="cls-2" d="M95.92,36.46c-.2-.26-2.02-2.64-5.14-5.94-.38-.41-1.03-.42-1.43-.04-.41,.38-.42,1.03-.04,1.43,2.21,2.34,3.77,4.22,4.52,5.17-1.6,2.03-7.19,8.76-15.25,15.01-10.41,8.07-20.67,12.17-30.52,12.17s-20.1-4.09-30.51-12.17c-8.06-6.25-13.65-12.98-15.25-15.01,1.63-2.03,7.29-8.76,15.39-15.02,10.45-8.08,20.67-12.17,30.38-12.17,14.01,0,26.71,8.63,34.9,15.88,.2,.18,.46,.27,.73,.25,.27-.02,.52-.14,.7-.34s.27-.46,.25-.73c-.02-.27-.14-.52-.34-.7-8.45-7.47-21.6-16.39-36.25-16.39C22.06,7.86,1.08,35.29,.2,36.46c-.27,.36-.27,.85,0,1.21,.87,1.17,21.52,28.61,47.86,28.61s47-27.44,47.86-28.61c.26-.36,.26-.86,0-1.22Z"/><path class="cls-2" d="M36.11,37.07c0,6.59,5.36,11.95,11.95,11.95s11.95-5.36,11.95-11.95c0-.56-.45-1.01-1.01-1.01s-1.01,.45-1.01,1.01c0,5.47-4.45,9.93-9.93,9.93s-9.93-4.45-9.93-9.93,4.45-9.93,9.93-9.93c.56,0,1.01-.45,1.01-1.01s-.45-1.01-1.01-1.01c-6.59,0-11.95,5.36-11.95,11.95Z"/><path class="cls-2" d="M27.04,37.07c0,11.59,9.43,21.02,21.02,21.02s21.02-9.43,21.02-21.02-9.43-21.02-21.02-21.02-21.02,9.43-21.02,21.02Zm40.01,0c0,10.47-8.52,18.99-18.99,18.99s-18.99-8.52-18.99-18.99,8.52-18.99,18.99-18.99,18.99,8.52,18.99,18.99Z"/><path class="cls-2" d="M48.06,3.69c.56,0,1.01-.45,1.01-1.01V1.01c0-.56-.45-1.01-1.01-1.01s-1.01,.45-1.01,1.01v1.67c0,.56,.45,1.01,1.01,1.01Z"/><path class="cls-2" d="M63.8,5.99c.09,.03,.19,.04,.28,.04,.45,0,.85-.3,.97-.73l.47-1.6c.16-.54-.15-1.1-.69-1.26-.53-.16-1.1,.15-1.26,.69l-.47,1.6c-.16,.54,.15,1.1,.69,1.26Z"/><path class="cls-2" d="M78.53,13.14c.15,.09,.33,.14,.51,.14,.36,0,.69-.19,.87-.5l.85-1.44c.28-.48,.12-1.1-.36-1.39-.23-.14-.5-.18-.77-.11-.26,.07-.48,.23-.62,.47l-.85,1.44c-.28,.48-.12,1.1,.36,1.39Z"/><path class="cls-2" d="M91.02,22.72c.3,0,.58-.13,.78-.36l1.08-1.27c.36-.43,.3-1.07-.12-1.43-.21-.18-.47-.26-.74-.24-.27,.02-.51,.15-.69,.36l-1.08,1.27c-.36,.43-.3,1.07,.12,1.43,.18,.15,.41,.24,.65,.24Z"/><path class="cls-2" d="M31.07,5.3c.13,.43,.53,.73,.97,.73,.09,0,.19-.01,.28-.04,.54-.16,.84-.72,.69-1.26l-.47-1.6c-.16-.54-.72-.84-1.26-.69-.54,.16-.84,.72-.69,1.26l.47,1.6Z"/><path class="cls-2" d="M16.21,12.79c.18,.31,.52,.5,.87,.5,.18,0,.36-.05,.51-.14,.48-.28,.64-.91,.36-1.39l-.85-1.44c-.14-.23-.36-.4-.62-.47-.26-.07-.53-.03-.76,.11-.48,.28-.64,.91-.36,1.39l.85,1.44Z"/><path class="cls-2" d="M4.33,22.36c.19,.23,.48,.36,.78,.36,.24,0,.47-.08,.65-.24,.43-.36,.48-1,.12-1.43l-1.07-1.27c-.17-.21-.42-.33-.69-.36-.27-.02-.53,.06-.74,.23-.43,.36-.48,1-.12,1.43l1.07,1.27Z"/><path class="cls-2" d="M48.06,70.44c-.56,0-1.01,.45-1.01,1.01v1.67c0,.56,.45,1.01,1.01,1.01s1.01-.45,1.01-1.01v-1.67c0-.56-.45-1.01-1.01-1.01Z"/><path class="cls-2" d="M32.32,68.15c-.54-.15-1.1,.15-1.26,.69l-.47,1.6c-.16,.54,.15,1.1,.69,1.26,.09,.03,.19,.04,.28,.04,.45,0,.85-.3,.97-.73l.47-1.6c.16-.54-.15-1.1-.69-1.26Z"/><path class="cls-2" d="M17.6,60.99c-.23-.14-.5-.18-.76-.11-.26,.07-.48,.23-.62,.47l-.85,1.44c-.28,.48-.12,1.1,.36,1.39,.15,.09,.33,.14,.51,.14,.36,0,.69-.19,.87-.5l.85-1.44c.28-.48,.12-1.1-.36-1.39Z"/><path class="cls-2" d="M5.01,51.42c-.27,.02-.51,.15-.69,.36l-1.07,1.27c-.36,.43-.3,1.07,.12,1.43,.18,.15,.41,.24,.65,.24,.3,0,.58-.13,.78-.36l1.07-1.27c.36-.43,.3-1.07-.12-1.43-.21-.17-.47-.25-.74-.24Z"/><path class="cls-2" d="M65.05,68.83c-.08-.26-.25-.48-.49-.61-.24-.13-.51-.16-.77-.08-.54,.16-.84,.72-.69,1.26l.47,1.6c.13,.43,.53,.73,.97,.73,.09,0,.19-.01,.28-.04,.54-.16,.84-.72,.69-1.26l-.47-1.6Z"/><path class="cls-2" d="M79.91,61.35c-.14-.23-.36-.4-.62-.47-.26-.07-.53-.03-.76,.11-.48,.28-.64,.91-.36,1.39l.85,1.44c.18,.31,.52,.5,.87,.5,.18,0,.36-.05,.51-.14,.48-.28,.64-.91,.36-1.39l-.85-1.44Z"/><path class="cls-2" d="M91.79,51.78c-.36-.43-1-.48-1.43-.12-.43,.36-.48,1-.12,1.43l1.08,1.27c.19,.23,.48,.36,.78,.36,.24,0,.47-.08,.65-.24,.43-.36,.48-1,.12-1.43l-1.08-1.27Z"/></g></g></svg>