<?xml version="1.0" encoding="UTF-8"?><svg id="Layer_2" xmlns="http://www.w3.org/2000/svg" viewBox="0 0 80.37 83"><defs><style>.cls-1{fill:#fff;}</style></defs><g id="work"><g><path class="cls-1" d="M50.27,63.37H30.1c-.42,0-.76,.34-.76,.76v7.65c0,.42,.34,.76,.76,.76h20.17c.42,0,.76-.34,.76-.76v-7.65c0-.42-.34-.76-.76-.76Zm-.76,7.65H30.86v-6.13h18.65v6.13Z"/><path class="cls-1" d="M78.39,81.49h-19.28c-.42,0-.76,.34-.76,.76s.34,.76,.76,.76h19.28c.42,0,.76-.34,.76-.76s-.34-.76-.76-.76Z"/><path class="cls-1" d="M43.35,81.49h-2.64c-.42,0-.76,.34-.76,.76s.34,.76,.76,.76h2.64c.42,0,.76-.34,.76-.76s-.34-.76-.76-.76Z"/><path class="cls-1" d="M34.63,81.49h-7.63c-.42,0-.76,.34-.76,.76s.34,.76,.76,.76h7.63c.42,0,.76-.34,.76-.76,0-.42-.34-.76-.76-.76Z"/><path class="cls-1" d="M18.23,81.49H7.37c-.42,0-.76,.34-.76,.76s.34,.76,.76,.76h10.86c.42,0,.76-.34,.76-.76s-.34-.76-.76-.76Z"/><path class="cls-1" d="M52.48,18.09c-.08-.28-.31-.49-.59-.54l-7.62-1.11-3.41-6.9c-.18-.38-.63-.53-1.01-.35-.15,.07-.28,.2-.35,.35l-3.41,6.9-7.62,1.11c-.29,.04-.53,.24-.61,.52-.08,.27,0,.56,.2,.76l5.51,5.37-1.3,7.57c-.1,.41,.15,.82,.56,.92,.19,.05,.38,.02,.55-.07l6.81-3.59,6.81,3.59c.11,.06,.23,.08,.35,.08,.16,0,.32-.05,.45-.14,.24-.17,.36-.47,.3-.76l-1.3-7.57,5.5-5.38c.2-.2,.27-.49,.19-.76Zm-7,5.33c-.18,.17-.25,.42-.21,.67l1.11,6.47-5.81-3.03c-.22-.12-.49-.12-.71,0l-5.81,3.03,1.07-6.47c.04-.24-.04-.49-.22-.67l-4.7-4.59,6.5-.94c.25-.04,.46-.19,.57-.42l2.91-5.89,2.91,5.89c.11,.22,.32,.38,.57,.42l6.5,.94-4.68,4.59Z"/><path class="cls-1" d="M77.96,5.67h-14.22V.73c0-.19-.08-.38-.21-.51-.14-.14-.33-.22-.53-.22H16.54c-.42,0-.76,.34-.76,.76V5.69H2.41c-1.35,0-2.41,1.36-2.41,3.1v3.03c0,15.81,7.76,25.68,20.28,25.83,2.7,4.64,6.33,8.68,10.66,11.85,2.78,2.05,4.42,5.29,4.43,8.74v.62h-10.52c-.42,0-.76,.34-.76,.76v16.17H15.87c-.42,0-.76,.34-.76,.76s.34,.76,.76,.76h48.63c.42,0,.76-.34,.76-.76s-.34-.76-.76-.76h-8.23v-16.17c0-.42-.34-.76-.76-.76h-11.36v-.38c.03-3.5,1.71-6.77,4.54-8.83,4.21-3.24,7.69-7.34,10.2-12.03,13.45-.12,21.47-9.76,21.47-25.83v-3.03c0-1.74-1.06-3.1-2.41-3.1Zm-14.27,14.21l.02-7.99h10.33c0,10.52-5.37,18.84-12.34,19.45,1.3-3.68,1.97-7.56,1.99-11.46ZM15.8,11.89v7.98c-.03,3.88,.55,7.73,1.72,11.43-6.23-.85-11.14-9.23-11.17-19.41H15.8Zm-14.29-.09v-3.03c0-.91,.47-1.59,.89-1.59H15.78v3.15H5.57c-.42,0-.76,.34-.76,.76v.67c0,11.36,5.9,20.67,13.24,21.08,.41,1.1,.88,2.17,1.4,3.22C8.2,35.54,1.51,26.55,1.51,11.8ZM54.76,60.38v15.41H25.61v-15.41h29.15Zm-6.95-11.94c-3.22,2.34-5.13,6.07-5.16,10.05v.38h-5.77v-.62c-.04-3.91-1.89-7.59-5.03-9.93-9.66-7.27-14.56-16.83-14.56-28.42V11.29c0-.06,0-.12,0-.18,0-.06,0-.12,0-.18V1.51H62.23l-.05,18.36c0,12.4-7.45,23.51-14.37,28.57ZM78.85,11.82c0,14.8-7.14,23.8-19.15,24.3,.51-1.04,.99-2.11,1.43-3.22,8.1-.18,14.38-9.37,14.38-21.08v-.67c0-.42-.34-.76-.76-.76h-11.04v-3.19h14.24c.42,0,.89,.68,.89,1.59v3.03Z"/><path class="cls-1" d="M30.05,39.51c-.55-.6-1.03-1.27-1.42-1.99-.21-.36-.67-.49-1.04-.28-.36,.21-.49,.67-.28,1.04,.46,.82,1.02,1.58,1.67,2.27,.14,.15,.34,.24,.55,.23,.19,0,.38-.07,.52-.2,.29-.3,.29-.77,0-1.07Z"/><path class="cls-1" d="M25.95,32.52s0,0,0,0c-1.61-4-2.53-8.24-2.71-12.55-.02-.42-.38-.74-.79-.72s-.74,.38-.72,.79c.19,4.48,1.15,8.9,2.82,13.06,.12,.28,.39,.47,.7,.47,.1,0,.2-.02,.3-.06,.39-.16,.57-.6,.41-.99Z"/></g></g></svg>