<?xml version="1.0" encoding="UTF-8"?><svg id="Layer_2" xmlns="http://www.w3.org/2000/svg" viewBox="0 0 82 82.42"><defs><style>.cls-1{fill:#fff;}</style></defs><g id="work"><path class="cls-1" d="M2.59,82.42c-1.43,0-2.59-1.16-2.59-2.59v-25.6c0-1.76,1.43-3.19,3.19-3.19H25.31c.31,0,.61,.04,.9,.13l.52,.15v-7.04c0-1.76,1.43-3.19,3.19-3.19h1.77v-3.95c0-1.46,1.19-2.65,2.65-2.65h2.62l1.15-7.65-.28-.13c-.72-.33-1.41-.69-2.04-1.05-1.94-1.12-3.35-2.32-4.21-3.57l-.23-.34-.34,.24c-.46,.33-1,.5-1.56,.5-1.53,0-2.77-1.29-2.77-2.88,0-.45,.37-.82,.82-.82s.82,.37,.82,.82c0,.69,.51,1.24,1.13,1.24s1.13-.56,1.13-1.24c0-.84-.32-1.65-.89-2.22-.47-.48-1.15-1.06-1.93-1.73-2.97-2.55-6.99-6-7.28-9.83-.12-1.57,.41-3.04,1.56-4.38C22.81,.55,23.83,.05,24.98,0h.18c1.83,0,3.72,1.07,4.97,1.98l.43,.31,.19-.49c.38-1,1.36-1.68,2.43-1.68h15.65c1.07,0,2.05,.67,2.43,1.68l.19,.49,.43-.31C53.14,1.08,55.02,0,56.84,0h.17c1.15,.05,2.17,.55,2.94,1.44,1.15,1.34,1.68,2.81,1.56,4.39-.29,3.83-4.31,7.29-7.25,9.81-.8,.69-1.49,1.28-1.96,1.76-.5,.5-.81,1.19-.88,1.92v.14s-.01,.16-.01,.16c0,.69,.51,1.24,1.13,1.24s1.13-.56,1.13-1.24c0-.45,.37-.82,.82-.82s.82,.37,.82,.82c0,1.59-1.24,2.88-2.77,2.88-.56,0-1.09-.17-1.55-.5l-.34-.24-.23,.34c-.86,1.25-2.27,2.45-4.2,3.56-.65,.37-1.34,.73-2.06,1.06l-.28,.13,1.15,7.64h2.62c1.46,0,2.65,1.19,2.65,2.65v3.95h1.78c1.76,0,3.19,1.43,3.19,3.19v5.13c0,.45-.37,.82-.82,.82s-.82-.37-.82-.82v-5.13c0-.86-.7-1.55-1.55-1.55H29.93c-.86,0-1.55,.7-1.55,1.55v25.24c0,.45-.37,.82-.82,.82s-.82-.37-.82-.82v-15.97l-.05-.09c-.29-.49-.8-.79-1.37-.79H3.19c-.86,0-1.55,.7-1.55,1.55v25.6c0,.52,.43,.95,.95,.95H26.73v-6.38c0-.45,.37-.82,.82-.82s.82,.37,.82,.82v6.38h25.26v-26.42c0-.45,.37-.82,.82-.82s.82,.37,.82,.82v4.64l.51-.14c.28-.08,.58-.12,.88-.12h22.15c1.76,0,3.19,1.43,3.19,3.19v17.9c0,1.43-1.16,2.59-2.59,2.59H2.59Zm54.07-22.04c-.56,0-1.05,.29-1.34,.76l-.06,.09v19.54h24.14c.53,0,.95-.43,.95-.95v-17.9c0-.86-.7-1.55-1.55-1.55h-22.15Zm-22.31-24.25c-.56,0-1.01,.45-1.01,1.01v3.95h15.32v-3.95c0-.56-.45-1.01-1.01-1.01h-13.3Zm4.27-1.64h4.76l-1.05-6.99-.46,.17c-.35,.13-.57,.2-.6,.21-.08,.03-.17,.04-.25,.04s-.17-.01-.25-.04c-.03-.01-.26-.08-.63-.21l-.46-.17-1.05,6.99ZM33.18,1.76c-.53,0-.96,.43-.96,.96V19.04c0,4.07,7.77,6.84,8.66,7.15l.13,.05,.13-.05c.89-.3,8.66-3.08,8.66-7.15V2.72c0-.53-.43-.96-.96-.96h-15.65Zm-8.14-.11c-.71,.03-1.28,.31-1.76,.87-.87,1.01-1.25,2.06-1.17,3.19,.24,3.16,4.12,6.48,6.68,8.69l.13,.12c.35,.3,.68,.58,.97,.85l.67,.6v-7.78l-.49,.11c-.2,.05-.41,.07-.62,.07-1.51,0-2.74-1.23-2.74-2.74,0-.45,.37-.82,.82-.82s.82,.37,.82,.82c0,.61,.49,1.1,1.1,1.1,.3,0,.58-.12,.79-.33,.21-.22,.32-.49,.32-.78v-1.15l-.14-.12c-.71-.63-3.19-2.69-5.27-2.69h-.13Zm26.4,14.29l.67-.6c.3-.27,.63-.55,.98-.85l.11-.1c2.57-2.2,6.44-5.53,6.68-8.69,.09-1.14-.3-2.18-1.17-3.19-.48-.56-1.06-.84-1.76-.87h-.12c-2.09,0-4.56,2.06-5.26,2.69l-.14,.12v1.14c0,.3,.11,.58,.32,.79,.21,.21,.48,.32,.77,.32,.61,0,1.1-.49,1.1-1.1,0-.45,.37-.82,.82-.82s.82,.37,.82,.82c0,1.51-1.23,2.74-2.74,2.74-.2,0-.4-.02-.6-.06l-.49-.11v7.76Z"/></g></svg>