<?xml version="1.0" encoding="UTF-8"?><svg id="Layer_2" xmlns="http://www.w3.org/2000/svg" viewBox="0 0 95.2 84.93"><defs><style>.cls-1{fill:#fff;}</style></defs><g id="work"><g><path class="cls-1" d="M57.88,31.97c-8.62,0-15.63,7.01-15.63,15.63s7.01,15.63,15.63,15.63,15.63-7.01,15.63-15.63-7.01-15.63-15.63-15.63Zm0,29.69c-7.75,0-14.06-6.31-14.06-14.06s6.31-14.06,14.06-14.06,14.06,6.31,14.06,14.06-6.31,14.06-14.06,14.06Z"/><path class="cls-1" d="M57.88,40.16c-.43,0-.78,.35-.78,.79s.35,.79,.78,.79c3.24,0,5.88,2.64,5.88,5.88,0,.43,.35,.79,.78,.79s.79-.35,.79-.79c0-4.11-3.34-7.45-7.45-7.45Z"/><path class="cls-1" d="M8.56,13.41c-.18,.1-.32,.26-.39,.46-.06,.2-.05,.41,.05,.6l5.12,9.9c.14,.26,.41,.42,.71,.42,.29,0,.56-.18,.69-.44l4.07-8.48,4.4,8.5c.14,.27,.4,.42,.72,.42,.29,0,.56-.18,.69-.44l4.75-9.9c.09-.19,.1-.4,.03-.6s-.21-.36-.4-.45c-.39-.18-.87-.01-1.05,.37l-4.07,8.48-4.4-8.5c-.14-.26-.41-.42-.72-.42-.29,0-.56,.18-.69,.45l-4.07,8.48-4.4-8.5c-.2-.38-.68-.54-1.06-.34Z"/><path class="cls-1" d="M23.42,1.34c.15-.15,.23-.35,.23-.55s-.08-.41-.23-.55c-.15-.15-.35-.23-.56-.23s-.41,.08-.55,.23c-.15,.15-.23,.35-.23,.55s.08,.41,.23,.56c.29,.29,.82,.29,1.11,0Z"/><path class="cls-1" d="M48.3,24.48l.78,.98,5.29-11.02c.09-.19,.1-.4,.03-.6-.07-.2-.21-.36-.4-.45-.38-.19-.87,0-1.05,.37l-4.07,8.48-4.4-8.5c-.14-.27-.41-.42-.72-.42-.29,0-.56,.17-.69,.44l-4.07,8.48-4.4-8.5c-.19-.37-.68-.53-1.06-.34-.19,.1-.33,.26-.39,.46-.06,.2-.04,.41,.05,.6l5.12,9.9c.14,.26,.41,.42,.72,.42,.29,0,.56-.18,.69-.45l4.07-8.48,4.4,8.5s.04,.07,.08,.11Z"/><path class="cls-1" d="M89.21,31.62V6.49c0-3.58-2.91-6.49-6.5-6.49H30.85c-.43,0-.79,.35-.79,.79s.35,.79,.79,.79h51.86c2.71,0,4.92,2.21,4.92,4.92V31.62c0,2.72-2.21,4.92-4.92,4.92h-3.22s-.69,.07-.69,.07l-.35-.63c-2.84-5-7.37-8.79-12.77-10.68l-1.18-.41,4.33-9.02,4.4,8.5c.14,.27,.41,.42,.72,.42,.29,0,.56-.18,.69-.44l4.75-9.9c.09-.19,.1-.4,.03-.6-.07-.2-.21-.36-.4-.45-.38-.18-.87,0-1.05,.37l-4.07,8.48-4.4-8.5c-.14-.27-.41-.42-.72-.42-.29,0-.56,.17-.69,.44l-4.07,8.48-4.4-8.5c-.19-.38-.67-.53-1.06-.34-.38,.2-.53,.67-.33,1.06l5.21,10.07-2.15-.31c-3.32-.48-6.68-.25-9.85,.65l-2.3,.65,.05,.07-1.28,.6c-4.41,2.06-8.17,5.54-10.58,9.78l-.32,.57H6.5c-2.71,0-4.92-2.21-4.92-4.92V6.49C1.57,3.78,3.78,1.57,6.5,1.57h7.8c.43,0,.79-.35,.79-.79s-.35-.79-.79-.79H6.5C2.91,0,0,2.91,0,6.49V31.62c0,3.58,2.91,6.5,6.5,6.5h29.7l-.54,1.5c-.93,2.56-1.39,5.25-1.39,7.99,0,13.03,10.6,23.62,23.62,23.62,4.13,0,8.2-1.09,11.76-3.14l.74-.43,15.71,15.71c1,1.01,2.34,1.56,3.77,1.56s2.77-.55,3.77-1.56c1.01-1.01,1.56-2.35,1.56-3.77s-.55-2.77-1.56-3.77l-5.93-5.93c-.3-.3-.82-.3-1.11,0-.31,.31-.31,.8,0,1.11l5.93,5.94c.71,.71,1.1,1.65,1.1,2.66s-.39,1.95-1.1,2.66c-.71,.71-1.66,1.1-2.66,1.1s-1.95-.39-2.66-1.1l-15.48-15.48,.97-.78c5.6-4.52,8.81-11.22,8.81-18.39,0-2.74-.47-5.43-1.39-7.99l-.54-1.5h3.14c3.58,0,6.5-2.91,6.5-6.5Zm-9.27,15.99c0,12.16-9.89,22.05-22.05,22.05s-22.05-9.89-22.05-22.05,9.89-22.05,22.05-22.05,22.05,9.89,22.05,22.05Z"/><path class="cls-1" d="M81.85,65.93c0,.2,.09,.41,.23,.55,.3,.29,.82,.29,1.11,0,.15-.15,.23-.35,.23-.55s-.08-.41-.23-.55c-.3-.3-.82-.29-1.11,0-.15,.15-.23,.35-.23,.56Z"/></g></g></svg>