<?xml version="1.0" encoding="UTF-8"?><svg id="Layer_2" xmlns="http://www.w3.org/2000/svg" viewBox="0 0 88 88"><defs><style>.cls-1{fill:#fff;}</style></defs><g id="work"><g><path class="cls-1" d="M69.94,79.35c-5.19,0-9.41-4.22-9.41-9.41s4.22-9.41,9.41-9.41,9.41,4.22,9.41,9.41-4.22,9.41-9.41,9.41Zm0-17.3c-4.35,0-7.89,3.54-7.89,7.89s3.54,7.89,7.89,7.89,7.89-3.54,7.89-7.89-3.54-7.89-7.89-7.89Z"/><path class="cls-1" d="M65.03,88l-.96-3.86-3.41,2.05-6.95-6.95,2.04-3.41-3.86-.96v-8.37l-.88,.27c-2.27,.7-4.63,1.06-7.01,1.06s-4.77-.36-7.05-1.06l-.33-.1-.28,.2c-2.99,2.2-5.89,4.09-8.6,5.6l-.39,.22,.04,.44c.03,.34,.06,.74,.06,1.15,0,7.57-6.16,13.73-13.73,13.73S0,81.84,0,74.27s6.16-13.73,13.73-13.73c.4,0,.81,.03,1.15,.06l.44,.04,.22-.39c1.51-2.7,3.39-5.59,5.61-8.6l.2-.28-.1-.33c-.71-2.28-1.06-4.65-1.06-7.04,0-13.13,10.69-23.82,23.82-23.82,2.39,0,4.76,.36,7.04,1.06l.33,.1,.28-.2c3.02-2.22,5.92-4.11,8.6-5.61l.38-.22-.04-.44c-.03-.36-.06-.75-.06-1.15,0-7.57,6.16-13.73,13.73-13.73s13.73,6.16,13.73,13.73-6.16,13.73-13.73,13.73c-.41,0-.81-.03-1.15-.06l-.44-.04-.22,.39c-1.53,2.73-3.41,5.62-5.6,8.6l-.2,.28,.1,.33c.71,2.28,1.06,4.65,1.06,7.04s-.35,4.74-1.06,7.01l-.27,.89h8.37l.96,3.86,3.41-2.05,6.95,6.95-2.05,3.41,3.86,.96v9.83l-3.86,.96,2.04,3.41-6.95,6.95-3.41-2.05-.96,3.86h-9.83Zm1.18-1.52h7.46l.93-3.71,1.12-.46,3.27,1.97,5.28-5.28-1.97-3.28,.43-1.05,.46-.18,3.28-.82v-7.46l-3.72-.93-.46-1.12,1.97-3.28-5.28-5.28-3.27,1.97-1.12-.46-.93-3.71h-7.81l-.18,.4c-2.39,5.27-6.61,9.48-11.87,11.87l-.4,.18v7.81l3.72,.93,.46,1.12-1.97,3.28,5.28,5.28,3.27-1.97,1.12,.46,.93,3.71Zm-52.48-7.13c-2.91,0-5.7,1.39-7.45,3.72l-.41,.55,.55,.41c2.14,1.61,4.67,2.46,7.32,2.46s5.18-.85,7.32-2.46l.55-.41-.41-.55c-1.76-2.33-4.54-3.72-7.45-3.72Zm0-13.05c3.6,0,6.52,2.93,6.52,6.52,0,1.84-.81,3.61-2.22,4.86l-.79,.7,.96,.44c1.54,.7,2.91,1.76,3.97,3.09l.53,.66,.53-.66c1.74-2.17,2.7-4.88,2.7-7.64,0-6.74-5.48-12.21-12.21-12.21s-12.21,5.48-12.21,12.21c0,2.77,.96,5.48,2.7,7.64l.53,.66,.53-.66c1.06-1.32,2.44-2.39,3.97-3.09l.96-.44-.79-.7c-1.41-1.25-2.22-3.02-2.22-4.86,0-3.6,2.93-6.52,6.52-6.52Zm0,1.52c-2.76,0-5.01,2.25-5.01,5.01s2.25,5.01,5.01,5.01,5.01-2.25,5.01-5.01-2.25-5.01-5.01-5.01Zm7.57-13.8c-1.5,2.11-2.83,4.17-3.96,6.12l-.43,.75,.82,.25c4.38,1.34,7.79,4.75,9.13,9.12l.25,.82,.75-.43c1.92-1.12,3.98-2.45,6.11-3.95l.95-.68-1.06-.5c-4.99-2.36-9.03-6.41-11.39-11.4l-.5-1.06-.68,.95Zm31.95,2.64c-1.82,3.66-4.07,6.41-5.64,8.08l-1.45,1.54,2.08-.4c5.4-1.04,10.22-4.06,13.57-8.51l.82-1.09h-9.19l-.19,.38Zm-1.93-2.65c-4.04,3.95-8.1,7.52-12.06,10.63l-1.16,.91,1.45,.3c1.23,.25,2.56,.39,3.96,.42h.26s.2-.16,.2-.16c1.28-1.07,5.67-5.05,8.47-11.33l.05-.12-1.06-.74-.09,.09Zm-25.12,3.36c2.53,3.35,5.92,5.92,9.82,7.42l.35,.14,.82-.62c.38-.29,.77-.57,1.15-.88l.54-.42-.42-.54c-1.46-1.85-2.71-3.81-3.71-5.81l-.19-.38h-9.19l.83,1.09Zm10.6-.08c.81,1.44,1.76,2.86,2.82,4.21l.43,.55,.54-.44c1.72-1.42,3.3-2.77,4.83-4.14l1.33-1.19h-10.52l.57,1.02Zm27.84-18.05c-2.66,3.39-5.62,6.82-8.81,10.19l-.13,.14-.04,.19c-.31,1.46-.71,2.83-1.17,4.07l-.35,.92h9.37l.19-.36c1.7-3.2,2.59-6.8,2.59-10.41,0-1.49-.15-2.99-.45-4.45l-.29-1.45-.91,1.16Zm-31.38,6.22c.17,3.01,.88,6,2.09,8.88l.18,.42h12.83l.2-.19c1.15-1.09,2.15-2.06,3.05-2.97,.9-.89,1.75-1.78,2.54-2.61l.14-.15,.04-.2c.18-.96,.3-2,.36-3.17l.04-.72h-21.51l.04,.72Zm-11.5,0c.21,3.17,1.06,6.17,2.52,8.92l.19,.36h9.39l-.35-.92c-1.03-2.74-1.63-5.58-1.77-8.44l-.03-.65h-10l.05,.73Zm32.72-11.34c1.19,3.19,1.8,6.5,1.8,9.85,0,.19-.01,.37-.02,.55-.01,.16-.02,.3-.02,.44l-.06,1.88,1.25-1.4c2.6-2.89,5.05-5.86,7.28-8.8l.23-.3-.14-.36c-.35-.92-.71-1.71-1.09-2.43l-.19-.36h-9.37l.35,.92Zm-19.1-.51c-1.22,2.85-1.92,5.84-2.1,8.88l-.04,.72h21.49l-.04-.72c-.18-3.04-.88-6.02-2.1-8.88l-.18-.42h-16.85l-.18,.42Zm-11.11-.05c-1.46,2.76-2.31,5.76-2.52,8.92l-.05,.73h10.02l.03-.65c.15-2.93,.73-5.78,1.73-8.44l.35-.92h-9.37l-.19,.36ZM60.14,17.34c-1.95,1.13-4.01,2.47-6.12,3.96l-.95,.68,1.06,.5c4.99,2.36,9.04,6.4,11.4,11.39l.5,1.06,.68-.95c1.5-2.11,2.83-4.17,3.95-6.11l.43-.74-.82-.25c-4.38-1.34-7.79-4.75-9.12-9.13l-.25-.82-.75,.43Zm-12.53,5.91c1.57,1.67,3.83,4.42,5.64,8.08l.19,.38h9.19l-.82-1.09c-3.35-4.44-8.17-7.46-13.57-8.51l-2.08-.4,1.45,1.54Zm-4.06-.94c-1.5,1.33-4.36,4.19-6.71,8.38l-.57,1.02h15.48l-.57-1.02c-2.35-4.19-5.22-7.05-6.71-8.38l-.45-.4-.45,.4Zm-3.78-.2c-5.4,1.04-10.22,4.06-13.57,8.51l-.83,1.09h9.19l.19-.38c1.82-3.66,4.07-6.41,5.64-8.08l1.45-1.54-2.08,.4Zm34.5-3.3c-2.91,0-5.7,1.39-7.45,3.72l-.41,.55,.55,.41c2.14,1.61,4.67,2.46,7.32,2.46s5.18-.85,7.32-2.46l.55-.41-.41-.55c-1.76-2.33-4.54-3.72-7.45-3.72Zm0-13.05c3.6,0,6.52,2.93,6.52,6.52,0,1.84-.81,3.61-2.22,4.86l-.79,.7,.96,.44c1.54,.7,2.91,1.76,3.97,3.09l.53,.66,.53-.66c1.74-2.17,2.7-4.88,2.7-7.64,0-6.74-5.48-12.21-12.21-12.21s-12.21,5.48-12.21,12.21c0,2.77,.96,5.48,2.7,7.64l.53,.66,.53-.66c1.06-1.32,2.44-2.39,3.97-3.09l.96-.44-.79-.7c-1.41-1.25-2.22-3.02-2.22-4.86,0-3.6,2.93-6.52,6.52-6.52Zm0,1.52c-2.76,0-5.01,2.25-5.01,5.01s2.25,5.01,5.01,5.01,5.01-2.25,5.01-5.01-2.25-5.01-5.01-5.01Z"/><path class="cls-1" d="M20.94,24.58c-2.01,0-3.64-1.63-3.64-3.64s1.63-3.64,3.64-3.64,3.64,1.63,3.64,3.64-1.63,3.64-3.64,3.64Zm0-5.77c-1.17,0-2.12,.95-2.12,2.12s.95,2.12,2.12,2.12,2.12-.95,2.12-2.12-.95-2.12-2.12-2.12Z"/><path class="cls-1" d="M11.56,20.25c.34-4.66,4.03-8.36,8.7-8.7v1.52c-3.8,.33-6.85,3.38-7.18,7.18h-1.52Z"/><path class="cls-1" d="M5.78,20.25c.35-7.81,6.66-14.13,14.47-14.47v1.52c-6.96,.35-12.61,5.99-12.96,12.96h-1.52Z"/><rect class="cls-1" x="37.48" y="37.48" width="1.52" height="1.52"/><rect class="cls-1" x="43.24" y="37.48" width="1.52" height="1.52"/><rect class="cls-1" x="49.01" y="37.48" width="1.52" height="1.52"/><rect class="cls-1" x="37.48" y="49.01" width="1.52" height="1.52"/><rect class="cls-1" x="43.24" y="49.01" width="1.52" height="1.52"/></g></g></svg>