<?xml version="1.0" encoding="UTF-8"?><svg id="Layer_2" xmlns="http://www.w3.org/2000/svg" viewBox="0 0 99.36 92.2"><defs><style>.cls-1{fill:#fff;}</style></defs><g id="work"><g><path class="cls-1" d="M49.68,37.99c-1.6,0-2.91,1.3-2.91,2.91,0,1.25,.8,2.35,1.98,2.75l.2,.07v1.53c0,.4,.33,.73,.73,.73s.73-.33,.73-.73v-1.53l.2-.07c1.18-.4,1.98-1.51,1.98-2.75,0-1.6-1.3-2.91-2.91-2.91Zm0,1.46c.8,0,1.45,.65,1.45,1.45s-.65,1.45-1.45,1.45-1.45-.65-1.45-1.45,.65-1.45,1.45-1.45Z"/><path class="cls-1" d="M60.26,82.76l-.1-.02v-15.57c0-.5-.41-.91-.91-.91h-3.8v-15.33s.08-.04,.12-.07c3.41-2.02,5.71-5.73,5.71-9.98v-5.44c0-1.6-1.3-2.91-2.91-2.91h-11.24v-5.8c0-1.4,1.14-2.53,2.53-2.53s2.53,1.14,2.53,2.53v2.18c0,.4,.33,.73,.73,.73h4.35c.4,0,.73-.33,.73-.73v-2.18c0-4.6-3.74-8.34-8.34-8.34s-8.34,3.74-8.34,8.34v5.8h-.36c-1.6,0-2.91,1.3-2.91,2.91v5.44c0,4.01,2.04,7.55,5.14,9.64,.02,.01,.04,.02,.06,.04v13.36h-3.8c-.5,0-.91,.41-.91,.91v17.58l-.1,.02c-2.18,.47-3.77,2.43-3.77,4.66,0,2.63,2.14,4.77,4.77,4.77s4.77-2.14,4.77-4.77c0-2.23-1.58-4.19-3.77-4.66l-.1-.02v-16.67h3.8c.5,0,.91-.41,.91-.91v-13.23h.13c1.37,.57,2.88,.89,4.46,.89,1.34,0,2.63-.24,3.83-.66,.04-.02,.08-.04,.13-.05v15.39c0,.5,.41,.91,.91,.91h3.8v14.66l-.1,.02c-2.18,.47-3.77,2.43-3.77,4.66,0,2.63,2.14,4.77,4.77,4.77s4.77-2.14,4.77-4.77c0-2.23-1.58-4.19-3.77-4.66Zm-17.83,4.33c0,1.63-1.33,2.96-2.96,2.96s-2.96-1.33-2.96-2.96,1.33-2.96,2.96-2.96,2.96,1.33,2.96,2.96Zm7.25-67.23c3.8,0,6.89,3.09,6.89,6.88v1.45h-2.89v-1.45c0-2.2-1.79-3.99-3.99-3.99s-3.99,1.79-3.99,3.99v5.8h-2.89v-5.8c0-3.8,3.09-6.88,6.88-6.88Zm0,31.17c-5.6,0-10.15-4.55-10.15-10.15v-5.44c0-.8,.65-1.45,1.45-1.45h17.41c.8,0,1.45,.65,1.45,1.45v5.44c0,3.88-2.19,7.26-5.4,8.96-.2,.11-.41,.21-.63,.3-1.26,.56-2.65,.88-4.12,.88Zm9.57,39.34c-1.63,0-2.96-1.33-2.96-2.96s1.33-2.96,2.96-2.96,2.96,1.33,2.96,2.96-1.33,2.96-2.96,2.96Z"/><path class="cls-1" d="M19.25,55.67c-6.37,0-11.54-5.18-11.54-11.54,0-.5-.41-.91-.91-.91s-.91,.41-.91,.91c0,7.37,5.99,13.36,13.36,13.36,.5,0,.91-.41,.91-.91s-.41-.91-.91-.91Z"/><path class="cls-1" d="M29.41,64.62l-.1-.02v-.1s.22-13.64,.22-13.64c0-.5-.4-.91-.9-.92-.51,0-.91,.4-.92,.9l-.22,13.76-.1,.02c-2.26,.47-3.91,2.49-3.91,4.8,0,2.71,2.2,4.91,4.91,4.91s4.91-2.2,4.91-4.91c0-2.3-1.64-4.32-3.89-4.8Zm-1.02,7.89c-1.7,0-3.09-1.39-3.09-3.09s1.39-3.09,3.09-3.09,3.09,1.39,3.09,3.09-1.39,3.09-3.09,3.09Z"/><path class="cls-1" d="M43.32,7.71c.5,0,.91-.41,.91-.91s-.41-.91-.91-.91c-10.5,0-19.06,8.54-19.09,19.04,0,.02,0,.04,0,.06v.11c.04,.47,.44,.85,.91,.85h.06c.5-.04,.88-.47,.84-.97v-.08c.04-9.49,7.79-17.2,17.27-17.2Z"/><path class="cls-1" d="M93.47,44.12c0-.5-.41-.91-.91-.91s-.91,.41-.91,.91c0,6.37-5.18,11.54-11.54,11.54-.5,0-.91,.41-.91,.91s.41,.91,.91,.91c7.37,0,13.36-5.99,13.36-13.36Z"/><path class="cls-1" d="M84.04,25.3l-.11-.02v-.11c.08-.57,.12-1.15,.12-1.7,0-8-6.51-14.51-14.51-14.51-2.03,0-4.08,.44-5.94,1.28l-.09,.04-.06-.08C58.75,3.81,51.23,0,43.32,0c-13.66,0-24.87,11.11-24.98,24.78v.12s-.12,0-.12,0C8.01,25.44,0,33.88,0,44.12s8.64,19.25,19.25,19.25h4.56c.5,0,.91-.41,.91-.91s-.41-.91-.91-.91h-4.56c-9.61,0-17.43-7.82-17.43-17.43s7.8-17.44,17.38-17.44c.28,.03,.57-.08,.75-.27,.17-.18,.26-.41,.25-.66,0-.12-.01-.25-.02-.37-.01-.15-.02-.27-.02-.4C20.16,12.21,30.55,1.82,43.32,1.82c7.65,0,14.81,3.78,19.14,10.12,.26,.38,.77,.51,1.17,.29,1.84-.97,3.83-1.46,5.91-1.46,7,0,12.69,5.7,12.69,12.7,0,.78-.08,1.58-.23,2.39-.05,.24,0,.49,.15,.69s.36,.34,.6,.37c8.43,1.28,14.79,8.68,14.79,17.21,0,9.61-7.82,17.43-17.43,17.43h-5.2c-.5,0-.91,.41-.91,.91s.41,.91,.91,.91h5.2c10.61,0,19.25-8.64,19.25-19.25,0-9.23-6.3-16.97-15.32-18.83Z"/><path class="cls-1" d="M70.79,68.43l-.1-.02v-.1l-.02-17.46c0-.5-.41-.91-.91-.91-.5,0-.91,.41-.91,.91l.02,17.56-.1,.02c-2.26,.48-3.89,2.49-3.89,4.8,0,2.71,2.2,4.91,4.91,4.91s4.91-2.2,4.91-4.91c0-2.31-1.64-4.33-3.9-4.8Zm-1,7.89c-1.7,0-3.09-1.39-3.09-3.09s1.39-3.09,3.09-3.09,3.09,1.39,3.09,3.09-1.39,3.09-3.09,3.09Z"/></g></g></svg>