<?xml version="1.0" encoding="UTF-8"?><svg id="Layer_2" xmlns="http://www.w3.org/2000/svg" viewBox="0 0 88.9 88.9"><defs><style>.cls-1{fill:#fff;}</style></defs><g id="work"><g><path class="cls-1" d="M65.23,39.65c.41,0,.75-.34,.75-.75v-3.64c0-.41-.34-.75-.75-.75h-7.87v-4.03c0-7.12-5.79-12.91-12.91-12.91s-12.91,5.79-12.91,12.91v4.03h-7.87c-.41,0-.75,.34-.75,.75v31.77c0,.41,.34,.75,.75,.75h41.56c.41,0,.75-.34,.75-.75v-22.01c0-.41-.34-.75-.75-.75s-.75,.34-.75,.75v21.26H24.42v-30.26h40.06v2.88c0,.41,.34,.75,.75,.75Zm-9.37-5.14h-16.83v-4.03c0-2.99,2.43-5.42,5.42-5.42s5.42,2.43,5.42,5.42c0,.41,.34,.75,.75,.75s.75-.34,.75-.75c0-3.82-3.11-6.93-6.93-6.93s-6.93,3.11-6.93,6.93v4.03h-4.48v-4.03c0-6.29,5.12-11.41,11.41-11.41s11.41,5.12,11.41,11.41v4.03Z"/><path class="cls-1" d="M46.59,53.06c-.23,.13-.38,.38-.38,.65v.86c0,.41,.34,.75,.75,.75s.75-.34,.75-.75v-.45c1.61-1.09,2.57-2.89,2.57-4.84,0-3.22-2.62-5.84-5.84-5.84s-5.84,2.62-5.84,5.84c0,1.95,.96,3.75,2.57,4.84v3.96c0,.41,.34,.75,.75,.75h5.03c.41,0,.75-.34,.75-.75s-.34-.75-.75-.75h-4.28v-3.63c0-.27-.15-.52-.38-.65-1.35-.77-2.19-2.22-2.19-3.77,0-2.39,1.95-4.34,4.34-4.34s4.34,1.95,4.34,4.34c0,1.55-.84,2.99-2.19,3.77Z"/><path class="cls-1" d="M44.45,7.82c2.16,0,3.91-1.75,3.91-3.91s-1.76-3.91-3.91-3.91-3.91,1.75-3.91,3.91,1.76,3.91,3.91,3.91Zm0-6c1.15,0,2.09,.94,2.09,2.09s-.94,2.09-2.09,2.09-2.09-.94-2.09-2.09,.94-2.09,2.09-2.09Z"/><path class="cls-1" d="M44.45,81.07c-2.16,0-3.91,1.76-3.91,3.91s1.76,3.91,3.91,3.91,3.91-1.75,3.91-3.91-1.76-3.91-3.91-3.91Zm0,6.01c-1.15,0-2.09-.94-2.09-2.09s.94-2.09,2.09-2.09,2.09,.94,2.09,2.09-.94,2.09-2.09,2.09Z"/><path class="cls-1" d="M84.99,40.54c-2.16,0-3.91,1.75-3.91,3.91s1.76,3.91,3.91,3.91,3.91-1.75,3.91-3.91-1.76-3.91-3.91-3.91Zm0,6c-1.15,0-2.09-.94-2.09-2.09s.94-2.09,2.09-2.09,2.09,.94,2.09,2.09-.94,2.09-2.09,2.09Z"/><path class="cls-1" d="M0,44.45c0,2.16,1.76,3.91,3.91,3.91s3.91-1.75,3.91-3.91-1.75-3.91-3.91-3.91-3.91,1.75-3.91,3.91Zm3.91-2.09c1.15,0,2.09,.94,2.09,2.09s-.94,2.09-2.09,2.09-2.09-.94-2.09-2.09,.94-2.09,2.09-2.09Z"/><g><path class="cls-1" d="M25.16,9.74l.49-.27c.06-.03,.13-.04,.19-.01,.06,.02,.11,.08,.13,.14l1.19,3.58c.09,.27,.31,.47,.58,.53,.07,.01,.13,.02,.19,.02,.21,0,.42-.09,.57-.24l7.51-7.51c.22-.22,.29-.54,.19-.83-.1-.29-.35-.5-.65-.54l-10.51-1.5c-.28-.04-.56,.07-.74,.28-.18,.22-.24,.51-.15,.78l1.15,3.44c.03,.1-.01,.22-.11,.27l-.34,.19C14.18,13.83,6.37,24.31,3.94,36.12l1.59,.3C7.83,25.28,15.16,15.32,25.16,9.74Zm1.11-4.71c.05-.06,.14-.09,.21-.08l6.8,.97c.08,.01,.15,.07,.18,.15,.03,.08,0,.17-.05,.23l-4.86,4.86s-.1,.07-.16,.07c-.02,0-.03,0-.05,0-.08-.02-.14-.08-.17-.15l-1.95-5.83c-.02-.07,0-.16,.04-.21Z"/><path class="cls-1" d="M62.93,79.31l-1.2-3.59c-.09-.27-.31-.47-.58-.53-.06-.02-.13-.02-.19-.02-.21,0-.42,.08-.57,.24l-7.51,7.51c-.22,.22-.29,.54-.19,.83,.1,.29,.35,.5,.65,.54l10.52,1.5c.28,.04,.54-.06,.73-.28,.18-.22,.24-.51,.15-.77l-1.15-3.44c-.03-.1,.01-.22,.11-.27l.34-.19c10.67-5.76,18.49-16.24,20.92-28.05l-1.59-.3c-2.3,11.14-9.63,21.11-19.62,26.67l-.49,.27c-.06,.03-.13,.04-.19,.01-.06-.02-.11-.07-.13-.14Zm-.3,4.56h0c-.04,.05-.11,.08-.17,.08h-.03s-6.8-.97-6.8-.97c-.08-.01-.15-.07-.18-.15-.03-.08,0-.17,.05-.23l4.86-4.86c.05-.06,.13-.08,.21-.06,.08,.02,.14,.08,.16,.15l1.95,5.83c.02,.07,0,.16-.04,.21Z"/><path class="cls-1" d="M84.29,35.56l1.5-10.51c.04-.28-.07-.56-.28-.74-.21-.17-.52-.23-.78-.15l-3.44,1.15c-.1,.04-.22,0-.27-.11l-.19-.34c-5.74-10.67-16.22-18.48-28.05-20.92l-.3,1.59c11.16,2.31,21.12,9.64,26.68,19.62l.27,.49c.03,.06,.04,.13,.01,.19s-.07,.11-.14,.13l-3.59,1.2c-.27,.09-.47,.31-.53,.58-.06,.28,.02,.56,.22,.76l7.51,7.51c.21,.21,.55,.29,.82,.2,.29-.1,.5-.35,.55-.65Zm-1.31-2.28c-.01,.08-.07,.16-.15,.18-.02,0-.04,.01-.07,.01-.06,0-.12-.02-.16-.07l-4.86-4.86c-.05-.05-.08-.13-.06-.21,.02-.08,.07-.14,.15-.16l5.83-1.94c.07-.03,.16-.01,.22,.04,.06,.05,.09,.13,.08,.2l-.97,6.8Z"/><path class="cls-1" d="M9.74,63.74l-.27-.49c-.03-.06-.04-.13-.01-.19s.07-.11,.14-.13l3.59-1.2c.27-.09,.47-.31,.53-.58,.06-.28-.02-.56-.22-.76l-7.51-7.51c-.21-.21-.55-.29-.83-.2-.29,.1-.5,.35-.55,.65l-1.5,10.51c-.04,.28,.07,.56,.28,.74,.21,.18,.51,.23,.77,.15l3.44-1.15s.05-.01,.07-.01c.08,0,.16,.04,.2,.12l.19,.34c5.75,10.68,16.23,18.5,28.05,20.92l.3-1.59c-11.15-2.29-21.12-9.62-26.68-19.62Zm-4.49-1.07s-.05,.01-.07,.01c-.05,0-.1-.02-.15-.05-.06-.05-.09-.13-.08-.2l.97-6.8c.01-.08,.07-.16,.15-.18,.08-.03,.17,0,.23,.05l4.86,4.86c.05,.05,.08,.13,.06,.21-.02,.08-.07,.14-.15,.16l-5.83,1.95Z"/></g></g></g></svg>