<?xml version="1.0" encoding="UTF-8"?><svg id="Layer_2" xmlns="http://www.w3.org/2000/svg" viewBox="0 0 111.53 61.06"><defs><style>.cls-1{fill:#fff;}</style></defs><g id="work"><g><path class="cls-1" d="M42.15,58.74v-10.88c0-.49-.41-.9-.92-.9s-.92,.41-.92,.92v12.25c0,.51,.41,.93,.92,.93H110.61c.51,0,.93-.42,.93-.93V.93c0-.51-.42-.93-.93-.93H41.23c-.51,0-.92,.42-.92,.93V13.21c0,.49,.41,.9,.92,.9s.92-.41,.92-.92V2.32c0-.26,.21-.47,.47-.47H109.21c.26,0,.47,.21,.47,.47V58.74c0,.26-.21,.47-.47,.47H42.62c-.26,0-.47-.21-.47-.47Z"/><path class="cls-1" d="M53.95,18.6c0-.52-.42-.94-.94-.94H29.07c-.52,0-.94,.42-.94,.94s.42,.95,.94,.95h23.93c.52,0,.94-.42,.94-.95Z"/><path class="cls-1" d="M60.81,31.03c0-.52-.42-.94-.94-.94h-17.15c-.52,0-.94,.42-.94,.94s.42,.94,.94,.94h17.15c.52,0,.94-.42,.94-.94Z"/><path class="cls-1" d="M34.85,31.1c0-.52-.42-.94-.94-.94h-9.68c-.52,0-.94,.42-.94,.94s.42,.94,.94,.94h9.68c.52,0,.94-.42,.94-.94Z"/><path class="cls-1" d="M13.06,42.46c0-.52-.42-.94-.94-.94H6.75c-.52,0-.94,.42-.94,.94s.42,.94,.94,.94h5.36c.52,0,.94-.42,.94-.94Z"/><path class="cls-1" d="M46.65,42.46c0-.52-.42-.94-.94-.94H20.31c-.52,0-.94,.42-.94,.94s.42,.94,.94,.94h25.39c.52,0,.94-.42,.94-.94Z"/><path class="cls-1" d="M18.89,30.15H.94c-.52,0-.94,.42-.94,.94s.42,.94,.94,.94H18.89c.52,0,.94-.42,.94-.94s-.42-.94-.94-.94Z"/><path class="cls-1" d="M12.12,19.55h9.19c.52,0,.94-.42,.94-.95s-.42-.94-.94-.94H12.12c-.52,0-.94,.42-.94,.94s.42,.95,.94,.95Z"/><path class="cls-1" d="M69.04,44.68l23.06-13.31c.3-.17,.48-.49,.48-.83s-.19-.66-.48-.84l-23.06-13.31c-.3-.17-.67-.17-.97,0-.3,.17-.48,.49-.48,.84v26.63c0,.34,.18,.66,.48,.84,.29,.17,.67,.17,.97,0Zm.48-25.79l.14,.08,20.03,11.56-20.17,11.64V18.89Z"/><path class="cls-1" d="M42.15,58.74v-10.88c0-.49-.41-.9-.92-.9s-.92,.41-.92,.92v12.25c0,.51,.41,.93,.92,.93H110.61c.51,0,.93-.42,.93-.93V.93c0-.51-.42-.93-.93-.93H41.23c-.51,0-.92,.42-.92,.93V13.21c0,.49,.41,.9,.92,.9s.92-.41,.92-.92V2.32c0-.26,.21-.47,.47-.47H109.21c.26,0,.47,.21,.47,.47V58.74c0,.26-.21,.47-.47,.47H42.62c-.26,0-.47-.21-.47-.47Z"/></g></g></svg>