<?xml version="1.0" encoding="UTF-8"?><svg id="Layer_2" xmlns="http://www.w3.org/2000/svg" viewBox="0 0 76.44 76.39"><defs><style>.cls-1{fill:#fff;}</style></defs><g id="work"><g><path class="cls-1" d="M7.67,12.43c-.42,0-.76-.34-.76-.76s.34-.76,.76-.76h25.62c.42,0,.76,.34,.76,.76s-.34,.76-.76,.76H7.67Z"/><path class="cls-1" d="M7.67,20.55c-.42,0-.76-.34-.76-.76s.34-.76,.76-.76h25.62c.42,0,.76,.34,.76,.76s-.34,.76-.76,.76H7.67Z"/><path class="cls-1" d="M7.67,28.66c-.42,0-.76-.34-.76-.76s.34-.76,.76-.76h25.62c.42,0,.76,.34,.76,.76s-.34,.76-.76,.76H7.67Z"/><path class="cls-1" d="M7.67,36.78c-.42,0-.76-.34-.76-.76s.34-.76,.76-.76h25.62c.42,0,.76,.34,.76,.76s-.34,.76-.76,.76H7.67Z"/><path class="cls-1" d="M7.67,44.9c-.42,0-.76-.34-.76-.76s.34-.76,.76-.76h25.62c.42,0,.76,.34,.76,.76s-.34,.76-.76,.76H7.67Z"/><path class="cls-1" d="M36.23,76.39c-.42,0-.76-.34-.76-.76v-4.63c0-.42,.34-.76,.76-.76s.76,.34,.76,.76v3.87h37.93V28.6c0-2.03-1.65-3.67-3.67-3.67-2.02,0-3.66,1.66-3.66,3.67V62.83c0,2.85-2.32,5.17-5.16,5.19H26.3c-1.32,0-2.51-.5-3.4-1.4-.9-.9-1.39-2.1-1.38-3.37v-2.43c0-.42,.34-.76,.76-.76s.76,.34,.76,.76v2.43c0,.87,.35,1.71,.96,2.32,.62,.6,1.44,.94,2.3,.94H58.65l-.5-.71c-.61-.87-.93-1.89-.93-2.95l-.07-48.96c0-.97-.39-1.92-1.08-2.6-.64-.68-1.55-1.07-2.49-1.07h-.12c-2,.01-3.64,1.66-3.64,3.67V52.66c0,2.84-2.32,5.17-5.16,5.19H10.72c-5.9,0-10.71-4.81-10.72-10.72V.76C0,.34,.34,0,.76,0H40.2c.42,0,.76,.34,.76,.76V52.66c0,.97,.39,1.92,1.08,2.6,.63,.68,1.53,1.07,2.48,1.07h.14c2-.01,3.64-1.66,3.64-3.68V13.87c0-1.07,.33-2.09,.94-2.96l.5-.71h-5.78c-.42,0-.76-.34-.76-.76s.34-.76,.76-.76h9.51c2.86,0,5.19,2.33,5.19,5.19l.07,48.97c0,.97,.39,1.92,1.08,2.6,.63,.67,1.54,1.06,2.48,1.06h.13c2.02-.01,3.66-1.66,3.66-3.67V28.6c0-1.07,.33-2.09,.94-2.96l.5-.71h-5.79c-.42,0-.76-.34-.76-.76s.34-.76,.76-.76h9.53c1.39,0,2.68,.54,3.66,1.51,.97,.97,1.53,2.3,1.53,3.67v47.04c0,.42-.34,.76-.76,.76H36.23ZM1.51,47.13c0,5.07,4.13,9.2,9.2,9.2h30.17l-.5-.71c-.61-.87-.94-1.89-.94-2.96V1.51H1.51V47.13Z"/></g></g></svg>