<?xml version="1.0" encoding="UTF-8"?><svg id="Layer_2" xmlns="http://www.w3.org/2000/svg" viewBox="0 0 79.1 77.28"><defs><style>.cls-1{fill:#fff;}</style></defs><g id="work"><g><path class="cls-1" d="M64.08,28.41c-.31-.31-.92-.31-1.24,0l-26.29,26.29c-1.79,1.79-4.17,2.77-6.7,2.77s-4.92-.98-6.7-2.77l-.57-.57c-1.79-1.79-2.77-4.17-2.77-6.7,0-2.54,.98-4.92,2.77-6.7L48.87,14.44c.17-.17,.26-.39,.26-.62s-.09-.45-.26-.62L36.09,.43c-.33-.33-.91-.33-1.24,0L8.57,26.72C3.04,32.24,0,39.6,0,47.43s3.04,15.19,8.57,20.71l.56,.57c5.52,5.52,12.88,8.57,20.72,8.57s15.19-3.04,20.72-8.57l26.29-26.29c.17-.17,.26-.39,.26-.62s-.09-.45-.26-.62l-12.77-12.78ZM29.85,75.53c-7.37,0-14.28-2.86-19.48-8.05l-.56-.57C4.61,61.72,1.75,54.8,1.75,47.43s2.86-14.29,8.06-19.48L35.48,2.28l11.54,11.54-10.24,10.24-8.06-8.06c-.33-.33-.91-.33-1.24,0-.34,.34-.34,.9,0,1.24l8.06,8.06-14.2,14.19c-2.12,2.12-3.28,4.94-3.28,7.94,0,3,1.17,5.82,3.28,7.94l.57,.57c2.12,2.12,4.94,3.28,7.94,3.28s5.82-1.17,7.94-3.28l25.67-25.67,11.54,11.54-10.24,10.24-8.03-8.03c-.33-.33-.91-.33-1.24,0-.17,.17-.26,.39-.26,.62s.09,.45,.26,.62l8.03,8.03-14.19,14.19c-5.19,5.19-12.11,8.05-19.48,8.05Z"/><path class="cls-1" d="M79.07,.67c-.05-.23-.19-.42-.39-.54-.41-.25-.95-.12-1.2,.29l-8.73,14.22-2.81-7.44c-.12-.31-.39-.52-.72-.56-.33-.04-.64,.11-.83,.38l-10.39,15.27c-.27,.4-.17,.94,.23,1.22,.15,.1,.32,.15,.49,.15,.29,0,.56-.14,.72-.38l9.44-13.88,2.85,7.53c.12,.31,.4,.53,.74,.56,.33,.03,.66-.13,.83-.41L78.97,1.33c.12-.2,.16-.43,.11-.66Z"/></g></g></svg>