<?xml version="1.0" encoding="UTF-8"?><svg id="Layer_2" xmlns="http://www.w3.org/2000/svg" viewBox="0 0 79.31 78.56"><defs><style>.cls-1{fill:#fff;}</style></defs><g id="work"><g><path class="cls-1" d="M71.14,31.17h0s-.47-7.27-.47-7.27c-.16-1.92-1.23-3.83-2.8-4.99-1.17-.87-2.5-1.19-3.73-.93-5.19,.98-6.62,6.87-6.27,11.62,.06,.84,.21,1.9,.43,3l.07,.37c.01,.05-.01,.11-.06,.13-.05,.03-.1,.02-.14-.01l-.29-.24-16.92-14.3c-1.16-.98-2.62-1.44-4.12-1.31-1.5,.13-2.87,.83-3.84,1.98-.81,.95-1.26,2.12-1.32,3.36v.2s-.03,.08-.07,.1-.08,.02-.12,0l-.18-.09c-.77-.37-1.58-.55-2.43-.55-1.67,0-3.24,.73-4.32,2-1.39,1.65-1.72,3.99-.83,5.96l.07,.17s.01,.08,0,.11c-.02,.04-.05,.06-.09,.06l-.18,.02c-1.39,.19-2.66,.88-3.57,1.95-.97,1.15-1.44,2.61-1.31,4.12,.13,1.5,.83,2.87,1.98,3.84l1.22,1.03s.05,.08,.04,.12c-.01,.05-.05,.08-.09,.09l-.25,.07c-1.13,.29-2.12,.92-2.87,1.82-.97,1.15-1.44,2.61-1.31,4.11,.13,1.5,.83,2.87,1.98,3.84l28.55,24.12c2.87,2.43,7.6,3.4,12.64,2.6,5.41-.87,10.35-3.57,13.91-7.6,.08-.09,.17-.19,.25-.29,0,0,0,0,0-.01,2.8-3.32,4.39-7.52,4.59-12.15,.2-4.54-1-9.19-3.37-13.08-2.89-4.74-4.53-11.03-4.78-13.98Zm6.16,26.97c-.19,4.32-1.69,8.2-4.35,11.21-3.25,3.69-7.77,6.16-12.73,6.95-1.06,.17-2.12,.26-3.15,.26-3.25,0-6.05-.86-7.89-2.41l-28.55-24.12c-1.54-1.3-1.73-3.61-.43-5.14,.63-.74,1.51-1.2,2.48-1.28,.97-.08,1.92,.22,2.66,.85l16.4,13.85,1.29-1.53-21.11-17.84c-.74-.63-1.2-1.51-1.28-2.48-.08-.97,.22-1.92,.85-2.66,.63-.74,1.51-1.2,2.48-1.28,.96-.09,1.91,.21,2.66,.85l21.11,17.84,1.29-1.53L26.51,30.67c-1.54-1.3-1.73-3.6-.43-5.14,.63-.74,1.51-1.2,2.48-1.28,.97-.09,1.92,.22,2.66,.85l22.51,19.02,1.29-1.53-20.07-16.95c-.74-.63-1.2-1.51-1.28-2.48-.08-.97,.22-1.92,.85-2.66,.63-.74,1.51-1.2,2.48-1.28,.96-.09,1.91,.21,2.66,.85l20.27,17.12c.2,.17,.46,.26,.73,.23,.27-.02,.51-.15,.68-.35,.35-.42,.3-1.05-.11-1.4,0,0-.02-.01-.02-.02l-.04-.05c-.65-1.7-1.18-4.5-1.3-6.14-.16-2.19,.13-4.4,.8-6.04,.8-1.97,2.1-3.13,3.85-3.46h.04c.85-.2,1.63,.21,2.13,.58,1.08,.8,1.88,2.21,2,3.52l.47,7.28c.3,3.68,2.18,10.15,5.06,14.87,2.17,3.56,3.26,7.8,3.08,11.95Z"/><path class="cls-1" d="M31.93,9.62c-.48,.29-.63,.92-.34,1.4,.29,.48,.92,.63,1.4,.34,.1-.06,2.58-1.56,5.76-1.56,2.83,0,5.33,1.14,7.43,3.4,.18,.19,.44,.3,.71,.31,.27,0,.54-.09,.73-.26,.2-.18,.31-.44,.32-.71,.01-.27-.09-.53-.27-.73-5.55-5.96-12.72-4.04-15.74-2.2Z"/><path class="cls-1" d="M25.49,5.44c.05-.03,5.3-3.42,12.49-3.42,5.79,0,11.1,2.18,15.79,6.47,.19,.17,.47,.28,.74,.25,.28-.01,.53-.13,.7-.32,.18-.2,.28-.46,.27-.73-.01-.27-.13-.52-.33-.71-14.72-13.46-30.62-3.36-30.78-3.25-.47,.31-.6,.94-.29,1.41,.31,.47,.94,.6,1.41,.29Z"/><path class="cls-1" d="M19.06,58.06c-8.26-1.93-8.17-10.18-8.16-10.53,.01-.56-.43-1.03-.99-1.05h0c-.57,0-1.03,.44-1.05,.99-.1,3.54,1.81,10.72,9.73,12.57,.56,.13,1.1-.21,1.23-.76,.06-.27,.02-.54-.13-.77-.14-.23-.37-.39-.63-.46Z"/><path class="cls-1" d="M18.75,66.99C1.27,61.39,2,44.67,2.04,43.96c.03-.56-.4-1.04-.96-1.08h-.05c-.54,0-1,.42-1.03,.96-.01,.19-.9,19,18.12,25.09,.26,.08,.53,.06,.78-.07,.24-.13,.42-.34,.5-.59,.08-.26,.06-.54-.06-.78-.12-.24-.34-.42-.6-.5Z"/></g></g></svg>