<?xml version="1.0" encoding="UTF-8"?><svg id="Layer_2" xmlns="http://www.w3.org/2000/svg" viewBox="0 0 99.12 94.64"><defs><style>.cls-1{fill:#fff;}</style></defs><g id="work"><g><path class="cls-1" d="M6.72,83.84c-1.25,0-2.35-1.03-2.35-2.21V45.07H73v11.51h1.81s0-21.36,0-21.36H7.46l.47-.2L69.88,9.22l-2.79-6.71c-.42-1-1.2-1.79-2.21-2.2-1.01-.41-2.11-.41-3.12,0L23.37,16.3h0S2.51,24.99,2.51,24.99c-1.01,.42-1.79,1.2-2.2,2.21s-.41,2.11,0,3.12l2.25,5.42v45.89c0,2.18,1.9,4.02,4.16,4.02H39.16v-1.81s-32.43,0-32.43,0ZM73,37.02v6.24h-7.23l6.24-6.24h.99Zm-3.54,0l-6.24,6.24h-9.02l6.24-6.24h9.02Zm-11.58,0l-6.24,6.24h-9l6.24-6.24h9Zm-11.56,0l-6.24,6.24h-9.02l6.24-6.24h9.02Zm-11.57,0l-6.24,6.24h-9.03l6.24-6.24h9.03Zm-11.58,0l-6.24,6.24H7.91l6.24-6.24h9.02Zm-11.57,0l-6.24,6.24h-.98v-6.24h7.22ZM62.46,1.98c.56-.23,1.17-.24,1.73,0,.56,.23,1,.66,1.23,1.22l1.93,4.78-9.66-4.01,4.77-1.98Zm-15.19,6.33l8.07-3.36,.04,.02,10.02,4.16-.23,.1-8.07,3.36-.04-.02-10.02-4.16,.23-.1Zm-10.66,4.44l8.08-3.36,.04,.02,10.02,4.16-.23,.1-8.34,3.26-9.8-4.07,.23-.1Zm-10.65,4.44l8.07-3.36,.04,.02,10.02,4.16-.23,.1-8.07,3.36-.04-.02-10.02-4.16,.23-.1Zm-10.64,4.43l8.06-3.36,.04,.02,10.02,4.16-.23,.1-8.06,3.36-.04-.02-10.02-4.16,.23-.1Zm-10.66,4.44l8.08-3.36,.04,.02,10.02,4.16-.23,.1-8.08,3.36-.04-.02-10.02-4.16,.23-.1Zm-2.67,3.56c-.23-.56-.23-1.17,0-1.73,.08-.19,.2-.38,.35-.57l.22,.02,9.58,3.98-.23,.1-7.82,3.26-2.1-5.04Z"/><polygon class="cls-1" points="8.94 69.89 28.05 69.89 28.05 79.28 29.86 79.28 29.86 69.89 39.24 69.89 39.25 68.08 8.94 68.08 8.94 69.89"/><path class="cls-1" d="M8.94,59.49h30.7c.24-.62,.61-1.19,1.1-1.67,.05-.05,.12-.09,.17-.14H8.94v1.81Z"/><polygon class="cls-1" points="85.66 56.65 77.01 56.53 77.01 56.6 85.54 56.65 85.66 56.65"/><path class="cls-1" d="M94.28,56.75l-17.28-.1v-.06s-2.2-.01-2.2-.01h-1.81s-8.09-.06-8.09-.06l-.03-.02-12.12-7.48c-.34-.21-.77-.22-1.12-.03-.35,.19-.57,.57-.57,.97l-.04,6.48-6.84-.04h0c-1.23,0-2.37,.46-3.27,1.27-.06,.05-.12,.09-.17,.14-.49,.48-.85,1.05-1.1,1.67-.22,.56-.35,1.15-.35,1.76l-.04,6.83v1.81s-.09,13.94-.09,13.94h0s0,1.82,0,1.82h0s-.02,3.76-.02,3.76c-.01,2.68,2.16,4.88,4.84,4.89l50.1,.34c1.31,0,2.53-.5,3.45-1.41,.93-.92,1.44-2.13,1.45-3.43l.16-28.16c.01-2.68-2.16-4.88-4.84-4.89Zm2.86,33.04c0,.81-.33,1.57-.9,2.15-.57,.57-1.33,.88-2.14,.88l-50.12-.34c-.81,0-1.57-.33-2.15-.9-.57-.58-.88-1.34-.88-2.16l.16-28.16c0-.81,.33-1.57,.9-2.15,.57-.57,1.33-.88,2.14-.88l7.57,.04c.62,0,1.12-.5,1.12-1.11l.03-5.93,11.24,6.94c.17,.11,.38,.17,.58,.17l29.58,.22c.81,0,1.57,.33,2.15,.9,.57,.58,.88,1.34,.88,2.16l-.16,28.16Z"/><path class="cls-1" d="M87.82,66.6l-37.77-.27c-.25,0-.47,.09-.64,.26-.17,.17-.27,.4-.27,.64,0,.5,.4,.91,.91,.92l37.76,.27c.25,0,.47-.09,.64-.26,.17-.17,.27-.4,.27-.64,0-.5-.4-.91-.91-.92Z"/><path class="cls-1" d="M87.78,74.55l-37.76-.27c-.25,0-.47,.09-.64,.26-.17,.17-.27,.4-.27,.64,0,.24,.09,.47,.26,.65s.4,.27,.64,.27l37.76,.27c.5,0,.91-.41,.92-.91,0-.24-.09-.47-.26-.65-.17-.17-.4-.27-.64-.27Z"/><path class="cls-1" d="M87.74,82.5l-37.76-.27c-.5,0-.91,.41-.92,.91,0,.24,.09,.47,.26,.64,.17,.17,.4,.27,.64,.27l37.76,.27c.5,0,.91-.41,.92-.91,0-.24-.09-.47-.26-.64-.17-.17-.4-.27-.64-.27Z"/></g></g></svg>