<?xml version="1.0" encoding="UTF-8"?><svg id="Layer_2" xmlns="http://www.w3.org/2000/svg" viewBox="0 0 101.44 79.43"><defs><style>.cls-1{fill:#fff;}</style></defs><g id="work"><g><path class="cls-1" d="M84.94,79.43c-.31,0-.62-.05-.92-.16-2.65-.95-7.46-3.4-9.92-9.22l-.32-.75h-15.92c-7.46,0-13.53-6.07-13.53-13.53v-11.4H27.66l-.32,.75c-2.46,5.81-7.27,8.27-9.92,9.22-.3,.11-.61,.16-.93,.16-.63,0-1.22-.22-1.72-.62-.74-.61-1.09-1.54-.94-2.49,.33-2.09,.52-4.03,.58-5.75l.04-1.24-1.24-.03c-7.29-.16-13.22-6.23-13.22-13.53V13.53C0,6.07,6.07,0,13.53,0H52.44c7.46,0,13.53,6.07,13.53,13.53v11.4h21.95c7.46,0,13.53,6.07,13.53,13.53v17.32c0,7.3-5.93,13.36-13.22,13.53l-1.24,.03,.04,1.24c.05,1.74,.25,3.67,.58,5.75,.15,.95-.2,1.88-.94,2.49-.49,.41-1.09,.63-1.72,.63ZM46.73,31.47c.14,0,.27,.03,.39,.1,.39,.22,.53,.71,.31,1.09-.98,1.76-1.5,3.76-1.5,5.79v17.32c0,6.58,5.35,11.93,11.92,11.93h16.51c.34,0,.65,.22,.76,.55,1.9,5.66,6.05,8.26,9.21,9.43l1.96,.73-.32-2.07c-.45-2.96-.64-5.61-.56-7.87,.02-.43,.37-.77,.8-.77h1.69c6.58,0,11.92-5.35,11.92-11.93v-17.32c0-6.58-5.35-11.93-11.92-11.93h-27.66c-.44,0-.8-.36-.8-.8s.36-.8,.8-.8h4.1V13.53c0-6.58-5.35-11.93-11.92-11.93H13.53C6.95,1.6,1.6,6.95,1.6,13.53V30.85c0,6.58,5.35,11.93,11.92,11.93h1.69c.43,0,.79,.34,.8,.77,.08,2.27-.1,4.91-.56,7.87l-.32,2.07,1.96-.73c3.16-1.18,7.32-3.77,9.21-9.43,.11-.33,.42-.55,.76-.55h17.25v-4.32c0-2.3,.59-4.57,1.7-6.57,.14-.25,.41-.41,.7-.41Z"/><path class="cls-1" d="M40.6,34.29c-.14,0-.27-.03-.39-.1-3.15-1.77-5.92-3.79-8.22-6l-.85-.82-.85,.82c-2.29,2.2-5.06,4.22-8.23,6-.12,.07-.25,.1-.39,.1-.29,0-.56-.16-.7-.41-.11-.19-.13-.4-.07-.61s.19-.38,.38-.48c3.09-1.73,5.77-3.7,7.98-5.83l.8-.78-.7-.87c-1.33-1.66-2.43-3.39-3.25-5.15-.09-.19-.1-.41-.03-.61s.22-.36,.41-.45c.11-.05,.22-.08,.34-.08,.31,0,.6,.18,.73,.46,.68,1.45,1.55,2.89,2.61,4.27l.98,1.28,.98-1.28c2.45-3.22,3.47-6.11,3.89-7.96l.34-1.5h-14.99c-.44,0-.8-.36-.8-.8s.36-.8,.8-.8h8.97v-4.27c0-.44,.36-.8,.8-.8s.8,.36,.8,.8v4.27h8.97c.44,0,.8,.36,.8,.8s-.36,.8-.8,.8h-2.99l-.18,1.02c-.33,1.92-1.4,5.77-4.81,10.01l-.7,.87,.8,.78c2.21,2.15,4.89,4.11,7.96,5.83,.39,.22,.52,.71,.31,1.09-.14,.25-.41,.41-.7,.41Z"/><path class="cls-1" d="M52.09,27.91c-.44,0-.8-.36-.8-.8s.36-.8,.8-.8,.81,.36,.81,.8-.36,.8-.8,.8Z"/><path class="cls-1" d="M70.69,34.87h2.45l5.27,24.81h-2.3l-1.23-6.65h-5.91l-1.26,6.65h-2.27l5.24-24.81Zm3.89,16.48l-2.63-13.38-2.63,13.38h5.27Z"/></g></g></svg>