<?xml version="1.0" encoding="UTF-8"?><svg id="Layer_2" xmlns="http://www.w3.org/2000/svg" viewBox="0 0 65.01 82"><defs><style>.cls-1{fill:#fff;}</style></defs><g id="work"><g><path class="cls-1" d="M60.14,0H.65C.29,0,0,.29,0,.65V81.35c0,.36,.29,.65,.65,.65H45.97c.09,0,.17-.02,.25-.05,.08-.03,.15-.08,.21-.14l1.83-1.83h16.11c.36,0,.65-.29,.65-.65V3.15c0-.36-.29-.65-.65-.65h-3.58V.65C60.79,.29,60.5,0,60.14,0h0Zm-13.56,79.8v-11.98h11.97l-11.97,11.98ZM63.72,3.8V78.69h-14.2l11.06-11.07c.05-.05,.09-.12,.12-.19v-.06c.02-.05,.03-.11,.04-.17v-18.83c0-.36-.29-.65-.65-.65s-.65,.29-.65,.65v18.14h-13.56c-.36,0-.65,.29-.65,.65v13.56H1.29V1.29H59.5V41c0,.36,.29,.65,.65,.65s.65-.29,.65-.65V3.8h2.93Z"/><path class="cls-1" d="M31.5,68.98c-3.6-1.16-5.68-.36-7.89,.48-.76,.28-1.55,.59-2.44,.83h-.1c-.48,.18-1,.25-1.51,.2-.22-.43-.27-.92-.14-1.39,.09-.28-.02-.59-.27-.75-.25-.16-.57-.13-.79,.08-.26,.25-.61,.65-.98,1.08-.25,.3-.51,.59-.72,.81-.3-1.29,0-3.31,2.79-5.86,.25-.18,.37-.5,.31-.8-.06-.24-.26-.42-.5-.47-.92-.15-8.39,5.39-13.04,11.29-.22,.28-.18,.68,.1,.91,0,0,0,0,0,0,.11,.09,.26,.14,.4,.14,.2,0,.39-.09,.51-.25,2.58-3.18,5.52-6.05,8.77-8.54-.73,1.29-.91,2.83-.49,4.25,.09,.44,.43,.78,.87,.86,.39,.05,.78-.1,1.04-.39,.22-.21,.5-.54,.81-.89,.05,.17,.11,.33,.19,.49,.16,.34,.46,.59,.83,.68,.74,.13,1.5,.06,2.21-.19h.09c.96-.26,1.77-.57,2.58-.87,2.16-.83,3.87-1.47,7.04-.45,.34,.11,.7-.08,.81-.42s-.08-.7-.42-.81l-.05-.03Z"/><path class="cls-1" d="M37.44,6.67c-.36,0-.65,.29-.65,.65V59.08c0,.36,.29,.65,.65,.65s.65-.29,.65-.65V7.32c0-.36-.29-.65-.65-.65Z"/><path class="cls-1" d="M48.01,24.41c-.07-.3-.34-.5-.65-.49-.3-.01-.57,.18-.65,.47l-2.14,7.51-1.29,4.22c-.11,.34,.09,.7,.43,.81,.06,0,.13,0,.19,0,.29,.01,.56-.18,.65-.46l1.15-3.76h3.03l.9,3.77c.09,.35,.44,.56,.78,.47,.35-.09,.56-.44,.47-.78l-2.87-11.76Zm-1.94,7.03l1.25-4.37,1.08,4.37h-2.33Z"/><path class="cls-1" d="M54.8,26.58h-1.63v-2.01c0-.36-.29-.65-.65-.65s-.65,.29-.65,.65v2.01h-1.63c-.36,0-.65,.29-.65,.65s.29,.65,.65,.65h1.63v2.01c0,.36,.29,.65,.65,.65s.65-.29,.65-.65v-2.01h1.63c.36,0,.65-.29,.65-.65s-.29-.65-.65-.65Z"/><path class="cls-1" d="M8.78,23.35h5.31c1.5,0,2.71-1.21,2.71-2.71v-4.82l2.31-2.06c.25-.25,.25-.66,0-.91-.23-.23-.6-.26-.86-.05l-1.67,1.49c-.43-1-1.41-1.65-2.49-1.65h-5.31c-1.5,0-2.71,1.21-2.71,2.71v5.31c.01,1.49,1.22,2.69,2.71,2.69h0Zm-1.42-8.02c0-.78,.64-1.41,1.42-1.41h5.31c.73,0,1.34,.56,1.41,1.29l-4.13,3.69-1.81-2.23c-.22-.28-.63-.32-.91-.1s-.32,.63-.1,.91l2.24,2.76c.11,.14,.28,.22,.45,.23h.05c.16,0,.31-.06,.43-.17l3.8-3.38v3.69c0,.78-.64,1.41-1.42,1.41h-5.31c-.78,0-1.42-.63-1.42-1.41v-5.28Z"/><path class="cls-1" d="M20.24,16.24h9.48c.36,0,.65-.29,.65-.65s-.29-.65-.65-.65h-9.48c-.36,0-.65,.29-.65,.65s.29,.65,.65,.65Z"/><path class="cls-1" d="M20.24,21.23h7.54c.36,0,.65-.29,.65-.65s-.29-.65-.65-.65h-7.54c-.36,0-.65,.29-.65,.65s.29,.65,.65,.65Z"/><path class="cls-1" d="M33.24,17.34h-13c-.36,0-.65,.29-.65,.65s.29,.65,.65,.65h13c.36,0,.65-.29,.65-.65s-.29-.65-.65-.65Z"/><path class="cls-1" d="M8.78,38.93h5.31c1.5,0,2.71-1.21,2.71-2.71v-4.84l2.31-2.06c.25-.25,.25-.66,0-.91-.23-.23-.6-.26-.86-.05l-1.67,1.49c-.43-1-1.41-1.65-2.49-1.65h-5.31c-1.5,0-2.71,1.21-2.71,2.71v5.31c0,1.5,1.22,2.71,2.71,2.71h0Zm-1.42-8.02c0-.78,.64-1.41,1.42-1.41h5.31c.73,0,1.34,.56,1.41,1.29l-4.13,3.69-1.81-2.23c-.22-.28-.63-.32-.91-.1-.28,.22-.32,.63-.1,.91h0l2.24,2.78c.11,.14,.28,.22,.45,.23h.05c.16,0,.31-.06,.43-.17l3.8-3.38v3.7c0,.78-.64,1.41-1.42,1.41h-5.31c-.78,0-1.42-.63-1.42-1.41v-5.31Z"/><path class="cls-1" d="M20.24,31.82h9.48c.36,0,.65-.29,.65-.65s-.29-.65-.65-.65h-9.48c-.36,0-.65,.29-.65,.65s.29,.65,.65,.65Z"/><path class="cls-1" d="M20.24,36.81h7.54c.36,0,.65-.29,.65-.65s-.29-.65-.65-.65h-7.54c-.36,0-.65,.29-.65,.65s.29,.65,.65,.65Z"/><path class="cls-1" d="M33.24,32.92h-13c-.36,0-.65,.29-.65,.65s.29,.65,.65,.65h13c.36,0,.65-.29,.65-.65s-.29-.65-.65-.65Z"/><path class="cls-1" d="M8.78,54.51h5.31c1.5,0,2.71-1.21,2.71-2.71v-4.84l2.31-2.06c.25-.25,.25-.66,0-.91-.23-.23-.6-.26-.86-.05l-1.67,1.49c-.43-1-1.41-1.65-2.49-1.65h-5.31c-1.5,0-2.71,1.21-2.71,2.71v5.31c0,1.5,1.22,2.71,2.71,2.71Zm-1.42-8.02c0-.78,.64-1.41,1.42-1.41h5.31c.73,0,1.34,.56,1.41,1.29l-4.13,3.69-1.81-2.21c-.22-.28-.63-.32-.91-.1-.28,.22-.32,.63-.1,.91l2.24,2.76c.11,.14,.28,.22,.45,.23h.05c.16,0,.31-.06,.43-.17l3.8-3.38v3.69c0,.78-.64,1.41-1.42,1.41h-5.31c-.78,0-1.42-.63-1.42-1.41v-5.3Z"/><path class="cls-1" d="M20.24,47.4h9.48c.36,0,.65-.29,.65-.65s-.29-.65-.65-.65h-9.48c-.36,0-.65,.29-.65,.65s.29,.65,.65,.65Z"/><path class="cls-1" d="M20.24,52.39h7.54c.36,0,.65-.29,.65-.65s-.29-.65-.65-.65h-7.54c-.36,0-.65,.29-.65,.65s.29,.65,.65,.65Z"/><path class="cls-1" d="M33.24,48.5h-13c-.36,0-.65,.29-.65,.65s.29,.65,.65,.65h13c.36,0,.65-.29,.65-.65s-.29-.65-.65-.65Z"/></g></g></svg>