<?xml version="1.0" encoding="UTF-8"?><svg id="Layer_2" xmlns="http://www.w3.org/2000/svg" viewBox="0 0 95.37 80"><defs><style>.cls-1{fill:#fff;}</style></defs><g id="work"><g><path class="cls-1" d="M5.33,11.21l.17-.17c.3-.29,.3-.77,0-1.07-.29-.3-.77-.3-1.07,0h0l-.17,.17c-.29,.29-.3,.77,0,1.06,0,0,0,0,0,0,.29,.29,.77,.3,1.06,0,0,0,0,0,0,0v.02Z"/><path class="cls-1" d="M8.19,8.35l.17-.17c.31-.27,.35-.74,.08-1.06s-.74-.35-1.06-.08c-.03,.03-.06,.05-.08,.08l-.17,.17c-.29,.29-.3,.77,0,1.06,0,0,0,0,0,0,.14,.14,.33,.22,.53,.22,.2,0,.39-.08,.53-.22Z"/><path class="cls-1" d="M11.2,5.33c.29-.3,.29-.77,0-1.07-.3-.29-.77-.29-1.07,0l-.17,.17c-.29,.29-.3,.77,0,1.06,0,0,0,0,0,0,.14,.14,.33,.22,.53,.22,.2,0,.39-.08,.53-.22l.18-.17Z"/><path class="cls-1" d="M8.01,10.75l-.17,.17c-.29,.29-.3,.77,0,1.06,.14,.14,.33,.22,.53,.22,.2,0,.39-.08,.53-.23l.17-.17c.27-.31,.23-.79-.08-1.06-.28-.24-.7-.24-.98,0Z"/><path class="cls-1" d="M10.88,7.83l-.17,.17c-.29,.29-.3,.77,0,1.06,0,0,0,0,0,0,.14,.14,.33,.22,.53,.22,.2,0,.39-.08,.53-.22l.17-.17c.29-.29,.29-.77,0-1.06-.29-.29-.77-.3-1.06,0,0,0,0,0,0,0Z"/><path class="cls-1" d="M14.88,4.92c-.29-.29-.77-.29-1.06,0l-.17,.17c-.29,.29-.29,.77,0,1.06,.29,.29,.77,.29,1.06,0l.17-.17c.29-.29,.29-.77,0-1.06,0,0,0,0,0,0Z"/><path class="cls-1" d="M5.09,13.65l-.17,.17c-.29,.29-.3,.77,0,1.06,.29,.29,.77,.3,1.06,0l.17-.17c.29-.29,.29-.77,0-1.07s-.77-.29-1.07,0Z"/><path class="cls-1" d="M21.6,15.73l-.17,.17c-.29,.3-.29,.77,.01,1.06,.14,.14,.32,.21,.52,.21,.2,0,.39-.08,.53-.22l.17-.17c.29-.29,.29-.77,0-1.07s-.77-.29-1.07,0Z"/><path class="cls-1" d="M18.75,18.58l-.17,.17c-.29,.29-.3,.77,0,1.06,.29,.29,.77,.3,1.06,0l.17-.17c.29-.29,.3-.77,0-1.06-.29-.29-.77-.3-1.06,0Z"/><path class="cls-1" d="M15.73,21.6c-.29,.29-.3,.77,0,1.06,.14,.14,.33,.22,.53,.22,.2,0,.39-.08,.53-.22l.17-.17c.29-.29,.3-.77,0-1.06-.29-.29-.77-.3-1.06,0l-.17,.17Z"/><path class="cls-1" d="M18.39,16.41c.2,0,.39-.08,.53-.23l.17-.17c.29-.29,.3-.77,0-1.06-.29-.29-.77-.3-1.06,0h0l-.17,.17c-.29,.29-.29,.77,0,1.06,.14,.14,.33,.22,.53,.23Z"/><path class="cls-1" d="M15.49,19.31c.2,0,.39-.08,.53-.22l.17-.17c.29-.29,.29-.77,0-1.06-.29-.29-.77-.3-1.06,0,0,0,0,0,0,0l-.17,.17c-.29,.29-.3,.77,0,1.06,0,0,0,0,0,0,.14,.14,.33,.22,.53,.22Z"/><path class="cls-1" d="M12.04,21.97c.14,.14,.33,.22,.53,.23,.21,0,.41-.08,.56-.23l.17-.17c.31-.27,.35-.74,.08-1.06-.27-.31-.74-.35-1.06-.08-.03,.03-.06,.05-.08,.08l-.17,.17c-.3,.29-.31,.76-.02,1.06Z"/><path class="cls-1" d="M21.31,13.5c.2,0,.39-.08,.53-.22l.17-.17c.31-.27,.35-.74,.08-1.06-.27-.31-.74-.35-1.06-.08-.03,.03-.06,.05-.08,.08l-.17,.17c-.29,.29-.3,.77,0,1.06,0,0,0,0,0,0,.14,.14,.33,.22,.53,.22Z"/><path class="cls-1" d="M1.95,21.46c-.47,.47-.75,1.1-.75,1.76,0,1.38,1.11,2.49,2.49,2.5,.67,0,1.31-.27,1.78-.75l.41-.41c2.24,1.53,4.88,2.35,7.59,2.36,.23,0,.45,0,.67-.04,.03,.05,.06,.1,.11,.14l34.19,31.06c.69,.62,1.59,.96,2.52,.96,1.04-.01,2.03-.41,2.79-1.12l3.69,3.68c.14,.14,.33,.22,.53,.22,.2,0,.39-.08,.53-.22l.98-.98c.91,.93,1.96,2.18,2.12,2.81,.38,1.5-1.13,2.85-2.88,4.39-1.94,1.71-4.13,3.66-4.08,6.4,.03,1.69,.78,3.28,2.06,4.38,1.03,.88,2.34,1.37,3.7,1.38,.27,0,.55-.02,.82-.07,10.05-1.5,12.18-13.31,14.06-23.69,1.59-8.85,3.1-17.21,8.91-18.42,3.61-.83,7.31,.94,8.93,4.26,3,6.64-3.57,11.11-3.86,11.26-.34,.23-.44,.69-.21,1.04,.23,.35,.69,.45,1.04,.22,0,0,0,0,0,0,.08-.05,7.91-5.35,4.39-13.16-1.91-3.96-6.31-6.09-10.6-5.12-6.81,1.42-8.4,10.29-10.09,19.65-1.87,10.38-3.81,21.11-12.76,22.48-1.2,.17-2.41-.19-3.33-.98-.97-.81-1.53-1.99-1.55-3.25,0-2.05,1.8-3.68,3.57-5.26,1.94-1.72,3.95-3.49,3.34-5.89-.28-1.12-1.68-2.66-2.52-3.5l1.12-1.12c.29-.29,.29-.77,0-1.06l-3.68-3.68c1.42-1.47,1.48-3.77,.16-5.32L27.02,14.25s-.08-.06-.12-.09c.15-2.93-.67-5.83-2.33-8.26l.41-.41c.48-.46,.75-1.09,.75-1.76,0-1.37-1.11-2.49-2.48-2.49-.67,0-1.3,.26-1.77,.74l-.41,.41C14.96-1.84,6.59-.3,2.37,5.82c-3.16,4.59-3.17,10.64-.02,15.24l-.41,.41Zm34.59,11.92l2.25,2.22c.77,.77,.77,2.02,0,2.79h0s-.36,.36-.36,.36c-.77,.77-2.02,.77-2.79,0h0s-2.22-2.22-2.22-2.22l3.12-3.15Zm-4.21,2.1l-2.21-2.25c-.77-.77-.77-2.02,0-2.79h0s.35-.35,.35-.35c.77-.77,2.03-.77,2.8,0l2.21,2.21-3.15,3.19Zm2.25,4.33c1.35,1.36,3.55,1.36,4.91,.01,0,0,0,0,.01-.01l.35-.35c1.36-1.35,1.36-3.55,.01-4.91,0,0,0,0-.01-.01l-2.21-2.25,2.01-2.01,15.54,17.13-7.77,7.74-17.1-15.54,2.01-2.01,2.25,2.22Zm23.36,20.21l-3.13-3.13,2.09-2.09,3.13,3.13-2.09,2.09Zm-1.19-7.2l-3.54,3.54-.39,.38c-.89,.97-2.38,1.08-3.4,.24l-.89-.81,7.64-7.64,.81,.89c.84,1.02,.74,2.51-.23,3.4h0Zm-18.15-23.62l-2.06,2.06-2.25-2.25c-1.36-1.35-3.56-1.35-4.92,0l-.36,.36c-1.35,1.36-1.35,3.56,0,4.92l2.25,2.21-2.06,2.06-13.12-11.89c5.36-1.04,9.54-5.24,10.57-10.59l11.95,13.13Zm-16.65-7.23c-4.02,3.96-10.26,4.58-14.99,1.5L23.47,6.96c3.09,4.74,2.45,11-1.53,15.02Zm1.28-19.22c.26,0,.51,.1,.7,.29,.39,.38,.39,.99,.02,1.38,0,0-.01,.01-.02,.02L4.4,23.96c-.35,.42-.98,.47-1.4,.12-.42-.35-.47-.98-.12-1.4,.04-.04,.08-.08,.12-.12L22.53,3.04c.18-.2,.43-.32,.7-.33v.04ZM4.99,5C9.01,1.01,15.26,.36,20.01,3.44L3.49,19.96C.42,15.24,1.05,9.01,4.99,5h0Z"/></g></g></svg>