<?xml version="1.0" encoding="UTF-8"?><svg id="Layer_2" xmlns="http://www.w3.org/2000/svg" viewBox="0 0 81.77 81.77"><defs><style>.cls-1{fill:#fff;}</style></defs><g id="work"><g><path class="cls-1" d="M6.45,81.77c-3.55,0-6.45-2.9-6.45-6.45V6.45C0,2.9,2.9,0,6.45,0H75.32c3.55,0,6.45,2.9,6.45,6.45V75.32c0,3.55-2.9,6.45-6.45,6.45H6.45Zm35.81-20.66c-1,0-1.81,.81-1.81,1.81v5.51c0,1,.81,1.81,1.81,1.81h4.93c.42,0,.78,.27,.9,.67,.36,1.2,.85,2.38,1.45,3.48,.2,.37,.13,.82-.16,1.12l-3.5,3.5c-.07,.07-.11,.13-.15,.19l-.47,.69h30.05c2.52,0,4.57-2.05,4.57-4.57v-30.05l-.68,.47c-.06,.04-.11,.08-.17,.13l-3.52,3.51c-.18,.18-.41,.27-.66,.27-.15,0-.31-.04-.44-.11-1.11-.6-2.28-1.08-3.49-1.44-.39-.12-.67-.49-.67-.9v-4.93c0-1-.81-1.81-1.81-1.81h-5.51c-1,0-1.81,.81-1.81,1.81v4.93c0,.41-.28,.78-.67,.9-1.21,.36-2.38,.85-3.48,1.45-.14,.08-.3,.12-.45,.12-.25,0-.49-.1-.66-.27l-3.5-3.5c-.35-.34-.8-.52-1.28-.52s-.93,.18-1.27,.51l-3.9,3.9c-.35,.35-.53,.8-.53,1.28,0,.48,.19,.93,.53,1.27l3.5,3.5c.29,.29,.36,.75,.16,1.12-.6,1.11-1.09,2.28-1.45,3.48-.12,.39-.49,.67-.9,.67h-4.93ZM1.88,75.32c0,2.52,2.05,4.57,4.57,4.57H43.51l.07-.35c.14-.7,.48-1.34,.98-1.85l3-3-.13-.28c-.31-.64-.59-1.31-.83-1.98l-.1-.29h-4.24c-2.04,0-3.7-1.66-3.7-3.7v-5.51c0-2.04,1.66-3.7,3.7-3.7h4.24l.1-.29c.24-.67,.52-1.34,.83-1.98l.13-.28-3.01-3.01c-1.44-1.44-1.44-3.78,0-5.21l3.9-3.9c.7-.67,1.63-1.04,2.61-1.04s1.91,.37,2.61,1.05l3,3,.28-.13c.64-.31,1.31-.58,1.98-.82l.29-.1v-4.24c0-2.04,1.66-3.69,3.7-3.69h5.51c2.04,0,3.7,1.66,3.7,3.69v4.24l.29,.1c.67,.24,1.33,.51,1.98,.82l.28,.13,3.01-3c.51-.5,1.15-.83,1.85-.97l.35-.07V15.65H1.88v59.66ZM6.45,1.88C3.93,1.88,1.88,3.93,1.88,6.45v7.32H79.89V6.45c0-2.52-2.05-4.57-4.57-4.57H6.45Z"/><path class="cls-1" d="M9.2,11.52c-2.04,0-3.69-1.66-3.69-3.69s1.66-3.69,3.69-3.69,3.7,1.66,3.7,3.69-1.66,3.69-3.7,3.69Zm0-5.51c-1,0-1.81,.81-1.81,1.81s.81,1.81,1.81,1.81,1.81-.81,1.81-1.81-.81-1.81-1.81-1.81Z"/><path class="cls-1" d="M18.85,11.52c-2.04,0-3.69-1.66-3.69-3.69s1.66-3.69,3.69-3.69,3.7,1.66,3.7,3.69-1.66,3.69-3.7,3.69Zm0-5.51c-1,0-1.81,.81-1.81,1.81s.81,1.81,1.81,1.81,1.81-.81,1.81-1.81-.81-1.81-1.81-1.81Z"/><path class="cls-1" d="M28.49,11.52c-2.04,0-3.69-1.66-3.69-3.69s1.66-3.69,3.69-3.69,3.7,1.66,3.7,3.69-1.66,3.69-3.7,3.69Zm0-5.51c-1,0-1.81,.81-1.81,1.81s.81,1.81,1.81,1.81,1.81-.81,1.81-1.81-.81-1.81-1.81-1.81Z"/><path class="cls-1" d="M65.68,76.26c-5.83,0-10.58-4.75-10.58-10.58s4.75-10.58,10.58-10.58c5.83,0,10.57,4.75,10.58,10.58,0,5.83-4.75,10.58-10.58,10.58Zm0-19.28c-4.8,0-8.7,3.9-8.7,8.7s3.9,8.7,8.7,8.7c4.79,0,8.7-3.91,8.7-8.7,0-4.8-3.9-8.7-8.7-8.7Z"/><path class="cls-1" d="M17.47,40.45c-.52,0-.94-.42-.94-.94v-7.32h-6.38v7.32c0,.52-.42,.94-.94,.94s-.94-.42-.94-.94v-12.4c0-2.8,2.28-5.07,5.07-5.07s5.07,2.28,5.07,5.07v12.4c0,.52-.42,.94-.94,.94Zm-4.13-16.53c-1.76,0-3.19,1.43-3.19,3.19v3.19h6.38v-3.19c0-1.76-1.43-3.19-3.19-3.19Z"/><path class="cls-1" d="M22.98,40.45c-.52,0-.94-.42-.94-.94V22.98c0-.52,.42-.94,.94-.94h5.51c2.04,0,3.7,1.66,3.7,3.69v2.75c0,2.04-1.66,3.69-3.7,3.69h-4.57v7.32c0,.52-.42,.94-.94,.94Zm.94-10.14h4.57c1,0,1.81-.81,1.81-1.81v-2.75c0-1-.81-1.81-1.81-1.81h-4.57v6.38Z"/><path class="cls-1" d="M36.75,40.45c-.52,0-.94-.42-.94-.94V22.98c0-.52,.42-.94,.94-.94s.94,.42,.94,.94v16.53c0,.52-.42,.94-.94,.94Z"/><path class="cls-1" d="M9.2,48.71c-.52,0-.94-.42-.94-.94s.42-.94,.94-.94h27.55c.52,0,.94,.42,.94,.94s-.42,.94-.94,.94H9.2Z"/><path class="cls-1" d="M9.2,56.97c-.52,0-.94-.42-.94-.94s.42-.94,.94-.94h27.55c.52,0,.94,.42,.94,.94s-.42,.94-.94,.94H9.2Z"/><path class="cls-1" d="M9.2,65.24c-.52,0-.94-.42-.94-.94s.42-.94,.94-.94h23.41c.52,0,.94,.42,.94,.94s-.42,.94-.94,.94H9.2Z"/></g></g></svg>