<?xml version="1.0" encoding="UTF-8"?><svg id="Layer_2" xmlns="http://www.w3.org/2000/svg" viewBox="0 0 75.23 70.5"><defs><style>.cls-1{fill:#fff;}</style></defs><g id="work"><g><path class="cls-1" d="M73.82,54.81c.11-.12,1.41-1.47,1.41-2.98,0-2.44-1.97-4.43-4.41-4.45l-16.99,5.26,.04-.42c0-.06,.01-.11,.02-.17,0-.07,.02-.14,.02-.22,0-2.46-2-4.45-4.45-4.45l-10.55-.02-12.98-4.72h-9.92v-.28c0-1.15-.93-2.08-2.08-2.08H0v1.8H14.21v21.89H0v1.8H13.93c1.15,0,2.08-.94,2.08-2.08v-.28l4.92,.02,20.09,7.09h2.74l29.81-15.5,.26-.19Zm-1.18-1.38l-.08,.07-29.23,15.2-2.04-.02-20.09-7.09h-5.18v-17.15l9.65,.02,12.98,4.72h10.82c1.46,0,2.65,1.19,2.65,2.65s-1.19,2.65-2.65,2.65h-13.03c-2.36,0-4.3,1.85-4.44,4.17h1.8c.14-1.33,1.27-2.37,2.64-2.37h13.03c1.21,0,2.34-.48,3.19-1.36l.12-.07,18.14-5.67h.05c1.39,.1,2.47,1.26,2.47,2.65,0,.67-.72,1.51-.8,1.6Z"/><rect class="cls-1" x="9.48" y="59.22" width="1.8" height="1.8"/><rect class="cls-1" x="4.74" y="59.22" width="1.8" height="1.8"/><path class="cls-1" d="M41.86,39.55l.5,.33,.5-.33c.89-.59,21.72-14.64,21.72-27.99,0-6.37-5.19-11.56-11.56-11.56-4.79,0-8.68,2.82-10.42,5.61l-.24,.39-.24-.39c-1.73-2.79-5.63-5.61-10.42-5.61-6.37,0-11.56,5.19-11.56,11.56,0,13.35,20.83,27.4,21.72,27.99ZM31.7,1.8c5.43,0,9.46,4.51,9.74,7.11h1.83c.29-2.59,4.31-7.11,9.74-7.11s9.76,4.38,9.76,9.76c0,11.17-16.87,23.65-20.26,26.04l-.16,.12-.16-.12c-3.38-2.39-20.26-14.86-20.26-26.04,0-5.38,4.38-9.76,9.76-9.76Z"/><rect class="cls-1" x="41.46" y="11.84" width="1.8" height="1.8"/><rect class="cls-1" x="41.46" y="16.58" width="1.8" height="1.8"/></g></g></svg>