<?xml version="1.0" encoding="UTF-8"?><svg id="Layer_2" xmlns="http://www.w3.org/2000/svg" viewBox="0 0 85.38 85.35"><defs><style>.cls-1{fill:none;}.cls-2{fill:#fff;}</style></defs><g id="work"><g><path class="cls-1" d="M41.54,53.36L2.91,83.37H82.46l-38.65-30.01c-.64-.51-1.63-.51-2.27,0Z"/><path class="cls-1" d="M41.54,2.34l-4.34,3.38h10.97l-4.36-3.38c-.64-.51-1.63-.51-2.27,0Z"/><path class="cls-1" d="M83.4,81.6V33.86l-24.33,18.89c-.28,.22-.66,.28-.99,.15-.33-.13-.56-.43-.61-.79-.05-.35,.1-.7,.38-.92l24.44-18.98-11.3-8.78v12.03c0,.54-.44,.99-.99,.99s-.99-.44-.99-.99V9.58c0-1.04-.85-1.89-1.89-1.89H18.24c-1.04,0-1.89,.85-1.89,1.89v25.88c0,.54-.44,.99-.99,.99s-.99-.44-.99-.99v-12.03L3.08,32.22l24.4,18.94c.21,.16,.34,.4,.38,.66s-.04,.52-.2,.73c-.32,.42-.97,.5-1.39,.17L1.97,33.86v47.74l38.37-29.8c1.34-1.04,3.36-1.04,4.69,0l38.37,29.8ZM42.69,45.09c-9.27,0-16.81-7.54-16.81-16.81s7.54-16.81,16.81-16.81,16.81,7.54,16.81,16.81v5.75c0,2.82-2.19,5.15-5.01,5.3-2.85,.16-5.25-1.94-5.54-4.74l-.09-.89-.66,.61c-1.51,1.39-3.48,2.15-5.53,2.15-1.52,0-3-.42-4.29-1.22-3.1-1.91-4.57-5.7-3.57-9.2,1-3.5,4.23-5.94,7.87-5.94,.55,0,1.01,.44,1.01,.99s-.44,.99-.99,.99c-3.42,0-6.2,2.78-6.2,6.2s2.78,6.2,6.2,6.2,6.2-2.78,6.2-6.2c0-.54,.44-.99,.99-.99s.99,.44,.99,.99v5.75c0,1.83,1.49,3.33,3.33,3.33s3.33-1.49,3.33-3.33v-5.75c0-8.18-6.65-14.83-14.83-14.83s-14.83,6.65-14.83,14.83,6.65,14.83,14.83,14.83c.54,0,.99,.44,.99,.99s-.44,.99-.99,.99Z"/><path class="cls-2" d="M85.37,32.62v-.07c-.01-.06-.02-.12-.05-.23-.01-.05-.03-.1-.04-.14-.02-.05-.05-.09-.12-.18-.04-.06-.08-.11-.11-.13l-14.05-10.94V9.58c0-2.13-1.73-3.86-3.86-3.86h-15.74L45.03,.78c-1.33-1.04-3.36-1.04-4.69,0l-6.36,4.94h-15.74c-2.13,0-3.86,1.73-3.86,3.86v11.35L.4,31.8l-.05,.05s-.08,.09-.15,.18c-.03,.04-.06,.07-.08,.12-.02,.05-.04,.1-.08,.27l.2,.07H.02s-.02,48.99-.02,48.99c0,.8,.26,1.58,.76,2.28l.05,.07c.72,.95,1.86,1.51,3.04,1.52H81.51c1.19,0,2.33-.57,3.05-1.52l.06-.07c.49-.65,.75-1.46,.76-2.27V32.62ZM2.91,83.37l38.63-30.01c.64-.51,1.63-.51,2.27,0l38.65,30.01H2.91ZM37.21,5.72l4.34-3.38c.65-.51,1.63-.51,2.27,0l4.36,3.38h-10.97Zm3.14,46.08L1.97,81.6V33.86l24.29,18.86c.42,.33,1.06,.24,1.39-.17,.16-.21,.23-.47,.2-.73s-.17-.5-.38-.66L3.08,32.22l11.3-8.78v12.03c0,.54,.44,.99,.99,.99s.99-.44,.99-.99V9.58c0-1.04,.85-1.89,1.89-1.89h48.89c1.04,0,1.89,.85,1.89,1.89v25.88c0,.54,.44,.99,.99,.99s.99-.44,.99-.99v-12.03l11.3,8.78-24.44,18.98c-.28,.21-.43,.57-.38,.92,.05,.35,.28,.65,.61,.79,.33,.13,.71,.07,.99-.15l24.33-18.89v47.74l-38.37-29.8c-1.33-1.04-3.36-1.04-4.69,0Z"/><path class="cls-2" d="M42.69,43.11c-8.18,0-14.83-6.65-14.83-14.83s6.65-14.83,14.83-14.83,14.83,6.65,14.83,14.83v5.75c0,1.83-1.49,3.33-3.33,3.33s-3.33-1.49-3.33-3.33v-5.75c0-.54-.44-.99-.99-.99s-.99,.44-.99,.99c0,3.42-2.78,6.2-6.2,6.2s-6.2-2.78-6.2-6.2,2.78-6.2,6.2-6.2c.54,0,.99-.44,.99-.99s-.45-.99-1.01-.99c-3.63,0-6.87,2.44-7.87,5.94-1,3.5,.47,7.29,3.57,9.2,1.29,.8,2.78,1.22,4.29,1.22,2.05,0,4.02-.76,5.53-2.15l.66-.61,.09,.89c.29,2.8,2.69,4.9,5.54,4.74,2.82-.15,5.01-2.48,5.01-5.3v-5.75c0-9.27-7.54-16.81-16.81-16.81s-16.81,7.54-16.81,16.81,7.54,16.81,16.81,16.81c.54,0,.99-.44,.99-.99s-.44-.99-.99-.99Z"/></g></g></svg>