<?xml version="1.0" encoding="UTF-8"?><svg id="Layer_2" xmlns="http://www.w3.org/2000/svg" viewBox="0 0 80 58.41"><defs><style>.cls-1{fill:#fff;}</style></defs><g id="work"><g><path class="cls-1" d="M4.92,58.41c-2.71,0-4.92-2.21-4.92-4.92V4.92C0,2.21,2.21,0,4.92,0H75.08c2.71,0,4.92,2.21,4.92,4.92V53.49c0,2.71-2.21,4.92-4.92,4.92H4.92Zm15.71-1.74h54.45c1.75,0,3.18-1.42,3.18-3.18V4.92c0-1.75-1.42-3.18-3.18-3.18H20.63V56.67ZM4.92,1.74c-1.75,0-3.18,1.42-3.18,3.18V53.49c0,1.75,1.42,3.18,3.18,3.18h13.97V1.74H4.92Z"/><path class="cls-1" d="M25.16,7.14c-.48,0-.87-.39-.87-.87s.39-.87,.87-.87h5.4c.48,0,.87,.39,.87,.87s-.39,.87-.87,.87h-5.4Z"/><path class="cls-1" d="M6.27,7.14c-.48,0-.87-.39-.87-.87s.39-.87,.87-.87H14.36c.48,0,.87,.39,.87,.87s-.39,.87-.87,.87H6.27Z"/><path class="cls-1" d="M6.27,20.63c-.48,0-.87-.39-.87-.87s.39-.87,.87-.87H14.36c.48,0,.87,.39,.87,.87s-.39,.87-.87,.87H6.27Z"/><path class="cls-1" d="M6.27,31.43c-.48,0-.87-.39-.87-.87s.39-.87,.87-.87H14.36c.48,0,.87,.39,.87,.87s-.39,.87-.87,.87H6.27Z"/><path class="cls-1" d="M6.27,42.22c-.48,0-.87-.39-.87-.87s.39-.87,.87-.87H14.36c.48,0,.87,.39,.87,.87s-.39,.87-.87,.87H6.27Z"/><path class="cls-1" d="M6.27,26.03c-.48,0-.87-.39-.87-.87s.39-.87,.87-.87H14.36c.48,0,.87,.39,.87,.87s-.39,.87-.87,.87H6.27Z"/><path class="cls-1" d="M6.27,36.82c-.48,0-.87-.39-.87-.87s.39-.87,.87-.87H14.36c.48,0,.87,.39,.87,.87s-.39,.87-.87,.87H6.27Z"/><path class="cls-1" d="M6.27,50.32c-.48,0-.87-.39-.87-.87s.39-.87,.87-.87h5.4c.48,0,.87,.39,.87,.87s-.39,.87-.87,.87H6.27Z"/><path class="cls-1" d="M6.27,12.54c-.48,0-.87-.39-.87-.87s.39-.87,.87-.87h5.4c.48,0,.87,.39,.87,.87s-.39,.87-.87,.87H6.27Z"/><path class="cls-1" d="M35.95,7.14c-.48,0-.87-.39-.87-.87s.39-.87,.87-.87h5.4c.48,0,.87,.39,.87,.87s-.39,.87-.87,.87h-5.4Z"/><path class="cls-1" d="M46.75,7.14c-.48,0-.87-.39-.87-.87s.39-.87,.87-.87h5.4c.48,0,.87,.39,.87,.87s-.39,.87-.87,.87h-5.4Z"/><path class="cls-1" d="M57.54,7.14c-.48,0-.87-.39-.87-.87s.39-.87,.87-.87h5.4c.48,0,.87,.39,.87,.87s-.39,.87-.87,.87h-5.4Z"/><path class="cls-1" d="M68.33,7.14c-.48,0-.87-.39-.87-.87s.39-.87,.87-.87h5.4c.48,0,.87,.39,.87,.87s-.39,.87-.87,.87h-5.4Z"/><path class="cls-1" d="M33.25,38.17c-4.2,0-7.62-3.42-7.62-7.62s3.42-7.62,7.62-7.62c2.42,0,4.64,1.11,6.1,3.05,.29,.38,.21,.93-.17,1.22-.15,.11-.33,.17-.52,.17-.28,0-.53-.13-.7-.35-1.12-1.49-2.83-2.35-4.7-2.35-3.24,0-5.87,2.64-5.87,5.87s2.64,5.87,5.87,5.87c1.87,0,3.58-.86,4.7-2.35,.17-.22,.42-.35,.7-.35,.19,0,.37,.06,.52,.17,.19,.14,.31,.34,.34,.57s-.03,.46-.17,.65c-1.45,1.94-3.68,3.05-6.09,3.05Z"/><path class="cls-1" d="M53.49,38.17c-.28,0-.53-.13-.7-.35l-3.79-5.05h-4.09v4.52c0,.48-.39,.87-.87,.87s-.87-.39-.87-.87v-13.49c0-.48,.39-.87,.87-.87h6.75c2.71,0,4.92,2.21,4.92,4.92,0,2.31-1.64,4.34-3.91,4.81l-.6,.13,2.98,3.98c.14,.19,.2,.42,.17,.65-.03,.23-.15,.43-.34,.57-.15,.11-.33,.17-.52,.17Zm-8.57-7.14h5.87c1.75,0,3.18-1.42,3.18-3.18s-1.42-3.18-3.18-3.18h-5.87v6.35Z"/><path class="cls-1" d="M58.8,38.17c-.23-.02-.44-.14-.59-.32-.15-.18-.21-.41-.19-.64l1.35-13.49c.04-.4,.35-.72,.75-.78,.04,0,.08,0,.12,0,.36,0,.68,.22,.81,.55l4.59,11.47,4.59-11.47c.13-.33,.45-.55,.81-.55,.04,0,.08,0,.12,0,.4,.06,.71,.38,.75,.78l1.35,13.49c.02,.23-.05,.46-.19,.64-.15,.18-.36,.29-.59,.31-.03,0-.06,0-.09,0-.45,0-.82-.34-.87-.79l-.84-8.35-.75-.11-3.48,8.7c-.13,.33-.45,.55-.81,.55s-.68-.22-.81-.55l-3.48-8.69-.75,.11-.84,8.35c-.05,.45-.42,.79-.87,.79-.03,0-.06,0-.09,0Z"/></g></g></svg>