<?xml version="1.0" encoding="UTF-8"?><svg id="Layer_2" xmlns="http://www.w3.org/2000/svg" viewBox="0 0 89.19 71.02"><defs><style>.cls-1{fill:#fff;}</style></defs><g id="work"><g><path class="cls-1" d="M5.24,71.02c-2.89,0-5.24-2.35-5.24-5.24V5.24C0,2.35,2.35,0,5.24,0H83.95c2.89,0,5.23,2.35,5.23,5.24v60.55c0,2.89-2.35,5.24-5.23,5.24H5.24Zm-3.85-5.24c0,2.12,1.73,3.85,3.85,3.85H83.95c2.12,0,3.85-1.73,3.85-3.85V13.5H1.39v52.29ZM5.24,1.39c-2.12,0-3.85,1.72-3.85,3.85v6.87H87.8V5.24c0-2.12-1.72-3.85-3.85-3.85H5.24Z"/><path class="cls-1" d="M21.89,7.44c-.38,0-.69-.31-.69-.69s.31-.69,.69-.69h60.55c.38,0,.69,.31,.69,.69s-.31,.69-.69,.69H21.89Z"/><path class="cls-1" d="M70.33,37.72c-.29,0-.55-.18-.65-.45l-.97-2.58h-8.88l-.97,2.58c-.1,.27-.36,.45-.65,.45-.08,0-.16-.01-.24-.04-.17-.06-.31-.19-.39-.36-.08-.17-.08-.36-.02-.53l4.01-10.69c.42-1.12,1.5-1.87,2.69-1.87s2.28,.75,2.7,1.87l4.01,10.69c.07,.17,.06,.36-.02,.53-.08,.17-.22,.3-.39,.36-.08,.03-.16,.04-.24,.04m-6.05-12.11c-.62,0-1.18,.39-1.4,.96l-2.52,6.73h7.83l-2.52-6.73c-.22-.58-.78-.96-1.39-.96"/><path class="cls-1" d="M8.26,64.97c-1.22,0-2.21-.99-2.21-2.21V20.37c0-1.22,.99-2.21,2.21-2.21h31.79c1.22,0,2.21,.99,2.21,2.21V62.76c0,1.22-.99,2.21-2.21,2.21H8.26Zm0-45.41c-.45,0-.82,.37-.82,.82V62.76c0,.45,.37,.82,.82,.82h31.79c.45,0,.82-.37,.82-.82V20.37c0-.45-.37-.82-.82-.82H8.26Z"/><path class="cls-1" d="M49.14,64.97c-1.22,0-2.21-.99-2.21-2.21V20.37c0-1.22,.99-2.21,2.21-2.21h31.79c1.22,0,2.21,.99,2.21,2.21V62.76c0,1.22-.99,2.21-2.21,2.21h-31.79Zm0-45.41c-.45,0-.82,.37-.82,.82V62.76c0,.45,.37,.82,.82,.82h31.79c.45,0,.82-.37,.82-.82V20.37c0-.45-.37-.82-.82-.82h-31.79Z"/><path class="cls-1" d="M53.68,45.29c-.38,0-.69-.31-.69-.7s.31-.69,.69-.69h4.54c.38,0,.69,.31,.69,.69s-.31,.7-.69,.7h-4.54Z"/><path class="cls-1" d="M53.68,51.34c-.38,0-.69-.31-.69-.69s.31-.69,.69-.69h10.6c.38,0,.7,.31,.7,.69s-.31,.69-.7,.69h-10.6Z"/><path class="cls-1" d="M64.27,45.29c-.38,0-.69-.31-.69-.7s.31-.69,.69-.69h12.11c.38,0,.7,.31,.7,.69s-.31,.7-.7,.7h-12.11Z"/><path class="cls-1" d="M53.68,57.4c-.38,0-.69-.31-.69-.69s.31-.69,.69-.69h4.54c.38,0,.69,.31,.69,.69s-.31,.69-.69,.69h-4.54Z"/><path class="cls-1" d="M64.27,57.4c-.38,0-.69-.31-.69-.69s.31-.69,.69-.69h12.11c.38,0,.7,.31,.7,.69s-.31,.69-.7,.69h-12.11Z"/><path class="cls-1" d="M70.33,51.34c-.38,0-.69-.31-.69-.69s.31-.69,.69-.69h6.05c.38,0,.69,.31,.69,.69s-.31,.69-.69,.69h-6.05Z"/><path class="cls-1" d="M30.97,57.4c-.38,0-.69-.31-.69-.69s.31-.69,.69-.69h4.54c.38,0,.69,.31,.69,.69s-.31,.69-.69,.69h-4.54Z"/><path class="cls-1" d="M24.91,51.34c-.38,0-.69-.31-.69-.69s.31-.69,.69-.69h10.6c.38,0,.69,.31,.69,.69s-.31,.69-.69,.69h-10.6Z"/><path class="cls-1" d="M12.81,57.4c-.38,0-.69-.31-.69-.69s.31-.69,.69-.69h12.11c.38,0,.7,.31,.7,.69s-.31,.69-.7,.69H12.81Z"/><path class="cls-1" d="M30.97,45.29c-.38,0-.69-.31-.69-.7s.31-.69,.69-.69h4.54c.38,0,.69,.31,.69,.69s-.31,.7-.69,.7h-4.54Z"/><path class="cls-1" d="M12.81,45.29c-.38,0-.69-.31-.69-.7s.31-.69,.69-.69h12.11c.38,0,.7,.31,.7,.69s-.31,.7-.7,.7H12.81Z"/><path class="cls-1" d="M12.81,51.34c-.38,0-.69-.31-.69-.69s.31-.69,.69-.69h6.05c.38,0,.69,.31,.69,.69s-.31,.69-.69,.69h-6.05Z"/><path class="cls-1" d="M29.46,37.72c-.09,0-.18-.02-.26-.05-1.42-.57-2.69-1.34-3.79-2.31l-.48-.42-.48,.42c-1.08,.95-2.37,1.73-3.82,2.31-.08,.03-.17,.05-.26,.05-.29,0-.54-.17-.64-.44-.07-.17-.07-.36,0-.53,.07-.17,.21-.3,.38-.37,1.27-.51,2.4-1.2,3.37-2.04l.5-.43-.39-.54c-.47-.65-.89-1.36-1.22-2.11-.16-.35,0-.76,.34-.92,.09-.04,.19-.06,.29-.06,.27,0,.52,.16,.63,.41,.19,.42,.41,.83,.66,1.24l.61,1,.62-1c.93-1.49,1.35-2.96,1.54-3.94l.17-.86h-8.37c-.38,0-.7-.31-.7-.7s.31-.69,.7-.69h5.36v-.72c0-.48,.31-.79,.69-.79s.69,.31,.69,.69v.72l.72,.09h4.64c.38,0,.69,.31,.69,.69s-.31,.7-.69,.7h-2.36l-.09,.61c-.22,1.44-.79,3.6-2.27,5.65l-.39,.54,.5,.43c.96,.83,2.09,1.51,3.36,2.02,.17,.07,.31,.2,.38,.37,.07,.17,.08,.36,0,.53-.11,.26-.36,.44-.64,.44"/><path class="cls-1" d="M6.75,7.44c-.38,0-.69-.31-.69-.69s.31-.69,.69-.69,.69,.31,.69,.69-.31,.69-.69,.69"/><path class="cls-1" d="M11.29,7.44c-.38,0-.69-.31-.69-.69s.31-.69,.69-.69,.69,.31,.69,.69-.31,.69-.69,.69"/><path class="cls-1" d="M15.83,7.44c-.38,0-.69-.31-.69-.69s.31-.69,.69-.69,.69,.31,.69,.69-.31,.69-.69,.69"/></g></g></svg>