<?xml version="1.0" encoding="UTF-8"?><svg id="Layer_2" xmlns="http://www.w3.org/2000/svg" viewBox="0 0 78.31 88"><defs><style>.cls-1{fill:#fff;}</style></defs><g id="work"><g><path class="cls-1" d="M71.92,60.72c-.42,0-.77,.34-.77,.77v10.88H33.31V32.79c0-2.11-1.71-3.83-3.83-3.83H6.09c-2.11,0-3.83,1.71-3.83,3.83v51.38c0,2.11,1.71,3.83,3.83,3.83H29.48c2.11,0,3.83-1.71,3.83-3.83v-10.28h38.61c.42,0,.77-.34,.77-.77v-11.65c0-.42-.34-.77-.77-.77Zm-40.14,23.45c0,1.27-1.03,2.3-2.3,2.3H6.09c-1.27,0-2.3-1.03-2.3-2.3V32.79c0-1.27,1.03-2.3,2.3-2.3H29.48c1.27,0,2.3,1.03,2.3,2.3v51.38Z"/><path class="cls-1" d="M47.34,76.19c-1.47,0-2.67,1.2-2.67,2.67s1.2,2.67,2.67,2.67h0c1.47,0,2.67-1.2,2.67-2.67s-1.2-2.67-2.67-2.67Zm-.02,3.81c-.62,0-1.12-.52-1.12-1.14h-.02c0-.63,.51-1.14,1.14-1.14s1.14,.51,1.14,1.14-.51,1.14-1.14,1.14Z"/><path class="cls-1" d="M18.31,79.74c-1.47,0-2.67,1.2-2.67,2.67s1.2,2.67,2.67,2.67,2.67-1.2,2.67-2.67-1.2-2.67-2.67-2.67Zm0,3.81v.02c-.63,0-1.14-.51-1.14-1.14s.51-1.14,1.14-1.14,1.14,.51,1.14,1.14c0,.62-.52,1.12-1.14,1.12Z"/><path class="cls-1" d="M28.98,35.58H6.47c-.42,0-.77,.34-.77,.77s.34,.77,.77,.77H28.98c.42,0,.77-.34,.77-.77s-.34-.77-.77-.77Z"/><path class="cls-1" d="M28.98,77.35H6.47c-.42,0-.77,.34-.77,.77s.34,.77,.77,.77H28.98c.42,0,.77-.34,.77-.77s-.34-.77-.77-.77Z"/><path class="cls-1" d="M13.81,32.09h-2.07c-.42,0-.77,.34-.77,.77s.34,.77,.77,.77h2.07c.42,0,.77-.34,.77-.77s-.34-.77-.77-.77Z"/><path class="cls-1" d="M25.49,32.09h-9.08c-.42,0-.77,.34-.77,.77s.34,.77,.77,.77h9.08c.42,0,.77-.34,.77-.77s-.34-.77-.77-.77Z"/><path class="cls-1" d="M.77,36.47c-.42,0-.77,.34-.77,.77v3.93c0,.42,.34,.77,.77,.77s.77-.34,.77-.77v-3.93c0-.42-.34-.77-.77-.77Z"/><path class="cls-1" d="M.77,43.17c-.42,0-.77,.34-.77,.77v6.24c0,.42,.34,.77,.77,.77s.77-.34,.77-.77v-6.24c0-.42-.34-.77-.77-.77Z"/><path class="cls-1" d="M74.71,0H19.8c-1.99,0-3.6,1.62-3.6,3.6V25.63c0,.42,.34,.77,.77,.77s.77-.34,.77-.77V3.6c0-1.15,.93-2.07,2.07-2.07h54.9c1.14,0,2.07,.93,2.07,2.07V81.56c0,1.14-.93,2.07-2.07,2.07H35.1c-.42,0-.77,.34-.77,.77s.34,.77,.77,.77h39.61c1.99,0,3.6-1.61,3.6-3.6V3.6c0-1.99-1.62-3.6-3.6-3.6Z"/><path class="cls-1" d="M71.95,7.15H22.74c-.42,0-.77,.34-.77,.77V25.63c0,.42,.34,.77,.77,.77s.77-.34,.77-.77V8.69h47.67V49.8c0,.42,.34,.77,.77,.77s.77-.34,.77-.77V7.92c0-.42-.34-.77-.77-.77Z"/><path class="cls-1" d="M67.52,12.86c-.33-.26-.81-.2-1.07,.14l-24.23,31.64c-.26,.33-.2,.82,.14,1.07,0,0,0,0,0,0,.13,.1,.3,.15,.47,.15,.24,0,.46-.11,.6-.3l24.2-31.64c.26-.33,.21-.81-.11-1.07Z"/><path class="cls-1" d="M58.7,32.41c-.32-.28-.8-.25-1.08,.07-.02,.02-.04,.05-.06,.07l-7.8,10.14c-.26,.33-.2,.82,.14,1.07,0,0,0,0,0,0,.13,.1,.29,.15,.46,.15,.24,0,.47-.11,.61-.3l7.79-10.14c.28-.32,.25-.8-.07-1.08Z"/><path class="cls-1" d="M64.67,24.67c-.33-.26-.81-.21-1.08,.13v.02l-3.54,4.48c-.22,.36-.11,.83,.25,1.05,.31,.19,.7,.14,.95-.12l3.54-4.48c.26-.33,.21-.81-.13-1.08Z"/><path class="cls-1" d="M26.18,44.03s-.02-.02-.03-.03c-.34-.26-.82-.19-1.07,.15l-16.61,21.74c-.26,.34-.19,.82,.15,1.07,.13,.1,.29,.15,.46,.15,.24,0,.47-.11,.61-.3l16.61-21.71c.27-.33,.22-.81-.11-1.08Z"/><path class="cls-1" d="M20.06,57.45c-.33-.26-.82-.2-1.07,.14,0,0,0,0,0,0l-5.36,6.96c-.26,.34-.19,.82,.15,1.07,.13,.1,.29,.16,.46,.16,.24,0,.47-.11,.61-.3l5.36-6.96c.26-.33,.2-.81-.14-1.07Z"/><path class="cls-1" d="M24.17,52.16c-.33-.26-.81-.21-1.08,.12,0,0,0,0,0,0l-2.43,3.06c-.26,.33-.21,.81,.13,1.07,.13,.11,.3,.16,.47,.16,.23,0,.45-.11,.6-.29l2.43-3.06c.26-.33,.21-.81-.12-1.07Z"/><path class="cls-1" d="M51.06,3.73h-7.6c-.42,0-.77,.34-.77,.77s.34,.77,.77,.77h7.6c.42,0,.77-.34,.77-.77s-.34-.77-.77-.77Z"/><path class="cls-1" d="M45.89,54.56c-.35-.26-.84-.19-1.1,.16l-8.33,11.17c-.25,.34-.18,.82,.16,1.07,0,0,0,0,0,0,.13,.1,.29,.15,.45,.15,.24,0,.48-.12,.62-.31l8.36-11.14c.26-.35,.19-.84-.16-1.1Z"/></g></g></svg>