<?xml version="1.0" encoding="UTF-8"?><svg id="Layer_2" xmlns="http://www.w3.org/2000/svg" viewBox="0 0 83.42 83.42"><defs><style>.cls-1{fill:#fff;}</style></defs><g id="work"><g><path class="cls-1" d="M6.01,22.59c-.4,0-.72-.32-.72-.72V6.01c0-.4,.32-.72,.72-.72h15.87c.4,0,.72,.32,.72,.72v15.87c0,.4-.32,.72-.72,.72H6.01Zm.72-1.44h14.43V6.73H6.73v14.43Z"/><path class="cls-1" d="M28.49,8.05c-.4,0-.72-.32-.72-.72s.32-.72,.72-.72h17.19c.4,0,.72,.32,.72,.72s-.32,.72-.72,.72H28.49Z"/><path class="cls-1" d="M28.49,14.66c-.4,0-.72-.32-.72-.72s.32-.72,.72-.72h17.19c.4,0,.72,.32,.72,.72s-.32,.72-.72,.72H28.49Z"/><path class="cls-1" d="M28.49,21.27c-.4,0-.72-.32-.72-.72s.32-.72,.72-.72h17.19c.4,0,.72,.32,.72,.72s-.32,.72-.72,.72H28.49Z"/><path class="cls-1" d="M6.01,47.72c-.4,0-.72-.32-.72-.72s.32-.72,.72-.72h13.22c.4,0,.72,.32,.72,.72s-.32,.72-.72,.72H6.01Z"/><path class="cls-1" d="M6.01,53.01c-.4,0-.72-.32-.72-.72s.32-.72,.72-.72h13.22c.4,0,.72,.32,.72,.72s-.32,.72-.72,.72H6.01Z"/><path class="cls-1" d="M6.01,58.29c-.4,0-.72-.32-.72-.72s.32-.72,.72-.72h13.22c.4,0,.72,.32,.72,.72s-.32,.72-.72,.72H6.01Z"/><path class="cls-1" d="M24.52,83.42c-.4,0-.72-.32-.72-.72v-20.44H.72c-.4,0-.72-.32-.72-.72V.72C0,.32,.32,0,.72,0H50.97c.4,0,.72,.32,.72,.72V37.02h15.86c.4,0,.72,.32,.72,.72s-.32,.72-.72,.72H25.24v43.52h56.74V38.46h-8.26c-.4,0-.72-.32-.72-.72s.32-.72,.72-.72h8.98c.4,0,.72,.32,.72,.72v44.96c0,.4-.32,.72-.72,.72H24.52ZM1.44,60.82H23.8v-18.39H6.01c-.4,0-.72-.32-.72-.72v-14.55c0-.4,.32-.72,.72-.72H45.68c.4,0,.72,.32,.72,.72v9.86h3.85V1.44H1.44V60.82Zm5.29-19.83H23.8v-3.25c0-.4,.32-.72,.72-.72h20.44v-9.14H6.73v13.11Z"/><path class="cls-1" d="M31.13,59.62c-.4,0-.72-.32-.72-.72v-15.87c0-.4,.32-.72,.72-.72h18.51c.4,0,.72,.32,.72,.72v15.87c0,.4-.32,.72-.72,.72H31.13Zm.72-1.44h17.07v-14.43H31.85v14.43Z"/><path class="cls-1" d="M57.58,79.45c-.4,0-.72-.32-.72-.72v-15.87c0-.4,.32-.72,.72-.72h18.51c.4,0,.72,.32,.72,.72v15.87c0,.4-.32,.72-.72,.72h-18.51Zm.72-1.44h17.07v-14.43h-17.07v14.43Z"/><path class="cls-1" d="M57.58,45.07c-.4,0-.72-.32-.72-.72s.32-.72,.72-.72h18.51c.4,0,.72,.32,.72,.72s-.32,.72-.72,.72h-18.51Z"/><path class="cls-1" d="M57.58,51.68c-.4,0-.72-.32-.72-.72s.32-.72,.72-.72h18.51c.4,0,.72,.32,.72,.72s-.32,.72-.72,.72h-18.51Z"/><path class="cls-1" d="M57.58,58.29c-.4,0-.72-.32-.72-.72s.32-.72,.72-.72h18.51c.4,0,.72,.32,.72,.72s-.32,.72-.72,.72h-18.51Z"/><path class="cls-1" d="M31.13,64.91c-.4,0-.72-.32-.72-.72s.32-.72,.72-.72h18.51c.4,0,.72,.32,.72,.72s-.32,.72-.72,.72H31.13Z"/><path class="cls-1" d="M31.13,71.52c-.4,0-.72-.32-.72-.72s.32-.72,.72-.72h18.51c.4,0,.72,.32,.72,.72s-.32,.72-.72,.72H31.13Z"/><path class="cls-1" d="M31.13,78.13c-.4,0-.72-.32-.72-.72s.32-.72,.72-.72h18.51c.4,0,.72,.32,.72,.72s-.32,.72-.72,.72H31.13Z"/></g></g></svg>