<?xml version="1.0" encoding="UTF-8"?><svg id="Layer_2" xmlns="http://www.w3.org/2000/svg" viewBox="0 0 97.84 97.87"><defs><style>.cls-1{fill:#fff;}</style></defs><g id="work"><g><path class="cls-1" d="M23.96,64.59c-2.78,0-5.09-2.01-5.57-4.66h1.36c.45,1.91,2.17,3.33,4.21,3.33s3.76-1.42,4.21-3.33h1.36c-.47,2.64-2.79,4.66-5.57,4.66Z"/><path class="cls-1" d="M48.9,41.3c-1.69,0-3.2-1.07-3.75-2.66-.35-1-.29-2.08,.17-3.04,.46-.96,1.27-1.68,2.27-2.03l.67-.23v-11.66h1.33v11.66l.66,.24c1.13,.4,2.01,1.28,2.42,2.42l.24,.66h8.33v1.33h-8.33l-.23,.67c-.4,1.15-1.29,2.03-2.44,2.44-.43,.15-.87,.23-1.32,.23h0Zm.01-6.66c-1.47,0-2.66,1.2-2.66,2.66s1.2,2.66,2.66,2.66,2.66-1.19,2.66-2.66-1.19-2.66-2.66-2.66Z"/><rect class="cls-1" x="48.25" y="13.34" width="1.33" height="1.33"/><rect class="cls-1" x="64.73" y="20.16" width="1.33" height="1.33" transform="translate(4.43 52.35) rotate(-45.01)"/><rect class="cls-1" x="71.55" y="36.64" width="1.33" height="1.33"/><rect class="cls-1" x="64.73" y="53.11" width="1.33" height="1.33" transform="translate(-18.87 62.01) rotate(-45.01)"/><rect class="cls-1" x="48.25" y="59.93" width="1.33" height="1.33"/><rect class="cls-1" x="31.78" y="20.16" width="1.33" height="1.33" transform="translate(-5.22 29.05) rotate(-45.01)"/><path class="cls-1" d="M.66,97.87c-.37,0-.66-.3-.66-.66v-10.68c.01-4.77,3.24-9,7.84-10.27l10.46-2.84v-3.36l-.56-.28c-4.78-2.37-7.76-7.16-7.76-12.5v-2.66h-1c-.37,0-.66-.3-.66-.66v-4.99c0-3.38,1.13-6.72,3.17-9.4l.22-.29-.02-.48c-.02-.49-.05-.98-.05-1.48,0-6.19,1.56-12.35,4.51-17.79C22.68,7.48,35.25,0,48.95,0c6.16,0,12.29,1.56,17.73,4.52,8.75,4.75,15.13,12.62,17.96,22.16s1.78,19.62-2.97,28.37l-.51,.94,1.14,.52c.15,.07,.3,.13,.45,.21l.65,.34,4.61-4.61c.13-.12,.29-.19,.47-.19s.34,.07,.47,.19l4.71,4.71c.26,.26,.26,.68,0,.94l-4.61,4.61,.34,.65c.42,.81,.78,1.66,1.05,2.52l.22,.7h6.5c.37,0,.66,.3,.66,.66v6.66c0,.37-.3,.66-.66,.66h-6.5l-.22,.7c-.27,.87-.63,1.72-1.05,2.53l-.34,.65,4.61,4.61c.26,.26,.26,.68,0,.94l-4.71,4.71c-.13,.12-.29,.19-.47,.19s-.34-.07-.47-.19l-4.61-4.61-.65,.34c-.81,.42-1.66,.78-2.53,1.05l-.7,.22v6.5c0,.37-.3,.66-.66,.66h-6.66c-.37,0-.66-.3-.66-.66v-6.5l-.7-.22c-.87-.27-1.72-.63-2.52-1.05l-.65-.34-4.61,4.61c-.13,.12-.29,.19-.47,.19s-.34-.07-.47-.19l-4.71-4.71c-.26-.26-.26-.68,0-.94l4.61-4.61-.34-.65c-.42-.81-.78-1.66-1.05-2.53l-.22-.7h-6.5c-.08,0-.19-.03-.28-.09l-.29-.18-.34,.04c-1.36,.15-2.74,.23-4.11,.23-6.2,0-12.35-1.57-17.79-4.55l-1.48-.81v4.19l10.46,2.84c4.6,1.27,7.83,5.5,7.84,10.28v10.68c0,.37-.3,.66-.66,.66H.66Zm7.53-20.34c-4.03,1.12-6.85,4.81-6.87,8.99v10.02H46.59v-10.02c-.02-4.18-2.84-7.87-6.87-8.99l-3.45-.94v3.97c0,.18-.07,.34-.2,.47l-11.65,11.65c-.13,.12-.29,.19-.47,.19s-.34-.07-.47-.19l-11.65-11.65c-.13-.13-.19-.29-.19-.47v-3.97l-3.45,.93Zm59.39,5.05c.13,0,.25,.04,.36,.11,1.36,.87,2.85,1.49,4.42,1.84,.3,.07,.51,.34,.51,.65v6.37h5.33v-6.37c0-.31,.21-.57,.52-.64,1.57-.36,3.06-.98,4.42-1.85,.11-.07,.23-.1,.36-.1,.18,0,.35,.07,.47,.19l4.52,4.53,3.78-3.78-4.53-4.52c-.22-.22-.26-.57-.09-.83,.87-1.36,1.49-2.85,1.84-4.42,.07-.3,.33-.51,.64-.51h6.38v-5.33h-6.37c-.31,0-.57-.21-.64-.51-.36-1.57-.98-3.06-1.85-4.42-.17-.26-.13-.61,.09-.83l4.53-4.52-3.78-3.78-4.52,4.53c-.12,.12-.29,.19-.47,.19-.13,0-.25-.04-.36-.11-.61-.39-1.25-.72-1.92-1l-.76-.32-.46,.69c-.61,.92-1.28,1.83-1.97,2.7l-.89,1.11,1.34,.46c3.26,1.12,5.61,4.06,6,7.49,.27,2.38-.41,4.73-1.9,6.61-1.5,1.88-3.63,3.06-6.02,3.33-.34,.04-.68,.06-1.02,.06-4.57,0-8.4-3.43-8.91-7.98l-.16-1.41-1.27,.62c-1.02,.5-2.08,.95-3.15,1.36l-1.12,.42,.62,1.03s.05,.1,.07,.16c.35,1.54,.97,3.03,1.83,4.38,.17,.26,.13,.61-.09,.83l-4.54,4.52,3.78,3.78,4.52-4.53c.12-.12,.29-.19,.47-.19Zm-54.61-6.35v4.06l10.98,10.98,10.98-10.98v-4.06l-3.57-.97-6.75,5.62v3.68h-1.33v-3.68l-6.75-5.62-3.57,.97Zm6.66-2.32c0,.18-.08,.35-.23,.47l-.91,.77,5.46,4.55,5.46-4.55-.91-.77c-.14-.12-.23-.3-.23-.49v-3.3l-1.23,.29c-1.01,.24-2.06,.36-3.1,.36-1.04,0-2.08-.12-3.1-.36l-1.23-.29v3.31Zm48.33-4.17c-.04,.27-.07,.53-.08,.8-.02,3.92,2.88,7.2,6.74,7.65,.3,.04,.6,.05,.9,.05,3.86,0,7.12-2.9,7.57-6.74,.49-4.18-2.51-7.98-6.69-8.48l-.49-.06-.34,.35c-1.95,2-4.12,3.77-6.46,5.29l-1.08,.63-.08,.5Zm-32.76-4.19c-.65,.88-1.4,1.69-2.23,2.4l-1.16,.99,1.37,.67c4.38,2.13,9.06,3.34,13.93,3.58,.61,.03,1.22,.05,1.82,.05,19.12,0,34.86-14.98,35.81-34.09,.48-9.57-2.8-18.76-9.23-25.87-6.43-7.11-15.25-11.29-24.82-11.77-.61-.03-1.22-.04-1.82-.04C29.75,1.46,14.01,16.44,13.06,35.55l-.11,2.13,1.71-1.28c1.01-.76,2.12-1.39,3.28-1.89l.54-.23,.07-.58c.36-3.09,1.2-6.1,2.47-8.94,4.93-10.99,15.9-18.09,27.95-18.09,4.32,0,8.53,.91,12.51,2.69,7.46,3.35,13.17,9.4,16.08,17.04s2.67,15.96-.68,23.42c-4.93,10.99-15.9,18.09-27.95,18.09-4.32,0-8.53-.91-12.51-2.69l-.74-.33-.48,.65Zm-23.89-8.28c0,6.97,5.67,12.65,12.65,12.65s12.65-5.67,12.65-12.65v-2.8l-.76-.19c-2.71-.67-5-2.36-6.46-4.75l-.66-1.09-2.06,2.06c-2.59,2.6-6.17,4.09-9.84,4.09h-5.51v2.66Zm26.62,0c0,1.93-.4,3.81-1.17,5.58l-.4,.92,.92,.4c2.17,.94,4.46,1.62,6.79,2.02,1.62,.27,3.27,.41,4.91,.41,14.33,0,26.47-10.28,28.86-24.43,2.69-15.93-8.09-31.08-24.02-33.77-1.62-.27-3.27-.41-4.91-.41-14.34,0-26.47,10.28-28.86,24.43l-.24,1.41,1.4-.26c.93-.17,1.88-.26,2.82-.26h.06c8.58,.04,15.54,7.05,15.5,15.64v5c0,.37-.3,.66-.66,.66h-1v2.66Zm-8.87-10.64c.21,.03,.39,.17,.48,.36l.57,1.14c1.36,2.75,3.98,4.64,7.02,5.06l1.14,.16v-4.4c0-7.89-6.42-14.31-14.31-14.31s-14.31,6.42-14.31,14.31v4.33h7.13c3.35,0,6.6-1.35,8.94-3.71l2.76-2.75c.12-.12,.3-.19,.48-.19,.03,0,.07,0,.1,0Z"/></g></g></svg>