<?xml version="1.0" encoding="UTF-8"?><svg id="Layer_2" xmlns="http://www.w3.org/2000/svg" viewBox="0 0 85.48 63.11"><defs><style>.cls-1{fill:#fff;}</style></defs><g id="work"><g><path class="cls-1" d="M84.8,4.63h-5.75V.68c0-.38-.31-.68-.68-.68H7.44c-.38,0-.68,.31-.68,.68V45.41c0,.38,.31,.68,.68,.68h5.75v3.94c0,.38,.31,.68,.68,.68h50.29l6.4,9.82c.32,.5,1.08,.37,1.23-.2l2.51-9.62h10.5c.38,0,.68-.3,.68-.68V5.32c0-.38-.31-.68-.68-.68ZM8.12,44.73V1.37H77.69v3.27H13.87c-.38,0-.68,.31-.68,.68V44.73h-5.06Zm76,4.62h-10.35c-.31,0-.58,.21-.66,.51l-2.25,8.64-5.76-8.84c-.13-.19-.34-.31-.57-.31H14.55V6H84.12V49.35Z"/><path class="cls-1" d="M30.19,16.58h-5.92c-.38,0-.68,.31-.68,.68v5.92c0,.38,.31,.68,.68,.68h5.92c.38,0,.68-.31,.68-.68v-5.92c0-.38-.31-.68-.68-.68Zm-.68,5.92h-4.55v-4.56h4.55v4.56Z"/><path class="cls-1" d="M33.24,19.33h9.42c.38,0,.68-.31,.68-.68s-.31-.68-.68-.68h-9.42c-.38,0-.68,.31-.68,.68s.31,.68,.68,.68Z"/><path class="cls-1" d="M61.99,21.12h-28.75c-.38,0-.68,.3-.68,.68s.31,.68,.68,.68h28.75c.38,0,.68-.31,.68-.68s-.31-.68-.68-.68Z"/><path class="cls-1" d="M30.19,26.13h-5.92c-.38,0-.68,.31-.68,.68v5.92c0,.38,.31,.68,.68,.68h5.92c.38,0,.68-.31,.68-.68v-5.92c0-.38-.31-.68-.68-.68Zm-.68,5.92h-4.55v-4.56h4.55v4.56Z"/><path class="cls-1" d="M33.24,28.88h9.42c.38,0,.68-.31,.68-.68s-.31-.68-.68-.68h-9.42c-.38,0-.68,.31-.68,.68s.31,.68,.68,.68Z"/><path class="cls-1" d="M61.99,30.66h-28.75c-.38,0-.68,.31-.68,.68s.31,.68,.68,.68h28.75c.38,0,.68-.31,.68-.68s-.31-.68-.68-.68Z"/><path class="cls-1" d="M30.19,35.67h-5.92c-.38,0-.68,.31-.68,.68v5.91c0,.38,.31,.68,.68,.68h5.92c.38,0,.68-.31,.68-.68v-5.91c0-.38-.31-.68-.68-.68Zm-.68,5.91h-4.55v-4.54h4.55v4.54Z"/><path class="cls-1" d="M33.24,38.42h9.42c.38,0,.68-.3,.68-.68s-.31-.68-.68-.68h-9.42c-.38,0-.68,.3-.68,.68s.31,.68,.68,.68Z"/><path class="cls-1" d="M61.99,40.21h-28.75c-.38,0-.68,.31-.68,.68s.31,.68,.68,.68h28.75c.38,0,.68-.3,.68-.68s-.31-.68-.68-.68Z"/><path class="cls-1" d="M42.83,59.88c6.65-3.18,6.26-2.98,6.32-3.02,.46-.28,.42-.97-.07-1.2l-6.26-2.97c-.27-.13,2.13-.04-40.55-.07-1.26,0-2.28,1.02-2.28,2.28v2.74c0,1.27,1.02,2.3,2.28,2.3,42.94-.02,40.29,.06,40.55-.07h0Zm-.45-5.89l4.82,2.29-4.82,2.3h-2.57v-4.59h2.58ZM1.37,57.65v-2.74c0-.51,.41-.92,.92-.92h3.74v4.59H2.28c-.5,0-.92-.43-.92-.93Zm6.02-3.66h1.08v4.59h-1.08v-4.59Zm2.45,0h28.61v1.6H12.42c-.38,0-.68,.31-.68,.68s.31,.68,.68,.68h26.03v1.62H9.84v-4.59Z"/><path class="cls-1" d="M61.88,56.2c-.19-.33-.61-.44-.93-.25-.33,.19-.44,.61-.25,.93l2.81,4.87H18.93c-.38,0-.68,.3-.68,.68s.31,.68,.68,.68h45.76c.52,0,.85-.57,.59-1.02l-3.4-5.89Z"/></g></g></svg>