<?xml version="1.0" encoding="UTF-8"?><svg id="Layer_2" xmlns="http://www.w3.org/2000/svg" viewBox="0 0 103.44 87"><defs><style>.cls-1{fill:#fff;}</style></defs><g id="work"><g><path class="cls-1" d="M43.49,85.29C20.41,85.29,1.71,66.58,1.71,43.5S20.41,1.71,43.49,1.71c.47,0,.86-.38,.86-.86s-.38-.86-.86-.86C19.47,0,0,19.48,0,43.51c0,24.02,19.47,43.49,43.49,43.49,.47,0,.86-.38,.86-.86s-.38-.86-.86-.86Z"/><path class="cls-1" d="M92.26,7.72h-7.54c-.47,0-.86,.38-.86,.86s.38,.86,.86,.86h5.57l-10.48,11.72h-12.15c-.21,0-.41,.08-.57,.21l-23.57,20.95-10.18-10.18c-.33-.33-.87-.33-1.21,0-.34,.33-.34,.88,0,1.21,0,0,0,0,0,0l10.74,10.74c.05,.05,.12,.08,.18,.11l.09,.07c.11,.05,.22,.07,.33,.07,.11,0,.21-.02,.31-.06l.09-.05c.06-.03,.11-.07,.16-.1l23.94-21.27h12.19c.26,0,.5-.1,.67-.29l10.54-11.8v5.32c0,.47,.38,.86,.86,.86s.86-.38,.86-.86v-7.53c0-.47-.38-.86-.86-.86Z"/><path class="cls-1" d="M43.48,17.51c.47,0,.86-.38,.86-.86v-5.38c0-.47-.38-.86-.86-.86-8.74,0-17.13,3.46-23.32,9.64,0,0-.06,0-.08,.05-.02,.02-.04,.05-.05,.08-12.85,12.89-12.85,33.75,0,46.64,.01,.03,.03,.05,.05,.08,0,0,.05,0,.07,.05,6.19,6.17,14.58,9.64,23.33,9.64,.47,0,.86-.38,.86-.86v-5.37c0-.47-.37-.85-.84-.86-.47,0-.86,.38-.86,.86v4.49c-7.72-.2-15.09-3.25-20.7-8.57l3.2-3.18c.34-.33,.34-.88,0-1.21,0,0,0,0,0,0-.33-.33-.87-.33-1.21,0l-3.16,3.17c-5.34-5.59-8.41-12.97-8.62-20.7h4.49c.47,0,.86-.38,.86-.86s-.38-.86-.86-.86h-4.49c.2-7.72,3.25-15.09,8.57-20.7l3.16,3.16c.16,.16,.38,.26,.61,.26,.23,0,.44-.1,.6-.26,.33-.33,.33-.87,0-1.21l-3.16-3.16c5.6-5.32,12.97-8.37,20.7-8.57v4.49c0,.47,.38,.86,.86,.86Z"/><path class="cls-1" d="M95.38,61.44h-2.68v-17.94c0-.47-.38-.86-.86-.86s-.86,.38-.86,.86v17.94h-9.93v-17.94c0-.47-.38-.86-.86-.86s-.86,.38-.86,.86v17.94h-9.92v-23.32c0-.47-.38-.86-.86-.86s-.86,.38-.86,.86v23.32h-9.93v-12.57c0-.47-.38-.86-.86-.86s-.86,.38-.86,.86v12.57h-7.2c-.47,0-.86,.38-.86,.86s.38,.86,.86,.86h46.52c.47,0,.86-.38,.86-.86,0-.47-.38-.86-.86-.86Z"/><path class="cls-1" d="M91.84,26.41c-.47,0-.86,.38-.86,.86v10.86c0,.47,.38,.86,.86,.86s.86-.38,.86-.86v-10.86c0-.47-.38-.86-.86-.86Z"/><path class="cls-1" d="M80.19,35.55c-.47,0-.86,.38-.86,.86v2.57c0,.47,.38,.86,.86,.86s.86-.38,.86-.86v-2.57c0-.47-.38-.86-.86-.86Z"/><path class="cls-1" d="M102.58,61.44h-2.68c-.47,0-.86,.38-.86,.86s.38,.86,.86,.86h2.68c.47,0,.86-.38,.86-.86s-.38-.86-.86-.86Z"/></g></g></svg>