<?xml version="1.0" encoding="UTF-8"?><svg id="Layer_2" xmlns="http://www.w3.org/2000/svg" viewBox="0 0 80.17 70.59"><defs><style>.cls-1{fill:#fff;}</style></defs><g id="work"><g><path class="cls-1" d="M46.76,0C28.29,0,13.27,12.38,13.27,27.6s15.03,27.6,33.5,27.6c3.46,0,7.01-.46,10.57-1.38,.04-.01,.08-.02,.12-.02,.06,0,.12,.01,.18,.03l11.76,4.51c1.3,.52,2.63,.27,3.68-.65,1.04-.91,1.45-2.36,1.05-3.7l-2.38-7.72c-.06-.18,0-.38,.13-.51,5.34-5.1,8.28-11.55,8.28-18.18C80.17,12.38,65.18,0,46.76,0Zm22.97,44.87c-.31,.27-.43,.71-.31,1.11l2.67,8.65c.16,.53,0,1.11-.41,1.47,0,0,0,0,0,0-.3,.26-.61,.39-.94,.39-.19,0-.38-.04-.58-.13l-12.23-4.69c-.21-.08-.46-.09-.66-.03-3.54,.96-7.07,1.44-10.5,1.44-17.3,0-31.37-11.43-31.37-25.47S29.47,2.13,46.76,2.13s31.28,11.43,31.28,25.47c0,6.42-2.87,12.39-8.31,17.27Z"/><path class="cls-1" d="M50.95,60.67c-8.24,4.56-18.71,5.63-28.02,2.86-.23-.07-.48-.06-.69,.03l-12.17,4.79c-.57,.22-1.12,.08-1.6-.39-.53-.46-.51-1.03-.4-1.43l2.68-8.67c.12-.4,0-.84-.32-1.12-5.35-4.71-8.3-10.83-8.3-17.26,0-5.17,1.92-10.15,5.55-14.42,.38-.45,.32-1.12-.12-1.51-.2-.17-.44-.25-.69-.25-.3,0-.61,.13-.82,.37C2.09,28.34,0,33.81,0,39.49c0,6.71,2.94,13.17,8.28,18.19,.14,.13,.19,.33,.13,.51l-2.39,7.76c-.37,1.35,.01,2.72,.99,3.58,1.04,1.04,2.51,1.34,3.84,.81l11.66-4.59c.1-.04,.21-.05,.32-.02,9.7,2.74,20.59,1.54,29.15-3.19,.51-.29,.7-.94,.42-1.45-.29-.51-.94-.7-1.45-.42Z"/><path class="cls-1" d="M54.34,17.08c-.41-.4-1.11-.4-1.52,0l-8.1,8.18c-.09,.09-.22,.15-.35,.15h0c-.13,0-.26-.05-.35-.15l-3.4-3.4c-.21-.21-.48-.31-.76-.31s-.55,.1-.75,.31l-5.07,5.07c-.42,.42-.42,1.09,0,1.51l9.58,9.58c.4,.4,1.11,.4,1.51,0l14.29-14.38c.41-.42,.41-1.09,0-1.5l-5.07-5.07Zm2.46,6.18l-12.07,12.15c-.09,.09-.22,.15-.35,.15h0c-.13,0-.26-.05-.35-.15l-7.37-7.37c-.2-.2-.2-.51,0-.71l2.85-2.85c.2-.2,.51-.2,.71,0l3.41,3.41c.4,.4,1.1,.4,1.52,0l8.1-8.18c.09-.09,.22-.15,.35-.15h0c.13,0,.26,.05,.35,.15l2.85,2.85c.2,.19,.2,.51,0,.71Z"/></g></g></svg>