<?xml version="1.0" encoding="UTF-8"?><svg id="Layer_2" xmlns="http://www.w3.org/2000/svg" viewBox="0 0 89.82 90"><defs><style>.cls-1{fill:#fff;}</style></defs><g id="work"><g><path class="cls-1" d="M21.18,0C9.48,0,0,9.48,0,21.18c.03,11.68,9.5,21.15,21.18,21.18,11.7,0,21.18-9.48,21.18-21.18S32.88,0,21.18,0Zm0,40.84C10.32,40.84,1.52,32.04,1.52,21.18,1.55,10.33,10.33,1.55,21.18,1.52c10.86,0,19.66,8.8,19.66,19.66s-8.8,19.66-19.66,19.66Z"/><path class="cls-1" d="M33.49,8.91v-.04s0,0-.04,0c-6.78-6.77-17.77-6.77-24.56,0h-.04v.04c-6.77,6.79-6.77,17.77,0,24.56,0,0,0,.02,0,.04h.04c6.79,6.77,17.77,6.77,24.56,0h.04v-.04c6.77-6.79,6.77-17.77,0-24.56Zm-.56,22.96l-.76-.76c-.3-.3-.78-.3-1.07,0,0,0,0,0,0,0-.29,.3-.29,.77,0,1.07l.76,.76c-2.72,2.49-6.23,3.94-9.91,4.11v-1.05c0-.42-.34-.76-.76-.76s-.76,.34-.76,.76v1.05c-3.68-.17-7.19-1.62-9.91-4.11l.76-.76c.27-.32,.24-.8-.08-1.07-.28-.24-.7-.24-.99,0l-.76,.76c-2.49-2.73-3.94-6.24-4.12-9.92h1.05c.42,0,.76-.34,.76-.76s-.34-.76-.76-.76h-1.05c.17-3.68,1.63-7.19,4.11-9.91l.76,.76c.3,.3,.78,.29,1.07,0s.29-.78,0-1.07l-.76-.76c2.72-2.49,6.24-3.94,9.92-4.1v1.05c0,.42,.34,.76,.76,.76s.76-.34,.76-.76v-1.05c3.68,.17,7.19,1.62,9.91,4.11l-.76,.76c-.3,.3-.3,.78,0,1.07,0,0,0,0,0,0,.14,.14,.34,.22,.54,.22,.2,0,.4-.08,.54-.22l.76-.76c2.48,2.72,3.94,6.23,4.11,9.91h-1.05c-.42,0-.76,.34-.76,.76,0,.42,.34,.76,.76,.76h1.05c-.18,3.69-1.63,7.19-4.11,9.92Z"/><path class="cls-1" d="M21.16,11.14c-.42,0-.76,.34-.76,.76v7.47l-1.6-1.58c-.3-.3-.78-.3-1.07,0,0,0,0,0,0,0-.29,.3-.29,.77,0,1.07l2.91,2.86c.14,.14,.33,.21,.53,.21,.1,0,.2-.02,.29-.05,.29-.12,.47-.4,.47-.71V11.9c0-.42-.34-.76-.76-.76Z"/><path class="cls-1" d="M80.88,8.91v-.04h-.05c-6.78-6.78-17.77-6.78-24.55,0v.04c-6.77,6.79-6.77,17.77,0,24.56v.04c6.78,6.77,17.76,6.77,24.55,0h.05v-.04c6.77-6.79,6.77-17.77,0-24.56Zm-.49,22.96l-.76-.76c-.32-.27-.8-.24-1.07,.08-.24,.28-.24,.7,0,.99l.76,.76c-2.72,2.49-6.23,3.94-9.91,4.11v-1.06c0-.42-.34-.76-.76-.76s-.76,.34-.76,.76v1.05c-3.68-.17-7.19-1.63-9.91-4.11l.76-.76c.29-.3,.29-.77,0-1.07-.3-.3-.78-.3-1.07,0,0,0,0,0,0,0l-.76,.76c-2.49-2.73-3.94-6.24-4.12-9.92h1.05c.42,0,.76-.34,.76-.76s-.34-.76-.76-.76h-1.05c.17-3.68,1.63-7.19,4.11-9.91l.76,.76c.14,.14,.34,.22,.54,.22,.2,0,.4-.08,.54-.22,.3-.3,.3-.78,0-1.07,0,0,0,0,0,0l-.76-.76c2.72-2.49,6.23-3.94,9.91-4.1v1.05c0,.42,.34,.76,.76,.76s.76-.34,.76-.76v-1.05c3.68,.17,7.19,1.62,9.91,4.11l-.76,.76c-.3,.3-.3,.78,0,1.07s.78,.3,1.07,0l.76-.76c2.48,2.73,3.94,6.23,4.11,9.91h-1.05c-.42,0-.76,.34-.76,.76s.34,.76,.76,.76h1.05c-.18,3.68-1.63,7.19-4.11,9.92Z"/><path class="cls-1" d="M68.64,0c-11.68,.03-21.15,9.5-21.18,21.18,0,11.7,9.48,21.18,21.18,21.18s21.18-9.48,21.18-21.18S80.34,0,68.64,0Zm0,40.84c-10.86,0-19.66-8.8-19.66-19.66,.03-10.85,8.82-19.63,19.66-19.66,10.86,0,19.66,8.8,19.66,19.66s-8.8,19.66-19.66,19.66Z"/><path class="cls-1" d="M68.64,11.14c-.42,0-.76,.34-.76,.76v8.52h-3.58c-.42,0-.76,.34-.76,.76,0,.42,.34,.76,.76,.76h4.34c.42,0,.76-.34,.76-.76V11.9c0-.42-.34-.76-.76-.76Z"/><path class="cls-1" d="M33.47,56.54h-.04c-6.79-6.77-17.77-6.77-24.56,0h-.04c-6.77,6.79-6.77,17.77,0,24.56h.04c6.78,6.77,17.77,6.77,24.56,0h.04c6.77-6.79,6.77-17.77,0-24.56Zm-.54,22.96l-.76-.76c-.3-.3-.78-.3-1.08,0s-.3,.78,0,1.08l.76,.76c-2.72,2.49-6.23,3.94-9.91,4.12v-1.05c0-.42-.34-.76-.76-.76s-.76,.34-.76,.76v1.05c-3.68-.17-7.19-1.63-9.91-4.12l.76-.76c.3-.3,.3-.78,0-1.07,0,0,0,0,0,0-.3-.29-.77-.29-1.07,0l-.76,.76c-2.49-2.72-3.94-6.23-4.12-9.91h1.05c.42,0,.76-.34,.76-.76s-.34-.76-.76-.76h-1.05c.18-3.68,1.63-7.19,4.11-9.92l.76,.76c.3,.29,.77,.29,1.07,0,.29-.3,.29-.77,0-1.07l-.76-.76c2.72-2.49,6.23-3.94,9.91-4.11v1.05c0,.42,.34,.76,.76,.76s.76-.34,.76-.76v-1.05c3.68,.17,7.19,1.63,9.91,4.11l-.76,.76c-.29,.3-.29,.78,.01,1.07,.14,.14,.33,.22,.53,.22,.2,0,.4-.08,.54-.22l.76-.76c2.49,2.73,3.94,6.24,4.12,9.92h-1.05c-.42,0-.76,.34-.76,.76s.34,.76,.76,.76h1.05c-.18,3.68-1.63,7.19-4.11,9.91Z"/><path class="cls-1" d="M21.18,47.64C9.48,47.64,0,57.12,0,68.82c.03,11.68,9.5,21.15,21.18,21.18,11.7,0,21.18-9.48,21.18-21.18s-9.48-21.18-21.18-21.18Zm0,40.84c-10.86,0-19.66-8.8-19.66-19.66,.01-10.85,8.81-19.65,19.66-19.66,10.86,0,19.66,8.8,19.66,19.66s-8.8,19.66-19.66,19.66Z"/><path class="cls-1" d="M21.15,58.78c-.42,0-.76,.34-.76,.76v9.02l-2.11,2.66c-.26,.33-.21,.8,.12,1.07,0,0,0,0,0,0,.13,.11,.3,.17,.47,.17,.23,0,.45-.11,.59-.29l2.28-2.88c.11-.13,.17-.3,.17-.47v-9.29c0-.42-.34-.76-.76-.76Z"/><path class="cls-1" d="M80.98,56.54h-.05c-6.78-6.77-17.76-6.77-24.55,0-6.77,6.79-6.77,17.77,0,24.56,6.78,6.78,17.77,6.78,24.55,0h.05c6.77-6.79,6.77-17.77,0-24.56Zm-.59,22.96l-.76-.76c-.3-.29-.77-.29-1.07,0-.3,.3-.3,.78,0,1.07,0,0,0,0,0,0l.76,.76c-2.72,2.49-6.23,3.94-9.91,4.12v-1.05c0-.42-.34-.76-.76-.76s-.76,.34-.76,.76v1.05c-3.68-.17-7.19-1.63-9.91-4.12l.76-.76c.3-.3,.3-.78,0-1.08s-.78-.3-1.08,0l-.76,.76c-2.49-2.72-3.94-6.23-4.12-9.91h1.05c.42,0,.76-.34,.76-.76s-.34-.76-.76-.76h-1.05c.18-3.68,1.63-7.19,4.11-9.92l.76,.76c.14,.14,.34,.22,.54,.22,.42,0,.76-.34,.76-.76,0-.2-.08-.39-.22-.53l-.76-.76c2.72-2.49,6.23-3.94,9.91-4.11v1.05c0,.42,.34,.76,.76,.76s.76-.34,.76-.76v-1.05c3.68,.17,7.19,1.63,9.91,4.11l-.76,.76c-.29,.3-.29,.77,0,1.07,.3,.29,.77,.29,1.07,0l.76-.76c2.48,2.73,3.94,6.24,4.11,9.92h-1.05c-.42,0-.76,.34-.76,.76s.34,.76,.76,.76h1.05c-.17,3.68-1.63,7.19-4.11,9.91Z"/><path class="cls-1" d="M68.64,47.64c-11.7,0-21.18,9.48-21.18,21.18s9.48,21.18,21.18,21.18,21.18-9.48,21.18-21.18c-.03-11.68-9.5-21.15-21.18-21.18Zm0,40.84h0c-10.86,0-19.66-8.8-19.66-19.66s8.8-19.66,19.66-19.66,19.66,8.8,19.66,19.66c-.03,10.85-8.82,19.63-19.66,19.66Z"/><path class="cls-1" d="M72.98,68.06h-3.58v-8.53c0-.42-.34-.76-.76-.76s-.76,.34-.76,.76v9.29c0,.42,.34,.76,.76,.76h4.34c.42,0,.76-.34,.76-.76s-.34-.76-.76-.76Z"/></g></g></svg>