<?xml version="1.0" encoding="UTF-8"?><svg id="Layer_2" xmlns="http://www.w3.org/2000/svg" viewBox="0 0 84.41 82.39"><defs><style>.cls-1{fill:#fff;}</style></defs><g id="work"><g><path class="cls-1" d="M53.85,80.27h-16.89c-3.99,0-6.19-2.03-8.13-3.82-1.47-1.36-2.75-2.53-4.57-2.53h-2.18c-.5,0-.9-.4-.9-.9s.4-.9,.9-.9h2.18c2.53,0,4.19,1.53,5.8,3.01,1.78,1.64,3.62,3.34,6.91,3.34h16.89c.5,0,.9,.4,.9,.9s-.4,.9-.9,.9Z"/><path class="cls-1" d="M79.27,59.09h-10.59c-2.83,0-5.14-2.3-5.14-5.14v-4.24c0-2.83,2.3-5.14,5.14-5.14h10.59c2.83,0,5.14,2.3,5.14,5.14v4.24c0,2.83-2.3,5.14-5.14,5.14Zm-10.59-12.71c-1.84,0-3.34,1.5-3.34,3.34v4.24c0,1.84,1.5,3.34,3.34,3.34h10.59c1.84,0,3.34-1.5,3.34-3.34v-4.24c0-1.84-1.5-3.34-3.34-3.34h-10.59Z"/><path class="cls-1" d="M77.15,46.38h-10.59c-2.83,0-5.14-2.3-5.14-5.14v-4.24c0-2.83,2.3-5.14,5.14-5.14h10.59c2.83,0,5.14,2.3,5.14,5.14v4.24c0,2.83-2.3,5.14-5.14,5.14Zm-10.59-12.71c-1.84,0-3.34,1.5-3.34,3.34v4.24c0,1.84,1.5,3.34,3.34,3.34h10.59c1.84,0,3.34-1.5,3.34-3.34v-4.24c0-1.84-1.5-3.34-3.34-3.34h-10.59Z"/><path class="cls-1" d="M77.15,71.8h-10.59c-2.83,0-5.14-2.3-5.14-5.14v-4.24c0-2.83,2.3-5.14,5.14-5.14h10.59c2.83,0,5.14,2.3,5.14,5.14v4.24c0,2.83-2.3,5.14-5.14,5.14Zm-10.59-12.71c-1.84,0-3.34,1.5-3.34,3.34v4.24c0,1.84,1.5,3.34,3.34,3.34h10.59c1.84,0,3.34-1.5,3.34-3.34v-4.24c0-1.84-1.5-3.34-3.34-3.34h-10.59Z"/><path class="cls-1" d="M72.92,82.39h-10.59c-2.83,0-5.14-2.3-5.14-5.14v-2.12c0-2.83,2.3-5.14,5.14-5.14h10.59c2.83,0,5.14,2.3,5.14,5.14v2.12c0,2.83-2.3,5.14-5.14,5.14Zm-10.59-10.59c-1.84,0-3.34,1.5-3.34,3.34v2.12c0,1.84,1.5,3.34,3.34,3.34h10.59c1.84,0,3.34-1.5,3.34-3.34v-2.12c0-1.84-1.5-3.34-3.34-3.34h-10.59Z"/><path class="cls-1" d="M22.08,80.27H.9c-.5,0-.9-.4-.9-.9V32.77c0-.5,.4-.9,.9-.9H22.08c.5,0,.9,.4,.9,.9v46.6c0,.5-.4,.9-.9,.9Zm-20.28-1.8H21.18V33.67H1.8v44.8Z"/><path class="cls-1" d="M39.46,63.33c-.36,0-.71-.22-.84-.58-.17-.47,.06-.98,.53-1.16,9.47-3.55,15.73-12.37,15.93-22.47v-10.57c0-.63,.23-1.37,.56-2.38,.62-1.95,1.56-4.9,1.56-9.44,0-6.88-1.23-9.2-4.05-12.84-1.54-1.99-3.69-2.38-5.13-1.89-1.1,.37-1.73,1.22-1.73,2.31v3.05c0,9.07-3.54,14.92-8.86,20.91l-8.31,9.35c-.17,.19-.42,.3-.67,.3h-4.24c-.5,0-.9-.4-.9-.9s.4-.9,.9-.9h3.83l8.04-9.04c5.05-5.68,8.41-11.2,8.41-19.71v-3.05c0-1.86,1.13-3.39,2.95-4.01,2.05-.7,5.06-.2,7.14,2.49,3.12,4.04,4.42,6.87,4.42,13.94,0,4.81-.99,7.92-1.65,9.98-.25,.8-.47,1.48-.47,1.84v10.59c-.22,10.87-6.93,20.34-17.1,24.14-.1,.04-.21,.06-.32,.06Z"/><path class="cls-1" d="M11.49,48.5c-.5,0-.9-.4-.9-.9v-8.47c0-.5,.4-.9,.9-.9s.9,.4,.9,.9v8.47c0,.5-.4,.9-.9,.9Z"/></g></g></svg>