<?xml version="1.0" encoding="UTF-8"?><svg id="Layer_2" xmlns="http://www.w3.org/2000/svg" viewBox="0 0 79.6 85"><defs><style>.cls-1{fill:#fff;}</style></defs><g id="work"><g><path class="cls-1" d="M14.31,66.39c-.37,0-.66-.3-.66-.66s.3-.66,.66-.66h4.96c.36,0,.66,.3,.66,.66s-.3,.66-.66,.66h-4.96Z"/><path class="cls-1" d="M30.47,85c-.37,0-.67-.27-.69-.63l-1.05-24.14h-4.02l-1.05,24.14c-.02,.35-.31,.63-.66,.63-.2,0-.37-.08-.49-.22-.12-.13-.18-.3-.17-.47l1.16-26.54-.96,.59c-.5,.3-1.06,.46-1.63,.46-.1,0-.21,0-.31-.02-.94-.09-1.78-.6-2.31-1.38l-5.42-8.13-7.2,2.77c-1.03,.4-1.96,1.05-2.69,1.89l-.37,.42,5.02,5.02c1.53,1.53,2.37,3.57,2.37,5.73v19.21c0,.37-.3,.66-.66,.66s-.66-.3-.66-.66v-19.21c0-1.81-.71-3.51-1.99-4.8l-4.82-4.82-.28,.97c-.21,.71-.3,1.44-.27,2.17l1.03,25.65c.01,.37-.27,.67-.63,.69-.38,0-.67-.27-.69-.64L0,58.71c-.14-3.47,1.94-6.64,5.18-7.89l7.32-2.83,3.81-3.79c.12-.12,.28-.19,.46-.19h.59v-3.8l-.16-.23c-1.72-1.83-2.87-4.1-3.33-6.57l-.03-.14-.29-.32c-.06-.02-.21-.03-.33-.03-.08,0-.15,0-.17,0-.21,0-.42-.02-.63-.07-1.46-.3-2.52-1.66-2.52-3.24v-.95c0-1.29,.72-2.46,1.83-2.98l.45-.21-.12-.48c-.42-1.7-.92-4.4-.92-7.62,0-5.53,3.77-6.62,5.39-6.83l.2-.05c1.04-.86,4.52-3.42,9.93-3.71,.49-.03,.97-.04,1.44-.04,5.06,0,9.06,1.54,11.58,4.46,2.88,3.32,3.79,8.35,2.64,14.53l-.04,.24,.22,.3c.63,.62,1,1.48,1,2.37v.97c0,1.58-1.06,2.94-2.52,3.24-.21,.04-.42,.06-.63,.06l-.58-.03-.15,.29-.09,.23c-.46,2.47-1.61,4.74-3.33,6.57l-.12,.13-.04,3.89h.59c.17,.01,.34,.08,.46,.2l3.76,3.76,7.37,2.86c3.24,1.25,5.32,4.42,5.18,7.89l-1.03,25.65c-.01,.36-.3,.64-.66,.64h-.03c-.17,0-.33-.08-.45-.21-.12-.13-.18-.3-.18-.48l1.03-25.65c.03-.74-.06-1.47-.27-2.17l-.28-.97-4.82,4.82c-1.28,1.28-1.99,2.99-1.99,4.8v19.21c0,.37-.3,.66-.66,.66s-.66-.3-.66-.66v-19.21c0-2.17,.84-4.2,2.37-5.73l5.02-5.02-.37-.42c-.72-.84-1.65-1.49-2.69-1.89l-7.2-2.77-5.42,8.13c-.53,.79-1.37,1.29-2.31,1.39-.1,0-.21,.02-.32,.02-.57,0-1.13-.16-1.62-.46l-.96-.58,1.16,26.54c0,.18-.05,.35-.17,.48s-.28,.21-.46,.22Zm-5.54-28.91l-.16,2.81h3.91l-.12-2.72-1.83-1.89-1.79,1.79Zm2.76-2.7l3.56,3.56c.44,.44,.94,.53,1.28,.53,.07,0,.13,0,.19,0,.54-.05,1.03-.35,1.33-.8l5.46-8.2-2.9-2.9-8.93,7.81Zm-13.77-4.91l5.47,8.2c.3,.45,.79,.75,1.33,.8,.06,0,.12,0,.18,0,.48,0,.94-.19,1.28-.53l3.56-3.57-8.93-7.81-2.9,2.9Zm4.77-3.09l8.02,7.09,7.97-6.98,.05-4.11-.93,.6c-2.12,1.37-4.57,2.1-7.09,2.1s-4.98-.73-7.1-2.1l-.93-.6v4Zm-5.37-13.8c.89,0,1.69,.67,1.85,1.57,1.02,5.57,5.88,9.61,11.54,9.61s10.52-4.04,11.54-9.61c.16-.89,.96-1.57,1.85-1.57h.26c.12,0,.25,0,.37-.03,.83-.17,1.45-1,1.45-1.94v-.97c0-.91-.63-1.73-1.47-1.9-.09-.02-.22-.03-.37-.03-.29,0-.62,.04-.91,.11-.12,.03-.23,.04-.35,.04-.61,0-1.16-.37-1.4-.94l-1.17-2.82-.48,.1c-1.16,.23-3.51,.63-6.18,.63-3.87,0-9.15-.83-12.33-4.8-.11-.14-.16-.31-.14-.49,.02-.17,.11-.33,.24-.44,.12-.1,.26-.15,.41-.15,.2,0,.39,.09,.52,.25,2.25,2.8,6.15,4.29,11.29,4.29,3.79,0,6.88-.79,6.91-.8,.05-.01,.11-.02,.17-.02,.27,0,.51,.16,.61,.41l1.45,3.48,.47-.08c.3-.05,.61-.08,.89-.08l.73,.03,.09-.53c.91-5.5,.07-9.94-2.44-12.84-2.27-2.62-5.93-4-10.59-4-.44,0-.9,.01-1.36,.04-5.92,.32-9.27,3.51-9.3,3.55-.12,.11-.28,.18-.45,.18-.01,0-1.2,.02-2.33,.73-1.44,.91-2.17,2.53-2.17,4.81,0,3.47,.62,6.32,.99,7.71l.07,.26,.35,.17c.46,.13,.89,.36,1.24,.67l.39,.34,.4-.34c.58-.5,1.09-1.09,1.52-1.76,.12-.19,.33-.31,.56-.31,.12,0,.25,.04,.35,.1,.15,.1,.25,.24,.29,.41,.04,.17,0,.35-.09,.5-.65,1.02-1.46,1.88-2.42,2.56-.19,.14-.44,.22-.68,.22-.11,0-.23-.02-.35-.05-.24-.07-.44-.22-.6-.42-.35-.46-.88-.71-1.44-.71-.11,0-.22,0-.33,.03-.85,.15-1.49,.97-1.49,1.92v.95c0,.94,.63,1.78,1.46,1.94,.12,.02,.24,.04,.36,.04h.26Z"/><path class="cls-1" d="M46.55,36.41c-.61,0-1.2-.09-1.78-.27-.35-.11-.54-.48-.44-.83,.09-.28,.34-.47,.63-.47,.07,0,.13,0,.19,.03,.45,.14,.92,.21,1.39,.21h26.99c2.61,0,4.74-2.13,4.74-4.74V10.77H44.69c-.37,0-.66-.3-.66-.66s.3-.66,.66-.66h33.58v-.69c0-2.61-2.12-4.74-4.74-4.74h-.69v2.04c0,.37-.3,.66-.66,.66s-.66-.3-.66-.66v-2.04h-22.97v2.04c0,.37-.3,.66-.66,.66s-.66-.3-.66-.66v-2.04h-.69c-1.78,0-3.39,.98-4.21,2.56-.11,.22-.34,.36-.59,.36-.1,0-.21-.03-.3-.08-.16-.08-.27-.22-.32-.39-.05-.17-.04-.35,.04-.5,1.05-2.02,3.11-3.27,5.38-3.27h.69V.66c0-.37,.3-.66,.66-.66s.66,.3,.66,.66V2.7h22.97V.66c0-.37,.3-.66,.66-.66s.66,.3,.66,.66V2.7h.69c1.62,0,3.14,.63,4.28,1.78,1.15,1.15,1.78,2.67,1.78,4.28V30.35c0,3.34-2.72,6.06-6.06,6.06h-26.99Z"/><path class="cls-1" d="M57.35,17.52c-.37,0-.66-.3-.66-.66s.3-.66,.66-.66h5.4c.37,0,.66,.3,.66,.66s-.3,.66-.66,.66h-5.4Z"/><path class="cls-1" d="M68.14,17.52c-.37,0-.66-.3-.66-.66s.3-.66,.66-.66h5.4c.37,0,.66,.3,.66,.66s-.3,.66-.66,.66h-5.4Z"/><path class="cls-1" d="M47.9,17.52c-.37,0-.66-.3-.66-.66s.3-.66,.66-.66h4.05c.37,0,.66,.3,.66,.66s-.3,.66-.66,.66h-4.05Z"/><path class="cls-1" d="M57.35,22.92c-.37,0-.66-.3-.66-.66s.3-.66,.66-.66h5.4c.37,0,.66,.3,.66,.66s-.3,.66-.66,.66h-5.4Z"/><path class="cls-1" d="M68.14,22.92c-.37,0-.66-.3-.66-.66s.3-.66,.66-.66h5.4c.37,0,.66,.3,.66,.66s-.3,.66-.66,.66h-5.4Z"/><path class="cls-1" d="M47.9,22.92c-.37,0-.66-.3-.66-.66s.3-.66,.66-.66h4.05c.37,0,.66,.3,.66,.66s-.3,.66-.66,.66h-4.05Z"/><path class="cls-1" d="M57.35,28.32c-.37,0-.66-.3-.66-.66s.3-.66,.66-.66h5.4c.37,0,.66,.3,.66,.66s-.3,.66-.66,.66h-5.4Z"/><path class="cls-1" d="M68.14,28.32c-.37,0-.66-.3-.66-.66s.3-.66,.66-.66h5.4c.37,0,.66,.3,.66,.66s-.3,.66-.66,.66h-5.4Z"/><path class="cls-1" d="M47.9,28.32c-.37,0-.66-.3-.66-.66s.3-.66,.66-.66h4.05c.37,0,.66,.3,.66,.66s-.3,.66-.66,.66h-4.05Z"/></g></g></svg>