<?xml version="1.0" encoding="UTF-8"?><svg id="Layer_2" xmlns="http://www.w3.org/2000/svg" viewBox="0 0 81.78 82"><defs><style>.cls-1{fill:#fff;}</style></defs><g id="work"><g><path class="cls-1" d="M48.36,16.54c-.19-.32-.6-.42-.92-.23-.32,.19-.42,.6-.23,.92,4.32,7.26,4.05,16.37-.67,23.37-.86-2.43-2.18-3.9-3.95-4.36-3-.87-5.96-1.9-8.85-3.09v-3.26c.79-1.21,1.31-2.58,1.52-4.02,1.25-.11,2.25-1.34,2.25-2.89,0-2.55-1.4-2.83-2.01-2.83-.04,0-.07,0-.11,0v-.73l.52-4.63c.14-1.08-.23-2.17-.98-2.95-2.62-2.68-5.93-2.68-8.12-2.68-2.01,0-2.86,.83-3.2,1.42-1.04,.06-2.02,.51-2.74,1.27-1.45,1.44-.33,6.11,.09,7.64v.6c-.94,.05-1.91,.82-1.91,2.87-.08,1.31,.78,2.5,2.05,2.83,.24,1.71,.94,3.33,2.01,4.69v2.73c-2.89,1.18-5.84,2.2-8.84,3.07-1.77,.46-3.09,1.92-3.94,4.34-6.8-9.96-4.23-23.55,5.74-30.35,8.7-5.94,20.4-4.81,27.82,2.67,.26,.26,.68,.26,.94,0,.26-.26,.26-.68,0-.95,0,0,0,0,0,0-9.06-9.04-23.73-9.03-32.78,.03-9.04,9.06-9.03,23.73,.03,32.78,9.05,9.03,23.7,9.03,32.75,0v-.03c7.49-7.49,8.95-19.1,3.55-28.21Zm-26.57-3.76v.05c.5-.54,1.19-.85,1.92-.88,.06,0,.13,0,.19,0,.36,.07,.71-.17,.78-.54,0,0,.23-.93,2.12-.93,2.08,0,4.93,0,7.16,2.28,.47,.5,.7,1.19,.61,1.87l-.29,2.58c-1.31-1.51-4.14-3.29-10.25-3.29-.25,0-.48,.14-.6,.37l-1.59,3.15c-.41-2.12-.54-4.18-.06-4.67Zm.5,11.31c-.02-.36-.33-.63-.68-.62v.08c-.37,0-.67,.3-.67,.67v.16c-.38-.34-.6-.83-.58-1.34,0-.34,.05-1.41,.59-1.51,.03,.34,.32,.6,.67,.6,.37,0,.67-.3,.67-.67v-1.93l2.15-4.27c8.31,.11,9.5,3.8,9.61,4.18v1.89c0,.37,.3,.67,.67,.67,.34,0,.62-.24,.67-.58,.04,0,.09,0,.13,0,.56,0,.67,.82,.67,1.49,.04,.61-.26,1.19-.79,1.51v-.34c0-.37-.3-.67-.67-.67s-.67,.3-.67,.67c0,4.26-2.64,7.72-5.88,7.72-3.07,0-5.88-3.68-5.88-7.72Zm10.53,10.17l.47,.19c-.2,2.7-2.55,4.72-5.24,4.52-2.42-.18-4.34-2.1-4.52-4.52l.48-.19c.08-.03,.15-.08,.21-.15,.03-.03,.05-.06,.07-.09,.03-.04,.06-.08,.08-.12,.03-.08,.05-.17,.05-.25v-1.87c1.05,.88,2.36,1.38,3.72,1.43,1.58-.02,3.09-.64,4.22-1.73v2.12c-.01,.3,.17,.58,.46,.67Zm11.05,9.54c-8.53,8.52-22.35,8.52-30.89,0-.59-.59-1.16-1.22-1.68-1.88,.67-2.52,1.8-4.02,3.29-4.38,2.6-.74,5.15-1.61,7.66-2.61,.48,3.41,3.63,5.79,7.04,5.31,2.76-.39,4.92-2.55,5.31-5.31,2.5,1,5.05,1.86,7.63,2.6,1.5,.39,2.61,1.87,3.3,4.4-.52,.65-1.07,1.28-1.66,1.87Z"/><path class="cls-1" d="M20.7,54.33c-1.25-.35-2.47-.8-3.66-1.33-.33-.16-.73-.03-.9,.3-.16,.33-.03,.73,.3,.9,0,0,.02,0,.02,.01,1.25,.58,2.53,1.06,3.85,1.45,.06,0,.13,0,.19,0,.37,.05,.71-.2,.77-.57,.05-.37-.2-.71-.57-.77Z"/><path class="cls-1" d="M79.85,70.69l-.02-.02-19.02-18.96c-.26-.26-.68-.26-.94,0l-1.53,1.53-4.96-4.93c-.26-.26-.68-.26-.95,0s-.26,.68,0,.95l4.97,4.97-3.45,3.45-7.36-7.36c12.09-10.02,13.76-27.95,3.73-40.04C40.29-1.8,22.37-3.48,10.28,6.55-1.8,16.57-3.48,34.5,6.55,46.58c1.32,1.6,2.82,3.04,4.46,4.32l-.02-.05c.61,.48,1.25,.92,1.89,1.34,.31,.2,.72,.11,.92-.19,.2-.31,.12-.72-.19-.93,0,0,0,0,0,0-.61-.39-1.21-.83-1.79-1.28C.02,40.62-2.12,23.63,7.05,11.83,16.21,.03,33.2-2.1,45,7.07c11.8,9.16,13.93,26.16,4.77,37.95-5.97,7.68-15.6,11.57-25.23,10.17-.37-.05-.71,.21-.76,.58-.05,.37,.21,.71,.58,.76,1.36,.2,2.73,.29,4.1,.29,6.16,0,12.16-2,17.08-5.72l7.48,7.48-1.52,1.53c-.26,.26-.26,.68,0,.94l18.99,18.99c2.57,2.59,6.75,2.6,9.33,.04,.01-.01,.03-.02,.04-.04,2.59-2.58,2.6-6.77,.02-9.35Zm-.99,8.41c-2.06,2.06-5.4,2.06-7.45,0l-5.78-5.78,1.81-1.8c.26-.26,.26-.69,0-.95s-.69-.26-.95,0l-1.8,1.84-2.92-2.92,3.73-3.78c.26-.26,.26-.68,0-.94-.26-.26-.68-.26-.95,0,0,0,0,0,0,0l-3.72,3.73-7.91-7.91,7.44-7.45,18.51,18.51c2.06,2.06,2.06,5.4,0,7.45Z"/><path class="cls-1" d="M78,72.98c-.14-.34-.53-.51-.87-.36s-.51,.53-.36,.87c.9,2.18,.09,3.35,.05,3.39-.2,.28-.15,.67,.11,.9,.12,.09,.26,.15,.42,.15,.2,0,.4-.09,.52-.25,.05-.07,1.34-1.75,.14-4.69Z"/></g></g></svg>