<?xml version="1.0" encoding="UTF-8"?><svg id="Layer_2" xmlns="http://www.w3.org/2000/svg" viewBox="0 0 122.65 65.49"><defs><style>.cls-1{fill:none;}</style></defs><g id="work"><g><path class="cls-1" d="M61.48,47.04v4.19h-6.94c2.67,6.57,6.71,11.69,11.25,14.26v-30.65h-14.62c.16,4.26,.8,8.36,1.92,12.2h8.39Z"/><path class="cls-1" d="M39.54,51.23c4.49,6.86,11.36,11.9,19.2,14.11-3.67-3.57-6.66-8.4-8.72-14.11h-10.47Z"/><path class="cls-1" d="M120.44,34.95c1.21,0,2.2-.99,2.2-2.2s-.99-2.2-2.2-2.2-2.2,.99-2.2,2.2,.99,2.2,2.2,2.2Z"/><path class="cls-1" d="M114.26,51.28c1.21,0,2.2-.99,2.2-2.2s-.99-2.2-2.2-2.2-2.2,.99-2.2,2.2,.99,2.2,2.2,2.2Z"/><path class="cls-1" d="M61.48,14.26v4.19h-8.39c-1.12,3.84-1.77,7.94-1.92,12.2h14.62V0c-4.54,2.57-8.58,7.69-11.25,14.26h6.94Z"/><path class="cls-1" d="M81.23,51.23h-11.25v14.26c4.54-2.57,8.58-7.69,11.25-14.26Z"/><path class="cls-1" d="M96.24,51.23h-10.47c-2.07,5.71-5.06,10.54-8.72,14.11,7.83-2.21,14.71-7.25,19.2-14.11Z"/><path class="cls-1" d="M114.37,18.56c1.22,0,2.21-.99,2.21-2.2s-.99-2.2-2.21-2.2-2.2,.99-2.2,2.2,.99,2.2,2.2,2.2Z"/><rect class="cls-1" y="7.41" width="26.28" height="17.89"/><path class="cls-1" d="M48.71,47.04c-1.01-3.86-1.6-7.96-1.74-12.2h-12.88c.26,4.26,1.3,8.36,3.1,12.2h11.51Z"/><rect class="cls-1" y="40.14" width="26.28" height="17.89"/><path class="cls-1" d="M96.24,14.26c-4.49-6.86-11.36-11.9-19.2-14.11,3.67,3.57,6.66,8.4,8.72,14.11h10.47Z"/><path class="cls-1" d="M101.68,30.65c-.26-4.26-1.3-8.36-3.1-12.2h-11.51c1.01,3.86,1.59,7.96,1.74,12.2h12.88Z"/><path class="cls-1" d="M98.58,47.04c1.8-3.84,2.84-7.94,3.1-12.2h-12.88c-.14,4.25-.73,8.34-1.74,12.2h11.51Z"/><path class="cls-1" d="M74.29,34.84v-4.19h10.32c-.16-4.26-.81-8.36-1.93-12.2h-12.7v28.59h12.7c1.12-3.84,1.77-7.94,1.93-12.2h-10.32Z"/><path class="cls-1" d="M37.2,18.45c-1.8,3.84-2.84,7.94-3.1,12.2h12.88c.14-4.24,.73-8.34,1.74-12.2h-11.51Z"/><path class="cls-1" d="M39.54,14.26h10.47c2.07-5.71,5.06-10.54,8.72-14.11-7.83,2.21-14.71,7.25-19.2,14.11Z"/><path class="cls-1" d="M69.98,0V14.26h11.25c-2.67-6.57-6.71-11.69-11.25-14.26Z"/></g></g></svg>