<?xml version="1.0" encoding="UTF-8"?><svg id="Layer_2" xmlns="http://www.w3.org/2000/svg" viewBox="0 0 64.31 75.91"><defs><style>.cls-1{fill:#fff;}</style></defs><g id="work"><g><path class="cls-1" d="M0,9.68c0,2,1.76,4.86,10.13,7.14,5.9,1.61,13.93,2.54,22.03,2.54s16.12-.92,22.03-2.54c8.37-2.29,10.13-5.15,10.13-7.14s-1.76-4.86-10.13-7.14c-5.91-1.61-13.93-2.54-22.03-2.54S16.03,.92,10.13,2.54C1.76,4.82,0,7.68,0,9.68ZM10.22,4.59c5.79-1.64,13.58-2.54,21.94-2.54s16.14,.9,21.94,2.54c5.12,1.45,8.17,3.35,8.17,5.09s-3.06,3.64-8.17,5.09c-5.79,1.64-13.58,2.55-21.94,2.55s-16.15-.9-21.94-2.55c-5.12-1.45-8.17-3.35-8.17-5.09s3.06-3.64,8.17-5.09Z"/><path class="cls-1" d="M63.29,18.44c-.56,0-1.02,.46-1.02,1.02v9.26c0,1.74-3.06,3.64-8.17,5.09-5.79,1.64-13.58,2.54-21.94,2.54s-16.14-.9-21.94-2.54c-5.12-1.45-8.17-3.35-8.17-5.09v-9.26c0-.56-.46-1.02-1.02-1.02s-1.02,.46-1.02,1.02v9.26c0,2,1.76,4.86,10.13,7.14,5.9,1.61,13.93,2.54,22.03,2.54s16.12-.92,22.03-2.54c8.37-2.29,10.13-5.15,10.13-7.14v-9.26c0-.56-.46-1.02-1.02-1.02Z"/><path class="cls-1" d="M63.29,37.2c-.56,0-1.02,.46-1.02,1.02v9.26c0,1.74-3.06,3.64-8.17,5.09-5.79,1.64-13.58,2.55-21.94,2.55s-16.15-.9-21.94-2.55c-5.12-1.45-8.17-3.35-8.17-5.09v-9.26c0-.56-.46-1.02-1.02-1.02s-1.02,.46-1.02,1.02v9.26c0,2,1.76,4.86,10.13,7.14,5.91,1.61,13.93,2.54,22.03,2.54s16.12-.92,22.03-2.54c8.37-2.29,10.13-5.15,10.13-7.14v-9.26c0-.56-.46-1.02-1.02-1.02Z"/><path class="cls-1" d="M63.29,55.95c-.56,0-1.02,.46-1.02,1.02v9.26c0,1.74-3.06,3.64-8.17,5.09-5.79,1.64-13.58,2.55-21.94,2.55s-16.15-.9-21.94-2.55c-5.12-1.45-8.17-3.35-8.17-5.09v-9.26c0-.56-.46-1.02-1.02-1.02s-1.02,.46-1.02,1.02v9.26c0,2,1.76,4.86,10.13,7.14,5.91,1.61,13.93,2.54,22.03,2.54s16.12-.92,22.03-2.54c8.37-2.29,10.13-5.15,10.13-7.14v-9.26c0-.56-.46-1.02-1.02-1.02Z"/><path class="cls-1" d="M32.16,26.23c-.98,0-1.77,.8-1.77,1.77s.8,1.78,1.77,1.78,1.77-.8,1.77-1.78-.8-1.77-1.77-1.77Z"/><path class="cls-1" d="M22.1,25.39c-.98,0-1.77,.8-1.77,1.77s.8,1.78,1.77,1.78,1.77-.8,1.77-1.78-.8-1.77-1.77-1.77Z"/><path class="cls-1" d="M42.21,25.39c-.98,0-1.77,.8-1.77,1.77s.8,1.78,1.77,1.78,1.77-.8,1.77-1.78-.8-1.77-1.77-1.77Z"/><path class="cls-1" d="M32.16,48.95c.98,0,1.77-.8,1.77-1.78s-.8-1.77-1.77-1.77-1.77,.8-1.77,1.77,.8,1.78,1.77,1.78Z"/><path class="cls-1" d="M22.1,48.11c.98,0,1.77-.8,1.77-1.78s-.8-1.77-1.77-1.77-1.77,.8-1.77,1.77,.8,1.78,1.77,1.78Z"/><path class="cls-1" d="M42.21,48.11c.98,0,1.77-.8,1.77-1.78s-.8-1.77-1.77-1.77-1.77,.8-1.77,1.77,.8,1.78,1.77,1.78Z"/><path class="cls-1" d="M32.16,67.7c.98,0,1.77-.8,1.77-1.77s-.8-1.78-1.77-1.78-1.77,.8-1.77,1.78,.8,1.77,1.77,1.77Z"/><path class="cls-1" d="M22.1,66.86c.98,0,1.77-.8,1.77-1.77s-.8-1.77-1.77-1.77-1.77,.8-1.77,1.77,.8,1.77,1.77,1.77Z"/><path class="cls-1" d="M42.21,66.86c.98,0,1.77-.8,1.77-1.77s-.8-1.77-1.77-1.77-1.77,.8-1.77,1.77,.8,1.77,1.77,1.77Z"/></g></g></svg>