<?xml version="1.0" encoding="UTF-8"?><svg id="Layer_2" xmlns="http://www.w3.org/2000/svg" viewBox="0 0 133.24 66.74"><defs><style>.cls-1{fill:#fff;}</style></defs><g id="work"><g><path class="cls-1" d="M110.07,55.47c-2.68,0-4.86-2.18-4.86-4.86s2.18-4.86,4.86-4.86,4.85,2.18,4.86,4.85c0,2.69-2.18,4.87-4.86,4.87Zm0-8.16c-1.81,0-3.29,1.47-3.29,3.29s1.47,3.29,3.29,3.29,3.29-1.47,3.29-3.29-1.47-3.29-3.29-3.29Z"/><path class="cls-1" d="M45.73,55.47c-2.68,0-4.86-2.18-4.86-4.86s2.18-4.86,4.86-4.86,4.85,2.18,4.86,4.85c0,2.69-2.18,4.87-4.86,4.87Zm0-8.16c-1.81,0-3.29,1.47-3.29,3.29s1.47,3.29,3.29,3.29,3.29-1.47,3.29-3.29-1.47-3.29-3.29-3.29Z"/><path class="cls-1" d="M105.4,26.32c-.21,0-.41-.08-.55-.23l-2.52-2.47c-.31-.31-.31-.81,0-1.12,.15-.15,.35-.23,.55-.23s.41,.08,.55,.23l2.52,2.47c.15,.15,.23,.34,.23,.55,0,.21-.08,.41-.23,.56-.15,.15-.35,.23-.56,.23Z"/><path class="cls-1" d="M98.28,36.17c-.43,0-.79-.35-.79-.79s.35-.79,.79-.79h2.72c.43,0,.79,.35,.79,.79s-.35,.79-.79,.79h-2.72Z"/><path class="cls-1" d="M24.08,60.44c-.43,0-.79-.35-.79-.79s.35-.79,.79-.79h16.25l-.68-.54c-2.13-1.68-3.49-4.2-3.71-6.9l-.02-.27h-11.83c-.43,0-.79-.35-.79-.79v-9.55c0-.43,.35-.79,.79-.79s.79,.35,.79,.79v8.67h11.08l.03-.26c.34-2.55,1.63-4.84,3.65-6.43,1.75-1.39,3.86-2.12,6.09-2.12,3.03,0,5.84,1.36,7.72,3.74l.09,.11h27.98c.43,0,.79,.35,.79,.79s-.35,.79-.79,.79h-27.02l.19,.42c.39,.87,.65,1.78,.77,2.73l.03,.26h35.11V16.63c0-.43,.35-.79,.79-.79h22.47v-6.31h-7.78c-.43,0-.79-.35-.79-.79s.35-.79,.79-.79h7.78V1.57H24.87V10.39c0,.43-.35,.79-.79,.79s-.79-.35-.79-.79V.79c0-.43,.35-.79,.79-.79H114.69c.43,0,.79,.35,.79,.79v15.91c0,.43-.35,.79-.79,.79h-5.93l7.61,11.38,.05,.03c.07,.05,.14,.11,.19,.17l.05,.06,7.41,2.93c3.12,1.25,5.13,4.24,5.11,7.61v10.7c0,.43-.35,.79-.79,.79h-8.53l-.02,.27c-.23,2.71-1.59,5.23-3.73,6.9l-.69,.54h17.02c.43,0,.79,.35,.79,.79s-.35,.79-.79,.79H24.08Zm85.98-18.12c-4.56,0-8.27,3.71-8.27,8.27s3.71,8.27,8.27,8.27,8.27-3.71,8.27-8.27-3.71-8.27-8.27-8.27Zm-54.53,9.1c-.23,2.71-1.59,5.23-3.73,6.9l-.69,.54h53.55l-.69-.54c-2.14-1.68-3.5-4.19-3.73-6.9l-.02-.27H55.56l-.02,.27Zm-9.79-9.1c-4.56,0-8.27,3.71-8.27,8.27s3.71,8.27,8.26,8.27c4.57,0,8.28-3.71,8.28-8.27s-3.71-8.27-8.27-8.27Zm64.31-1.57c4.91,0,9.09,3.68,9.74,8.55l.03,.26h7.79v-3.42h-4.33c-.43,0-.79-.35-.79-.79v-5.33c0-.43,.35-.79,.79-.79h4.31l-.04-.33c-.27-2.43-1.84-4.5-4.12-5.4l-7.78-3.07s-.2-.13-.2-.13h-13.36c-3.7,0-6.71-3.01-6.71-6.71v-6.16l-3.23,.03V49.56h8.09l.03-.26c.58-4.4,4.06-7.88,8.46-8.46,.43-.06,.87-.09,1.3-.09Zm14.04,3.84h3.54v-3.76h-3.54v3.76Zm-27.12-20.99c0,1.37,.53,2.67,1.5,3.64s2.26,1.51,3.63,1.51h12.25l-7.52-11.31h-9.86v6.15Z"/><path class="cls-1" d="M39.76,66.74c-.43,0-.79-.35-.79-.79s.35-.79,.79-.79h24.07c.43,0,.79,.35,.79,.79s-.35,.79-.79,.79h-24.07Z"/><path class="cls-1" d="M73.47,66.74c-.43,0-.79-.35-.79-.79s.35-.79,.79-.79h8.05c.43,0,.79,.35,.79,.79s-.35,.79-.79,.79h-8.05Z"/><path class="cls-1" d="M13.03,60.44c-.43,0-.79-.35-.79-.79s.35-.79,.79-.79h4.57c.43,0,.79,.35,.79,.79s-.35,.79-.79,.79h-4.57Z"/><path class="cls-1" d="M22.25,16.83c-.43,0-.79-.35-.79-.79s.35-.79,.79-.79h25.5c.43,0,.79,.35,.79,.79s-.35,.79-.79,.79H22.25Z"/><path class="cls-1" d="M32.67,26.32c-.43,0-.79-.35-.79-.79s.35-.79,.79-.79h15.09c.43,0,.79,.35,.79,.79s-.35,.79-.79,.79h-15.09Z"/><path class="cls-1" d="M18.56,26.37c-.43,0-.79-.35-.79-.79s.35-.79,.79-.79h7.39c.43,0,.79,.35,.79,.79s-.35,.79-.79,.79h-7.39Z"/><path class="cls-1" d="M5.22,35.04c-.43,0-.79-.35-.79-.79s.35-.79,.79-.79h4.09c.43,0,.79,.35,.79,.79s-.35,.79-.79,.79H5.22Z"/><path class="cls-1" d="M15.57,35.04c-.43,0-.79-.35-.79-.79s.35-.79,.79-.79h19.38c.43,0,.79,.35,.79,.79s-.35,.79-.79,.79H15.57Z"/><path class="cls-1" d="M.79,26.37c-.43,0-.79-.35-.79-.79s.35-.79,.79-.79H14.48c.43,0,.79,.35,.79,.79s-.35,.79-.79,.79H.79Z"/><path class="cls-1" d="M9.31,16.83c-.43,0-.79-.35-.79-.79s.35-.79,.79-.79h7.02c.43,0,.79,.35,.79,.79s-.35,.79-.79,.79h-7.02Z"/><path class="cls-1" d="M91.39,66.74c-.43,0-.79-.35-.79-.79s.35-.79,.79-.79h18.58c.43,0,.79,.35,.79,.79s-.35,.79-.79,.79h-18.58Z"/></g></g></svg>