<?xml version="1.0" encoding="UTF-8"?><svg id="Layer_2" xmlns="http://www.w3.org/2000/svg" viewBox="0 0 90 57.6"><defs><style>.cls-1{fill:#fff;}</style></defs><g id="work"><g><path class="cls-1" d="M81.33,28.54l5.59-15.05c.09-.23,.06-.48-.08-.68-.14-.2-.37-.32-.62-.32h-5.15c-.24,0-.47,.12-.61,.33l-10.39,15.11h-19.06l4.22-6.25c.13-.23,.13-.51,0-.74-.13-.24-.38-.39-.65-.39h-7.74c-.18,0-.35,.07-.49,.19l-8.26,7.23c-20.1,.21-25.64,1.22-28.26,2.23-.87,.3-1.64,.86-2.18,1.61-1.08,1.3-2.36,2.42-3.79,3.32-1.35,.89-2.51,2.03-3.42,3.37-.58,.98-.58,2.2,0,3.18,.48,.97,1.46,1.59,2.54,1.61H37.34l12.56,10.71c.13,.11,.31,.18,.48,.18h8.09c.41,0,.74-.33,.75-.74,0-.15-.04-.29-.12-.41l-6.56-9.9c3.71-.07,14.09-.59,20.09-3.92,2.08-1.13,3.84-2.78,5.09-4.78l2.83,1.89c.12,.08,.27,.13,.42,.13l5.27-.1c.28,0,.54-.17,.66-.43,.12-.26,.08-.57-.1-.79l-5.46-6.59Zm.1-14.56h3.71l-5.19,13.97h-8.08l9.56-13.97Zm-34.31,8.03h6.12l-4.01,5.93h-8.88l6.77-5.93ZM8.48,33.11v.02h6.56c.52-.05,.98,.34,1.02,.85s-.34,.98-.85,1.02c-.06,0-.11,0-.17,0H6.5c.72-.57,1.38-1.21,1.97-1.9Zm-3.95,3.36H15.04c1.34,.07,2.48-.95,2.56-2.29,.07-1.34-.95-2.48-2.29-2.56-.09,0-.18,0-.27,0h-4.82l.15-.05c2.64-1.01,9.07-2.17,35.61-2.17h24.24l3.75,2.51c-.59,1.13-2.46,3.9-7.21,5.19-6.3,1.72-17.42,1.57-17.53,1.57H2.12c.69-.85,1.5-1.59,2.4-2.22Zm-1.59,5.33c-.53-.04-1.01-.36-1.24-.84-.13-.24-.2-.51-.22-.78H33.72l1.89,1.62H2.94Zm54.16,10.88h-6.45s-14.64-12.5-14.64-12.5h12.79l8.31,12.5Zm14.79-14.76h-.01c-6.22,3.47-18.03,3.72-20.33,3.72l-.97-1.48c3.23,0,11.33-.21,16.54-1.63,5.09-1.39,7.27-4.33,8.07-5.8l1.25,.84c-1.1,1.83-2.67,3.34-4.55,4.36Zm9.24-2.96l-8.23-5.53h7.22l4.53,5.47-3.52,.07Z"/><path class="cls-1" d="M55.06,31.43c-1.38,0-2.51,1.12-2.51,2.51,0,0,0,.02,0,.03,.02,1.37,1.14,2.47,2.51,2.48,1.38,0,2.51-1.12,2.51-2.51,0-1.38-1.12-2.51-2.51-2.51Zm0,3.53c-.55,0-1.01-.44-1.02-.99-.02-.57,.43-1.04,.99-1.05,.01,0,.02,0,.03,0h0c.57,0,1.02,.46,1.02,1.02,0,.57-.46,1.02-1.02,1.02Z"/><path class="cls-1" d="M48,31.43c-1.38,0-2.51,1.12-2.51,2.51,0,0,0,.02,0,.03,.02,1.37,1.13,2.48,2.51,2.48,1.38,0,2.51-1.12,2.51-2.51,0-1.38-1.12-2.51-2.51-2.51Zm0,3.53c-.55,0-1.01-.44-1.02-.99-.02-.57,.43-1.04,.99-1.05,.01,0,.02,0,.03,0h0c.57,0,1.02,.46,1.02,1.02,0,.57-.46,1.02-1.02,1.02Z"/><path class="cls-1" d="M40.89,31.43c-1.38,.01-2.5,1.15-2.48,2.53h0c.02,1.39,1.15,2.49,2.53,2.48,1.38-.01,2.5-1.15,2.48-2.53-.01-1.38-1.14-2.5-2.53-2.48Zm0,3.53c-.54-.01-.98-.45-1-.99-.02-.57,.43-1.04,.99-1.05,.02,0,.04,0,.05,0h0c.57,.01,1.01,.48,1,1.05-.01,.57-.48,1.01-1.05,1Z"/><path class="cls-1" d="M33.87,31.43c-1.38,0-2.51,1.12-2.51,2.51,0,0,0,.02,0,.03,.02,1.37,1.14,2.47,2.51,2.48,1.38,0,2.51-1.12,2.51-2.51,0-1.38-1.12-2.51-2.51-2.51Zm0,3.53c-.55,0-1.01-.44-1.02-.99-.02-.57,.43-1.04,.99-1.05,.01,0,.02,0,.03,0h0c.57,0,1.02,.46,1.02,1.02,0,.57-.46,1.02-1.02,1.02Z"/><path class="cls-1" d="M26.83,31.43c-1.38,0-2.51,1.11-2.52,2.49,0,.01,0,.03,0,.04,.02,1.37,1.12,2.47,2.49,2.48,1.38,0,2.51-1.11,2.52-2.49,0-1.38-1.11-2.51-2.49-2.52Zm0,3.53c-.56,0-1.02-.43-1.04-.99-.02-.57,.43-1.04,.99-1.05,0,0,.01,0,.02,0h0c.57,0,1.03,.44,1.04,1.01,0,.57-.44,1.03-1.01,1.04Z"/><path class="cls-1" d="M40.12,9.36h-1.56c-.37-2.73-2.7-4.77-5.46-4.77-.91,0-1.81,.23-2.6,.68C28.69,.9,23.68-1.16,19.33,.66c-3,1.25-5.03,4.09-5.24,7.34-1.66,.69-3.02,1.94-3.84,3.55-.64-.28-1.33-.42-2.03-.42-2.87,0-5.19,2.32-5.19,5.19,0,.41,.33,.74,.74,.74s.74-.33,.74-.74c0-2.05,1.67-3.71,3.72-3.7,.7,0,1.39,.2,1.98,.58,.34,.22,.8,.12,1.03-.22,.03-.05,.05-.1,.07-.15,1.14-3.11,4.58-4.7,7.69-3.56,1.68,.62,3,1.95,3.59,3.64,.13,.39,.56,.59,.94,.46,.07-.02,.13-.05,.18-.09,.62-.44,1.35-.67,2.11-.67,2.05,0,3.71,1.66,3.71,3.71s-1.66,3.71-3.71,3.71h-6.98c-.41,0-.74,.33-.74,.74s.33,.74,.74,.74h6.98c2.87,0,5.19-2.32,5.19-5.19s-2.32-5.19-5.19-5.19c-.75,0-1.49,.16-2.17,.48-1.25-2.55-3.84-4.16-6.68-4.18-.45,0-.89,.05-1.33,.13,.47-3.49,3.44-6.1,6.97-6.13,3.17,.01,5.95,2.13,6.8,5.19,.07,.24,.25,.44,.5,.51,.24,.07,.5,.02,.69-.13,.71-.59,1.6-.92,2.52-.92,2.22,0,4.02,1.81,4.03,4.03,0,.41,.33,.74,.74,.74h2.23c.41,0,.74-.33,.74-.74,0-.41-.33-.74-.74-.74Z"/><path class="cls-1" d="M90,52.89c-.1-2.36-1.99-4.25-4.35-4.35h0c-.62,0-1.23,.13-1.8,.38-1.63-3.19-5.54-4.46-8.73-2.83-1.21,.61-2.19,1.59-2.81,2.79-.53-.22-1.11-.33-1.68-.33-2.5,0-4.53,2.03-4.53,4.53,0,.41,.33,.74,.74,.74s.74-.33,.74-.74c-.01-1.67,1.33-3.04,3-3.05,.6,0,1.18,.17,1.68,.49,.19,.12,.42,.15,.64,.08,.21-.07,.38-.24,.46-.45,.95-2.6,3.83-3.93,6.43-2.98,1.41,.52,2.51,1.64,3,3.05,.08,.22,.25,.38,.47,.45,.22,.07,.46,.04,.65-.1,1.38-.96,3.28-.61,4.23,.77,.96,1.38,.61,3.28-.77,4.23-.51,.35-1.11,.54-1.73,.54h-5.93c-.41,0-.74,.33-.74,.74s.33,.74,.74,.74h5.93c2.5-.1,4.45-2.21,4.35-4.71Z"/><path class="cls-1" d="M76.36,56.12h-2.86c-.41,0-.74,.33-.74,.74s.33,.74,.74,.74h2.86c.41,0,.74-.33,.74-.74s-.33-.74-.74-.74Z"/></g></g></svg>