<?xml version="1.0" encoding="UTF-8"?><svg id="Layer_2" xmlns="http://www.w3.org/2000/svg" viewBox="0 0 80.75 80.75"><defs><style>.cls-1{fill:#fff;}</style></defs><g id="work"><g><path class="cls-1" d="M16.07,80.75c-8.86,0-16.07-7.21-16.07-16.07V16.07C0,11.72,1.71,7.65,4.81,4.6,7.84,1.64,11.84,0,16.08,0c.1,0,.19,0,.29,0,8.7,.16,15.77,7.6,15.77,16.58v14.12h41.49c3.92,0,7.12,3.19,7.12,7.12v35.82c0,3.92-3.19,7.12-7.12,7.12H16.07Zm-13.83-11.32c2.03,5.91,7.59,9.87,13.83,9.87h57.56c3.13,0,5.67-2.55,5.67-5.67V37.82c0-3.13-2.55-5.67-5.67-5.67H32.14v3.67h35.09c.4,0,.72,.32,.72,.72s-.32,.72-.72,.72H32.14v4.97l.54-.02h12.81c1.1,0,2,.9,2,2v12.79c0,1.1-.9,2-2,2h-12.79c-1.1,0-2-.9-2-2v-.78l-.59,.14c-.22,.05-.43,.08-.63,.08-.6,0-1.19-.22-1.68-.61l-.77-.63v12.02c0,1.1-.9,2-2,2H14.79c-2.51,0-4.56-2.05-4.56-4.56v-11.51c0-.4,.32-.72,.72-.72h11.34l.21-.9c-1.99-.98-4.21-1.49-6.43-1.49-3.4,0-6.72,1.2-9.34,3.38l-.17,.14v5.99c0,.4-.32,.72-.72,.72s-.72-.32-.72-.72v-4.67l-.86,1.17c-1.29,1.77-2.18,3.83-2.57,5.97l-.02,.09,.02,.09c1.27,6.94,7.32,11.98,14.39,11.98h1.28c.4,0,.72,.32,.72,.72s-.32,.72-.72,.72h-1.28c-5.12,0-9.98-2.48-13-6.64l-.83,.43Zm9.44-4.75c0,1.72,1.4,3.12,3.12,3.12h10.23c.31,0,.56-.25,.56-.56v-12.79c0-.31-.25-.56-.56-.56H11.68v10.79ZM16.07,1.44c-3.86,0-7.49,1.49-10.25,4.19C3,8.41,1.44,12.11,1.44,16.07V57.81l.88-1.45c2.95-4.86,8.09-7.75,13.75-7.75,4.83,0,9.36,2.15,12.43,5.9,.26,.31,.61,.49,.98,.49,.67,0,1.22-.55,1.22-1.22V16.58c0-8.2-6.44-14.99-14.35-15.13-.09,0-.18,0-.28,0Zm16.63,42.21c-.31,0-.56,.25-.56,.56v12.79c0,.31,.25,.56,.56,.56h12.79c.31,0,.56-.25,.56-.56v-12.79c0-.31-.25-.56-.56-.56h-12.79Z"/><path class="cls-1" d="M22.47,75.63c-.4,0-.72-.32-.72-.72s.32-.72,.72-.72h51.17c.31,0,.56-.25,.56-.56V37.82c0-.31-.25-.56-.56-.56h-1.28c-.4,0-.72-.32-.72-.72s.32-.72,.72-.72h1.28c.53,0,1.04,.21,1.41,.59,.38,.38,.59,.88,.59,1.41v35.82c0,1.1-.9,2-2,2H22.47Z"/><path class="cls-1" d="M63.4,48.77c-1.1,0-2-.9-2-2v-2.56c0-1.1,.9-2,2-2h2.56c1.1,0,2,.9,2,2v2.56c0,1.1-.9,2-2,2h-2.56Zm0-5.12c-.31,0-.56,.25-.56,.56v2.56c0,.31,.25,.56,.56,.56h2.56c.31,0,.56-.25,.56-.56v-2.56c0-.31-.25-.56-.56-.56h-2.56Z"/><path class="cls-1" d="M53.17,48.77c-1.1,0-2-.9-2-2v-2.56c0-1.1,.9-2,2-2h2.56c1.1,0,2,.9,2,2v2.56c0,1.1-.9,2-2,2h-2.56Zm0-5.12c-.31,0-.56,.25-.56,.56v2.56c0,.31,.25,.56,.56,.56h2.56c.31,0,.56-.25,.56-.56v-2.56c0-.31-.25-.56-.56-.56h-2.56Z"/><path class="cls-1" d="M42.93,69.24c-1.1,0-2-.9-2-2v-2.56c0-1.1,.9-2,2-2h2.56c1.1,0,2,.9,2,2v2.56c0,1.1-.9,2-2,2h-2.56Zm0-5.12c-.31,0-.56,.25-.56,.56v2.56c0,.31,.25,.56,.56,.56h2.56c.31,0,.56-.25,.56-.56v-2.56c0-.31-.25-.56-.56-.56h-2.56Z"/><path class="cls-1" d="M32.7,69.24c-1.1,0-2-.9-2-2v-2.56c0-1.1,.9-2,2-2h2.56c1.1,0,2,.9,2,2v2.56c0,1.1-.9,2-2,2h-2.56Zm0-5.12c-.31,0-.56,.25-.56,.56v2.56c0,.31,.25,.56,.56,.56h2.56c.31,0,.56-.25,.56-.56v-2.56c0-.31-.25-.56-.56-.56h-2.56Z"/><path class="cls-1" d="M53.17,69.24c-1.1,0-2-.9-2-2v-12.79c0-1.1,.9-2,2-2h12.79c1.1,0,2,.9,2,2v12.79c0,1.1-.9,2-2,2h-12.79Zm0-15.35c-.31,0-.56,.25-.56,.56v12.79c0,.31,.25,.56,.56,.56h12.79c.31,0,.56-.25,.56-.56v-12.79c0-.31-.25-.56-.56-.56h-12.79Z"/></g></g></svg>