<?xml version="1.0" encoding="UTF-8"?><svg id="Layer_2" xmlns="http://www.w3.org/2000/svg" viewBox="0 0 79.12 94"><defs><style>.cls-1{fill:#fff;}</style></defs><g id="work"><g><path class="cls-1" d="M37.68,21.5c-1.12,0-2.17-.6-2.74-1.56-.29-.49-.45-1.05-.45-1.63,0-.08,0-.17,0-.25,.13-1.64,1.52-2.93,3.17-2.93,1.12,0,2.17,.6,2.74,1.56,.29,.49,.45,1.05,.45,1.62,0,.08,0,.17,0,.25-.13,1.65-1.52,2.94-3.18,2.94Zm0-4.72c-.79,0-1.46,.62-1.53,1.41v.12c0,.28,.07,.54,.21,.78,.28,.47,.77,.75,1.32,.75,.79,0,1.46-.62,1.53-1.41v-.12c0-.28-.07-.54-.21-.78-.28-.47-.77-.75-1.32-.75Z"/><path class="cls-1" d="M17.49,94L25.94,31.6h-2.15v-6.97l-16.45,3.85-.03,37.04h1.37v12.38h-2.7l-.16,.31c-.26,.5-.66,.84-.95,1.1-.45,.39-.64,.57-.64,.98s.2,.6,.64,.98c.51,.44,1.22,1.05,1.22,2.23s-.73,1.82-1.22,2.23c-.45,.39-.64,.58-.64,.98s.2,.6,.64,.98c.48,.42,1.22,1.05,1.22,2.23s-.73,1.82-1.22,2.23c-.19,.16-.33,.29-.44,.42h-1.8c.19-.83,.75-1.32,1.15-1.66,.45-.39,.64-.58,.64-.99s-.2-.6-.64-.98c-.48-.42-1.22-1.05-1.22-2.23s.73-1.81,1.22-2.23c.45-.39,.64-.58,.64-.99s-.2-.6-.64-.98c-.48-.42-1.22-1.05-1.22-2.23,0-.56,.16-1.04,.48-1.48l.67-.9H0v-12.38H1.34l.04-48.44c0-1.65,1.34-2.98,2.99-2.98,.8,0,1.55,.31,2.12,.88,.56,.56,.87,1.32,.87,2.11v5.25s22.43-5.25,22.43-5.25l.07-.36c.75-3.71,4.04-6.4,7.82-6.4,2.45,0,4.81,1.16,6.32,3.11l.22,.29,20.02-4.66-1.44-6.19,12.22-2.87,4.11,18.25-5.21,1.22v16.68l.41,.12c1.93,.55,3.27,2.34,3.27,4.34s-1.35,3.79-3.27,4.34l-.41,.12v47.54h-1.65V45.06l-.41-.12c-1.93-.55-3.27-2.33-3.27-4.34s1.35-3.79,3.27-4.34l.41-.12V19.86l-5.36,1.26-1.32-6.23-20,4.66-.07,.36c-.29,1.41-.96,2.72-1.94,3.79l-.87,.95h8.88v6.95h-2.15l8.45,62.39H17.49Zm4-1.65H53.86l-16.19-9.44-16.19,9.44Zm-2.01-.74l16.56-9.66-14.13-8.24-2.42,17.9Zm19.84-9.66l16.56,9.66-2.42-17.9-14.13,8.24Zm-1.64-.96l13.37-7.8H24.31l13.37,7.8ZM1.65,76.26H7.04v-9.08H1.65s0,9.08,0,9.08Zm22.24-4.72h27.56l-13.78-9.55-13.78,9.55Zm15.23-10.55l13.9,9.63-2.38-17.61-11.52,7.98Zm-16.81,9.63l13.9-9.63-11.52-7.98-2.38,17.61ZM4.37,15.76c-.74,0-1.34,.6-1.34,1.33l-.04,48.43h2.67l.04-48.43c0-.36-.14-.69-.39-.94-.25-.25-.59-.39-.94-.39ZM37.68,59.98l10.96-7.6H26.71l10.96,7.6Zm-11.36-9.25h22.73l-11.36-9.69-11.36,9.69Zm12.64-10.78l11.22,9.57-2.33-17.16-8.9,7.59Zm-13.77,9.57l11.22-9.57-8.9-7.59-2.32,17.16Zm47.9-11.78c-1.58,0-2.86,1.28-2.86,2.86s1.28,2.86,2.86,2.86,2.86-1.28,2.86-2.86-1.28-2.86-2.86-2.86Zm-35.41,1.12l8.51-7.26H29.16l8.51,7.26Zm-12.23-8.94h24.46v-3.62H25.44v3.62ZM7.35,24.05v2.74s22.94-5.37,22.94-5.37l-.2-.59c-.04-.12-.08-.24-.11-.37-.06-.21-.09-.34-.11-.47l-.03-.12c-.03-.14-.05-.28-.07-.43l-.09-.62L7.35,24.05Zm30.33-12.06c-3.29,0-6.06,2.56-6.31,5.84-.02,.19-.02,.35-.02,.49,0,1.14,.31,2.26,.89,3.23,1.14,1.91,3.22,3.1,5.45,3.1,3.29,0,6.06-2.56,6.31-5.84,.02-.19,.02-.35,.02-.49,0-1.14-.31-2.25-.89-3.23-1.14-1.91-3.22-3.1-5.45-3.1Zm-9.18,11.54l.13,1.12h4.03l-.87-.95c-.15-.16-.29-.33-.42-.5l-.22-.29-2.64,.62Zm38.8-8.47l.86,4.07,8.98-2.11-3.38-15.02-8.99,2.11,2.46,10.56,.06,.4Zm-22.24,.17l.2,.59c.04,.12,.08,.24,.11,.37,.05,.2,.09,.34,.11,.47l.02,.12c.03,.14,.06,.29,.08,.44l.08,.62,19.55-4.55-.6-2.6-19.55,4.55Z"/></g></g></svg>