<?xml version="1.0" encoding="UTF-8"?><svg id="Layer_2" xmlns="http://www.w3.org/2000/svg" viewBox="0 0 94.25 70.41"><defs><style>.cls-1{fill:#fff;}</style></defs><g id="work"><g><path class="cls-1" d="M46.2,8.94h-14.71l-.14-.09c-.28-.19-.58-.36-.86-.52l-.31-.18V2.42c0-1.33-1.08-2.42-2.42-2.42H15.83c-1.33,0-2.42,1.08-2.42,2.42v5.72l-.28,.16c-5.28,3.07-8.6,8.75-8.65,14.82C3.73,28.43,0,55,0,60.54c0,6.36,3.51,9.87,9.87,9.87,7.45,0,14.44-16.65,15.56-19.44l-1.73-.67c-2.55,6.44-8.6,18.26-13.83,18.26s-8.01-2.62-8.01-8.01c0-4.03,2.12-20.14,3.38-29.38l.25-1.8,.81,1.63c2.96,5.93,8.9,9.62,15.49,9.62h3.59l.08,.47c.68,4.05,4.15,6.98,8.25,6.98s7.57-2.94,8.25-6.98l.08-.47h10.16l.08,.47c.68,4.05,4.15,6.98,8.25,6.98s7.57-2.94,8.25-6.98l.08-.47h3.59c6.59,0,12.53-3.69,15.49-9.62l.81-1.63,.25,1.8c1.26,9.25,3.38,25.36,3.38,29.38,0,5.39-2.62,8.01-8.01,8.01s-11.28-11.82-13.83-18.26l-1.73,.67c1.48,3.71,8.18,19.44,15.56,19.44,6.36,0,9.87-3.51,9.87-9.87,0-6.03-4.43-37.02-4.47-37.34v-.05c-.06-6.1-3.38-11.78-8.66-14.85l-.28-.16V2.42c0-1.33-1.08-2.42-2.42-2.42h-11.92c-1.33,0-2.42,1.08-2.42,2.42v5.72l-.28,.16c-.32,.19-.62,.36-.9,.54l-.14,.09h-14.71M65.94,1.86h13.05V7.24l-.75-.27c-3.78-1.34-7.77-1.34-11.54,0l-.75,.27V1.86ZM15.27,1.86h13.05V7.24l-.75-.27c-.47-.17-.95-.32-1.43-.44-3.34-.88-6.84-.73-10.12,.44l-.75,.27V1.86Zm10.11,36.89h-3.59c-8.53,0-15.47-6.94-15.47-15.46S13.26,7.82,21.79,7.82s15.46,6.94,15.46,15.46c0,2.73-.73,5.43-2.11,7.79l-.18,.31-.36-.04c-.84-.09-1.62-.06-2.4,.08-3.45,.62-6.16,3.38-6.75,6.85l-.08,.47Zm8.33,7.45c-3.6,0-6.52-2.93-6.52-6.52s2.93-6.52,6.52-6.52,6.52,2.93,6.52,6.52-2.93,6.52-6.52,6.52Zm18.49-7.45h-10.16l-.08-.47c-.45-2.66-2.18-4.96-4.62-6.14l-.52-.26,.27-.51c1.32-2.49,2.01-5.28,2.01-8.09,0-4.25-1.58-8.35-4.45-11.55l-.84-.94h26.61l-.84,.94c-2.87,3.19-4.45,7.3-4.45,11.55,0,2.8,.7,5.6,2.01,8.09l.27,.51-.52,.25c-2.44,1.18-4.17,3.48-4.62,6.14l-.08,.47Zm8.33,7.45c-3.6,0-6.52-2.93-6.52-6.52s2.93-6.52,6.52-6.52,6.52,2.93,6.52,6.52-2.93,6.52-6.52,6.52Zm11.92-7.45h-3.59l-.08-.47c-.68-4.05-4.15-6.98-8.25-6.98-.28,0-.58,.02-.89,.05l-.36,.04-.18-.31c-1.38-2.36-2.11-5.05-2.11-7.79,0-8.53,6.94-15.46,15.47-15.46s15.46,6.94,15.46,15.46-6.94,15.46-15.46,15.46Z"/><polygon class="cls-1" points="22.72 16.39 20.86 16.39 20.86 22.35 14.9 22.35 14.9 24.21 20.86 24.21 20.86 30.17 22.72 30.17 22.72 24.21 28.68 24.21 28.68 22.35 22.72 22.35 22.72 16.39"/><rect class="cls-1" x="46.2" y="32.78" width="1.86" height="1.86"/><rect class="cls-1" x="43.22" y="17.88" width="1.86" height="1.86"/><rect class="cls-1" x="49.18" y="17.88" width="1.86" height="1.86"/><path class="cls-1" d="M72.46,14.9c-1.33,0-2.42,1.09-2.42,2.42s1.09,2.42,2.42,2.42,2.42-1.08,2.42-2.42-1.08-2.42-2.42-2.42Z"/><path class="cls-1" d="M72.46,26.82c-1.33,0-2.42,1.08-2.42,2.42s1.09,2.42,2.42,2.42,2.42-1.08,2.42-2.42-1.08-2.42-2.42-2.42Z"/><path class="cls-1" d="M78.42,20.86c-1.33,0-2.42,1.08-2.42,2.42s1.09,2.42,2.42,2.42,2.42-1.08,2.42-2.42-1.08-2.42-2.42-2.42Z"/><path class="cls-1" d="M66.5,20.86c-1.33,0-2.42,1.08-2.42,2.42s1.09,2.42,2.42,2.42,2.42-1.08,2.42-2.42-1.08-2.42-2.42-2.42Z"/></g></g></svg>