<?xml version="1.0" encoding="UTF-8"?><svg id="Layer_2" xmlns="http://www.w3.org/2000/svg" viewBox="0 0 88.59 64.48"><defs><style>.cls-1{fill:#fff;}</style></defs><g id="work"><path class="cls-1" d="M86.95,43.45c-.71-1.16-1.62-2.13-2.68-2.89-.77-.55-1.61-.97-2.49-1.26l-.2-.06v-.21c.01-1.21-.35-2.38-1.04-3.39-.77-1.11-1.85-1.91-3.13-2.3l-.2-.06v-.21c.01-3.63-.54-7.08-1.63-10.23-1.01-2.92-2.5-5.62-4.42-8.02l-.12-.15,.09-.17c.35-.63,.51-1.35,.49-2.08-.04-1.08-.5-2.07-1.29-2.81-3.4-3.15-7.51-5.59-12.2-7.26-4.34-1.54-9.12-2.36-13.82-2.36s-9.49,.82-13.84,2.36c-4.7,1.67-8.81,4.11-12.21,7.26-.79,.73-1.25,1.73-1.29,2.81-.03,.73,.14,1.45,.49,2.08l.09,.17-.12,.15c-1.91,2.4-3.4,5.09-4.41,8-1.09,3.16-1.64,6.6-1.62,10.25v.21s-.2,.06-.2,.06c-1.28,.39-2.37,1.18-3.13,2.3-.68,.99-1.05,2.15-1.04,3.35v.21s-.19,.06-.19,.06c-.88,.29-1.72,.71-2.49,1.26-1.07,.76-1.97,1.73-2.68,2.89-1.45,2.35-1.97,5.21-1.44,8.05,.52,2.84,2.02,5.33,4.21,7.01,1.08,.83,2.27,1.41,3.54,1.74,.77,.2,1.56,.3,2.34,.3,.14,0,.29,0,.44-.01h.2s.07,.18,.07,.18c.87,2.27,3.08,3.8,5.51,3.8,.36,0,.72-.03,1.07-.1,1.55-.29,2.9-1.16,3.79-2.46,.9-1.3,1.23-2.87,.95-4.42-.06-.31-3.6-19.59-3.6-19.59-.29-1.55-1.16-2.9-2.46-3.79-.75-.51-1.57-.84-2.46-.98l-.24-.04v-.24c0-6.4,1.83-11.96,5.43-16.52l.14-.17,.2,.09c.52,.23,1.09,.36,1.66,.36,1.02,0,1.99-.38,2.74-1.08,5.13-4.75,12.62-7.47,20.57-7.47s15.41,2.72,20.54,7.47c.75,.69,1.72,1.07,2.74,1.07,.57,0,1.14-.12,1.66-.36l.2-.09,.14,.17c3.61,4.57,5.44,10.13,5.45,16.52v.24s-.24,.04-.24,.04c-.89,.13-1.71,.46-2.46,.98-1.3,.9-2.17,2.24-2.46,3.79-.03,.16-3.55,19.28-3.6,19.59-.29,1.55,.05,3.12,.95,4.42,.53,.76,1.2,1.38,2,1.82h0c.52,.31,1.63,.67,2.52,.73,.12,0,.23,.01,.34,.01,2.41,0,4.62-1.51,5.5-3.76l.07-.19h.2c.16,.02,.31,.02,.45,.02,.78,0,1.57-.1,2.34-.3,1.27-.33,2.46-.92,3.54-1.74,2.2-1.68,3.69-4.17,4.21-7.01,.52-2.84,0-5.7-1.44-8.05Zm-8.62,13.76c.05-.29,0-.58-.17-.82-.17-.24-.41-.4-.7-.45-.07-.01-.13-.02-.2-.02-.53,0-.98,.38-1.07,.89l-.45,2.44c-.16,.86-.62,1.64-1.29,2.2-.67,.55-1.51,.85-2.37,.85-.23,0-.45-.02-.68-.06-.98-.18-1.83-.73-2.39-1.55-.56-.82-.78-1.81-.6-2.79,.06-.31,3.6-19.59,3.6-19.59,.18-.98,.73-1.83,1.55-2.39,.63-.43,1.35-.66,2.11-.66,.23,0,.46,.02,.68,.06,.98,.18,1.83,.73,2.39,1.55,.56,.82,.78,1.81,.6,2.79l-2.19,11.9c-.11,.59,.28,1.16,.88,1.27,.07,.01,.13,.02,.2,.02,.53,0,.98-.38,1.07-.89l1.94-10.55,.32,.13c1.67,.68,3.06,2.01,3.92,3.75,.43,.86,.71,1.79,.84,2.76,.14,1.01,.11,2.04-.07,3.06-.19,1.02-.53,1.99-1.02,2.88-.47,.86-1.07,1.63-1.77,2.28-1.42,1.32-3.2,2.06-5,2.11h-.35s.22-1.17,.22-1.17ZM20.99,14.43c-.52,0-1.01-.21-1.36-.59-.34-.36-.51-.84-.49-1.33,.02-.49,.23-.95,.59-1.29,3.18-2.95,7.04-5.24,11.46-6.81,4.12-1.46,8.65-2.23,13.11-2.23s8.98,.77,13.09,2.23c4.42,1.57,8.27,3.86,11.45,6.81,.36,.34,.57,.79,.59,1.29,.02,.49-.16,.97-.49,1.33-.35,.38-.84,.59-1.36,.59-.47,0-.91-.18-1.26-.49-5.53-5.12-13.55-8.05-22.02-8.05s-16.52,2.94-22.05,8.05c-.34,.32-.79,.49-1.26,.49ZM10.44,56.39c-.17,.24-.23,.53-.17,.82l.21,1.13h-.35c-1.8-.05-3.57-.8-4.99-2.12-.7-.65-1.3-1.42-1.77-2.28-.49-.89-.83-1.86-1.02-2.88-.19-1.02-.21-2.05-.07-3.05,.13-.97,.42-1.9,.84-2.76,.86-1.73,2.25-3.06,3.91-3.75l.32-.13,1.95,10.59c.1,.52,.55,.89,1.07,.89,.07,0,.13,0,.2-.02,.59-.11,.98-.68,.88-1.27l-2.19-11.9c-.18-.98,.03-1.97,.6-2.79,.56-.82,1.41-1.37,2.39-1.55,.22-.04,.45-.06,.68-.06,.75,0,1.48,.23,2.11,.66,.82,.56,1.37,1.41,1.55,2.39,.03,.16,3.55,19.3,3.6,19.59,.18,.98-.03,1.97-.6,2.79-.56,.82-1.41,1.37-2.39,1.55-.22,.04-.45,.06-.67,.06-.86,0-1.7-.3-2.37-.85-.68-.56-1.14-1.34-1.29-2.2l-.45-2.44c-.1-.52-.55-.89-1.07-.89-.07,0-.13,0-.2,.02-.29,.05-.54,.21-.7,.45Z"/></g></svg>