<?xml version="1.0" encoding="UTF-8"?><svg id="Layer_2" xmlns="http://www.w3.org/2000/svg" viewBox="0 0 96.33 90"><defs><style>.cls-1{fill:#fff;}</style></defs><g id="work"><g><path class="cls-1" d="M39.97,65.11c-.45,0-.81,.36-.81,.81v8.87l-14.94-2.33v-16.98l11.98,1.87c.45,.07,.87-.24,.94-.69s-.24-.87-.69-.94l-12.92-2c-.44-.07-.86,.24-.93,.68,0,.04,0,.09,0,.13v18.63c0,.4,.29,.75,.68,.81l16.58,2.59h.12c.19,0,.38-.07,.53-.2,.18-.15,.28-.38,.28-.62v-9.83c0-.45-.36-.81-.81-.81Z"/><path class="cls-1" d="M69.88,79.66c-.08-.44-.5-.74-.94-.66-.03,0-.07,.01-.1,.02l-9.99,2.44c-.43,.1-.71,.52-.62,.96,.09,.37,.43,.63,.81,.62h.19l9.99-2.44c.44-.08,.74-.5,.66-.94Z"/><path class="cls-1" d="M73.6,74.69c-.45,0-.81,.36-.81,.81v2.55l-.81,.19c-.44,.11-.7,.55-.59,.98,.09,.38,.44,.64,.83,.62,.06,0,.13,0,.2,0l1.38-.33c.38-.09,.64-.43,.63-.81v-3.2c0-.45-.36-.81-.81-.81Z"/><path class="cls-1" d="M87.15,73.34h-8.73v-24.8l8.13-1.98c.44-.11,.7-.55,.6-.98-.05-.19-.16-.35-.31-.46l-8.23-5.95,8.13-5.6c.26-.18,.39-.5,.33-.81-.07-.33-.34-.57-.67-.63l-22.71-3.58,6.91-4.75c.37-.25,.47-.75,.23-1.13s-.75-.47-1.13-.23c0,0-.01,0-.02,.01l-8.33,5.69-5.36-.81,5.91-4.07c.38-.24,.5-.74,.26-1.12-.24-.38-.74-.5-1.12-.26-.02,.01-.05,.03-.07,.05l-7.32,5.02-6.75-1.06c-.21-.03-.42,.02-.59,.14l-8.57,5.9-8.74-5.02c-.18-.1-.39-.14-.59-.09L2.93,33.01c-.32,.08-.56,.34-.61,.67-.05,.33,.11,.65,.39,.81l8.28,4.88L.41,45.36c-.39,.22-.53,.72-.31,1.11,.12,.22,.34,.37,.59,.41l.02,.02,11.09,1.73v24.71H5.74c-.45,0-.81,.36-.81,.81s.36,.81,.81,.81h6.06v8.04c0,.41,.29,.75,.69,.81l39.51,6.17h.12c.06,0,.13,0,.2,0l25.48-6.17c.37-.09,.63-.43,.62-.81v-8.04h8.73c.45,0,.81-.36,.81-.81,0-.45-.36-.81-.81-.81ZM61.72,29.9l22.43,3.5-7.32,5.05-22.43-3.52,7.32-5.03Zm-14.75-2.31l4.73,.74-1.71,1.17c-.37,.25-.47,.76-.22,1.13,.15,.23,.41,.36,.69,.36,.16,0,.32-.05,.46-.15l3.13-2.16,5.35,.81-7.32,5.03-12.4-1.91,7.3-5.03ZM5.26,34.1l23.21-5.62,7.56,4.36-23.34,5.69-7.44-4.43Zm-1.99,11.55l9.5-5.42,36.94,5.78-9.51,5.4L3.27,45.65Zm48.06,42.58l-37.9-5.91V48.88l26.8,4.21h.12c.14,0,.28-.04,.41-.11l10.57-6v41.25h0Zm.76-43.49l-35.41-5.52,21.43-5.2,11.97,1.89-2.59,1.73c-.37,.25-.47,.76-.22,1.13,.15,.23,.41,.36,.69,.36,.16,0,.32-.05,.46-.15l4.01-2.74,21.01,3.3-21.35,5.2Zm24.69,37.64l-23.85,5.78V47.17l7.48,5.43c.19,.14,.44,.19,.67,.14l15.71-3.81v33.44Zm-15.72-31.28l-7.04-5.12,23.35-5.65,7.08,5.08-23.39,5.69Z"/><path class="cls-1" d="M96.31,.6v-.09c-.02-.07-.04-.13-.08-.19v-.06l-.07-.05s-.09-.09-.15-.12c-.08-.05-.17-.08-.26-.1h-.45L61.07,12.42c-.42,.15-.64,.62-.48,1.04,.1,.27,.33,.46,.61,.52l12.34,1.93v4.64c0,.31,.18,.6,.46,.73,.11,.05,.23,.08,.36,.08,.18,0,.36-.06,.5-.18l5.34-4.24,6.47,1.01h.12c.3,0,.58-.17,.72-.44L96.23,1.11c.04-.07,.07-.15,.08-.24,.02-.09,.02-.19,0-.28Zm-22.11,13.76l-9.61-1.5L89.78,3.7l-15.58,10.66Zm.95,4.5v-2.69l2.85,.44-2.85,2.25Zm11.25-2.59l-9.84-1.54L93.29,3.27l-6.88,13Z"/><path class="cls-1" d="M43.23,56.1c-.34-.3-.85-.27-1.15,.07h-.04l-11.15,12.53-2.85-3.79c-.27-.36-.78-.43-1.14-.16s-.43,.78-.16,1.14c0,0,0,0,0,0l3.44,4.59c.15,.2,.37,.32,.62,.33,.23,0,.45-.1,.61-.27l11.89-13.28c.3-.34,.27-.85-.07-1.15Z"/><path class="cls-1" d="M68.23,17.99c-.25-.37-.75-.47-1.13-.23,0,0-.01,0-.02,.01l-1.88,1.29c-.37,.26-.46,.76-.2,1.13,.15,.22,.4,.35,.67,.35,.16,0,.32-.05,.46-.14l1.88-1.29c.37-.25,.47-.75,.23-1.13Z"/><path class="cls-1" d="M80.54,23.01c-.22-.39-.72-.53-1.11-.31-.04,.02-.08,.05-.12,.08l-2.97,2.03c-.39,.22-.53,.72-.31,1.11s.72,.53,1.11,.31c.04-.02,.08-.05,.12-.08l2.97-2.03c.39-.22,.53-.72,.31-1.11Z"/><path class="cls-1" d="M92.66,73.34h-1.46c-.45,0-.81,.36-.81,.81s.36,.81,.81,.81h1.46c.45,0,.81-.36,.81-.81s-.36-.81-.81-.81Z"/></g></g></svg>