<?xml version="1.0" encoding="UTF-8"?><svg id="Layer_2" xmlns="http://www.w3.org/2000/svg" viewBox="0 0 79.65 79.48"><defs><style>.cls-1{fill:#fff;}</style></defs><g id="work"><path class="cls-1" d="M77.94,2.8V19.29c0,.47,.38,.86,.86,.86s.86-.38,.86-.86V2.8c0-1.54-1.26-2.8-2.8-2.8H32.49c-1.54,0-2.8,1.26-2.8,2.8V29.52H2.8c-1.54,0-2.8,1.26-2.8,2.8v44.36c0,1.54,1.26,2.8,2.8,2.8H47.16c1.54,0,2.8-1.26,2.8-2.8v-20.7c0-.47-.38-.86-.86-.86s-.85,.38-.86,.85v13.39s-10.74-12.1-10.74-12.1c-.28-.31-.67-.49-1.11-.5-.4,0-.79,.16-1.07,.44l-6.6,6.59-8.78-9.89c-.28-.31-.68-.49-1.12-.5-.39,0-.78,.16-1.06,.44L1.71,69.89V32.32c0-.6,.49-1.09,1.09-1.09H47.16c.6,0,1.09,.49,1.09,1.09v17.64h28.6c1.54,0,2.8-1.26,2.8-2.8V26.46c0-.47-.38-.86-.86-.86s-.86,.38-.86,.86v13.39l-10.74-12.1c-.28-.31-.67-.49-1.11-.5-.4,0-.79,.16-1.07,.44l-6.6,6.59-8.78-9.9c-.28-.31-.67-.49-1.12-.5-.39,0-.78,.16-1.06,.44l-5.21,5.2h-10.85V2.8c0-.6,.49-1.09,1.09-1.09h44.36c.6,0,1.09,.49,1.09,1.09ZM1.76,72.26l17.06-17.05,9.06,10.25c.04,.09,.1,.17,.17,.23,.04,.04,.08,.08,.15,.12l.09,.07,2.09,2.35c.3,.34,.87,.38,1.21,.07,.17-.15,.27-.36,.29-.59s-.06-.45-.21-.62l-1.79-2.02,6.51-6.51,11.87,13.38v4.73c0,.6-.49,1.09-1.09,1.09H2.8c-.6,0-1.09-.49-1.09-1.09v-4.37l.05-.05ZM48.51,25.69l9.06,10.25c.04,.09,.1,.17,.17,.23,.04,.04,.09,.08,.15,.12l.1,.07,2.09,2.36c.3,.34,.87,.38,1.21,.07,.17-.15,.27-.36,.29-.59s-.06-.45-.21-.62l-1.79-2.02,6.51-6.51,11.87,13.38v4.73c0,.6-.49,1.09-1.09,1.09h-26.89v-15.93c0-1.54-1.26-2.8-2.8-2.8h-2.49l3.83-3.83Z"/></g></svg>