<?xml version="1.0" encoding="UTF-8"?><svg id="Layer_2" xmlns="http://www.w3.org/2000/svg" viewBox="0 0 101.44 79.43"><defs><style>.cls-1{fill:#fff;}</style></defs><g id="work"><g><path class="cls-1" d="M87.91,24.93h-21.95V13.53c0-7.46-6.07-13.53-13.53-13.53H13.53C6.07,0,0,6.07,0,13.53V30.85c0,7.3,5.93,13.36,13.22,13.53l1.24,.03-.04,1.24c-.05,1.73-.25,3.66-.58,5.75-.15,.95,.2,1.88,.94,2.49,.49,.41,1.09,.62,1.72,.62,.31,0,.62-.05,.93-.16,2.65-.95,7.46-3.4,9.92-9.22l.32-.75h16.66v11.4c0,7.46,6.07,13.53,13.53,13.53h15.92l.32,.75c2.46,5.81,7.27,8.27,9.92,9.22,.3,.11,.61,.16,.92,.16,.63,0,1.22-.22,1.72-.63,.74-.61,1.09-1.54,.94-2.49-.33-2.08-.52-4.02-.58-5.75l-.04-1.24,1.24-.03c7.29-.16,13.22-6.23,13.22-13.53v-17.32c0-7.46-6.07-13.53-13.53-13.53Zm11.92,30.85c0,6.58-5.35,11.93-11.92,11.93h-1.69c-.43,0-.78,.34-.8,.77-.09,2.27,.1,4.91,.56,7.87l.32,2.07-1.96-.73c-3.16-1.18-7.31-3.77-9.21-9.43-.11-.33-.41-.55-.76-.55h-16.51c-6.58,0-11.92-5.35-11.92-11.93v-17.32c0-2.03,.52-4.03,1.5-5.79,.22-.39,.08-.88-.31-1.09-.12-.07-.25-.1-.39-.1-.29,0-.56,.16-.7,.41-1.11,2-1.7,4.27-1.7,6.57v4.32H27.08c-.35,0-.65,.22-.76,.55-1.89,5.67-6.05,8.26-9.21,9.43l-1.96,.73,.32-2.07c.45-2.96,.64-5.6,.56-7.87-.02-.43-.37-.77-.8-.77h-1.69c-6.58,0-11.92-5.35-11.92-11.93V13.53C1.6,6.95,6.95,1.6,13.53,1.6H52.44c6.58,0,11.92,5.35,11.92,11.93v11.4h-4.1c-.44,0-.8,.36-.8,.8s.36,.8,.8,.8h27.66c6.58,0,11.92,5.35,11.92,11.93v17.32Z"/><path class="cls-1" d="M40.9,12.68h-8.97v-4.27c0-.44-.36-.8-.8-.8s-.8,.36-.8,.8v4.27h-8.97c-.44,0-.8,.36-.8,.8s.36,.8,.8,.8h14.99l-.34,1.5c-.42,1.85-1.44,4.74-3.89,7.96l-.98,1.28-.98-1.28c-1.05-1.38-1.93-2.82-2.61-4.27-.13-.28-.42-.46-.73-.46-.12,0-.23,.02-.34,.08-.19,.09-.34,.25-.41,.45s-.06,.42,.03,.61c.82,1.76,1.92,3.5,3.25,5.15l.7,.87-.8,.78c-2.21,2.14-4.89,4.1-7.98,5.83-.19,.1-.32,.28-.38,.48-.06,.21-.03,.42,.07,.61,.14,.25,.41,.41,.7,.41,.14,0,.27-.03,.39-.1,3.17-1.78,5.94-3.8,8.23-6l.85-.82,.85,.82c2.3,2.21,5.06,4.23,8.22,6,.12,.07,.25,.1,.39,.1,.29,0,.56-.16,.7-.41,.22-.39,.08-.88-.31-1.09-3.07-1.72-5.75-3.68-7.96-5.83l-.8-.78,.7-.87c3.41-4.24,4.47-8.09,4.81-10.01l.18-1.02h2.99c.44,0,.8-.36,.8-.8s-.36-.8-.8-.8Z"/><path class="cls-1" d="M52.08,26.31c-.44,0-.8,.36-.8,.8s.36,.8,.8,.8,.8-.36,.8-.8-.36-.8-.81-.8Z"/><path class="cls-1" d="M72.68,33.03c-7.95,0-14.42,6.47-14.42,14.42s6.47,14.42,14.42,14.42,14.42-6.47,14.42-14.42-6.47-14.42-14.42-14.42Zm-12.92,14.42c0-7.13,5.8-12.92,12.92-12.92,3.29,0,6.29,1.25,8.58,3.28l-18.22,18.22c-2.04-2.29-3.28-5.29-3.28-8.58Zm12.92,12.92c-3.29,0-6.29-1.25-8.58-3.28l18.22-18.22c2.04,2.29,3.28,5.29,3.28,8.58,0,7.13-5.8,12.92-12.92,12.92Z"/></g></g></svg>