<?xml version="1.0" encoding="UTF-8"?><svg id="Layer_2" xmlns="http://www.w3.org/2000/svg" viewBox="0 0 80.75 80.77"><defs><style>.cls-1{fill:#fff;}</style></defs><g id="work"><g><path class="cls-1" d="M68.97,49.43c-.49,0-.88-.4-.88-.88s.4-.88,.88-.88h10.01v-14.58h-9.78c-.39,0-.74-.26-.85-.64-.61-2.17-1.48-4.27-2.59-6.23-.19-.34-.14-.78,.14-1.06l6.92-6.92-10.32-10.31-6.92,6.93c-.17,.17-.39,.26-.62,.26-.15,0-.3-.04-.43-.11-1.97-1.11-4.06-1.98-6.23-2.59-.38-.11-.64-.46-.64-.85V1.76h-14.58V11.54c0,.39-.26,.74-.64,.85-2.17,.61-4.27,1.48-6.23,2.59-.13,.08-.28,.11-.43,.11-.24,0-.46-.09-.62-.26l-6.92-6.92L7.91,18.23l6.93,6.92c.28,.28,.34,.71,.14,1.06-1.11,1.97-1.98,4.06-2.59,6.23-.11,.38-.46,.64-.85,.64H1.76v14.58H11.54c.49,0,.88,.4,.88,.88s-.4,.88-.88,.88H.88c-.49,0-.88-.4-.88-.88v-16.34c0-.49,.4-.88,.88-.88H10.88l.11-.33c.52-1.63,1.18-3.23,1.97-4.75l.16-.31-7.08-7.07c-.34-.34-.34-.9,0-1.25L17.61,6.05c.17-.17,.39-.26,.62-.26s.46,.09,.62,.26l7.08,7.08,.31-.16c1.52-.79,3.12-1.45,4.75-1.97l.34-.11V.88c0-.49,.4-.88,.88-.88h16.34c.49,0,.88,.4,.88,.88V10.88l.34,.11c1.63,.52,3.23,1.18,4.75,1.97l.31,.16,7.08-7.08c.17-.17,.39-.26,.62-.26s.46,.09,.62,.26l11.56,11.56c.34,.34,.34,.9,0,1.25l-7.08,7.07,.16,.31c.79,1.52,1.45,3.12,1.97,4.75l.11,.33h10c.49,0,.88,.4,.88,.88v16.34c0,.49-.4,.88-.88,.88h-10.89Z"/><path class="cls-1" d="M73.06,80.77c-2.26,0-4.24-1.53-4.81-3.73-.33-1.28-.14-2.62,.53-3.76,.67-1.14,1.75-1.96,3.04-2.29l.36-.09v-9.64l-9.16-6.55c-.23-.17-.37-.43-.37-.72v-13.62c0-12.28-9.99-22.27-22.27-22.27s-22.27,9.99-22.27,22.27v13.62c0,.28-.14,.55-.37,.72l-9.16,6.54v9.64l.36,.09c1.75,.45,3.12,1.82,3.57,3.57,.68,2.65-.92,5.37-3.57,6.05-.41,.11-.83,.16-1.25,.16-2.26,0-4.24-1.53-4.81-3.73-.33-1.28-.14-2.62,.53-3.76,.67-1.14,1.75-1.96,3.04-2.29l.36-.09v-10.1c0-.29,.14-.55,.37-.72l9.16-6.54v-13.16c0-13.25,10.78-24.03,24.03-24.03s24.03,10.78,24.03,24.03v13.16l9.16,6.55c.23,.17,.37,.43,.37,.72v10.1l.36,.09c1.75,.45,3.12,1.82,3.57,3.57,.68,2.65-.92,5.37-3.57,6.05-.41,.11-.83,.16-1.24,.16h0Zm0-8.19c-1.77,0-3.2,1.44-3.2,3.2s1.44,3.2,3.2,3.2,3.2-1.44,3.2-3.2-1.44-3.2-3.2-3.2Zm-65.37,0c-1.77,0-3.2,1.44-3.2,3.2s1.44,3.2,3.2,3.2,3.2-1.44,3.2-3.2-1.44-3.2-3.2-3.2Z"/><path class="cls-1" d="M55.35,69.88c-2.26,0-4.24-1.53-4.81-3.73-.68-2.65,.92-5.37,3.57-6.05l.36-.09v-19.63c0-7.77-6.32-14.1-14.1-14.1s-14.1,6.33-14.1,14.1v19.63l.36,.09c1.75,.45,3.12,1.82,3.57,3.57,.33,1.28,.14,2.62-.53,3.76-.67,1.14-1.75,1.96-3.04,2.29-.41,.11-.83,.16-1.25,.16-2.26,0-4.24-1.53-4.81-3.73-.68-2.65,.92-5.37,3.57-6.05l.36-.09v-19.63c0-8.75,7.12-15.86,15.86-15.86s15.86,7.12,15.86,15.86v19.63l.36,.09c1.75,.45,3.12,1.82,3.57,3.57,.33,1.28,.14,2.62-.53,3.76-.67,1.14-1.75,1.96-3.04,2.29-.41,.11-.83,.16-1.25,.16h0Zm0-8.19c-1.77,0-3.2,1.44-3.2,3.2s1.44,3.2,3.2,3.2,3.2-1.44,3.2-3.2-1.44-3.2-3.2-3.2Zm-29.96,0c-1.77,0-3.2,1.44-3.2,3.2s1.44,3.2,3.2,3.2,3.2-1.44,3.2-3.2-1.44-3.2-3.2-3.2Z"/><path class="cls-1" d="M40.37,80.77c-2.26,0-4.24-1.53-4.81-3.73-.33-1.28-.14-2.62,.53-3.76,.67-1.14,1.75-1.96,3.04-2.29l.36-.09v-22.36c0-.49,.4-.88,.88-.88s.88,.4,.88,.88v22.36l.36,.09c1.75,.45,3.12,1.82,3.57,3.57,.68,2.65-.92,5.37-3.57,6.05-.41,.11-.83,.16-1.24,.16h0Zm0-8.19c-1.77,0-3.2,1.44-3.2,3.2s1.44,3.2,3.2,3.2,3.2-1.44,3.2-3.2-1.44-3.2-3.2-3.2Z"/><path class="cls-1" d="M40.38,48.07c-4.24,0-7.69-3.45-7.69-7.69s3.45-7.69,7.69-7.69c4.24,0,7.69,3.45,7.69,7.69,0,4.24-3.45,7.69-7.69,7.69Zm0-13.62c-3.27,0-5.93,2.66-5.93,5.93s2.66,5.93,5.93,5.93,5.93-2.66,5.93-5.93-2.66-5.93-5.93-5.93Z"/><rect class="cls-1" x="39.49" y="5.45" width="1.76" height="1.76"/><rect class="cls-1" x="15.42" y="15.42" width="1.76" height="1.76" transform="translate(-6.75 16.3) rotate(-45)"/><rect class="cls-1" x="5.45" y="39.49" width="1.76" height="1.76"/><rect class="cls-1" x="73.54" y="39.49" width="1.76" height="1.76"/><rect class="cls-1" x="63.56" y="15.42" width="1.76" height="1.76" transform="translate(7.35 50.35) rotate(-45.01)"/></g></g></svg>