<?xml version="1.0" encoding="UTF-8"?><svg id="Layer_2" xmlns="http://www.w3.org/2000/svg" viewBox="0 0 88.88 88.88"><defs><style>.cls-1{fill:#fff;}</style></defs><g id="work"><g><path class="cls-1" d="M8.55,88.88c-4.71,0-8.54-3.84-8.55-8.55V8.55C0,3.84,3.84,0,8.55,0H80.34c4.71,0,8.54,3.84,8.55,8.55V80.34c0,4.71-3.84,8.54-8.55,8.55H8.55ZM8.55,1.98C4.93,1.98,1.98,4.93,1.98,8.55V80.34c0,3.62,2.95,6.57,6.57,6.57H80.34c3.62,0,6.57-2.95,6.57-6.57V8.55c0-3.62-2.95-6.57-6.57-6.57H8.55Z"/><rect class="cls-1" x="7.56" y="15.11" width="73.77" height="1.98"/><rect class="cls-1" x="9.45" y="7.56" width="1.98" height="1.98"/><rect class="cls-1" x="17" y="7.56" width="1.98" height="1.98"/><rect class="cls-1" x="77.46" y="7.56" width="1.98" height="1.98"/><path class="cls-1" d="M8.55,41.65c-.55,0-.99-.44-.99-.99v-15.11c0-.55,.44-.99,.99-.99H27.44c.55,0,.99,.44,.99,.99v15.11c0,.55-.44,.99-.99,.99H8.55Zm.99-1.98H26.45v-13.13H9.54v13.13Z"/><path class="cls-1" d="M61.44,41.65c-.55,0-.99-.44-.99-.99v-15.11c0-.55,.44-.99,.99-.99h18.89c.55,0,.99,.44,.99,.99v15.11c0,.55-.44,.99-.99,.99h-18.89Zm.99-1.98h16.91v-13.13h-16.91v13.13Z"/><path class="cls-1" d="M35,41.65c-.55,0-.99-.44-.99-.99v-15.11c0-.55,.44-.99,.99-.99h18.89c.55,0,.99,.44,.99,.99v15.11c0,.55-.44,.99-.99,.99h-18.89Zm.99-1.98h16.91v-13.13h-16.91v13.13Z"/><rect class="cls-1" x="7.56" y="47.23" width="11.43" height="1.98"/><rect class="cls-1" x="34.01" y="47.23" width="11.43" height="1.98"/><rect class="cls-1" x="60.45" y="47.23" width="11.43" height="1.98"/><rect class="cls-1" x="18.89" y="77.46" width="1.98" height="1.98"/><rect class="cls-1" x="26.45" y="77.46" width="1.98" height="1.98"/><rect class="cls-1" x="45.34" y="77.46" width="1.98" height="1.98"/><rect class="cls-1" x="52.9" y="77.46" width="1.98" height="1.98"/><rect class="cls-1" x="71.79" y="77.46" width="1.98" height="1.98"/><rect class="cls-1" x="79.35" y="77.46" width="1.98" height="1.98"/><rect class="cls-1" x="7.56" y="54.79" width="20.87" height="1.98"/><rect class="cls-1" x="7.56" y="62.34" width="20.87" height="1.98"/><rect class="cls-1" x="7.56" y="69.9" width="20.87" height="1.98"/><rect class="cls-1" x="34.01" y="54.79" width="20.87" height="1.98"/><rect class="cls-1" x="34.01" y="62.34" width="20.87" height="1.98"/><rect class="cls-1" x="34.01" y="69.9" width="20.87" height="1.98"/><rect class="cls-1" x="60.45" y="54.79" width="20.87" height="1.98"/><rect class="cls-1" x="60.45" y="62.34" width="20.87" height="1.98"/><rect class="cls-1" x="60.45" y="69.9" width="20.87" height="1.98"/></g></g></svg>