<?xml version="1.0" encoding="UTF-8"?><svg id="Layer_2" xmlns="http://www.w3.org/2000/svg" viewBox="0 0 87 87.81"><defs><style>.cls-1{fill:#fff;}</style></defs><g id="work"><g><path class="cls-1" d="M86.25,83.19H3.81V.75c0-.41-.33-.75-.75-.75s-.75,.33-.75,.75V10.19H.75c-.41,0-.75,.33-.75,.75s.33,.75,.75,.75h1.57V28.45H.75c-.41,0-.75,.33-.75,.75s.33,.75,.75,.75h1.57v16.75H.75c-.41,0-.75,.33-.75,.75s.33,.75,.75,.75h1.57v16.75H.75c-.41,0-.75,.33-.75,.75s.33,.75,.75,.75h1.57v16.76H.75c-.41,0-.75,.33-.75,.75s.33,.75,.75,.75h1.59s0,.04,0,.07v2.31c0,.41,.33,.75,.75,.75s.75-.33,.75-.75v-2.38H20.58v2.38c0,.41,.33,.75,.75,.75s.75-.33,.75-.75v-2.31s0-.04,0-.07h16.75v2.38c0,.41,.33,.75,.75,.75s.75-.33,.75-.75v-2.38h16.76s0,.04,0,.07v2.31c0,.41,.33,.75,.75,.75s.75-.33,.75-.75v-2.38h16.78v2.38c0,.41,.33,.75,.75,.75s.75-.33,.75-.75v-2.38h9.46c.39-.03,.69-.35,.69-.75,0-.41-.33-.75-.75-.75Z"/><path class="cls-1" d="M84.36,26.58s0,0,0,0h.14c.36,0,.68-.25,.75-.61l.75-4.09c.04-.21,0-.42-.13-.59-.13-.17-.32-.27-.54-.29l-4.01-.34c-.41-.03-.77,.27-.81,.69s.27,.77,.69,.81l2.15,.18-10.49,8.26c-1.42-1.27-3.54-1.4-5.09-.29l-2.92-3.1c1.36-1.83,.98-4.41-.85-5.77-1.83-1.36-4.41-.98-5.77,.85-.97,1.3-1.08,3.05-.29,4.47l-16.7,13.77-3.55-3.73c.48-.69,.75-1.51,.75-2.36,0-2.28-1.85-4.13-4.13-4.13s-4.13,1.85-4.13,4.13c0,.69,.17,1.37,.51,1.97l-2.29,1.88c-1.4-1.24-3.45-1.38-5-.35L9.54,21.53c-.27-.32-.74-.36-1.05-.09-.32,.27-.36,.74-.09,1.05l13.9,16.4c-.5,.7-.76,1.54-.75,2.4-.1,2.28,1.67,4.21,3.95,4.3,2.28,.1,4.21-1.67,4.3-3.95,0-.12,0-.23,0-.35,0-.65-.17-1.29-.48-1.87l2.24-1.88c1.42,1.21,3.47,1.33,5.01,.28l3.46,3.65-17.01,14.03H8.66c-.41,0-.75,.33-.75,.75s.33,.75,.75,.75h12.56l-12.72,10.44c-.32,.25-.38,.72-.13,1.05,0,.01,.02,.02,.03,.03,.14,.17,.35,.27,.57,.27,.17,0,.34-.06,.47-.16l14.12-11.62h8.08c.56,2.21,2.8,3.54,5.01,2.98,.33-.08,.65-.21,.95-.37l4.17,5.09c-1.55,1.67-1.46,4.28,.21,5.83,1.67,1.55,4.28,1.46,5.83-.21,.54-.58,.89-1.29,1.04-2.07h5.97c.49,2.22,2.68,3.63,4.91,3.15,2.22-.49,3.63-2.68,3.15-4.91-.07-.33-.18-.65-.33-.95l8.86-7.55,9.38,8.77h-2.24c-.41,0-.75,.33-.75,.75s.33,.75,.75,.75h4.09c.1,0,.2-.02,.29-.05,.08-.04,.16-.09,.22-.16,.02-.03,.04-.06,.05-.1,.04-.04,.07-.09,.09-.14,0-.05,0-.11,0-.16v-3.84c0-.41-.33-.75-.75-.75s-.75,.33-.75,.75v2.04l-9.22-8.83,11.69-9.97v2.46c0,.41,.33,.75,.75,.75s.75-.33,.75-.75v-4c.01-.13,0-.26-.06-.37-.03-.06-.06-.12-.1-.18h-.04c-.06-.05-.12-.09-.19-.13h-.08c-.06-.01-.13-.01-.19,0h-3.86c-.41,0-.75,.33-.75,.75s.33,.75,.75,.75h1.74l-11.52,9.67-8.02-7.46c1.19-1.94,.57-4.48-1.37-5.67-1.94-1.19-4.48-.57-5.67,1.37-.39,.65-.6,1.39-.6,2.14,0,.61,.13,1.22,.39,1.77l-1.86,1.41c-1.37-1.24-3.4-1.41-4.96-.42l-7.11-7.51,16.63-13.69c1.38,1.16,3.35,1.28,4.87,.31l2.98,3.14c-1.28,1.89-.8,4.45,1.09,5.74,1.89,1.28,4.45,.8,5.74-1.09,.86-1.26,.95-2.9,.24-4.25l10.44-8.16-.47,2.1c-.08,.4,.19,.79,.59,.87ZM25.65,44c-1.46,0-2.64-1.17-2.65-2.63s1.17-2.64,2.63-2.65c1.46,0,2.64,1.17,2.65,2.63h0c0,1.46-1.18,2.64-2.63,2.65Zm8.61-6.95h0c-1.44-.02-2.6-1.19-2.61-2.63h-.03c0-1.46,1.17-2.64,2.63-2.65,1.46,0,2.64,1.17,2.65,2.63s-1.17,2.64-2.63,2.65Zm1.36,21.56h0c-1.44-.02-2.61-1.19-2.6-2.64h-.03c0-1.46,1.18-2.64,2.64-2.64s2.64,1.18,2.64,2.64c0,1.46-1.18,2.64-2.64,2.64Zm9.19,11.51h-.03c-1.46,.01-2.64-1.17-2.64-2.62s1.18-2.64,2.64-2.64,2.64,1.18,2.64,2.64c0,1.44-1.17,2.61-2.61,2.62Zm14.11,0h-.03c-1.46,.01-2.64-1.17-2.64-2.62s1.18-2.64,2.64-2.64,2.64,1.18,2.64,2.64c-.01,1.44-1.17,2.6-2.61,2.62Zm.98-26.44c1.46,0,2.64,1.18,2.64,2.64s-1.18,2.64-2.64,2.64-2.64-1.18-2.64-2.64,1.18-2.64,2.64-2.64Zm-8.34,6.27h0c1.45,0,2.63,1.18,2.63,2.63h0c0,1.47-1.18,2.65-2.64,2.65s-2.64-1.18-2.64-2.64c0-1.46,1.18-2.64,2.64-2.64Zm-3.33,.18c-1.36,1.83-.98,4.41,.85,5.77,1.83,1.36,4.41,.98,5.77-.85,.93-1.26,1.07-2.93,.36-4.33l1.84-1.39c1.47,1.38,3.74,1.5,5.34,.26l7.93,7.35-8.7,7.46c-1.73-1.47-4.33-1.26-5.8,.47-.46,.55-.78,1.2-.91,1.91h-5.97c-.4-2.25-2.55-3.74-4.79-3.34-.38,.07-.74,.19-1.09,.36l-4.21-5.14c1.42-1.78,1.12-4.38-.66-5.79-1.78-1.42-4.38-1.12-5.79,.66-.45,.57-.75,1.25-.85,1.97h-6.19l15.71-12.94,7.15,7.58Zm13.29-22.73c-1.46,0-2.64-1.17-2.65-2.63h0c0-1.47,1.18-2.64,2.63-2.65,1.46,0,2.64,1.17,2.65,2.63,0,1.46-1.17,2.64-2.63,2.65Zm8.6,8.93c-1.46,0-2.64-1.17-2.65-2.63s1.17-2.64,2.63-2.65h0c1.45,0,2.63,1.18,2.64,2.63,0,1.46-1.17,2.64-2.63,2.65Z"/></g></g></svg>