<?xml version="1.0" encoding="UTF-8"?><svg id="Layer_2" xmlns="http://www.w3.org/2000/svg" viewBox="0 0 70.06 80"><defs><style>.cls-1{fill:#fff;}</style></defs><g id="work"><g><path class="cls-1" d="M52.52,3.46c-.36,0-.65,.29-.65,.65v1.96H27.07v-1.96c0-.36-.29-.65-.65-.65s-.65,.29-.65,.65v2.61c0,.36,.29,.65,.65,.65h26.1c.36,0,.65-.29,.65-.65v-2.61c0-.36-.29-.65-.65-.65Z"/><path class="cls-1" d="M69.41,2.85h-12.05V.65c0-.36-.29-.65-.65-.65H22.25c-.36,0-.65,.29-.65,.65V2.85H9.58c-.36,0-.65,.29-.65,.65V41.05C.9,45.13-2.31,54.95,1.77,62.98c1.57,3.08,4.07,5.59,7.16,7.16v9.21c0,.36,.29,.65,.65,.65h59.82c.36,0,.65-.29,.65-.65V3.5c0-.36-.29-.65-.65-.65ZM22.91,1.32H56.05V9.57H22.91V1.32Zm-.65,9.56H56.7c.36,0,.65-.29,.65-.65v-2.77h6.39V61.94h-11.21c-.36,0-.65,.29-.65,.65v11.23H15.19v-1.92c.39,0,.79,.05,1.19,.05,9.03,0,16.36-7.32,16.37-16.35,0-1.9-.33-3.79-.98-5.58h15.05c.36,0,.65-.29,.65-.65s-.29-.65-.65-.65h-15.61c-.87-1.88-2.09-3.57-3.6-4.99l.52-.79h26.79c.36,0,.65-.29,.65-.65s-.29-.65-.65-.65H28.99c.2-.3,.12-.71-.18-.9,0,0,0,0,0,0l-3.15-2.06c-.14-.09-.32-.13-.49-.09-.17,.04-.32,.14-.41,.28l-1.31,2c-1.45-.69-2.98-1.16-4.57-1.41v-2.23h.59c1.08,0,1.96-.88,1.96-1.96v-.08c0-1.08-.88-1.96-1.96-1.96h-4.29V7.45h6.41v2.77c0,.36,.29,.65,.65,.65ZM62.82,63.24l-9.66,9.66v-9.66h9.66ZM27.53,41.46l-.91,1.4c-.64-.52-1.32-.98-2.04-1.4l.88-1.35,2.06,1.34Zm-14.28-5.56c-.36,0-.65-.29-.65-.65v-.07c0-.36,.29-.65,.65-.65h6.25c.36,0,.65,.29,.65,.65v.07c0,.36-.29,.65-.65,.65h-6.25Zm4.35,1.31v2.08c-.4,0-.82-.05-1.23-.05s-.82,0-1.23,.05v-2.08h2.46ZM10.23,4.15h11.37v2h-7.07c-.36,0-.65,.29-.65,.65v26.41h-.65c-1.08,0-1.96,.88-1.96,1.96v.07c0,1.08,.88,1.96,1.96,1.96h.59v2.23c-1.23,.2-2.43,.55-3.58,1.02V4.15ZM1.33,55.6c.01-8.31,6.76-15.05,15.07-15.03,8.31,.01,15.05,6.76,15.03,15.07-.01,8.31-6.75,15.03-15.05,15.03-8.32-.01-15.05-6.76-15.05-15.07Zm67.41,23.1H10.23v-7.95c1.18,.48,2.41,.83,3.67,1.02v2.71c0,.36,.29,.65,.65,.65H52.53c.08,0,.17-.01,.25-.05,.08-.03,.15-.08,.22-.14l11.88-11.88c.05-.05,.09-.12,.12-.18v-.07c0-.06,0-.11,0-.17,0-.01,0-.03,0-.04V6.8c0-.36-.29-.65-.65-.65h-7v-2h11.38V78.69Z"/><path class="cls-1" d="M54.92,48.72h-3.42c-.36,0-.65,.29-.65,.65s.29,.65,.65,.65h3.42c.36,0,.65-.29,.65-.65s-.29-.65-.65-.65Z"/><path class="cls-1" d="M54.92,27.46H24.03c-.36,0-.65,.29-.65,.65s.29,.65,.65,.65h30.89c.36,0,.65-.29,.65-.65s-.29-.65-.65-.65Z"/><path class="cls-1" d="M54.92,34.55H24.03c-.36,0-.65,.29-.65,.65s.29,.65,.65,.65h30.89c.36,0,.65-.29,.65-.65s-.29-.65-.65-.65Z"/><path class="cls-1" d="M26.77,51.03c-.13-.34-.5-.51-.84-.38-.02,0-.04,.02-.06,.03l-8.55,3.74c-.26-.23-.59-.35-.94-.35-.82-.05-1.52,.56-1.58,1.38-.05,.82,.56,1.52,1.38,1.58,.07,0,.13,0,.2,0h0c.79,0,1.43-.62,1.47-1.41l8.54-3.74c.34-.13,.51-.5,.38-.84Z"/><path class="cls-1" d="M25.82,46.18v-.04c-5.21-5.19-13.64-5.19-18.85,0v.03c-5.19,5.21-5.19,13.64,0,18.85h0c5.21,5.19,13.64,5.19,18.85,0,5.19-5.21,5.19-13.64,0-18.85Zm-.47,17.44l-1.24-1.23c-.23-.27-.65-.31-.92-.07-.27,.23-.31,.65-.07,.92,.02,.03,.05,.05,.07,.07l1.23,1.24c-2.04,1.84-4.65,2.92-7.39,3.07v-1.75c0-.36-.29-.65-.65-.65s-.65,.29-.65,.65v1.75c-2.74-.15-5.35-1.23-7.4-3.07l1.25-1.27c.25-.25,.25-.67,0-.92-.25-.25-.67-.25-.92,0l-1.23,1.23c-1.84-2.04-2.92-4.65-3.07-7.39h1.75c.36,0,.65-.29,.65-.65s-.29-.65-.65-.65h-1.75c.14-2.75,1.23-5.36,3.07-7.4l1.23,1.24c.12,.12,.29,.19,.46,.19,.17,0,.34-.07,.46-.19,.24-.25,.24-.65,0-.9l-1.23-1.23c2.04-1.84,4.65-2.92,7.4-3.07v1.75c0,.36,.29,.65,.65,.65s.65-.29,.65-.65v-1.77c2.74,.15,5.35,1.23,7.39,3.07l-1.25,1.26c-.26,.25-.26,.67,0,.92,.25,.26,.67,.26,.92,0l1.24-1.24c1.84,2.04,2.92,4.66,3.07,7.4h-1.76c-.36,0-.65,.29-.65,.65s.29,.65,.65,.65h1.76c-.15,2.74-1.23,5.35-3.07,7.39Z"/></g></g></svg>