<?xml version="1.0" encoding="UTF-8"?><svg id="Layer_2" xmlns="http://www.w3.org/2000/svg" viewBox="0 0 99.2 82"><defs><style>.cls-1{fill:#fff;}</style></defs><g id="work"><g><path class="cls-1" d="M50.48,82h32.85c2.43,0,4.4-1.98,4.4-4.41v-21.63c0-2.19-1.6-4.04-3.76-4.36v-7.81c0-2.55-.57-5.07-1.68-7.37-.19-.39-.65-.56-1.04-.37,0,0,0,0,0,0-.4,.17-.58,.63-.4,1.03,0,0,0,0,0,.01,1.02,2.08,1.55,4.37,1.56,6.69v7.81h-3.51v-7.81c0-6.62-5.36-11.98-11.98-11.98s-11.98,5.36-11.98,11.98v7.81h-3.48v-7.81c-.02-8.53,6.88-15.46,15.42-15.48,3.93,0,7.72,1.48,10.59,4.17,.35,.25,.84,.16,1.09-.2,.2-.29,.18-.67-.04-.94-6.88-6.4-17.64-6.02-24.04,.86-2.92,3.14-4.55,7.27-4.56,11.57v7.81c-2.17,.3-3.79,2.16-3.8,4.36v21.63c-.02,2.43,1.94,4.42,4.37,4.44,0,0,0,0,0,0h0Zm6.01-38.23c0-5.75,4.67-10.42,10.42-10.42s10.42,4.67,10.42,10.42v7.81h-20.84v-7.81Zm-6.01,9.37h32.85c1.57,0,2.84,1.28,2.84,2.84v4.34h-8.06c-.43,0-.78,.35-.78,.78s.35,.78,.78,.78h8.06v4.11h-8.06c-.43,0-.78,.35-.78,.78s.35,.78,.78,.78h8.06v4.12h-8.06c-.43,0-.78,.35-.78,.78s.35,.78,.78,.78h8.06v4.34c0,1.57-1.27,2.84-2.84,2.84H50.48c-1.57,0-2.84-1.28-2.84-2.84v-4.34h8.06c.43,0,.78-.35,.78-.78s-.35-.78-.78-.78h-8.06v-4.12h8.06c.43,0,.78-.35,.78-.78s-.35-.78-.78-.78h-8.06v-4.12h8.06c.43,0,.78-.35,.78-.78s-.35-.78-.78-.78h-8.06v-4.34c0-1.57,1.27-2.84,2.84-2.84v.02Z"/><path class="cls-1" d="M66.91,73.25c.43,0,.78-.35,.78-.78v-11.38c0-.43-.35-.78-.78-.78s-.78,.35-.78,.78v11.38c0,.43,.35,.78,.78,.78Z"/><path class="cls-1" d="M90.5,0H8.69C3.9,0,0,3.9,0,8.69V58.86c0,4.8,3.9,8.69,8.69,8.69H42.16c.43,0,.78-.35,.78-.78s-.35-.78-.78-.78H8.69c-3.94,0-7.12-3.2-7.13-7.13V22.78H48.82c.1,0,.2-.02,.3-.06,.1-.04,.18-.09,.26-.16l10.73-10.76h6.68l-9.7,9.69c-.1,.11-.17,.24-.2,.39-.08,.12-.12,.26-.12,.4,0,.43,.35,.78,.78,.78l40.09-.23V58.86c0,3.94-3.2,7.12-7.13,7.13-.43,0-.78,.35-.78,.78s.35,.78,.78,.78c4.8,0,8.69-3.89,8.7-8.69V8.69c0-4.8-3.9-8.69-8.7-8.69h0ZM1.56,11.79H13.67L4.23,21.21H1.56V11.79Zm27.04,3.85c.3,.31,.8,.31,1.1,0,0,0,0,0,0,0l3.85-3.85h6.66l-9.46,9.43h-6.64l2.88-2.87c.28-.33,.24-.82-.09-1.1-.29-.25-.72-.25-1.02,0l-3.98,3.98h-6.64l9.43-9.44h6.64l-2.75,2.75c-.3,.3-.3,.8,0,1.1h0Zm4.37,5.58l9.43-9.43h6.64l-9.43,9.43h-6.64Zm-19.9,0H6.44L15.86,11.79h6.64l-9.43,9.43Zm35.39,0h-6.64l9.43-9.43h6.64l-9.43,9.43Zm10.83,.26l9.65-9.69h6.64l-9.59,9.62-6.7,.07Zm26.7-.15l2.34-2.34c.3-.3,.3-.8,0-1.1-.3-.3-.8-.3-1.1,0l-3.48,3.48h-6.68l9.62-9.62h6.61l-3.23,3.23c-.31,.3-.31,.8,0,1.11,.3,.31,.8,.31,1.11,0h0l4.32-4.32h2.12v9.47l-11.63,.1Zm11.64-11.07l-11.19-.06c-.21,0-.41,.09-.55,.24-.06,.03-.12,.07-.18,.12l-10.84,10.79h-6.68l9.77-9.76c.31-.3,.31-.8,0-1.1,0,0,0,0,0,0-.16-.15-.37-.23-.59-.22-.1-.05-.2-.07-.31-.07H1.56v-1.56c0-3.94,3.19-7.13,7.13-7.13H90.5c3.94,0,7.13,3.19,7.14,7.13v1.63Z"/><path class="cls-1" d="M47.65,33.78c0-.43-.35-.78-.78-.78H10.54c-.43,0-.78,.35-.78,.78s.35,.78,.78,.78H46.87c.43,0,.78-.35,.78-.78Z"/><path class="cls-1" d="M10.54,43.23h9.03c.43,0,.78-.35,.78-.78s-.35-.78-.78-.78H10.54c-.43,0-.78,.35-.78,.78s.35,.78,.78,.78Z"/><path class="cls-1" d="M38.81,41.67h-13.58c-.43,0-.78,.35-.78,.78s.35,.78,.78,.78h13.58c.43,0,.78-.35,.78-.78s-.35-.78-.78-.78Z"/><path class="cls-1" d="M10.54,51.42h28.28c.43,0,.78-.35,.78-.78s-.35-.78-.78-.78H10.54c-.43,0-.78,.35-.78,.78s.35,.78,.78,.78Z"/></g></g></svg>