<?xml version="1.0" encoding="UTF-8"?><svg id="Layer_2" xmlns="http://www.w3.org/2000/svg" viewBox="0 0 89.57 92.71"><defs><style>.cls-1{fill:#fff;}</style></defs><g id="work"><g><path class="cls-1" d="M4.01,92.71c-2.21,0-4.01-1.8-4.01-4.01V16.55c0-2.21,1.8-4.01,4.01-4.01H45.65v1.74H4.01c-1.25,0-2.27,1.02-2.27,2.27v8.54H45.65v1.74H1.74v61.87c0,1.25,1.02,2.27,2.27,2.27H20.39v-6.06c.01-4.61,3.13-8.69,7.57-9.92l9.68-2.63v-3.27l-.31-.21c-2.78-1.89-4.43-5.03-4.4-8.4v-3.42l-.41-.19c-.38-.18-.63-.3-.68-.32-.29-.15-.48-.45-.48-.78v-9.89l-7.67-2.96v6.22l3.96,3.96-1.23,1.23-2.73-2.73v3.48h-1.74v-3.48l-2.73,2.73-1.23-1.23,3.96-3.96v-7.48c0-.35,.23-.68,.56-.8l20.39-7.84c.1-.04,.2-.06,.31-.06s.21,.02,.31,.06l20.39,7.84c.33,.13,.56,.45,.56,.81s-.22,.68-.56,.81l-8.86,3.41v9.89c0,.33-.18,.62-.47,.77,0,0-.06,.03-.14,.07-.12,.06-.3,.15-.55,.26l-.41,.19v3.42c-.01,3.35-1.66,6.49-4.41,8.4l-.3,.21v3.27l9.68,2.63c4.44,1.23,7.56,5.31,7.57,9.92v6.06h16.39c1.25,0,2.27-1.02,2.27-2.27V31.37h1.74v57.33c0,2.21-1.8,4.01-4,4.01H4.01Zm54.2-1.74h6.11v-6.06c-.01-3.83-2.6-7.22-6.3-8.24l-7.75-2.11-6.49,5.41c-.16,.13-.35,.2-.56,.2s-.4-.07-.56-.2l-6.49-5.41-7.75,2.11c-3.69,1.02-6.28,4.41-6.29,8.24v6.07h6.11v-6.27h1.74v6.27h26.5v-6.27h1.74v6.27Zm-18.82-17.95c0,.24-.11,.47-.3,.63l-.63,.54,4.77,3.97,4.77-3.98-.64-.54c-.19-.16-.3-.39-.3-.64v-2.98l-.91,.28c-.95,.29-1.94,.44-2.93,.44s-1.98-.15-2.93-.44l-.91-.28v2.99Zm-4.71-12.55c-.01,2.25,.9,4.45,2.5,6.03,.52,.53,1.11,.98,1.76,1.35,1.29,.75,2.78,1.15,4.28,1.15s2.96-.39,4.26-1.14c2.64-1.52,4.28-4.35,4.28-7.39v-2.71l-.96,.38c-2.44,.96-5,1.51-7.62,1.64-2.55-.12-5.12-.67-7.55-1.64l-.96-.38v2.71Zm-1.57-5.27l.4,.19c3.04,1.46,6.29,2.35,9.65,2.63h.06s.06,0,.06,0c3.36-.28,6.61-1.17,9.66-2.63l.4-.19v-8.67l-9.8,3.77c-.1,.04-.2,.06-.31,.06s-.21-.02-.31-.06l-9.8-3.77v8.67Zm-7.86-13.56l17.97,6.91,17.97-6.91-17.97-6.91-17.97,6.91Z"/><rect class="cls-1" x="9.41" y="18.82" width="1.74" height="1.74"/><rect class="cls-1" x="15.69" y="18.82" width="1.74" height="1.74"/><rect class="cls-1" x="21.96" y="18.82" width="1.74" height="1.74"/><path class="cls-1" d="M60.47,34.68c-.1,0-.2-.02-.29-.05-.34-.12-.58-.45-.58-.82v-6.97h-5.41c-2.21,0-4.01-1.8-4.01-4.01V4.01c0-2.21,1.8-4.01,4.01-4.01h31.37c2.21,0,4,1.8,4,4.01V22.83c0,2.21-1.8,4.01-4,4.01h-18.41l-6.01,7.52c-.17,.21-.41,.32-.68,.33ZM54.2,1.74c-1.25,0-2.27,1.02-2.27,2.27V22.83c0,1.25,1.02,2.27,2.27,2.27h6.27c.48,0,.87,.39,.87,.87v5.37l4.73-5.91c.17-.21,.41-.33,.68-.33h18.82c1.25,0,2.27-1.02,2.27-2.27V4.01c0-1.25-1.02-2.27-2.27-2.27h-31.37Z"/><rect class="cls-1" x="59.6" y="6.27" width="20.56" height="1.74"/><rect class="cls-1" x="59.6" y="12.55" width="20.56" height="1.74"/><rect class="cls-1" x="59.6" y="18.82" width="20.56" height="1.74"/></g></g></svg>