<?xml version="1.0" encoding="UTF-8"?><svg id="Layer_2" xmlns="http://www.w3.org/2000/svg" viewBox="0 0 90.83 62.49"><defs><style>.cls-1{fill:#fff;}</style></defs><g id="work"><g><g><path class="cls-1" d="M86.29,0H4.53C2.03,0,0,2.03,0,4.53V57.96c0,2.5,2.03,4.53,4.53,4.53H71.47c.39,0,.72-.32,.72-.72s-.32-.72-.72-.72H4.53c-.9,0-1.76-.41-2.35-1.09l7.39-6.32c.3-.26,.34-.71,.08-1.01-.26-.3-.71-.34-1.01-.08l-7.15,6.1c-.06-.23-.08-.47-.09-.72V18.44s.09,0,.13,0H27.37c.39,0,.72-.32,.72-.72s-.32-.72-.72-.72H1.56s-.09,0-.13,0V4.53c0-1.71,1.39-3.1,3.1-3.1H86.29c1.71,0,3.1,1.39,3.1,3.1v12.51H35.4c-.39,0-.72,.32-.72,.72s.32,.72,.72,.72h53.17l-6.58,5.62c-.3,.26-.34,.71-.08,1.01,.26,.3,.71,.34,1.01,.08h0l6.48-5.54V57.95c0,1.71-1.39,3.1-3.1,3.1h-6.48c-.39,0-.72,.32-.72,.72s.32,.72,.72,.72h6.48c2.5,0,4.53-2.03,4.53-4.53V4.53C90.82,2.03,88.8,0,86.29,0h0Z"/><path class="cls-1" d="M27.37,5.5c-1.77,0-3.2,1.43-3.2,3.2s1.43,3.2,3.2,3.2,3.2-1.43,3.2-3.2h0c0-1.77-1.43-3.2-3.2-3.2Zm0,5.01c-.98,0-1.77-.79-1.77-1.77,0-.98,.79-1.77,1.77-1.77,.98,0,1.77,.79,1.77,1.77,0,0,0,0,0,0,0,.98-.8,1.77-1.77,1.77Z"/><path class="cls-1" d="M14.94,8.7c0,1.77,1.43,3.2,3.2,3.2s3.2-1.43,3.2-3.2-1.43-3.2-3.2-3.2h0c-1.77,0-3.2,1.43-3.2,3.2Zm5.01,0c0,.98-.79,1.77-1.77,1.77-.98,0-1.77-.79-1.77-1.77,0-.97,.78-1.76,1.75-1.77,.98,0,1.77,.8,1.77,1.77h.04Z"/><path class="cls-1" d="M5.71,8.7c0,1.77,1.43,3.2,3.2,3.2,1.77,0,3.2-1.43,3.2-3.2,0-1.76-1.42-3.19-3.18-3.2-1.77-.01-3.21,1.41-3.23,3.18,0,0,0,.01,0,.02Zm5.01,0c0,.98-.79,1.77-1.77,1.77s-1.77-.79-1.77-1.77c0-.98,.79-1.77,1.77-1.77,.97,.02,1.75,.81,1.75,1.77h.04Z"/><path class="cls-1" d="M35.4,11.94h48.51c.39,0,.72-.32,.72-.72V6.21c0-.39-.32-.72-.72-.72H35.4c-.39,0-.72,.32-.72,.72v5.01c0,.39,.32,.72,.72,.72Zm.72-5.01h47.08v3.58H36.12v-3.58Z"/><path class="cls-1" d="M80.16,42.69c.28,.28,.73,.28,1.01,0,0,0,0,0,0,0,.28-.28,.28-.73,0-1.01l-3.02-3.02,3.02-2.99c.28-.28,.28-.73,0-1.01,0,0,0,0,0,0-.28-.28-.73-.28-1.01,0l-3.03,3.03-3.02-3.02c-.28-.28-.73-.28-1.01,0-.28,.28-.28,.73,0,1.01,0,0,0,0,0,0l3.05,3-3.02,3.02c-.28,.28-.28,.73,0,1.01,.14,.14,.32,.21,.51,.21,.19,0,.37-.08,.5-.21l3.02-3.01,2.98,2.99Z"/><path class="cls-1" d="M17.01,34.66c-.28-.28-.73-.28-1.01,0,0,0,0,0,0,0l-3.01,3.03-3.02-3.02c-.28-.28-.73-.28-1.01,0-.28,.28-.28,.73,0,1.01,0,0,0,0,0,0l3.01,3.01-3.03,3.01c-.26,.28-.26,.71,0,.99,.13,.13,.31,.21,.5,.21,.19,0,.37-.08,.51-.21l3.02-3.01,3.03,3.01c.28,.28,.73,.28,1.01,0,.28-.28,.28-.73,0-1.01h0l-3.02-3,3.02-3.01c.28-.28,.28-.73,0-1.01,0,0,0,0,0,0h0Z"/></g><g><path class="cls-1" d="M39.81,35.3c.65,.65,.97,1.64,.97,2.96v5.07h-3.11v-4.56c0-.62-.12-1.08-.35-1.37-.23-.29-.56-.44-.99-.44-.47,0-.84,.16-1.13,.49-.28,.33-.43,.82-.43,1.49v4.4h-3.11v-4.56c0-1.21-.45-1.81-1.34-1.81-.48,0-.86,.16-1.14,.49-.28,.33-.42,.82-.42,1.49v4.4h-3.11v-8.86h2.96v.93c.33-.36,.72-.63,1.17-.81,.45-.18,.95-.27,1.48-.27,.62,0,1.18,.11,1.67,.34,.49,.23,.89,.58,1.19,1.05,.35-.45,.79-.79,1.32-1.03,.53-.24,1.12-.36,1.75-.36,1.09,0,1.96,.33,2.61,.98Z"/><path class="cls-1" d="M51.67,34.47l-3.82,9.22c-.45,1.09-.99,1.86-1.63,2.3-.64,.44-1.43,.66-2.35,.66-.47,0-.94-.07-1.41-.22-.47-.15-.86-.34-1.15-.58l1.08-2.17c.17,.16,.38,.29,.63,.38,.25,.09,.49,.14,.74,.14,.29,0,.54-.06,.73-.18,.19-.12,.35-.31,.48-.57l-3.79-8.97h3.19l2.17,5.41,2.19-5.41h2.96Z"/><path class="cls-1" d="M54.64,34.46h-3.51v-2.57h10.25v2.57h-3.5v8.88h-3.24v-8.88Z"/><path class="cls-1" d="M62.18,31.89h3.24v11.44h-3.24v-11.44Z"/></g></g></g></svg>