<?xml version="1.0" encoding="UTF-8"?><svg id="Layer_2" xmlns="http://www.w3.org/2000/svg" viewBox="0 0 88.44 88.44"><defs><style>.cls-1{fill:#fff;}</style></defs><g id="work"><g><path class="cls-1" d="M84.97,27.01c-2.23-5.27-5.42-9.99-9.48-14.06-4.06-4.06-8.79-7.25-14.06-9.48-5.45-2.31-11.24-3.48-17.21-3.48s-11.76,1.17-17.21,3.48c-5.27,2.23-10,5.42-14.06,9.48-4.06,4.06-7.25,8.79-9.48,14.06-2.31,5.45-3.48,11.25-3.48,17.21s1.17,11.76,3.48,17.21c2.23,5.27,5.42,9.99,9.48,14.06,4.06,4.06,8.79,7.25,14.06,9.48,5.45,2.31,11.24,3.48,17.21,3.48s11.76-1.17,17.21-3.48c5.27-2.23,9.99-5.41,14.06-9.48,4.06-4.06,7.25-8.79,9.48-14.06,2.31-5.45,3.48-11.25,3.48-17.21s-1.17-11.76-3.48-17.21Zm-40.75,59.36c-23.24,0-42.15-18.91-42.15-42.15S20.98,2.08,44.22,2.08s42.15,18.91,42.15,42.15-18.91,42.15-42.15,42.15Z"/><path class="cls-1" d="M70.92,17.53c-7.13-7.13-16.61-11.06-26.69-11.06s-19.56,3.93-26.69,11.06c-7.13,7.13-11.06,16.61-11.06,26.69s3.93,19.56,11.06,26.69c7.13,7.13,16.61,11.06,26.69,11.06s19.56-3.93,26.69-11.06c7.13-7.13,11.06-16.61,11.06-26.69s-3.93-19.56-11.06-26.69Zm-1.38,52.01c-6.76,6.76-15.75,10.49-25.32,10.49s-18.56-3.72-25.32-10.49c-6.76-6.76-10.49-15.75-10.49-25.32s3.72-18.56,10.49-25.32c6.76-6.76,15.75-10.49,25.32-10.49s18.56,3.72,25.32,10.49c6.76,6.76,10.49,15.75,10.49,25.32s-3.72,18.56-10.49,25.32Z"/><path class="cls-1" d="M24.23,35.06v-8.91h11.19c.64,0,1.15-.52,1.15-1.15s-.52-1.15-1.15-1.15h-12.34c-.64,0-1.15,.52-1.15,1.15v10.06c0,.64,.52,1.15,1.15,1.15s1.15-.52,1.15-1.15Z"/><path class="cls-1" d="M56.34,44.22c0-.64-.52-1.15-1.15-1.15h-9.81v-8.85c0-.64-.52-1.15-1.15-1.15s-1.15,.52-1.15,1.15v8.85h-9.81c-.64,0-1.15,.52-1.15,1.15s.52,1.15,1.15,1.15h9.81v8.85c0,.64,.52,1.15,1.15,1.15s1.15-.52,1.15-1.15v-8.85h9.81c.64,0,1.15-.52,1.15-1.15Z"/><path class="cls-1" d="M36.14,62.07l-11.19,.02v-8.91c-.02-.63-.53-1.15-1.17-1.15-.31,0-.6,.12-.82,.34-.22,.22-.34,.51-.34,.82l.02,10.06c0,.63,.52,1.15,1.15,1.15l12.34-.02c.63,0,1.15-.52,1.15-1.15,0-.63-.52-1.15-1.15-1.15Z"/><path class="cls-1" d="M52.97,26.09h11.19v8.91c0,.64,.52,1.15,1.15,1.15s1.15-.52,1.15-1.15v-10.06c0-.64-.52-1.15-1.15-1.15h-12.34c-.64,0-1.15,.52-1.15,1.15s.52,1.15,1.15,1.15Z"/><path class="cls-1" d="M66.02,51.9h0c-.31,0-.6,.12-.81,.34-.22,.22-.34,.51-.34,.82v8.91s-11.17,.02-11.17,.02c-.31,0-.6,.12-.81,.34-.22,.22-.34,.51-.34,.82,0,.63,.52,1.15,1.15,1.15l12.34-.02c.31,0,.6-.12,.81-.34,.21-.21,.34-.51,.34-.82l-.02-10.06c0-.63-.52-1.15-1.15-1.15Z"/></g></g></svg>