<?xml version="1.0" encoding="UTF-8"?><svg id="Layer_2" xmlns="http://www.w3.org/2000/svg" viewBox="0 0 90.81 79.72"><defs><style>.cls-1{fill:#fff;}</style></defs><g id="work"><g><path class="cls-1" d="M4.15,51.41c1.82,1.45,4.07,2.28,6.4,2.37,.63,0,1.27-.09,1.87-.26,.59,1.64,1.31,3.23,2.15,4.77-1.2-.58-2.49-.95-3.81-1.09-3.47-.41-6.78,.64-8.44,2.68-.17,.21-.21,.5-.09,.75,1.13,2.37,4.11,4.16,7.58,4.57,.49,.06,.98,.09,1.47,.09,2.35,.09,4.64-.7,6.44-2.22,.72,.91,1.49,1.79,2.3,2.62-.21,0-.44,0-.66-.04-2.15,0-4.06,.82-4.94,2.15-.15,.23-.15,.53,0,.77,.84,1.38,2.75,2.3,4.87,2.33h.11c1.68,.08,3.32-.55,4.52-1.74,.85,.64,1.73,1.25,2.64,1.81-1.11,.02-2.21,.2-3.27,.52-3.34,1.02-5.95,3.32-6.64,5.85-.07,.26,.02,.54,.22,.72,1.49,1.17,3.35,1.76,5.25,1.69,1.2,0,2.38-.19,3.53-.54,3.18-.97,5.68-3.09,6.53-5.47,1.12,.43,2.27,.81,3.43,1.13,.06,0,.12,0,.19,0,.4,.05,.76-.23,.81-.62,.05-.4-.23-.76-.62-.81-11.01-2.96-19.67-11.46-22.83-22.41-.06-.34-.15-.68-.26-1.01-.57-2.21-.9-4.47-.99-6.75v-1.95l6.93,2.55v8.81c0,6.3,11.32,11.25,25.76,11.25,1.33,0,2.66-.04,3.97-.13,.4-.03,.69-.37,.67-.76-.03-.4-.37-.69-.76-.67-1.28,.09-2.58,.13-3.88,.13-13.19,0-24.33-4.49-24.33-9.82v-8.21l24.06,8.89c.08,.03,.16,.04,.24,.04,.09,0,.17-.01,.25-.04l15.97-5.89v12.47c-2.14,.77-4.35,1.36-6.6,1.75-.4,.04-.69,.38-.65,.78,.04,.4,.38,.69,.78,.65h.12c2.16-.38,4.28-.92,6.35-1.63v4.35h-1.79c-.4,0-.72,.32-.72,.72v2.86c-.94,.85-1.47,2.06-1.47,3.33v4.63c0,.4,.32,.72,.72,.72h7.87c.4,0,.72-.32,.72-.72v-4.63c0-1.27-.53-2.48-1.47-3.33v-2.86c0-.4-.32-.72-.72-.72h-1.7v-4.91c5.09-2.08,8.11-5.01,8.11-8.24v-8.74l8.59-3.17v2.56c-.1,2.32-.44,4.63-1.03,6.88-.06,.2-.12,.39-.17,.59-1.87,6.63-5.77,12.5-11.17,16.78-.31,.24-.36,.69-.12,1,.03,.03,.07,.06,.1,.09,0,0,0,.06,.05,.1,.87,1.33,2.75,2.15,4.82,2.15h.11c2.15,0,4.04-.94,4.87-2.33,.15-.23,.15-.53,0-.77-.89-1.35-2.8-2.19-4.94-2.15-.24,0-.49,0-.72,.05,.83-.85,1.61-1.73,2.34-2.66,1.79,1.53,4.09,2.34,6.44,2.25,.49,0,.99-.03,1.47-.09,3.47-.41,6.44-2.2,7.58-4.57,.12-.25,.08-.54-.09-.76-1.65-2.05-4.96-3.11-8.43-2.69-1.34,.15-2.65,.53-3.86,1.12,.84-1.54,1.56-3.15,2.15-4.8,.62,.18,1.26,.27,1.9,.27,2.33-.08,4.57-.91,6.4-2.37,2.78-2.15,4.42-5.19,4.18-7.81-.02-.28-.21-.51-.47-.61-2.47-.91-5.85-.13-8.59,2-.61,.46-1.17,.98-1.67,1.55,.14-1.05,.24-2.15,.29-3.18v-1.43c0-.47,0-1.11-.04-1.66l3.29-1.22c.3-.11,.48-.4,.47-.72-.01-.31-.23-.58-.53-.66l-3.58-.96c-.16-1.02-.36-2.02-.61-3.01,.07,.01,.14,.01,.21,0,.11,0,.22-.02,.31-.07,2.35-1.17,4.11-4.16,4.48-7.64,.36-3.47-.72-6.78-2.81-8.4-.22-.17-.51-.2-.76-.08-2.35,1.17-4.11,4.16-4.48,7.64v.58c-1.06-1.96-2.3-3.81-3.72-5.52,1.2-1.08,1.94-2.59,2.05-4.21,.21-2.1-.48-4.11-1.76-5.1-.22-.17-.51-.2-.76-.07-1.43,.72-2.52,2.55-2.73,4.66-.04,.45-.04,.89,0,1.34-1.21-1.11-2.5-2.14-3.85-3.07,.04-.05,.08-.1,.11-.16,1.12-2.38,.64-5.82-1.24-8.76S59.63,0,57,0c-.28,0-.53,.16-.65,.41-1.13,2.38-.64,5.82,1.2,8.77,.16,.25,.33,.49,.51,.72-.94-.35-1.91-.67-2.86-.94-.38-.09-.77,.15-.86,.53-.09,.37,.13,.74,.49,.85,2.27,.62,4.46,1.48,6.55,2.57,.21,.12,.42,.24,.64,.34,3.88,2.14,7.29,5.04,10.02,8.53-.58-.19-1.17-.31-1.77-.35-2.11-.14-4.09,.59-5.05,1.9-.18,.23-.21,.55-.06,.8,.77,1.43,2.63,2.44,4.74,2.59h.54c1.46,.04,2.89-.45,4.01-1.38,1.99,3.38,3.35,7.09,4.01,10.96l-33.7-9.07c-.12-.04-.25-.04-.37,0l-6.66,1.79c-.38,.09-.62,.47-.53,.86,.09,.38,.47,.62,.86,.53,.02,0,.03,0,.05-.01l6.44-1.74,36.49,9.78-19.48,7.2-17.69-8.11c-.37-.14-.78,.05-.92,.42-.13,.34,.02,.72,.34,.89l16.37,7.48-15.03,5.56L11.63,39.7c-.11-.09-.24-.14-.39-.16l-3.13-1.11,26.75-7.16c.4-.1,.63-.51,.53-.9-.1-.4-.51-.63-.9-.53l-22.08,5.95c.64-3.35,1.8-6.58,3.43-9.57,.82,.49,1.76,.74,2.71,.72,.79,0,1.58-.14,2.33-.4,2-.68,3.53-2.15,3.91-3.71,.06-.27-.04-.54-.25-.72-1.26-1.02-3.36-1.23-5.37-.54-.13,.04-.26,.1-.38,.15,2.72-3.46,6.11-6.33,9.96-8.45,.21-.1,.42-.22,.64-.34,2.09-1.09,4.28-1.95,6.55-2.57,.38-.12,.59-.52,.47-.89-.11-.36-.48-.57-.85-.49-.99,.27-1.95,.59-2.86,.94,.18-.24,.35-.49,.51-.72,1.87-2.95,2.36-6.39,1.25-8.77-.12-.25-.37-.41-.64-.41-2.63,0-5.52,1.9-7.4,4.84-1.87,2.94-2.42,6.38-1.3,8.74,.03,.06,.06,.12,.11,.16-1.35,.93-2.64,1.96-3.85,3.07,.04-.45,.04-.89,0-1.34-.21-2.1-1.28-3.94-2.73-4.66-.25-.12-.54-.1-.76,.07-1.28,.99-1.97,3-1.76,5.1,.11,1.61,.84,3.12,2.05,4.21-1.41,1.71-2.66,3.56-3.71,5.52v-.58c-.36-3.47-2.15-6.44-4.48-7.64-.25-.12-.54-.09-.76,.08-2.1,1.62-3.22,4.92-2.83,8.4,.39,3.48,2.15,6.44,4.47,7.64,.1,.05,.21,.07,.32,.07,.07,.01,.13,.01,.2,0-.21,.84-.38,1.68-.52,2.54l-5.34,1.43c-.38,.1-.61,.49-.51,.87,.06,.23,.23,.41,.45,.49l4.94,1.82v1.08c0,.49,0,.97,.04,1.43,.04,1.07,.14,2.15,.28,3.17-.51-.56-1.07-1.08-1.67-1.54-2.77-2.15-6.15-2.91-8.59-2-.26,.1-.44,.33-.47,.61-.3,2.6,1.34,5.66,4.11,7.79h0Zm5.82,12.38c-2.78-.33-5.16-1.63-6.23-3.36,1.43-1.43,4.06-2.15,6.84-1.82,2.78,.32,5.16,1.63,6.23,3.36-1.47,1.44-4.06,2.15-6.84,1.82Zm15.25,14.04c-2.68,.81-5.38,.58-7.06-.58,.72-1.9,2.86-3.58,5.53-4.42,2.67-.84,5.38-.58,7.06,.58-.74,1.9-2.86,3.6-5.53,4.42Zm39.41-1.25h-1.07v-1.47c0-.4-.32-.72-.72-.72s-.72,.32-.72,.72v1.47h-1.31v-3.23c0-.4-.32-.72-.72-.72s-.72,.32-.72,.72v3.23h-1.19v-3.91c0-1.71,1.39-3.09,3.09-3.09h.24c1.71,0,3.09,1.39,3.09,3.09v3.91Zm-1.47-8.13c-.52-.2-1.06-.31-1.62-.31h-.24c-.55,0-1.1,.11-1.62,.31v-1.23h3.48v1.23Zm17.04-9.85c2.78-.33,5.4,.39,6.84,1.82-1.07,1.73-3.45,3.03-6.23,3.36s-5.4-.39-6.84-1.82c1.07-1.73,3.45-3.03,6.23-3.36Zm-8.75,8.46c1.24-.08,2.47,.34,3.41,1.15-.92,.83-2.13,1.28-3.38,1.25-1.24,.07-2.46-.34-3.41-1.15,.92-.83,2.13-1.28,3.37-1.25h0Zm11.16-20.93c2.23-1.7,4.84-2.43,6.81-1.93,0,2.04-1.43,4.37-3.64,6.08-2.2,1.7-4.84,2.43-6.81,1.92,.01-.41,.08-.81,.19-1.21l.13-.47c.66-1.76,1.81-3.28,3.32-4.39Zm-4.84-20.82c.29-2.78,1.56-5.18,3.28-6.28,1.43,1.43,2.2,4.04,1.91,6.82-.29,2.78-1.56,5.18-3.28,6.27-1.47-1.42-2.21-4.03-1.92-6.81h.01ZM58.78,8.38c-1.5-2.35-2-5.01-1.32-6.95,2.03,.21,4.23,1.79,5.72,4.15,1.5,2.36,2,5.01,1.33,6.95-.66-.08-1.31-.27-1.9-.57-.19-.11-.39-.22-.59-.32-1.31-.83-2.42-1.94-3.23-3.26Zm11.19,16.89c-1.24-.04-2.42-.55-3.3-1.43,.99-.75,2.23-1.09,3.47-.96,1.24,.03,2.42,.55,3.3,1.43-.99,.75-2.23,1.09-3.47,.96Zm.83-9.64c.08-1.24,.62-2.41,1.53-3.26,.73,1.01,1.04,2.26,.87,3.49-.08,1.24-.63,2.39-1.53,3.24-.72-1.01-1.03-2.25-.87-3.48Zm-1.92,37.02c0,2.48-2.51,4.88-6.68,6.68v-12.43l6.68-2.47v8.21ZM19.63,22.93c1.15-.44,2.43-.43,3.58,.04-.62,1.08-1.63,1.88-2.82,2.23-1.15,.44-2.43,.43-3.58-.04,.62-1.08,1.63-1.87,2.82-2.23Zm6.6-10.38c-.67-1.92-.17-4.59,1.33-6.95,1.5-2.36,3.71-3.94,5.72-4.15,.67,1.92,.17,4.59-1.33,6.95-.81,1.31-1.92,2.43-3.23,3.25-.2,.1-.4,.21-.6,.32-.59,.3-1.22,.5-1.87,.58h-.02Zm-15.11,19.56c-1.72-1.09-2.99-3.48-3.28-6.27-.29-2.78,.46-5.4,1.91-6.82,1.72,1.09,2.99,3.49,3.28,6.28,.29,2.78-.45,5.39-1.91,6.81Zm6.44-16.24c-.17-1.23,.14-2.48,.87-3.49,.91,.85,1.46,2.01,1.53,3.26,.17,1.23-.14,2.47-.86,3.48-.9-.85-1.45-2.01-1.53-3.24h0Zm1.72,53.61c-1.24,.03-2.45-.42-3.38-1.25,.94-.82,2.17-1.24,3.42-1.17,1.24-.03,2.45,.42,3.37,1.25-.94,.82-2.16,1.24-3.41,1.17h0Zm-11.11-23.36c1.48,1.09,2.62,2.58,3.29,4.29,.09,.34,.17,.72,.27,1.02,.04,.24,.06,.48,.07,.72-1.97,.5-4.59-.22-6.81-1.92-2.23-1.7-3.58-4.04-3.64-6.08,1.99-.47,4.6,.26,6.81,1.97Z"/><path class="cls-1" d="M24.14,53.67c-.29-.27-.74-.26-1.01,.03-.27,.29-.26,.74,.03,1.01,.12,.11,3.01,2.76,11.01,4.48h.15c.4,.04,.75-.25,.79-.64,.04-.4-.25-.75-.64-.79-7.54-1.59-10.3-4.06-10.33-4.09Z"/><path class="cls-1" d="M69.87,39.51c.06,.01,.12,.01,.19,0,.33,.01,.63-.21,.72-.53,.1-.38-.12-.77-.5-.88,0,0,0,0,0,0l-9.91-2.67c-.38-.1-.77,.12-.87,.5-.1,.38,.12,.77,.5,.88,0,0,0,0,0,0l9.88,2.7Z"/><path class="cls-1" d="M49.07,76.36c1.5-.14,2.99-.38,4.46-.72,.4-.09,.64-.48,.55-.88-.09-.4-.48-.64-.88-.55-1.41,.33-2.85,.57-4.29,.72-1.14,.11-2.3,.18-3.45,.18-.4,0-.72,.32-.72,.72s.32,.72,.72,.72c1.21,0,2.41-.06,3.61-.18h0Z"/><path class="cls-1" d="M38.67,12.27c-1.47,.32-2.92,.74-4.34,1.25-.37,.13-.57,.54-.44,.91,0,0,0,0,0,0,.11,.3,.4,.49,.72,.47,.08,0,.16-.02,.24-.04,1.34-.49,2.71-.89,4.11-1.2,1.11-.24,2.25-.43,3.4-.57,.4-.05,.68-.4,.63-.8-.05-.4-.4-.68-.8-.63-1.16,.15-2.35,.34-3.51,.6Z"/></g></g></svg>