<?xml version="1.0" encoding="UTF-8"?><svg id="Layer_2" xmlns="http://www.w3.org/2000/svg" viewBox="0 0 78.7 76.48"><defs><style>.cls-1{fill:#fff;}</style></defs><g id="work"><g><path class="cls-1" d="M77.63,0H20.05c-.59,0-1.06,.48-1.06,1.07V45.29c0,.59,.48,1.07,1.06,1.07H53.74c.15,0,.3,.07,.4,.19l11.6,14.97c.27,.35,.76,.5,1.19,.35,.43-.15,.72-.55,.72-1.01v-14.01c0-.28,.22-.5,.5-.5h9.49c.59,0,1.07-.48,1.07-1.07V1.07c0-.59-.48-1.07-1.07-1.07Zm-1.07,43.72c0,.28-.22,.5-.5,.5h-9.49c-.59,0-1.07,.48-1.07,1.07v10.99c0,.21-.14,.4-.34,.47-.05,.02-.11,.03-.16,.03-.15,0-.3-.07-.4-.19l-9.27-11.95c-.2-.26-.51-.41-.84-.41H21.61c-.28,0-.5-.22-.5-.5V2.63c0-.28,.22-.5,.5-.5h54.45c.28,0,.5,.22,.5,.5V43.72Z"/><path class="cls-1" d="M56.44,58.78H24.19c-.33,0-.64,.15-.84,.41l-9.27,11.95c-.13,.17-.35,.23-.56,.17-.2-.07-.34-.26-.34-.47v-10.99c0-.59-.48-1.07-1.07-1.07H2.63c-.28,0-.5-.22-.5-.5V17.1c0-.28,.22-.5,.5-.5H13.23c.59,0,1.07-.48,1.07-1.07s-.48-1.07-1.07-1.07H1.07c-.59,0-1.07,.48-1.07,1.07V59.85c0,.59,.48,1.07,1.07,1.07H10.56c.28,0,.5,.22,.5,.5v14c0,.46,.29,.86,.72,1.01,.41,.14,.92,0,1.19-.36l11.6-14.96c.09-.12,.24-.19,.4-.19h31.48c.59,0,1.07-.48,1.07-1.07s-.48-1.07-1.07-1.07Z"/><path class="cls-1" d="M55.31,24.59c.58,.11,1.14-.27,1.26-.84,.11-.58-.26-1.14-.84-1.25-1.37-.27-2.37-1.5-2.37-2.92,0-1.62,1.37-2.99,2.99-2.99s2.99,1.37,2.99,2.99c0,4.35-1.57,8.11-4.3,10.32-.22,.18-.36,.43-.39,.71-.03,.28,.05,.56,.23,.78,.36,.45,1.05,.52,1.5,.16,3.23-2.61,5.09-6.97,5.09-11.98,0-2.82-2.3-5.12-5.12-5.12s-5.12,2.3-5.12,5.12c0,2.43,1.71,4.53,4.08,5.01Z"/><path class="cls-1" d="M40.29,24.59c.57,.11,1.14-.27,1.26-.84,.11-.58-.26-1.14-.84-1.25-1.37-.27-2.37-1.5-2.37-2.92,0-1.62,1.37-2.99,2.99-2.99s2.99,1.37,2.99,2.99c0,2.56-.56,7.3-4.3,10.32-.22,.18-.36,.43-.39,.71-.03,.28,.05,.56,.23,.79,.35,.44,1.05,.52,1.5,.16,3.28-2.64,5.09-6.9,5.09-11.98,0-2.82-2.3-5.12-5.12-5.12s-5.12,2.3-5.12,5.12c0,2.43,1.72,4.53,4.08,5.01Z"/></g></g></svg>