<?xml version="1.0" encoding="UTF-8"?><svg id="Layer_2" xmlns="http://www.w3.org/2000/svg" viewBox="0 0 79.15 71.63"><defs><style>.cls-1{fill:#fff;}</style></defs><g id="work"><g><path class="cls-1" d="M43.54,18.04c0-.41-.34-.75-.75-.75s-.75,.34-.75,.75V57.62h1.5V18.04Z"/><path class="cls-1" d="M35.43,57.62h1.5V12.45c-.54-.23-1.05-.54-1.5-.9V57.62Z"/><path class="cls-1" d="M29.19,57.62c-.41,0-.75,.34-.75,.75v5.51h1.5v-4.76h19.09v.84c0,.41,.34,.75,.75,.75s.75-.34,.75-.75v-1.59c0-.41-.34-.75-.75-.75H29.19Z"/><path class="cls-1" d="M18.49,63.87c-.41,0-.75,.34-.75,.75v6.26c0,.41,.34,.75,.75,.75H60.48c.41,0,.75-.34,.75-.75v-6.26c0-.41-.34-.75-.75-.75H18.49Zm31.29,1.5h9.95v4.76H19.24v-4.76h30.54Z"/><path class="cls-1" d="M67.93,1.93c.22,0,.42,.1,.56,.26,.02-.09,.02-.18,0-.28-.07-.41-.46-.68-.87-.61l-21.79,3.85c.09,.43,.14,.87,.14,1.33,0,.06,0,.11,0,.17l21.08-3.73,.18-.5c.11-.3,.39-.5,.71-.5Z"/><path class="cls-1" d="M11.43,11.24c.13,.09,.24,.21,.29,.37l.37,1.03,21.36-3.78c-.18-.46-.31-.95-.38-1.45l-21.64,3.83Z"/><path class="cls-1" d="M67.93,4.91l5.82,16.29c.14,.39,.57,.59,.96,.45,.39-.14,.59-.57,.45-.96l-6.52-18.26c-.03-.09-.08-.17-.14-.24-.14-.16-.34-.26-.56-.26-.32,0-.6,.2-.71,.5l-.18,.5-8.04,22.51h1.59l7.33-20.53Z"/><path class="cls-1" d="M11.43,11.24c-.12-.08-.26-.13-.41-.13-.32,0-.6,.2-.71,.5L2.02,34.83c-.07,.21-.04,.43,.05,.61h1.3s.04-.07,.06-.1L11.02,14.1l5.99,16.78c.14,.39,.57,.6,.96,.45,.39-.14,.59-.57,.45-.96L12.09,12.65l-.37-1.03c-.06-.16-.16-.28-.29-.37Z"/><path class="cls-1" d="M78.4,25.44h-20.74c-.41,0-.75,.34-.75,.75,0,6.13,4.99,11.12,11.12,11.12s11.12-4.99,11.12-11.12c0-.41-.34-.75-.75-.75Zm-10.37,10.37c-5.05,0-9.21-3.92-9.59-8.87h19.18c-.38,4.96-4.54,8.87-9.59,8.87Z"/><path class="cls-1" d="M.75,35.44c-.41,0-.75,.34-.75,.75,0,6.13,4.99,11.12,11.12,11.12s11.12-4.99,11.12-11.12c0-.41-.34-.75-.75-.75H.75Zm10.37,10.37c-5.05,0-9.21-3.92-9.59-8.87H20.71c-.38,4.96-4.54,8.87-9.59,8.87Z"/><path class="cls-1" d="M45.83,5.16c-.62-2.94-3.23-5.16-6.35-5.16-3.58,0-6.49,2.91-6.49,6.49,0,.32,.03,.62,.07,.93,.07,.51,.2,.99,.38,1.45,.42,1.06,1.1,1.98,1.97,2.68,.45,.36,.96,.67,1.5,.9,.78,.34,1.65,.53,2.55,.53,3.52,0,6.39-2.82,6.48-6.32,0-.06,0-.11,0-.17,0-.46-.05-.9-.14-1.33Zm-11.34,1.33c0-2.75,2.24-4.99,4.99-4.99s4.99,2.24,4.99,4.99-2.24,4.99-4.99,4.99-4.99-2.24-4.99-4.99Z"/></g></g></svg>