<?xml version="1.0" encoding="UTF-8"?><svg id="Layer_2" xmlns="http://www.w3.org/2000/svg" viewBox="0 0 76.05 80.08"><defs><style>.cls-1{fill:#fff;}</style></defs><g id="work"><g><path class="cls-1" d="M37.22,9.56c0,.46,.34,.8,.8,.8s.8-.34,.8-.8-.34-.8-.8-.8-.8,.34-.8,.8Z"/><path class="cls-1" d="M24.22,62.1c-.11-.02-.21-.04-.32-.04-.37,0-.71,.14-.88,.41h0c-.11,.16-.13,.39-.08,.61,.04,.14,.14,.39,.44,.54l.1,.07s.08,.06,.41,.06c.39,0,.55-.1,.65-.42l.04-.09c.11-.16,.14-.39,.08-.61-.04-.14-.14-.39-.43-.53Z"/><path class="cls-1" d="M8.6,38.19c0,.46,.34,.8,.8,.8s.8-.34,.8-.8-.34-.8-.8-.8-.8,.34-.8,.8Z"/><path class="cls-1" d="M24.38,13.1c-.14-.29-.39-.4-.53-.43-.22-.06-.45-.03-.61,.07-.35,.23-.62,.71-.38,1.2,.11,.22,.49,.47,.67,.47,.3,0,.39-.04,.41-.06,.41-.28,.68-.75,.43-1.25Z"/><path class="cls-1" d="M12.33,24.19c.04,.13,.13,.35,.38,.5,.11,.02,.22,.05,.34,.09,.07,.02,.19,.06,.23,.07,.39,0,.54-.1,.65-.42l.04-.09c.11-.16,.13-.39,.07-.61-.04-.14-.14-.39-.43-.53-.2-.13-.43-.16-.65-.1-.14,.04-.39,.14-.54,.44-.13,.2-.16,.43-.09,.65Z"/><path class="cls-1" d="M12.56,52.21c-.08,.23-.07,.45,.02,.58l.04,.09c.14,.41,.63,.42,.66,.42,.3,0,.38-.04,.41-.06,.24-.16,.4-.39,.48-.63,.08-.23,.07-.45-.02-.58-.17-.26-.47-.47-.81-.47-.13,0-.26,.03-.39,.09-.14,.09-.3,.32-.38,.56Z"/><path class="cls-1" d="M65.85,38.01v.17c0,.46,.34,.8,.8,.8s.8-.34,.8-.8c0-.56-.27-.92-.7-.97h-.1c-.46,0-.8,.34-.8,.8Z"/><path class="cls-1" d="M63.5,24c.08-.23,.07-.45-.02-.58-.17-.33-.42-.44-.56-.47-.08-.02-.15-.03-.23-.03-.14,0-.27,.04-.38,.11h0c-.35,.23-.62,.71-.38,1.21,.11,.22,.49,.46,.67,.46,.3,0,.39-.04,.41-.06,.24-.16,.4-.39,.48-.63Z"/><path class="cls-1" d="M63.28,51.66c-.5-.25-.97,.02-1.21,.38-.11,.16-.13,.39-.07,.61,.04,.14,.14,.39,.43,.53l.1,.07s.08,.06,.41,.06c.02,0,.52,0,.65-.42l.04-.09c.11-.16,.13-.39,.07-.61-.04-.14-.14-.39-.43-.53Z"/><path class="cls-1" d="M37.22,66.65c0,.46,.34,.8,.8,.8s.8-.34,.8-.8-.34-.8-.8-.8-.8,.34-.8,.8Z"/><path class="cls-1" d="M51.23,13.58c.03,.13,.13,.35,.37,.5,.22,.02,.38,.08,.49,.13,.03,.01,.06,.03,.09,.04,.38,0,.54-.1,.64-.42l.04-.09c.11-.16,.13-.39,.07-.61-.04-.14-.14-.39-.44-.54-.2-.13-.43-.15-.65-.1-.14,.04-.39,.14-.53,.44-.13,.2-.16,.43-.1,.65Z"/><path class="cls-1" d="M53.01,62.44c-.21-.31-.67-.58-1.16-.35-.34,.24-.6,.7-.36,1.19,.11,.22,.5,.47,.67,.47,.3,0,.39-.04,.41-.06,.41-.28,.68-.75,.43-1.25Z"/><path class="cls-1" d="M0,38.19c0,10.52,4.33,20.62,11.9,27.74h.02l.11,.11c.09,.09,.33,.22,.57,.22s.49-.13,.57-.22c.19-.19,.29-.47,.27-.72,0-.1-.05-.28-.21-.39C5.83,58.06,1.61,48.32,1.61,38.19S6.07,17.9,13.86,10.97c.39-.4,.32-.88,.1-1.19-.37-.36-.85-.28-1.16-.07C4.68,16.7,0,27.09,0,38.19Z"/><path class="cls-1" d="M38.02,0c-6.44,0-12.84,1.67-18.51,4.84-.48,.24-.61,.68-.36,1.19,.21,.31,.69,.58,1.18,.34C25.66,3.37,31.78,1.78,38.02,1.78c20.08,0,36.41,16.33,36.41,36.41,0,5.75-1.32,11.3-3.92,16.5-.24,.5,.03,.97,.38,1.2,.11,.1,.14,.11,.3,.11,.39,0,.55-.1,.66-.42,2.79-5.27,4.19-11.1,4.19-17.4C76.05,17.13,58.99,0,38.02,0Z"/><path class="cls-1" d="M36.13,26.04c-.32-.21-.88-.11-1.12,.17l-.04,.06c-.22,.34-.1,.95,.23,1.17l11.95,7.91c.08,.07,.17,.1,.47,.1,.24,0,.59-.13,.67-.3,.24-.38,.12-.99-.21-1.21l-11.95-7.91Z"/><path class="cls-1" d="M31.09,51.68V23.03c-.12-.45-.51-.8-.97-.8s-.8,.34-.8,.8v30.14c0,.39,.1,.55,.42,.65l.15,.09c.05,.05,.08,.06,.24,.06,.3,0,.39-.04,.41-.06l22.96-15.04c.16-.1,.28-.3,.32-.53,.05-.24,.01-.47-.09-.63-.1-.16-.3-.28-.54-.33-.23-.05-.47-.01-.62,.09l-21.47,14.19Z"/><path class="cls-1" d="M67.29,61.22l-.06-.05c-.41-.41-.89-.07-1.12,.13l-.02,.02c-7.05,8.44-17.29,13.27-28.07,13.27h-5.52l-.07-.29c-.48-2.08-2.38-3.59-4.52-3.59s-4.04,1.51-4.52,3.59l-.07,.29H.81c-.46,0-.8,.34-.8,.8s.34,.8,.8,.8H23.33l.07,.29c.48,2.08,2.38,3.58,4.52,3.58s4.04-1.51,4.52-3.58l.07-.29h5.52c11.52,0,22.22-5.04,29.34-13.84,.22-.22,.23-.46,.22-.59-.02-.23-.14-.44-.3-.55Zm-39.37,17.25c-1.72,0-3.07-1.35-3.07-3.07s1.35-3.07,3.07-3.07,3.07,1.35,3.07,3.07-1.35,3.07-3.07,3.07Z"/></g></g></svg>