<?xml version="1.0" encoding="UTF-8"?><svg id="Layer_2" xmlns="http://www.w3.org/2000/svg" viewBox="0 0 85.93 82"><defs><style>.cls-1{fill:#fff;}</style></defs><g id="work"><g><path class="cls-1" d="M80.91,0H18.6c-.37,0-.68,.3-.68,.68,0,.37,.3,.68,.68,.68h62.31c2.02,0,3.66,1.64,3.67,3.66V46.66h-3.67V30.63c0-1.81-1.27-3.37-3.05-3.74v-6.27c0-7.57-6.14-13.7-13.7-13.7-2.73,0-5.4,.82-7.66,2.34-.31,.21-.39,.63-.18,.94s.63,.39,.94,.18c5.65-3.81,13.32-2.31,17.13,3.34,1.37,2.04,2.11,4.44,2.11,6.9v6.2h-2.71v-6.2c.14-5.34-4.07-9.78-9.41-9.92-5.34-.14-9.78,4.07-9.92,9.41,0,.17,0,.34,0,.51v6.17h-2.71v-6.2c0-2.06,.51-4.08,1.49-5.89,.18-.33,.05-.74-.27-.92-.33-.18-.74-.05-.92,.27-1.09,2-1.65,4.25-1.65,6.52v6.28c-1.77,.37-3.04,1.93-3.05,3.74v16.92c0,2.11,1.71,3.81,3.82,3.82h25.88c1.93,0,3.56-1.41,3.81-3.32h3.71v8.18c0,2.02-1.64,3.66-3.67,3.66H5.02c-2.02,0-3.66-1.64-3.67-3.66v-8.18H44.12c.37,0,.68-.3,.68-.68s-.3-.68-.68-.68H7.19v-7.02c0-.37-.3-.68-.68-.68s-.68,.3-.68,.68v7.02H1.35V5.01c0-2.02,1.64-3.66,3.67-3.66H13.06c.37,0,.68-.3,.68-.68S13.43,0,13.06,0H5.02c-2.77,0-5.02,2.24-5.02,5.01V47.31H0v8.8c0,2.77,2.25,5.01,5.02,5.01h29.92c-.32,8.36-6.57,15.91-15.44,18.5-.62,.13-1.02,.74-.89,1.36,0,0,0,0,0,0,.1,.6,.62,1.03,1.23,1.02h46.24c.61,.02,1.13-.42,1.23-1.02,.08-.58-.3-1.13-.87-1.27-8.87-2.59-15.12-10.15-15.45-18.5h29.92c2.77,0,5.01-2.25,5.02-5.01V5.01C85.93,2.24,83.68,0,80.91,0h0Zm-25.09,20.62c-.13-4.59,3.48-8.42,8.08-8.55,4.59-.13,8.42,3.48,8.55,8.08,0,.16,0,.32,0,.47v6.17h-16.63v-6.17Zm23.72,26.9c0,1.36-1.1,2.46-2.46,2.46h-25.87c-1.36,0-2.46-1.1-2.46-2.46v-3.21h6.4c.37,0,.68-.3,.68-.68s-.3-.68-.68-.68h-6.4v-3.21h6.4c.37,0,.68-.3,.68-.68s-.3-.68-.68-.68h-6.4v-3.21h6.4c.37,0,.68-.3,.68-.68s-.3-.68-.68-.68h-6.4v-3.21c-.01-1.36,1.08-2.48,2.44-2.49,0,0,.02,0,.03,0h25.88c1.36,0,2.46,1.1,2.46,2.46v3.21h-6.41c-.37,0-.68,.3-.68,.68s.3,.68,.68,.68h6.41v3.21h-6.41c-.37,0-.68,.3-.68,.68s.3,.68,.68,.68h6.41v3.23h-6.41c-.37,0-.68,.3-.68,.68s.3,.68,.68,.68h6.41v3.21Zm-14.64,33.16H21.01c2.49-.86,4.82-2.12,6.9-3.74h11.1c.37,0,.68-.3,.68-.68s-.3-.68-.68-.68h-9.47c4.07-3.7,6.5-8.86,6.77-14.35h13.34c.31,8.57,6.44,16.35,15.29,19.4v.03Z"/><path class="cls-1" d="M46.35,6.02c.37,0,.68-.3,.68-.68s-.3-.68-.68-.68h-6.77c-.37,0-.68,.3-.68,.68s.3,.68,.68,.68h6.77Z"/><path class="cls-1" d="M5.83,15.32v19.59c0,.37,.3,.68,.68,.68s.68-.3,.68-.68V15.32c0-.37-.3-.68-.68-.68s-.68,.3-.68,.68Z"/><path class="cls-1" d="M64.15,33.84c-.37,0-.68,.3-.68,.68v9.12c0,.37,.3,.68,.68,.68s.68-.3,.68-.68v-9.12c0-.37-.3-.68-.68-.68h0Z"/><path class="cls-1" d="M42.96,51.47c-1.3,0-2.35,1.05-2.35,2.35s1.05,2.35,2.35,2.35c1.28,0,2.33-1.03,2.35-2.31,.01-1.3-1.03-2.37-2.33-2.38,0,0-.01,0-.02,0Zm0,3.34c-.55,0-.99-.45-.99-1,0-.55,.45-.99,1-.99,.55,0,.99,.45,.99,1,0,.01,0,.02,0,.03-.02,.54-.46,.96-.99,.96Z"/><path class="cls-1" d="M27.78,16.29c-6.19,0-11.2,5.02-11.19,11.21,0,6.19,5.02,11.2,11.21,11.19,6.19,0,11.2-5.02,11.19-11.21,0,0,0-.01,0-.02,0-1.04-.15-2.08-.43-3.08-.1-.36-.48-.57-.84-.47-.36,.1-.57,.48-.47,.84,1.49,5.23-1.55,10.67-6.77,12.15-5.23,1.49-10.67-1.55-12.15-6.77-1.49-5.23,1.55-10.67,6.77-12.15,3.2-.91,6.63-.14,9.14,2.04,.26,.26,.69,.26,.95,0,.25-.28,.22-.71-.06-.96,0,0,0,0,0,0-2.04-1.78-4.65-2.76-7.35-2.77Z"/><path class="cls-1" d="M24.02,25.82c-.27-.26-.7-.26-.96,.01s-.26,.7,.01,.96l4.23,4.34c.13,.13,.3,.2,.48,.2,.18,0,.35-.07,.48-.2l12.04-12.04c.27-.26,.27-.69,0-.96,0,0,0,0,0,0-.26-.26-.69-.26-.95,0l-11.56,11.54-3.77-3.84Z"/></g></g></svg>