<?xml version="1.0" encoding="UTF-8"?><svg id="Layer_2" xmlns="http://www.w3.org/2000/svg" viewBox="0 0 80 84.52"><defs><style>.cls-1{fill:#fff;}</style></defs><g id="work"><path class="cls-1" d="M54.95,84.52c-.38,0-.71-.26-.81-.63l-2.43-9.45H21.18l-2.43,9.45c-.09,.37-.43,.63-.81,.63H7.69c-.26,0-.5-.12-.66-.32s-.21-.47-.15-.72l5.2-20.2h-2.46c-5.31,0-9.63-4.32-9.63-9.63V27.31c0-.46,.37-.83,.83-.83s.83,.37,.83,.83v26.34c0,4.39,3.57,7.96,7.96,7.96H63.26c4.39,0,7.96-3.57,7.96-7.96V31.91l-.77,.6c-1.29,1-2.59,1.84-3.86,2.49l-1.07,.74v19.15c0,.46-.37,.83-.83,.83H8.2c-.46,0-.83-.37-.83-.83V24.53c0-.22,.09-.43,.24-.59l9.37-9.38c.16-.16,.37-.24,.59-.24h47.11c.46,0,.83,.37,.83,.83v4.83l.79-.68c1.42-1.22,2.94-2.3,4.39-3.11l.33-.18-.1-.36c-.97-3.46-4.05-5.78-7.66-5.78H9.63c-4.39,0-7.96,3.57-7.96,7.96v4.24c0,.46-.37,.83-.83,.83s-.83-.37-.83-.83v-4.24c0-5.31,4.32-9.63,9.63-9.63H28.95v-3.21c0-2.75,2.24-4.99,4.99-4.99h5.02c2.75,0,4.98,2.24,4.98,4.99v3.21h19.32c2.31,0,4.54,.83,6.29,2.34,1.31,1.13,2.3,2.61,2.85,4.25l.16,.47,.47-.18c1.21-.47,2.3-.7,3.26-.7,1.14,0,2.05,.34,2.72,1.01,2.79,2.79-.64,9.55-5.56,14.47l-.55,.54v23.25c0,5.31-4.32,9.63-9.63,9.63h-2.46l2.76,10.72c.11,.44-.15,.9-.6,1.01-.07,.02-.14,.03-.21,.03-.38,0-.71-.26-.81-.63l-2.87-11.13h-8.53l5.04,19.57h8.53l-.86-3.36c-.06-.22-.02-.44,.09-.63,.11-.19,.29-.33,.51-.38,.07-.02,.14-.03,.21-.03,.38,0,.71,.26,.8,.62l1.13,4.4c.06,.25,.01,.51-.15,.72-.16,.2-.4,.32-.66,.32h-10.25Zm-46.18-1.67h8.53l5.04-19.57H13.81l-5.04,19.57Zm12.85-10.08h29.66l-.8-3.12H22.42l-.8,3.12Zm1.23-4.78h27.2l-1.21-4.71H24.06l-1.21,4.71Zm-13.81-13.94H63.85v-17.16s-2.94,2.04-2.94,2.04l-.05,.12c-2.15,4.98-6.64,5.61-10.31,5.61-.46,0-.83-.37-.83-.83,0-2.74,.4-4.78,1.26-6.43,.91-1.74,2.34-3.02,4.36-3.89l.13-.05,3.9-5.62c1.05-2.05,2.55-4.13,4.37-6.07l.13-.14v-5.67H18.41v8.54c0,.46-.37,.83-.83,.83H9.04v28.7Zm46.45-18.76c-2.63,1.31-3.85,3.45-4.07,7.18l-.03,.54,.54-.03c3.73-.23,5.87-1.44,7.18-4.07l.15-.31-3.45-3.45-.31,.15Zm1.59-1.23l3.25,3.25,4.5-3.13-4.63-4.63-3.13,4.5Zm19.18-18.01c-2.22,0-6.35,1.88-10.54,6.08-1.8,1.8-3.33,3.76-4.42,5.66l-.18,.32,5.18,5.18,.32-.18c1.9-1.09,3.86-2.62,5.66-4.42,5.21-5.21,7.11-10.56,5.56-12.11-.35-.35-.87-.52-1.57-.52ZM10.22,23.69h6.53v-6.53l-6.53,6.53ZM33.93,1.67c-1.83,0-3.32,1.49-3.32,3.32v3.21h11.66v-3.21c0-1.83-1.49-3.32-3.32-3.32h-5.02Z"/></g></svg>