<?xml version="1.0" encoding="UTF-8"?><svg id="Layer_2" xmlns="http://www.w3.org/2000/svg" viewBox="0 0 79.96 89"><defs><style>.cls-1{fill:#fff;}</style></defs><g id="work"><g><path class="cls-1" d="M6.7,5.87c-.48,0-.87-.39-.87-.87s.39-.87,.87-.87,.87,.39,.87,.87-.39,.87-.87,.87"/><path class="cls-1" d="M11.71,5.96c-.48,0-.87-.39-.87-.87s.39-.87,.87-.87,.87,.39,.87,.87-.39,.87-.87,.87"/><path class="cls-1" d="M16.73,6.05c-.48,0-.87-.39-.87-.87s.39-.87,.87-.87,.87,.39,.87,.87-.39,.87-.87,.87"/><path class="cls-1" d="M74.62,89c-.9,0-1.75-.35-2.38-.98l-17.82-17.82-.37,.25c-4.64,3.17-10.06,4.84-15.68,4.84-14.44,0-26.38-10.83-27.75-25.2l-.05-.49H2.94c-1.62,0-2.94-1.32-2.94-2.94V2.94C0,1.32,1.32,0,2.94,0H73.7c1.62,0,2.94,1.32,2.94,2.94V46.66c0,1.62-1.32,2.94-2.94,2.94h-7.52l-.05,.49c-.44,4.65-2.07,9.14-4.71,13l-.25,.37,17.82,17.82c.63,.64,.99,1.48,.99,2.38s-.35,1.74-.99,2.38l-1.97,1.97c-.63,.63-1.48,.98-2.38,.98m-14.79-23.82c-1.11,1.34-2.35,2.58-3.69,3.69l-.46,.38,17.66,17.66c.34,.34,.79,.53,1.28,.53s.94-.19,1.28-.53l1.97-1.97c.34-.34,.53-.8,.53-1.28s-.19-.94-.53-1.28l-17.66-17.66-.38,.46ZM38.37,21.09c-14.51,0-26.32,11.81-26.32,26.32s11.81,26.32,26.32,26.32,26.32-11.81,26.32-26.32-11.81-26.32-26.32-26.32m0-1.56c15.37,0,27.88,12.51,27.88,27.88v.54l.54,.09h6.9c.76,0,1.38-.62,1.38-1.38V9.88h-8.2c-.43,0-.78-.35-.78-.78s.35-.78,.78-.78h8.2V2.94c0-.76-.62-1.38-1.38-1.38H2.94c-.76,0-1.38,.62-1.38,1.38v5.38H61.6c.43,0,.78,.35,.78,.78s-.35,.78-.78,.78H1.56V46.66c0,.76,.62,1.38,1.38,1.38h7.55v-.54c0-7.82,3.26-15.27,8.96-20.54l1.01-.94h-7.78c-.43,0-.78-.35-.78-.78s.35-.78,.78-.78h9.88l.14-.09c4.64-3.16,10.05-4.83,15.67-4.83"/><path class="cls-1" d="M38.37,70.36c-10.09,0-19.14-6.76-22.01-16.45l-.05-.16c-.59-2.06-.89-4.19-.89-6.34,0-5.1,1.64-9.92,4.73-13.96,.15-.19,.38-.3,.62-.3,.17,0,.34,.06,.47,.16,.16,.13,.27,.31,.3,.52,.03,.21-.03,.41-.16,.57-2.88,3.76-4.41,8.26-4.41,13.01,0,1.69,.2,3.37,.59,5.01l.1,.41H59.07l.1-.41c.39-1.64,.59-3.32,.59-5.01,0-11.8-9.6-21.39-21.39-21.39-4.94,0-9.58,1.64-13.42,4.74-.14,.11-.31,.17-.49,.17-.24,0-.46-.11-.61-.29-.13-.16-.19-.36-.17-.57,.02-.21,.12-.39,.29-.52,4.06-3.28,9.18-5.08,14.4-5.08,12.66,0,22.95,10.3,22.95,22.95,0,2.15-.3,4.27-.89,6.32l-.06,.19c-2.87,9.68-11.92,16.43-22.01,16.43m-19.95-15.23c3.18,8.18,11.19,13.68,19.95,13.68s16.78-5.5,19.95-13.68l.29-.74H18.14l.29,.74Z"/><path class="cls-1" d="M7.23,18.28c-.43,0-.78-.35-.78-.78s.35-.78,.78-.78h4.05c.43,0,.78,.35,.78,.78s-.35,.78-.78,.78H7.23Z"/><path class="cls-1" d="M16.2,18.28c-.43,0-.78-.35-.78-.78s.35-.78,.78-.78h7.22c.43,0,.78,.35,.78,.78s-.35,.78-.78,.78h-7.22Z"/><path class="cls-1" d="M51.92,18.28c-.43,0-.78-.35-.78-.78s.35-.78,.78-.78h17.42c.43,0,.78,.35,.78,.78s-.35,.78-.78,.78h-17.42Z"/><path class="cls-1" d="M7.23,26.02c-.43,0-.78-.35-.78-.78s.35-.78,.78-.78h1.76c.43,0,.78,.35,.78,.78s-.35,.78-.78,.78h-1.76Z"/><path class="cls-1" d="M62.13,26.02c-.43,0-.78-.35-.78-.78s.35-.78,.78-.78h7.22c.43,0,.78,.35,.78,.78s-.35,.78-.78,.78h-7.22Z"/><path class="cls-1" d="M7.23,34.29c-.43,0-.78-.35-.78-.78s.35-.78,.78-.78h3.34c.43,0,.78,.35,.78,.78s-.35,.78-.78,.78h-3.34Z"/><path class="cls-1" d="M26.23,37.11c-.43,0-.78-.35-.78-.78s.35-.78,.78-.78h24.46c.43,0,.78,.35,.78,.78s-.35,.78-.78,.78H26.23Z"/><path class="cls-1" d="M22.01,45.2c-.43,0-.78-.35-.78-.78s.35-.78,.78-.78h3.17c.43,0,.78,.35,.78,.78s-.35,.78-.78,.78h-3.17Z"/><path class="cls-1" d="M30.63,45.2c-.43,0-.78-.35-.78-.78s.35-.78,.78-.78h23.93c.43,0,.78,.35,.78,.78s-.35,.78-.78,.78H30.63Z"/></g></g></svg>