<?xml version="1.0" encoding="UTF-8"?><svg id="Layer_2" xmlns="http://www.w3.org/2000/svg" viewBox="0 0 88.08 86.55"><defs><style>.cls-1{fill:#fff;}</style></defs><g id="work"><g><g><path class="cls-1" d="M72.32,17.25c0,.82-.67,1.49-1.49,1.49s-1.49-.67-1.49-1.49,.67-1.49,1.49-1.49,1.49,.67,1.49,1.49Z"/><path class="cls-1" d="M60.34,17.25c0,.82-.67,1.49-1.49,1.49s-1.49-.67-1.49-1.49,.67-1.49,1.49-1.49,1.49,.67,1.49,1.49Z"/><path class="cls-1" d="M66.33,17.25c0,.82-.67,1.49-1.49,1.49s-1.49-.67-1.49-1.49,.67-1.49,1.49-1.49,1.49,.67,1.49,1.49Z"/></g><path class="cls-1" d="M54.85,43.16c-.16,0-.32-.04-.46-.12-.31-.18-.48-.53-.44-.89l1.06-8.48c.03-.22-.06-.43-.22-.56-.17-.13-.39-.16-.59-.07-.19,.08-.33,.26-.35,.47l-.02,.19c-.06,.45-.44,.79-.89,.79h-2.96c-3.77,0-6.84-3.07-6.84-6.84V6.84c0-3.77,3.07-6.84,6.84-6.84h29.72c3.77,0,6.84,3.07,6.84,6.84h0V27.65c0,3.77-3.07,6.84-6.84,6.84h-8.94c-.24,0-.48-.1-.65-.27-.17-.17-.26-.41-.25-.65,0-.12-.03-.23-.1-.33-.08-.11-.22-.19-.37-.22-.15-.02-.31,.01-.44,.11l-13.57,9.87c-.16,.11-.34,.17-.53,.17Zm-.41-11.97c.52,0,1.03,.17,1.45,.49,.68,.52,1.03,1.37,.91,2.22l-.8,6.41,11.89-8.65c.52-.38,1.15-.53,1.78-.43,.63,.1,1.18,.44,1.56,.95,.11,.16,.2,.33,.27,.5h8.2c2.78,0,5.04-2.27,5.04-5.04V6.84c0-2.78-2.27-5.04-5.04-5.04h-29.72c-2.78,0-5.04,2.27-5.04,5.04V27.65c0,2.78,2.27,5.04,5.04,5.04h2.24c.23-.58,.69-1.06,1.28-1.31,.3-.13,.62-.19,.94-.19Z"/><path class="cls-1" d="M.95,67.23c-.52,0-.95-.42-.95-.95v-2.97c0-.52,.42-.95,.95-.95s.95,.42,.95,.95v2.97c0,.52-.42,.95-.95,.95Z"/><path class="cls-1" d="M5.4,68.71c-.52,0-.95-.42-.95-.95v-5.94c0-.52,.42-.95,.95-.95s.95,.42,.95,.95v5.94c0,.52-.42,.95-.95,.95Z"/><path class="cls-1" d="M23.24,68.71c-.52,0-.95-.42-.95-.95v-5.94c0-.52,.42-.95,.95-.95s.95,.42,.95,.95v5.94c0,.52-.42,.95-.95,.95Z"/><path class="cls-1" d="M11.35,71.69c-.52,0-.95-.42-.95-.95v-11.89c0-.52,.42-.95,.95-.95s.95,.42,.95,.95v11.89c0,.52-.42,.95-.95,.95Z"/><path class="cls-1" d="M17.29,71.69c-.52,0-.95-.42-.95-.95v-11.89c0-.52,.42-.95,.95-.95s.95,.42,.95,.95v11.89c0,.52-.42,.95-.95,.95Z"/><path class="cls-1" d="M29.18,74.66c-.52,0-.95-.42-.95-.95v-17.83c0-.52,.42-.95,.95-.95s.95,.42,.95,.95v17.83c0,.52-.42,.95-.95,.95Z"/><path class="cls-1" d="M35.12,77.63c-.52,0-.95-.42-.95-.95v-23.77c0-.52,.42-.95,.95-.95s.95,.42,.95,.95v23.77c0,.52-.42,.95-.95,.95Z"/><path class="cls-1" d="M41.07,86.55c-.52,0-.95-.42-.95-.95V43.99c0-.52,.42-.95,.95-.95s.95,.42,.95,.95v41.61c0,.52-.42,.95-.95,.95Z"/><path class="cls-1" d="M87.13,67.23c-.52,0-.95-.42-.95-.95v-2.97c0-.52,.42-.95,.95-.95s.95,.42,.95,.95v2.97c0,.52-.42,.95-.95,.95Z"/><path class="cls-1" d="M82.67,68.71c-.52,0-.95-.42-.95-.95v-5.94c0-.52,.42-.95,.95-.95s.95,.42,.95,.95v5.94c0,.52-.42,.95-.95,.95Z"/><path class="cls-1" d="M64.84,68.71c-.52,0-.95-.42-.95-.95v-5.94c0-.52,.42-.95,.95-.95s.95,.42,.95,.95v5.94c0,.52-.42,.95-.95,.95Z"/><path class="cls-1" d="M76.73,71.69c-.52,0-.95-.42-.95-.95v-11.89c0-.52,.42-.95,.95-.95s.95,.42,.95,.95v11.89c0,.52-.42,.95-.95,.95Z"/><path class="cls-1" d="M70.79,71.69c-.52,0-.95-.42-.95-.95v-11.89c0-.52,.42-.95,.95-.95s.95,.42,.95,.95v11.89c0,.52-.42,.95-.95,.95Z"/><path class="cls-1" d="M58.9,74.66c-.52,0-.95-.42-.95-.95v-17.83c0-.52,.42-.95,.95-.95s.95,.42,.95,.95v17.83c0,.52-.42,.95-.95,.95Z"/><path class="cls-1" d="M52.95,77.63c-.52,0-.95-.42-.95-.95v-23.77c0-.52,.42-.95,.95-.95s.95,.42,.95,.95v23.77c0,.52-.42,.95-.95,.95Z"/><path class="cls-1" d="M47.01,86.55c-.52,0-.95-.42-.95-.95V43.99c0-.52,.42-.95,.95-.95s.95,.42,.95,.95v41.61c0,.52-.42,.95-.95,.95Z"/></g></g></svg>