<?xml version="1.0" encoding="UTF-8"?><svg id="Layer_2" xmlns="http://www.w3.org/2000/svg" viewBox="0 0 86.17 87"><defs><style>.cls-1{fill:#fff;}</style></defs><g id="work"><g><path class="cls-1" d="M85.41,82.27H3.91V.76c0-.42-.34-.76-.76-.76s-.76,.34-.76,.76V7.4H.76c-.42,0-.76,.34-.76,.76s.34,.76,.76,.76h1.61V26.12H.76c-.42,0-.76,.34-.76,.76s.34,.76,.76,.76h1.61v17.18H.76c-.42,0-.76,.34-.76,.76s.34,.76,.76,.76h1.61v17.18H.76c-.42,0-.76,.34-.76,.76s.34,.76,.76,.76h1.61v17.19H.76c-.42,0-.76,.34-.76,.76s.34,.76,.76,.76h1.63s0,.05,0,.07v2.37c0,.42,.34,.76,.76,.76s.76-.34,.76-.76v-2.44H21.11v2.44c0,.42,.34,.76,.76,.76s.76-.34,.76-.76v-2.37s0-.05,0-.07h17.18v2.44c0,.42,.34,.76,.76,.76s.76-.34,.76-.76v-2.44h17.19s0,.05,0,.07v2.37c0,.42,.34,.76,.76,.76s.76-.34,.76-.76v-2.44h17.21v2.44c0,.42,.34,.76,.76,.76s.76-.34,.76-.76v-2.44h6.65c.4-.03,.71-.36,.71-.76,0-.42-.34-.76-.76-.76Z"/><path class="cls-1" d="M18.07,55.83h-5.41c-.42,0-.76,.34-.76,.76v18.42c0,.42,.34,.76,.76,.76h5.41c.42,0,.76-.34,.76-.76v-18.42c0-.42-.34-.76-.76-.76Zm-.76,18.42h-3.88v-16.89h3.88v16.89Z"/><path class="cls-1" d="M29.46,47.54h-5.41c-.42,0-.76,.34-.76,.76v26.71c0,.42,.34,.76,.76,.76h5.41c.42,0,.76-.34,.76-.76v-26.71c0-.42-.34-.76-.76-.76Zm-.76,26.71h-3.88v-25.18h3.88v25.18Z"/><path class="cls-1" d="M63.62,47.54h-5.41c-.42,0-.76,.34-.76,.76v26.71c0,.42,.34,.76,.76,.76h5.41c.42,0,.76-.34,.76-.76v-26.71c0-.42-.34-.76-.76-.76Zm-.76,26.71h-3.88v-25.18h3.88v25.18Z"/><path class="cls-1" d="M52.26,38.15h-5.44c-.42,0-.76,.34-.76,.76v36.1c0,.42,.34,.76,.76,.76h5.44c.42,0,.76-.34,.76-.76V38.91c0-.42-.34-.76-.76-.76Zm-.76,36.1h-3.91V39.68h3.91v34.57Z"/><path class="cls-1" d="M75.01,27.21h-5.41c-.42,0-.76,.34-.76,.76v47.03c0,.42,.34,.76,.76,.76h5.41c.42,0,.76-.34,.76-.76V27.98c0-.42-.34-.76-.76-.76Zm-.76,47.03h-3.88V28.74h3.88v45.5Z"/><path class="cls-1" d="M40.85,50.05h-5.41c-.42,0-.76,.34-.76,.76v24.19c0,.42,.34,.76,.76,.76h5.41c.42,0,.76-.34,.76-.76v-24.19c0-.42-.34-.76-.76-.76Zm-.76,24.19h-3.88v-22.66h3.88v22.66Z"/><path class="cls-1" d="M81,4.22s0-.07,0-.1c-.02-.04-.04-.07-.07-.1-.03-.05-.06-.1-.1-.15l-.1-.05s-.09-.07-.15-.09c-.05-.02-.11-.03-.17-.04h-7.6c-.42,0-.76,.34-.76,.76s.34,.76,.76,.76h5.73l-20.4,21.7-7.09-5.8c-.31-.25-.77-.22-1.04,.07l-14.66,15.49-6.8-5.14c-.3-.23-.71-.2-.99,.05L7.6,50.26c-.31,.29-.32,.77-.04,1.08,.3,.3,.78,.3,1.08,0,0,0,0,0,0,0l19.51-18.17,6.81,5.16c.31,.24,.75,.2,1.02-.08l14.65-15.48,7.09,5.8c.31,.26,.77,.23,1.05-.07L79.47,6.36v5.55c0,.42,.34,.76,.76,.76s.76-.34,.76-.76V4.41c0-.06,0-.13,0-.19Z"/></g></g></svg>