<?xml version="1.0" encoding="UTF-8"?><svg id="Layer_2" xmlns="http://www.w3.org/2000/svg" viewBox="0 0 82.36 82.36"><defs><style>.cls-1{fill:#fff;}</style></defs><g id="work"><g id="band_aid"><path class="cls-1" d="M20.47,82.36c-1.1,0-2.26-.16-3.46-.48-7.18-1.93-14.6-9.34-16.52-16.52-1.1-4.13-.3-7.69,2.31-10.31L55.05,2.8c2.62-2.62,6.18-3.42,10.31-2.31,7.19,1.93,14.6,9.34,16.52,16.52,1.11,4.13,.31,7.69-2.31,10.31L27.31,79.57c-1.85,1.85-4.18,2.8-6.85,2.8ZM61.93,2.01c-1.82,0-3.8,.53-5.47,2.2L4.21,56.46c-2.63,2.63-2.43,6.01-1.79,8.38,1.73,6.46,8.65,13.38,15.11,15.11,2.37,.63,5.74,.84,8.38-1.79h0L78.15,25.9c2.63-2.63,2.43-6.01,1.8-8.38-1.73-6.46-8.65-13.38-15.11-15.11-.86-.23-1.86-.41-2.91-.41Z"/><path class="cls-1" d="M16.18,53.76c.51-.51,.51-1.33,0-1.83s-1.33-.51-1.83,0c-.51,.51-.51,1.33,0,1.83,.51,.51,1.33,.51,1.83,0Z"/><path class="cls-1" d="M30.43,68.14c.51-.51,.51-1.33,0-1.83-.51-.51-1.33-.51-1.83,0-.51,.51-.51,1.33,0,1.83,.51,.51,1.33,.51,1.83,0Z"/><path class="cls-1" d="M23.39,60.8c.51-.5,.51-1.33,0-1.83-.51-.51-1.33-.51-1.83,0-.51,.51-.51,1.33,0,1.83,.51,.51,1.33,.51,1.83,0Z"/><path class="cls-1" d="M13.59,62.83c.51-.51,.51-1.33,0-1.83s-1.33-.51-1.83,0c-.51,.51-.51,1.33,0,1.83,.51,.51,1.33,.51,1.83,0Z"/><path class="cls-1" d="M21.36,70.61c.51-.51,.51-1.33,0-1.83-.51-.51-1.33-.51-1.83,0-.51,.51-.51,1.33,0,1.83,.51,.51,1.33,.51,1.83,0Z"/><path class="cls-1" d="M53.76,16.18c-.51,.51-1.33,.51-1.83,0-.51-.51-.51-1.33,0-1.83,.51-.51,1.33-.51,1.83,0s.51,1.33,0,1.83Z"/><path class="cls-1" d="M68.14,30.43c-.51,.51-1.33,.51-1.83,0-.51-.51-.51-1.33,0-1.83,.51-.51,1.33-.51,1.83,0,.51,.51,.51,1.33,0,1.83Z"/><path class="cls-1" d="M60.8,23.39c-.51,.51-1.33,.51-1.83,0-.51-.51-.51-1.33,0-1.83,.51-.51,1.33-.51,1.83,0,.51,.51,.51,1.33,0,1.83Z"/><path class="cls-1" d="M62.83,13.58c-.51,.51-1.33,.51-1.83,0-.51-.51-.51-1.33,0-1.83,.51-.51,1.33-.51,1.83,0s.51,1.33,0,1.83Z"/><path class="cls-1" d="M70.61,21.36c-.51,.51-1.33,.51-1.83,0-.51-.51-.51-1.33,0-1.83,.51-.51,1.33-.51,1.83,0,.51,.51,.51,1.33,0,1.83Z"/><path class="cls-1" d="M56.73,34.4c-.26,0-.51-.1-.71-.29l-10.96-10.96-3.18,3.18c-.39,.39-1.02,.39-1.41,0s-.39-1.02,0-1.41l3.89-3.89c.39-.39,1.02-.39,1.41,0l11.66,11.66c.39,.39,.39,1.02,0,1.41-.2,.2-.45,.29-.71,.29Z"/><path class="cls-1" d="M37.29,61.62c-.26,0-.51-.1-.71-.29l-15.55-15.55c-.39-.39-.39-1.02,0-1.41l2.59-2.59c.39-.39,1.02-.39,1.41,0,.39,.39,.39,1.02,0,1.41l-1.88,1.89,14.14,14.14,22.62-22.62c.39-.39,1.02-.39,1.41,0s.39,1.02,0,1.41l-23.33,23.33c-.2,.2-.45,.29-.71,.29Z"/><path class="cls-1" d="M61.9,82.36c-2.67,0-4.99-.94-6.85-2.8l-10.91-10.91c-.39-.39-.39-1.02,0-1.41s1.02-.39,1.41,0l10.91,10.91c2.63,2.63,6.01,2.43,8.38,1.79,6.46-1.73,13.38-8.65,15.11-15.11,.63-2.37,.84-5.74-1.79-8.38l-10.91-10.91c-.39-.39-.39-1.02,0-1.41s1.02-.39,1.41,0l10.91,10.91c2.62,2.62,3.42,6.18,2.31,10.31-1.92,7.18-9.34,14.6-16.52,16.52-1.21,.32-2.36,.48-3.46,.48Z"/><path class="cls-1" d="M14.41,38.51c-.26,0-.51-.1-.71-.29L2.8,27.31C.18,24.69-.62,21.13,.48,17,2.41,9.82,9.82,2.41,17,.48c4.13-1.1,7.69-.31,10.31,2.31l10.91,10.91c.39,.39,.39,1.02,0,1.41s-1.02,.39-1.41,0L25.9,4.21c-2.63-2.63-6.01-2.43-8.38-1.79-6.46,1.73-13.38,8.65-15.11,15.11-.63,2.37-.84,5.74,1.79,8.38l10.91,10.91c.39,.39,.39,1.02,0,1.41-.2,.2-.45,.29-.71,.29Z"/></g></g></svg>