<?xml version="1.0" encoding="UTF-8"?><svg id="Layer_2" xmlns="http://www.w3.org/2000/svg" viewBox="0 0 76.28 76.28"><defs><style>.cls-1{fill:#fff;}</style></defs><g id="work"><g id="first_aid_kit"><path class="cls-1" d="M70.49,76.28H5.79c-3.19,0-5.79-2.6-5.79-5.79V20.17c0-3.19,2.6-5.79,5.79-5.79H70.49c3.19,0,5.79,2.6,5.79,5.79v50.32c0,3.19-2.6,5.79-5.79,5.79ZM5.79,16.38c-2.09,0-3.79,1.7-3.79,3.79v50.32c0,2.09,1.7,3.79,3.79,3.79H70.49c2.09,0,3.79-1.7,3.79-3.79V20.17c0-2.09-1.7-3.79-3.79-3.79H5.79Z"/><path class="cls-1" d="M54.91,16.38c-.46,0-.87-.32-.98-.78l-2.4-10.78c-.71-2.47-1.72-2.81-2.62-2.81H27.36c-.9,0-1.91,.34-2.63,2.87l-2.38,10.72c-.12,.54-.65,.88-1.19,.76-.54-.12-.88-.65-.76-1.19l2.4-10.78c.83-2.92,2.37-4.38,4.57-4.38h21.57c2.2,0,3.74,1.45,4.56,4.32l2.41,10.84c.12,.54-.22,1.07-.76,1.19-.07,.02-.15,.02-.22,.02Z"/><path class="cls-1" d="M17.77,42.73h-1.2c-1.87,0-3.4-1.52-3.4-3.4v-5.99c0-.55,.45-1,1-1h5.99c.55,0,1,.45,1,1v5.99c0,1.87-1.52,3.4-3.4,3.4Zm-2.59-8.39v4.99c0,.77,.63,1.4,1.4,1.4h1.2c.77,0,1.4-.63,1.4-1.4v-4.99h-3.99Z"/><path class="cls-1" d="M59.71,42.73h-1.2c-1.87,0-3.4-1.52-3.4-3.4v-5.99c0-.55,.45-1,1-1h5.99c.55,0,1,.45,1,1v5.99c0,1.87-1.52,3.4-3.4,3.4Zm-2.59-8.39v4.99c0,.77,.63,1.4,1.4,1.4h1.2c.77,0,1.4-.63,1.4-1.4v-4.99h-3.99Z"/><path class="cls-1" d="M9.36,37.08c-.08,0-.16,0-.24-.03-.88-.22-1.26-.37-1.3-.38-1.98-.6-3.02-1.73-3.02-3.32,0-.55,.45-1,1-1s1,.45,1,1c0,.3,0,.92,1.69,1.44,.08,.03,.39,.15,1.12,.32,.54,.13,.86,.67,.73,1.21-.11,.46-.52,.76-.97,.76Z"/><path class="cls-1" d="M38.14,39.14c-4.87,0-9.2-.1-13.23-.29-.55-.03-.98-.5-.95-1.05,.03-.55,.48-.96,1.05-.95,4,.2,8.29,.29,13.13,.29s9.27-.1,13.23-.29c.53-.02,1.02,.4,1.05,.95,.03,.55-.4,1.02-.95,1.05-3.99,.19-8.47,.29-13.32,.29Z"/><path class="cls-1" d="M66.92,38.28c-.45,0-.86-.31-.97-.76-.13-.54,.2-1.08,.73-1.21,.73-.18,1.04-.3,1.05-.3,1.76-.54,1.76-1.17,1.76-1.47,0-.55,.45-1,1-1s1,.45,1,1c0,1.59-1.04,2.72-3.1,3.35,0,0,0,0,0,0,0,0-.38,.15-1.23,.35-.08,.02-.16,.03-.24,.03Z"/><path class="cls-1" d="M40.54,66.7h-4.79c-.55,0-1-.45-1-1v-3.1l-2.69,1.55c-.23,.13-.5,.17-.76,.1-.26-.07-.47-.24-.61-.47l-2.4-4.15c-.28-.48-.11-1.09,.37-1.37l2.69-1.55-2.69-1.55c-.23-.13-.4-.35-.47-.61-.07-.26-.03-.53,.1-.76l2.4-4.15c.13-.23,.35-.4,.61-.47,.25-.07,.53-.03,.76,.1l2.69,1.55v-3.1c0-.55,.45-1,1-1h4.79c.55,0,1,.45,1,1v3.1l2.69-1.55c.23-.13,.5-.17,.76-.1,.26,.07,.47,.24,.61,.47l2.4,4.15c.28,.48,.11,1.09-.37,1.37l-2.69,1.55,2.69,1.55c.48,.28,.64,.89,.37,1.37l-2.4,4.15c-.13,.23-.35,.4-.61,.47-.25,.07-.53,.03-.76-.1l-2.69-1.55v3.1c0,.55-.45,1-1,1Zm-3.79-2h2.79v-3.83c0-.36,.19-.69,.5-.87,.31-.18,.69-.18,1,0l3.32,1.92,1.4-2.42-3.32-1.92c-.31-.18-.5-.51-.5-.87s.19-.69,.5-.87l3.32-1.92-1.4-2.42-3.32,1.92c-.31,.18-.69,.18-1,0-.31-.18-.5-.51-.5-.87v-3.83h-2.79v3.83c0,.36-.19,.69-.5,.87-.31,.18-.69,.18-1,0l-3.32-1.92-1.4,2.42,3.32,1.92c.31,.18,.5,.51,.5,.87s-.19,.69-.5,.87l-3.32,1.92,1.4,2.42,3.32-1.92c.31-.18,.69-.18,1,0,.31,.18,.5,.51,.5,.87v3.83Z"/><path class="cls-1" d="M47.73,6.79H28.56c-.55,0-1-.45-1-1s.45-1,1-1h19.17c.55,0,1,.45,1,1s-.45,1-1,1Z"/></g></g></svg>