<?xml version="1.0" encoding="UTF-8"?><svg id="Layer_2" xmlns="http://www.w3.org/2000/svg" viewBox="0 0 82.87 82.87"><defs><style>.cls-1{fill:#fff;}</style></defs><g id="work"><g id="health_insurance"><path class="cls-1" d="M47.96,82.87H8.83c-.55,0-1-.45-1-1v-2.61c0-.55,.45-1,1-1s1,.45,1,1v1.61H47.96c.55,0,1,.45,1,1s-.45,1-1,1Z"/><path class="cls-1" d="M66.22,33.31c-.55,0-1-.45-1-1V15.04h-1.61c-.55,0-1-.45-1-1s.45-1,1-1h2.61c.55,0,1,.45,1,1v18.26c0,.55-.45,1-1,1Z"/><path class="cls-1" d="M58.39,30.7c-.55,0-1-.45-1-1V8.52h-8.13c-.55,0-1-.45-1-1s.45-1,1-1h9.13c.55,0,1,.45,1,1V29.7c0,.55-.45,1-1,1Z"/><path class="cls-1" d="M38.83,75.04H1c-.55,0-1-.45-1-1V7.52c0-.55,.45-1,1-1H10.13c.55,0,1,.45,1,1s-.45,1-1,1H2V73.04H38.83c.55,0,1,.45,1,1s-.45,1-1,1Z"/><path class="cls-1" d="M44.04,13.74H15.35c-.55,0-1-.45-1-1v-3.91c0-1.64,1.1-3.03,2.61-3.47V1c0-.55,.45-1,1-1h23.48c.55,0,1,.45,1,1V5.36c1.5,.43,2.61,1.82,2.61,3.47v3.91c0,.55-.45,1-1,1Zm-27.7-2h26.7v-2.91c0-.89-.72-1.61-1.61-1.61-.55,0-1-.45-1-1V2H18.96V6.22c0,.55-.45,1-1,1-.89,0-1.61,.72-1.61,1.61v2.91Z"/><path class="cls-1" d="M33.61,8.52h-7.83c-.55,0-1-.45-1-1v-1.3c0-.55,.45-1,1-1s1,.45,1,1v.3h5.83v-.3c0-.55,.45-1,1-1s1,.45,1,1v1.3c0,.55-.45,1-1,1Z"/><path class="cls-1" d="M50.57,24.17H8.83c-.55,0-1-.45-1-1s.45-1,1-1H50.57c.55,0,1,.45,1,1s-.45,1-1,1Z"/><path class="cls-1" d="M41.44,29.39H8.82c-.55,0-1-.45-1-1s.45-1,1-1H41.44c.55,0,1,.45,1,1s-.45,1-1,1Z"/><path class="cls-1" d="M29.7,39.83H8.83c-.55,0-1-.45-1-1s.45-1,1-1H29.7c.55,0,1,.45,1,1s-.45,1-1,1Z"/><path class="cls-1" d="M29.7,45.04H8.83c-.55,0-1-.45-1-1s.45-1,1-1H29.7c.55,0,1,.45,1,1s-.45,1-1,1Z"/><path class="cls-1" d="M29.7,55.48H8.83c-.55,0-1-.45-1-1s.45-1,1-1H29.7c.55,0,1,.45,1,1s-.45,1-1,1Z"/><path class="cls-1" d="M31,60.7H8.83c-.55,0-1-.45-1-1s.45-1,1-1H31c.55,0,1,.45,1,1s-.45,1-1,1Z"/><path class="cls-1" d="M15.35,65.91h-6.52c-.55,0-1-.45-1-1s.45-1,1-1h6.52c.55,0,1,.45,1,1s-.45,1-1,1Z"/><path class="cls-1" d="M58.39,82.87c-.14,0-.29-.03-.42-.09-21.56-10.06-24.06-24.1-24.06-33.78v-7.57c0-.54,.43-.98,.97-1,.14,0,14.22-.53,22.96-6.35,.34-.22,.77-.22,1.11,0,8.74,5.83,22.82,6.35,22.96,6.35,.54,.02,.97,.46,.97,1v7.57c0,9.68-2.49,23.71-24.06,33.78-.13,.06-.28,.09-.42,.09Zm-22.48-40.49v6.62c0,9.07,2.34,22.2,22.48,31.76,20.14-9.57,22.48-22.69,22.48-31.76v-6.62c-3.36-.21-14.55-1.29-22.48-6.28-7.93,4.99-19.12,6.07-22.48,6.28Z"/><path class="cls-1" d="M57.09,65.91h0c-.38,0-.72-.21-.89-.55l-3.14-6.28-1.65,2.48c-.19,.28-.5,.45-.83,.45h-2.61c-.55,0-1-.45-1-1s.45-1,1-1h2.07l2.31-3.47c.2-.3,.52-.47,.89-.44,.36,.02,.67,.23,.83,.55l3.02,6.04,5.63-11.25c.17-.35,.54-.57,.92-.55,.39,.01,.74,.25,.89,.61l3.65,8.52h11.08c.55,0,1,.45,1,1s-.45,1-1,1h-11.74c-.4,0-.76-.24-.92-.61l-3.06-7.15-5.56,11.12c-.17,.34-.52,.55-.89,.55Z"/><path class="cls-1" d="M58.39,77.65c-.16,0-.31-.04-.46-.11-16.85-8.68-18.8-20.45-18.8-28.54v-2.35c0-.49,.36-.91,.85-.99,3.8-.59,11.71-1.82,17.95-5.11,.29-.15,.64-.15,.93,0,6.23,3.29,13.57,4.43,17.95,5.11,.49,.08,.85,.5,.85,.99v2.35c0,4.8-.73,8.74-2.3,12.4-.22,.51-.81,.74-1.31,.52-.51-.22-.74-.81-.53-1.31,1.46-3.4,2.14-7.09,2.14-11.61v-1.49c-4.24-.67-11.25-1.9-17.26-4.95-6.01,3.04-13.22,4.31-17.26,4.95v1.49c0,8.13,1.98,18.47,17.26,26.52,5.28-2.79,9.38-6.1,12.2-9.86,.33-.44,.96-.53,1.4-.2,.44,.33,.53,.96,.2,1.4-3.08,4.11-7.57,7.7-13.34,10.68-.14,.07-.3,.11-.46,.11Z"/></g></g></svg>